<!--?xml version="1.0" encoding="UTF-8"?-->
<svg width="32px" height="32px" viewBox="0 0 32 32" version="1.1" xmlns="http://www.w3.org/2000/svg" xmlns:xlink="http://www.w3.org/1999/xlink">
    <title>1100.附件</title>
    <g id="1100.附件" stroke="none" stroke-width="1" fill="none" fill-rule="evenodd">
        <g id="编组" transform="translate(4.000000, 2.000000)" fill="#000000" fill-rule="nonzero">
            <path d="M6.7788852,17.3776 L16.1010371,7.82270056 C16.3930884,7.52135476 16.3930884,7.04255774 16.1010371,6.74121195 C15.9601873,6.59766321 15.7675269,6.51678757 15.5664177,6.51678757 C15.3653085,6.51678757 15.1726481,6.59766321 15.0317983,6.74121195 L5.71664639,16.2891115 L5.63964721,16.3643607 L5.51364853,16.4921093 C5.46508684,16.5413919 5.42383498,16.5973765 5.3911498,16.6583576 C4.01483939,18.373493 4.13888919,20.8469708 5.67989677,22.415797 C7.27753296,24.0530866 9.89166407,24.1106597 11.5598349,22.5452956 L22.5864688,11.2631644 C23.8172027,10.0201393 24.5050158,8.33993709 24.4992954,6.59071352 C24.5086416,4.84745716 23.8264616,3.17158514 22.6022187,1.93051257 C21.3884889,0.695585055 19.7295441,-2.18572857e-16 17.9980171,-2.18572857e-16 C16.2664901,-2.18572857e-16 14.6075453,0.695585055 13.3938156,1.93051257 L8.82986362,6.66246278 L4.43740985,11.1214159 L2.45468072,13.1373946 C-0.84403457,16.5673585 -0.810784916,22.0850505 2.51068012,25.450265 C4.11854827,27.0848832 6.316507,28.0038003 8.60936594,28 C10.8259617,28.0035043 12.957082,27.1450318 14.5523034,25.6060134 L14.6223026,25.543014 L14.7028018,25.4642649 L24.0319536,15.9006155 L24.094953,15.8358662 C24.3961693,15.542502 24.4101128,15.0629996 24.1264526,14.7526276 C23.9896382,14.6050879 23.7992148,14.5188005 23.5980809,14.5132044 C23.3969471,14.5076082 23.2020203,14.5831738 23.0572139,14.7228779 C23.0236629,14.7540693 22.9915467,14.7867694 22.9609649,14.8208769 L13.6475629,24.3670264 C13.6183402,24.3900608 13.5908498,24.4152116 13.5653138,24.4422756 C10.7846516,27.1734418 6.31813179,27.1389996 3.57991886,24.3652765 C0.841197692,21.5898057 0.814947979,17.0416035 3.51866951,14.2241332 C3.71116749,14.0316352 14.3388056,3.13974987 14.4630543,3.01375119 C15.3948473,2.0654803 16.6685601,1.53134001 17.9980171,1.53134001 C19.3274741,1.53134001 20.6011869,2.0654803 21.5329799,3.01375119 C22.47272,3.96749114 22.9907146,5.2362278 22.9907146,6.58896356 C22.9940304,7.93205014 22.4655326,9.22183653 21.52073,10.1764258 L10.5238458,21.4288073 C9.44800797,22.4254861 7.77353208,22.3819933 6.7508855,21.3308084 C5.71326172,20.2762639 5.67795871,18.5955335 6.67038634,17.4983487 C6.68991186,17.4795914 6.70696589,17.4584209 6.72113581,17.4353494 L6.7788852,17.37935 L6.7788852,17.3776 Z" id="路径" fill="#666666"></path>
        </g>
    </g>
</svg>