<!--?xml version="1.0" encoding="UTF-8"?-->
<svg width="32px" height="32px" viewBox="0 0 32 32" version="1.1" xmlns="http://www.w3.org/2000/svg" xmlns:xlink="http://www.w3.org/1999/xlink">
    <title>1799.核算日志</title>
    <g id="1799.核算日志" stroke="none" stroke-width="1" fill="none" fill-rule="evenodd">
        <path d="M7.078,5.99994543 L7.07893181,8.5 C7.07893181,9.32842712 7.75050468,10 8.57893181,10 L9.5,10 C10.3284271,10 11,9.32842712 11,8.5 L10.9998521,7.52128486 C10.9999506,7.51420167 11,7.50710661 11,7.5 L11,5.99994543 L22,5.99994543 L22,8.49738121 C22,9.32580834 22.6715729,9.99738121 23.5,9.99738121 L24.5,9.99738121 C25.3284271,9.99738121 26,9.32580834 26,8.49738121 L26,5.99994543 L29,5.99994543 C29.5522847,5.99994543 30,6.44766068 30,6.99994543 L30,27 C30,27.5522847 29.5522847,28 29,28 L4,28 C3.44771525,28 3,27.5522847 3,27 L3,6.99994543 C3,6.44766068 3.44771525,5.99994543 4,5.99994543 L7.078,5.99994543 Z M21.6213274,13 C21.3873059,13 21.1663897,13.0927115 21.0003904,13.2597192 L20.9779778,13.2825384 C20.7710894,13.4931797 19.164201,15.1292169 17.5074314,16.8160403 L17.1398948,17.1902439 L16.7739924,17.5627838 C16.0460004,18.3039815 15.3474222,19.0152319 14.7959131,19.5767453 C14.7067063,19.6675703 14.5282927,19.8492203 14.5282927,19.8492203 L11.9971165,17.2691738 C11.8298692,17.1008961 11.6089529,17.0081846 11.3755555,17.0081846 C11.1421581,17.0081846 10.923114,17.1008961 10.7577388,17.2691738 C10.5917396,17.4355465 10.5006272,17.6584351 10.5000032,17.8959289 C10.4993791,18.1353277 10.5911155,18.3613914 10.7583629,18.5315741 L13.9117241,21.7409158 C14.0764753,21.9079235 14.2967675,22 14.5307889,22 C14.7648104,22 14.9851026,21.9079235 15.1498537,21.7409158 L22.2422644,14.5233895 C22.4082636,14.3532068 22.5,14.1296832 22.5,13.8915544 C22.5,13.6534255 22.4088876,13.4292669 22.2422644,13.2609892 C22.0762651,13.0927115 21.8553489,13 21.6213274,13 Z M9,3 C9.55228475,3 10,3.44771525 10,4 L10,8 C10,8.55228475 9.55228475,9 9,9 C8.44771525,9 8,8.55228475 8,8 L8,4 C8,3.44771525 8.44771525,3 9,3 Z M24,3 C24.5522847,3 25,3.44771525 25,4 L25,8 C25,8.55228475 24.5522847,9 24,9 C23.4477153,9 23,8.55228475 23,8 L23,4 C23,3.44771525 23.4477153,3 24,3 Z" id="形状结合" fill="#666666"></path>
    </g>
</svg>