<!--?xml version="1.0" encoding="UTF-8"?-->
<svg width="32px" height="32px" viewBox="0 0 32 32" version="1.1" xmlns="http://www.w3.org/2000/svg" xmlns:xlink="http://www.w3.org/1999/xlink">
    <title>517.账户交易明细查询@1x</title>
    <g id="517.账户交易明细查询" stroke="none" stroke-width="1" fill="none" fill-rule="evenodd">
        <g id="编组" transform="translate(4.000000, 3.000000)" fill="#000000" fill-rule="nonzero">
            <path d="M16.9180891,13.6426302 C19.9103706,13.6426302 22.336094,16.2114634 22.336094,19.3802796 C22.336094,20.757949 21.8775962,22.0222128 21.1133791,23.0112789 L24,26.0685738 L23.2337784,26.88 L20.3477086,23.8222952 C19.4136098,24.6320682 18.219428,25.1179289 16.9180891,25.1179289 C13.9258077,25.1179289 11.5000843,22.5490958 11.5000843,19.3802796 C11.5000843,16.2114634 13.9258077,13.6426302 16.9180891,13.6426302 Z M4.86048,1.68093585 L4.86107833,2.73469164 C4.86107833,3.50022015 5.44718494,4.12885614 6.19514044,4.19634183 L6.32872636,4.20233964 L13.115587,4.20233964 C13.8811155,4.20233964 14.5097515,3.616233 14.5772372,2.86827749 L14.583235,2.73469164 L14.5824,1.68093585 L17.9766654,1.68093585 C18.7872249,1.68093585 19.4443134,2.33802424 19.4443134,3.14858385 L19.4446838,13.1619198 C18.6042095,12.7389704 17.661873,12.5019604 16.6665543,12.5019604 C13.1262913,12.5019604 10.2563411,15.5005238 10.2563411,19.1994392 C10.2563411,20.8521654 10.8293052,22.3650714 11.7790189,23.5331502 L1.467648,23.5331502 C0.657088389,23.5331502 0,22.8760135 0,22.0654539 L0,3.14858385 C0,2.33802424 0.657088389,1.68093585 1.467648,1.68093585 L4.86048,1.68093585 Z M11.04,12.48 L3.36,12.48 C3.09490333,12.48 2.88,12.6949033 2.88,12.96 C2.88,13.2250967 3.09490333,13.44 3.36,13.44 L3.36,13.44 L11.04,13.44 C11.3050967,13.44 11.52,13.2250967 11.52,12.96 C11.52,12.6949033 11.3050967,12.48 11.04,12.48 L11.04,12.48 Z M15.84,7.68 L3.36,7.68 C3.09490333,7.68 2.88,7.8949033 2.88,8.16 C2.88,8.4250967 3.09490333,8.64 3.36,8.64 L3.36,8.64 L15.84,8.64 C16.1050967,8.64 16.32,8.4250967 16.32,8.16 C16.32,7.8949033 16.1050967,7.68 15.84,7.68 L15.84,7.68 Z M13.7730553,0 L13.7730553,1.89422371 C13.7730553,2.70478332 13.1159669,3.36187171 12.3054073,3.36187171 L7.13890609,3.36187171 C6.32834639,3.36187171 5.67125806,2.70478332 5.67125806,1.89422371 L5.67125806,0 L13.7730553,0 Z" id="形状" fill="#666666"></path>
        </g>
    </g>
</svg>