<!--?xml version="1.0" encoding="UTF-8"?-->
<svg width="32px" height="32px" viewBox="0 0 32 32" version="1.1" xmlns="http://www.w3.org/2000/svg" xmlns:xlink="http://www.w3.org/1999/xlink">
    <title>642.实收@1x</title>
    <g id="642.实收" stroke="none" stroke-width="1" fill="none" fill-rule="evenodd">
        <g id="编组" transform="translate(4.000000, 3.000000)" fill="#000000" fill-rule="nonzero">
            <path d="M20.0168067,0 C20.7965029,0 21.4285714,0.632068601 21.4285714,1.41176471 L21.4285714,14.8210598 C20.4988004,14.3703768 19.4553848,14.117647 18.3529412,14.117647 C14.4544607,14.117647 11.2941177,17.2779901 11.2941177,21.1764706 C11.2941177,22.1801313 11.5035854,23.1348681 11.8811891,23.999349 L1.41176471,24 C0.632068601,24 0,23.3679313 0,22.5882353 L0,1.41176471 C0,0.632068601 0.632068601,0 1.41176471,0 L20.0168067,0 Z M14.9803922,8.47058824 L6.19607843,8.47058824 C5.89286327,8.47058824 5.64705883,8.70761396 5.64705883,9.00000001 C5.64705883,9.29238605 5.89286327,9.52941177 6.19607843,9.52941177 L6.19607843,9.52941177 L10.0392157,9.52941177 L10.0392157,11.6470588 L6.19607843,11.6470588 C5.89286327,11.6470588 5.64705883,11.8840846 5.64705883,12.1764706 C5.64705883,12.4688566 5.89286327,12.7058824 6.19607843,12.7058824 L6.19607843,12.7058824 L10.0392157,12.7058824 L10.0392157,16.4117647 C10.0392157,16.7041508 10.2850201,16.9411765 10.5882353,16.9411765 C10.8914505,16.9411765 11.1372549,16.7041508 11.1372549,16.4117647 L11.1372549,16.4117647 L11.1372549,12.7058824 L14.9803922,12.7058824 C15.2836073,12.7058824 15.5294118,12.4688566 15.5294118,12.1764706 C15.5294118,11.8840846 15.2836073,11.6470588 14.9803922,11.6470588 L14.9803922,11.6470588 L11.1372549,11.6470588 L11.1372549,9.52941177 L14.9803922,9.52941177 C15.2836073,9.52941177 15.5294118,9.29238605 15.5294118,9.00000001 C15.5294118,8.70761396 15.2836073,8.47058824 14.9803922,8.47058824 L14.9803922,8.47058824 Z M14.2941177,4.23529412 L10.5882353,6.88235293 L6.88235293,4.23529412 L5.7295587,5.17428256 L10.5882353,8.20588236 L15.4897269,5.17428256 L14.2941177,4.23529412 Z M18.3529412,15.5294118 C21.4717256,15.5294118 24,18.0576861 24,21.1764706 C24,24.2952551 21.4717256,26.8235294 18.3529412,26.8235294 C15.2341567,26.8235294 12.7058824,24.2952551 12.7058824,21.1764706 C12.7058824,18.0576861 15.2341567,15.5294118 18.3529412,15.5294118 Z M19.0976471,22.9595294 L18.8181177,23.3865882 C19.7188235,23.7282353 20.5884706,24.2018824 21.4425882,24.7997647 L21.7376471,24.3338824 C20.9456471,23.790353 20.0604706,23.3322353 19.0976471,22.9595294 Z M19.3150588,19.3256471 L18.7792941,19.3256471 L18.7792941,20.2884706 C18.756,20.9018824 18.6472941,21.4531765 18.4454118,21.9345882 L15.0056471,21.9345882 L15.0056471,22.4625882 L18.1736471,22.4625882 C18.1037647,22.5790588 18.0261177,22.6955294 17.9329412,22.8042353 C17.3738823,23.4254118 16.3722353,23.9301177 14.9435294,24.3105882 L15.2463529,24.7842353 C16.6595294,24.4037647 17.6844706,23.8757647 18.305647,23.2002353 C18.4997647,22.9750588 18.6628235,22.7265882 18.8025882,22.4625882 L21.5668235,22.4625882 L21.5668235,21.9345882 L19.0355294,21.9345882 C19.2063529,21.4454118 19.2995294,20.8941176 19.3150588,20.2884706 L19.3150588,19.3256471 Z M15.9917647,20.4282353 L15.7122353,20.8475294 C16.248,21.0649412 16.776,21.36 17.2884706,21.7482353 L17.5757647,21.3056471 C17.094353,20.964 16.5663529,20.6767059 15.9917647,20.4282353 Z M16.7992941,19.3334118 L16.5197647,19.7527059 C17.0477647,19.9701176 17.5524706,20.2651765 18.0494118,20.6534118 L18.3367059,20.2108235 C17.8708235,19.8691765 17.3583529,19.5741176 16.7992941,19.3334118 Z M18.2978824,17.6018823 L17.7310588,17.6950588 C17.8397647,17.8969412 17.9484706,18.1221176 18.0494118,18.3705882 L15.0988235,18.3705882 L15.0988235,19.908 L15.642353,19.908 L15.642353,18.8908235 L20.9068235,18.8908235 L20.9068235,19.908 L21.450353,19.908 L21.450353,18.3705882 L18.6084706,18.3705882 C18.5075294,18.0832941 18.4065882,17.8270588 18.2978824,17.6018823 Z" id="形状" fill="#346bf6"></path>
        </g>
    </g>
</svg>