<!--?xml version="1.0" encoding="UTF-8"?-->
<svg width="32px" height="32px" viewBox="0 0 32 32" version="1.1" xmlns="http://www.w3.org/2000/svg" xmlns:xlink="http://www.w3.org/1999/xlink">
    <title>508.下拨单新增@1x</title>
    <g id="508.下拨单新增" stroke="none" stroke-width="1" fill="none" fill-rule="evenodd">
        <g id="编组" transform="translate(5.000000, 4.000000)" fill="#000000" fill-rule="nonzero">
            <path d="M16.5,12.8333333 C19.5375661,12.8333333 22,15.2957672 22,18.3333333 C22,21.3708995 19.5375661,23.8333333 16.5,23.8333333 C13.4624339,23.8333333 11,21.3708995 11,18.3333333 C11,15.2957672 13.4624339,12.8333333 16.5,12.8333333 Z M19.6010886,0 C19.8843115,0 20.1187841,0.208725059 20.1590748,0.480743619 L20.1651911,0.564102557 L20.165598,13.1152277 C19.1123249,12.3183593 17.8030291,11.8461538 16.3842178,11.8461538 C12.9039279,11.8461538 10.0825956,14.6874237 10.0825956,18.1923076 C10.0825956,19.3786648 10.4058451,20.4889894 10.9684837,21.4388287 L10.1273937,22 L7.54592326,20.2849525 L5.04668997,22 C3.56563765,20.856635 2.71720463,20.2849525 2.50139085,20.2849525 C2.29538681,20.2849525 1.52630303,20.805845 0.194139528,21.8476301 L0,22 L0,0.564102557 C0,0.280879632 0.208725059,0.0464070053 0.480743619,0.00611632267 L0.564102557,0 L19.6010886,0 Z M16.491187,14.9981303 C16.3119185,14.9981303 16.1623498,15.1252905 16.1277587,15.294333 L16.120222,15.3690954 L16.1197607,17.9653803 L13.39982,17.9658386 C13.282747,17.9658386 13.1846739,18.0471868 13.1590423,18.1564421 L13.1525107,18.2131478 L13.1525107,18.4604513 C13.1525107,18.5775243 13.233859,18.6755973 13.3431142,18.7012289 L13.39982,18.7077605 L16.1197607,18.7069636 L16.120222,21.3045157 C16.120222,21.509394 16.2863087,21.6754808 16.491187,21.6754808 C16.6704555,21.6754808 16.8200243,21.5483207 16.8546153,21.3792782 L16.8621521,21.3045157 L16.861344,18.7069636 L19.5825518,18.7077605 C19.6996248,18.7077605 19.7976979,18.6264122 19.8233295,18.517157 L19.8298612,18.4604513 L19.8298612,18.2131478 C19.8298612,18.0960749 19.7485128,17.9980018 19.6392576,17.9723702 L19.5825518,17.9658386 L16.861344,17.9653803 L16.8621521,15.3690954 C16.8621521,15.164217 16.6960654,14.9981303 16.491187,14.9981303 Z M9.55746038,4.18099549 C9.27468684,4.18099549 9.04545353,4.41022874 9.04545353,4.69300228 L9.04465596,13.2916501 L6.44074338,10.4937194 C6.21677255,10.2530803 5.85343716,10.2530803 5.62946633,10.4937194 C5.4053858,10.7343584 5.4053858,11.1246158 5.62946633,11.3653727 L9.15187671,15.1500438 C9.26380731,15.2701864 9.41063385,15.3303167 9.55746038,15.3303167 C9.70428691,15.3303167 9.85111345,15.2700686 9.96304402,15.1499259 L13.4854544,11.3652548 C13.7095349,11.1244979 13.7095349,10.7342406 13.4854544,10.4936014 C13.2614836,10.2529624 12.898258,10.2529624 12.6741774,10.4936014 L10.0685726,13.2925667 L10.0694672,4.69300228 C10.0694672,4.41022874 9.84023389,4.18099549 9.55746038,4.18099549 Z" id="形状" fill="#346bf6"></path>
        </g>
    </g>
</svg>