<!--?xml version="1.0" encoding="UTF-8"?-->
<svg width="32px" height="32px" viewBox="0 0 32 32" version="1.1" xmlns="http://www.w3.org/2000/svg" xmlns:xlink="http://www.w3.org/1999/xlink">
    <title>680.新增方案@1x</title>
    <g id="680.新增方案" stroke="none" stroke-width="1" fill="none" fill-rule="evenodd">
        <g id="编组" transform="translate(5.000000, 3.000000)" fill="#000000" fill-rule="nonzero">
            <path d="M5.5,1.81319285 L5.5,2.96154571 C5.5,3.76742144 6.10663428,4.43161715 6.88816856,4.52239857 L7.07142856,4.53297427 L14.9285714,4.53297427 C15.7344628,4.53297427 16.3986586,3.92634 16.4894243,3.14480571 L16.5,2.96154571 L16.5,1.81319285 L20.4285714,1.81319285 C21.29644,1.81319285 22,2.51673715 22,3.38462143 L22,23.8131928 C22,24.6810614 21.29644,25.3846214 20.4285714,25.3846214 L1.57142856,25.3846214 C0.703560011,25.3846214 0,24.6810614 0,23.8131928 L0,3.38462143 C0,2.51673715 0.703560011,1.81319285 1.57142856,1.81319285 L5.5,1.81319285 Z M11.0057828,8.46732858 C10.5968814,8.46732858 10.2654043,8.79880572 10.2654043,9.20770713 L10.2654043,9.20770713 L10.2654043,13.65001 L5.82308572,13.65001 C5.41418428,13.65001 5.08270715,13.9815029 5.08270715,14.3904043 C5.08270715,14.7993057 5.41418428,15.1307828 5.82308572,15.1307828 L5.82308572,15.1307828 L10.2654043,15.1307828 L10.2654043,19.5730857 C10.2654043,19.9820029 10.5968814,20.31348 11.0057828,20.31348 C11.4146843,20.31348 11.7461614,19.9820029 11.7461614,19.5730857 L11.7461614,19.5730857 L11.7461614,15.1307828 L16.18848,15.1307828 C16.5973814,15.1307828 16.9288586,14.7993057 16.9288586,14.3904043 C16.9288586,13.9815029 16.5973814,13.65001 16.18848,13.65001 L16.18848,13.65001 L11.7461614,13.65001 L11.7461614,9.20770713 C11.7461614,8.79880572 11.4146843,8.46732858 11.0057828,8.46732858 Z M15.5833386,0 L15.5833386,2.05494142 C15.5833386,2.92282571 14.8797786,3.62637001 14.01191,3.62637001 L7.98809,3.62637001 C7.12022143,3.62637001 6.41666142,2.92282571 6.41666142,2.05494142 L6.41666142,0 L15.5833386,0 Z" id="形状" fill="#666666"></path>
        </g>
    </g>
</svg>