<!--?xml version="1.0" encoding="UTF-8"?-->
<svg width="32px" height="32px" viewBox="0 0 32 32" version="1.1" xmlns="http://www.w3.org/2000/svg" xmlns:xlink="http://www.w3.org/1999/xlink">
    <title>7.增加</title>
    <g id="7.增加" stroke="none" stroke-width="1" fill="none" fill-rule="evenodd">
        <g id="增加" transform="translate(4.000000, 4.000000)" fill="#000000" fill-rule="nonzero">
            <path d="M12,0 C18.627417,0 24,5.372583 24,12 C24,18.627417 18.627417,24 12,24 C5.372583,24 0,18.627417 0,12 C0,5.372583 5.372583,0 12,0 Z M12.6,4.8 L11.4,4.8 C11.0686292,4.8 10.8,5.06862915 10.8,5.4 L10.8,5.4 L10.8,10.8 L5.4,10.8 C5.06862915,10.8 4.8,11.0686292 4.8,11.4 L4.8,11.4 L4.8,12.6 C4.8,12.9313709 5.06862915,13.2 5.4,13.2 L5.4,13.2 L10.7988,13.2 L10.8,18.6 C10.8,18.9313709 11.0686292,19.2 11.4,19.2 L11.4,19.2 L12.6,19.2 C12.9313709,19.2 13.2,18.9313709 13.2,18.6 L13.2,18.6 L13.1988,13.2 L18.6,13.2 C18.9313709,13.2 19.2,12.9313709 19.2,12.6 L19.2,12.6 L19.2,11.4 C19.2,11.0686292 18.9313709,10.8 18.6,10.8 L18.6,10.8 L13.2,10.8 L13.2,5.4 C13.2,5.06862915 12.9313709,4.8 12.6,4.8 L12.6,4.8 Z" id="形状" fill="#346bf6"></path>
        </g>
    </g>
</svg>