<!--?xml version="1.0" encoding="UTF-8"?-->
<svg width="32px" height="32px" viewBox="0 0 32 32" version="1.1" xmlns="http://www.w3.org/2000/svg" xmlns:xlink="http://www.w3.org/1999/xlink">
    <title>1261-年龄</title>
    <g id="1261-年龄" stroke="none" stroke-width="1" fill="none" fill-rule="evenodd">
        <g id="编组" transform="translate(4.000000, 5.000000)" fill="#000000" fill-rule="nonzero">
            <path d="M20.7999999,11.504 L20.7999999,9.6 L3.20000002,9.6 L3.20000002,11.8432 C4.15040002,14.1328 5.46399998,15.2 7.20000002,15.2 C8.23040002,15.2 8.6448,14.8976 9.22239998,13.976 C9.3024,13.848 9.3024,13.848 9.38240002,13.7136 C10.1232,12.52 10.7504,12 12,12 C13.3344,12 14,12.5312 15.04,13.92 C15.7983999,14.9312 16.1343999,15.2 16.8,15.2 C17.3343999,15.2 17.6928,14.904 18.3488001,13.968 L18.6447999,13.5408 C19.3568001,12.5232 20.0000001,11.856 20.7999999,11.504 Z M20.7999999,13.4288 C20.4849756,13.7434459 20.2019861,14.0886072 19.9551999,14.4592 L19.6592001,14.8848 C18.7263999,16.2176001 18.0224001,16.8 16.8,16.8 C15.4656,16.8 14.8,16.2687999 13.76,14.88 C13.0016,13.8688 12.6656,13.6 12,13.6 C11.4448,13.6 11.2208,13.7856 10.744,14.5552 L10.5776,14.824 C9.73760002,16.1679999 8.8704,16.8 7.20000002,16.8 C5.60480002,16.8 4.26560002,16.1648001 3.20000002,14.936 L3.20000002,20.7999999 L20.7999999,20.7999999 L20.7999999,13.4288 L20.7999999,13.4288 Z M19.2,8.00000002 L20.7999999,8.00000002 C21.6836556,8.00000002 22.4000001,8.71634438 22.4000001,9.6 L22.4000001,20.7999999 L23.1999999,20.7999999 C23.6418278,20.7999999 24,21.1581722 24,21.6 C24,22.0418278 23.6418278,22.4000001 23.1999999,22.4000001 L0.800000016,22.4000001 C0.358172184,22.4000001 0,22.0418278 0,21.6 C0,21.1581722 0.358172184,20.7999999 0.800000016,20.7999999 L1.59999998,20.7999999 L1.59999998,9.6 C1.59999998,8.71634438 2.3163444,8.00000002 3.20000002,8.00000002 L4.8,8.00000002 L4.8,3.99999998 C4.8,3.5581722 5.15817218,3.20000002 5.60000002,3.20000002 C6.0418278,3.20000002 6.39999998,3.5581722 6.39999998,3.99999998 L6.39999998,8.00000002 L11.2,8.00000002 L11.2,3.99999998 C11.2,3.5581722 11.5581722,3.20000002 12,3.20000002 C12.4418278,3.20000002 12.8,3.5581722 12.8,3.99999998 L12.8,8.00000002 L17.6000001,8.00000002 L17.6000001,3.99999998 C17.6000001,3.5581722 17.9581723,3.20000002 18.3999999,3.20000002 C18.8418278,3.20000002 19.2,3.5581722 19.2,3.99999998 L19.2,8.00000002 Z M5.60000002,1.59999998 C5.15817218,1.59999998 4.8,1.2418278 4.8,0.800000016 C4.8,0.358172184 5.15817218,0 5.60000002,0 C6.0418278,0 6.39999998,0.358172184 6.39999998,0.800000016 C6.39999998,1.2418278 6.0418278,1.59999998 5.60000002,1.59999998 Z M12,1.59999998 C11.5581722,1.59999998 11.2,1.2418278 11.2,0.800000016 C11.2,0.358172184 11.5581722,0 12,0 C12.4418278,0 12.8,0.358172184 12.8,0.800000016 C12.8,1.2418278 12.4418278,1.59999998 12,1.59999998 Z M18.3999999,1.59999998 C17.9581723,1.59999998 17.6000001,1.2418278 17.6000001,0.800000016 C17.6000001,0.358172184 17.9581723,0 18.3999999,0 C18.8418278,0 19.2,0.358172184 19.2,0.800000016 C19.2,1.2418278 18.8418278,1.59999998 18.3999999,1.59999998 Z" id="形状" fill="#346bf6"></path>
        </g>
    </g>
</svg>