<!--?xml version="1.0" encoding="UTF-8"?-->
<svg width="32px" height="32px" viewBox="0 0 32 32" version="1.1" xmlns="http://www.w3.org/2000/svg" xmlns:xlink="http://www.w3.org/1999/xlink">
    <title>1324-分析</title>
    <g id="1324-分析" stroke="none" stroke-width="1" fill="none" fill-rule="evenodd">
        <g id="编组" transform="translate(4.000000, 6.000000)" fill="#000000" fill-rule="nonzero">
            <path d="M1.46549999,15.0349547 L1.56549999,15.0349547 C1.55549997,15.0463325 1.52550001,15.0349547 1.46549999,15.0349547 Z M10.5,19.5 L10.5,16.5 L1.46399999,16.5 C0.655499988,16.5 -2.39808173e-16,15.8265 -2.39808173e-16,14.9895 L-2.39808173e-16,1.5105 C-2.39808173e-16,0.676500003 0.648,-4.79616347e-16 1.46549999,-4.79616347e-16 L22.5,-4.79616347e-16 C24,-4.79616347e-16 24,1.5 24,1.5 L24,14.9895 C24,15.825 23.3475,16.503 22.536,16.503 L19.374,16.503 L13.5,16.5 L13.5,19.5 L18,19.5 L18,21 L6,21 L6,19.5 L10.5,19.5 Z M19.374,15.0015004 L22.5045,15.0015004 C22.5,15.003 22.5,10.503 22.5,1.5 C22.5,1.524 22.488,1.45499999 22.47,1.42050001 C22.482,1.443 22.5675,1.5 22.5,1.5 L1.497,1.5 C1.5,1.5 1.5,5.99700001 1.5,14.9895 C1.5,14.9925 2.607,14.997 4.82250001,15 L19.374,15.0015004 Z M4.94999999,11.85 C4.61862914,12.0985281 4.14852815,12.0313708 3.90000002,11.7 C3.65147189,11.3686291 3.71862917,10.8985281 4.05,10.65 L9.03600001,6.9105 L11.9955,9.49949999 L18.2505,3.939 C18.450926,3.76081377 18.7311885,3.70308891 18.9857153,3.78756981 C19.2402421,3.87205071 19.4303645,4.0859027 19.4844653,4.34856982 C19.5385661,4.61123694 19.448426,4.88281379 19.248,5.061 L12.003,11.5005 L8.964,8.8395 L4.94999999,11.85 Z" id="形状" fill="#346bf6"></path>
        </g>
    </g>
</svg>