<!--?xml version="1.0" encoding="UTF-8"?-->
<svg width="32px" height="32px" viewBox="0 0 32 32" version="1.1" xmlns="http://www.w3.org/2000/svg" xmlns:xlink="http://www.w3.org/1999/xlink">
    <title>187.应用</title>
    <g id="187.应用" stroke="none" stroke-width="1" fill="none" fill-rule="evenodd">
        <g id="应用" transform="translate(4.000000, 4.000000)" fill="#000000" fill-rule="nonzero">
            <path d="M9.3542255,13.710352 C9.87084506,13.710352 10.289648,14.1291549 10.289648,14.6457745 L10.289648,23.0645775 C10.289648,23.581197 9.87084506,24 9.3542255,24 L0.93542255,24 C0.418802954,24 0,23.581197 0,23.0645775 L0,14.6457745 C0,14.1291549 0.418802954,13.710352 0.93542255,13.710352 L9.3542255,13.710352 Z M21.5147186,13.710352 C22.0313382,13.710352 22.4501412,14.1291549 22.4501412,14.6457745 L22.4501412,23.0645775 C22.4501412,23.581197 22.0313382,24 21.5147186,24 L13.0959157,24 C12.5792961,24 12.1604931,23.581197 12.1604931,23.0645775 L12.1604931,14.6457745 C12.1604931,14.1291549 12.5792961,13.710352 13.0959157,13.710352 L21.5147186,13.710352 Z M8.41880295,15.5802616 L1.8708451,15.5802616 L1.8708451,22.1282195 L8.41880295,22.1282195 L8.41880295,15.5802616 Z M20.5792961,15.5802616 L14.0313382,15.5802616 L14.0313382,22.1282195 L20.5792961,22.1282195 L20.5792961,15.5802616 Z M18.4344721,0.273978919 L23.7260211,5.56552793 C24.0913263,5.93083316 24.0913263,6.52310997 23.7260211,6.88841519 L18.4344721,12.1799642 C18.0691668,12.5452694 17.47689,12.5452694 17.1115848,12.1799642 L11.8200358,6.88841519 C11.4547306,6.52310997 11.4547306,5.93083316 11.8200358,5.56552793 L17.1115848,0.273978919 C17.47689,-0.0913263063 18.0691668,-0.0913263063 18.4344721,0.273978919 Z M9.3542255,1.54985882 C9.87084506,1.54985882 10.289648,1.96866177 10.289648,2.48528137 L10.289648,10.9040843 C10.289648,11.4207039 9.87084506,11.8395069 9.3542255,11.8395069 L0.93542255,11.8395069 C0.418802954,11.8395069 0,11.4207039 0,10.9040843 L0,2.48528137 C0,1.96866177 0.418802954,1.54985882 0.93542255,1.54985882 L9.3542255,1.54985882 Z M17.7730284,2.25890911 L13.804966,6.22697156 L17.7730284,10.195034 L21.7410909,6.22697156 L17.7730284,2.25890911 Z M8.41880295,3.41976849 L1.8708451,3.41976849 L1.8708451,9.96772634 L8.41880295,9.96772634 L8.41880295,3.41976849 Z" id="形状" fill="#346bf6"></path>
        </g>
    </g>
</svg>