<!--?xml version="1.0" encoding="UTF-8"?-->
<svg width="32px" height="32px" viewBox="0 0 32 32" version="1.1" xmlns="http://www.w3.org/2000/svg" xmlns:xlink="http://www.w3.org/1999/xlink">
    <title>1462-应用参数</title>
    <g id="1462-应用参数" stroke="none" stroke-width="1" fill="none" fill-rule="evenodd">
        <g id="编组" transform="translate(4.000000, 4.000000)" fill="#000000" fill-rule="nonzero">
            <path d="M18.7821431,11.6610469 C18.9216687,11.4714183 19.1674036,11.3837897 19.4003954,11.4508892 C20.3748651,11.7315257 21.2657655,12.25272 22.001704,12.9646423 C22.1778056,13.1349966 22.2257048,13.3986594 22.1207744,13.6200697 C22.0417714,13.7867703 22,13.9711109 22,14.1630537 C22,14.8373954 22.5168464,15.3751017 23.138621,15.3751177 L23.138621,15.3751177 L23.2561529,15.3819006 C23.4699674,15.4156206 23.6498331,15.5688103 23.7139545,15.7811931 C23.9028597,16.4068834 24,17.0620149 24,17.7300069 C24,18.17288 23.9573076,18.6104023 23.8732655,19.0378514 C23.8163168,19.3274994 23.5481221,19.5260972 23.2544596,19.4960777 C23.2176631,19.4923166 23.1804573,19.4904206 23.1428571,19.4904206 C22.5168464,19.4904206 22,20.0281269 22,20.7024686 C22,20.9973829 22.0990099,21.2738994 22.2758501,21.4919543 C22.4548315,21.7126491 22.4444614,22.0313246 22.2515104,22.2399166 C21.5010199,23.0512434 20.5598199,23.6512754 19.5165553,23.974416 C19.214612,24.0679394 18.8941018,23.8985612 18.8012607,23.5964069 L18.8012607,23.5964069 L18.7526549,23.4648126 C18.5681391,23.0401703 18.1644191,22.7601269 17.7142857,22.7601269 C17.219139,22.7601269 16.7801525,23.0989794 16.6273108,23.5964069 L16.6273108,23.5964069 L16.5882694,23.6920286 C16.4634744,23.9329554 16.1804102,24.0575486 15.9120161,23.974416 C14.8687545,23.6512766 13.9275551,23.0512457 13.1770549,22.2399189 C12.9840993,22.0313257 12.9737306,21.7126423 13.1527189,21.4919463 C13.3295612,21.2738972 13.4285714,20.9973829 13.4285714,20.7024686 C13.4285714,20.0281257 12.9117268,19.4904206 12.2857143,19.4904206 C12.2481216,19.4904206 12.2108986,19.4923166 12.174109,19.4960777 C11.8804465,19.5260972 11.6122518,19.3274994 11.5553031,19.0378514 C11.4712623,18.6104091 11.4285714,18.1728857 11.4285714,17.7300069 C11.4285714,17.0619966 11.5257089,16.4068629 11.7146157,15.7811874 C11.7878989,15.5384674 12.0123551,15.3730594 12.2658899,15.3749394 L12.2658899,15.3749394 L12.4093405,15.3680514 C12.9783423,15.3028 13.4285714,14.79244 13.4285714,14.1630537 C13.4285714,13.9711109 13.3868,13.7867703 13.307797,13.6200697 C13.2028666,13.3986594 13.2507658,13.1349966 13.4268674,12.9646423 C14.1628059,12.25272 15.0537063,11.7315257 16.028176,11.4508892 C16.2944523,11.3742046 16.5773728,11.4996126 16.6993757,11.748408 L16.6993757,11.748408 L16.7718281,11.8764069 C16.982971,12.2024057 17.3331058,12.4026434 17.7142857,12.4026434 C18.1431132,12.4026434 18.532649,12.1492172 18.7291958,11.748408 L18.7291958,11.748408 L18.7821431,11.6610469 Z M9.71428572,12.5714286 C10.029877,12.5714286 10.2857143,12.8272663 10.2857143,13.1428572 L10.2857143,13.1428572 L10.2857143,22.2857143 C10.2857143,22.6013052 10.029877,22.8571429 9.71428572,22.8571429 L9.71428572,22.8571429 L0.57142859,22.8571429 C0.255837257,22.8571429 0,22.6013052 0,22.2857143 L0,22.2857143 L0,13.1428572 C0,12.8272663 0.255837257,12.5714286 0.57142859,12.5714286 L0.57142859,12.5714286 L9.71428572,12.5714286 Z M19.48,12.6834286 L19.4561431,12.7158651 C19.0309196,13.2312572 18.4007938,13.5455006 17.7142857,13.5455006 C17.0277776,13.5455006 16.3976519,13.2312572 15.9724284,12.7158651 L15.9724284,12.7158651 L15.9474286,12.6834286 L15.7629799,12.7567166 C15.384776,12.9189326 15.0266801,13.1279532 14.696006,13.3788697 L14.696006,13.3788697 L14.4902857,13.5428571 L14.5337163,13.7352354 C14.5462015,13.80524 14.5556295,13.8760103 14.5619362,13.9473714 L14.5619362,13.9473714 L14.5714286,14.1630537 C14.5714286,15.2820057 13.8120008,16.2246709 12.7856627,16.460944 L12.7856627,16.460944 L12.7131429,16.4742857 L12.6575129,16.7452377 C12.6194762,16.9599349 12.5938954,17.1778092 12.5810679,17.3980274 L12.5810679,17.3980274 L12.5714286,17.7300069 C12.5714286,17.9144012 12.5803001,18.0975189 12.5978937,18.2789006 L12.5978937,18.2789006 L12.6091429,18.3702857 L12.8073751,18.4090389 C13.7676753,18.6396366 14.4912436,19.4930492 14.5651897,20.5273337 L14.5651897,20.5273337 L14.5714286,20.7024686 C14.5714286,21.0514183 14.4972451,21.3894526 14.3583143,21.6966092 L14.3583143,21.6966092 L14.3222857,21.7657143 L14.4483223,21.8809646 C14.8261986,22.2059817 15.2464505,22.4733771 15.6965358,22.6742252 L15.6965358,22.6742252 L15.7851429,22.7097143 L15.8592753,22.5955097 C16.2431439,22.0470034 16.8473188,21.6820994 17.5271192,21.6250903 L17.5271192,21.6250903 L17.7142857,21.6172697 C18.4695821,21.6172697 19.1505304,21.9971394 19.5692961,22.5955097 L19.5692961,22.5955097 L19.6422857,22.7097143 L19.7320361,22.6742252 C20.1821213,22.4733771 20.6023718,22.2059817 20.9802441,21.8809657 L20.9802441,21.8809657 L21.1051429,21.7657143 L21.0702518,21.6966012 C20.9591102,21.4508766 20.8894054,21.185392 20.8659692,20.9103669 L20.8659692,20.9103669 L20.8571429,20.7024686 C20.8571429,19.5246252 21.6986158,18.542112 22.8039264,18.373208 L22.8039264,18.373208 L22.8182857,18.3702857 L22.8306769,18.2788949 L22.8505077,18.0055794 L22.8571429,17.7300069 C22.8571429,17.3964903 22.8281125,17.0672983 22.7710564,16.7452491 L22.7710564,16.7452491 L22.7142857,16.4742857 L22.6401808,16.4609543 C21.6704463,16.2371063 20.9378146,15.3792766 20.8633817,14.3381886 L20.8633817,14.3381886 L20.8571429,14.1630537 C20.8571429,14.0183177 20.8698849,13.8752434 20.8948551,13.7352354 L20.8948551,13.7352354 L20.9371429,13.5428571 L20.7325655,13.3788697 C20.4018913,13.1279532 20.0437954,12.9189326 19.6655916,12.7567166 L19.6655916,12.7567166 L19.48,12.6834286 Z M9.14285715,13.7142857 L1.14285715,13.7142857 L1.14285715,21.7142857 L9.14285715,21.7142857 L9.14285715,13.7142857 Z M17.7142857,14.8571429 C19.2922443,14.8571429 20.5714286,16.1363269 20.5714286,17.7142857 C20.5714286,19.2922446 19.2922443,20.5714286 17.7142857,20.5714286 C16.1363271,20.5714286 14.8571429,19.2922446 14.8571429,17.7142857 C14.8571429,16.1363269 16.1363271,14.8571429 17.7142857,14.8571429 Z M17.7142857,16 C16.7675096,16 16,16.7675097 16,17.7142857 C16,18.6610617 16.7675096,19.4285714 17.7142857,19.4285714 C18.6610618,19.4285714 19.4285714,18.6610617 19.4285714,17.7142857 C19.4285714,16.7675097 18.6610618,16 17.7142857,16 Z M9.71428572,-8.8817842e-16 C10.029877,-8.8817842e-16 10.2857143,0.255837723 10.2857143,0.57142859 L10.2857143,0.57142859 L10.2857143,9.71428572 C10.2857143,10.0298766 10.029877,10.2857143 9.71428572,10.2857143 L9.71428572,10.2857143 L0.57142859,10.2857143 C0.255837257,10.2857143 0,10.0298766 0,9.71428572 L0,9.71428572 L0,0.57142859 C0,0.255837723 0.255837257,-8.8817842e-16 0.57142859,-8.8817842e-16 L0.57142859,-8.8817842e-16 L9.71428572,-8.8817842e-16 Z M22.2857143,-8.8817842e-16 C22.6013056,-8.8817842e-16 22.8571429,0.255837723 22.8571429,0.57142859 L22.8571429,0.57142859 L22.8571429,9.71428572 C22.8571429,10.0298766 22.6013056,10.2857143 22.2857143,10.2857143 L22.2857143,10.2857143 L13.1428572,10.2857143 C12.8272658,10.2857143 12.5714286,10.0298766 12.5714286,9.71428572 L12.5714286,9.71428572 L12.5714286,0.57142859 C12.5714286,0.255837723 12.8272658,-8.8817842e-16 13.1428572,-8.8817842e-16 L13.1428572,-8.8817842e-16 L22.2857143,-8.8817842e-16 Z M9.14285715,1.14285715 L1.14285715,1.14285715 L1.14285715,9.14285715 L9.14285715,9.14285715 L9.14285715,1.14285715 Z M21.7142857,1.14285715 L13.7142857,1.14285715 L13.7142857,9.14285715 L21.7142857,9.14285715 L21.7142857,1.14285715 Z" id="形状" fill="#346bf6"></path>
        </g>
    </g>
</svg>