<!--?xml version="1.0" encoding="UTF-8"?-->
<svg width="32px" height="32px" viewBox="0 0 32 32" version="1.1" xmlns="http://www.w3.org/2000/svg" xmlns:xlink="http://www.w3.org/1999/xlink">
    <title>1952补签申请</title>
    <g id="1952补签申请" stroke="none" stroke-width="1" fill="none" fill-rule="evenodd">
        <path d="M29,10.0397949 L29.0015305,19.1147037 C27.7284012,17.8117325 25.9543931,17 24,17 C20.15,17 17,20.15 17,24 C17,25.0721967 17.2443082,26.0901027 17.6800061,27.0007995 L3.11428571,27 C2.4988827,27 2,26.5011173 2,25.8857143 L2,10.0397949 L29,10.0397949 Z M14,20 L8,20 C7.44771525,20 7,20.4477153 7,21 C7,21.5522847 7.44771525,22 8,22 L14,22 C14.5522847,22 15,21.5522847 15,21 C15,20.4477153 14.5522847,20 14,20 Z M17,16 L8,16 C7.44771525,16 7,16.4477153 7,17 C7,17.5522847 7.44771525,18 8,18 L17,18 C17.5522847,18 18,17.5522847 18,17 C18,16.4477153 17.5522847,16 17,16 Z" id="形状结合" fill="#666666" fill-rule="nonzero"></path>
        <path d="M7,4.8 L7,6 C7,7.1045695 7.8954305,8 9,8 C10.1045695,8 11,7.1045695 11,6 L11,4.8 L20,4.8 L20,6 C20,7.0543618 20.8158778,7.91816512 21.8507377,7.99451426 L22,8 C23.1045695,8 24,7.1045695 24,6 L24,4.8 L27.8857143,4.8 C28.5011173,4.8 29,5.29888271 29,5.91428571 L29,9.3 L2,9.3 L2,5.91428571 C2,5.29888271 2.49888271,4.8 3.11428571,4.8 L7,4.8 Z" id="路径" fill="#666666" fill-rule="nonzero"></path>
        <path d="M9,1.8 C9.55228475,1.8 10,2.24771525 10,2.8 L10,5.8 C10,6.35228475 9.55228475,6.8 9,6.8 C8.44771525,6.8 8,6.35228475 8,5.8 L8,2.8 C8,2.24771525 8.44771525,1.8 9,1.8 Z" id="路径" fill="#666666" fill-rule="nonzero"></path>
        <path d="M22,1.8 C22.5522847,1.8 23,2.24771525 23,2.8 L23,5.8 C23,6.35228475 22.5522847,6.8 22,6.8 C21.4477153,6.8 21,6.35228475 21,5.8 L21,2.8 C21,2.24771525 21.4477153,1.8 22,1.8 Z" id="路径" fill="#666666" fill-rule="nonzero"></path>
        <path d="M24,18 C27.3137085,18 30,20.6862915 30,24 C30,27.3137085 27.3137085,30 24,30 C20.6862915,30 18,27.3137085 18,24 C18,20.6862915 20.6862915,18 24,18 Z M24,20 C23.4477153,20 23,20.4477153 23,21 L23,23 L21,23 C20.4477153,23 20,23.4477153 20,24 C20,24.5522847 20.4477153,25 21,25 L23,25 L23,27 C23,27.5522847 23.4477153,28 24,28 C24.5522847,28 25,27.5522847 25,27 L25,25 L27,25 C27.5522847,25 28,24.5522847 28,24 C28,23.4477153 27.5522847,23 27,23 L25,23 L25,21 C25,20.4477153 24.5522847,20 24,20 Z" id="形状结合" fill="#666666" fill-rule="nonzero"></path>
    </g>
</svg>