<!--?xml version="1.0" encoding="UTF-8"?-->
<svg width="32px" height="32px" viewBox="0 0 32 32" version="1.1" xmlns="http://www.w3.org/2000/svg" xmlns:xlink="http://www.w3.org/1999/xlink">
    <title>1947代他人申请加班</title>
    <g id="1947代他人申请加班" stroke="none" stroke-width="1" fill="none" fill-rule="evenodd">
        <path d="M23.8559188,19.5 C24.5738767,19.5 25.2522861,19.6400216 25.891147,19.9200648 C26.5300079,20.2001081 27.0867296,20.5806016 27.5673963,21.0585014 C28.0450209,21.5364013 28.4252952,22.0934438 28.7051771,22.7326729 C28.985059,23.371902 29.125,24.0507024 29.125,24.7690742 C29.125,25.5026657 28.985059,26.190598 28.7051771,26.8298271 C28.4252952,27.4690562 28.0450209,28.0260987 27.5673963,28.5039986 C27.0897717,28.9818984 26.5300079,29.3623919 25.891147,29.6424352 C25.2522861,29.9224784 24.5738767,30.0625 23.8559188,30.0625 C23.1197077,30.0625 22.4352139,29.9224784 21.796353,29.6424352 C21.1574921,29.3623919 20.6007704,28.9818984 20.1201037,28.5039986 C19.6424791,28.0260987 19.2622048,27.4690562 18.9823229,26.8298271 C18.702441,26.190598 18.5625,25.5026657 18.5625,24.7690742 C18.5625,24.0507024 18.702441,23.371902 18.9823229,22.7326729 C19.2622048,22.0934438 19.6424791,21.5364013 20.1201037,21.0585014 C20.5977283,20.5806016 21.1574921,20.2001081 21.796353,19.9200648 C22.4352139,19.6400216 23.1197077,19.5 23.8559188,19.5 Z M26,2 C26.5522847,2 27,2.44771525 27,3 L27.0012092,19.0225923 C25.9906579,18.3752958 24.7891565,18 23.5,18 C19.9101491,18 17,20.9101491 17,24.5 C17,25.5031504 17.2272451,26.4532248 17.6330653,27.3015534 L14.9466825,29 L11.8895454,27.0578475 L8.99611455,29 L5.97546197,27.0578475 L3,29 L3,3 C3,2.44771525 3.44771525,2 4,2 L26,2 Z M23.8438571,21.7633929 C23.4270497,21.7633929 23.0892271,22.1011568 23.0891547,22.5178571 L23.0888929,24.0263929 L21.5803571,24.0266547 C21.1636568,24.0267271 20.8258929,24.3645497 20.8258929,24.78125 C20.8258929,25.1631516 21.1096859,25.4787698 21.4778882,25.5287207 L21.5803571,25.5356071 L23.0888929,25.5353929 L23.0891548,27.0446429 C23.0892271,27.4613432 23.4270497,27.7991071 23.84375,27.7991071 C24.2256516,27.7991071 24.5412698,27.5153141 24.5912208,27.1471118 L24.5981072,27.0446429 L24.5978929,25.5353929 L26.1071429,25.5356072 C26.4890445,25.5356614 26.804703,25.2519131 26.8547062,24.8837179 L26.8616071,24.78125 C26.8616071,24.3645497 26.5238432,24.0267271 26.1071429,24.0266548 L24.5978929,24.0263929 L24.5981071,22.5178571 C24.5981663,22.1012372 24.2604771,21.763452 23.8438571,21.7633929 Z M14.2612583,4.0412766 C13.0239048,4.18307383 11.5783513,5.03889817 11.4669645,6.3362971 L11.4669645,7.94123858 C11.2279763,7.94123858 10.9182148,8.06187835 11.0198598,9.00531503 C11.1212598,9.94931626 11.7716817,10.2102746 12.2597874,10.6717301 C12.7478932,11.1331857 12.64094,11.8690588 13.403245,12.2454288 L13.4285831,12.2623068 C13.3987427,12.2953737 13.4179687,12.33307 13.5,12.3753957 L13.5,13.284128 L10.6599039,14.2262873 C9.75,14.5214226 9,15.9830433 9,17.5309538 L21,17.5309538 C21,15.9830433 20.25,14.5214226 19.3800031,14.2262873 L19.0269307,14.1213804 C18.8106109,14.0545377 18.5540504,13.97206 18.2886746,13.8851818 L17.8082653,13.7264752 C17.2184936,13.530106 16.6785846,13.3453596 16.536361,13.2965825 L16.5,13.2841003 L16.5,12.3753957 C16.6033163,12.3220876 16.6070062,12.2761229 16.5385177,12.2375017 L16.499,12.218 L16.5952883,12.164742 C16.8595817,11.9943767 17.0008878,11.7723767 17.1115425,11.540436 L17.2809204,11.1572945 C17.3607485,10.9818091 17.4521364,10.8138074 17.5959228,10.6717301 C18.0632693,10.210288 18.7344776,9.94849631 18.835864,9.00505963 C18.9375363,8.0610584 18.3582279,7.94123858 18.3582279,7.94123858 L18.3582279,6.13369847 C18.1346687,4.58764089 15.5078852,3.80581266 14.2612583,4.0412766 Z" id="形状结合" fill="#666666" fill-rule="nonzero"></path>
    </g>
</svg>