<!--?xml version="1.0"?-->
<svg xmlns="http://www.w3.org/2000/svg" class="icon" style="vertical-align:middle;fill:currentColor;overflow:hidden;" viewBox="0 0 1024 1024" version="1.1" width="200px" height="200px"><path d="M794.757035 130.050505C824.13689 130.050505 847.95397 153.566862 847.95397 182.575759L847.95397 917.929295C847.95397 946.938195 824.13689 970.45455 794.757035 970.45455L103.196931 970.45455C73.817078 970.45455 50 946.938195 50 917.929295L50 182.575759C50 153.566862 73.817078 130.050505 103.196931 130.050505L794.757035 130.050505zM847.95397 25C876.171375 25 903.23307 36.067789 923.18579 55.768581C943.13851 75.469372 954.34783 102.189379 954.34783 130.050505L954.34783 865.404045L901.1509 865.404045L901.1509 130.050505C901.1509 101.04161 877.33382 77.525253 847.95397 77.525253L156.393863 77.525253L156.393863 25L847.95397 25zM453.519296 314.391306C379.684241 314.391306 338.688317 365.23473 338.688317 425.967339C338.688317 460.4131 351.831034 483.363752 376.429295 506.35397C389.532448 516.1612 401.027556 532.600545 401.027556 547.351305C401.027556 562.10207 391.180762 576.813265 351.831034 594.90022C292.707175 616.20185 217.304349 645.74435 217.304349 716.28348L217.304349 752.37685C223.855925 763.87196 235.351034 775.327505 248.454893 775.327505L428.921034 775.367775L428.921034 708.084295C412.522665 698.236795 402.675165 683.486035 402.675165 667.08696C402.675165 640.80082 427.273426 617.850165 453.519296 617.850165C483.061796 617.850165 504.404405 639.152505 504.404405 667.04669C504.404405 683.486035 494.556905 701.532015 478.117557 708.044025L478.117557 775.327505L658.58511 775.327505C674.98419 775.327505 684.83169 765.480005 684.83169 750.729245L684.83169 714.67544C684.83169 642.4887 607.74098 616.24283 550.305 593.292175C510.91571 578.501145 506.01174 563.750385 506.01174 547.351305C506.01174 532.600545 515.85924 517.809515 530.650275 506.35397C555.248535 486.659676 568.351685 460.4131 568.351685 425.967339C568.351685 368.491795 528.961685 314.391306 453.519296 314.391306z" fill="#666666"></path></svg>
