<!--?xml version="1.0" encoding="UTF-8"?-->
<svg width="32px" height="32px" viewBox="0 0 32 32" version="1.1" xmlns="http://www.w3.org/2000/svg" xmlns:xlink="http://www.w3.org/1999/xlink">
    <title>Arc Diagram</title>
    <g id="Arc-Diagram" stroke="none" stroke-width="1" fill="none" fill-rule="evenodd">
        <g id="视觉修正模版" transform="translate(-2.000000, -0.500000)"></g>
        <path d="M16,7 C22.820649,7 28.390405,12.3557093 28.7332697,19.0911296 C30.0361297,19.4179972 31,20.5964366 31,22 C31,23.6568542 29.6568542,25 28,25 C26.6025704,25 25.4283015,24.0445359 25.094835,22.7512495 L18.905165,22.7512495 C18.5716985,24.0445359 17.3974296,25 16,25 C14.6025704,25 13.4283015,24.0445359 13.094835,22.7512495 L6.90516499,22.7512495 C6.57169851,24.0445359 5.39742955,25 4,25 C2.34314575,25 1,23.6568542 1,22 C1,20.5964366 1.96387027,19.4179972 3.26580003,19.0904925 C3.60959498,12.3557093 9.17935102,7 16,7 Z M16,20.5 C15.1715729,20.5 14.5,21.1715729 14.5,22 C14.5,22.8284271 15.1715729,23.5 16,23.5 C16.8284271,23.5 17.5,22.8284271 17.5,22 C17.5,21.1715729 16.8284271,20.5 16,20.5 Z M28,20.5 C27.1715729,20.5 26.5,21.1715729 26.5,22 C26.5,22.8284271 27.1715729,23.5 28,23.5 C28.8284271,23.5 29.5,22.8284271 29.5,22 C29.5,21.1715729 28.8284271,20.5 28,20.5 Z M4,20.5 C3.16667785,20.5049061 2.5,21.1745976 2.5,22 C2.5,22.8284271 3.17157288,23.5 4,23.5 C4.82842712,23.5 5.5,22.8284271 5.5,22 C5.5,21.1715729 4.82842712,20.5 4,20.5 Z M16,8.5 C11.8300676,8.5 8.19002361,10.7687221 6.24686972,14.1391645 C7.3193402,13.4197541 8.61065069,13 10,13 C13.5042672,13 16.3848432,15.6703392 16.7178677,19.0871572 C17.7874934,19.3493152 18.6315543,20.1853499 18.9055531,21.2502673 L25.0944753,21.250147 C25.3641155,20.2023 26.185645,19.3759896 27.2307405,19.0995389 C26.8948109,13.189269 21.9950242,8.5 16,8.5 Z M10,14.5 C7.31831401,14.5 5.10623601,16.5106308 4.78902774,19.1066306 C5.82483104,19.386875 6.63769103,20.209136 6.90557011,21.2503397 L13.0944286,21.2503283 C13.3623023,20.2090752 14.1751332,19.3865499 15.2107813,19.1048927 C14.893764,16.5106308 12.681686,14.5 10,14.5 Z" id="形状结合" fill="#666666" fill-rule="nonzero"></path>
    </g>
</svg>