<!--?xml version="1.0" encoding="UTF-8"?-->
<svg width="32px" height="32px" viewBox="0 0 32 32" version="1.1" xmlns="http://www.w3.org/2000/svg" xmlns:xlink="http://www.w3.org/1999/xlink">
    <title>1256-已归档</title>
    <g id="1256-已归档" stroke="none" stroke-width="1" fill="none" fill-rule="evenodd">
        <g id="编组" transform="translate(4.000000, 6.000000)" fill="#000000" fill-rule="nonzero">
            <path d="M10.1755577,0 C10.9137775,0 11.5953983,0.384572133 11.9616578,1.00772213 L11.9616578,1.00772213 L12.1533333,1.33333333 L20.6666667,1.33333333 C21.7062615,1.33333333 22.5605983,2.12651744 22.6575112,3.14072 L22.6666667,3.33333333 L22.6678405,4.79440587 C23.3871983,5.05782741 23.9146893,5.70188189 23.9905829,6.47405333 L23.9905829,6.47405333 L24,6.66666667 L24,18 C24,19.1045695 23.0789857,20 21.9428572,20 L21.9428572,20 L2.05714285,20 C0.92101424,20 0,19.1045695 0,18 L0,18 L0,2 C0,0.895430507 0.92101424,0 2.05714285,0 L2.05714285,0 L10.1755577,0 Z M10.1755577,1.33333333 L2.05714285,1.33333333 C1.67843333,1.33333333 1.37142859,1.63181019 1.37142859,2 L1.37142859,2 L1.37142859,18 C1.37142859,18.3681899 1.67843333,18.6666667 2.05714285,18.6666667 L2.05714285,18.6666667 L21.9428572,18.6666667 C22.3215667,18.6666667 22.6285715,18.3681899 22.6285715,18 L22.6285715,18 L22.6285715,6.66666667 C22.6285715,6.29847685 22.3215667,6 21.9428572,6 L21.9428572,6 L13.3163503,6 L10.7709244,1.66924072 C10.6488379,1.46152405 10.4216309,1.33333333 10.1755577,1.33333333 L10.1755577,1.33333333 Z M12.9373333,2.66666667 L14.1133715,4.66666667 L21.3333333,4.66666667 L21.3333333,3.33333333 C21.3333333,3.00605347 21.0974997,2.73385552 20.7865008,2.67740757 L20.6666667,2.66666667 L12.9373333,2.66666667 Z" id="形状" fill="#666666"></path>
        </g>
    </g>
</svg>