<!--?xml version="1.0" encoding="UTF-8"?-->
<svg width="32px" height="32px" viewBox="0 0 32 32" version="1.1" xmlns="http://www.w3.org/2000/svg" xmlns:xlink="http://www.w3.org/1999/xlink">
    <title>1698.归档业务数据</title>
    <g id="1698.归档业务数据" stroke="none" stroke-width="1" fill="none" fill-rule="evenodd">
        <path d="M8.03602629,18 L9.5032276,20.8794011 C9.8446707,21.5494874 10.5331591,21.9713841 11.2852223,21.9713841 L20.816861,21.9713841 C21.5173191,21.9713841 22.1624456,21.605423 22.5235357,21.014146 L22.601718,20.8737617 L24.0546178,18 L29,18 C29.5522847,18 30,18.4477153 30,19 L30,27 C30,28.0543618 29.1841222,28.9181651 28.1492623,28.9945143 L28,29 L4,29 C2.8954305,29 2,28.1045695 2,27 L2,19 C2,18.4477153 2.44771525,18 3,18 L8.03602629,18 Z M25,3 C25.5522847,3 26,3.44771525 26,4 L26,17 L23.439654,17 L21.7092895,20.4225729 C21.5391147,20.7591699 21.1940307,20.9713841 20.816861,20.9713841 L11.2852223,20.9713841 C10.9091907,20.9713841 10.5649465,20.7604358 10.394225,20.4253926 L8.6488132,17 L6,17 L6,4 C6,3.44771525 6.44771525,3 7,3 L25,3 Z M16,6 C15.4477153,6 15,6.44771525 15,7 L14.9993995,12.816 L13.5756339,11.3939085 L13.4948847,11.322604 C13.1586351,11.061154 12.6724371,11.0849222 12.3634508,11.3939085 C12.0287157,11.7286436 12.0287157,12.2713564 12.3634508,12.6060915 L15.3939085,15.6365492 L15.4746576,15.7078537 C15.8109072,15.9693036 16.2971053,15.9455354 16.6060915,15.6365492 L19.6365492,12.6060915 L19.7078537,12.5253424 C19.9693036,12.1890928 19.9455354,11.7028947 19.6365492,11.3939085 L19.5558,11.322604 C19.2195504,11.061154 18.7333524,11.0849222 18.4243661,11.3939085 L16.9993995,12.818 L17,7 C17,6.44771525 16.5522847,6 16,6 Z" id="形状结合" fill="#666666"></path>
    </g>
</svg>