<!--?xml version="1.0" encoding="UTF-8"?-->
<svg width="32px" height="32px" viewBox="0 0 32 32" version="1.1" xmlns="http://www.w3.org/2000/svg" xmlns:xlink="http://www.w3.org/1999/xlink">
    <title>面积图-层叠</title>
    <g id="面积图-层叠" stroke="none" stroke-width="1" fill="none" fill-rule="evenodd">
        <g id="视觉修正模版" transform="translate(-2.000000, -0.500000)"></g>
        <path d="M3.99990088,4 C4.54868425,4 4.99356106,4.44487682 4.99356106,4.99366018 L4.99356106,26.9968747 L27.9935611,26.9968747 C28.5458458,26.9968747 28.9935611,27.44459 28.9935611,27.9968747 C28.9935611,28.5491595 28.5458458,28.9968747 27.9935611,28.9968747 L5.49797886,28.9968747 C4.11922087,28.9948922 3.00202015,27.8984805 3,26.5453787 L3,4.99992051 C3,4.4489055 3.44576824,4.00173523 3.99678053,4.0000049 Z M24.9513498,8 C25.2209359,8 25.4872345,8.09764506 25.6943554,8.30269962 C25.9179147,8.52402835 26.0198314,8.82021826 25.9968179,9.10989854 L25.9968179,23.958453 L25.9906557,24.0720935 C25.9336369,24.594549 25.487892,25 24.9447745,25 L8.05618868,25 C7.47427711,25 7.00414517,24.5345588 7.00414517,23.958453 L7.00414517,21.3968984 C7.00085755,21.344821 7.00085755,21.2927436 7.00414517,21.2406662 L7.00414517,13.0384836 C6.97784408,12.7455485 7.07647315,12.4428489 7.30660767,12.2150105 L13.010656,8.66398624 C13.2144894,8.4621865 13.4840756,8.36128661 13.7503742,8.36128661 C14.0166726,8.36128661 14.2862588,8.4621865 14.4900922,8.66398624 L18.0999165,12.2377944 L24.1721801,8.33524794 C24.3628629,8.13019338 24.6390243,8 24.9447745,8 Z M23.892731,16.5146468 L18.6982662,19.2389431 C18.4911452,19.4439977 18.2182713,19.5448975 17.9486852,19.5416428 C17.679099,19.5448975 17.4062253,19.4439977 17.1991042,19.2389431 L13.8884548,16.9898526 L9.10823216,21.7223817 L9.10823216,22.916906 L23.892731,22.916906 L23.892731,16.5146468 Z M13.5827047,10.6819835 L9.10823216,13.4681218 L9.10823216,18.8060502 L13.0073684,14.9458167 C13.1257233,14.8286425 13.263804,14.7472718 13.4084599,14.6984492 C13.7733875,14.5715106 14.1974926,14.6528815 14.4900922,14.9425618 L18.040739,17.354394 L23.892731,14.2850852 L23.892731,10.9195864 L18.6982662,14.2590465 C18.5273091,14.4315528 18.3103252,14.5291978 18.0867659,14.5552364 C17.7744405,14.6008042 17.4423893,14.5031592 17.1991042,14.2623014 L13.5827047,10.6819835 Z" id="形状结合" fill="#666666" fill-rule="nonzero"></path>
    </g>
</svg>