<!--?xml version="1.0" encoding="UTF-8"?-->
<svg width="32px" height="32px" viewBox="0 0 32 32" version="1.1" xmlns="http://www.w3.org/2000/svg" xmlns:xlink="http://www.w3.org/1999/xlink">
    <title>915.资产盘点</title>
    <g id="915.资产盘点" stroke="none" stroke-width="1" fill="none" fill-rule="evenodd">
        <g id="编组" transform="translate(2.000000, 2.000000)" fill="#000000" fill-rule="nonzero">
            <path d="M25.8344694,24.3992211 L27.7045979,26.2693496 C27.8944853,26.4593039 28.0007991,26.7171288 27.9999955,26.9857162 C27.9991827,27.2543036 27.8913192,27.511484 27.7002922,27.7002922 C27.3053515,28.0942582 26.666654,28.0961801 26.2693496,27.7045979 L22.9639728,24.3992211 C19.9512325,26.6587763 15.7043487,26.205097 13.2369079,23.3601138 C10.769467,20.5151306 10.9209475,16.2467702 13.5838589,13.5838589 C16.2467702,10.9209475 20.5151306,10.769467 23.3601138,13.2369079 C26.205097,15.7043487 26.6587763,19.9512325 24.3992211,22.9639728 L25.4297293,23.994481 C25.5761247,23.8078988 25.716779,23.6170107 25.8459514,23.4203817 L25.8459514,24.3992211 L25.8344694,24.3992211 Z M12.2512795,24.3992211 L0.014352483,24.3992211 L0.014352483,22.8635054 L1.4352483,22.8635054 L1.4352483,21.5617352 L2.91068355,21.5617352 L2.91068355,8.62153653 L0,8.62153653 L0,6.07540605 L11.9929348,0 L13.8501461,0 L25.8588686,6.07540605 L25.8473866,8.61148979 L22.97689,8.61148979 L22.97689,11.1992425 C19.3128149,9.08257656 14.6538401,9.94161165 11.9855988,13.2258481 C9.31735749,16.5100846 9.43058227,21.24624 12.2527147,24.3992211 L12.2512795,24.3992211 Z" id="形状" fill="#666666"></path>
        </g>
    </g>
</svg>