<!--?xml version="1.0" encoding="UTF-8"?-->
<svg width="32px" height="32px" viewBox="0 0 32 32" version="1.1" xmlns="http://www.w3.org/2000/svg" xmlns:xlink="http://www.w3.org/1999/xlink">
    <title>1416-关联</title>
    <g id="1416-关联" stroke="none" stroke-width="1" fill="none" fill-rule="evenodd">
        <g id="编组" transform="translate(4.000000, 4.000000)" fill="#000000" fill-rule="nonzero">
            <path d="M16.3076922,0 C16.8174936,0 17.2307692,0.413275628 17.2307692,0.923076923 L17.2307692,0.923076923 L17.2307692,6.46153846 C17.2307692,6.97133976 16.8174936,7.38461538 16.3076922,7.38461538 L16.3076922,7.38461538 L12.9230769,7.38461538 L12.9230769,11.0769231 L18.7692308,11.0769231 C19.2223876,11.0769231 19.5992769,11.4034618 19.6774357,11.8340758 L19.6923078,12 L19.6910769,16.6153846 L23.0769231,16.6153846 C23.5300798,16.6153846 23.9069694,16.9419234 23.9851279,17.3725374 L24,17.5384615 L24,23.0769231 C24,23.5867244 23.5867244,24 23.0769231,24 L23.0769231,24 L14.4615385,24 C13.9517372,24 13.5384615,23.5867244 13.5384615,23.0769231 L13.5384615,23.0769231 L13.5384615,17.5384615 C13.5384615,17.0286602 13.9517372,16.6153846 14.4615385,16.6153846 L14.4615385,16.6153846 L17.8449231,16.6153846 L17.8449231,12.9230769 L6.15323077,12.9230769 L6.15323077,16.6153846 L9.53846155,16.6153846 C9.99161826,16.6153846 10.3685078,16.9419234 10.4466665,17.3725374 L10.4615385,17.5384615 L10.4615385,23.0769231 C10.4615385,23.5867244 10.0482628,24 9.53846155,24 L9.53846155,24 L0.923076923,24 C0.413275628,24 0,23.5867244 0,23.0769231 L0,23.0769231 L0,17.5384615 C0,17.0286602 0.413275628,16.6153846 0.923076923,16.6153846 L0.923076923,16.6153846 L4.30707692,16.6153846 L4.3076923,12 C4.3076923,11.5468433 4.63423107,11.1699538 5.06484498,11.0917951 L5.23076922,11.0769231 L11.0769231,11.0769231 L11.0769231,7.38461538 L7.6923077,7.38461538 C7.23915099,7.38461538 6.86226148,7.05807664 6.78410277,6.62746271 L6.76923078,6.46153846 L6.76923078,0.923076923 C6.76923078,0.413275628 7.18250638,0 7.6923077,0 L7.6923077,0 L16.3076922,0 Z M8.61415385,18.4615385 L1.84615385,18.4615385 L1.84615385,22.1538462 L8.61415385,22.1538462 L8.61415385,18.4615385 Z M22.152,18.4615385 L15.384,18.4615385 L15.384,22.1538462 L22.152,22.1538462 L22.152,18.4615385 Z M15.384,1.84615385 L8.61415385,1.84615385 L8.61415385,5.53846154 L15.384,5.53846154 L15.384,1.84615385 Z" id="形状" fill="#346bf6"></path>
        </g>
    </g>
</svg>