<!--?xml version="1.0" encoding="UTF-8"?-->
<svg width="32px" height="32px" viewBox="0 0 32 32" version="1.1" xmlns="http://www.w3.org/2000/svg" xmlns:xlink="http://www.w3.org/1999/xlink">
    <title>1941出勤配置</title>
    <g id="1941出勤配置" stroke="none" stroke-width="1" fill="none" fill-rule="evenodd">
        <g id="编组-6" transform="translate(2.000000, 2.000000)" fill="#999999" fill-rule="nonzero">
            <g id="Group-4-Copy-3">
                <path d="M23.0444288,15 C23.0444288,16.2216507 24.0602962,17.212104 25.3132934,17.212104 C25.723378,17.212104 26.1078984,17.1060454 26.4400564,16.9203999 L28,19.5796001 C27.3175247,19.961033 26.8577221,20.6781748 26.8577221,21.5 C26.8577221,22.3218252 27.3175247,23.038967 28,23.4203999 L26.4400564,26.0796001 C26.1078984,25.8939546 25.723378,25.787896 25.3132934,25.787896 C24.0602962,25.787896 23.0446051,26.7781774 23.0446051,28 L19.9553949,28 C19.9553949,26.7781774 18.9397038,25.787896 17.6867066,25.787896 C17.276622,25.787896 16.8919252,25.8939546 16.5601199,26.0796001 L15,23.4203999 C15.6824753,23.038967 16.1421016,22.3218252 16.1421016,21.5 C16.1421016,20.6781748 15.6824753,19.961033 15,19.5796001 L16.5601199,16.9203999 C16.8919252,17.1060454 17.276622,17.212104 17.6867066,17.212104 C18.9397038,17.212104 19.9555712,16.2216507 19.9555712,15 L23.0444288,15 Z M5.04,0.925925926 L5.04007578,3.02929688 C5.04007578,4.08365867 5.85595357,4.947462 6.89081344,5.02381114 L7.04007578,5.02929688 L17,5.02929688 C18.1045695,5.02929688 19,4.13386637 19,3.02929688 L19,0.925925926 L21.9998543,0.925925926 C22.552139,0.925925926 22.9998543,1.37364118 22.9998543,1.92592593 L22.999,13.9999259 L18.9555712,14 L18.9555712,15 C18.9555712,15.6636163 18.3930098,16.212104 17.6867066,16.212104 C17.4575207,16.212104 17.2397982,16.1548005 17.0483919,16.0477084 L16.1933797,15.5693279 L13.6207535,19.9543296 L14.5121304,20.4525166 C14.9015764,20.6701765 15.1421016,21.0662457 15.1421016,21.5 C15.1421016,21.9337543 14.9015764,22.3298235 14.5121304,22.5474834 L13.6207535,23.0456704 L14.767,25 L1,25 C0.44771525,25 0,24.5522847 0,24 L0,1.92592593 C0,1.37364118 0.44771525,0.925925926 1,0.925925926 L5.04,0.925925926 Z M21.5,19 C20.1192881,19 19,20.1192881 19,21.5 C19,22.8807119 20.1192881,24 21.5,24 C22.8807119,24 24,22.8807119 24,21.5 C24,20.1192881 22.8807119,19 21.5,19 Z M17.0475798,8.33333333 L9.40196616,14.4139262 L6.53772528,12.2153806 L5.51996502,13.239703 L9.37141426,17.5925926 L18.0347882,9.3884046 L17.0475798,8.33333333 Z M18,0 L18,3 C18,3.55228475 17.5522847,4 17,4 L7,4 C6.44771525,4 6,3.55228475 6,3 L6,0 L18,0 Z" id="形状" fill="#666666"></path>
            </g>
        </g>
    </g>
</svg>