<!--?xml version="1.0" encoding="UTF-8"?-->
<svg width="32px" height="32px" viewBox="0 0 32 32" version="1.1" xmlns="http://www.w3.org/2000/svg" xmlns:xlink="http://www.w3.org/1999/xlink">
    <title>509.银行上划单@1x</title>
    <g id="509.银行上划单" stroke="none" stroke-width="1" fill="none" fill-rule="evenodd">
        <g id="编组" transform="translate(5.000000, 5.000000)" fill="#000000" fill-rule="nonzero">
            <path d="M21.1552,0 C21.6217702,0 22,0.378229857 22,0.8448 L22,0.8448 L22,22.88 C20.7820761,21.6909004 19.8729071,21.0963506 19.2724932,21.0963506 C18.6720793,21.0963506 17.7491021,21.6909004 16.5035616,22.88 L16.5035616,22.88 L13.8512501,21.0963506 L11.0488743,22.88 L8.23251864,21.0963506 L5.50588282,22.88 C3.89007117,21.6909004 2.96444012,21.0963506 2.72898968,21.0963506 C2.49353925,21.0963506 1.58387604,21.6909004 0,22.88 L0,22.88 L0,0.8448 C0,0.378229857 0.378229857,0 0.8448,0 L0.8448,0 L21.1552,0 Z M11,5.28 C10.8580505,5.28 10.7161009,5.33695197 10.6078882,5.45074425 L10.6078882,5.45074425 L7.2024781,9.0353684 C6.98584066,9.26339964 6.98584066,9.63302912 7.2024781,9.86094867 C7.41900958,10.0888682 7.77027635,10.0888682 7.98680774,9.86094867 L7.98680774,9.86094867 L10.50456,7.20984 L10.505,15.345 C10.505,15.618381 10.726619,15.84 11,15.84 C11.273381,15.84 11.495,15.618381 11.495,15.345 L11.495,15.345 L11.49456,7.20984 L14.0131923,9.86106035 C14.2298298,10.0889799 14.5809904,10.0889799 14.7975219,9.86106035 C15.0141593,9.6331408 15.0141593,9.26351132 14.7975219,9.03548009 L14.7975219,9.03548009 L11.3921118,5.45085593 C11.2838991,5.33706365 11.1419495,5.28 11,5.28 Z" id="形状" fill="#346bf6"></path>
        </g>
    </g>
</svg>