<!--?xml version="1.0" encoding="UTF-8"?-->
<svg width="32px" height="32px" viewBox="0 0 32 32" version="1.1" xmlns="http://www.w3.org/2000/svg" xmlns:xlink="http://www.w3.org/1999/xlink">
    <title>486.基准利息@1x</title>
    <g id="486.基准利息" stroke="none" stroke-width="1" fill="none" fill-rule="evenodd">
        <g id="编组" transform="translate(4.000000, 4.000000)" fill="#000000" fill-rule="nonzero">
            <path d="M10.293663,0.456171263 C11.3970231,-0.158436321 12.7470901,-0.151571354 13.8439842,0.474227274 L13.8439842,0.474227274 L22.237317,5.2932879 C23.3322935,5.92072584 24.0045355,7.07816092 23.999977,8.32983777 L23.999977,8.32983777 L23.9478527,16.684216 C23.9382227,17.9351774 23.2535888,19.0859178 22.1519143,19.7032331 L22.1519143,19.7032331 L13.7063575,24.4327471 C12.6029974,25.0473547 11.2529304,25.0404897 10.154845,24.4140093 L10.154845,24.4140093 L1.76270427,19.595631 C0.66729123,18.9679455 -0.0050189722,17.8098644 2.82192561e-05,16.5578853 L2.82192561e-05,16.5578853 L0.0521715617,8.20305307 C0.0629569893,6.95268851 0.747122867,5.80273487 1.84815342,5.18446387 L1.84815342,5.18446387 L10.293663,0.456171263 Z M13.344538,1.33157755 C12.5535834,0.880323189 11.5797958,0.875371563 10.7851129,1.3180345 L10.7851129,1.3180345 L2.34110565,6.04548692 C1.55085764,6.48924189 1.05986867,7.31450164 1.05214002,8.21032931 L1.05214002,8.21032931 L1.0000272,16.5629339 C0.996415078,17.459125 1.47824035,18.2890882 2.26415987,18.7394302 L2.26415987,18.7394302 L10.6554826,23.5573409 C11.4464371,24.0085952 12.4202247,24.0135469 13.2148604,23.5709103 L13.2148604,23.5709103 L21.6593127,18.8420132 C22.4499198,18.3990023 22.9409807,17.5736214 22.9478805,16.6773943 L22.9478805,16.6773943 L22.9999803,8.32498444 C23.0032417,7.42915125 22.5214659,6.59965201 21.7358607,6.1494882 L21.7358607,6.1494882 L13.344538,1.33157755 Z M13.4273976,2.49510991 L20.5610346,6.62533208 C21.3601271,7.08707186 21.8505809,7.93861718 21.8472432,8.85843824 L21.8029644,16.0187192 C21.7959373,16.9392503 21.2962669,17.7861594 20.4920956,18.2405575 L13.3142143,22.2939526 C12.5071451,22.7472943 11.5195069,22.74223 10.7171712,22.2806359 L3.58353429,18.1504137 C2.78412224,17.6884912 2.29361906,16.8364697 2.29731776,15.9162832 L2.34160443,8.75600219 C2.34947661,7.83570364 2.84891741,6.98918362 3.65247321,6.53416396 L10.8303545,2.48179325 C11.6374237,2.02845155 12.6250619,2.03351579 13.4273976,2.49510991 Z M14.9002417,7.54170124 L14.1021724,7.54170124 L9.10176988,16.6461962 L9.91230895,16.6461962 L14.9002417,7.54170124 Z M15.174578,11.6767616 C14.5012071,11.6767616 13.989944,11.9098955 13.6407887,12.4007039 C13.316573,12.817891 13.166935,13.3823207 13.166935,14.0817226 C13.166935,14.7688543 13.316573,15.3210137 13.6407887,15.7627412 C13.989944,16.2290091 14.5012071,16.4744133 15.174578,16.4744133 C15.8354791,16.4744133 16.3467422,16.2290091 16.7083673,15.7627412 C17.0201131,15.3332839 17.182221,14.7688543 17.182221,14.0817226 C17.182221,13.3823207 17.0201131,12.817891 16.7083673,12.4007039 C16.3467422,11.9098955 15.8354791,11.6767616 15.174578,11.6767616 Z M15.174578,12.3393529 C15.548673,12.3393529 15.8230093,12.5111358 16.0100568,12.8669719 C16.1596947,13.1614569 16.2469836,13.5663738 16.2469836,14.0817226 C16.2469836,14.5848011 16.1596947,14.9774478 16.0100568,15.2719328 C15.8230093,15.6277689 15.548673,15.811822 15.174578,15.811822 C14.7880132,15.811822 14.5136769,15.6277689 14.3390993,15.284203 C14.1769915,14.989718 14.1021724,14.5848011 14.1021724,14.0817226 C14.1021724,13.5541036 14.1769915,13.1491867 14.3390993,12.8547016 C14.5136769,12.5111358 14.7880133,12.3393529 15.174578,12.3393529 Z M8.8399034,7.71348415 C8.16653248,7.71348415 7.65526931,7.94661816 7.30611405,8.43742643 C6.98189839,8.85461355 6.83226048,9.41904319 6.83226048,10.1184451 C6.83226048,10.8055768 6.98189839,11.3577362 7.30611405,11.7994637 C7.65526931,12.2657317 8.16653248,12.5111358 8.8399034,12.5111358 C9.50080447,12.5111358 10.0120676,12.2657316 10.3736927,11.7994637 C10.6854385,11.3700064 10.8475463,10.8055768 10.8475463,10.1184451 C10.8475463,9.41904319 10.6854385,8.85461355 10.3736927,8.43742643 C10.0120676,7.94661816 9.50080447,7.71348415 8.8399034,7.71348415 Z M8.8399034,8.37607545 C9.21399833,8.37607545 9.48833463,8.54785839 9.66291232,8.90369442 C9.82502013,9.19817938 9.91230895,9.6030963 9.91230895,10.1184451 C9.91230895,10.6215237 9.82502013,11.0141704 9.67538216,11.3086553 C9.48833463,11.6644914 9.21399833,11.8485446 8.8399034,11.8485446 C8.45333862,11.8485446 8.17900232,11.6644914 8.00442463,11.3209255 C7.84231682,11.0264405 7.76749788,10.6215237 7.76749788,10.1184451 C7.76749788,9.59082611 7.84231682,9.18590918 8.00442463,8.89142422 C8.17900232,8.54785839 8.45333862,8.37607545 8.8399034,8.37607545 Z" id="形状" fill="#346bf6"></path>
        </g>
    </g>
</svg>