<!--?xml version="1.0" encoding="UTF-8"?-->
<svg width="32px" height="32px" viewBox="0 0 32 32" version="1.1" xmlns="http://www.w3.org/2000/svg" xmlns:xlink="http://www.w3.org/1999/xlink">
    <title>1071.加粗</title>
    <g id="1071.加粗" stroke="none" stroke-width="1" fill="none" fill-rule="evenodd">
        <g id="编组" transform="translate(6.000000, 2.000000)" fill="#000000" fill-rule="nonzero">
            <path d="M6.31605013,11.4040905 C6.31605013,12.0240954 6.61205249,12.3340979 7.20405715,12.3340979 C8.49806742,12.3340979 9.54407572,12.2420972 10.338082,12.0600957 C11.1340884,11.8760943 11.2440892,11.8740942 12.1780966,11.1520885 C13.1141041,10.4280827 13.7861094,9.072072 13.7741093,7.24405748 C13.7641092,5.58404429 12.9681029,4.26603382 12.4420987,3.42202716 C11.9160945,2.57602045 10.8580862,2.15401708 9.26807356,2.15401708 C8.21606519,2.15401708 7.46005919,2.26001792 7.00205557,2.4720196 C6.54405192,2.68202125 6.31605013,3.0000238 6.31605013,3.42202716 L6.31605013,11.4040905 L6.31605013,11.4040905 Z M2.15001705,4.51603584 C2.15001705,2.77002198 2.61602074,2.1560171 -1.3322782e-15,2.1560171 L-1.3322782e-15,0 L9.67207674,0 C12.9881031,0 15.502123,0.50600402 17.2121366,1.52001204 C18.9261502,2.5340201 19.782157,4.28003396 19.782157,6.76005364 C19.782157,8.50406748 19.282153,9.85607821 18.2861451,10.8140858 C17.2861372,11.7700934 15.8581259,12.4880991 13.9981111,12.9681029 C15.1581203,13.1641045 17.4381384,14.5241153 18.0581433,15.1001198 C18.6781482,15.6801245 19.158152,16.3961301 19.4941547,17.2561369 C19.8321574,18.1141437 20.0001587,19.148152 20.0001587,20.3601616 C20.0001587,21.9361741 19.7101564,23.2321844 19.1301518,24.2461924 C18.5501472,25.2602005 16.0201272,27.6462194 14.7261168,27.8582211 C13.4321066,28.0682228 11.9900951,27.9822221 10.5620838,27.9822221 C8.27006562,27.9822221 6.02204778,28.0222224 3.63602886,27.9822221 C1.25000994,27.9382217 2.77602204,28.0102223 -1.3322782e-15,27.9822221 L-1.3322782e-15,25.8622053 C2.50801992,25.8622053 2.15001708,25.4382019 2.15001705,24.0581909 L2.15001705,4.52003588 L2.15001705,4.51603584 Z M6.3920507,24.7741966 C6.3920507,25.2242002 6.55805203,25.4982024 7.04405588,25.7242042 C7.52805972,25.950206 8.35006623,26.0642069 9.51007546,26.0642069 C11.2360892,26.0642069 12.5160993,25.6322034 13.3501059,24.7741966 C14.1881126,23.9141898 14.6061159,22.4441781 14.6061159,20.3601616 C14.6061159,19.1201518 14.4641148,18.1141438 14.1801125,17.3401376 C13.8981103,16.5661315 13.4601068,15.9661267 12.8661021,15.5441234 C12.2740974,15.12212 11.5060913,14.8341177 10.5620838,14.6781165 C9.45074033,14.5111663 8.32780075,14.4335839 7.20405715,14.4461146 C6.61205246,14.4461146 6.3920507,14.9061183 6.3920507,15.7781252 L6.3920507,24.7741966 Z" id="形状" fill="#666666"></path>
        </g>
    </g>
</svg>