<!--?xml version="1.0" encoding="UTF-8"?-->
<svg width="32px" height="32px" viewBox="0 0 32 32" version="1.1" xmlns="http://www.w3.org/2000/svg" xmlns:xlink="http://www.w3.org/1999/xlink">
    <title>1738.基础服务</title>
    <g id="1738.基础服务" stroke="none" stroke-width="1" fill="none" fill-rule="evenodd">
        <path d="M21.7899349,19.7497728 L21.7899349,27.4633448 L16.4641654,30.391312 C16.1791204,30.5480222 15.8337134,30.5479976 15.5486907,30.3912467 L10.2248374,27.4633448 L10.2248374,19.7497728 L16.0073862,22.6786855 L21.7899349,19.7497728 Z M29.5,15.8025384 L29.5,23.223386 L22.7536931,26.8648276 L22.7536931,19.4902782 L29.5,15.8025384 Z M2.5,16.0620331 L9.24630692,19.4902782 L9.26107923,26.8648276 L2.51477231,23.3329129 L2.5,16.0620331 Z M16.0064101,9.65362542 L21.7899349,12.8503571 L21.7899349,18.4564122 L16.2255659,21.349485 C16.0881939,21.4209086 15.9246322,21.4208973 15.7872701,21.3494548 L10.2248374,18.4564122 L10.2248374,12.8503571 L16.0064101,9.65362542 Z M23.5912861,5.56636263 L29.5,8.83577041 L29.5,14.6939054 L22.7492177,18.3639987 L22.7492177,12.3404795 L17.3906249,9.2001353 L23.5912861,5.56636263 Z M8.78711764,5.82393049 L14.7193093,9.2001353 L9.24630692,12.3404795 L9.24630692,18.3639987 L2.51477231,14.6939054 L2.62702367,8.83577041 L8.78711764,5.82393049 Z M16.6034057,1.62256713 L22.556383,4.98060071 L16.0658867,8.83577041 L9.57539047,4.98060071 L15.678194,1.61794701 C15.9665616,1.45905605 16.3166393,1.46080419 16.6034057,1.62256713 Z" id="形状结合" fill="#666666" fill-rule="nonzero"></path>
    </g>
</svg>