<!--?xml version="1.0" encoding="UTF-8"?-->
<svg width="32px" height="32px" viewBox="0 0 32 32" version="1.1" xmlns="http://www.w3.org/2000/svg" xmlns:xlink="http://www.w3.org/1999/xlink">
    <title>1729.基础资料</title>
    <g id="1729.基础资料" stroke="none" stroke-width="1" fill="none" fill-rule="evenodd">
        <path d="M27.7058824,2 L9.23529412,2 C7.42352941,2 6.94117647,2.45 6.94117647,4.22222222 L6.94117647,22.75 C6.94117647,23.1873016 6.56470588,23.5555556 6.11764706,23.5555556 C5.67058824,23.5555556 5.29411765,23.1873016 5.29411765,22.75 L5.29411765,7.44444444 C3.48235294,7.44444444 2,8.89444444 2,10.6666667 L2,26.7777778 C2,28.55 3.48235294,30 5.29411765,30 L26.7058824,30 C28.5176471,30 30,28.55 30,26.7777778 L30,4.22222222 C30,2.45 29.5176471,2 27.7058824,2 Z M11.6,6.98276138 C11.6,6.43999726 12.0399973,6 12.5827614,6 L24.0304756,6 C24.5732397,6 25.013237,6.43999726 25.013237,6.98276138 C25.013237,7.52552551 24.5732397,7.96552277 24.0304756,7.96552277 L12.5827614,7.96552277 C12.0399973,7.96552277 11.6,7.52552551 11.6,6.98276138 Z M11.6,19.9827614 C11.6,19.4399973 12.0399973,19 12.5827614,19 L24.0304756,19 C24.5732397,19 25.013237,19.4399973 25.013237,19.9827614 C25.013237,20.5255255 24.5732397,20.9655228 24.0304756,20.9655228 L12.5827614,20.9655228 C12.0399973,20.9655228 11.6,20.5255255 11.6,19.9827614 Z M11.6,12.9827614 C11.6,12.4399973 12.0399973,12 12.5827614,12 L24.0304756,12 C24.5732397,12 25.013237,12.4399973 25.013237,12.9827614 C25.013237,13.5255255 24.5732397,13.9655228 24.0304756,13.9655228 L12.5827614,13.9655228 C12.0399973,13.9655228 11.6,13.5255255 11.6,12.9827614 Z" id="形状" fill="#666666" fill-rule="nonzero"></path>
    </g>
</svg>