<!--?xml version="1.0" encoding="UTF-8"?-->
<svg width="32px" height="32px" viewBox="0 0 32 32" version="1.1" xmlns="http://www.w3.org/2000/svg" xmlns:xlink="http://www.w3.org/1999/xlink">
    <title>1454-树形基础资料</title>
    <g id="1454-树形基础资料" stroke="none" stroke-width="1" fill="none" fill-rule="evenodd">
        <g id="编组" transform="translate(6.000000, 4.000000)" fill="#000000" fill-rule="nonzero">
            <path d="M13.0909091,-5.58099022e-16 C13.0931651,-5.58099022e-16 13.0954189,-5.58099022e-16 13.0976695,-5.58099022e-16 C13.1239047,0.000383668364 13.1494538,0.00250853237 13.1747978,0.00642870982 C13.1803975,0.00727713164 13.1858127,0.00819904582 13.1911986,0.00920005528 C13.2168098,0.0139799913 13.2423011,0.0206336553 13.2673178,0.0291675142 C13.2729142,0.0310719273 13.2782324,0.0329854778 13.2835124,0.0349785688 C13.3017175,0.0418388597 13.3197546,0.0497678139 13.3374207,0.058728096 C13.3493804,0.0648295593 13.3608,0.0711637004 13.37196,0.077885987 C13.3744309,0.0793485819 13.3769007,0.0808637237 13.3793618,0.0824004917 L13.4043873,0.0990217048 C13.4217131,0.111209891 13.4382971,0.124381074 13.4540586,0.138454246 L13.4578211,0.141850892 L19.4578211,5.59639637 L19.4721917,5.60994326 C19.4882477,5.62563981 19.5033371,5.64231949 19.5173651,5.65988497 L19.4578211,5.59639637 C19.4912902,5.62682281 19.5201044,5.66045815 19.5442211,5.6964073 C19.55256,5.70896083 19.5604735,5.721876 19.5678502,5.73513086 C19.5770706,5.75161646 19.5853953,5.76866236 19.5927851,5.78602494 C19.6084778,5.82276175 19.6202487,5.86158381 19.6275753,5.9019539 L19.6055313,5.81889425 C19.6128437,5.83973071 19.6188611,5.8609368 19.6235771,5.88238495 L19.6275753,5.9019539 C19.6318975,5.92814202 19.633896,5.945334 19.6350796,5.96257886 L19.6363637,6 L19.6363637,23.4545455 C19.6363637,23.7557917 19.3921549,24 19.0909091,24 L19.0909091,24 L0.545454537,24 C0.244208736,24 0,23.7557917 0,23.4545455 L0,23.4545455 L0,0.545454537 C0,0.244208291 0.244208736,-5.58099022e-16 0.545454537,-5.58099022e-16 L0.545454537,-5.58099022e-16 L13.0909091,-5.58099022e-16 Z M12.5454546,1.09090907 L1.0909091,1.09090907 L1.0909091,22.9090909 L18.5454546,22.9090909 L18.5454546,6.54545455 L13.0909091,6.54545455 C12.8231346,6.54545455 12.6004276,6.35249979 12.5542429,6.0980461 L12.5542429,6.0980461 L12.5454546,5.99999999 L12.5454546,1.09090907 Z M13.6363636,7.63636362 C13.9376095,7.63636362 14.1818182,7.88057192 14.1818182,8.18181819 L14.1818182,11.4545455 C14.1818182,11.7557917 13.9376095,12 13.6363636,12 L8.72727272,11.9989091 L8.72727272,14.1818182 L10.9090909,14.1818182 L10.9090909,13.6363636 C10.9090909,13.3351174 11.1532996,13.0909091 11.4545454,13.0909091 L13.6363636,13.0909091 C13.9376095,13.0909091 14.1818182,13.3351174 14.1818182,13.6363636 L14.1818182,15.8181818 C14.1818182,16.1194281 13.9376095,16.3636364 13.6363636,16.3636364 L11.4545454,16.3636364 C11.1532996,16.3636364 10.9090909,16.1194281 10.9090909,15.8181818 L10.9090909,15.2727273 L8.72727272,15.2727273 L8.72727272,18.5454546 L10.9090909,18.5454546 L10.9090909,18 C10.9090909,17.6987537 11.1532996,17.4545454 11.4545454,17.4545454 L13.6363636,17.4545454 C13.9376095,17.4545454 14.1818182,17.6987537 14.1818182,18 L14.1818182,20.1818182 C14.1818182,20.4830644 13.9376095,20.7272727 13.6363636,20.7272727 L11.4545454,20.7272727 C11.1532996,20.7272727 10.9090909,20.4830644 10.9090909,20.1818182 L10.9090909,19.6363636 L8.18181819,19.6363636 L8.08377165,19.6275756 C7.82931818,19.581391 7.63636365,19.3586835 7.63636365,19.0909091 L7.63636365,19.0909091 L7.63636365,11.9989091 L6.00000001,12 C5.69875419,12 5.45454545,11.7557917 5.45454545,11.4545455 L5.45454545,8.18181819 C5.45454545,7.88057192 5.69875419,7.63636362 6.00000001,7.63636362 L13.6363636,7.63636362 Z M13.0909091,18.5454546 L12,18.5454546 L12,19.6363637 L13.0909091,19.6363637 L13.0909091,18.5454546 Z M13.0909091,14.1818182 L12,14.1818182 L12,15.2727273 L13.0909091,15.2727273 L13.0909091,14.1818182 Z M13.0898182,8.72727272 L6.54436363,8.72727272 L6.54436363,10.9090909 L13.0898182,10.9090909 L13.0898182,8.72727272 Z M17.6803637,5.45454545 L13.6363636,1.7781818 L13.6363636,5.45454545 L17.6803637,5.45454545 Z" id="形状" fill="#666666"></path>
        </g>
    </g>
</svg>