<!--?xml version="1.0" encoding="UTF-8"?-->
<svg width="32px" height="32px" viewBox="0 0 32 32" version="1.1" xmlns="http://www.w3.org/2000/svg" xmlns:xlink="http://www.w3.org/1999/xlink">
    <title>1097.项目</title>
    <g id="1097.项目" stroke="none" stroke-width="1" fill="none" fill-rule="evenodd">
        <g id="编组" transform="translate(2.000000, 4.000000)" fill="#000000" fill-rule="nonzero">
            <path d="M7.77777779,1.52755556 L28,1.52755556 L28,3.08311111 L7.77777779,3.08311111 L7.77777779,1.52755556 Z M7.77777779,20.1942222 L28,20.1942222 L28,21.7497777 L7.77777779,21.7497777 L7.77777779,20.1942222 Z M7.77777779,10.8608889 L28,10.8608889 L28,12.4164444 L7.77777779,12.4164444 L7.77777779,10.8608889 Z M2.33333336,4.66666664 C1.49971364,4.66666664 0.729417256,4.22193584 0.312607395,3.5 C-0.104202465,2.77806414 -0.104202465,1.8886025 0.312607395,1.16666665 C0.729417256,0.444730803 1.49971364,0 2.33333336,0 C3.62199775,0 4.66666664,1.04466893 4.66666664,2.33333332 C4.66666664,3.62199772 3.62199775,4.66666664 2.33333336,4.66666664 Z M2.33333336,23.3333333 C1.04466894,23.3333333 2.10975015e-08,22.2886644 2.10975015e-08,21 C2.10975015e-08,19.7113355 1.04466894,18.6666666 2.33333336,18.6666666 C3.62199777,18.6666666 4.66666669,19.7113355 4.66666669,21 C4.66666669,22.2886644 3.62199777,23.3333333 2.33333336,23.3333333 Z M2.33333336,14 C1.04466894,14 2.10975015e-08,12.9553311 2.10975015e-08,11.6666666 C2.10975015e-08,10.3780022 1.04466894,9.33333331 2.33333336,9.33333331 C3.62199777,9.33333331 4.66666669,10.3780022 4.66666669,11.6666666 C4.66666669,12.9553311 3.62199777,14 2.33333336,14 Z" id="形状" fill="#346bf6"></path>
        </g>
    </g>
</svg>