<!--?xml version="1.0" encoding="UTF-8"?-->
<svg width="32px" height="32px" viewBox="0 0 32 32" version="1.1" xmlns="http://www.w3.org/2000/svg" xmlns:xlink="http://www.w3.org/1999/xlink">
    <title>563.中标公告@1x</title>
    <g id="563.中标公告" stroke="none" stroke-width="1" fill="none" fill-rule="evenodd">
        <g id="编组" transform="translate(5.000000, 5.000000)" fill="#000000" fill-rule="nonzero">
            <path d="M11.0128363,0 L11.3894753,0.00387670448 C17.3807442,0.222650224 22.0031159,5.00753977 22,11.0019344 C22,17.0525851 17.0494586,22 11.0019337,22 C5.01066477,22 0.222650193,17.37762 0.00387670091,11.3832254 C-0.049254009,9.29550086 0.444549066,7.31716315 1.43528054,5.61072965 C1.65405404,5.17005723 2.20411315,5.11380119 2.53539877,5.44508681 L2.53539877,5.44508681 L5.78262273,8.57979891 C5.94514021,8.7454417 5.94514021,8.9110845 5.89200947,9.12985805 C5.61697992,9.78930399 5.50446782,10.5050059 5.56072385,11.2738387 C5.72636666,14.1335212 8.1422513,16.4431446 10.9488029,16.4962752 C12.4458388,16.530654 13.8928693,15.9462161 14.9492328,14.8898525 C16.0055963,13.8334889 16.5869088,12.3864583 16.5556554,10.8894223 C16.4462687,8.0328651 14.1397708,5.66698568 11.3332192,5.50134287 C10.5643865,5.50134287 9.84868467,5.613855 9.18923884,5.83262852 C9.02359603,5.88888453 8.80482249,5.88888453 8.63917968,5.72324172 L8.63917968,5.72324172 L5.45133711,2.53539893 C5.12005151,2.20411329 5.17630755,1.65405412 5.56072385,1.43528063 C7.2640319,0.44454907 9.24549485,-0.0492540325 11.3894753,0.00387670448 L11.0128363,0 Z M1.38214983,0.772709363 C1.52591525,0.772709363 1.66655537,0.832090752 1.76656611,0.938352172 L1.76656611,0.938352172 L10.0143275,9.18611409 C10.3112344,9.00484459 10.6550214,8.9110845 11.0050589,8.9110845 C12.1614332,8.9110845 13.0959087,9.84556 13.0959087,11.0019344 C13.0959087,12.1583088 12.1614332,13.0927843 11.0050589,13.0927843 C9.84868467,13.0927843 8.91420926,12.1583088 8.91420926,11.0019344 C8.92045988,10.6550221 9.01734533,10.3143605 9.18923884,10.0112028 L9.18923884,10.0112028 L0.997733504,1.70718486 C0.891472084,1.60717412 0.832090722,1.466534 0.832090722,1.32276853 C0.832090722,1.17900306 0.891472084,1.03836294 0.997733504,0.938352172 C1.09774427,0.832090752 1.23838436,0.772709363 1.38214983,0.772709363 Z" id="形状" fill="#346bf6"></path>
        </g>
    </g>
</svg>