<!--?xml version="1.0" encoding="UTF-8"?-->
<svg width="32px" height="32px" viewBox="0 0 32 32" version="1.1" xmlns="http://www.w3.org/2000/svg" xmlns:xlink="http://www.w3.org/1999/xlink">
    <title>1829.投标</title>
    <g id="1829.投标" stroke="none" stroke-width="1" fill="none" fill-rule="evenodd">
        <path d="M16,2.00703832 C17.2678963,2.00703832 18.4964268,2.17558306 19.6644088,2.49148968 L19.6644088,5.65652957 C18.526202,5.25865401 17.3025581,5.04232793 16.0283086,5.04232793 C9.95321732,5.04232793 5.02838275,9.95938893 5.02838275,16.0248911 C5.02838275,22.0903932 9.95321732,27.0074542 16.0283086,27.0074542 C22.1033999,27.0074542 27.0282345,22.0903932 27.0282345,16.0248911 C27.0282345,14.7048835 26.7949903,13.4392671 26.367406,12.2668847 L29.4948319,12.2668847 C29.8240812,13.4574558 30,14.711703 30,16.0070383 C30,23.7390248 23.7319865,30.0070383 16,30.0070383 C8.2680135,30.0070383 2,23.7390248 2,16.0070383 C2,8.27505182 8.2680135,2.00703832 16,2.00703832 Z M16.0017426,7.90177516 C17.0852645,7.90177516 18.1187954,8.11631928 19.0623614,8.50533884 L16.6814402,10.8922563 C16.4617994,10.8638132 16.2378294,10.8491436 16.0104277,10.8491436 C13.1572976,10.8491436 10.8443786,13.1584117 10.8443786,16.0070383 C10.8443786,18.8556649 13.1572976,21.1649331 16.0104277,21.1649331 C18.8635578,21.1649331 21.1764767,18.8556649 21.1764767,16.0070383 C21.1764767,15.7601661 21.1591053,15.5173448 21.1255165,15.2797263 L23.4539808,12.9118754 C23.8400989,13.8556143 24.0529837,14.8889386 24.0529837,15.9721027 C24.0529837,20.4292216 20.4483203,24.0424303 16.0017426,24.0424303 C11.555165,24.0424303 7.95050156,20.4292216 7.95050156,15.9721027 C7.95050156,11.5149839 11.555165,7.90177516 16.0017426,7.90177516 Z M25.0077466,2 L25.0077466,7.00234922 L30.0150543,7.00234922 L30.0150543,7.7829892 L26.9862849,11.0060182 L22.5930497,11.0060182 L16.6961319,16.7639199 L15.2536376,16.7639199 L15.2536376,15.2866385 L20.9986632,9.38195995 L20.9986632,4.98513817 L23.9995101,2 L25.0077466,2 Z" id="形状结合" fill="#666666"></path>
    </g>
</svg>