<!--?xml version="1.0" encoding="UTF-8"?-->
<svg width="32px" height="32px" viewBox="0 0 32 32" version="1.1" xmlns="http://www.w3.org/2000/svg" xmlns:xlink="http://www.w3.org/1999/xlink">
    <title>632.招标中心@1x</title>
    <g id="632.招标中心" stroke="none" stroke-width="1" fill="none" fill-rule="evenodd">
        <g id="编组" transform="translate(4.000000, 2.000000)" fill="#000000" fill-rule="nonzero">
            <path d="M23.5296935,22.4461792 C23.7523306,22.4461792 23.9388354,22.6008788 23.9875789,22.8086485 L24,22.9164855 L24,23.4831042 C24,23.6087896 23.9508381,23.7276505 23.8658533,23.8159625 L23.7694215,23.8932126 L17.5293948,27.6882981 C17.414476,27.7581896 17.2775243,27.7756627 17.1515892,27.7407164 L17.0305503,27.6882972 L10.790577,23.8932127 C10.6831929,23.827903 10.6071854,23.7241362 10.5758931,23.6056367 L10.56,23.4831053 L10.56,22.9164855 C10.56,22.8302872 10.5836898,22.7457466 10.6284814,22.6720997 C10.7409569,22.4871656 10.9606179,22.4073941 11.1591402,22.4640487 L11.2746904,22.5146626 L17.0305492,26.0153363 C17.1454681,26.0852294 17.2824206,26.1027027 17.4083564,26.0677566 L17.5293959,26.0153372 L23.2853081,22.51466 C23.3589551,22.4698686 23.4434954,22.4461792 23.5296935,22.4461792 Z M2.39615997,3.26918414e-07 L19.68384,0.0031814639 C20.9243311,0.00382308821 21.9445138,0.94668881 22.0675543,2.15481986 L22.08,2.39978233 L22.0796353,15.1367784 L17.6797096,12.2796964 C17.4854251,12.1535397 17.2461607,12.1288682 17.0343374,12.2054793 L16.8817465,12.2819252 L9.80176475,16.9356688 C9.63758654,17.0435848 9.52566402,17.2117947 9.48746215,17.4005026 L9.47296874,17.545255 L9.47296874,24.9599929 L2.39616,24.9599929 C1.15550753,24.9599929 0.135078449,24.0171045 0.0123711027,22.8088262 L0,22.5638329 L0,2.39571978 L0.0119753726,2.15028785 C0.134905036,0.942033831 1.15550759,-0.000640882608 2.39615997,3.26918414e-07 Z M23.5296968,19.566173 C23.7523322,19.566173 23.9388357,19.7208714 23.9875789,19.92864 L24,20.0364762 L24,20.6030859 C24,20.7287712 23.9508383,20.8476319 23.8658539,20.9359437 L23.7694224,21.0131939 L17.5293956,24.8082968 C17.4144764,24.8781888 17.2775243,24.8956619 17.1515887,24.8607155 L17.0305495,24.8082959 L10.7905762,21.0131941 C10.6831925,20.9478842 10.6071852,20.8441174 10.5758931,20.7256183 L10.56,20.603087 L10.56,20.0364762 C10.56,19.950279 10.5836893,19.8657395 10.62848,19.7920933 C10.7409541,19.6071603 10.9606132,19.5273884 11.1591344,19.5840419 L11.2746839,19.6346551 L17.0305507,23.1353044 C17.1454691,23.2051964 17.2824204,23.2226695 17.4083555,23.187724 L17.5293945,23.1353053 L23.2853145,19.6346524 C23.3589606,19.5898621 23.4434998,19.566173 23.5296968,19.566173 Z M17.44001,13.5580656 L17.5395368,13.6068556 L23.3719173,17.3562397 C23.4297591,17.3934237 23.4789367,17.4426013 23.5161204,17.5004433 C23.6355806,17.6862716 23.6106556,17.9234808 23.4699815,18.0803471 L23.3719162,18.1637721 L17.5395356,21.9131319 C17.4130432,21.9944478 17.2578917,22.0107107 17.1199359,21.9619209 L17.0204096,21.9131309 L11.1880772,18.1637712 C11.1302364,18.1265877 11.0810597,18.0774111 11.0438762,18.0195706 C10.9244147,17.8337429 10.9493381,17.5965335 11.0900112,17.4396662 L11.188076,17.3562406 L17.0204083,13.6068566 C17.146901,13.5255393 17.3020534,13.5092756 17.44001,13.5580656 Z M5.47255172,4.66266437 C4.22017859,4.66266437 3.38526314,5.73009546 3.38526314,6.79752655 C3.38526314,7.43798518 3.593992,7.86495764 4.01144973,8.29193007 L4.01144973,10.4267923 C4.01144973,10.6402785 4.22017859,10.8537647 4.42890745,10.6402785 L5.47255172,9.35936116 L6.51619597,10.6402785 C6.72492483,10.8537647 6.93365369,10.6402785 6.93365369,10.4267923 L6.93365369,8.29193007 C7.14238255,8.07844384 7.55984027,7.43798518 7.55984027,6.79752655 C7.55984027,5.51660923 6.51619597,4.66266437 5.47255172,4.66266437 Z M17.9488619,9.41703256 L9.84061183,9.41703256 C9.51239119,9.41703256 9.24631581,9.68310797 9.24631581,10.0113286 C9.24631581,10.2985217 9.45002976,10.5381347 9.72084045,10.5935506 L9.84061183,10.6056246 L17.9488619,10.6056246 C18.2770826,10.6056246 18.5431579,10.3395492 18.5431579,10.0113286 C18.5431579,9.68310797 18.2770826,9.41703256 17.9488619,9.41703256 Z M17.9488619,4.66266437 L9.84061183,4.66266437 C9.51239119,4.66266437 9.24631581,4.92873978 9.24631581,5.25696039 C9.24631581,5.54415347 9.45002976,5.78376655 9.72084045,5.83918245 L9.84061183,5.85125642 L17.9488619,5.85125642 C18.2770826,5.85125642 18.5431579,5.58518104 18.5431579,5.25696039 C18.5431579,4.92873978 18.2770826,4.66266437 17.9488619,4.66266437 Z" id="形状" fill="#666666"></path>
        </g>
    </g>
</svg>