<!--?xml version="1.0" encoding="UTF-8"?-->
<svg width="32px" height="32px" viewBox="0 0 32 32" version="1.1" xmlns="http://www.w3.org/2000/svg" xmlns:xlink="http://www.w3.org/1999/xlink">
    <title>817.竞价管理</title>
    <g id="817.竞价管理" stroke="none" stroke-width="1" fill="none" fill-rule="evenodd">
        <g id="编组" transform="translate(2.000000, 2.000000)" fill="#000000" fill-rule="nonzero">
            <path d="M24.3322014,27.3241492 L14.2661181,15.2056489 L11.6662965,17.7354699 L4.91124065,10.4386095 L12.0484997,3.491752 L18.8035556,10.7886124 L16.3297351,13.1966323 L27.4178269,24.3211244 C28.2256336,25.1919316 28.1878332,26.569543 27.3352262,27.3997498 C26.9317122,27.7973176 26.3839485,28.0138201 25.8176619,27.999564 C25.2513754,27.9853078 24.7151994,27.7415173 24.3322014,27.3241492 Z M20.0201657,9.72740359 L13.1461088,2.30034213 C12.6416367,1.74984891 12.6639222,0.898667307 13.1965092,0.3753262 C13.4487953,0.126769541 13.7912805,-0.00855680656 14.1453259,0.000419737662 C14.4993712,0.00939628189 14.8345586,0.161904485 15.0739247,0.422926605 L21.9507816,7.85138806 C22.4548773,8.40225314 22.4319725,9.25344601 21.8989812,9.77640402 C21.6465614,10.0243389 21.3042759,10.1591351 20.9505781,10.1498968 C20.5968803,10.1406584 20.2620983,9.98817758 20.0229657,9.72740359 L20.0201657,9.72740359 Z M3.69183054,11.4998183 L10.5700875,18.9268797 C11.0741831,19.4777448 11.0512783,20.3289376 10.518287,20.8518956 C10.2662402,21.1001845 9.92417196,21.2354771 9.57047849,21.2267668 C9.21678502,21.2180564 8.88179103,21.0660899 8.6422715,20.8056953 L1.76401458,13.3772338 C1.25954248,12.8267406 1.28182798,11.975559 1.81441502,11.4522179 C2.06670116,11.2036612 2.4091863,11.0683349 2.76323168,11.0773114 C3.11727706,11.086288 3.45246438,11.2387962 3.69183054,11.4998183 Z M1.40001159,25.2003316 L16.800139,25.2003316 C17.5733441,25.2003316 18.2001506,25.8271382 18.2001506,26.6003432 C18.2001506,27.3735483 17.5733441,28.0003548 16.800139,28.0003548 L1.40001159,28.0003548 C0.626806539,28.0003548 0,27.3735483 0,26.6003432 C0,25.8271382 0.626806539,25.2003316 1.40001159,25.2003316 L1.40001159,25.2003316 Z M2.80002318,22.4003085 L15.4001274,22.4003085 C16.1733325,22.4003085 16.800139,23.027115 16.800139,23.80032 C16.800139,24.5735251 16.1733325,25.2003316 15.4001274,25.2003316 L2.80002318,25.2003316 C2.02681813,25.2003316 1.40001159,24.5735251 1.40001159,23.80032 C1.40001159,23.027115 2.02681813,22.4003085 2.80002318,22.4003085 Z" id="形状" fill="#666666"></path>
        </g>
    </g>
</svg>