<!--?xml version="1.0" encoding="UTF-8"?-->
<svg width="32px" height="32px" viewBox="0 0 32 32" version="1.1" xmlns="http://www.w3.org/2000/svg" xmlns:xlink="http://www.w3.org/1999/xlink">
    <title>295.报账信用管理</title>
    <g id="295.报账信用管理" stroke="none" stroke-width="1" fill="none" fill-rule="evenodd">
        <g id="报账信用管理" transform="translate(5.500000, 4.000000)" fill="#000000" fill-rule="nonzero">
            <path d="M10.5,0 C16.2989898,0 21,4.7307857 21,10.5665056 C21,13.5628291 19.7606907,16.2678629 17.76977,18.1908205 L17.7692308,23.186975 C17.7692308,23.2896861 17.7498861,23.3914666 17.7122208,23.486928 C17.5593624,23.8743432 17.1435853,24.0778509 16.7530241,23.9723107 L16.6634734,23.9424122 L10.9038462,21.6410163 L5.14421893,23.9424122 C5.04935838,23.9803159 4.9482185,24 4.84615385,24 C4.43194028,24 4.0905519,23.6860066 4.04389549,23.2817656 L4.03846154,23.186975 L4.03850643,18.8959421 C1.58023757,16.9619879 0,13.9499578 0,10.5665056 C0,4.7307857 4.70101012,0 10.5,0 Z M8.00968108,5.14074971 C7.69425769,4.8233284 7.1828552,4.8233284 6.86743171,5.14074971 C6.55200824,5.45817102 6.55200824,5.97281265 6.86743171,6.29023399 L6.86743171,6.29023399 L8.694,8.12871915 L6.46153846,8.1287758 C6.01546235,8.1287758 5.65384615,8.49268235 5.65384615,8.94158392 C5.65384615,9.39048542 6.01546235,9.75439205 6.46153846,9.75439205 L6.46153846,9.75439205 L9.68342308,9.7543354 L9.68342308,11.3799517 L6.46153846,11.3800083 C6.01546235,11.3800083 5.65384615,11.7439149 5.65384615,12.1928164 C5.65384615,12.6417179 6.01546235,13.0056246 6.46153846,13.0056246 L6.46153846,13.0056246 L9.68342308,13.0055679 L9.68402571,15.4552607 C9.68402571,15.9041623 10.0456418,16.2680689 10.491718,16.2680689 C10.9377941,16.2680689 11.2994103,15.9041623 11.2994103,15.4552607 L11.2994103,15.4552607 L11.2988077,13.0055679 L14.5384615,13.0056246 C14.9845376,13.0056246 15.3461538,12.6417179 15.3461538,12.1928164 C15.3461538,11.7439149 14.9845376,11.3800083 14.5384615,11.3800083 L14.5384615,11.3800083 L11.2988077,11.3799517 L11.2988077,9.7543354 L14.5384615,9.75439205 C14.9845376,9.75439205 15.3461538,9.39048542 15.3461538,8.94158392 C15.3461538,8.49268235 14.9845376,8.1287758 14.5384615,8.1287758 L14.5384615,8.1287758 L11.9336538,8.12871915 L13.7615168,6.29023399 L13.8287076,6.21366148 C14.0750738,5.89480401 14.052677,5.43375401 13.7615168,5.14074971 C13.4460933,4.8233284 12.9346908,4.8233284 12.6192674,5.14074971 L12.6192674,5.14074971 L10.3347685,7.43971829 L10.3142308,7.46221649 L10.29418,7.43971829 L8.00968108,5.14074971 Z" id="形状" fill="#346bf6"></path>
        </g>
    </g>
</svg>