<!--?xml version="1.0" encoding="UTF-8"?-->
<svg width="32px" height="32px" viewBox="0 0 32 32" version="1.1" xmlns="http://www.w3.org/2000/svg" xmlns:xlink="http://www.w3.org/1999/xlink">
    <title>92.票据资金</title>
    <g id="92.票据资金" stroke="none" stroke-width="1" fill="none" fill-rule="evenodd">
        <g id="票据资金" transform="translate(4.000000, 4.000000)" fill="#000000" fill-rule="nonzero">
            <path d="M1.6,24 C0.716344397,24 0,23.2836556 0,22.4 L0,22.4 L0,1.6 C0,0.716344397 0.716344397,0 1.6,0 L1.6,0 L18.4,0 C19.2836556,0 20,0.716344397 20,1.6 L20,1.6 L20,13.6 L24,13.6 L24,20 C24,22.209139 22.209139,24 20,24 L20,24 L1.6,24 Z M18.4,1.6 L1.6,1.6 L1.6,22.4 L18.4,22.4 L18.4,1.6 Z M22.4,15.2 L20,15.2 L20,22.4 L20.1410182,22.3959258 C21.354203,22.3256323 22.3256323,21.354203 22.3959258,20.1410182 L22.3959258,20.1410182 L22.4,20 L22.4,15.2 Z M7.97157289,6.96568543 L9.90237975,8.89617088 L11.8343146,6.96568543 C12.1227018,6.67729825 12.5764866,6.65511462 12.8903195,6.89913454 L12.9656854,6.96568543 C13.2540726,7.25407255 13.2762562,7.70785743 13.0322363,8.02169039 L12.9656854,8.09705623 L11.1887798,9.87297088 L13.1183798,9.87297631 C13.5602076,9.87297631 13.9183798,10.2311485 13.9183798,10.6729763 C13.9183798,11.1148041 13.5602076,11.4729763 13.1183798,11.4729763 L10.7183798,11.4729709 L10.7183798,13.0729709 L13.1183798,13.0729763 C13.5602076,13.0729763 13.9183798,13.4311485 13.9183798,13.8729763 C13.9183798,14.3148041 13.5602076,14.6729763 13.1183798,14.6729763 L10.7183798,14.6729709 L10.7183798,17.0729763 C10.7183798,17.5148041 10.3602076,17.8729763 9.91837978,17.8729763 C9.47655199,17.8729763 9.11837975,17.5148041 9.11837975,17.0729763 L9.11837975,14.6729709 L6.71837978,14.6729763 C6.27655199,14.6729763 5.91837978,14.3148041 5.91837978,13.8729763 C5.91837978,13.4311485 6.27655199,13.0729763 6.71837978,13.0729763 L9.11837975,13.0729709 L9.11837975,11.4729709 L6.71837978,11.4729763 C6.27655199,11.4729763 5.91837978,11.1148041 5.91837978,10.6729763 C5.91837978,10.2311485 6.27655199,9.87297631 6.71837978,9.87297631 L8.61597975,9.87297088 L6.84020204,8.09705623 C6.5277826,7.78463688 6.5277826,7.27810488 6.84020204,6.96568543 C7.15262147,6.653266 7.65915343,6.653266 7.97157289,6.96568543 Z" id="形状" fill="#346bf6"></path>
        </g>
    </g>
</svg>