<!--?xml version="1.0" encoding="UTF-8"?-->
<svg width="32px" height="32px" viewBox="0 0 32 32" version="1.1" xmlns="http://www.w3.org/2000/svg" xmlns:xlink="http://www.w3.org/1999/xlink">
    <title>318.黑名单</title>
    <g id="318.黑名单" stroke="none" stroke-width="1" fill="none" fill-rule="evenodd">
        <g id="黑名单" transform="translate(5.000000, 4.000000)" fill="#000000" fill-rule="nonzero">
            <path d="M10.6785714,0 C14.3078712,0 17.25,2.96418374 17.25,6.62068966 C17.25,8.71668414 16.2832607,10.585192 14.7745092,11.7983021 C11.9459996,12.5364598 9.85714286,15.1259103 9.85714286,18.2068966 C9.85714286,20.1848952 10.7180991,21.9602993 12.0830533,23.1734748 L0.821428571,23.1724138 L0.821428571,23.1724138 C0.36776611,23.1724138 0,22.8018908 0,22.3448276 C0,17.655881 2.97732542,13.667539 7.13120446,12.1940722 C5.31206299,11.0171421 4.10714286,8.9606828 4.10714286,6.62068966 C4.10714286,2.96418374 7.04927166,0 10.6785714,0 Z M17.25,12.4137931 C20.4256373,12.4137931 23,15.0074539 23,18.2068966 C23,21.4063392 20.4256373,24 17.25,24 C14.0743627,24 11.5,21.4063392 11.5,18.2068966 C11.5,15.0074539 14.0743627,12.4137931 17.25,12.4137931 Z M13.1428571,18.2068966 C13.1428571,20.4922127 14.9816877,22.3448276 17.25,22.3448276 C18.0871238,22.3448276 18.8657526,22.0925034 19.5150464,21.6592263 L13.8233572,15.9248708 C13.3933039,16.5790318 13.1428571,17.3634975 13.1428571,18.2068966 Z M17.25,14.0689655 C16.4128762,14.0689655 15.6342474,14.3212897 14.9849536,14.7545668 L20.6766428,20.4889223 C21.1066961,19.8347613 21.3571429,19.0502956 21.3571429,18.2068966 C21.3571429,15.9215804 19.5183123,14.0689655 17.25,14.0689655 Z" id="形状" fill="#666666"></path>
        </g>
    </g>
</svg>