<!--?xml version="1.0" encoding="UTF-8"?-->
<svg width="32px" height="32px" viewBox="0 0 32 32" version="1.1" xmlns="http://www.w3.org/2000/svg" xmlns:xlink="http://www.w3.org/1999/xlink">
    <title>1310-BOM版本</title>
    <g id="1310-BOM版本" stroke="none" stroke-width="1" fill="none" fill-rule="evenodd">
        <g id="编组" transform="translate(4.000000, 6.000000)" fill="#000000" fill-rule="nonzero">
            <path d="M22.2857143,4.28571429 C23.2324881,4.28571429 24,5.05322614 24,6 L24,6 L24,18.8571429 C24,19.8039167 23.2324881,20.5714286 22.2857143,20.5714286 L22.2857143,20.5714286 L6,20.5714286 C5.05322614,20.5714286 4.28571429,19.8039167 4.28571429,18.8571429 L4.28571429,18.8571429 L4.28571429,6 C4.28571429,5.05322614 5.05322614,4.28571429 6,4.28571429 L6,4.28571429 L22.2857143,4.28571429 Z M22.2857143,6 L6,6 L6,18.8571429 L22.2857143,18.8571429 L22.2857143,6 Z M18,0 C18.9037387,0 19.6441415,0.699323822 19.7095837,1.58634657 L19.7142857,1.71428571 L19.7142857,3.42857143 L18,3.42857143 L18,1.71428571 L1.71428571,1.71428571 L1.71428571,15.4285714 L3.42857143,15.4285714 L3.42857143,17.1428571 L1.71428571,17.1428571 C0.810547035,17.1428571 0.0701441829,16.4435333 0.00470205257,15.5565105 L0,15.4285714 L0,1.71428571 C0,0.810547035 0.699323822,0.0701441829 1.58634657,0.00470205257 L1.71428571,0 L18,0 Z M15.4285714,13.7142857 C15.9019583,13.7142857 16.2857143,14.0980417 16.2857143,14.5714286 C16.2857143,15.0448155 15.9019583,15.4285714 15.4285714,15.4285714 L9.42857143,15.4285714 C8.95518454,15.4285714 8.57142857,15.0448155 8.57142857,14.5714286 C8.57142857,14.0980417 8.95518454,13.7142857 9.42857143,13.7142857 L15.4285714,13.7142857 Z M18.8571429,9.42857143 C19.3305297,9.42857143 19.7142857,9.8123274 19.7142857,10.2857143 C19.7142857,10.7591012 19.3305297,11.1428571 18.8571429,11.1428571 L9.42857143,11.1428571 C8.95518454,11.1428571 8.57142857,10.7591012 8.57142857,10.2857143 C8.57142857,9.8123274 8.95518454,9.42857143 9.42857143,9.42857143 L18.8571429,9.42857143 Z" id="形状" fill="#346bf6"></path>
        </g>
    </g>
</svg>