<!--?xml version="1.0" encoding="UTF-8"?-->
<svg width="32px" height="32px" viewBox="0 0 32 32" version="1.1" xmlns="http://www.w3.org/2000/svg" xmlns:xlink="http://www.w3.org/1999/xlink">
    <title>731.预算阶段@1x</title>
    <g id="731.预算阶段" stroke="none" stroke-width="1" fill="none" fill-rule="evenodd">
        <g id="编组" transform="translate(4.000000, 5.000000)" fill="#000000" fill-rule="nonzero">
            <path d="M9.35410062,0.0134313883 C9.35410059,0.0134313883 10.2234012,-0.199131572 10.8906785,1.06696571 C11.5274217,2.04160272 11.9134141,2.69906334 12.0050256,2.85705928 L12.0262461,2.89385179 C12.0262461,2.89385179 12.3599396,3.17422691 12.8955101,3.17422691 L12.8955101,3.17422691 L22.3225729,3.17366184 C22.4504767,3.16620366 23.9853217,3.1145944 23.9853217,4.93326227 L23.9853217,4.93326227 L23.9853217,20.7553 C23.9853217,20.7553 24.2515888,22.656044 22.5159875,22.656044 L22.5159875,22.656044 L1.66450376,22.6570513 C1.5497104,22.6732432 0,22.8504697 0,20.6167876 L0,20.6167876 L0.00106098667,2.01577358 C0.0132622133,1.73958846 0.165777733,0.0134313883 2.0722216,0.0134313883 L2.0722216,0.0134313883 L9.35410062,0.0134313883 Z M16.4686647,6.62215897 C16.2439177,6.47055089 15.9362405,6.49240171 15.7351111,6.68958747 L15.7351111,6.68958747 C15.7296503,6.69500785 15.7282968,6.69637475 15.7269501,6.69774833 L15.7269501,6.69774833 L12.4573218,10.032266 L9.18671366,6.69774833 C9.18402038,6.69500118 9.18129995,6.69228075 9.17855281,6.68958747 C8.94869054,6.46423233 8.5796639,6.46788606 8.35430872,6.69774833 L8.35430872,6.69774833 L8.24410278,6.81015841 C8.02189651,7.03680878 8.02189651,7.39959129 8.24410278,7.62624166 L8.24410278,7.62624166 L11.9174264,11.3730317 C12.0364136,11.489846 12.1795905,11.5452635 12.3234176,11.5477592 L12.3234176,11.5477592 L8.6202424,11.5460594 C8.26958542,11.5460594 7.98532176,11.845223 7.98532176,12.2142599 C7.98532176,12.5832969 8.26958542,12.8824604 8.6202424,12.8824604 L8.6202424,12.8824604 L11.7948456,12.8824604 L11.7948456,15.5552624 L8.6202424,15.5552624 C8.26958542,15.5552624 7.98532176,15.854426 7.98532176,16.2234629 C7.98532176,16.5924999 8.26958542,16.8916635 8.6202424,16.8916635 L8.6202424,16.8916635 L11.7948456,16.8916635 L11.7948456,20.2326659 C11.7948456,20.6017029 12.0791092,20.9008664 12.4297662,20.9008664 C12.7804232,20.9008664 13.0646869,20.6017029 13.0646869,20.2326659 L13.0646869,20.2326659 L13.0646869,16.8916635 L16.23929,16.8916635 C16.5899469,16.8916635 16.8742107,16.5924999 16.8742107,16.2234629 C16.8742107,15.854426 16.5899469,15.5552624 16.23929,15.5552624 L16.23929,15.5552624 L13.0646869,15.5552624 L13.0646869,12.8824604 L16.23929,12.8824604 C16.5899469,12.8824604 16.8742107,12.5832969 16.8742107,12.2142599 C16.8742107,11.845223 16.5899469,11.5460594 16.23929,11.5460594 L16.23929,11.5460594 L12.5902463,11.5477592 C12.7340733,11.5452635 12.8772502,11.489846 12.9962374,11.3730317 L12.9962374,11.3730317 L16.6695611,7.62624166 L16.7424725,7.53539833 C16.8882953,7.31102273 16.8639915,7.00847747 16.6695611,6.81015841 L16.6695611,6.81015841 L16.5593551,6.69774833 L16.4686647,6.62215897 Z" id="形状" fill="#346bf6"></path>
        </g>
    </g>
</svg>