<!--?xml version="1.0" encoding="UTF-8"?-->
<svg width="32px" height="32px" viewBox="0 0 32 32" version="1.1" xmlns="http://www.w3.org/2000/svg" xmlns:xlink="http://www.w3.org/1999/xlink">
    <title>781.岗位</title>
    <g id="781.岗位" stroke="none" stroke-width="1" fill="none" fill-rule="evenodd">
        <g id="编组" transform="translate(2.000000, 6.000000)" fill="#000000" fill-rule="nonzero">
            <path d="M7.11768377,12.2443509 C7.11348379,12.2681508 7.13728369,12.2961507 7.19468346,12.3255506 L7.19468346,13.1571472 C7.19468346,13.1571472 5.44329049,13.7479448 4.6186938,14.0181438 C3.79269711,14.2883427 3.11089985,15.3495384 3.11089985,16.7649327 L14.0000562,16.7649327 C14.0000562,15.3509384 13.3196589,14.2869427 12.5300621,14.0181438 C11.8580648,13.8291445 9.91627255,13.1571472 9.91627255,13.1571472 L9.91627255,12.3255506 C10.0030722,12.2807507 10.0128722,12.2415509 9.96387236,12.207951 C10.5882699,11.8523525 10.5280701,11.206955 10.9396684,10.7967567 C11.3666667,10.3725584 11.9784643,10.1331593 12.0708639,9.26516283 C12.1632635,8.39716631 11.6354656,8.28796675 11.6354656,8.28796675 L11.6354656,6.62757341 C11.4310665,5.20657911 9.03567608,4.48838199 7.89888064,4.70398113 C6.77188516,4.83418061 5.45309045,5.62097745 5.35089086,6.81377267 L5.35089086,8.28796675 C5.13389173,8.28796675 4.85109287,8.3999663 4.94489249,9.26656283 C5.03589212,10.1345593 5.63088974,10.3725584 6.07468796,10.7967567 C6.51988617,11.220955 6.42188656,11.8971523 7.11768377,12.2429509 L7.11768377,12.2443509 Z M5.52096043e-05,1.40979434 C5.52096043e-05,0.631397467 0.637109771,0 1.38890676,0 L26.6112056,0 C27.3784025,0 28,0.628597478 28,1.40979434 L28,19.5901214 C28,20.3685183 27.3630026,20.9999158 26.6112056,20.9999158 L1.38890676,20.9999158 C1.01761241,20.9976986 0.662470611,20.8477829 0.401898624,20.5832708 C0.141326637,20.3187588 -0.00324269802,19.9614072 5.52096043e-05,19.5901214 L5.52096043e-05,1.40979434 Z M15.5554499,10.7337569 L15.5554499,12.1337513 L23.3338187,12.1337513 L23.3338187,10.7337569 L15.5540499,10.7337569 L15.5554499,10.7337569 Z M15.5554499,15.3999382 L15.5554499,16.7999326 L24.8892125,16.7999326 L24.8892125,15.3999382 L15.5540499,15.3999382 L15.5554499,15.3999382 Z M15.5554499,6.06617566 L15.5554499,7.46617005 L21.778425,7.46617005 L21.778425,6.06617566 L15.5540499,6.06617566 L15.5554499,6.06617566 Z" id="形状" fill="#346bf6"></path>
        </g>
    </g>
</svg>