<!--?xml version="1.0" encoding="UTF-8"?-->
<svg width="32px" height="32px" viewBox="0 0 32 32" version="1.1" xmlns="http://www.w3.org/2000/svg" xmlns:xlink="http://www.w3.org/1999/xlink">
    <title>1991.批量调动申请</title>
    <g id="1991.批量调动申请" stroke="none" stroke-width="1" fill="none" fill-rule="evenodd">
        <path d="M22.5,18 C25.5375661,18 28,20.4624339 28,23.5 C28,26.5375661 25.5375661,29 22.5,29 C19.4624339,29 17,26.5375661 17,23.5 C17,20.4624339 19.4624339,18 22.5,18 Z M23.375,20 L21.625,20 L21.624,22.625 L19,22.625 L19,24.375 L21.624,24.375 L21.625,27 L23.375,27 L23.374,24.375 L26,24.375 L26,22.625 L23.375,22.625 L23.375,20 Z M25.007048,6 C25.5547727,6 25.9987912,6.43858949 25.9987912,6.99868835 L25.9989548,18.1015226 C24.9682285,17.3793917 23.7146809,16.9558883 22.3626473,16.9558883 C18.8483204,16.9558883 15.9993956,19.8172073 15.9993956,23.3468232 C15.9993956,24.7048708 16.4211466,25.9639846 17.1402772,26.9992523 L6.99174316,26.9987859 C6.44401854,26.9987859 6,26.5601964 6,26.0000976 L6,6.99868835 C6,6.44712801 6.45527806,6 6.99174316,6 L25.007048,6 Z M23,3 C23.5522847,3 24,3.44771525 24,4 L24,4.74012591 L5.82917061,4.74012591 C5.27688586,4.74012591 4.82917061,5.18784116 4.82917061,5.74012591 L4.82917061,24 L4,24 C3.44771525,24 3,23.5522847 3,23 L3,4 C3,3.44771525 3.44771525,3 4,3 L23,3 Z M17.5816509,13.7890331 L9.52953375,13.7890331 C9.23708034,13.7890331 9,14.0261134 9,14.3185668 C9,14.6110202 9.23708034,14.8481006 9.52953375,14.8481006 L15.354,14.848 L15.354405,15.8435544 C15.354405,16.1196968 15.5782626,16.3435544 15.854405,16.3435544 C15.9779259,16.3435544 16.097075,16.2978326 16.1888874,16.2152015 L17.9161333,14.6606802 C18.1213883,14.4759506 18.1380275,14.1598057 17.953298,13.9545507 C17.8584767,13.8491938 17.7233941,13.7890331 17.5816509,13.7890331 Z M10.9896976,9.24472971 L9.26245175,10.799251 C9.15709482,10.8940722 9.09693411,11.0291548 9.09693411,11.1708981 C9.09693411,11.4470405 9.32079174,11.6708981 9.59693411,11.6708981 L17.6490512,11.6708981 C17.9415047,11.6708981 18.178585,11.4338177 18.178585,11.1413643 C18.178585,10.8489109 17.9415047,10.6118306 17.6490512,10.6118306 L11.82418,10.6118306 L11.82418,9.61637679 C11.82418,9.4928559 11.7784582,9.37370677 11.6958271,9.28189442 C11.5110976,9.07663941 11.1949526,9.0600002 10.9896976,9.24472971 Z" id="形状结合" fill="#666666"></path>
    </g>
</svg>