<!--?xml version="1.0" encoding="UTF-8"?-->
<svg width="32px" height="32px" viewBox="0 0 32 32" version="1.1" xmlns="http://www.w3.org/2000/svg" xmlns:xlink="http://www.w3.org/1999/xlink">
    <title>1695.业务项目</title>
    <g id="1695.业务项目" stroke="none" stroke-width="1" fill="none" fill-rule="evenodd" opacity="0.9">
        <path d="M13.8599122,5.15393903 L14.1723407,5.64519073 C14.8054037,6.65175424 15.1504202,7.27066037 15.1504202,7.27066037 L15.200239,7.31741754 C15.2997063,7.40263382 15.5476081,7.57833398 15.9393461,7.62047367 L16.1877957,7.63171365 L28.1849486,7.62489374 C28.6207739,7.62777931 29.8541916,7.77673097 29.9764438,9.36105417 L29.9862344,9.62332674 L29.9862344,25.7995109 C29.9862344,25.7995109 30.2492856,27.7983899 28.4755755,27.9749567 L28.2208655,27.9873799 L3.91560298,27.9873799 C3.91560298,27.9873799 2.14452033,28.2861429 2.00828323,25.9763807 L2,25.6865022 L2.00028212,6.35385017 C2.00566144,6.18129466 2.11112214,4.18971622 4.11511859,4.02405093 L4.38742402,4.0130969 L11.9849475,4.0130969 L12.1218327,4.00029771 C12.4264666,3.99347873 13.1866948,4.09571625 13.8599122,5.15393903 Z M8.90666667,19.9946289 L6.66666667,19.9946289 L6.66666667,22.2100135 L8.90666667,22.2100135 L8.90666667,19.9946289 Z M24.225641,19.9946289 L11.859971,19.9946289 C11.2482094,19.9946289 10.7522786,20.4905596 10.7522786,21.1023212 C10.7522786,21.7140828 11.2482094,22.2100135 11.859971,22.2100135 L24.225641,22.2100135 C24.8374026,22.2100135 25.3333333,21.7140828 25.3333333,21.1023212 C25.3333333,20.4905596 24.8374026,19.9946289 24.225641,19.9946289 Z M8.90666667,14.1888559 L6.66666667,14.1888559 L6.66666667,16.4042405 L8.90666667,16.4042405 L8.90666667,14.1888559 Z M24.225641,14.1888559 L11.859971,14.1888559 C11.2482094,14.1888559 10.7522786,14.6847867 10.7522786,15.2965482 C10.7522786,15.9083098 11.2482094,16.4042405 11.859971,16.4042405 L24.225641,16.4042405 C24.8374026,16.4042405 25.3333333,15.9083098 25.3333333,15.2965482 C25.3333333,14.6847867 24.8374026,14.1888559 24.225641,14.1888559 Z" id="形状结合" fill="#666666" fill-rule="nonzero"></path>
    </g>
</svg>