<!--?xml version="1.0" encoding="UTF-8"?-->
<svg width="32px" height="32px" viewBox="0 0 32 32" version="1.1" xmlns="http://www.w3.org/2000/svg" xmlns:xlink="http://www.w3.org/1999/xlink">
    <title>785.影像</title>
    <g id="785.影像" stroke="none" stroke-width="1" fill="none" fill-rule="evenodd">
        <g id="编组" transform="translate(2.000000, 6.000000)" fill="#000000" fill-rule="nonzero">
            <path d="M21,1.03932613e-15 L1.6780341,1.03932613e-15 C0.755466399,1.03932613e-15 7.79494601e-16,0.755466399 7.79494601e-16,1.6780341 L7.79494601e-16,17.9317954 C7.79494601e-16,18.8543631 0.755466399,19.6098295 1.67662989,19.6098295 L20.7233701,19.6098295 C21.6445336,19.6098295 22.4,18.8543631 22.4,17.9317954 L22.4,13.9761284 C22.4,13.728987 22.6990973,13.6054162 22.8746239,13.7795386 L27.115346,18.0230692 C27.2638489,18.169755 27.4857183,18.2133272 27.6786664,18.1336978 C27.8716145,18.0540685 27.998175,17.8666998 28,17.6579739 L28,1.95185557 C27.9995212,1.74246944 27.873068,1.55395042 27.6795164,1.47407198 C27.4859648,1.39419355 27.2633602,1.43865696 27.115346,1.58676028 L22.8746239,5.82748245 C22.7952881,5.9068131 22.6760464,5.9306871 22.5722838,5.88801553 C22.4685213,5.84534396 22.4005733,5.74448956 22.4,5.63229689 L22.4,1.40140421 C22.3984579,0.628617455 21.7727848,0.00231682625 21,1.03932613e-15 L21,1.03932613e-15 Z M8.4,14.706319 L8.4,5.40762287 C8.4,5.1885657 8.64152457,5.05656971 8.82688064,5.17452357 L15.7313942,9.57111334 C15.8115661,9.62181359 15.8601694,9.71005668 15.8601694,9.80491474 C15.8601694,9.8997728 15.8115661,9.98801589 15.7313942,10.0387161 L8.40140421,14.706319 L8.4,14.706319 Z" id="形状" fill="#346bf6"></path>
        </g>
    </g>
</svg>