<!--?xml version="1.0" encoding="UTF-8"?-->
<svg width="32px" height="32px" viewBox="0 0 32 32" version="1.1" xmlns="http://www.w3.org/2000/svg" xmlns:xlink="http://www.w3.org/1999/xlink">
    <title>1844.商圈</title>
    <g id="1844.商圈" stroke="none" stroke-width="1" fill="none" fill-rule="evenodd">
        <g id="shangquanguanli" transform="translate(2.000000, 2.000000)" fill="#474444" fill-rule="nonzero">
            <path d="M2.23203207,8.02875391 L2.72063515,8.03170703 L13.0894439,8.08335937 L14.3497112,8.08882812 L14.8661774,8.09148047 L14.0166659,7.25484375 L13.6113789,6.85557031 L7.99792579,1.31517969 C7.99792579,1.31517969 6.12136074,2.10533203 4.10031201,4.10148047 C3.0952427,5.09170703 2.4124726,6.06528125 1.97932237,6.79522266 C1.97653332,6.79801172 1.97653332,6.80096484 1.97371693,6.80348047 C1.9626701,6.82546484 1.94880689,6.84463281 1.93773273,6.86355469 C1.92386951,6.88846484 1.90986958,6.91310156 1.89600637,6.93453906 C1.88498699,6.95391431 1.87387625,6.97323744 1.8626745,6.99250781 C1.84881129,7.01405469 1.83776446,7.03871875 1.82390125,7.06097656 C1.81269037,7.07987109 1.80164355,7.09906641 1.79338577,7.11809766 C1.78217489,7.13994531 1.76833902,7.16192969 1.75726486,7.18082422 C1.74697956,7.19857121 1.73772217,7.21689436 1.72953843,7.23570312 C1.72114394,7.24915625 1.71288617,7.26580859 1.70449168,7.27980859 C1.46020381,7.73915625 1.3546301,8.02320312 1.3546301,8.02320312 L2.23203207,8.02875391 Z M20.6238407,13.9628398 L21.1124438,13.4815078 L26.7229437,7.94672266 C26.7229437,7.94672266 25.9234164,6.09535938 23.8997153,4.0989375 C22.8974624,3.10928516 21.9091821,2.43630078 21.1706857,2.00689453 C21.1678966,2.00437891 21.1650802,2.00437891 21.1624279,2.0015625 C21.1418454,1.9900493 21.1214534,1.97819874 21.1012602,1.96601563 C21.0763172,1.95225883 21.0513524,1.93854137 21.0263661,1.92486328 C21.0068974,1.91408984 20.9875928,1.90315234 20.9681242,1.89224219 C20.9458665,1.87824219 20.9209564,1.86760547 20.8986714,1.85387891 C20.8792027,1.84283203 20.8597614,1.83189453 20.8404295,1.82391016 C20.8181718,1.81269922 20.7959141,1.799 20.7765821,1.78819922 C20.7571135,1.77728906 20.7404612,1.76903125 20.7208559,1.75809375 C20.7071294,1.74983594 20.6904771,1.74185156 20.6766139,1.73345703 C20.2101318,1.49294141 19.9242543,1.38892578 19.9242543,1.38892578 L19.8632233,12.9700703 L19.8576179,14.2173281 L19.8548288,14.7230234 L20.6238407,13.9628398 L20.6238407,13.9628398 Z M9.60821871,18.0291562 L9.24731032,17.6682461 L9.24731032,27.2505898 C9.24731032,27.2505898 11.1405276,28 14.000041,28 C15.4186552,28 16.6012393,27.7894258 17.428493,27.5757891 C17.4312821,27.5757891 17.4340985,27.5732734 17.4395672,27.5732734 C17.4618249,27.5678047 17.4840826,27.5620625 17.5062036,27.5567578 C17.53393,27.5483633 17.5617932,27.543168 17.5896563,27.5352109 C17.6117773,27.5294688 17.6338983,27.524 17.656156,27.5157422 C17.681066,27.5077578 17.7061401,27.5022891 17.7310501,27.4940313 C17.7533078,27.4882891 17.7727765,27.4831211 17.7922178,27.4745625 C17.8171278,27.4668516 17.8393855,27.4611094 17.8644596,27.4531523 C17.8837916,27.4474102 17.9032329,27.4422422 17.9227015,27.4365 C17.9392171,27.4310313 17.9558694,27.4257266 17.9726857,27.4227734 C18.475152,27.2669414 18.7555608,27.1413789 18.7555608,27.1413789 L18.1392903,26.5260625 L17.7950342,26.1840469 L10.4993198,18.9155039 L9.60821871,18.0291562 L9.60821871,18.0291562 Z M27.5696662,10.6158281 C27.5696662,10.6130391 27.5668771,10.6103594 27.5668771,10.6075703 C27.5614084,10.5854492 27.5558303,10.5637383 27.5502249,10.5420547 C27.5418304,10.5146016 27.5363616,10.4871758 27.5281039,10.4598867 C27.5228689,10.4385641 27.5163678,10.4175725 27.5086352,10.3970234 C27.5002407,10.3721133 27.494772,10.3446602 27.4863775,10.3201602 C27.4809088,10.2983125 27.4753307,10.279418 27.4669089,10.26025 C27.4586511,10.2354766 27.4530456,10.2137656 27.4446511,10.1891289 C27.4391824,10.1699609 27.433741,10.1507656 27.4253192,10.1315977 C27.4197138,10.1153555 27.4142724,10.0989766 27.4086669,10.0821875 C27.2503201,9.58742969 27.1226527,9.31415625 27.1226527,9.31415625 L18.4277928,17.8105977 L17.8948111,18.3326719 L17.5284339,18.6915039 L27.2392459,18.6915039 C27.2392459,18.6915039 28,16.8233242 28,14.0012031 C28,12.6010391 27.7862276,11.4360859 27.5696662,10.6158281 L27.5696662,10.6158281 Z M0,14.0012031 C0,15.4012031 0.213772394,16.5664297 0.43036118,17.3866875 C0.43036118,17.3893398 0.433013511,17.3921562 0.433013511,17.3978984 C0.438618952,17.4193086 0.444060332,17.4414297 0.449665773,17.4634141 C0.458060263,17.4908672 0.463528987,17.5177461 0.471923477,17.5451719 C0.4773922,17.5671562 0.482970298,17.5892773 0.491392132,17.6106875 C0.496860855,17.6355977 0.505255345,17.6600977 0.513513118,17.6847344 C0.519118559,17.7064453 0.527376331,17.7285664 0.532981773,17.7477344 C0.538587214,17.7697187 0.546844986,17.794082 0.552450427,17.8160664 C0.557919151,17.8349609 0.563497249,17.8544297 0.571919082,17.8761406 C0.577387806,17.8926562 0.582965903,17.9090352 0.588571345,17.9255508 C0.74678151,18.4204453 0.874448855,18.6938828 0.874448855,18.6938828 L1.49632472,18.0868516 L1.84604958,17.7451094 L9.21397845,10.5475234 L10.1105483,9.67225 L10.4770621,9.31412508 L0.760644723,9.31412508 C0.760644723,9.31103906 0,11.1790547 0,14.0012031 L0,14.0012031 Z M17.7783273,9.36044922 L18.752717,10.331207 L18.752717,0.749 C18.752717,0.749 16.859363,0 14.0000137,0 C12.5813995,0 11.3986787,0.210410156 10.5714249,0.423636719 C10.5686359,0.423636719 10.5659562,0.426152344 10.5631672,0.426152344 C10.5409095,0.431894531 10.5159994,0.4370625 10.4937144,0.445621094 C10.465988,0.453605469 10.4382615,0.459347656 10.4132148,0.467332031 C10.3909571,0.472800781 10.3688361,0.478242188 10.3493674,0.4865 C10.3244574,0.494484375 10.2965943,0.500226563 10.2744733,0.508210938 C10.2522156,0.513953125 10.2327469,0.519121094 10.2133056,0.527679688 C10.1883956,0.535664063 10.1661379,0.54140625 10.1412005,0.549226563 C10.1217318,0.554832031 10.1022905,0.560273438 10.0828219,0.566015625 C10.0663063,0.571484375 10.0496541,0.576925781 10.0329744,0.579167969 C9.53037143,0.735273438 9.25009936,0.861136719 9.25009936,0.861136719 L9.86636979,1.47615234 L10.2106259,1.81816797 L17.5033598,9.08671094 L17.7783273,9.36044922 Z M25.7679953,19.9737617 L25.6180429,19.9737617 L14.9105561,19.9213984 L13.6501248,19.9162305 L13.1337952,19.9134414 L13.4973833,20.2718359 L14.3886211,21.1524414 L20.0019101,26.6897422 C20.0019101,26.6897422 21.8786119,25.8995898 23.8996606,23.9062578 C24.9045932,22.9163047 25.5875001,21.9400781 26.0205136,21.2125156 C26.0233026,21.2097266 26.0233026,21.2067734 26.026119,21.2042578 C26.0371658,21.1850898 26.0483767,21.1656211 26.0594509,21.1467266 C26.0733141,21.1222266 26.0871773,21.0975898 26.1010405,21.0729531 C26.1122514,21.0537852 26.1232982,21.0347266 26.1343724,21.0156953 C26.1482356,20.9937109 26.1594465,20.9692109 26.1732824,20.9473633 C26.1843292,20.9278945 26.192751,20.909 26.2037978,20.8899688 C26.2148447,20.8678477 26.2287079,20.8458633 26.2399188,20.8269688 C26.2509656,20.8078008 26.2593874,20.7912578 26.2704342,20.7720898 C26.278692,20.7586367 26.2870865,20.7421211 26.2953443,20.7285586 C26.5397962,20.2692109 26.6452058,19.9847266 26.6452058,19.9847266 L25.7679953,19.9737617 L25.7679953,19.9737617 Z M1.27694689,20.0555195 C1.27694689,20.0555195 2.07647424,21.9070195 4.10033935,23.9033047 C5.10245555,24.8932578 6.0908726,25.5659414 6.82923228,25.9953477 C6.83202133,25.9981367 6.83483772,25.9981367 6.83762677,26.0008164 C6.85974776,26.0115898 6.87921641,26.0253164 6.89865772,26.0365273 C6.92356776,26.0499805 6.94864185,26.0636797 6.97089956,26.0776797 C6.99302054,26.0883164 7.0124892,26.0993906 7.03193051,26.1103008 C7.05405149,26.1237539 7.0763092,26.1349375 7.0985669,26.1486641 C7.11789884,26.1594375 7.13734015,26.1706484 7.1568088,26.1786328 C7.17906651,26.189543 7.20118749,26.2032695 7.22065615,26.2144805 C7.2401248,26.2249805 7.25677707,26.233375 7.27624572,26.2441484 C7.29010894,26.2526797 7.3067612,26.2605273 7.32062441,26.2687852 C7.78696979,26.5093008 8.07298402,26.6137539 8.07298402,26.6137539 L8.07845274,25.7516328 L8.08124179,25.4293594 L8.13962041,14.1927734 L8.14240946,13.7906836 L8.14506179,13.2847148 L1.27694689,20.0555195 Z" id="形状" fill="#666666"></path>
        </g>
    </g>
</svg>