<!--?xml version="1.0" encoding="UTF-8"?-->
<svg width="32px" height="32px" viewBox="0 0 32 32" version="1.1" xmlns="http://www.w3.org/2000/svg" xmlns:xlink="http://www.w3.org/1999/xlink">
    <title>1846.商圈运营</title>
    <g id="1846.商圈运营" stroke="none" stroke-width="1" fill="none" fill-rule="evenodd">
        <g id="yunying-2" transform="translate(3.000000, 3.000000)" fill="#474444" fill-rule="nonzero">
            <path d="M2.17112022,12.9253201 C2.17112022,11.4412096 2.48125517,9.97742926 3.08448468,8.61868875 L3.28896926,8.61868875 C5.08161741,8.62207713 6.54027409,7.17862712 6.54368216,5.39295069 C6.54709024,3.61066264 5.09524972,2.16043586 3.29919349,2.15704153 C1.50654534,2.1536591 0.0478886673,3.59710912 0.0444805909,5.38278555 C0.0444805909,6.28409471 0.419368988,7.14474331 1.08735195,7.75804015 C-1.78224832,14.2976142 1.223675,21.9146931 7.80126233,24.7677094 C7.82852694,24.7812629 7.85919963,24.791428 7.88646424,24.8049815 C7.90009654,24.0595379 8.06709228,23.3276477 8.37722723,22.6499717 C4.59085442,20.8744604 2.1745283,17.0862512 2.17112022,12.9253201 Z M7.95121769,3.40397144 C11.7103259,1.42515733 16.2907805,1.82837459 19.6443276,4.43403906 C19.1194838,6.13839436 20.0873775,7.94440107 21.8016399,8.46621164 C23.5159023,8.98802221 25.332407,8.0257222 25.8572508,6.3213669 C26.3820945,4.61701159 25.4142008,2.81100488 23.6999384,2.28919431 C22.7661255,2.00457037 21.7539268,2.1536591 20.9428047,2.69579995 C16.8462969,-0.448616984 11.2638679,-0.878941285 6.73112636,1.59796473 L6.77883943,1.63862529 C7.28323473,2.14349396 7.68197966,2.74323728 7.95121769,3.40397144 Z M25.5675643,9.64875637 C24.9507024,10.0418085 24.2554549,10.3061022 23.5295346,10.4213071 C24.8825409,16.0460184 21.5221777,21.7283322 15.9193002,23.2903755 C15.0979538,21.7012252 13.1383099,21.0777632 11.5433301,21.8943628 C9.94494234,22.7109625 9.3178563,24.6592812 10.1392027,26.2450432 C10.9605491,27.8341935 12.920193,28.4576555 14.5151727,27.6410559 C15.3808241,27.197178 16.0045021,26.3907435 16.2089866,25.441997 C23.1614624,23.6834277 27.3636205,16.6525385 25.5948289,9.74363102 C25.5811966,9.70974722 25.5743804,9.67925179 25.5675643,9.64875637 L25.5675643,9.64875637 Z" id="形状" fill="#666666"></path>
        </g>
    </g>
</svg>