<!--?xml version="1.0" encoding="UTF-8"?-->
<svg width="32px" height="32px" viewBox="0 0 32 32" version="1.1" xmlns="http://www.w3.org/2000/svg" xmlns:xlink="http://www.w3.org/1999/xlink">
    <title>1036.查询条件</title>
    <g id="1036.查询条件" stroke="none" stroke-width="1" fill="none" fill-rule="evenodd">
        <g id="编组" transform="translate(2.000000, 2.000000)" fill="#000000" fill-rule="nonzero">
            <path d="M22.4104443,21.0918537 L27.6642909,26.3457004 C27.2379387,26.7982139 26.7982139,27.2379387 26.3457004,27.6642909 L21.0918537,22.4104443 C17.6121868,25.190374 12.5670192,24.7681558 9.59780939,21.4485347 C6.62859958,18.1289136 6.76948445,13.0680702 9.91877732,9.91877732 C13.0680702,6.76948445 18.1289136,6.62859958 21.4485347,9.59780939 C24.7681558,12.5670192 25.190374,17.6121868 22.4104443,21.0918537 L22.4104443,21.0918537 Z M26.1405449,11.2257377 L26.1405449,2.75654434 C26.1405449,2.06274562 25.7395591,1.85759011 25.0588157,1.85759008 L3.15006993,1.8986212 C2.47119161,1.8986212 1.84453473,2.50476255 1.84453473,3.19856123 L1.84453473,24.7492173 C1.84453473,25.441151 2.51035768,26.1480051 3.189236,26.1480051 L11.1343502,26.1480051 L11.1660561,28.0093252 L3.00459602,28.0093252 C1.34843137,28.0093252 0,26.6012123 0,24.9114767 L0,3.06241256 C0,1.37267701 1.34843137,-6.21186532e-16 3.00273096,-6.21186532e-16 L25.2061547,-6.21186532e-16 C26.8641844,-6.21186532e-16 28,1.06680875 28,2.75654434 L28,11.2238726 L26.1386798,11.2238726 L26.1405449,11.2257377 Z M15.8529274,22.3806035 C19.4580634,22.3806035 22.3806035,19.4580634 22.3806035,15.8529274 C22.3806035,12.2477915 19.4580634,9.32525143 15.8529274,9.32525143 C12.2477915,9.32525143 9.32525143,12.2477915 9.32525143,15.8529274 C9.32525143,19.4580634 12.2477915,22.3806035 15.8529274,22.3806035 Z" id="形状" fill="#346bf6"></path>
        </g>
    </g>
</svg>