<!--?xml version="1.0"?-->
<svg xmlns="http://www.w3.org/2000/svg" class="icon" style="vertical-align:middle;fill:currentColor;overflow:hidden;" viewBox="0 0 1024 1024" version="1.1" width="200px" height="200px"><path d="M703.64474 70C775.785625 70 834.09142 129.966386 834.09142 203.747909L834.09142 357.387109L829.09142 362.387109L776.271765 362.387109L771.271765 357.387109L771.271765 203.747909C771.271765 164.477086 740.88132 132.819655 703.64474 132.819655L165.446681 132.819655C128.210099 132.819655 97.819655 164.477086 97.819655 203.747909L97.819655 786.78668C97.819655 826.057505 128.210099 857.714935 165.446681 857.714935L497.122618 857.714935L502.12262 862.714935L502.12262 915.53459L497.122618 920.53459L165.446681 920.53459C93.305795 920.53459 35 860.5682 35 786.78668L35 203.747909C35 129.966387 93.305795 70 165.446681 70L703.64474 70zM720.457575 398.152988C864.70072 398.152988 981.6329 515.085165 981.6329 659.328315C981.6329 803.571465 864.70072 920.50364 720.457575 920.50364C576.21442 920.50364 459.282246 803.571465 459.282246 659.328315C459.282246 515.085165 576.21442 398.152988 720.457575 398.152988zM720.457575 460.972643C610.90876 460.972643 522.1019 549.7795 522.1019 659.328315C522.1019 768.87713 610.90876 857.683985 720.457575 857.683985C830.006385 857.683985 918.813245 768.87713 918.813245 659.328315C918.813245 549.7795 830.006385 460.972643 720.457575 460.972643zM736.212035 516.97926L741.212035 521.97926L741.2 663.85L857.444995 663.901655L862.44372 668.901655L862.44372 721.72131L857.44372 726.72131L683.94285 726.72131L678.94285 721.725525L678.9 695.8L678.39238 695.311485L678.39238 521.97926L683.39238 516.97926L736.212035 516.97926zM414.559467 653.169945L419.559467 658.169945L419.559467 704.902955L414.559467 709.902955L232.269758 709.902955L227.269759 704.902955L227.269759 658.169945L232.269758 653.169945L414.559467 653.169945zM350.02369 223.879075L355.02369 228.879075L355 334.55L461.31928 334.561403L466.31928 339.561403L466.31928 380.610432L461.31928 385.610432L355 385.6L355.02369 492.97735L350.02369 497.97735L306.862354 497.97735L301.862354 492.97735L301.85 385.6L197.221005 385.610432L192.221005 380.610432L192.221005 339.561403L197.221005 334.561403L301.85 334.55L301.862354 228.879075L306.862354 223.879075L350.02369 223.879075z" fill="#666666"></path></svg>
