<!--?xml version="1.0" encoding="UTF-8"?-->
<svg width="32px" height="32px" viewBox="0 0 32 32" version="1.1" xmlns="http://www.w3.org/2000/svg" xmlns:xlink="http://www.w3.org/1999/xlink">
    <title>125.计算器</title>
    <g id="125.计算器" stroke="none" stroke-width="1" fill="none" fill-rule="evenodd">
        <g id="计算器" transform="translate(6.000000, 4.000000)" fill="#000000" fill-rule="nonzero">
            <path d="M0,0.857142857 C0,0.383755941 0.391750856,0 0.875,0 L20.125,0 C20.6082491,0 21,0.383755941 21,0.857142857 L21,23.1428571 C21,23.616244 20.6082491,24 20.125,24 L0.875,24 C0.391750856,24 0,23.616244 0,23.1428571 L0,0.857142857 Z M1.75,1.71428571 L1.75,22.2857143 L19.25,22.2857143 L19.25,1.71428571 L1.75,1.71428571 Z M4.375,4.28571429 L16.625,4.28571429 L16.625,6.85714286 L4.375,6.85714286 L4.375,4.28571429 Z M4.375,9.42857143 L6.125,9.42857143 L6.125,11.1428571 L4.375,11.1428571 L4.375,9.42857143 Z M9.625,9.42857143 L11.375,9.42857143 L11.375,11.1428571 L9.625,11.1428571 L9.625,9.42857143 Z M14.875,9.42857143 L16.625,9.42857143 L16.625,11.1428571 L14.875,11.1428571 L14.875,9.42857143 Z M14.875,13.7142857 L16.625,13.7142857 L16.625,15.4285714 L14.875,15.4285714 L14.875,13.7142857 Z M14.875,18 L16.625,18 L16.625,19.7142857 L14.875,19.7142857 L14.875,18 Z M9.625,13.7142857 L11.375,13.7142857 L11.375,15.4285714 L9.625,15.4285714 L9.625,13.7142857 Z M9.625,18 L11.375,18 L11.375,19.7142857 L9.625,19.7142857 L9.625,18 Z M4.375,13.7142857 L6.125,13.7142857 L6.125,15.4285714 L4.375,15.4285714 L4.375,13.7142857 Z M4.375,18 L6.125,18 L6.125,19.7142857 L4.375,19.7142857 L4.375,18 Z" id="形状" fill="#666666"></path>
        </g>
    </g>
</svg>