<!--?xml version="1.0" encoding="UTF-8"?-->
<svg width="32px" height="32px" viewBox="0 0 32 32" version="1.1" xmlns="http://www.w3.org/2000/svg" xmlns:xlink="http://www.w3.org/1999/xlink">
    <title>458.类别@1x</title>
    <g id="458.类别" stroke="none" stroke-width="1" fill="none" fill-rule="evenodd">
        <g id="编组" transform="translate(4.000000, 6.000000)" fill="#000000" fill-rule="nonzero">
            <path d="M9.26018754,0 C9.6419534,0 9.97770169,0.252483839 10.0836569,0.619251736 L11.1428571,4.28571429 L23.1428572,4.28571429 C23.6162441,4.28571429 24,4.66947021 24,5.14285718 L24,20.5714286 L0.857142863,20.5714286 C0.383755922,20.5714286 0,20.1876726 0,19.7142857 L0,0.857142863 C0,0.383755922 0.383755922,0 0.857142863,0 L9.26018754,0 Z M6.40521043,15.3124643 C6.19618975,15.3124643 6.02234769,15.4630819 5.98629664,15.6617045 L5.97943685,15.7382379 L5.97943685,18.0342031 C5.97943685,18.2693514 6.17006218,18.4599767 6.40521043,18.4599767 C6.61423108,18.4599767 6.78807317,18.3093592 6.82412421,18.1107365 L6.830984,18.0342031 L6.830984,15.7382379 C6.830984,15.5030896 6.64035867,15.3124643 6.40521043,15.3124643 Z M9.78738684,14.4764055 C9.57462404,14.4764055 9.40036626,14.627023 9.36426892,14.8256457 L9.35740341,14.9021791 L9.35740341,18.034207 C9.35740341,18.2432277 9.50802098,18.4170697 9.70664366,18.4531207 L9.78317698,18.4599806 C9.99593978,18.4599806 10.1701977,18.309363 10.2062949,18.1107403 L10.2131604,18.034207 L10.2131604,14.9021791 C10.2131604,14.6670308 10.0225351,14.4764055 9.78738684,14.4764055 Z M13.5708148,13.8680423 C13.3617943,13.8680423 13.1879522,14.0186599 13.1519011,14.2172826 L13.1450413,14.2938159 L13.1450413,18.034207 C13.1450413,18.2693552 13.3356666,18.4599806 13.5708148,18.4599806 C13.7798355,18.4599806 13.9536776,18.309363 13.9897287,18.1107403 L13.9965884,18.034207 L13.9965884,14.2938159 C13.9965884,14.0586676 13.8059631,13.8680423 13.5708148,13.8680423 Z M17.3588451,12.164948 C17.1498245,12.164948 16.9759824,12.3155656 16.9399313,12.5141883 L16.9330715,12.5907216 L16.9330715,18.034207 C16.9330715,18.2693552 17.1236969,18.4599806 17.3588451,18.4599806 C17.5678658,18.4599806 17.7417078,18.309363 17.7777589,18.1107403 L17.7846187,18.034207 L17.7846187,12.5907216 C17.7846187,12.3555733 17.5939934,12.164948 17.3588451,12.164948 Z M18.6747865,6.22554523 L15.5074262,6.22554523 L16.8509967,7.60286841 L13.493473,10.617085 L10.9976443,7.57122467 L5.20505129,12.5870222 L5.20505129,13.9278502 L10.9976443,8.91212104 L13.493473,11.9576736 L17.5491536,8.31784102 L18.6747865,9.47203773 L18.6747865,6.22554523 Z M20.6032986,1.77861451 C21.0766856,1.77861451 21.4604415,2.16237044 21.4604415,2.63575738 C21.4604415,2.65586313 21.4597341,2.67596266 21.4583205,2.69601868 L21.4247933,3.17172227 L12.2500903,3.17172227 L11.8253259,1.77861451 L20.6032986,1.77861451 Z" id="形状" fill="#346bf6"></path>
        </g>
    </g>
</svg>