<!--?xml version="1.0" encoding="UTF-8"?-->
<svg width="32px" height="32px" viewBox="0 0 32 32" version="1.1" xmlns="http://www.w3.org/2000/svg" xmlns:xlink="http://www.w3.org/1999/xlink">
    <title>1481-手机</title>
    <g id="1481-手机" stroke="none" stroke-width="1" fill="none" fill-rule="evenodd">
        <g id="编组" transform="translate(8.000000, 4.000000)" fill="#000000" fill-rule="nonzero">
            <path d="M14.6639733,22.6666472 L14.6666399,1.33201947 L1.33599756,1.3333528 L1.33333091,22.6679805 L14.6639733,22.6666472 Z M14.7049212,1.3470563 L14.7049212,1.3868785 L14.7049212,1.3470563 Z M0,1.32401948 C0,0.593354133 0.607998879,1.09052318e-05 1.33599756,1.09052318e-05 L14.6639733,1.09052318e-05 C15.3983629,-0.00293076069 15.9962974,0.589633052 15.9999708,1.32401948 L15.9999708,22.6759805 C15.9999708,23.4066458 15.3919719,23.9999891 14.6639733,23.9999891 L1.33599756,23.9999891 C0.601607877,24.0029308 0.00367339946,23.4103669 0,22.6759805 L0,1.32401948 L0,1.32401948 Z M7.99998541,21.3333163 C8.73636373,21.3333163 9.33331631,20.7363637 9.33331631,19.9999854 C9.33331631,19.2636071 8.73636373,18.6666545 7.99998541,18.6666545 C7.26360708,18.6666545 6.6666545,19.2636071 6.6666545,19.9999854 C6.6666545,20.7363637 7.26360708,21.3333163 7.99998541,21.3333163 L7.99998541,21.3333163 Z M5.33332361,3.33334914 C5.33332361,3.69068182 5.62665642,4.00001459 5.98665574,4.00001459 L10.0133151,4.00001459 C10.3799811,4.00001459 10.6666472,3.70134847 10.6666472,3.33334914 C10.6667198,2.97030473 10.3762869,2.67394458 10.0133151,2.66668369 L5.98665574,2.66668369 C5.81127288,2.66737342 5.64346925,2.73826345 5.52071283,2.86352511 C5.39795641,2.98878677 5.33047048,3.15798813 5.33332361,3.33334914 L5.33332361,3.33334914 Z" id="形状" fill="#346bf6"></path>
        </g>
    </g>
</svg>