<!--?xml version="1.0" encoding="UTF-8"?-->
<svg width="32px" height="32px" viewBox="0 0 32 32" version="1.1" xmlns="http://www.w3.org/2000/svg" xmlns:xlink="http://www.w3.org/1999/xlink">
    <title>1966.认证申诉</title>
    <g id="1966.认证申诉" stroke="none" stroke-width="1" fill="none" fill-rule="evenodd">
        <path d="M25.5,19 C28.5375661,19 31,21.4624339 31,24.5 C31,27.5375661 28.5375661,30 25.5,30 C22.4624339,30 20,27.5375661 20,24.5 C20,21.4624339 22.4624339,19 25.5,19 Z M9.185,4 L9.18518519,5 C9.18518519,6.0543618 10.001063,6.91816512 11.0359228,6.99451426 L11.1851852,7 L19.6296296,7 C20.7341991,7 21.6296296,6.1045695 21.6296296,5 L21.629,4 L25.8148148,4 C26.3670996,4 26.8148148,4.44771525 26.8148148,5 L26.8144511,18.1329741 C26.3899312,18.0457922 25.9503133,18 25.5,18 C21.9101491,18 19,20.9101491 19,24.5 C19,26.2469007 19.6891263,27.8328473 20.8103588,29.0008195 L6,29 C5.44771525,29 5,28.5522847 5,28 L5,5 C5,4.44771525 5.44771525,4 6,4 L9.185,4 Z M25.5,21 L22.8535534,23.6464466 C22.7597852,23.7402148 22.7071068,23.8673918 22.7071068,24 C22.7071068,24.2761424 22.9309644,24.5 23.2071068,24.5 L24.625,24.5 L24.625,28 L26.375,28 L26.375,24.5 L27.7928932,24.5 C27.9255015,24.5 28.0526784,24.4473216 28.1464466,24.3535534 C28.3417088,24.1582912 28.3417088,23.8417088 28.1464466,23.6464466 L25.5,21 Z M16,18 L9,18 C8.44771525,18 8,18.4477153 8,19 C8,19.5522847 8.44771525,20 9,20 L16,20 C16.5522847,20 17,19.5522847 17,19 C17,18.4477153 16.5522847,18 16,18 Z M21,12 L9,12 C8.44771525,12 8,12.4477153 8,13 C8,13.5522847 8.44771525,14 9,14 L21,14 C21.5522847,14 22,13.5522847 22,13 C22,12.4477153 21.5522847,12 21,12 Z M20.6296296,3 L20.6296296,5 C20.6296296,5.55228475 20.1819144,6 19.6296296,6 L11.1851852,6 C10.6329004,6 10.1851852,5.55228475 10.1851852,5 L10.1851852,3 L20.6296296,3 Z" id="形状结合" fill="#666666"></path>
    </g>
</svg>