<!--?xml version="1.0"?-->
<svg xmlns="http://www.w3.org/2000/svg" class="icon" style="vertical-align:middle;fill:currentColor;overflow:hidden;" viewBox="0 0 1024 1024" version="1.1" width="200px" height="200px"><path d="M218.75 193.75L218.75 281.25L781.25 281.25L781.25 193.75L828.125 193.75C854.013347 193.75 875 213.337542 875 237.5L875 893.75C875 917.912456 854.013347 937.5 828.125 937.5L171.875 937.5C145.986653 937.5 125 917.912456 125 893.75L125 237.5C125 213.337542 145.986653 193.75 171.875 193.75L218.75 193.75zM552.11205 417.0613L430.800769 511.296284L334.028916 510.933266C328.464722 510.933266 323.103675 512.985131 319.163156 516.662947C315.188947 520.340766 312.939488 525.344409 312.939488 530.585288L312.5 688.069663C312.5 693.310078 314.698425 698.329909 318.656284 702.023447C322.596803 705.748434 327.974697 707.816484 333.589922 707.816484L431.427053 707.816484L552.129888 801.704175C555.985681 804.703125 560.805669 806.25 565.625656 806.25C568.669859 806.25 571.714059 805.634488 574.572459 804.387275C581.979822 801.151556 586.715578 794.206109 586.715578 786.566072L586.715578 432.182756C586.715578 424.558903 581.980319 417.613456 574.555612 414.36155C567.147263 411.110569 558.4036 412.183903 552.11205 417.0613zM707.227122 504.886281C692.194091 498.247169 674.286859 504.233497 666.973466 518.204191C660.416403 530.813388 664.810141 545.774203 676.616878 553.742759L680.822159 556.127153C684.418122 557.868853 689.479206 561.419794 694.693913 567.477163C703.381097 577.568144 708.590138 590.814353 708.590138 607.930431C708.590138 626.539922 703.639972 640.782575 695.455922 651.414419C691.6098 656.410891 687.842084 659.728622 684.924447 661.661859L678.757622 665.207713C667.112138 673.102128 662.844278 688.212744 669.616297 700.853847C674.866713 710.610275 685.442525 716.582206 696.9094 716.582206C701.594925 716.582206 706.249859 715.576016 710.504063 713.591372C741.079197 699.101284 769.518994 665.993947 769.518994 607.930894C769.518994 551.569888 739.318781 519.100587 707.227122 504.886281zM500 62.5C538.832522 62.5 570.3125 91.881313 570.3125 128.125L570.3125 150L687.5 150C713.388347 150 734.375 169.587542 734.375 193.75L734.375 237.5L265.625 237.5L265.625 193.75C265.625 169.587542 286.611653 150 312.5 150L429.6875 150L429.6875 128.125C429.6875 91.881313 461.167478 62.5 500 62.5z" fill="#666666"></path></svg>
