<!--?xml version="1.0" encoding="UTF-8"?-->
<svg width="32px" height="32px" viewBox="0 0 32 32" version="1.1" xmlns="http://www.w3.org/2000/svg" xmlns:xlink="http://www.w3.org/1999/xlink">
    <title>796.商旅</title>
    <g id="796.商旅" stroke="none" stroke-width="1" fill="none" fill-rule="evenodd">
        <g id="编组" transform="translate(2.000000, 4.000000)" fill="#000000" fill-rule="nonzero">
            <path d="M28,12.1115556 L28,23.3333333 C28,24.1924429 27.3035541,24.8888889 26.4444444,24.8888889 L1.55555556,24.8888889 C0.696445945,24.8888889 5.75671198e-16,24.1924429 5.75671198e-16,23.3333333 L5.75671198e-16,12.082 L5.75671198e-16,12.4444444 L10.8888889,12.4444444 L10.8888889,15.5555556 L17.1111111,15.5555556 L17.1111111,12.4444444 L28,12.4444444 L28,12.1115556 Z M17.1111111,10.8888889 L17.1111111,9.33333333 L10.8888889,9.33333333 L10.8888889,10.8888889 L2.61955556,10.8888889 C1.56333333,10.8888889 0.600444444,10.5933333 5.75671198e-16,9.99911111 L5.75671198e-16,6.22222222 C5.75671198e-16,5.36311261 0.696445945,4.66666667 1.55555556,4.66666667 L9.33333333,4.66666667 L9.33333333,3.11111111 C9.33333333,1.39289189 10.7262252,1.1513424e-15 12.4444444,1.1513424e-15 L15.5555556,1.1513424e-15 C17.2737748,1.1513424e-15 18.6666667,1.39289189 18.6666667,3.11111111 L18.6666667,4.66666667 L26.4444444,4.66666667 C27.3035541,4.66666667 28,5.36311261 28,6.22222222 L28,10.052 C27.44,10.612 26.5533333,10.8888889 25.5297778,10.8888889 L17.1111111,10.8888889 Z M17.1111111,4.66666667 L17.1111111,3.11111111 C17.1111111,2.69855213 16.9472227,2.30289048 16.6554994,2.01116723 C16.3637762,1.71944397 15.9681145,1.55555556 15.5555556,1.55555556 L12.4444444,1.55555556 C11.5853348,1.55555556 10.8888889,2.2520015 10.8888889,3.11111111 L10.8888889,4.66666667 L17.1111111,4.66666667 L17.1111111,4.66666667 Z" id="形状" fill="#346bf6"></path>
        </g>
    </g>
</svg>