<!--?xml version="1.0" encoding="UTF-8"?-->
<svg width="32px" height="32px" viewBox="0 0 32 32" version="1.1" xmlns="http://www.w3.org/2000/svg" xmlns:xlink="http://www.w3.org/1999/xlink">
    <title>521.支票信息@1x</title>
    <g id="521.支票信息" stroke="none" stroke-width="1" fill="none" fill-rule="evenodd">
        <g id="编组" transform="translate(4.000000, 8.000000)" fill="#000000" fill-rule="nonzero">
            <path d="M23.9991406,0 L24,5.14267315 C23.9997136,5.14267306 23.9994271,5.14267298 23.9991406,5.14267298 C22.5632517,5.14267298 21.3992337,6.29389958 21.3992337,7.71400947 C21.3992337,9.13411937 22.5632517,10.285346 23.9991406,10.285346 L23.9991406,10.2844889 L23.9991406,15.4280189 L0,15.4280189 L0,10.285346 C1.43588893,10.285346 2.59990691,9.13411937 2.59990691,7.71400947 C2.59990691,6.29389958 1.43588893,5.14267298 0,5.14267298 L0,0 L23.9991406,0 Z M9.55646,2.34251552 C9.39208432,2.1413937 9.11327646,2.08946641 8.89108959,2.19899487 L8.89108959,2.19899487 L8.8291124,2.23534852 L8.78418387,2.27549966 C8.60978187,2.45280646 8.59506584,2.72878328 8.75830558,2.92918211 L8.75830558,2.92918211 L11.8487186,6.7223307 L8.97435931,6.72281035 L8.90187686,6.72943332 C8.7372808,6.75984204 8.60749336,6.89144389 8.57761838,7.050917 L8.57761838,7.050917 L8.57112164,7.12075527 L8.57746959,7.19228634 C8.61086857,7.37792704 8.77238485,7.51870019 8.97435931,7.51870019 L8.97435931,7.51870019 L11.7775782,7.5185879 L11.7775782,9.11024519 L8.99522477,9.11047994 L8.91899168,9.1176124 C8.74587866,9.15036026 8.60937542,9.2920853 8.57795454,9.46382557 L8.57795454,9.46382557 L8.57112164,9.53903602 L8.57797365,9.61606951 C8.61397914,9.81599022 8.78754153,9.9675921 8.99522477,9.9675921 L8.99522477,9.9675921 L11.7775782,9.96735735 L11.7775968,12.6622779 L11.7844088,12.7391488 C11.8157498,12.9137101 11.9520762,13.0513554 12.1274777,13.0830393 L12.1274777,13.0830393 L12.1521363,13.0855314 L12.17657,13.0832953 C12.375883,13.0483654 12.5270239,12.8791335 12.5270239,12.6622779 L12.5270239,12.6622779 L12.5266943,9.96735735 L15.2676426,9.9675921 L15.3438757,9.96045956 C15.5417192,9.92303352 15.6917457,9.74326975 15.6917457,9.53903602 L15.6917457,9.53903602 L15.6848938,9.46200248 C15.6488883,9.26208174 15.4753259,9.11047994 15.2676426,9.11047994 L15.2676426,9.11047994 L12.5266943,9.11024519 L12.5266943,7.5185879 L15.2885081,7.51870019 L15.3609906,7.51207719 C15.5491003,7.47732438 15.6917457,7.31040092 15.6917457,7.12075527 L15.6917457,7.12075527 L15.6853978,7.0492242 C15.6519988,6.86358347 15.4904825,6.72281035 15.2885081,6.72281035 L15.2885081,6.72281035 L12.5206945,6.7223307 L15.2995734,2.94455286 C15.4570015,2.73047145 15.4286605,2.45184839 15.252998,2.27517695 L15.252998,2.27517695 L15.2077411,2.23620564 L15.1542263,2.20315438 C14.931032,2.08922346 14.6567074,2.15044949 14.5070128,2.35651788 L14.5070128,2.35651788 L12.1828141,5.55599142 L9.55646,2.34251552 Z" id="形状" fill="#346bf6"></path>
        </g>
    </g>
</svg>