<!--?xml version="1.0" encoding="UTF-8"?-->
<svg width="32px" height="32px" viewBox="0 0 32 32" version="1.1" xmlns="http://www.w3.org/2000/svg" xmlns:xlink="http://www.w3.org/1999/xlink">
    <title>1880.CI数据分析</title>
    <g id="1880.CI数据分析" stroke="none" stroke-width="1" fill="none" fill-rule="evenodd">
        <path d="M28.9,4 C29.5075132,4 30,4.49248678 30,5.1 L30,21.4454545 C30,22.0529678 29.5075132,22.5454545 28.9,22.5454545 L20.9627705,22.5454545 L20.9627705,25.8181818 L22.5741205,25.8181818 C22.9980832,25.8181818 23.3843096,26.0618302 23.5668902,26.4444642 L24.3091417,28 L7.69274251,28 L8.43499406,26.4444642 C8.61757463,26.0618302 9.00380098,25.8181818 9.4277637,25.8181818 L11.0391138,25.8181818 L11.0391138,22.5454545 L3.1,22.5454545 C2.49248678,22.5454545 2,22.0529678 2,21.4454545 L2,5.1 C2,4.49248678 2.49248678,4 3.1,4 L28.9,4 Z M16.5,15 L15.5,15 C15.2238504,15 15,15.3321905 15,15.7419891 L15,19.4519606 C15,19.8617592 15.2238504,20.1939497 15.5,20.1939497 L16.5,20.1939497 C16.7761496,20.1939497 17,19.8617592 17,19.4519606 L17,15.7419891 C17,15.3321905 16.7761496,15 16.5,15 Z M11.7772279,16.4755754 L10.7772279,16.4755754 C10.5010782,16.4755754 10.2772279,16.807766 10.2772279,17.2175646 L10.2772279,19.4435449 C10.2772279,19.8533435 10.5010782,20.185534 10.7772279,20.185534 L11.7772279,20.185534 C12.0533775,20.185534 12.2772279,19.8533435 12.2772279,19.4435449 L12.2772279,17.2175775 C12.2772279,16.807766 12.0533775,16.4755754 11.7772279,16.4755754 Z M21.6491184,13.507606 L20.6491184,13.507606 C20.3729688,13.507606 20.1491184,13.8397965 20.1491184,14.2495952 L20.1491184,19.4435449 C20.1491184,19.8533435 20.3729688,20.185534 20.6491184,20.185534 L21.6491184,20.185534 C21.9252681,20.185534 22.1491184,19.8533435 22.1491184,19.4435449 L22.1491184,14.2495952 C22.1491184,13.8397965 21.9252681,13.507606 21.6491184,13.507606 Z M21.605823,7.00195313 L17.4084449,8.05134916 L18.5795703,9.22247458 L16.6567343,11.1453649 C16.483172,11.3189353 16.213748,11.3382244 16.018878,11.2032311 L15.9496293,11.1453732 L14.5580793,9.75384873 C14.3628113,9.55859743 14.0462339,9.55859743 13.850966,9.75384873 L10.5318022,13.0729514 C10.2683796,13.3363692 10.2444285,13.7485786 10.4599515,14.0390535 L10.5317974,14.1222782 C10.821563,14.4120438 11.2913654,14.4120458 11.5811334,14.1222825 L13.8509535,11.8524995 C14.046219,11.657243 14.3627992,11.6572443 14.5580631,11.8525024 L15.2538414,12.5482807 L15.9496197,13.244059 C16.1448884,13.4393061 16.4614626,13.4393109 16.6567373,13.2440698 L17.3525691,12.5482807 L19.6289406,10.2718449 L20.556427,11.1993313 L21.605823,7.00195313 Z" id="形状结合" fill="#666666"></path>
    </g>
</svg>