<!--?xml version="1.0" encoding="UTF-8"?-->
<svg width="32px" height="32px" viewBox="0 0 32 32" version="1.1" xmlns="http://www.w3.org/2000/svg" xmlns:xlink="http://www.w3.org/1999/xlink">
    <title>1848.清分管理</title>
    <g id="1848.清分管理" stroke="none" stroke-width="1" fill="none" fill-rule="evenodd">
        <path d="M27,1.99994543 C27.5522847,1.99994543 28,2.44766068 28,2.99994543 L28.0002351,16.4567743 C27.3241749,16.2677413 26.6113911,16.1666667 25.875,16.1666667 C21.5257576,16.1666667 18,19.6924243 18,24.0416667 C18,26.422384 19.0564304,28.5563589 20.726079,30.0003788 L6,30.000087 C5.44771525,30.000087 5,29.5523717 5,29.000087 L5,2.99994543 C5,2.44766068 5.44771525,1.99994543 6,1.99994543 L27,1.99994543 Z M26,18 C29.3137085,18 32,20.6862915 32,24 C32,27.3137085 29.3137085,30 26,30 C22.6862915,30 20,27.3137085 20,24 C20,20.6862915 22.6862915,18 26,18 Z M27.4000351,20.2711539 L26.0526285,22.6226141 C26.0102634,22.6958357 25.9858893,22.7771957 25.981328,22.8606128 C25.9710195,22.7795139 25.9486844,22.6975999 25.9061619,22.6226141 L24.5793722,20.2711539 C24.4333351,20.012371 24.1086175,19.9231215 23.8543412,20.0730933 C23.6000649,20.2230651 23.5133017,20.5547962 23.6601978,20.8143942 L24.8151791,22.8606128 L23.5794479,22.8606128 C23.2559478,22.8722119 23,23.1244073 23,23.4315653 C23,23.7387233 23.2559478,23.9909186 23.5794479,24.0025177 L25.3860122,24.0025177 L25.3860122,25.1448302 L23.5794479,25.1448302 C23.2559478,25.1564293 23,25.4086246 23,25.7157826 C23,26.0229406 23.2559478,26.275136 23.5794479,26.2867351 L25.3860122,26.2867351 L25.3860122,27.486102 C25.3860122,27.7697444 25.6553218,28 25.9886299,28 C26.321079,28 26.590818,27.7693368 26.590818,27.486102 L26.590818,26.2867351 L28.3973824,26.2867351 C28.7208824,26.275136 28.9768302,26.0229406 28.9768302,25.7157826 C28.9768302,25.4086246 28.7208824,25.1564293 28.3973824,25.1448302 L26.590818,25.1448302 L26.590818,24.0025177 L28.3973824,24.0025177 C28.730261,24.0025177 29,23.74618 29,23.4315653 C29,23.116543 28.730261,22.8606128 28.3973824,22.8606128 L27.1616511,22.8606128 L28.3338133,20.8143942 C28.482857,20.5552038 28.3943757,20.2230651 28.1370928,20.0730933 C27.8785213,19.9227139 27.5495084,20.0119635 27.4000351,20.2711539 Z M17.5,21 L13.5,21 C13.2238576,21 13,21.2238576 13,21.5 L13,22.5 C13,22.7761424 13.2238576,23 13.5,23 L17.5,23 C17.7761424,23 18,22.7761424 18,22.5 L18,21.5 C18,21.2238576 17.7761424,21 17.5,21 Z M10.5,20.9712982 L9.5,20.9712982 C9.22385763,20.9712982 9,21.1951558 9,21.4712982 L9,22.5 C9,22.7761424 9.22385763,23 9.5,23 L10.5,23 C10.7761424,23 11,22.7761424 11,22.5 L11,21.4712982 C11,21.1951558 10.7761424,20.9712982 10.5,20.9712982 Z M10.5,14.7935028 L9.5,14.7935028 C9.22385763,14.7935028 9,15.0173604 9,15.2935028 L9,16.5 C9,16.7761424 9.22385763,17 9.5,17 L10.5,17 C10.7761424,17 11,16.7761424 11,16.5 L11,15.2935028 C11,15.0173604 10.7761424,14.7935028 10.5,14.7935028 Z M20.5,14.7935028 L13.5,14.7935028 C13.2238576,14.7935028 13,15.0173604 13,15.2935028 L13,16.5 C13,16.7761424 13.2238576,17 13.5,17 L20.5,17 C20.7761424,17 21,16.7761424 21,16.5 L21,15.2935028 C21,15.0173604 20.7761424,14.7935028 20.5,14.7935028 Z M10.5,9 L9.5,9 C9.22385763,9 9,9.22385763 9,9.5 L9,10.5 C9,10.7761424 9.22385763,11 9.5,11 L10.5,11 C10.7761424,11 11,10.7761424 11,10.5 L11,9.5 C11,9.22385763 10.7761424,9 10.5,9 Z M24.5,9 L13.5,9 C13.2238576,9 13,9.22385763 13,9.5 L13,10.5 C13,10.7761424 13.2238576,11 13.5,11 L24.5,11 C24.7761424,11 25,10.7761424 25,10.5 L25,9.5 C25,9.22385763 24.7761424,9 24.5,9 Z" id="形状结合" fill="#666666"></path>
    </g>
</svg>