<!--?xml version="1.0" encoding="UTF-8"?-->
<svg width="32px" height="32px" viewBox="0 0 32 32" version="1.1" xmlns="http://www.w3.org/2000/svg" xmlns:xlink="http://www.w3.org/1999/xlink">
    <title>1223-关闭预览</title>
    <g id="1223-关闭预览" stroke="none" stroke-width="1" fill="none" fill-rule="evenodd">
        <g id="编组" transform="translate(4.000000, 4.000000)" fill="#000000" fill-rule="nonzero">
            <path d="M1.84615386,1.84615386 L3.69230768,1.84615386 L3.69230768,3.69230772 L1.84615386,3.69230772 L1.84615386,1.84615386 Z M0,3.10862447e-15 L1.84615386,3.10862447e-15 L1.84615386,1.84615386 L0,1.84615386 L0,3.10862447e-15 Z M9.23076921,9.23076925 L11.0769231,9.23076925 L11.0769231,11.0769231 L9.23076921,11.0769231 L9.23076921,9.23076925 L9.23076921,9.23076925 Z M16.6153846,16.6153846 L18.4615385,16.6153846 L18.4615385,18.4615385 L16.6153846,18.4615385 L16.6153846,16.6153846 Z M5.53846154,5.53846154 L7.38461539,5.53846154 L7.38461539,7.38461539 L5.53846154,7.38461539 L5.53846154,5.53846154 Z M12.9230769,12.9230769 L14.7692307,12.9230769 L14.7692307,14.7692308 L12.9230769,14.7692308 L12.9230769,12.9230769 L12.9230769,12.9230769 Z M20.3076923,20.3076923 L22.1538461,20.3076923 L22.1538461,22.1538461 L20.3076923,22.1538461 L20.3076923,20.3076923 Z M3.69230768,3.69230772 L5.53846154,3.69230772 L5.53846154,5.53846154 L3.69230768,5.53846154 L3.69230768,3.69230772 Z M11.0769231,11.0769231 L12.9230769,11.0769231 L12.9230769,12.9230769 L11.0769231,12.9230769 L11.0769231,11.0769231 L11.0769231,11.0769231 Z M18.4615385,18.4615385 L20.3076923,18.4615385 L20.3076923,20.3076923 L18.4615385,20.3076923 L18.4615385,18.4615385 Z M7.38461539,7.38461539 L9.23076921,7.38461539 L9.23076921,9.23076925 L7.38461539,9.23076925 L7.38461539,7.38461539 Z M14.7692307,14.7692308 L16.6153846,14.7692308 L16.6153846,16.6153846 L14.7692307,16.6153846 L14.7692307,14.7692308 Z M22.1538461,22.1538461 L24,22.1538461 L24,24 L22.1538461,24 L22.1538461,22.1538461 Z M24,0 L24,1.84615386 L22.1538461,1.84615386 L22.1538461,0 L24,0 L24,0 Z M16.6153846,7.38461539 L16.6153846,9.23076925 L14.7692307,9.23076925 L14.7692307,7.38461539 L16.6153846,7.38461539 L16.6153846,7.38461539 Z M9.23076921,14.7692308 L9.23076921,16.6153846 L7.38461539,16.6153846 L7.38461539,14.7692308 L9.23076921,14.7692308 Z M20.3076923,3.69230772 L20.3076923,5.53846154 L18.4615385,5.53846154 L18.4615385,3.69230772 L20.3076923,3.69230772 L20.3076923,3.69230772 Z M5.53846154,18.4615385 L5.53846154,20.3076923 L3.69230768,20.3076923 L3.69230768,18.4615385 L5.53846154,18.4615385 L5.53846154,18.4615385 Z M22.1538461,1.84615386 L22.1538461,3.69230772 L20.3076923,3.69230772 L20.3076923,1.84615386 L22.1538461,1.84615386 L22.1538461,1.84615386 Z M14.7692307,9.23076925 L14.7692307,11.0769231 L12.9230769,11.0769231 L12.9230769,9.23076925 L14.7692307,9.23076925 Z M7.38461539,16.6153846 L7.38461539,18.4615385 L5.53846154,18.4615385 L5.53846154,16.6153846 L7.38461539,16.6153846 L7.38461539,16.6153846 Z M18.4615385,5.53846154 L18.4615385,7.38461539 L16.6153846,7.38461539 L16.6153846,5.53846154 L18.4615385,5.53846154 L18.4615385,5.53846154 Z M11.0769231,12.9230769 L11.0769231,14.7692308 L9.23076921,14.7692308 L9.23076921,12.9230769 L11.0769231,12.9230769 L11.0769231,12.9230769 Z M3.69230768,20.3076923 L3.69230768,22.1538461 L1.84615386,22.1538461 L1.84615386,20.3076923 L3.69230768,20.3076923 L3.69230768,20.3076923 Z M1.84615386,22.1538461 L1.84615386,24 L0,24 L0,22.1538461 L1.84615386,22.1538461 L1.84615386,22.1538461 Z" id="形状" fill="#666666"></path>
        </g>
    </g>
</svg>