<!--?xml version="1.0" encoding="UTF-8"?-->
<svg width="32px" height="32px" viewBox="0 0 32 32" version="1.1" xmlns="http://www.w3.org/2000/svg" xmlns:xlink="http://www.w3.org/1999/xlink">
    <title>1193-云排序</title>
    <g id="1193-云排序" stroke="none" stroke-width="1" fill="none" fill-rule="evenodd">
        <g id="编组" transform="translate(4.000000, 4.000000)" fill="#000000" fill-rule="nonzero">
            <path d="M6.47951682,0 C7.01708882,0 7.45287697,0.435788209 7.45287697,0.973360177 L7.45287697,22.3872841 L7.44912543,22.4602861 L7.45107216,22.4388722 L7.45016343,22.4605182 C7.44836506,22.4846945 7.44568363,22.5086248 7.44215122,22.532277 C7.43961201,22.5488122 7.4366198,22.5657743 7.43317616,22.5826626 C7.42889365,22.6040963 7.42383813,22.6252088 7.41810767,22.6460418 C7.41384747,22.6612492 7.40933983,22.6762273 7.40446396,22.6911111 C7.39824966,22.7102427 7.39124797,22.7294973 7.38366726,22.7484576 L7.3616991,22.799231 L7.3616991,22.799231 C7.35225429,22.8193503 7.3421145,22.8392093 7.33132792,22.85866 C7.32488126,22.8704546 7.31796252,22.8823478 7.31077087,22.8941213 C7.29546641,22.9190064 7.27914189,22.9431999 7.26179322,22.9665884 C7.25649823,22.9738338 7.25111457,22.9808804 7.24562171,22.987869 L7.16778637,23.0755537 C7.13333528,23.1100048 7.09694407,23.1413336 7.05896461,23.16954 C7.03543266,23.1869091 7.01123913,23.2032337 6.98630669,23.2184681 C6.97458061,23.2257298 6.96268742,23.2326486 6.95068354,23.2392943 C6.93144206,23.2498818 6.91158299,23.2600216 6.8913447,23.2694854 C6.87479689,23.2772477 6.85795502,23.284531 6.84096056,23.2913162 C6.82173008,23.2990153 6.80247549,23.3060168 6.78294863,23.3124175 L6.73842381,23.3257541 L6.73842381,23.3257541 C6.71744156,23.3316054 6.69632899,23.3366608 6.67496181,23.3410163 C6.658007,23.344387 6.64104499,23.3473792 6.62402857,23.34992 C6.60556285,23.3527482 6.58643756,23.3550317 6.56715035,23.3567528 C6.5434326,23.3588283 6.5204172,23.3600609 6.49738971,23.3606442 C6.49197427,23.3606442 6.4857524,23.3606442 6.47951682,23.3606442 L6.46067793,23.3606442 L6.45921813,23.3596709 L6.43975093,23.3586975 L6.45143125,23.3596709 L6.45921813,23.3596709 L6.47951682,23.3606442 L6.45143125,23.3596709 L6.43488413,23.3586975 L6.43975093,23.3586975 L6.41736365,23.3577242 L6.43488413,23.3586975 L6.42663511,23.3592155 L6.41736365,23.3577242 L6.40081652,23.3567508 L6.33452391,23.3499185 L6.33452391,23.3499185 C6.31798868,23.3473792 6.30102664,23.344387 6.28413836,23.3409433 C6.26270466,23.3366608 6.24159209,23.3316054 6.22075916,23.3258749 C6.20555169,23.3216147 6.19057356,23.3171071 6.17568975,23.3122312 C6.15655819,23.3060168 6.13730363,23.2990153 6.11834326,23.2914344 L6.06756983,23.2694663 L6.06756983,23.2694663 C6.04745062,23.2600216 6.02759158,23.2498818 6.00814095,23.2390951 C5.99634625,23.2326486 5.9844531,23.2257298 5.97267967,23.2185381 C5.94779455,23.2032337 5.92360095,23.1869091 5.90021246,23.1695605 L5.87893185,23.1533889 L5.87893185,23.1533889 C5.87636178,23.1513026 5.87353934,23.1490629 5.87072968,23.1468079 L5.79124724,23.0755537 L0.285090593,17.569397 C-0.0950301975,17.1892762 -0.0950301975,16.5729787 0.285090593,16.1928579 C0.665211383,15.8127371 1.28150897,15.8127371 1.66162976,16.1928579 L5.50615664,20.0366192 L5.50615664,0.973360177 C5.50615664,0.435788209 5.94194485,0 6.47951682,0 Z M17.6073557,0.00386073581 L17.5993254,0.00292008053 L17.6654761,0.0107257751 L17.6654761,0.0107257751 C17.6820113,0.0132650459 17.6989734,0.016257233 17.7158617,0.0197008723 C17.7372954,0.0239834079 17.758408,0.0290388693 17.7792409,0.0347693599 C17.7944483,0.0390295316 17.8094264,0.0435371704 17.8243103,0.0484130664 C17.8434419,0.0546274026 17.8626964,0.0616290238 17.8816567,0.0692097709 L17.9324301,0.0911779338 L17.9324301,0.0911779338 C17.9525494,0.100622705 17.9724084,0.11076247 17.9918591,0.121549107 C18.0036537,0.127995711 18.0155469,0.134914448 18.0273204,0.142106163 C18.0522055,0.157410531 18.0763991,0.173735136 18.0997875,0.191083747 L18.1210681,0.207255324 L18.1210681,0.207255324 C18.1236383,0.209341679 18.1264606,0.211581342 18.1292703,0.213836298 L18.2087528,0.285090593 L23.7149094,5.79124724 C24.0950302,6.17136809 24.0950302,6.78766558 23.7149094,7.16778637 C23.3347886,7.5479072 22.7184911,7.5479072 22.3383703,7.16778637 L18.4938434,3.324025 L18.4938434,22.3872841 C18.4938434,22.924856 18.0580551,23.3606442 17.5204832,23.3606442 C16.9829112,23.3606442 16.547123,22.924856 16.547123,22.3872841 L16.547286,0.955487291 L16.5480964,0.920798727 L16.5480964,0.954866334 L16.5500431,0.893544643 L16.5578488,0.828367261 L16.5578488,0.828367261 C16.5603881,0.811832006 16.5633803,0.794869998 16.5668239,0.777981716 C16.5711064,0.756548013 16.5761618,0.735435442 16.5818924,0.714602481 C16.5861525,0.699395045 16.5906601,0.684416916 16.5955361,0.669533071 C16.6017504,0.650401513 16.608752,0.631146985 16.6163328,0.612186583 L16.638301,0.561413188 L16.638301,0.561413188 C16.6477457,0.541293973 16.6578854,0.521434934 16.6686721,0.50198427 C16.6751187,0.490189605 16.6820375,0.478296421 16.6892292,0.46652303 C16.7045335,0.441637901 16.7208582,0.417444309 16.7382068,0.394055819 L16.7543784,0.372775207 L16.7543784,0.372775207 L16.8322136,0.285090593 C16.8666648,0.250639436 16.9030559,0.219310663 16.9410355,0.191104273 C16.9645673,0.173735136 16.9887608,0.157410531 17.0136933,0.142176214 L17.0493164,0.12134995 L17.0493164,0.12134995 C17.068558,0.11076247 17.088417,0.100622705 17.1086554,0.0911588716 L17.1590395,0.0693280692 L17.1590395,0.0693280692 C17.17827,0.0616290238 17.1975245,0.0546274026 17.2170514,0.048226773 C17.23154,0.0435371704 17.246518,0.0390295316 17.2615762,0.0348902435 C17.2825584,0.0290388693 17.303671,0.0239834079 17.3250382,0.0196279559 C17.341993,0.016257233 17.358955,0.0132650459 17.3759714,0.01072428 L17.4328496,0.00389147841 L17.4328496,0.00389147841 C17.4565674,0.00181590075 17.4795828,0.000583362008 17.5026102,0 L17.5393221,0 L17.5733649,0.00142867471 L17.5733649,0.00142867471 L17.5866717,0.00194672035 L17.5204832,0 L17.5993254,0.00292008053 L17.5964053,0.00194672035 L17.6073557,0.00386073581 L17.6073557,0.00386073581 Z" id="形状" fill="#666666"></path>
        </g>
    </g>
</svg>