<!--?xml version="1.0" encoding="UTF-8"?-->
<svg width="32px" height="32px" viewBox="0 0 32 32" version="1.1" xmlns="http://www.w3.org/2000/svg" xmlns:xlink="http://www.w3.org/1999/xlink">
    <title>401.线索@1x</title>
    <g id="401.线索" stroke="none" stroke-width="1" fill="none" fill-rule="evenodd">
        <g id="编组" transform="translate(4.000000, 4.000000)" fill="#000000" fill-rule="nonzero">
            <path d="M4,0 C5.84612892,0 7.40015013,1.25066169 7.86102116,2.95094255 L15.2786459,2.9516059 C18.1316376,2.9516059 20.4444444,5.26441273 20.4444444,8.11740453 C20.4444444,10.9040476 18.2379592,13.1753386 15.4767931,13.2794729 L15.2786459,13.2832031 L9.58062063,13.2832031 C8.21674817,13.2832031 7.11111111,14.3888402 7.11111111,15.7527127 C7.11111111,17.0660714 8.13636577,18.139969 9.43018507,18.2177153 L9.58062063,18.2222222 L16.0991099,18.2222598 C16.5032997,16.4409177 18.0963533,15.1111111 20,15.1111111 C22.209139,15.1111111 24,16.9019721 24,19.1111111 C24,21.3202501 22.209139,23.1111111 20,23.1111111 C18.4298888,23.1111111 17.071068,22.2064693 16.4163262,20.8899746 L9.58062063,20.8888889 C6.74398888,20.8888889 4.44444444,18.5893445 4.44444444,15.7527127 C4.44444444,12.9820491 6.63827698,10.7237825 9.38360969,10.6202453 L9.58062063,10.6165364 L15.2786459,10.6165364 C16.6588783,10.6165364 17.7777778,9.49763698 17.7777778,8.11740453 C17.7777778,6.78829173 16.7402249,5.7015125 15.4308859,5.62283352 L15.2786459,5.61827257 L7.65898977,5.6185819 C7.03753779,7.02137353 5.63305412,8 4,8 C1.790861,8 0,6.209139 0,4 C0,1.790861 1.790861,0 4,0 Z" id="路径" fill="#666666"></path>
        </g>
    </g>
</svg>