<!--?xml version="1.0" encoding="UTF-8"?-->
<svg width="32px" height="32px" viewBox="0 0 32 32" version="1.1" xmlns="http://www.w3.org/2000/svg" xmlns:xlink="http://www.w3.org/1999/xlink">
    <title>1414-编码</title>
    <g id="1414-编码" stroke="none" stroke-width="1" fill="none" fill-rule="evenodd">
        <g id="编组" transform="translate(4.000000, 6.000000)" fill="#000000" fill-rule="nonzero">
            <path d="M14.5537138,0.0267845941 C14.9762365,0.138281987 15.2283726,0.571190901 15.1168752,0.993713728 C15.1163608,0.995662648 15.1158391,0.997609581 15.1153099,0.999554501 L10.369799,18.4414077 C10.2539379,18.8672489 9.81628032,19.1199157 9.38956635,19.0073124 C8.96704353,18.895815 8.71490759,18.4629059 8.82640498,18.0403831 C8.82691928,18.0384343 8.82744102,18.0364874 8.82797019,18.0345424 L13.5734811,0.592689128 C13.6893422,0.16684817 14.1269998,-0.0858187979 14.5537138,0.0267845941 Z M7.00594311,3.85223709 C7.29536126,4.1372653 7.31603397,4.58673783 7.06796128,4.89525807 L7.00594311,4.96381393 L1.92680638,9.9659098 L7.00594311,14.9680056 C7.29536126,15.2530339 7.31603397,15.7025064 7.06796128,16.0110266 L7.00594311,16.0795825 C6.71652496,16.3646108 6.26012981,16.3849699 5.94685781,16.14066 L5.87724605,16.0795825 L0.233760817,10.5216982 C-0.0556573344,10.23667 -0.0763300671,9.78719747 0.171742646,9.47867722 L0.233760817,9.41012136 L5.87724605,3.85223709 C6.18892715,3.54528361 6.69426201,3.54528361 7.00594311,3.85223709 Z M16.9940569,3.85223709 C16.7046387,4.1372653 16.6839659,4.58673783 16.9320387,4.89525807 L16.9940569,4.96381393 L22.0731936,9.9659098 L16.9940569,14.9680056 C16.7046387,15.2530339 16.6839659,15.7025064 16.9320387,16.0110266 L16.9940569,16.0795825 C17.283475,16.3646108 17.7398701,16.3849699 18.0531421,16.14066 L18.1227539,16.0795825 L23.7662392,10.5216982 C24.0556573,10.23667 24.0763301,9.78719747 23.8282573,9.47867722 L23.7662392,9.41012136 L18.1227539,3.85223709 C17.8110728,3.54528361 17.3057379,3.54528361 16.9940569,3.85223709 Z" id="形状" fill="#666666"></path>
        </g>
    </g>
</svg>