<!--?xml version="1.0" encoding="UTF-8"?-->
<svg width="32px" height="32px" viewBox="0 0 32 32" version="1.1" xmlns="http://www.w3.org/2000/svg" xmlns:xlink="http://www.w3.org/1999/xlink">
    <title>1996.离职协作处理</title>
    <g id="1996.离职协作处理" stroke="none" stroke-width="1" fill="none" fill-rule="evenodd">
        <path d="M13.7419355,2 C17.7326382,2 20.9677419,5.23510374 20.9677419,9.22580645 C20.9677419,10.6222752 20.571599,11.9262199 19.8855586,13.0313949 L22.7227827,15.5872489 C23.4861831,14.996627 24.4439824,14.6451613 25.483871,14.6451613 C27.9780602,14.6451613 30,16.6671011 30,19.1612903 C30,21.6554795 27.9780602,23.6774194 25.483871,23.6774194 C22.9896818,23.6774194 20.9677419,21.6554795 20.9677419,19.1612903 C20.9677419,18.3596896 21.1765877,17.6068675 21.5428356,16.9542674 L18.7469716,14.4375264 C17.4484251,15.6848902 15.6847191,16.4516129 13.7419355,16.4516129 C13.0993617,16.4516129 12.476378,16.3677373 11.8833357,16.2103373 L10.8892913,19.0923262 C12.5983431,20.1187058 13.7419355,21.9903189 13.7419355,24.1290323 C13.7419355,27.3714782 11.1134137,30 7.87096774,30 C4.62852179,30 2,27.3714782 2,24.1290323 C2,20.8865863 4.62852179,18.2580645 7.87096774,18.2580645 C8.33289047,18.2580645 8.7823535,18.3114109 9.21353205,18.4122788 L10.2063191,15.5290031 C8.00397076,14.2909984 6.51612903,11.9321544 6.51612903,9.22580645 C6.51612903,5.23510374 9.75123278,2 13.7419355,2 Z M11.9354839,23.2258065 L3.80645161,23.2258065 L3.80645161,25.0322581 L11.9354839,25.0322581 L11.9354839,23.2258065 Z M16.1135116,5.35058827 C15.959132,4.23172156 14.1451962,3.66592014 13.284333,3.83632309 C12.4298736,3.93894035 11.4316409,4.55829203 11.3547223,5.49720691 L11.3547223,6.65868731 C11.189688,6.65868731 10.975781,6.74599313 11.0459723,7.428749 C11.1159945,8.11191343 11.565146,8.30076639 11.9022093,8.63471725 C12.2392726,8.9686681 12.1654157,9.50121228 12.6918285,9.77358752 L12.7124274,9.78702357 L12.7372455,9.80254108 L12.7383513,9.95204833 C12.7383513,9.95204833 12.2121617,10.1512013 11.6341407,10.3731546 L11.3165674,10.4954212 C10.9467208,10.6382304 10.590811,10.7772882 10.3710807,10.8671484 C10.0682157,10.991007 9.78460824,11.5270262 9.52025835,12.475206 C9.37240455,13.0073319 9.68440631,13.5582882 10.2166626,13.7056708 C10.3033203,13.7296665 10.3928184,13.7418645 10.4827369,13.7419355 L17.0011341,13.7419355 C17.5534188,13.7421331 18.0012943,13.2945781 18.0014919,12.7422934 C18.0015242,12.6520777 17.9893483,12.5622725 17.9657157,12.475206 C17.7050368,11.5270262 17.4299065,10.991007 17.1403247,10.8671484 C16.6299679,10.6878046 14.7455197,9.9520243 14.7455197,9.9520243 L14.7466064,9.80558172 C14.779406,9.78575262 14.7974797,9.77358752 14.7974797,9.77358752 C15.3238925,9.50121228 15.264399,8.96888212 15.5870988,8.63471725 C15.6408868,8.57906039 15.6985853,8.52741701 15.7577208,8.47683439 L15.9369649,8.32531614 C16.1751092,8.11966098 16.39667,7.88373475 16.4433452,7.42856417 C16.5135554,6.74539974 16.1135116,6.65868731 16.1135116,6.65868731 Z" id="形状结合备份-38" fill="#666666"></path>
    </g>
</svg>