<!--?xml version="1.0" encoding="UTF-8"?-->
<svg width="32px" height="32px" viewBox="0 0 32 32" version="1.1" xmlns="http://www.w3.org/2000/svg" xmlns:xlink="http://www.w3.org/1999/xlink">
    <title>262.佣金管理</title>
    <g id="262.佣金管理" stroke="none" stroke-width="1" fill="none" fill-rule="evenodd">
        <g id="佣金管理" transform="translate(5.000000, 4.000000)" fill="#000000" fill-rule="nonzero">
            <path d="M21.1538462,12.8571429 C21.7179487,12.8571429 22,13 22,13.2857143 L22,23.1428571 C22,23.616244 21.621164,24 21.1538462,24 L0.846153846,24 C0.378835993,24 0,23.616244 0,23.1428571 L0,13.2857143 C0,13.0238095 0.23700141,12.8819445 0.711004286,12.860119 L0.846153846,12.8571429 L0.846153846,13.8908571 L11,18.5674146 L21.1538462,13.8917143 L21.1538462,12.8571429 Z M19.4550312,0 C19.922349,0 20.301185,0.383755941 20.301185,0.857142857 L20.301185,12.4 L11,16.3141741 L1.69230769,12.4 L1.69230769,0.857142857 C1.69230769,0.383755941 2.07114368,0 2.53846154,0 L19.4550312,0 Z M8.73092931,2.88524774 C8.46691821,3.0514097 8.36102183,3.40064533 8.4699994,3.7004742 L8.50919563,3.78870819 L9.82831488,6.28253713 L8.41697009,6.28253713 C8.04749659,6.29667357 7.75517524,6.60403664 7.75517524,6.97838545 C7.75517524,7.3215385 8.00080634,7.60840501 8.32633358,7.66472168 L8.41697009,7.67423375 L10.4802707,7.67423375 L10.4802707,9.06642704 L8.41697009,9.06642704 C8.04749659,9.08056345 7.75517524,9.38792656 7.75517524,9.76227533 C7.75517524,10.1054284 8.00080634,10.3922949 8.32633358,10.4486116 L8.41697009,10.4581237 L10.4802707,10.4581237 L10.4802707,11.9198521 C10.4802707,12.1126217 10.5759167,12.2851586 10.7265474,12.4000841 L11.6092308,12.3994286 L11.6797822,12.3384644 C11.7675567,12.2496345 11.8278602,12.1378898 11.8484707,12.0144498 L11.8562951,11.9198521 L11.8562951,10.4581237 L13.9195957,10.4581237 C14.2890692,10.4439873 14.5813906,10.1366241 14.5813906,9.76227533 C14.5813906,9.41912229 14.3357595,9.13225585 14.0102322,9.0759391 L13.9195957,9.06642704 L11.8562951,9.06642704 L11.8562951,7.67423375 L13.9195957,7.67423375 C14.2997806,7.67423375 14.6078531,7.36182224 14.6078531,6.97838545 C14.6078531,6.62398535 14.3453535,6.33095018 14.0059432,6.28796489 L13.9195957,6.28253713 L12.508251,6.28253713 L13.8469926,3.78870819 C14.0172173,3.47281986 13.9161618,3.0680259 13.6223155,2.88524774 C13.3516075,2.7172458 13.0132974,2.79464506 12.827298,3.05202605 L12.7805125,3.12663407 L11.2416218,5.99247615 C11.1932362,6.08171498 11.1653981,6.18087256 11.1538114,6.28253713 C11.1502139,6.21664427 11.1376774,6.15030994 11.1153295,6.08633022 L11.0743405,5.99247615 L9.5589967,3.12663407 C9.39220591,2.81124247 9.02134158,2.70246961 8.73092931,2.88524774 Z" id="形状" fill="#666666"></path>
        </g>
    </g>
</svg>