<!--?xml version="1.0" encoding="UTF-8"?-->
<svg width="32px" height="32px" viewBox="0 0 32 32" version="1.1" xmlns="http://www.w3.org/2000/svg" xmlns:xlink="http://www.w3.org/1999/xlink">
    <title>1270-社区</title>
    <g id="1270-社区" stroke="none" stroke-width="1" fill="none" fill-rule="evenodd">
        <g id="编组" transform="translate(4.000000, 4.000000)" fill="#000000" fill-rule="nonzero">
            <path d="M18,5.14285714 C18.4733869,5.14285714 18.8571429,5.52661308 18.8571429,6 L18.8571429,6 L18.8571429,19.7142857 C18.8571429,20.1876726 18.4733869,20.5714286 18,20.5714286 L18,20.5714286 L8.75015819,20.5714286 L5.33730728,23.2858731 C5.18563291,23.4065088 4.99755365,23.4721841 4.80375456,23.4721841 C4.33036764,23.4721841 3.9466117,23.0884282 3.9466117,22.6150412 L3.9466117,22.6150412 L3.9466117,20.5714286 L0.857142857,20.5714286 C0.383755941,20.5714286 0,20.1876726 0,19.7142857 L0,19.7142857 L0,6 C0,5.52661308 0.383755941,5.14285714 0.857142857,5.14285714 L0.857142857,5.14285714 L18,5.14285714 Z M17.1428571,6.85628571 L1.71428571,6.85628571 L1.71428571,18.8562857 L3.9466117,18.8571429 L4.07455088,18.8618449 C4.9615736,18.9272871 5.66089742,19.6676899 5.66089742,20.5714286 L5.66089742,20.5714286 L5.66142857,20.8371429 L7.68305272,19.2297649 L7.80010157,19.1444825 C8.08061982,18.9577082 8.41100975,18.8571429 8.75015819,18.8571429 L8.75015819,18.8571429 L17.1428571,18.8562857 L17.1428571,6.85628571 Z M23.1428571,0 L23.2428181,0.00576663771 C23.6691084,0.0552795703 24,0.41756928 24,0.857142857 L24,0.857142857 L24,14.5714286 L23.9942334,14.6713895 C23.9447205,15.0976798 23.5824307,15.4285714 23.1428571,15.4285714 L23.1428571,15.4285714 L20.5714286,15.4285714 L20.5714286,13.7142857 L22.2857143,13.7134286 L22.2857143,1.71342857 L6.85714286,1.71342857 L6.85714286,3.42857143 L5.14285714,3.42857143 L5.14285714,0.857142857 L5.14862378,0.757181897 C5.19813671,0.330891593 5.56042642,0 6,0 L6,0 L23.1428571,0 Z M6.42857143,12 C7.1386518,12 7.71428571,12.5756339 7.71428571,13.2857143 C7.71428571,13.9957947 7.1386518,14.5714286 6.42857143,14.5714286 C5.71849105,14.5714286 5.14285714,13.9957947 5.14285714,13.2857143 C5.14285714,12.5756339 5.71849105,12 6.42857143,12 Z M12.4285714,12 C13.1386518,12 13.7142857,12.5756339 13.7142857,13.2857143 C13.7142857,13.9957947 13.1386518,14.5714286 12.4285714,14.5714286 C11.7184911,14.5714286 11.1428571,13.9957947 11.1428571,13.2857143 C11.1428571,12.5756339 11.7184911,12 12.4285714,12 Z" id="形状" fill="#346bf6"></path>
        </g>
    </g>
</svg>