<!--?xml version="1.0" encoding="UTF-8"?-->
<svg width="32px" height="32px" viewBox="0 0 32 32" version="1.1" xmlns="http://www.w3.org/2000/svg" xmlns:xlink="http://www.w3.org/1999/xlink">
    <title>275.公司付款计划</title>
    <g id="275.公司付款计划" stroke="none" stroke-width="1" fill="none" fill-rule="evenodd">
        <g id="公司付款计划" transform="translate(4.000000, 6.000000)" fill="#000000" fill-rule="nonzero">
            <path d="M19.4522958,11.9850223 C21.9639235,11.9850223 24,14.0030938 24,16.4925111 C24,18.9819286 21.9639235,21 19.4522958,21 C16.9406682,21 14.9045917,18.9819286 14.9045917,16.4925111 C14.9045917,14.0030938 16.9406682,11.9850223 19.4522958,11.9850223 Z M21.9328617,0 C22.3569028,0 22.7063908,0.316376703 22.7541542,0.723967357 L22.759717,0.819543429 L22.7608166,11.6830972 C21.8230923,11.0344783 20.6825156,10.6540646 19.4522958,10.6540646 C16.2556789,10.6540646 13.6643087,13.2225193 13.6643087,16.3908686 C13.6643087,17.6102096 14.0481164,18.7407001 14.7025223,19.6701321 L10.3568875,19.6690423 L10.3568875,0 L21.9328617,0 Z M9.09540832,4.09771715 L9.09540832,19.6690423 L0.826855301,19.6690423 C0.402814295,19.6690423 0.0533262665,19.3526656 0.00556287079,18.9450749 L0,18.8494989 L0,4.91726058 C0,4.49696933 0.319199379,4.15057182 0.73042651,4.10323082 L0.826855301,4.09771715 L9.09540832,4.09771715 Z M19.8171711,13.5417954 C19.5142846,13.5417954 19.2598092,13.7472348 19.1878485,14.0251958 L19.1718699,14.1106269 L19.1674991,14.1857224 L19.1674991,16.4942006 L18.0584396,17.5939592 L18.0043942,17.6546218 C17.8429255,17.8604496 17.8249846,18.1410674 17.9505713,18.3635152 L18.0043942,18.4439467 L18.0584396,18.5046094 L18.1196434,18.5581768 C18.3273076,18.7182176 18.6104291,18.736 18.8348615,18.6115237 L18.9160106,18.5581768 L18.9772146,18.5046094 L20.2765585,17.2167554 L20.3329583,17.1529569 C20.3847694,17.0859066 20.4226057,17.0096011 20.444585,16.9285443 L20.4612089,16.8460706 L20.4668431,16.7614303 L20.4668431,14.1857224 L20.4624723,14.1106269 C20.4249439,13.7903771 20.1503462,13.5417954 19.8171711,13.5417954 Z M5.78798711,13.1126949 L3.30742121,13.1126949 C2.85076164,13.1126949 2.4805659,13.479617 2.4805659,13.9322383 C2.4805659,14.3525295 2.79976528,14.6989271 3.21099241,14.7462681 L3.30742121,14.7517817 L5.78798711,14.7517817 C6.2446467,14.7517817 6.61484241,14.3848596 6.61484241,13.9322383 C6.61484241,13.479617 6.2446467,13.1126949 5.78798711,13.1126949 Z M5.78798711,9.83452115 L3.30742121,9.83452115 C2.85076164,9.83452115 2.4805659,10.2014433 2.4805659,10.6540646 C2.4805659,11.0743558 2.79976528,11.4207534 3.21099241,11.4680944 L3.30742121,11.473608 L5.78798711,11.473608 C6.2446467,11.473608 6.61484241,11.1066859 6.61484241,10.6540646 C6.61484241,10.2014433 6.2446467,9.83452115 5.78798711,9.83452115 Z M17.7664434,2.38029153 L17.7200311,2.44586083 L16.6059207,4.37298455 C16.570891,4.43299283 16.5507371,4.49967094 16.5423486,4.56803487 C16.5397442,4.52372547 16.5306681,4.47911923 16.514489,4.43609635 L16.484814,4.37298455 L15.387751,2.44586083 C15.2669995,2.23377702 14.9985049,2.16063318 14.7882552,2.28354159 C14.6013666,2.39279349 14.5239173,2.61974193 14.5943201,2.81824851 L14.6277267,2.89106984 L15.5827292,4.56803487 L14.5609582,4.56803487 C14.2934706,4.57754086 14.0818387,4.78422589 14.0818387,5.03595522 C14.0818387,5.26251162 14.2532605,5.45258209 14.4825434,5.49526053 L14.5609582,5.5038755 L16.0547256,5.5038755 L16.0547256,6.44005021 L14.5609582,6.44005021 C14.2934706,6.44955618 14.0818387,6.65624118 14.0818387,6.90797048 C14.0818387,7.13452688 14.2532605,7.32459744 14.4825434,7.36727582 L14.5609582,7.37589086 L16.0547256,7.37589086 L16.0547256,8.35882413 C16.0547256,8.5912814 16.2774056,8.77998585 16.5530031,8.77998585 C16.8004017,8.77998585 17.0058001,8.62686466 17.0444057,8.4270226 L17.0509256,8.35882413 L17.0509256,7.37589086 L18.544693,7.37589086 C18.8121807,7.36638489 19.0238125,7.15969982 19.0238125,6.90797048 C19.0238125,6.68141411 18.8523907,6.49134364 18.6231078,6.44866525 L18.544693,6.44005021 L17.0509256,6.44005021 L17.0509256,5.5038755 L18.544693,5.5038755 C18.8199353,5.5038755 19.0429706,5.2937957 19.0429706,5.03595522 C19.0429706,4.80359819 18.8623121,4.61046833 18.6255286,4.57416592 L18.544693,4.56803487 L17.522922,4.56803487 L18.4921305,2.89106984 C18.6153681,2.67865205 18.5422069,2.40645 18.3294712,2.28354159 C18.1394256,2.17399276 17.9033595,2.21961334 17.7664434,2.38029153 Z M5.78798711,6.55634743 L3.30742121,6.55634743 C2.85076164,6.55634743 2.4805659,6.92326956 2.4805659,7.37589086 C2.4805659,7.79618208 2.79976528,8.14257964 3.21099241,8.18992064 L3.30742121,8.19543429 L5.78798711,8.19543429 C6.2446467,8.19543429 6.61484241,7.82851216 6.61484241,7.37589086 C6.61484241,6.92326956 6.2446467,6.55634743 5.78798711,6.55634743 Z" id="形状" fill="#666666"></path>
        </g>
    </g>
</svg>