<!--?xml version="1.0"?-->
<svg xmlns="http://www.w3.org/2000/svg" class="icon" style="vertical-align:middle;fill:currentColor;overflow:hidden;" viewBox="0 0 1024 1024" version="1.1" width="200px" height="200px"><path d="M500.529183 0C572.322811 0 633.510181 56.142713 671.650506 165.149135C796.668075 136.561534 884.245875 159.347488 921.298181 224.057299C958.520994 289.064888 935.931813 375.413958 849.803731 469.381749C934.574581 562.997662 957.8812 649.553006 921.2961 713.446869C883.678256 779.144356 796.937638 802.492713 671.351769 773.1658C633.208356 881.633825 572.145778 937.5 500.529183 937.5C429.99819 937.5 369.049701 880.762488 330.622124 772.95605C204.557784 802.609406 117.475379 779.308913 79.76331 713.446869C43.17895 649.552713 66.485953 562.997381 151.297754 469.408693C65.128625 375.414689 42.539099 289.065668 79.761269 224.05759C116.907144 159.184774 204.83309 136.447179 330.321486 165.386119C368.72376 57.041541 429.809584 0 500.529183 0zM500.541438 711.026344L484.779254 718.348875C451.351776 733.597938 419.597574 746.148613 389.623928 756.108669C418.328646 835.774806 459.153518 875 500.529183 875C542.955364 875 583.945246 836.527188 612.416333 756.456988C577.512329 744.886756 540.154848 729.805281 500.541438 711.026344zM194.876714 512.645537L188.118211 520.207901C128.753976 588.356179 113.049124 645.797894 134.001473 682.390925C156.430122 721.561319 217.300981 736.696481 313.185646 714.163644C304.164937 677.215506 297.30947 635.877306 292.952773 590.296728C255.639088 564.169479 222.983049 538.211059 194.876714 512.645537zM806.178794 512.606238C777.829213 538.403458 745.361994 564.201399 708.3317 590.131559C704.067956 635.992594 697.371544 677.413113 688.528031 714.35605C784.052775 736.623306 844.683438 721.46675 867.0581 682.390631C888.785488 644.444956 871.095031 584.080461 806.178794 512.606238zM640.68505 634.465356L625.693994 643.579238C619.608384 647.230488 613.431789 650.880906 607.164019 654.529781C595.072102 661.569219 583.144323 668.3096 571.384382 674.754638C591.752743 683.432381 611.094143 690.861825 629.461006 697.149544C633.739981 677.843906 637.539119 656.972231 640.68505 634.465356zM360.788473 634.723431L361.509274 639.351769C364.596018 659.882 368.244176 679.0535 372.383238 696.873006C390.492781 690.660038 409.58471 683.315238 429.608968 674.796138C417.918234 668.309619 405.990463 661.569238 393.898546 654.5298C382.564071 647.931331 371.527758 641.327813 360.788473 634.723431zM500.482793 296.014133L494.852069 298.925316C472.546571 310.336088 449.368053 323.002836 425.345166 336.988173C399.316774 352.140748 375.110928 367.204444 352.677988 382.107367C350.8966 409.213863 349.960433 438.100313 349.960433 468.75C349.960433 499.470888 350.900951 528.420333 352.678865 555.608192C375.082826 570.329676 399.290759 585.349393 425.343186 600.516053C451.483259 615.733778 476.564184 629.403113 500.565827 641.604162C524.498256 629.40315 549.579208 615.733817 575.71927 600.516099C601.820279 585.321016 626.0699 570.273423 648.526056 555.430968C650.204 528.407564 651.100019 499.489892 651.100019 468.75C651.100019 438.081431 650.20815 409.226634 648.516569 382.159633C626.040288 367.260923 601.792373 352.169087 575.715051 336.988037C549.629844 321.802084 524.540197 308.170838 500.482793 296.014133zM713.134831 428.355543L713.452694 447.556416C713.550656 454.542077 713.600019 461.606673 713.600019 468.75C713.600019 482.691359 713.411994 496.332827 713.041625 509.672908C731.0644 495.917106 747.443488 482.425232 762.286 469.226963C747.502394 455.880534 731.107419 442.226276 713.134831 428.355543zM288.026068 428.343799L283.373608 431.890343C267.175031 444.547123 252.293988 457.018198 238.697108 469.255233C253.617668 482.425387 269.996879 495.917236 287.963468 509.652151C287.655783 496.308854 287.460433 482.674438 287.460433 468.75C287.460433 454.997483 287.650989 441.527868 288.026068 428.343799zM133.999391 255.113606C111.691019 294.074913 128.649608 354.22876 194.531804 425.966367C222.819433 400.014578 255.571171 373.745674 292.918176 347.447935C297.247539 302.159693 304.032998 261.050024 312.956251 224.270853C217.479776 202.318223 155.877933 216.904178 133.999391 255.113606zM695.747875 222.58473L688.752144 224.083049C697.50095 260.856591 704.128406 302.047911 708.329231 347.576544C745.597944 373.832821 778.287856 400.057638 806.43 425.940861C872.410594 354.228403 889.368938 294.074538 867.060188 255.113534C845.767025 217.926202 786.847306 203.115429 695.747875 222.58473zM629.522656 241.070416L617.979601 245.031475C603.189147 250.281492 587.816633 256.238966 571.876236 262.934884C583.450534 269.377888 595.230762 276.029661 607.159741 282.974322C618.641642 289.658571 629.821213 296.357743 640.698988 303.066587C637.575788 280.790075 633.828444 260.142815 629.522656 241.070416zM372.196125 241.259526L369.921094 251.659256C366.493669 267.652552 363.44923 284.671742 360.834311 302.721273C371.535534 296.180233 382.570816 289.570083 393.900467 282.974463C405.829458 276.029795 417.609696 269.378015 429.236394 263.015668C409.294791 254.580159 390.289645 247.375127 372.196125 241.259526zM500.529183 62.5C459.043969 62.5 418.112411 101.933373 389.421917 181.91731C424.173203 193.351259 461.299724 208.203129 500.521734 226.668971C540.113809 208.036886 577.555655 193.084081 612.638731 181.647966C584.156743 101.171585 543.064823 62.5 500.529183 62.5z" fill="#666666"></path></svg>
