<!--?xml version="1.0" encoding="UTF-8"?-->
<svg width="32px" height="32px" viewBox="0 0 32 32" version="1.1" xmlns="http://www.w3.org/2000/svg" xmlns:xlink="http://www.w3.org/1999/xlink">
    <title>290.计算服务配置</title>
    <g id="290.计算服务配置" stroke="none" stroke-width="1" fill="none" fill-rule="evenodd">
        <g id="计算服务配置" transform="translate(4.000000, 5.000000)" fill="#000000" fill-rule="nonzero">
            <path d="M13.3333333,17.0625 L13.3333333,19.6874999 L18,19.6874999 C18.3681899,19.6874999 18.6666667,19.9813131 18.6666667,20.3437499 C18.6666667,20.7061868 18.3681899,21 18,21 L6,21 C5.63181017,21 5.33333333,20.7061868 5.33333333,20.3437499 C5.33333333,19.9813131 5.63181017,19.6874999 6,19.6874999 L10.6666667,19.6874999 L10.6666667,17.0625 L1.33333334,17.0625 C0.596953656,17.0625 0,16.4748737 0,15.75 L0,1.3125 C0,0.587626261 0.596953656,0 1.33333334,0 L22.6666667,0 C23.0202887,0 23.3594272,0.138280855 23.6094757,0.384422345 C23.8595242,0.63056386 24,0.964403357 24,1.3125 L24,15.75 C24,16.4748737 23.4030463,17.0625 22.6666667,17.0625 L13.3333333,17.0625 Z M8.42550751,6.31436337 L8.42550751,7.67736102 C8.42550751,7.97721493 8.66722286,8.2225531 8.9626655,8.2225531 C9.25809667,8.2225531 9.4998235,7.97721493 9.4998235,7.67736102 L9.4998235,6.31436337 L10.8427185,6.31436337 C11.1381496,6.31436337 11.3798765,6.06902518 11.3798765,5.7691713 C11.3798765,5.4693174 11.1381496,5.22397921 10.8427185,5.22397921 L9.4998235,5.22397921 L9.4998235,3.86098156 C9.4998235,3.56112765 9.25809667,3.31578948 8.9626655,3.31578948 C8.66722286,3.31578948 8.42550751,3.56112765 8.42550751,3.86098156 L8.42550751,5.22397921 L7.08261254,5.22397921 C6.7871814,5.22397921 6.54545455,5.4693174 6.54545455,5.7691713 C6.54545455,6.06902518 6.7871814,6.31436337 7.08261254,6.31436337 L8.42550751,6.31436337 Z M12.9913505,9.31294891 C12.6959192,9.31294891 12.4541924,9.55828708 12.4541924,9.85814098 C12.4541924,10.1579949 12.6959192,10.4033331 12.9913505,10.4033331 L16.7514564,10.4033331 C17.0468875,10.4033331 17.2886144,10.1579949 17.2886144,9.85814098 C17.2886144,9.55828708 17.0468875,9.31294891 16.7514564,9.31294891 L12.9913505,9.31294891 Z M16.590309,3.47934826 C16.3754458,3.26127375 16.053151,3.26127375 15.8382878,3.47934826 L7.24375994,12.2024797 C7.02889675,12.4205659 7.02889675,12.7476834 7.24375994,12.9657579 C7.45862314,13.1838325 7.78091794,13.1838325 7.99578113,12.9657579 L16.590309,4.24262648 C16.8051722,4.02454033 16.8051722,3.67017072 16.590309,3.47934826 L16.590309,3.47934826 Z M16.7514564,11.4937289 L12.9913505,11.4937289 C12.6959192,11.4937289 12.4541924,11.739067 12.4541924,12.038921 C12.4541924,12.3387864 12.6959192,12.5841246 12.9913505,12.5841246 L16.7514564,12.5841246 C17.0468875,12.5841246 17.2886144,12.3387864 17.2886144,12.038921 C17.2886144,11.739067 17.046899,11.4937289 16.7514564,11.4937289 L16.7514564,11.4937289 Z" id="形状" fill="#346bf6"></path>
        </g>
    </g>
</svg>