<!--?xml version="1.0" encoding="UTF-8"?-->
<svg width="32px" height="32px" viewBox="0 0 32 32" version="1.1" xmlns="http://www.w3.org/2000/svg" xmlns:xlink="http://www.w3.org/1999/xlink">
    <title>1474-电脑</title>
    <g id="1474-电脑" stroke="none" stroke-width="1" fill="none" fill-rule="evenodd">
        <g id="编组" transform="translate(4.000000, 5.000000)" fill="#000000" fill-rule="nonzero">
            <path d="M1.6,16.0064777 C1.6,16.0016777 8.52800001,16.0000777 22.3888,16.0000777 C22.3952,16.0000777 22.4,11.1984777 22.4,1.59367765 C22.4,1.59847766 15.472,1.60007767 1.6112,1.60007767 C1.60479999,1.60007767 1.6,6.40167765 1.6,16.0064777 Z M12.8,17.6000777 L12.8,20.8000777 L17.6,20.8000777 L17.6,22.4000777 L6.39999999,22.4000777 L6.39999999,20.8000777 L11.2,20.8000777 L11.2,17.6000777 L1.6112,17.6000777 C1.18615126,17.6026307 0.777520666,17.4361162 0.475314354,17.137211 C0.173108042,16.8383059 0.00211548816,16.4315288 0,16.0064777 L0,1.59367765 C0.00169031102,1.16849391 0.172547454,0.761468523 0.474846697,0.462471458 C0.77714594,0.163474392 1.18602333,-0.00290200457 1.6112,3.83199262e-05 L22.3888,3.83199262e-05 C23.2784,3.83199262e-05 24,0.712077676 24,1.59367765 L24,16.0064777 C23.9983097,16.4316614 23.8274526,16.8386868 23.5251533,17.1376839 C23.2228541,17.4366809 22.8139767,17.6030573 22.3888,17.6000777 L12.8,17.6000777 Z M1.6,12.8000777 L1.6,14.4000777 L22.4,14.4000777 L22.4,12.8000777 L1.6,12.8000777 Z" id="形状" fill="#666666"></path>
        </g>
    </g>
</svg>