<!--?xml version="1.0" encoding="UTF-8"?-->
<svg width="32px" height="32px" viewBox="0 0 32 32" version="1.1" xmlns="http://www.w3.org/2000/svg" xmlns:xlink="http://www.w3.org/1999/xlink">
    <title>1881.配置管理</title>
    <g id="1881.配置管理" stroke="none" stroke-width="1" fill="none" fill-rule="evenodd">
        <path d="M28.9,4 C29.5075132,4 30,4.49248678 30,5.1 L30,21.4454545 C30,22.0529678 29.5075132,22.5454545 28.9,22.5454545 L20.9627705,22.5454545 L20.9627705,25.8181818 L22.5741205,25.8181818 C22.9980832,25.8181818 23.3843096,26.0618302 23.5668902,26.4444642 L24.3091417,28 L7.69274251,28 L8.43499406,26.4444642 C8.61757463,26.0618302 9.00380098,25.8181818 9.4277637,25.8181818 L11.0391138,25.8181818 L11.0391138,22.5454545 L3.1,22.5454545 C2.49248678,22.5454545 2,22.0529678 2,21.4454545 L2,5.1 C2,4.49248678 2.49248678,4 3.1,4 L28.9,4 Z M17.663231,6 L14.336769,6 C14.336769,7.31562384 13.2427579,8.38226583 11.8933764,8.38226583 C11.4517468,8.38226583 11.037458,8.26804887 10.6801291,8.06812292 L9,10.9318771 C9.73497342,11.3426509 10.2299555,12.1149574 10.2299555,13 C10.2299555,13.8850426 9.73497342,14.6573491 9,15.0681229 L10.6801291,17.9318771 C11.037458,17.7319511 11.4517468,17.6177342 11.8933764,17.6177342 C13.2427579,17.6177342 14.3365791,18.684191 14.3365791,20 L17.6634209,20 C17.6634209,18.684191 18.7572421,17.6177342 20.1066236,17.6177342 C20.5482532,17.6177342 20.9623522,17.7319511 21.3200608,17.9318771 L23,15.0681229 C22.2650266,14.6573491 21.7698546,13.8850426 21.7698546,13 C21.7698546,12.1149574 22.2650266,11.3426509 23,10.9318771 L21.3200608,8.06812292 C20.9623522,8.26804887 20.5482532,8.38226583 20.1066236,8.38226583 C18.7572421,8.38226583 17.663231,7.31562384 17.663231,6 Z M16,10 C17.6568542,10 19,11.3431458 19,13 C19,14.6568542 17.6568542,16 16,16 C14.3431458,16 13,14.6568542 13,13 C13,11.3431458 14.3431458,10 16,10 Z" id="形状结合" fill="#666666"></path>
    </g>
</svg>