<!--?xml version="1.0" encoding="UTF-8"?-->
<svg width="32px" height="32px" viewBox="0 0 32 32" version="1.1" xmlns="http://www.w3.org/2000/svg" xmlns:xlink="http://www.w3.org/1999/xlink">
    <title>572.委托代销退货@1x</title>
    <g id="572.委托代销退货" stroke="none" stroke-width="1" fill="none" fill-rule="evenodd">
        <g id="编组" transform="translate(4.000000, 6.000000)" fill="#000000" fill-rule="nonzero">
            <path d="M21.0653472,10.4138139 L21.1215547,10.4709994 L21.1215547,10.4709994 L21.2893123,10.6385459 C21.9595308,11.3034628 23.6602915,12.9544052 24,13.2435446 L24,18.1674117 C24,18.9169644 23.4030492,19.5245967 22.6666667,19.5245967 L7.6974105,19.5245967 C7.6974105,19.5245967 7.25341264,19.6684584 6.87474773,19.335948 C4.62698078,17.3153071 2.38608908,15.2867558 0.152112869,13.2503306 C-0.155263458,12.8918527 0.0925457649,12.2862828 0.126953104,12.2071334 L0.137554974,12.1863603 C0.22831508,12.028387 1.23934584,10.4121982 3.67742953,12.1985122 C5.09987075,13.3087742 6.52475645,14.4157875 7.952076,15.5195438 L14.6800441,15.5195438 L16.7947008,15.2386066 C16.7947008,15.2386066 16.4160359,13.6995588 15.9413715,13.6669863 C15.4550579,13.6314852 14.8237811,13.5836416 14.1820268,13.5303782 L13.6325222,13.4835581 C12.7228603,13.4038503 11.8702329,13.3171183 11.4667259,13.2435446 C10.5987301,13.0494672 10.0813992,12.3165873 10.064066,11.4832756 C10.0396216,10.2939292 11.2531807,10.0853251 11.4556103,10.0588171 L11.4840592,10.0554876 L11.4840592,10.0554876 L20.3586839,10.0554876 C20.3586839,10.0554876 20.7186822,10.047374 21.0653472,10.4138139 Z M22.6665594,0 C23.4029356,0 23.9998864,0.607632412 23.9998864,1.357185 L23.9998864,9.50029494 C23.9998864,10.2498475 23.4029356,10.8574799 22.6665594,10.8574799 L22.6476212,10.8586042 C22.1741363,10.2869368 21.3468505,9.39287316 20.6706535,9.28966721 L20.5457605,9.27985581 L11.262751,9.27985581 C10.2466065,9.27985581 9.38495315,9.94131112 9.0848745,10.8571382 L2.17332304,10.8574799 C1.82830501,10.7964871 1.4760202,10.7909916 1.12932799,10.8411937 C0.479573875,10.7387969 1.39488668e-09,10.1695552 1.39488668e-09,9.50029494 L1.39488668e-09,1.357185 C1.39488668e-09,0.607632412 0.596950842,0 1.33333333,0 L22.6665594,0 Z M12,1.14566121 C11.7294932,1.14566121 11.5102041,1.3649503 11.5102041,1.63545714 L11.5102041,6.38264223 L9.55151022,4.41914263 C9.37152373,4.23871457 9.07935013,4.23835657 8.89892204,4.41834303 L8.8981225,4.41914263 C8.71756507,4.60014302 8.71756507,4.89313306 8.8981225,5.0741335 L11.1642907,7.34586186 C11.385746,7.56786062 11.6864303,7.69262401 12,7.69262401 C12.3135697,7.69262401 12.614254,7.56786062 12.8357093,7.34586186 L15.1018775,5.0741335 C15.2824349,4.89313306 15.2824349,4.60014302 15.1018775,4.41914263 C14.9218911,4.23871457 14.6297174,4.23835657 14.4492894,4.41834303 C14.4490226,4.41860921 14.448756,4.41887576 14.4484898,4.41914263 L12.4897959,6.38264223 L12.4897959,1.63545714 C12.4897959,1.3649503 12.2705068,1.14566121 12,1.14566121 Z" id="形状" fill="#666666"></path>
        </g>
    </g>
</svg>