<!--?xml version="1.0" encoding="UTF-8"?-->
<svg width="32px" height="32px" viewBox="0 0 32 32" version="1.1" xmlns="http://www.w3.org/2000/svg" xmlns:xlink="http://www.w3.org/1999/xlink">
    <title>570.委托代销库存查询@1x</title>
    <g id="570.委托代销库存查询" stroke="none" stroke-width="1" fill="none" fill-rule="evenodd">
        <g id="编组" transform="translate(4.000000, 3.000000)" fill="#000000" fill-rule="nonzero">
            <path d="M20.3586839,16.1021982 C20.3586839,16.1021982 20.7186822,16.0939347 21.0653472,16.4671445 C21.4186788,16.8375899 23.6093352,19.0105004 24,19.3491539 L24,24.3639884 C24,25.1273887 23.4030492,25.746247 22.6666667,25.746247 L7.6974105,25.746247 C7.6974105,25.746247 7.25341264,25.8927664 6.87474773,25.5541131 C4.62698078,23.4961413 2.38608908,21.4301129 0.152112869,19.3560652 C-0.155263458,18.9909645 0.0925457649,18.3742068 0.126953104,18.2935952 L0.137554974,18.2724384 C0.22831508,18.1115465 1.23934584,16.4654989 3.67742953,18.2848147 C5.09987075,19.4155885 6.52475645,20.5430537 7.952076,21.6672017 L14.6800441,21.6672017 L16.7947008,21.3810741 C16.7947008,21.3810741 16.4160359,19.8135928 15.9413715,19.7804186 C15.4550579,19.7442616 14.8237811,19.6955341 14.1820268,19.6412867 L13.6325222,19.5936014 C12.7228603,19.5124211 11.8702329,19.4240868 11.4667259,19.3491539 C10.5987301,19.1514908 10.0813992,18.4050712 10.064066,17.5563643 C10.0396216,16.345045 11.2531807,16.1325868 11.4556103,16.1055892 L11.4840592,16.1021982 L20.3586839,16.1021982 Z M17.1301588,0 C17.7683544,0 18.2857143,0.517359844 18.2857143,1.15555556 L18.2860764,6.52701696 C17.2787632,5.55990224 15.889137,4.99431913 14.2857143,4.99431913 C10.9720058,4.99431913 8.28571432,7.73695201 8.28571432,11.1201612 C8.28571432,13.0083477 9.0334495,14.5951489 10.2703432,15.6288392 C9.91067022,15.7681758 9.66213379,16.0040294 9.52512703,16.3355786 L4.58412698,16.3355786 C3.94593127,16.3355786 3.42857142,15.8182188 3.42857142,15.180023 L3.42857142,1.15555556 C3.42857142,0.517359844 3.94593127,0 4.58412698,0 L17.1301588,0 Z M14.2857143,5.83413521 C15.008037,5.83413521 15.6955792,5.98617193 16.3193157,6.26061141 C18.1482389,7.06532446 19.4285715,8.92243592 19.4285715,11.0848569 C19.4285715,12.2921419 18.9546602,13.4617949 18.2426412,14.3804116 L19.5802777,15.5995548 L18.2315511,15.5995548 L17.6015818,15.0810675 C17.5165371,15.1596752 17.4296595,15.2349936 17.3412061,15.3067898 L11.2846019,15.3067898 C10.1231223,14.3440859 9.14285716,12.7313084 9.14285716,11.0848569 C9.14285716,8.18496338 11.4453927,5.83413521 14.2857143,5.83413521 Z M8.35439406,6.41754874 L5.72063494,6.41754874 C5.43054598,6.41754874 5.19038916,6.6313338 5.14912174,6.90994674 L5.14285716,6.99532652 L5.14285716,7.006598 C5.14285716,7.29668693 5.35664222,7.53684375 5.63525515,7.5781112 L5.72063494,7.58437584 L8.35439406,7.58437584 C8.64448302,7.58437584 8.88463974,7.37059075 8.9259072,7.09197776 L8.93217183,7.006598 L8.93217183,6.99532652 C8.93217183,6.67622866 8.67349191,6.41754874 8.35439406,6.41754874 Z M10.2793651,3.50048114 L5.72063494,3.50048114 C5.43054598,3.50048114 5.19038916,3.7142662 5.14912174,3.99287913 L5.14285716,4.07825892 L5.14285716,4.0895304 C5.14285716,4.37961936 5.35664222,4.61977614 5.63525515,4.66104357 L5.72063494,4.66730817 L10.2793651,4.66730817 C10.5694541,4.66730817 10.8096108,4.45352311 10.8508782,4.17491015 L10.8571428,4.0895304 L10.8571428,4.07825892 C10.8571428,3.75916106 10.5984629,3.50048114 10.2793651,3.50048114 Z" id="形状" fill="#346bf6"></path>
        </g>
    </g>
</svg>