<!--?xml version="1.0" encoding="UTF-8"?-->
<svg width="32px" height="32px" viewBox="0 0 32 32" version="1.1" xmlns="http://www.w3.org/2000/svg" xmlns:xlink="http://www.w3.org/1999/xlink">
    <title>597.合同付款@1x</title>
    <g id="597.合同付款" stroke="none" stroke-width="1" fill="none" fill-rule="evenodd">
        <g id="编组" transform="translate(4.000000, 4.000000)" fill="#000000" fill-rule="nonzero">
            <path d="M16.324895,9.34923971 C16.6246885,9.05017483 17.1099775,9.05017483 17.409771,9.34923971 L17.409771,9.34923971 L23.8871898,15.8109132 C23.9594115,15.8829594 24,15.9807804 24,16.0827932 C24,16.2948867 23.8280643,16.4668224 23.6159708,16.4668224 L23.6159708,16.4668224 L21.6665368,16.4663569 L21.6656857,24.5067529 C21.6656857,24.7188463 21.4937499,24.8907821 21.2816564,24.8907821 L21.2816564,24.8907821 L12.4530097,24.8907821 C12.2409162,24.8907821 12.0689805,24.7188463 12.0689805,24.5067529 L12.0689805,24.5067529 L12.0693624,16.4663569 L10.1186952,16.4668224 C10.0166824,16.4668224 9.91886144,16.4262339 9.84681535,16.3540121 C9.69702521,16.2038571 9.69732114,15.9607034 9.84747619,15.8109132 L9.84747619,15.8109132 L16.324895,9.34923971 Z M20.5958428,0 C21.0906145,0 21.4917061,0.401091684 21.4917061,0.895863339 L21.4917061,0.895863339 L21.4917061,11.7244473 L17.142961,7.37482903 L17.0827165,7.3256187 C16.9336134,7.22723414 16.7305995,7.24405889 16.5958057,7.37886833 L16.5958057,7.37886833 L7.54660509,16.7019574 L7.49829877,16.7629279 C7.40211197,16.9134399 7.42153292,17.1157408 7.55470057,17.2449964 C7.62636307,17.3145536 7.72230363,17.3534583 7.82217228,17.3534583 L7.82217228,17.3534583 L10.6907204,17.3534583 L10.6908846,23.6097957 L0.895487758,23.6102471 C0.400923536,23.6102471 0,23.2102981 0,22.716936 L0,22.716936 L0,0.895863339 C0,0.401091684 0.401091684,0 0.895863339,0 L0.895863339,0 L20.5958428,0 Z M19.0971237,14.5970693 L16.9622303,17.2189166 L14.8273369,14.5970693 L14.0847653,15.1214388 L15.9411944,17.3937064 L13.9919439,17.3937064 L13.9919439,18.2676555 L16.4981231,18.2676555 L16.4981231,19.1416045 L13.9919439,19.1416045 L13.9919439,20.0155537 L16.4981231,20.0155537 L16.4981231,22.3752162 L17.4263376,22.3752162 L17.4263376,20.0155537 L19.7468738,20.0155537 L19.7468738,19.1416045 L17.4263376,19.1416045 L17.4263376,18.2676555 L19.7468738,18.2676555 L19.7468738,17.3937064 L17.9832663,17.3937064 L19.8396953,15.1214388 L19.0971237,14.5970693 Z M5.00080879,3.81725768 C4.03739104,3.81725768 3.0739733,4.60364234 3.0739733,5.78321929 C3.0739733,6.37300776 3.45934041,6.96279627 3.65202396,7.15939245 L3.65202396,7.15939245 L3.65202396,9.12535406 C3.65202396,9.32195017 3.84470749,9.51854638 4.03739104,9.32195017 L4.03739104,9.32195017 L5.00080879,8.14237327 L5.96422653,9.32195017 C6.15691009,9.51854638 6.34959362,9.32195017 6.34959362,9.12535406 L6.34959362,9.12535406 L6.34959362,7.15939245 C6.73496078,6.76620011 6.92764434,6.37300776 6.92764434,5.78321929 C6.92764434,4.8002385 6.15691009,3.81725768 5.00080879,3.81725768 Z M18.7299525,3.94897657 L9.13324729,3.94897657 L9.13324729,5.07810226 L18.7299525,5.07810226 L18.7299525,3.94897657 Z" id="形状" fill="#346bf6"></path>
        </g>
    </g>
</svg>