<!--?xml version="1.0" encoding="UTF-8"?-->
<svg width="32px" height="32px" viewBox="0 0 32 32" version="1.1" xmlns="http://www.w3.org/2000/svg" xmlns:xlink="http://www.w3.org/1999/xlink">
    <title>1473-复制</title>
    <g id="1473-复制" stroke="none" stroke-width="1" fill="none" fill-rule="evenodd">
        <g id="编组" transform="translate(5.000000, 4.000000)" fill="#000000" fill-rule="nonzero">
            <path d="M1.71428744,22.2857143 L15.4285732,22.2857143 L15.4285732,6.85714284 L1.71428744,6.85714284 L1.71428744,22.2857143 Z M8.59432541e-07,6.85028572 C8.59432541e-07,5.90742857 0.781715998,5.14285713 1.705716,5.14285713 L15.4371446,5.14285713 C16.3800017,5.14285713 17.1428589,5.90571428 17.1428589,6.85028572 L17.1428589,22.2925714 C17.1428589,23.2354286 16.3611446,24 15.4371446,24 L1.705716,24 C1.25303527,24 0.81892017,23.8200563 0.498987368,23.4998019 C0.179054567,23.1795476 -0.000453234268,22.7452519 8.59432541e-07,22.2925714 L8.59432541e-07,6.85028572 L8.59432541e-07,6.85028572 Z M3.42857313,10.2857143 L3.42857313,12 L13.7142874,12 L13.7142874,10.2857143 L3.42857313,10.2857143 Z M3.42857313,13.7142857 L3.42857313,15.4285714 L13.7142874,15.4285714 L13.7142874,13.7142857 L3.42857313,13.7142857 Z M3.42857313,17.1428572 L3.42857313,18.8571429 L10.285716,18.8571429 L10.285716,17.1428572 L3.42857313,17.1428572 Z M19.0045732,18.8571463 L19.0045732,17.1428572 L20.5680017,17.1428572 C20.5714303,17.1428572 20.5731446,12 20.5714303,1.71771427 L6.84857315,1.71428572 C6.86057314,1.71428572 6.86228743,2.376 6.85714457,3.69942857 L5.14285885,3.69942857 L5.14285885,1.71942856 C5.14285885,0.771428572 5.92457315,0 6.84857315,0 L20.5800017,0 C21.5228589,0 22.2857194,0.781714276 22.2857194,1.71771427 L22.2857194,17.1394286 C22.2866286,17.5952739 22.1059487,18.0327117 21.7836168,18.3550436 C21.4612848,18.6773756 21.023847,18.8580555 20.5680017,18.8571463 L19.0045732,18.8571463 Z" id="形状" fill="#666666"></path>
        </g>
    </g>
</svg>