<!--?xml version="1.0" encoding="UTF-8"?-->
<svg width="32px" height="32px" viewBox="0 0 32 32" version="1.1" xmlns="http://www.w3.org/2000/svg" xmlns:xlink="http://www.w3.org/1999/xlink">
    <title>1804.企业所得税</title>
    <g id="1804.企业所得税" stroke="none" stroke-width="1" fill="none" fill-rule="evenodd">
        <path d="M26.5,20 C29.5375661,20 32,22.4624339 32,25.5 C32,28.5375661 29.5375661,31 26.5,31 C23.4624339,31 21,28.5375661 21,25.5 C21,22.4624339 23.4624339,20 26.5,20 Z M27,2.75 C27.5522847,2.75 28,3.19771525 28,3.75 L28.000839,18.9241301 C27.519064,18.8102586 27.0165691,18.75 26.5,18.75 C22.9101491,18.75 20,21.6601491 20,25.25 C20,26.9969007 20.6891263,28.5828473 21.8103588,29.7508195 L3,29.75 C2.44771525,29.75 2,29.3022847 2,28.75 L2,8.75 C2,8.19771525 2.44771525,7.75 3,7.75 L12,7.75 L12,3.75 C12,3.19771525 12.4477153,2.75 13,2.75 L27,2.75 Z M27.4872043,22.9507582 L26.5371098,24.6917431 C26.507237,24.7459553 26.4900502,24.806193 26.4868339,24.8679537 C26.479565,24.8079093 26.463816,24.7472615 26.4338321,24.6917431 L25.4982753,22.9507582 C25.3953004,22.7591593 25.1663328,22.6930803 24.9870354,22.8041172 C24.807738,22.915154 24.7465589,23.1607626 24.8501395,23.3529649 L25.6645494,24.8679537 L24.7932004,24.8679537 C24.5650914,24.8765415 24.3846154,25.0632631 24.3846154,25.2906781 C24.3846154,25.5180932 24.5650914,25.7048147 24.7932004,25.7134026 L26.0670599,25.7134026 L26.0670599,26.5591531 L24.7932004,26.5591531 C24.5650914,26.5677409 24.3846154,26.7544625 24.3846154,26.9818775 C24.3846154,27.2092926 24.5650914,27.3960141 24.7932004,27.4046019 L26.0670599,27.4046019 L26.0670599,28.2925948 C26.0670599,28.5025992 26.2569577,28.6730769 26.4919826,28.6730769 C26.7264018,28.6730769 26.9166024,28.5022975 26.9166024,28.2925948 L26.9166024,27.4046019 L28.1904619,27.4046019 C28.4185709,27.3960141 28.599047,27.2092926 28.599047,26.9818775 C28.599047,26.7544625 28.4185709,26.5677409 28.1904619,26.5591531 L26.9166024,26.5591531 L26.9166024,25.7134026 L28.1904619,25.7134026 C28.425184,25.7134026 28.6153846,25.5236141 28.6153846,25.2906781 C28.6153846,25.0574405 28.425184,24.8679537 28.1904619,24.8679537 L27.319113,24.8679537 L28.1456376,23.3529649 C28.2507325,23.1610643 28.1883419,22.915154 28.0069244,22.8041172 C27.8245983,22.6927786 27.592602,22.7588576 27.4872043,22.9507582 Z M7.18181818,17.75 L5.81818182,17.75 C5.36631248,17.75 5,18.1163125 5,18.5681818 C5,19.0200512 5.36631248,19.3863636 5.81818182,19.3863636 L7.18181818,19.3863636 C7.63368752,19.3863636 8,19.0200512 8,18.5681818 C8,18.1163125 7.63368752,17.75 7.18181818,17.75 Z M22,14.75 L18,14.75 C17.4477153,14.75 17,15.1977153 17,15.75 C17,16.3022847 17.4477153,16.75 18,16.75 L22,16.75 C22.5522847,16.75 23,16.3022847 23,15.75 C23,15.1977153 22.5522847,14.75 22,14.75 Z M7.18181818,14.75 L5.81818182,14.75 C5.36631248,14.75 5,15.1163125 5,15.5681818 C5,16.0200512 5.36631248,16.3863636 5.81818182,16.3863636 L7.18181818,16.3863636 C7.63368752,16.3863636 8,16.0200512 8,15.5681818 C8,15.1163125 7.63368752,14.75 7.18181818,14.75 Z M7.18181818,11.75 L5.81818182,11.75 C5.36631248,11.75 5,12.1163125 5,12.5681818 C5,13.0200512 5.36631248,13.3863636 5.81818182,13.3863636 L7.18181818,13.3863636 C7.63368752,13.3863636 8,13.0200512 8,12.5681818 C8,12.1163125 7.63368752,11.75 7.18181818,11.75 Z M22,10.75 L18,10.75 C17.4477153,10.75 17,11.1977153 17,11.75 C17,12.3022847 17.4477153,12.75 18,12.75 L22,12.75 C22.5522847,12.75 23,12.3022847 23,11.75 C23,11.1977153 22.5522847,10.75 22,10.75 Z M22,6.75 L18,6.75 C17.4477153,6.75 17,7.19771525 17,7.75 C17,8.30228475 17.4477153,8.75 18,8.75 L22,8.75 C22.5522847,8.75 23,8.30228475 23,7.75 C23,7.19771525 22.5522847,6.75 22,6.75 Z" id="形状结合" fill="#666666"></path>
    </g>
</svg>