<!--?xml version="1.0" encoding="UTF-8"?-->
<svg width="32px" height="32px" viewBox="0 0 32 32" version="1.1" xmlns="http://www.w3.org/2000/svg" xmlns:xlink="http://www.w3.org/1999/xlink">
    <title>1851.成本数据库</title>
    <g id="1851.成本数据库" stroke="none" stroke-width="1" fill="none" fill-rule="evenodd">
        <path d="M24.1844925,15.8221585 C28.5008781,15.8221585 32,19.219834 32,23.4110792 C32,27.6023244 28.5008781,31 24.1844925,31 C19.8681069,31 16.368985,27.6023244 16.368985,23.4110792 C16.368985,19.219834 19.8681069,15.8221585 24.1844925,15.8221585 Z M4.02048324,23.238693 C6.31518734,24.6293436 10.1149489,25.5796955 14.8848613,25.7093291 C15.2271539,27.0066078 15.8590425,28.1905463 16.7099326,29.1926178 C16.480555,29.1959482 16.2477712,29.1975863 16.0122893,29.1975863 C8.72424596,29.1975863 4.02048324,27.6461585 4.02048324,25.7245036 L4.02048324,23.238693 Z M26.0081567,18.6947596 L24.2530456,21.6689338 C24.1978615,21.7615459 24.1661122,21.8644518 24.1601707,21.9699594 C24.146743,21.8673839 24.1176497,21.7637774 24.0622604,21.6689338 L22.3340047,18.6947596 C22.143779,18.3674458 21.7208068,18.2545612 21.3895904,18.4442486 C21.058374,18.633936 20.9453576,19.0535162 21.1367022,19.3818609 L22.6411631,21.9699594 L21.0315186,21.9699594 C20.6101325,21.9846302 20.2767388,22.3036119 20.2767388,22.6921115 C20.2767388,23.0806112 20.6101325,23.3995929 21.0315186,23.4142637 L23.3847215,23.4142637 L23.3847215,24.8590835 L21.0315186,24.8590835 C20.6101325,24.8737543 20.2767388,25.192736 20.2767388,25.5812356 C20.2767388,25.9697352 20.6101325,26.288717 21.0315186,26.3033878 L23.3847215,26.3033878 L23.3847215,27.8203712 C23.3847215,28.1791278 23.73552,28.4703597 24.169682,28.4703597 C24.602725,28.4703597 24.9540829,28.1786123 24.9540829,27.8203712 L24.9540829,26.3033878 L27.3072858,26.3033878 C27.728672,26.288717 28.0620657,25.9697352 28.0620657,25.5812356 C28.0620657,25.192736 27.728672,24.8737543 27.3072858,24.8590835 L24.9540829,24.8590835 L24.9540829,23.4142637 L27.3072858,23.4142637 C27.7408883,23.4142637 28.0922463,23.0900426 28.0922463,22.6921115 C28.0922463,22.293665 27.7408884,21.9699594 27.3072858,21.9699594 L25.6976413,21.9699594 L27.2244817,19.3818609 C27.4186238,19.0540316 27.3033694,18.633936 26.9682366,18.4442486 C26.6314254,18.2540458 26.2028582,18.3669304 26.0081567,18.6947596 Z M4.02048324,18.4575522 C6.32901764,19.8565842 10.1608063,20.8099943 14.9712124,20.9304427 C14.7275508,21.7364683 14.5966196,22.5895735 14.5966196,23.4723728 C14.5966196,23.7848568 14.6130245,24.0936204 14.6450438,24.3978958 C8.1413601,24.2163209 4.02048324,22.7420162 4.02048324,20.9433627 L4.02048324,18.4575522 Z M4.02048324,13.6764113 C6.49321225,15.1749496 10.7135843,16.1622218 16.0122893,16.1622218 C16.8987194,16.1622218 17.7549706,16.1345915 18.5779093,16.0815594 C17.2506853,16.9773141 16.177025,18.2012745 15.480533,19.6322211 C8.49593294,19.5588406 4.02048324,18.0366597 4.02048324,16.1622218 L4.02048324,13.6764113 Z M28.0040954,13.6764113 L28.0045808,15.421132 C27.3328649,15.0947115 26.614609,14.8452163 25.8620622,14.6845404 C26.6761043,14.3854223 27.393399,14.0465093 28.0040954,13.6764113 Z M27.9836122,8.797566 L27.9836122,11.2833765 C27.9836122,13.2050314 23.2798495,14.7564593 15.9918061,14.7564593 C8.7037627,14.7564593 4,13.2050314 4,11.2833765 L4,8.797566 C6.47272902,10.2961043 10.6931011,11.2833765 15.9918061,11.2833765 C21.2905111,11.2833765 25.5108832,10.2961043 27.9836122,8.797566 Z M15.9918061,3 C22.6146977,3 27.9836122,4.55495212 27.9836122,6.47308276 C27.9836122,8.3912134 22.6146977,9.94616551 15.9918061,9.94616551 C9.36891448,9.94616551 4.00000001,8.3912134 4.00000001,6.47308276 C4.00000001,4.55495212 9.36891448,3 15.9918061,3 Z" id="形状结合" fill="#666666" fill-rule="nonzero"></path>
    </g>
</svg>