<!--?xml version="1.0"?-->
<svg xmlns="http://www.w3.org/2000/svg" class="icon" style="vertical-align:middle;fill:currentColor;overflow:hidden;" viewBox="0 0 1024 1024" version="1.1" width="200px" height="200px"><path d="M301.467597 105.676328L301.467597 192.028986L698.519691 192.028986L698.519691 105.676328L830.870388 105.676328C855.222916 105.676328 874.987288 125.321558 874.987288 148.852657L875.004866 581.191C836.978366 524.601209 772.194216 487.121841 698.516384 486.422988L698.519691 364.734299L654.402791 364.734299L654.38675 490.489113C600.059659 501.176734 553.132772 532.180581 522.040694 575.157575L522.052094 321.557971L477.935194 321.557971L477.935194 753.321256L489.414556 753.343588C498.221381 785.871297 514.65565 815.313544 536.705228 839.680025L169.116899 839.673913C144.764371 839.673913 125 820.028684 125 796.497584L125 148.852657C125 125.019324 145.073189 105.676328 169.116899 105.676328L301.467597 105.676328zM345.584496 494.263284L301.467597 494.263284L301.467597 753.321256L345.584496 753.321256L345.584496 494.263284zM654.402791 62.5L654.402791 148.852657L345.584496 148.852657L345.584496 62.5L654.402791 62.5zM696.418884 521.739131C795.039488 521.739131 874.987288 600.819272 874.987288 698.369566C874.987288 795.919859 795.039488 875 696.418884 875C597.798281 875 517.850484 795.919859 517.850484 698.369566C517.850484 600.819272 597.798281 521.739131 696.418884 521.739131zM756.629672 592.311216L696.607847 636.0536L636.612931 592.311216L613.383844 609.574525L685.006756 659.292512L689.843034 662.856569L613.383844 662.883303L613.383844 686.407334L684.703288 686.407294L684.703288 733.433978L613.383844 733.455391L613.383844 756.979419L684.703288 756.947319L684.730237 827.551506L707.2573 827.551506L707.227472 756.947319L779.858759 756.979419L779.858759 733.455391L707.227472 733.433978L707.227472 686.407294L779.858759 686.407334L779.858759 662.883303L703.372659 662.856569L708.235847 659.292512L779.858759 609.574525L756.629672 592.311216z" fill="#666666"></path></svg>
