<!--?xml version="1.0" encoding="UTF-8"?-->
<svg width="32px" height="32px" viewBox="0 0 32 32" version="1.1" xmlns="http://www.w3.org/2000/svg" xmlns:xlink="http://www.w3.org/1999/xlink">
    <title>373.成本核算设置@1x</title>
    <g id="373.成本核算设置" stroke="none" stroke-width="1" fill="none" fill-rule="evenodd">
        <g id="编组" transform="translate(4.000000, 4.000000)" fill="#000000" fill-rule="nonzero">
            <path d="M19.0443999,11 C19.0443999,12.222 20.0597,13.2126 21.3129,13.2126 C21.7236999,13.2126 22.1085,13.106 22.44,12.9201 L24,15.5799 C23.2985772,15.9648278 22.8611131,16.6999069 22.8573,17.5 C22.8573,18.3216 23.3175,19.0392 24,19.4201 L22.44,22.0799 C22.0955703,21.8874321 21.707457,21.7867106 21.3129,21.7874 C20.0597,21.7874 19.0443999,22.7780001 19.0443999,24 L15.9555999,24 C15.9555999,22.7780001 14.9403,21.7874 13.6871,21.7874 C13.2925357,21.7866524 12.9044077,21.8873776 12.56,22.0799 L11,19.4201 C11.6825,19.0392 12.1427,18.3216 12.1427,17.5 C12.1427,16.6784 11.6825,15.9608 11,15.5799 L12.56,12.9201 C12.8915,13.106 13.2762999,13.2126 13.6871,13.2126 C14.9403,13.2126 15.9555999,12.222 15.9555999,11 L19.0443999,11 Z M0,16.6114117 C1.50018752,17.4299411 2.55018749,18.0861176 4.2,18.5772353 C5.72512502,18.9939412 7.57312499,19.2929411 9.37912499,19.3754705 C9.6727104,20.7197427 10.2943349,21.9645103 11.185125,22.9918823 C10.954125,22.9972941 10.72575,23 10.5,23 C7.94981251,23 5.39962499,22.5088824 3.29962499,21.8527059 C1.19962499,21.1978824 0,20.215647 0,19.0697059 L0,16.6114117 Z M17.5233999,15.3576 C16.3248,15.3576 15.3485,16.3326 15.3485,17.5338 C15.3485,18.7324 16.3235,19.7087 17.5233999,19.7087 C18.722,19.7087 19.6983,18.7337 19.6983,17.5338 C19.6983,16.3339 18.7233,15.3576 17.5233999,15.3576 Z M0,11.5 C1.50018752,12.3198824 2.55018749,12.9747059 4.2,13.4671765 C5.96662499,13.9122942 7.85662499,14.2221176 9.87,14.2775883 C9.38393149,15.3987581 9.15187958,16.6192899 9.1914375,17.8466471 C7.1930023,17.7121392 5.21613741,17.3417169 3.29962499,16.742647 C1.19962499,16.0864706 0,15.1055883 0,13.9582941 L0,11.5 Z M21,6.38858819 L21,8.58035299 C21,9.05117638 20.67975,9.57070589 20.08125,10.0888824 C19.1244263,9.6795081 18.0984674,9.46937341 17.0624999,9.47058819 C14.461125,9.47058819 12.15375,10.7707647 10.7191875,12.7758235 L10.5,12.7771764 C7.94981251,12.7771764 5.39962499,12.2305882 3.29962499,11.5 C1.19962499,10.5867647 0,9.49358819 0,8.3963529 L0,6.38858819 C1.50018752,7.11917651 2.55018749,8.03105882 4.2,8.3963529 C6.15037501,8.94429411 8.25037501,9.30958819 10.5,9.30958819 C12.7496249,9.30958819 14.849625,8.94429411 16.8,8.3963529 C18.4498125,8.03105882 19.4998125,7.11917651 21,6.38858819 Z M10.5,0 C12.9346875,0 15.673875,0.489764736 17.6531249,1.1432353 C19.7806875,1.95770589 21,2.93588234 21,3.91541178 C21,4.89494118 19.93425,5.8717647 17.6531249,6.5252353 L17.6518124,6.5252353 C15.673875,7.34105882 12.9346875,7.6671177 10.5,7.6671177 C7.9130625,7.6671177 5.32612502,7.34105882 3.34687501,6.5252353 C1.0670625,5.8717647 0,4.89494118 0,3.91405882 C0,2.9372353 1.218,1.95770589 3.34687501,1.1432353 C5.3274375,0.327411776 7.91437501,0 10.5,0 Z" id="形状" fill="#346bf6"></path>
        </g>
    </g>
</svg>