<!--?xml version="1.0"?-->
<svg xmlns="http://www.w3.org/2000/svg" class="icon" style="vertical-align:middle;fill:currentColor;overflow:hidden;" viewBox="0 0 1024 1024" version="1.1" width="200px" height="200px"><path d="M562.5 343.75C614.276695 343.75 656.25 385.723305 656.25 437.5L656.25 812.5C656.25 864.276694 614.276695 906.25 562.5 906.25L187.5 906.25C135.723305 906.25 93.75 864.276694 93.75 812.5L93.75 437.5C93.75 385.723305 135.723305 343.75 187.5 343.75zM562.5 406.25L187.5 406.25C170.241102 406.25 156.25 420.241102 156.25 437.5L156.25 812.5C156.25 829.7589 170.241102 843.75 187.5 843.75L562.5 843.75C579.758898 843.75 593.75 829.7589 593.75 812.5L593.75 437.5C593.75 420.241102 579.758898 406.25 562.5 406.25zM375 468.75C392.258898 468.75 406.25 482.741102 406.25 500L406.25 593.75L500 593.75C517.258898 593.75 531.25 607.741102 531.25 625C531.25 642.2589 517.258898 656.25 500 656.25L406.25 656.25L406.25 750C406.25 767.2589 392.258898 781.25 375 781.25C357.741102 781.25 343.75 767.2589 343.75 750L343.75 656.25L250 656.25C232.741102 656.25 218.75 642.2589 218.75 625C218.75 607.741102 232.741102 593.75 250 593.75L343.75 593.75L343.75 500C343.75 482.741102 357.741102 468.75 375 468.75zM812.5 93.75C864.276694 93.75 906.25 135.723305 906.25 187.5L906.25 562.5C906.25 614.276695 864.276694 656.25 812.5 656.25L750 656.25C732.7411 656.25 718.75 642.2589 718.75 625C718.75 607.741102 732.7411 593.75 750 593.75L812.5 593.75C829.7589 593.75 843.75 579.758898 843.75 562.5L843.75 187.5C843.75 170.241102 829.7589 156.25 812.5 156.25L437.5 156.25C420.241102 156.25 406.25 170.241102 406.25 187.5L406.25 250C406.25 267.258898 392.258898 281.25 375 281.25C357.741102 281.25 343.75 267.258898 343.75 250L343.75 187.5C343.75 135.723305 385.723305 93.75 437.5 93.75L812.5 93.75z" fill="#666666"></path></svg>
