<!--?xml version="1.0" encoding="UTF-8"?-->
<svg width="32px" height="32px" viewBox="0 0 32 32" version="1.1" xmlns="http://www.w3.org/2000/svg" xmlns:xlink="http://www.w3.org/1999/xlink">
    <title>1842.信用控制管理</title>
    <g id="1842.信用控制管理" stroke="none" stroke-width="1" fill="none" fill-rule="evenodd">
        <path d="M15.9101276,2 L16.9968622,2.3624535 C18.8688124,2.96706693 20.8125202,3.49406057 22.7341991,3.94062854 C22.8186048,3.96024309 22.9028064,3.97964526 22.9866247,3.99880533 L23.9625806,4.21520232 L24.6290113,4.35537986 L25.5288922,4.5326054 L25.915,4.6 L26.0575874,4.6 L26.216227,4.6547944 C27.0716794,4.95026918 27.7152144,5.78381209 27.8113479,6.68033886 L27.8170478,6.78695652 L27.8170478,16.5086957 C27.8170478,17.1389319 27.6090943,18.2591927 27.1841484,19.5348301 C26.8403321,19.2480497 26.6086379,18.7546205 26.4889046,18.0543127 L22.6542508,18.0543127 C22.4764545,18.8675921 22.1913171,19.3951932 21.7988385,19.6371159 C21.4063599,19.8790386 20.7636666,19.8790386 19.8707586,19.6371159 C18.4869466,21.869769 17.8011008,22.9907303 17.8132212,23 C18.3945894,23.5869407 18.8921384,23.7070377 18.8921384,24.5 C18.8921384,25.2266701 18.5324994,25.7718273 17.8132212,26.1354717 C18.3940245,27.1967916 18.837761,28.0066891 19.1444306,28.5651643 C18.2412511,29.0939673 17.3017476,29.5398666 16.3588753,29.8831401 L16.1869523,29.928891 L15.6725252,30.017733 L15.2138261,29.9226717 L15.0819841,29.8857777 C13.0351587,29.1586013 11.122332,27.9546705 9.18891003,26.1868044 L8.8042838,25.8451792 L7.79765281,24.9345638 C6.585598,23.8057517 5.82688362,22.9154106 5.31275272,21.8905661 C4.67267356,20.6701798 4.23975642,19.4322957 3.97436868,18.2374847 C3.81301831,17.5110638 3.74297883,16.9500765 3.72557173,16.5652174 L3.72557173,6.78695652 C3.72557173,5.69457972 4.50486706,4.72556779 5.53848993,4.60656274 L5.72363399,4.59763607 L5.91573612,4.57908669 C5.95314755,4.57449962 5.99318135,4.56917821 6.03572523,4.56314257 L6.48336114,4.4900806 L6.84810587,4.42155468 L7.25961996,4.33830067 L7.71251432,4.24128396 L8.45765526,4.07206561 L9.26558821,3.87731148 L10.118125,3.66027971 L10.9970775,3.42422849 L11.8842575,3.17241598 L12.4712999,2.99739368 L13.0485262,2.81777981 L13.6105474,2.63453976 L14.1519744,2.44863891 L14.6674181,2.26104266 C14.8343033,2.19833527 14.9959598,2.13550621 15.1514894,2.07271637 L15.3316069,2 L15.9101276,2 Z M25.8068243,19 C25.8068243,20.0337044 26.6664045,20.8717803 27.7266329,20.8717803 C28.0736275,20.8717803 28.398991,20.7820384 28.6800477,20.6249537 L30,22.8750463 C29.4225209,23.1977971 29.0334572,23.8046094 29.0334572,24.5 C29.0334572,25.1953906 29.4225209,25.8022029 30,26.1249537 L28.6800477,28.3750463 C28.398991,28.2179616 28.0736275,28.1282197 27.7266329,28.1282197 C26.6664045,28.1282197 25.8069735,28.9661501 25.8069735,30 L23.1930265,30 C23.1930265,28.9661501 22.3335955,28.1282197 21.2733671,28.1282197 C20.9263725,28.1282197 20.6008598,28.2179616 20.3201014,28.3750463 L19,26.1249537 C19.5774791,25.8022029 19.9663936,25.1953906 19.9663936,24.5 C19.9663936,23.8046094 19.5774791,23.1977971 19,22.8750463 L20.3201014,20.6249537 C20.6008598,20.7820384 20.9263725,20.8717803 21.2733671,20.8717803 C22.3335955,20.8717803 23.1931757,20.0337044 23.1931757,19 L25.8068243,19 Z M24.5,23 C23.6715729,23 23,23.6715729 23,24.5 C23,25.3284271 23.6715729,26 24.5,26 C25.3284271,26 26,25.3284271 26,24.5 C26,23.6715729 25.3284271,23 24.5,23 Z M22.1213274,10 C21.8873059,10 21.6663897,10.0927115 21.5003904,10.2597192 C21.5003904,10.2597192 17.3640722,14.4710699 15.2959131,16.5767453 C15.2067063,16.6675703 15.0282927,16.8492203 15.0282927,16.8492203 L12.4971165,14.2691738 C12.3298692,14.1008961 12.1089529,14.0081846 11.8755555,14.0081846 C11.6421581,14.0081846 11.423114,14.1008961 11.2577388,14.2691738 C11.0917396,14.4355465 11.0006272,14.6584351 11.0000032,14.8959289 C10.9993791,15.1353277 11.0911155,15.3613914 11.2583629,15.5315741 L14.4117241,18.7409158 C14.5764753,18.9079235 14.7967675,19 15.0307889,19 C15.2648104,19 15.4851026,18.9079235 15.6498537,18.7409158 L22.7422644,11.5233895 C22.9082636,11.3532068 23,11.1296832 23,10.8915544 C23,10.6534255 22.9088876,10.4292669 22.7422644,10.2609892 C22.5762651,10.0927115 22.3553489,10 22.1213274,10 Z" id="形状结合" fill="#666666" fill-rule="nonzero"></path>
    </g>
</svg>