<!--?xml version="1.0" encoding="UTF-8"?-->
<svg width="32px" height="32px" viewBox="0 0 32 32" version="1.1" xmlns="http://www.w3.org/2000/svg" xmlns:xlink="http://www.w3.org/1999/xlink">
    <title>96.报告币</title>
    <g id="96.报告币" stroke="none" stroke-width="1" fill="none" fill-rule="evenodd">
        <g id="报告币" transform="translate(4.000000, 4.000000)" fill="#000000" fill-rule="nonzero">
            <path d="M12,0 C18.627417,0 24,5.372583 24,12 C24,18.627417 18.627417,24 12,24 C5.372583,24 0,18.627417 0,12 C0,5.372583 5.372583,0 12,0 Z M12,1.71428571 C6.31935686,1.71428571 1.71428571,6.31935686 1.71428571,12 C1.71428571,17.6806431 6.31935686,22.2857143 12,22.2857143 C17.6806431,22.2857143 22.2857143,17.6806431 22.2857143,12 C22.2857143,6.31935686 17.6806431,1.71428571 12,1.71428571 Z M9.17499102,5.63858288 L12.1008939,8.564103 L15.0279285,5.63858288 C15.3369148,5.32959662 15.8231129,5.30582844 16.1593625,5.56727835 L16.2401116,5.63858288 C16.5490979,5.94756913 16.5728661,6.43376717 16.3114161,6.77001677 L16.2401116,6.85076593 L14.2223225,8.86753157 L15.9066082,8.86809737 C16.3799952,8.86809737 16.7637511,9.25185334 16.7637511,9.72524023 C16.7637511,10.1986272 16.3799952,10.5823831 15.9066082,10.5823831 L12.9066082,10.5818173 L12.9066082,13.1532459 L15.9066082,13.1538117 C16.3799952,13.1538117 16.7637511,13.5375676 16.7637511,14.0109545 C16.7637511,14.4843415 16.3799952,14.8680974 15.9066082,14.8680974 L12.9066082,14.8675316 L12.9066082,17.8680974 C12.9066082,18.3414843 12.5228523,18.7252402 12.0494654,18.7252402 C11.5760785,18.7252402 11.1923225,18.3414843 11.1923225,17.8680974 L11.1923225,14.8675316 L8.19232251,14.8680974 C7.71893563,14.8680974 7.33517966,14.4843415 7.33517966,14.0109545 C7.33517966,13.5375676 7.71893563,13.1538117 8.19232251,13.1538117 L11.1923225,13.1532459 L11.1923225,10.5818173 L8.19232251,10.5823831 C7.71893563,10.5823831 7.33517966,10.1986272 7.33517966,9.72524023 C7.33517966,9.25185334 7.71893563,8.86809737 8.19232251,8.86809737 L9.97946537,8.86753157 L7.96280802,6.85076593 C7.62807291,6.51603083 7.62807291,5.97331798 7.96280802,5.63858288 C8.29754315,5.30384777 8.84025592,5.30384777 9.17499102,5.63858288 Z" id="形状" fill="#666666"></path>
        </g>
    </g>
</svg>