<!--?xml version="1.0" encoding="UTF-8"?-->
<svg width="32px" height="32px" viewBox="0 0 32 32" version="1.1" xmlns="http://www.w3.org/2000/svg" xmlns:xlink="http://www.w3.org/1999/xlink">
    <title>1315-自定义</title>
    <g id="1315-自定义" stroke="none" stroke-width="1" fill="none" fill-rule="evenodd">
        <g id="编组" transform="translate(4.000000, 5.000000)" fill="#000000" fill-rule="nonzero">
            <path d="M9.30769229,12 C9.77589749,12 10.1538462,12.3779487 10.1538462,12.8461539 L10.1538462,21.3076923 C10.1538462,21.7758975 9.77589749,22.1538462 9.30769229,22.1538462 L0.846153836,22.1538462 C0.377948721,22.1538462 0,21.7758975 0,21.3076923 L0,12.8461539 C0,12.3779487 0.377948721,12 0.846153836,12 L9.30769229,12 Z M9.2932234,12.9524233 L0.985531097,12.9524233 L0.985531097,21.2601156 L9.2932234,21.2601156 L9.2932234,12.9524233 Z M23.5384615,19.8461538 C23.7933622,19.8461538 24,20.0527916 24,20.3076923 C24,20.562593 23.7933622,20.7692308 23.5384615,20.7692308 L12.4615385,20.7692308 C12.2066378,20.7692308 12,20.562593 12,20.3076923 C12,20.0527916 12.2066378,19.8461538 12.4615385,19.8461538 L23.5384615,19.8461538 Z M23.5384615,13.3846154 C23.7933622,13.3846154 24,13.5912532 24,13.8461538 C24,14.1010545 23.7933622,14.3076923 23.5384615,14.3076923 L12.4615385,14.3076923 C12.2066378,14.3076923 12,14.1010545 12,13.8461538 C12,13.5912532 12.2066378,13.3846154 12.4615385,13.3846154 L23.5384615,13.3846154 Z M9.30769229,0 C9.77589749,0 10.1538462,0.377948721 10.1538462,0.846153836 L10.1538462,9.30769229 C10.1538462,9.77589749 9.77589749,10.1538462 9.30769229,10.1538462 L0.846153836,10.1538462 C0.377948721,10.1538462 0,9.77589749 0,9.30769229 L0,0.846153836 C0,0.377948721 0.377948721,0 0.846153836,0 L9.30769229,0 Z M9.2932234,0.952423296 L0.985531097,0.952423296 L0.985531097,9.2601156 L9.2932234,9.2601156 L9.2932234,0.952423296 Z M23.5384615,7.84615385 C23.7933622,7.84615385 24,8.05279163 24,8.30769231 C24,8.56259298 23.7933622,8.76923077 23.5384615,8.76923077 L12.4615385,8.76923077 C12.2066378,8.76923077 12,8.56259298 12,8.30769231 C12,8.05279163 12.2066378,7.84615385 12.4615385,7.84615385 L23.5384615,7.84615385 Z M23.5384615,1.38461538 C23.7933622,1.38461538 24,1.5912532 24,1.84615385 C24,2.10105449 23.7933622,2.30769231 23.5384615,2.30769231 L12.4615385,2.30769231 C12.2066378,2.30769231 12,2.10105449 12,1.84615385 C12,1.5912532 12.2066378,1.38461538 12.4615385,1.38461538 L23.5384615,1.38461538 Z" id="形状" fill="#346bf6"></path>
        </g>
    </g>
</svg>