<!--?xml version="1.0" encoding="UTF-8"?-->
<svg width="32px" height="32px" viewBox="0 0 32 32" version="1.1" xmlns="http://www.w3.org/2000/svg" xmlns:xlink="http://www.w3.org/1999/xlink">
    <title>1301-客户分类</title>
    <g id="1301-客户分类" stroke="none" stroke-width="1" fill="none" fill-rule="evenodd">
        <g id="编组" transform="translate(6.000000, 4.000000)" fill="#000000" fill-rule="nonzero">
            <path d="M10.2857143,0 C11.5547271,0 12.6627134,0.689437056 13.2555441,1.71418247 L18.8571429,1.71428571 C19.7608815,1.71428571 20.5012844,2.41360954 20.5667265,3.30063228 L20.5714286,3.42857143 L20.5714286,22.2857143 C20.5714286,23.189453 19.8721047,23.9298558 18.985082,23.995298 L18.8571429,24 L1.71428571,24 C0.810547035,24 0.0701441829,23.3006762 0.00470205257,22.4136534 L0,22.2857143 L0,3.42857143 C0,2.52483275 0.699323822,1.7844299 1.58634657,1.71898777 L1.71428571,1.71428571 L7.31588443,1.71418247 C7.9087152,0.689437056 9.01670142,0 10.2857143,0 Z M18.8571429,3.42857143 L1.71428571,3.42857143 L1.71428571,22.2857143 L18.8571429,22.2857143 L18.8571429,3.42857143 Z M13.7142857,14.5714286 C16.0189326,14.5714286 17.8987012,16.3905486 17.9960404,18.6712375 L18,18.8571429 L18,20.5714286 L2.57142857,20.5714286 L2.57142857,18.8571429 C2.57142857,16.552496 4.39054862,14.6727273 6.67123749,14.5753881 L6.85714286,14.5714286 L13.7142857,14.5714286 Z M13.7142857,16.2857143 L6.85714286,16.2857143 C5.48770209,16.2857143 4.36829069,17.3562171 4.29007946,18.7060519 L4.28571429,18.8571429 L16.2857143,18.8571429 C16.2857143,17.5384222 15.2930395,16.451553 14.0141686,16.3030142 L13.8653767,16.2900795 L13.7142857,16.2857143 Z M10.2857143,4.28571429 C12.8893424,4.28571429 15,6.3963719 15,9 C15,11.6036281 12.8893424,13.7142857 10.2857143,13.7142857 C7.68208619,13.7142857 5.57142857,11.6036281 5.57142857,9 C5.57142857,6.3963719 7.68208619,4.28571429 10.2857143,4.28571429 Z M10.2857143,6 C8.62886005,6 7.28571429,7.34314576 7.28571429,9 C7.28571429,10.6568542 8.62886005,12 10.2857143,12 C11.9425685,12 13.2857143,10.6568542 13.2857143,9 C13.2857143,7.34314576 11.9425685,6 10.2857143,6 Z M10.2857143,1.28571429 C9.93067406,1.28571429 9.64285714,1.57353123 9.64285714,1.92857143 C9.64285714,2.28361163 9.93067406,2.57142857 10.2857143,2.57142857 C10.6407545,2.57142857 10.9285714,2.28361163 10.9285714,1.92857143 C10.9285714,1.57353123 10.6407545,1.28571429 10.2857143,1.28571429 Z" id="形状" fill="#346bf6"></path>
        </g>
    </g>
</svg>