<!--?xml version="1.0" encoding="UTF-8"?-->
<svg width="32px" height="32px" viewBox="0 0 32 32" version="1.1" xmlns="http://www.w3.org/2000/svg" xmlns:xlink="http://www.w3.org/1999/xlink">
    <title>1302-客户分类标准</title>
    <g id="1302-客户分类标准" stroke="none" stroke-width="1" fill="none" fill-rule="evenodd">
        <g id="编组" transform="translate(6.000000, 4.000000)" fill="#000000" fill-rule="nonzero">
            <path d="M10.2857143,0 C11.5547271,0 12.6627134,0.689437056 13.2555441,1.71418247 L18.8571429,1.71428571 C19.7608815,1.71428571 20.5012844,2.41360954 20.5667265,3.30063228 L20.5714286,3.42857143 L20.5714286,22.2857143 C20.5714286,23.189453 19.8721047,23.9298558 18.985082,23.995298 L18.8571429,24 L1.71428571,24 C0.810547035,24 0.0701441829,23.3006762 0.00470205257,22.4136534 L0,22.2857143 L0,3.42857143 C0,2.52483275 0.699323822,1.7844299 1.58634657,1.71898777 L1.71428571,1.71428571 L7.31588443,1.71418247 C7.9087152,0.689437056 9.01670142,0 10.2857143,0 Z M18.8571429,3.42857143 L1.71428571,3.42857143 L1.71428571,22.2857143 L18.8571429,22.2857143 L18.8571429,3.42857143 Z M11.1428571,17.1428571 C11.616244,17.1428571 12,17.5266131 12,18 C12,18.4733869 11.616244,18.8571429 11.1428571,18.8571429 L4.28571429,18.8571429 C3.81232737,18.8571429 3.42857143,18.4733869 3.42857143,18 C3.42857143,17.5266131 3.81232737,17.1428571 4.28571429,17.1428571 L11.1428571,17.1428571 Z M16.2857143,12 C16.7591012,12 17.1428571,12.383756 17.1428571,12.8571429 C17.1428571,13.3305297 16.7591012,13.7142857 16.2857143,13.7142857 L4.28571429,13.7142857 C3.81232737,13.7142857 3.42857143,13.3305297 3.42857143,12.8571429 C3.42857143,12.383756 3.81232737,12 4.28571429,12 L16.2857143,12 Z M16.2857143,6.85714286 C16.7591012,6.85714286 17.1428571,7.24089883 17.1428571,7.71428571 C17.1428571,8.1876726 16.7591012,8.57142857 16.2857143,8.57142857 L4.28571429,8.57142857 C3.81232737,8.57142857 3.42857143,8.1876726 3.42857143,7.71428571 C3.42857143,7.24089883 3.81232737,6.85714286 4.28571429,6.85714286 L16.2857143,6.85714286 Z M10.2857143,1.28571429 C9.93067406,1.28571429 9.64285714,1.57353123 9.64285714,1.92857143 C9.64285714,2.28361163 9.93067406,2.57142857 10.2857143,2.57142857 C10.6407545,2.57142857 10.9285714,2.28361163 10.9285714,1.92857143 C10.9285714,1.57353123 10.6407545,1.28571429 10.2857143,1.28571429 Z" id="形状" fill="#666666"></path>
        </g>
    </g>
</svg>