<!--?xml version="1.0" encoding="UTF-8"?-->
<svg width="32px" height="32px" viewBox="0 0 32 32" version="1.1" xmlns="http://www.w3.org/2000/svg" xmlns:xlink="http://www.w3.org/1999/xlink">
    <title>1203-剪切</title>
    <g id="1203-剪切" stroke="none" stroke-width="1" fill="none" fill-rule="evenodd">
        <g id="编组" transform="translate(4.000000, 4.000000)" fill="#000000" fill-rule="nonzero">
            <path d="M18.1242331,0.315741507 C18.4226169,-0.0504627023 18.9610373,-0.106230292 19.3281418,0.191045139 L19.3281418,0.191045139 C19.3308218,0.193215291 19.3314902,0.193758222 19.3321577,0.194302172 C19.6980386,0.49242241 19.7529692,1.03070154 19.454849,1.39658224 L19.454849,1.39658224 L12.2211429,10.2737143 L15.8132294,14.7075243 C16.6654925,14.0807152 17.7180717,13.7103988 18.8571428,13.7103988 C21.6974643,13.7103988 24,16.0129344 24,18.8532559 C24,21.6935774 21.6974643,23.996113 18.8571428,23.996113 C16.0168214,23.996113 13.7142857,21.6935774 13.7142857,18.8532559 C13.7142857,17.775918 14.0455503,16.7759513 14.6117775,15.9496577 L11.1154286,11.6314286 L8.4450056,14.9104085 C9.57025522,15.8538076 10.2857143,17.2699795 10.2857143,18.8532559 C10.2857143,21.6935774 7.98317871,23.996113 5.14285715,23.996113 C2.30253556,23.996113 0,21.6935774 0,18.8532559 C0,16.0129344 2.30253556,13.7103988 5.14285715,13.7103988 C5.77685751,13.7103988 6.38406286,13.8251217 6.94484647,14.0349408 L10.0114286,10.2685715 L2.82885406,1.39821597 C2.53094201,1.03032523 2.58767096,0.490585422 2.9555617,0.192673378 C3.32345243,-0.105238667 3.86319224,-0.0485097229 4.16110429,0.319381014 L11.1188571,8.91085717 L18.1242331,0.315741507 Z M5.14285715,15.4246845 C3.24930944,15.4246845 1.71428573,16.9597082 1.71428573,18.8532559 C1.71428573,20.7468036 3.24930944,22.2818273 5.14285715,22.2818273 C7.03640486,22.2818273 8.57142858,20.7468036 8.57142858,18.8532559 C8.57142858,16.9597082 7.03640486,15.4246845 5.14285715,15.4246845 Z M18.8571428,15.4246845 C16.9635951,15.4246845 15.4285714,16.9597082 15.4285714,18.8532559 C15.4285714,20.7468036 16.9635951,22.2818273 18.8571428,22.2818273 C20.7506906,22.2818273 22.2857143,20.7468036 22.2857143,18.8532559 C22.2857143,16.9597082 20.7506906,15.4246845 18.8571428,15.4246845 Z" id="形状" fill="#666666"></path>
        </g>
    </g>
</svg>