<!--?xml version="1.0"?-->
<svg xmlns="http://www.w3.org/2000/svg" class="icon" style="vertical-align:middle;fill:currentColor;overflow:hidden;" viewBox="0 0 1024 1024" version="1.1" width="200px" height="200px"><path d="M202.540658 195.3125L202.549303 296.875C202.549303 322.917445 221.665753 344.381223 246.293631 347.314607L252.06863 347.65625L351.107285 347.65625C378.456053 347.65625 400.626612 324.92071 400.626612 296.875L400.617966 195.3125L598.695275 195.3125L598.703922 296.875C598.703922 322.917445 617.820372 344.381223 642.44825 347.314607L648.223247 347.65625L747.261903 347.65625C774.610669 347.65625 796.781231 324.92071 796.781231 296.875L796.772584 195.3125L887.980672 195.3125C915.329441 195.3125 937.5 218.04804 937.5 246.09375L937.5 855.46875C937.5 883.514456 915.329441 906.25 887.980672 906.25L112.019327 906.25C84.670558 906.25 62.5 883.514456 62.5 855.46875L62.5 246.09375C62.5 218.04804 84.670558 195.3125 112.019327 195.3125L202.540658 195.3125zM389.781016 452.115247L320.940518 494.671706L252.06863 537.292547L315.290136 547.303938C310.738438 563.528184 308.541068 602.575825 309.357234 620.216475C315.352918 747.950234 455.074328 814.134859 555.902272 790.667644C481.097481 761.824541 406.198516 686.755203 407.768069 600.161503C407.987806 589.506294 409.0551 579.076422 410.844388 568.936266L491.613472 579.68805L440.697244 515.949934L389.781016 452.115247zM687.932881 568.260256C678.766706 440.751838 537.475744 378.172597 437.244231 404.279472C512.708234 431.126738 589.459266 504.264613 590.024306 590.890506C590.087088 601.545716 589.270919 611.975588 587.732759 622.212316L506.71255 613.456372L611.715497 738.389516L679.488703 693.998172L747.261903 649.671209L683.820656 641.33375C687.932881 624.94855 689.219913 585.900906 687.932881 568.260256zM283.31863 93.75H319.857284A31.25 31.25 0 0 1 351.107284 125V265.625A31.25 31.25 0 0 1 319.857284 296.875H283.31863A31.25 31.25 0 0 1 252.06863 265.625V125A31.25 31.25 0 0 1 283.31863 93.75zM679.473247 93.75H716.011901A31.25 31.25 0 0 1 747.261901 125V265.625A31.25 31.25 0 0 1 716.011901 296.875H679.473247A31.25 31.25 0 0 1 648.223247 265.625V125A31.25 31.25 0 0 1 679.473247 93.75z" fill="#666666"></path></svg>
