<!--?xml version="1.0" encoding="UTF-8"?-->
<svg width="32px" height="32px" viewBox="0 0 32 32" version="1.1" xmlns="http://www.w3.org/2000/svg" xmlns:xlink="http://www.w3.org/1999/xlink">
    <title>801.日常处理</title>
    <g id="801.日常处理" stroke="none" stroke-width="1" fill="none" fill-rule="evenodd">
        <g id="编组" transform="translate(2.000000, 1.000000)" fill="#000000" fill-rule="nonzero">
            <path d="M26.3529412,26.3529412 L26.3529412,3.29411765 C26.3529412,2.38447218 25.6155278,1.64705882 24.7058824,1.64705882 L3.29411765,1.64705882 L3.29411765,0 L24.7058824,0 C25.5795367,0 26.4174084,0.347057827 27.0351753,0.964824721 C27.6529422,1.58259161 28,2.42046333 28,3.29411765 L28,26.3529412 L26.3529412,26.3529412 Z M0,4.94282353 C0,4.032 0.739529412,3.29576193 1.65858824,3.29576193 L23.0472941,3.29576193 C23.9630588,3.29411765 24.7058824,4.02541176 24.7058824,4.94117647 L24.7058824,27.9967059 C24.7058824,28.9075294 23.9663529,29.6454324 23.0472941,29.6454324 L1.65858824,29.6454324 C1.22031727,29.6476007 0.799174718,29.4753696 0.488033034,29.1666998 C0.176891349,28.8580299 0.00130673851,28.4382745 0,28 L0,4.94117647 L0,4.94282353 Z M18.1176471,11.8143529 L11.3054118,18.7517647 L11.0122353,19.0498824 L7.94870588,15.5795294 C7.67457803,15.2967524 7.25519648,15.2108031 6.8919337,15.3629512 C6.52867093,15.5150993 6.2957221,15.8742692 6.30494118,16.268 C6.30494118,16.5315294 6.40376471,16.7785882 6.58823529,16.9647059 L10.3336471,21.1268235 C10.5122716,21.3105616 10.7576277,21.4142256 11.0138824,21.4142256 C11.270137,21.4142256 11.5154931,21.3105616 11.6941176,21.1268235 L19.4814118,13.2028235 C19.8602282,12.8181555 19.8602282,12.2006681 19.4814118,11.816 C19.3022168,11.6320717 19.0563181,11.5283346 18.7995294,11.5283346 C18.5427407,11.5283346 18.296842,11.6320717 18.1176471,11.816 L18.1176471,11.8143529 Z" id="形状" fill="#666666"></path>
        </g>
    </g>
</svg>