<!--?xml version="1.0" encoding="UTF-8"?-->
<svg width="32px" height="32px" viewBox="0 0 32 32" version="1.1" xmlns="http://www.w3.org/2000/svg" xmlns:xlink="http://www.w3.org/1999/xlink">
    <title>仪表盘</title>
    <g id="仪表盘" stroke="none" stroke-width="1" fill="none" fill-rule="evenodd">
        <g id="视觉修正模版" transform="translate(-2.000000, -0.500000)"></g>
        <path d="M16,4 C24.5604136,4 31.5,10.9395864 31.5,19.5 C31.5,22.4413604 30.678373,25.2640346 29.1522688,27.7053735 C28.8595215,28.1736869 28.2425599,28.3160115 27.7742465,28.0232642 C27.305933,27.730517 27.1636085,27.1135554 27.4563557,26.645242 C28.6984537,24.6582334 29.4040971,22.3828028 29.4908972,20.0004197 L28,20 C27.4477153,20 27,19.5522847 27,19 C27,18.4477153 27.4477153,18 28,18 L29.4176658,18.0005334 C28.7078678,11.5772698 23.4916563,6.51207873 17.0005905,6.0365192 L17,7.5 C17,8.05228475 16.5522847,8.5 16,8.5 C15.4477153,8.5 15,8.05228475 15,7.5 L15.0004127,6.03644574 C8.50888108,6.51155688 3.29216878,11.5769389 2.58233422,18.0005334 L4,18 C4.55228475,18 5,18.4477153 5,19 C5,19.5522847 4.55228475,20 4,20 L2.50911786,20.0008394 C2.59543732,22.3681004 3.29276212,24.6298418 4.52055084,26.6081656 C4.81178195,27.0774234 4.66746279,27.6939215 4.19820499,27.9851526 C3.72894719,28.2763837 3.11244911,28.1320646 2.82121801,27.6628067 C1.31196481,25.230962 0.5,22.424055 0.5,19.5 C0.5,10.9395864 7.43958638,4 16,4 Z M16.2191873,19.3848454 C18.6261237,17.5821228 22.6607336,14.6537074 22.9795375,15.0336108 C23.4362028,15.5737658 16.0977916,22.6884931 16.0977916,22.6884931 C15.5656774,23.1520589 14.7635351,23.0915938 14.3068698,22.5514389 C13.8502046,22.011284 13.9097697,21.1970205 14.4418838,20.7334547 C14.4418838,20.7334547 15.0057406,20.297773 15.8439846,19.6666112 Z" id="形状结合" fill="#666666" fill-rule="nonzero"></path>
    </g>
</svg>