<!--?xml version="1.0" encoding="UTF-8"?-->
<svg width="32px" height="32px" viewBox="0 0 32 32" version="1.1" xmlns="http://www.w3.org/2000/svg" xmlns:xlink="http://www.w3.org/1999/xlink">
    <title>1739.数据清理</title>
    <g id="1739.数据清理" stroke="none" stroke-width="1" fill="none" fill-rule="evenodd">
        <path d="M21.6015445,20.2393916 L28.5250539,23.7012883 C28.3813132,24.3654228 28.2578436,25.1287958 28.1988731,25.9780483 C28.0938318,27.5276955 28.2357297,28.8674151 28.4292268,29.9056024 C27.8708495,30.0048409 27.2424447,30.0258337 26.5698121,29.9685807 C26.3468297,29.9494964 27.1484605,25.350174 26.9144211,25.3139137 C26.6822247,25.2776535 25.4125153,29.8044555 25.1711047,29.7510194 C24.380531,29.5754436 23.5549435,29.308263 22.7238275,28.9456608 C22.4842597,28.8406971 22.2428491,28.7280995 22.0032813,28.6078683 C21.7618707,28.487637 23.6102284,24.4684781 23.3817176,24.3387047 C23.2674621,24.273818 20.7133009,27.8826639 20.593517,27.8044182 C20.0093401,27.4246401 19.4730768,27.0200524 18.995784,26.5963804 C18.8354579,26.453248 20.5861456,23.8692303 20.4387193,23.722281 C20.3746209,23.65839 19.9513624,24.0555532 19.4824686,24.5126971 L19.0566078,24.9294923 C18.5885501,25.386528 18.1689146,25.7832222 18.111226,25.7185014 C17.7518743,25.3177306 17.2414106,24.9379525 17,24.1478615 C17.831116,23.7260979 18.8815286,23.0791393 19.9411554,22.0982049 C20.6340592,21.4569716 21.1795366,20.8119214 21.6015445,20.2393916 Z M4,19.7272727 C5.64288717,20.5314452 6.79286317,21.1748184 8.76429774,21.6573336 C10.667608,22.0881032 12.7013861,22.3904643 14.8656532,22.4511667 L14.8195607,22.3465805 C15.6239759,24.1254384 16.2763836,25.3075872 16.7767837,25.8930267 L16.8401557,25.9642314 C16.3947878,25.9876398 15.9473939,26 15.5,26 C12.8714406,26 9.75,25.6783134 7.61429172,24.8741703 C5.31427973,24.0707913 4,23.1049087 4,22.1406716 Z M27.520712,13.5675115 C27.7529084,13.0675022 28.3315568,12.8594831 28.8125352,13.0999456 L29.451997,13.4205622 C29.9348182,13.6610247 30.1356866,14.2602725 29.9034901,14.7602819 L27.7731796,19.3290693 L27.9003348,19.3920476 C29.0815883,19.9817533 29.5754665,21.4512463 29.0060323,22.6745516 L28.8217494,23.0695971 L21.9074542,19.6115173 L22.0917371,19.2164718 C22.6611713,17.9931666 24.0801498,17.4817066 25.2614033,18.0714123 L25.3885586,18.136299 Z M4,14.5 C5.6428593,15.3050465 6.79286682,15.9475615 8.60000002,16.430895 C10.7357411,16.9134057 13.035696,17.2350893 15.500015,17.2350893 C17.2705709,17.2350893 18.956354,17.0690253 20.5568131,16.797247 C19.4596136,18.4905736 18.6468035,19.6395558 18.1183829,20.2441937 C17.9931755,20.3874605 17.8431896,20.5327156 17.6680621,20.6806733 C16.951131,20.7401629 16.225558,20.7727273 15.499985,20.7727273 C12.7071182,20.7727273 9.74994749,20.290246 7.61426643,19.6468788 C5.31428144,19.0034822 4,18.039313 4,16.9134057 Z M27,9.27272727 L27,11.244153 C27,11.3736789 26.9809646,11.5031778 26.942574,11.6313453 C26.8937456,11.6788849 26.8491465,11.7320768 26.8097806,11.7906641 L26.1817843,12.7254349 C25.5659081,13.2803205 24.6170843,13.811176 23.3857336,14.2909287 C21.0857186,15.0077959 18.2928518,15.5454545 15.499985,15.5454545 C12.7071182,15.5454545 9.74994749,15.0077959 7.61426643,14.2909287 C5.31428144,13.3948529 4,12.3204525 4,11.4233944 L4,9.27272727 C5.6428593,9.98962723 6.79286682,10.885703 8.60000002,11.244153 C10.7357411,11.7818444 13.035696,12.1402943 15.500015,12.1402943 C17.9642739,12.1402943 20.264319,11.7818116 22.40003,11.244153 C24.2071632,10.885703 25.3571407,9.98962723 27,9.27272727 Z M15.4999848,3 C18.333325,3 21.1666651,3.31221518 23.3333263,4.09074759 C25.6666724,4.86848347 27,5.80353595 27,6.73696692 C27,7.67199096 25.8333269,8.60542192 23.3333263,9.22825922 C21.1666651,10.0067632 18.3333249,10.3181818 15.4999848,10.3181818 C12.8333296,10.3181818 9.83333487,10.0067916 7.66667373,9.22825922 C5.16667307,8.60542192 4,7.67199096 4,6.73696692 C4,5.80353595 5.33335805,4.86848344 7.66667373,4.09074759 C9.83333487,3.46711376 12.8333296,3 15.4999848,3 Z" id="形状结合" fill="#666666" fill-rule="nonzero"></path>
    </g>
</svg>