<!--?xml version="1.0" encoding="UTF-8"?-->
<svg width="32px" height="32px" viewBox="0 0 32 32" version="1.1" xmlns="http://www.w3.org/2000/svg" xmlns:xlink="http://www.w3.org/1999/xlink">
    <title>1719.数据分析</title>
    <g id="1719.数据分析" stroke="none" stroke-width="1" fill="none" fill-rule="evenodd">
        <path d="M28,7 C29.1045695,7 30,7.8954305 30,9 L30,28 C30,29.1045695 29.1045695,30 28,30 L9,30 C7.8954305,30 7,29.1045695 7,28 L7,9 C7,7.8954305 7.8954305,7 9,7 L28,7 Z M13.4164977,20.279725 L13.4026742,20.2796191 C12.9044922,20.2796191 12.5006359,20.6834754 12.5006359,21.1816574 L12.5006359,25.3643255 C12.5006359,25.8825634 12.9123234,26.3070669 13.4303179,26.3229487 C13.4395298,26.3232312 13.4487455,26.3233724 13.4579617,26.3233724 C13.9561437,26.3233724 14.36,25.9195161 14.36,25.4213341 L14.36,21.2386659 C14.36,20.720428 13.9483125,20.2959246 13.4303179,20.2800427 L13.4164977,20.279725 Z M24.48,17.0914957 L24.4523652,17.0910677 C23.9595255,17.0910677 23.56,17.4905932 23.56,17.9834329 L23.56,25.374003 C23.56,25.8868955 23.9673534,26.3070654 24.48,26.3229487 C24.4892088,26.323234 24.4984215,26.3233767 24.5076348,26.3233767 C25.0004745,26.3233767 25.4,25.9238512 25.4,25.4310115 L25.4,18.0404415 C25.4,17.5275489 24.9926466,17.107379 24.48,17.0914957 Z M18.9461843,21.4769012 L18.9323652,21.4767942 C18.4395255,21.4767942 18.04,21.8763197 18.04,22.3691594 L18.04,25.374003 C18.04,25.8868955 18.4473534,26.3070654 18.96,26.3229487 C18.9692088,26.323234 18.9784215,26.3233767 18.9876348,26.3233767 C19.4804745,26.3233767 19.88,25.9238512 19.88,25.4310115 L19.88,22.426168 C19.88,21.9132754 19.4726466,21.4931055 18.96,21.4772222 L18.9461843,21.4769012 Z M22.5880001,2 C23.9201108,2 25,3.07988916 25,4.41199994 L25,5.6378717 L7.62608737,5.6378717 C6.52151787,5.6378717 5.62608737,6.5333022 5.62608737,7.6378717 L5.62608737,25 L4.41199994,25 C3.07988916,25 2,23.9201108 2,22.5880001 L2,4.41199994 C2,3.07988916 3.07988916,2 4.41199994,2 Z M24.280993,11.3009846 L19.1514267,16.0885798 L16.3044278,14.1905805 C16.0503813,14.0212162 15.7184668,14.0249874 15.468334,14.2000803 L11.7627785,16.7939692 C11.4274633,17.0286899 11.3459153,17.4907952 11.5806359,17.8261104 C11.8153565,18.1614256 12.2774619,18.2429736 12.6127771,18.008253 L15.9035309,15.7047253 L18.8172389,17.6471973 C19.103214,17.8378474 19.4827437,17.8068611 19.734007,17.5723487 L25.2923403,12.384571 C25.5915644,12.1052951 25.6077357,11.6363283 25.3284598,11.3371041 C25.049184,11.03788 24.5802171,11.0217088 24.280993,11.3009846 Z" id="形状结合" fill="#666666"></path>
    </g>
</svg>