<!--?xml version="1.0" encoding="UTF-8"?-->
<svg width="32px" height="32px" viewBox="0 0 32 32" version="1.1" xmlns="http://www.w3.org/2000/svg" xmlns:xlink="http://www.w3.org/1999/xlink">
    <title>917.数据分析</title>
    <g id="917.数据分析" stroke="none" stroke-width="1" fill="none" fill-rule="evenodd">
        <g id="编组" transform="translate(2.000000, 6.000000)" fill="#000000" fill-rule="nonzero">
            <path d="M1.47368421,0 L26.5263158,0 C27.3402091,0 28,0.659790895 28,1.47368421 L28,19.1578947 C28,19.9717881 27.3402091,20.6315789 26.5263158,20.6315789 L1.47368421,20.6315789 C0.659790895,20.6315789 0,19.9717881 0,19.1578947 L0,1.47368421 C0,0.659790895 0.659790895,0 1.47368421,0 Z M3.62526316,17.6842105 L24.3747368,17.6842105 C24.7490526,17.6842105 25.0526316,17.4307368 25.0526316,17.1183158 C25.0526316,16.8058947 24.7490526,16.2105263 24.3747368,16.2105263 L4.42105263,16.2105263 L4.30315789,3.51326316 C4.30315789,3.20084211 3.99957895,2.94736842 3.62526316,2.94736842 C3.25094737,2.94736842 2.94736842,3.20084211 2.94736842,3.51326316 L2.94736842,17.1183158 C2.94736842,17.4307368 3.25094737,17.6842105 3.62526316,17.6842105 Z M6.888,14.5143158 C7.00589474,14.588 7.14736842,14.6263158 7.29326316,14.6263158 C7.50989474,14.6263158 7.70736842,14.5437895 7.83705263,14.3993684 L11.8955789,9.87073684 L15.7713684,12.0503158 C15.8873415,12.1141178 16.0177442,12.147099 16.1501053,12.1461053 C16.2996663,12.146856 16.4461781,12.1038246 16.5715789,12.0223158 L22.5311579,5.60294737 C22.6656242,5.5189912 22.757031,5.38080567 22.7816842,5.22421053 C22.8005694,5.071063 22.7478362,4.91775607 22.6387368,4.80863158 C22.4982588,4.66830156 22.3067357,4.59116031 22.1082105,4.59494737 C21.9585637,4.59358486 21.8118791,4.63666706 21.6867368,4.71873684 L16.1162105,10.8787368 L12.1181053,8.62989474 C12.0026173,8.56621386 11.8727207,8.5332323 11.7408421,8.53410526 C11.5356256,8.52936697 11.3380176,8.61183749 11.1970526,8.76105263 L6.75242105,13.72 C6.52842105,13.9705263 6.59031579,14.3242105 6.888,14.5128421 L6.888,14.5143158 Z" id="形状" fill="#666666"></path>
        </g>
    </g>
</svg>