<!--?xml version="1.0" encoding="UTF-8"?-->
<svg width="32px" height="32px" viewBox="0 0 32 32" version="1.1" xmlns="http://www.w3.org/2000/svg" xmlns:xlink="http://www.w3.org/1999/xlink">
    <title>289.数据模型</title>
    <g id="289.数据模型" stroke="none" stroke-width="1" fill="none" fill-rule="evenodd">
        <g id="数据模型" transform="translate(4.000000, 4.000000)" fill="#000000" fill-rule="nonzero">
            <path d="M24,15.7476774 L24,20.2465022 C24,22.3251788 18.6258153,24 12.0061128,24 C5.37388647,24 0.01222557,22.3126423 0.01222557,20.2465022 L0.01222557,20.2465022 L0.01222557,15.7473789 C0.01222557,17.8257571 5.37418467,19.5008769 11.9938872,19.5008769 C18.6135897,19.5008769 23.9874762,17.8257571 24,15.7476774 L24,15.7476774 Z M23.9877744,8.99854487 L23.9877744,13.4976681 C23.9877744,15.5763448 18.6135897,17.2511659 11.9938872,17.2511659 C5.3616609,17.2511659 0,15.5641067 0,13.4976681 L0,13.4976681 L0,8.99854487 C0,11.0772216 5.37418467,12.7520428 11.9938872,12.7520428 C18.6138879,12.7520428 23.9877744,11.0769231 23.9877744,8.99854487 L23.9877744,8.99854487 Z M11.9938872,0 C18.6138879,0 23.9877744,1.67511972 23.9877744,3.75349793 L23.9877744,3.75349793 L23.9877744,6.74913254 C23.9877744,8.82751075 18.6135897,10.5026305 11.9938872,10.5026305 C5.3616609,10.5026305 0,8.81527271 0,6.74883406 L0,6.74883406 L0,3.75349793 C0,1.67482122 5.37418467,0 11.9938872,0 Z" id="形状" fill="#666666"></path>
        </g>
    </g>
</svg>