<!--?xml version="1.0" encoding="UTF-8"?-->
<svg width="32px" height="32px" viewBox="0 0 32 32" version="1.1" xmlns="http://www.w3.org/2000/svg" xmlns:xlink="http://www.w3.org/1999/xlink">
    <title>886.数据采集</title>
    <g id="886.数据采集" stroke="none" stroke-width="1" fill="none" fill-rule="evenodd">
        <g id="编组" transform="translate(2.000000, 4.000000)" fill="#000000" fill-rule="nonzero">
            <path d="M26.9819979,3.29450524 L1.01964937,3.29450524 C0.45958348,3.29450524 0,3.75573597 0,4.32239087 L0,22.0369455 C0,22.6003059 0.457936228,23.0648312 1.01964937,23.0648312 L26.9803506,23.0648312 C27.5404165,23.0648312 28,22.6036004 28,22.0369455 L28,4.32239087 C27.9991234,3.75827517 27.544441,3.29992007 26.9803506,3.29450524 L26.9819979,3.29450524 Z M22.6052477,16.3061537 C22.0938716,16.7802927 21.3551525,16.91752 20.7076127,16.6586657 C20.5049477,16.5743688 20.3187099,16.4550428 20.1574303,16.3061537 C19.8407784,15.9953404 19.6621476,15.5704245 19.6616072,15.1267208 C19.6616072,14.945523 19.6912578,14.7791505 19.7439699,14.6160725 C19.8049182,14.4529945 19.8773973,14.3047417 19.9647017,14.1713143 L16.6487822,11.7251441 L13.0264737,16.3045064 C13.1335451,16.4527591 13.2159078,16.6125427 13.2768561,16.7822097 C13.4897988,17.3832916 13.3312998,18.0533687 12.871632,18.4953524 C12.7144385,18.6486561 12.5278493,18.7685663 12.3230968,18.8478645 C11.8927151,19.0199955 11.412615,19.0199955 10.9822332,18.8478645 C10.7788216,18.7650011 10.5923401,18.6455189 10.4320508,18.4953524 C10.1158056,18.1849398 9.93720909,17.7606989 9.93622779,17.3175668 C9.93622779,17.2154371 9.9428168,17.116602 9.95434757,17.0210613 C9.96862709,16.9319381 9.99581791,16.8453714 10.0350629,16.7640899 L6.91022473,13.667255 C6.86739616,13.667255 6.82950935,13.6721967 6.78832804,13.6771385 C6.5151388,13.6979025 6.24080679,13.6562176 5.98611601,13.5552418 C5.78270441,13.4723784 5.59622287,13.3528962 5.43593364,13.2027297 C5.11728698,12.8967692 4.93716717,12.4741118 4.93716717,12.0323567 C4.93716717,11.5906017 5.11728698,11.1679443 5.43593364,10.8619838 C5.59242264,10.7104365 5.77691493,10.5918343 5.98611601,10.5094717 C6.63365581,10.2506174 7.37237492,10.3878447 7.88375103,10.8619838 C8.33153164,11.2863637 8.49893269,11.9284936 8.31533122,12.5174726 C8.26591364,12.6723144 8.20002353,12.8156254 8.1176609,12.9490528 L10.9509354,15.8053889 C11.0580068,15.7559713 11.1667255,15.7230262 11.2886222,15.6884339 C11.4729055,15.6324596 11.6682513,15.6234 11.8569243,15.6620779 L15.3227439,11.1486057 C14.9564926,10.8384532 14.7470535,10.3815498 14.7511472,9.90163549 C14.752319,9.45124696 14.9351486,9.02037938 15.2582395,8.70659051 C15.5813305,8.39280164 16.0173538,8.22263349 16.4675844,8.23461584 C16.9240185,8.2305706 17.3641238,8.40424976 17.6947876,8.71890811 C18.0171636,9.02839132 18.1987252,9.45640044 18.1971997,9.90328274 C18.1994913,10.1431103 18.1453194,10.3801122 18.0390634,10.5951288 C17.931992,10.8043299 18.0143546,10.7977409 17.8315096,10.9575244 L21.0963643,13.4498176 L21.3895752,13.4498176 C21.8450905,13.4506505 22.2834546,13.6236425 22.6167784,13.9341099 C22.7749398,14.0828734 22.8976616,14.2652671 22.9758795,14.4678197 C23.154241,14.8855502 23.154241,15.3580079 22.9758795,15.7757383 C22.891201,15.9767452 22.7648815,16.1575224 22.6052477,16.3061537 L22.6052477,16.3061537 Z M4.3388634,1.64560537 L24.2343805,1.64560537 C24.5144135,1.64560537 24.7417343,1.46276032 24.7417343,1.23049771 L24.7417343,0.41510766 C24.7417343,0.181197788 24.5144135,0 24.2343805,0 L4.3388634,0 C4.05883045,0 3.29285798,0.184492293 3.29285798,0.41510766 L3.29285798,1.23049771 C3.29285798,1.46440758 4.06212496,1.64725262 4.3388634,1.64725262 L4.3388634,1.64560537 Z" id="形状" fill="#666666"></path>
        </g>
    </g>
</svg>