<!--?xml version="1.0" encoding="UTF-8"?-->
<svg width="32px" height="32px" viewBox="0 0 32 32" version="1.1" xmlns="http://www.w3.org/2000/svg" xmlns:xlink="http://www.w3.org/1999/xlink">
    <title>944.数据传输</title>
    <g id="944.数据传输" stroke="none" stroke-width="1" fill="none" fill-rule="evenodd">
        <g id="编组" transform="translate(4.000000, 2.000000)" fill="#000000" fill-rule="nonzero">
            <path d="M7.34676741,13.5533165 L7.34676741,17.6322418 L8.81612088,17.6322418 L8.81612088,13.36377 C9.79281797,13.2692144 10.7735656,13.2226289 11.7548279,13.2241438 C12.7099076,13.2241438 13.7061293,13.293241 14.6935348,13.4151973 L14.6935348,16.1628883 L11.7548279,16.1628883 L15.4282116,20.5709488 L19.1015953,16.1628883 L16.1628883,16.1628883 L16.1628883,13.6356003 C17.4706129,13.8677582 18.7107473,14.1821998 19.7628044,14.5377834 C22.1460957,15.4752309 23.5096557,16.602225 23.5096557,17.7262804 C23.5096557,18.8518052 22.3165407,19.97733 19.7628044,20.7267003 C17.5470193,21.6656171 14.4804786,22.0403023 11.7548279,22.0403023 C8.85873216,22.0403023 5.96263642,21.6656171 3.74685136,20.7267003 C1.19458436,19.97733 0,18.8518052 0,17.7262804 C0,16.602225 1.36356002,15.4752309 3.74685136,14.5377834 C4.81507134,14.0866919 6.0390428,13.7649035 7.34676741,13.5533165 L7.34676741,13.5533165 Z M16.1628883,11.7548279 L16.1628883,7.34676744 L14.6935348,7.34676744 L14.6935348,11.7548279 L8.81612088,11.7548279 L8.81612088,8.81612091 L11.7548279,8.81612091 L8.08144415,4.40806046 L4.40806046,8.81612091 L7.34676741,8.81612091 L7.34676741,11.7548279 L3.50881611,11.7548279 L3.50881611,11.7225021 C1.52959698,11.4947523 0,10.0033585 0,8.19605374 C0,6.23299748 1.8073048,4.64021832 4.036314,4.64021832 C4.10390427,4.64021832 4.17443324,4.64756509 4.2420235,4.65050379 C4.22215739,4.49308815 4.21234181,4.3345666 4.21263642,4.17590262 C4.21263642,1.86901765 6.32997479,0 8.94836271,0 C11.0274979,0 12.786314,1.17989084 13.4254828,2.82115871 C14.2562373,2.18764048 15.2739203,1.84806826 16.3186398,1.85579345 C18.743073,1.85579345 20.7061293,3.58963058 20.7061293,5.72460117 C20.7061293,5.78925273 20.6973132,5.85243494 20.6943745,5.9170865 C22.288623,6.13748952 23.5125944,7.35117549 23.509661,8.81905962 C23.509661,10.284005 22.2915617,11.4932829 20.7031906,11.7166247 L20.7031906,11.7548279 L16.1628883,11.7548279 Z M19.8157011,26.7539883 C17.6322418,27.4651553 14.6097817,28 11.7548279,28 C8.89987405,28 6.04492021,27.4651553 3.69395465,26.7539883 C1.34298909,26.0428211 0,24.9760705 0,23.7300588 L0,21.0602435 C1.67947103,21.9506717 2.85495381,22.6618388 4.70193115,23.1966835 C6.88539043,23.7300588 9.23635599,24.0856423 11.7548279,24.0856423 C14.2732997,24.0856424 16.6242653,23.7300588 18.8077246,23.1966835 C20.6547019,22.6618388 21.8301847,21.9506717 23.5096557,21.0602435 L23.5096557,23.7300588 C23.5096557,24.9760705 22.1666666,26.0428211 19.8157011,26.7539883 Z" id="形状" fill="#666666"></path>
        </g>
    </g>
</svg>