<!--?xml version="1.0" encoding="UTF-8"?-->
<svg width="32px" height="32px" viewBox="0 0 32 32" version="1.1" xmlns="http://www.w3.org/2000/svg" xmlns:xlink="http://www.w3.org/1999/xlink">
    <title>1731.数据服务</title>
    <g id="1731.数据服务" stroke="none" stroke-width="1" fill="none" fill-rule="evenodd">
        <path d="M30,22.5 L30,25.3855505 C30,26.7317566 28.4000073,27.8845433 25.6000293,28.6538642 C22.8000146,29.4240985 19.4000073,30 16,30 C12.8000146,30 9,29.6153747 6.40000732,28.6538993 C3.59999271,27.6933374 2,26.5384777 2,25.3855856 L2,22.5 C4.00003655,23.4615105 5.40000734,24.2307611 7.80001464,24.8076815 C10.4000073,25.3856208 13.1999854,25.7702461 16.1999854,25.7702461 C19,25.7702461 22.0000366,25.3855856 24.4000438,24.8076815 C26.6000292,24.2307611 28,23.4614754 30,22.5 Z M30,16.25 L30,19.1355938 C30,20.4817873 28.4000052,21.6345631 25.6000235,22.4038768 C22.8000052,23.1731202 19.3999935,23.75 15.9999817,23.75 C12.59997,23.75 8.99993607,23.1731202 6.39997653,22.4038768 C3.5999948,21.6345983 2,20.4817873 2,19.1355938 L2,16.25 C4,17.2125556 5.40001178,17.9807801 7.60000002,18.5586788 C10.2000326,19.1355938 12.9999778,19.5202155 16.0000183,19.5202155 C18.9999856,19.5202155 21.8000405,19.1355938 24.4000365,18.5586788 C26.6000248,17.9807801 28,17.2125556 30,16.25 Z M30,10 L30,12.3571395 C30,13.6439802 28.4000052,14.9285893 25.6000235,16.0000235 C22.8000052,16.8571473 19.3999935,17.5 15.9999817,17.5 C12.59997,17.5 8.99993607,16.8571473 6.39997653,16.0000235 C3.5999948,14.9286285 2,13.6440194 2,12.5714498 L2,10 C4,10.857163 5.40001178,11.928558 7.60000002,12.3571395 C10.2000326,13.0000313 12.9999778,13.4286128 16.0000183,13.4286128 C18.9999856,13.4286128 21.8000405,13 24.4000365,12.3571395 C26.6000248,11.928558 28,10.857163 30,10 Z M15.9999815,2 C19.4492652,2 22.8985489,2.38396649 25.5362233,3.34141629 C28.3768186,4.29788651 30,5.44782682 30,6.59577298 C30,7.74567832 28.5797023,8.89362447 25.5362233,9.6595983 C22.8985488,10.6170131 19.4492651,11 15.9999815,11 C12.7536186,11 9.10145115,10.6170481 6.46377671,9.6595983 C3.42029766,8.89362447 2,7.74567832 2,6.59577298 C2,5.44782682 3.6232185,4.29788647 6.46377671,3.34141629 C9.10145115,2.57446288 12.7536186,2 15.9999815,2 Z" id="形状结合" fill="#666666" fill-rule="nonzero"></path>
    </g>
</svg>