<!--?xml version="1.0" encoding="UTF-8"?-->
<svg width="32px" height="32px" viewBox="0 0 32 32" version="1.1" xmlns="http://www.w3.org/2000/svg" xmlns:xlink="http://www.w3.org/1999/xlink">
    <title>1714.数据服务</title>
    <g id="1714.数据服务" stroke="none" stroke-width="1" fill="none" fill-rule="evenodd">
        <path d="M4,18 C5.1045695,18 6,18.8954305 6,20 L6,26 C6,27.1045695 5.1045695,28 4,28 C2.8954305,28 2,27.1045695 2,26 L2,20 C2,18.8954305 2.8954305,18 4,18 Z M12,14 C13.1045695,14 14,14.8954305 14,16 L14,26 C14,27.1045695 13.1045695,28 12,28 C10.8954305,28 10,27.1045695 10,26 L10,16 C10,14.8954305 10.8954305,14 12,14 Z M20,16 C21.1045695,16 22,16.8954305 22,18 L22,26 C22,27.1045695 21.1045695,28 20,28 C18.8954305,28 18,27.1045695 18,26 L18,18 C18,16.8954305 18.8954305,16 20,16 Z M28,10 C29.1045695,10 30,10.8954305 30,12 L30,26 C30,27.1045695 29.1045695,28 28,28 C26.8954305,28 26,27.1045695 26,26 L26,12 C26,10.8954305 26.8954305,10 28,10 Z M30.8384436,3.45501165 C31.1394324,3.91807127 31.008048,4.53745486 30.5449884,4.83844362 L20.5449884,11.3384436 C20.3121537,11.4897861 20.0268716,11.5374943 19.7574644,11.4701425 L12.158,9.57 L2.51449576,15.3574929 C2.07474265,15.6213448 1.51368894,15.5077807 1.20827713,15.1110362 L1.14250707,15.0144958 C0.858358915,14.5409155 1.01192398,13.9266552 1.48550424,13.6425071 L11.4855042,7.64250707 C11.7129255,7.50605432 11.9852378,7.46553305 12.2425356,7.5298575 L19.82,9.424 L29.4550116,3.16155638 C29.9180713,2.86056763 30.5374549,2.99195203 30.8384436,3.45501165 Z" id="形状结合" fill="#666666"></path>
    </g>
</svg>