<!--?xml version="1.0" encoding="UTF-8"?-->
<svg width="32px" height="32px" viewBox="0 0 32 32" version="1.1" xmlns="http://www.w3.org/2000/svg" xmlns:xlink="http://www.w3.org/1999/xlink">
    <title>1913面试官管理</title>
    <g id="1913面试官管理" stroke="none" stroke-width="1" fill="none" fill-rule="evenodd">
        <g id="rcgyy_msggl_48_48" transform="translate(2.000000, 2.000000)" fill="#999999">
            <path d="M23.4256266,17 C23.4256266,18.1276776 24.3633503,19.0419421 25.5199631,19.0419421 C25.8985028,19.0419421 26.2534447,18.9440419 26.5600521,18.7726768 L28,21.2273232 C27.3700228,21.579415 26.9455897,22.2413921 26.9455897,23 C26.9455897,23.7586079 27.3700228,24.420585 28,24.7726768 L26.5600521,27.2273232 C26.2534447,27.0559581 25.8985028,26.9580579 25.5199631,26.9580579 C24.3633503,26.9580579 23.4257893,27.8721637 23.4257893,29 L20.5742107,29 C20.5742107,27.8721637 19.6366497,26.9580579 18.4800369,26.9580579 C18.1014972,26.9580579 17.7463925,27.0559581 17.4401107,27.2273232 L16,24.7726768 C16.6299772,24.420585 17.0542476,23.7586079 17.0542476,23 C17.0542476,22.2413921 16.6299772,21.579415 16,21.2273232 L17.4401107,18.7726768 C17.7463925,18.9440419 18.1014972,19.0419421 18.4800369,19.0419421 C19.6366497,19.0419421 20.5743734,18.1276776 20.5743734,17 L23.4256266,17 Z M18.064184,4.15183682 L18.064184,7.66902148 C18.064184,7.66902148 19.1714479,7.90217175 18.9771162,9.73904754 C18.7833308,11.5748248 17.5004136,12.0842297 16.6071486,12.9821224 C15.7139616,13.8806167 15.8786309,15.311933 14.4215955,16.0442889 L14.389401,16.0647118 C14.3853352,16.0672495 14.3808962,16.070008 14.3760909,16.0729784 L14.375,17.4217447 C14.375,17.4217447 14.9494486,17.6299304 15.7427097,17.9123134 L14,20.9318771 C14.7349734,21.3426509 15.2299555,22.1149574 15.2299555,23 C15.2299555,23.8850426 14.7349734,24.6573491 14,25.0681229 L14.547,26 L0,26 C2.97136053e-13,22.9681091 1.35169881,20.1001121 3.0238144,19.3855015 L3.18148249,19.3248762 C3.76280999,19.1261608 4.5614211,18.8484695 5.36786814,18.5665324 L5.80726657,18.4127766 C7.2661258,17.9018481 8.625,17.4218005 8.625,17.4218005 L8.624,16.063 L8.59345386,16.0442889 C7.82659312,15.6588384 7.51997085,15.0796107 7.26553493,14.4864437 L7.11587132,14.1303095 C6.94095289,13.7162251 6.75161666,13.3129346 6.40790075,12.9821224 C5.47495756,12.0842035 4.23177054,11.5764203 4.03795918,9.7395445 C3.8436795,7.90376725 4.43574357,7.66902148 4.89253481,7.66902148 L4.89253481,4.54606143 C5.10543451,2.02153009 7.8684002,0.35623246 10.2334217,0.0803176879 C12.6161679,-0.377857575 17.6368832,1.14345542 18.064184,4.15183682 Z M14,17 L12.9995643,17.1937908 L11.0004357,17.1937908 L10,17 L11.2784314,18.5004944 L10.2579521,23.6996243 L12,25 L13.6313726,23.6996243 L12.8610022,18.5004944 L14,17 Z M21.5,22 C20.6715729,22 20,22.6715729 20,23.5 C20,24.3284271 20.6715729,25 21.5,25 C22.3284271,25 23,24.3284271 23,23.5 C23,22.6715729 22.3284271,22 21.5,22 Z" id="形状结合" fill="#666666"></path>
        </g>
    </g>
</svg>