<!--?xml version="1.0" encoding="UTF-8"?-->
<svg width="32px" height="32px" viewBox="0 0 32 32" version="1.1" xmlns="http://www.w3.org/2000/svg" xmlns:xlink="http://www.w3.org/1999/xlink">
    <title>1783.应付</title>
    <g id="1783.应付" stroke="none" stroke-width="1" fill="none" fill-rule="evenodd">
        <path d="M16.4118021,11.3549392 C16.6692877,11.3549392 17.3081232,11.2936972 17.5656089,11.6962069 C17.9518373,12.2999715 17.9518373,12.964978 17.5656089,14.306677 C17.2437518,15.5142061 16.7287805,16.6546502 16.2138092,17.6609244 C15.4413523,19.2709632 14.7976381,20.3088366 15.3769808,21.2480259 C15.6337633,21.8287376 16.5442282,22.0669031 18.1083755,21.9625225 L24.0283012,21.9625225 C23.7708156,23.7738161 22.3934648,25.0376469 18.7242943,27.1172804 C17.7801802,27.65396 16.6644091,28.2800862 15.3769808,28.9956589 L3.0176697,28.9956589 C2.95503302,28.4734423 3.0176697,26.8746659 3.90043184,24.7784733 C4.78319398,22.6822808 7.49881397,20.8654325 8.06071627,20.3487364 C9.67000159,18.8057825 10.8567098,17.4678593 12.2143558,15.8578205 C13.5720019,14.2477817 14.9312596,11.3549392 16.4118021,11.3549392 Z M29,2 C29.5522847,2 30,2.44771525 30,3 L30,19.6700008 C30,20.2222856 29.5522847,20.6700008 29,20.6700008 L17.8701129,20.6722299 C17.6802411,20.5460491 17.5024555,20.3833485 17.3483963,20.1736323 C17.0615365,19.2168941 17.3351826,18.3625901 18.4375496,16.3617649 C19.656238,14.0345545 19.4644192,11.0197327 18.9132357,10.2694233 C18.54578,9.76921696 17.2970728,9.68511813 16.6150291,9.68511813 C15.0499401,9.68511813 14.042901,10.7184394 13.0984774,11.8689348 L12.8165333,12.2166825 C12.5823195,12.5078747 12.3489228,12.8006643 12.1086019,13.0807366 C10.810869,14.593127 9.29715489,16.6266557 7.00055695,18.5441132 C6.26103706,19.1362814 5.51163912,19.8726367 4.74220907,20.6697376 L3.01214764,20.6700008 C2.45986289,20.6700008 2.01214764,20.2222856 2.01214764,19.6700008 L2.01214764,3 C2.01214764,2.44771525 2.45986289,2 3.01214764,2 L29,2 Z" id="形状结合" fill="#666666"></path>
    </g>
</svg>