<!--?xml version="1.0" encoding="UTF-8"?-->
<svg width="32px" height="32px" viewBox="0 0 32 32" version="1.1" xmlns="http://www.w3.org/2000/svg" xmlns:xlink="http://www.w3.org/1999/xlink">
    <title>243.录用决策</title>
    <g id="243.录用决策" stroke="none" stroke-width="1" fill="none" fill-rule="evenodd">
        <g id="录用决策" transform="translate(4.000000, 5.000000)" fill="#000000" fill-rule="nonzero">
            <path d="M15.2674968,3.31059801 L15.3130909,3.54786007 L15.3130909,6.55298375 C15.3130909,6.55298375 16.2610909,6.75207869 16.0952728,8.32173881 C15.9294545,9.89029894 14.8298181,10.3258879 14.0661819,11.0936683 C13.3178181,11.8438493 13.4367273,13.0296192 12.2749091,13.667603 C12.4217143,13.7279443 12.4587161,13.7995996 12.3433215,13.8832617 L12.2727273,13.9260964 L12.2727273,15.438558 C12.2727273,15.438558 14.0451108,16.0576434 15.5040463,16.5385181 L12.2577972,20.3385475 C11.8477009,20.8186523 11.8332544,21.5072467 12.1845756,22 L0,22 C0,19.4259567 1.22727272,17.4955058 2.71636363,17.0049183 C4.14818181,16.5331994 7.12316837,15.5204441 7.34989544,15.4432376 L7.36363637,15.438558 L7.36363637,13.9271964 C7.22836363,13.8567982 7.19781819,13.7929998 7.248,13.7380012 C7.21963635,13.7215016 7.20545456,13.710502 7.20545456,13.710502 C5.95745453,13.0857178 6.13309091,11.8614489 5.33454544,11.0947683 C4.536,10.3269879 3.47127272,9.8924989 3.30545453,8.32283878 C3.14733016,6.83683442 3.59428859,6.57894734 3.97384384,6.55591769 L4.03636363,6.55408371 L4.03636363,3.88555152 C4.21963635,1.72740634 6.58472728,0.305142477 8.60945456,0.0686484728 C10.5857046,-0.31070439 14.6812052,0.897617072 15.2674968,3.31059801 Z M19.3057793,12.3716812 L22.0865296,15.1007558 L19.4546896,17.967329 L18.4417721,16.9734883 L14.5199216,21.7342438 C14.3707015,21.898207 14.1618017,21.9939801 13.9411707,21.9995807 C13.7205396,22.0051812 13.5071251,21.9201282 13.3499119,21.7639435 C13.0177273,21.4377966 13.0029999,20.8966016 13.3177297,20.5545048 L13.3177297,20.5545048 L17.6377656,16.1842456 L16.6739393,15.2382544 L19.3057793,12.3716812 Z M22.9090819,19.7999118 C23.2103305,19.7999118 23.4545409,20.046153 23.4545409,20.3499067 C23.4545409,20.6536605 23.2103305,20.8999015 22.9090819,20.8999015 L22.9090819,20.8999015 L23.4545409,20.8999015 C23.7557896,20.8999015 24,21.1461427 24,21.4498965 C24,21.7536502 23.7557896,21.9998914 23.4545409,21.9998914 L23.4545409,21.9998914 L17.4544913,21.9998914 C17.1532425,21.9998914 16.9090323,21.7536502 16.9090323,21.4498965 C16.9090323,21.1461427 17.1532425,20.8999015 17.4544913,20.8999015 L17.4544913,20.8999015 L17.9999504,20.8999015 C17.6987016,20.8999015 17.4544913,20.6536605 17.4544913,20.3499067 C17.4544913,20.046153 17.6987016,19.7999118 17.9999504,19.7999118 L17.9999504,19.7999118 L22.9090819,19.7999118 Z M22.9234163,15.35167 C23.061356,15.3481435 23.1947917,15.4013065 23.2930851,15.498952 C23.5005865,15.7045467 23.5092692,16.0389335 23.3127216,16.255195 L23.3127216,16.255195 L20.6328812,19.1734677 C20.539562,19.2757638 20.4090448,19.3354638 20.2712421,19.3388857 C20.1334395,19.3423076 20.0001661,19.2891579 19.9019661,19.1916176 C19.6943072,18.9861734 19.6853832,18.6517821 19.8817841,18.4353745 L19.8817841,18.4353745 L22.5616244,15.5176518 C22.654884,15.4151093 22.7854765,15.3551964 22.9234163,15.35167 Z M18.4888341,11.0001105 C18.6267739,10.9965841 18.7602096,11.0497472 18.8585029,11.1473926 C19.0660044,11.3529873 19.0746871,11.6873742 18.8781395,11.9036356 L18.8781395,11.9036356 L16.1988445,14.8213584 C16.105676,14.9238034 15.9752415,14.9837055 15.8374371,14.9873348 C15.6996328,14.9909642 15.5662748,14.9380094 15.4679295,14.8406081 C15.2602704,14.6351639 15.2513465,14.3007727 15.4477475,14.0843652 L15.4477475,14.0843652 L18.1270423,11.1660925 C18.2203019,11.0635498 18.3508943,11.003637 18.4888341,11.0001105 Z" id="形状" fill="#346bf6"></path>
        </g>
    </g>
</svg>