<!--?xml version="1.0" encoding="UTF-8"?-->
<svg width="32px" height="32px" viewBox="0 0 32 32" version="1.1" xmlns="http://www.w3.org/2000/svg" xmlns:xlink="http://www.w3.org/1999/xlink">
    <title>1795.资金申报</title>
    <g id="1795.资金申报" stroke="none" stroke-width="1" fill="none" fill-rule="evenodd">
        <path d="M25.5,19 C28.5375661,19 31,21.4624339 31,24.5 C31,27.5375661 28.5375661,30 25.5,30 C22.4624339,30 20,27.5375661 20,24.5 C20,21.4624339 22.4624339,19 25.5,19 Z M9.185,4 L9.18518519,5 C9.18518519,6.0543618 10.001063,6.91816512 11.0359228,6.99451426 L11.1851852,7 L19.6296296,7 C20.7341991,7 21.6296296,6.1045695 21.6296296,5 L21.629,4 L25.8148148,4 C26.3670996,4 26.8148148,4.44771525 26.8148148,5 L26.8144511,18.1329741 C26.3899312,18.0457922 25.9503133,18 25.5,18 C21.9101491,18 19,20.9101491 19,24.5 C19,26.2469007 19.6891263,27.8328473 20.8103588,29.0008195 L6,29 C5.44771525,29 5,28.5522847 5,28 L5,5 C5,4.44771525 5.44771525,4 6,4 L9.185,4 Z M25.5101173,21.457297 L22.4242074,23.7991954 L22.367749,23.8505987 C22.2321872,23.998447 22.2173944,24.2265255 22.3429529,24.3919735 L22.3943562,24.4484319 C22.5422045,24.5839937 22.7702831,24.5987865 22.935731,24.473228 L25.0768692,22.847297 L25.0769231,27.9026923 C25.0769231,28.1263676 25.2582478,28.3076923 25.4819231,28.3076923 L25.5180769,28.3076923 C25.7417522,28.3076923 25.9230769,28.1263676 25.9230769,27.9026923 L25.9228692,22.889297 L27.8421693,24.4633885 L27.9053014,24.5063326 C28.0806407,24.6037606 28.3058987,24.5650631 28.43758,24.4044456 C28.5857215,24.2237508 28.5593318,23.9571763 28.3786371,23.8090349 L25.5101173,21.457297 Z M17.6333743,11.3389424 L16.0613999,14.2782676 C16.011974,14.3697946 15.9835375,14.4714946 15.978216,14.575766 C15.9661894,14.4743924 15.9401318,14.3719999 15.8905222,14.2782676 L14.3426009,11.3389424 C14.1722243,11.0154638 13.793387,10.9039019 13.4967313,11.0913666 C13.2000757,11.2788314 13.0988519,11.6934953 13.2702307,12.0179927 L14.617709,14.575766 L13.1760225,14.575766 C12.7986058,14.5902649 12.5,14.9055091 12.5,15.2894566 C12.5,15.6734041 12.7986058,15.9886483 13.1760225,16.0031472 L15.2836809,16.0031472 L15.2836809,17.4310377 L13.1760225,17.4310377 C12.7986058,17.4455366 12.5,17.7607808 12.5,18.1447283 C12.5,18.5286758 12.7986058,18.8439199 13.1760225,18.8584189 L15.2836809,18.8584189 L15.2836809,20.3576275 C15.2836809,20.7121805 15.5978754,21 15.9867349,21 C16.3745921,21 16.6892877,20.711671 16.6892877,20.3576275 L16.6892877,18.8584189 L18.7969461,18.8584189 C19.1743628,18.8439199 19.4729686,18.5286758 19.4729686,18.1447283 C19.4729686,17.7607808 19.1743628,17.4455366 18.7969461,17.4310377 L16.6892877,17.4310377 L16.6892877,16.0031472 L18.7969461,16.0031472 C19.1853044,16.0031472 19.5,15.6827251 19.5,15.2894566 C19.5,14.8956787 19.1853045,14.575766 18.7969461,14.575766 L17.3552596,14.575766 L18.7227822,12.0179927 C18.8966665,11.6940047 18.7934384,11.2788314 18.4932749,11.0913666 C18.1916081,10.9033924 17.8077598,11.0149543 17.6333743,11.3389424 Z M20.6296296,3 L20.6296296,5 C20.6296296,5.55228475 20.1819144,6 19.6296296,6 L11.1851852,6 C10.6329004,6 10.1851852,5.55228475 10.1851852,5 L10.1851852,3 L20.6296296,3 Z" id="形状结合" fill="#666666"></path>
    </g>
</svg>