<!--?xml version="1.0" encoding="UTF-8"?-->
<svg width="32px" height="32px" viewBox="0 0 32 32" version="1.1" xmlns="http://www.w3.org/2000/svg" xmlns:xlink="http://www.w3.org/1999/xlink">
    <title>661.缺陷关闭效率看板@1x</title>
    <g id="661.缺陷关闭效率看板" stroke="none" stroke-width="1" fill="none" fill-rule="evenodd">
        <g id="编组" transform="translate(4.000000, 5.000000)" fill="#000000" fill-rule="nonzero">
            <path d="M13.2001677,0 L13.2001677,1.18358758 L22.8001677,1.18358758 C23.462844,1.18367897 24,1.71356242 24,2.36717518 C24,3.02078794 23.462844,3.55067138 22.8001677,3.55076275 L21.5977677,3.55076275 L21.6001677,3.61704365 L21.6001677,15.3890058 C21.6001677,16.0411626 21.0661677,16.5702263 20.4001677,16.5702263 L14.4721677,16.5702263 L19.0537677,21.0879799 L17.7805677,22.3425828 L12.0555,16.695 L12.1202577,16.5702263 L11.9401677,16.5702263 L11.988,16.665 L6.07336773,22.5 L4.80016773,21.2453971 L9.54016776,16.5702263 L3.60016773,16.5702263 C2.93776773,16.5702263 2.40016773,16.0328775 2.40016775,15.3890058 L2.40016775,3.61704365 C2.40016775,3.59455548 2.40016775,3.57325092 2.40256773,3.55076275 L1.20016775,3.55076275 C0.771409098,3.55082186 0.375194106,3.32524428 0.160797474,2.95901674 C-0.053599158,2.59278919 -0.053599158,2.14156116 0.160797474,1.77533362 C0.375194106,1.40910607 0.771409098,1.18352846 1.20016775,1.18358758 L10.8001677,1.18358758 L10.8001677,0 L13.2001677,0 Z M18.4659585,11.1864612 L13.4234385,11.1864612 L13.3270882,11.1974075 C13.1414497,11.2403632 13.0032285,11.4047227 13.0032285,11.600924 C13.0032285,11.7971253 13.1414497,11.9614848 13.3270882,12.0044406 L13.4234385,12.0153868 L18.4659585,12.0153868 L18.5623087,12.0044406 C18.7479473,11.9614848 18.8861685,11.7971253 18.8861685,11.600924 C18.8861685,11.3720226 18.6980341,11.1864612 18.4659585,11.1864612 Z M9.98063383,6.08648134 L8.2490993,7.81801786 L6.57605788,6.14632812 C6.45836145,6.03473047 6.27392162,6.03473047 6.15622519,6.14632812 C6.0446843,6.26387544 6.0446843,6.44816621 6.15622519,6.56571353 L7.82926147,8.23785103 L6.08648126,9.98063323 C5.9711729,10.1018914 5.9711729,10.2922605 6.08648126,10.4135187 C6.20773927,10.5288271 6.39810816,10.5288271 6.51936616,10.4135187 L8.26214637,8.67073644 L9.93473488,10.3419733 C10.0524313,10.4535709 10.2368711,10.4535709 10.3545676,10.3419733 C10.4663916,10.2243693 10.4663916,10.039744 10.3545676,9.92214007 L8.68198423,8.25090327 L10.4135187,6.51936677 C10.5288271,6.39810862 10.5288271,6.20773951 10.4135187,6.08648134 C10.2922607,5.97117288 10.1018918,5.97117288 9.98063383,6.08648134 Z M18.4659585,9.52861011 L13.4234385,9.52861011 L13.3270882,9.53955634 C13.1414497,9.58251211 13.0032285,9.74687163 13.0032285,9.94307287 C13.0032285,10.1392741 13.1414497,10.3036337 13.3270882,10.3465894 L13.4234385,10.3575357 L18.4659585,10.3575357 L18.5623087,10.3465894 C18.7479473,10.3036337 18.8861685,10.1392741 18.8861685,9.94307287 C18.8861685,9.71417141 18.6980341,9.52861011 18.4659585,9.52861011 Z M18.4659585,7.87075896 L13.4234385,7.87075896 L13.3270882,7.88170522 C13.1414497,7.92466097 13.0032285,8.08902048 13.0032285,8.28522175 C13.0032285,8.48142303 13.1414497,8.64578251 13.3270882,8.68873827 L13.4234385,8.69968455 L18.4659585,8.69968455 L18.5623087,8.68873827 C18.7479473,8.64578251 18.8861685,8.48142303 18.8861685,8.28522175 C18.8861685,8.05632027 18.6980341,7.87075896 18.4659585,7.87075896 Z M18.4659585,6.21290782 L13.4234385,6.21290782 L13.3270882,6.2238541 C13.1414497,6.26680985 13.0032285,6.43116934 13.0032285,6.62737063 C13.0032285,6.82357188 13.1414497,6.98793137 13.3270882,7.03088715 L13.4234385,7.0418334 L18.4659585,7.0418334 L18.5623087,7.03088715 C18.7479473,6.98793137 18.8861685,6.82357188 18.8861685,6.62737063 C18.8861685,6.39846915 18.6980341,6.21290782 18.4659585,6.21290782 Z" id="形状" fill="#346bf6"></path>
        </g>
    </g>
</svg>