<!--?xml version="1.0"?-->
<svg xmlns="http://www.w3.org/2000/svg" class="icon" style="vertical-align:middle;fill:currentColor;overflow:hidden;" viewBox="0 0 1024 1024" version="1.1" width="200px" height="200px"><path d="M840.625 62.5C859.609788 62.5 875 77.890212 875 96.875L875 437.5C875 454.758898 861.0089 468.75 843.75 468.75C826.4911 468.75 812.5 454.758898 812.5 437.5L812.5 125L187.5 125L187.5 875L437.5 875C452.841243 875 465.600523 886.0547 468.246521 900.632775L468.75 906.25C468.75 923.5089 454.758898 937.5 437.5 937.5L159.523809 937.5C140.193839 937.5 125 921.735644 125 902.853263L125 97.146739L127.557358 84.765513C132.954659 72.257637 142.359163 62.5 159.523809 62.5L840.625 62.5zM734.375 531.25C846.557838 531.25 937.5 622.19216 937.5 734.375C937.5 846.557838 846.557838 937.5 734.375 937.5C622.19216 937.5 531.25 846.557838 531.25 734.375C531.25 622.19216 622.19216 531.25 734.375 531.25zM734.375 593.75C656.709956 593.75 593.75 656.709956 593.75 734.375C593.75 812.040044 656.709956 875 734.375 875C812.040044 875 875 812.040044 875 734.375C875 656.709956 812.040044 593.75 734.375 593.75zM803.347087 665.402913C815.550969 677.6068 815.550969 697.3932 803.347087 709.597087L709.597087 803.347087C697.3932 815.550969 677.6068 815.550969 665.402913 803.347087C653.199031 791.1432 653.199031 771.3568 665.402913 759.152913L759.152913 665.402913C771.3568 653.199031 791.1432 653.199031 803.347087 665.402913zM500 531.25C517.258898 531.25 531.25 545.241102 531.25 562.5C531.25 579.758898 517.258898 593.75 500 593.75L343.75 593.75C326.491102 593.75 312.5 579.758898 312.5 562.5C312.5 545.241102 326.491102 531.25 343.75 531.25L500 531.25zM312.5 312.5L687.5 312.5C704.7589 312.5 718.75 326.491102 718.75 343.75C718.75 361.008898 704.7589 375 687.5 375L312.5 375C295.241102 375 281.25 361.008898 281.25 343.75C281.25 326.491102 295.241102 312.5 312.5 312.5z" fill="#666666"></path></svg>
