<!--?xml version="1.0" encoding="UTF-8"?-->
<svg width="24px" height="24px" viewBox="0 0 24 24" version="1.1" xmlns="http://www.w3.org/2000/svg" xmlns:xlink="http://www.w3.org/1999/xlink">
    <title>对话</title>
    <g id="对话" stroke="none" stroke-width="1" fill="none" fill-rule="evenodd">
        <rect id="矩形" x="0" y="0" width="24" height="24"></rect>
        <path d="M17.2288894,17.3192552 C19.0122859,16.3656197 20.1931926,14.7188627 20.1931926,12.8434521 C20.1931926,11.6573815 19.7158315,10.5652827 18.917917,9.67874687 C18.9746079,9.33001873 19.0045292,8.9777442 19.0074379,8.62478378 C19.0074379,8.46105744 18.988631,8.30135388 18.9773469,8.14004121 C20.4538146,9.3056761 21.3789474,10.9479276 21.3789474,12.7732147 C21.3789474,14.8204776 20.2165132,16.6384433 18.4145606,17.80971 L18.4145606,21 L15.091338,19.0586965 C14.6219871,19.1327584 14.1472395,19.1706123 13.6716253,19.171897 C11.3886337,19.171897 9.9368239,18.3432085 8.52546988,17.0336392 C8.7577561,17.0463511 8.98887211,17.0623617 9.22517048,17.0623617 C9.55617208,17.0623617 9.88266002,17.0468339 10.2058045,17.0221341 C11.320093,17.74961 12.1360621,18.1873668 13.6716253,18.1873668 C14.1870277,18.185932 14.7009419,18.1340396 15.2054332,18.0324905 L17.2288058,19.3122913 L17.2288058,17.3192552 L17.2288894,17.3192552 Z M10.7073221,15.9375176 C10.0402349,15.9245473 9.37445394,15.8750679 8.71320462,15.7893191 L5.37150945,17.6250654 L5.37150945,14.4349363 C3.82240525,13.1836971 3,11.445543 3,9.39844096 C3,5.86468776 6.44475703,3 10.7074057,3 C14.2508781,3 17.8217668,5.86468778 17.8217668,9.39844096 C17.8217668,12.9321941 14.9639525,15.9375176 10.7073221,15.9375176 Z M8.58055323,14.6576363 C9.07371217,14.755148 10.1780539,14.8124321 10.7074057,14.8124321 C14.3091377,14.8124321 16.6360121,12.4200968 16.6360121,9.46867834 C16.6360121,6.51725986 13.6554931,4.12492457 10.7074057,4.12492457 C7.00378198,4.12492457 4.18583831,6.51750124 4.18583831,9.46867834 C4.18583831,11.3438476 5.11097106,12.8305792 6.55726416,13.9442401 L6.55726416,15.9375176 L8.58055323,14.6576363 Z M13.9681058,10.3124925 C13.4856596,10.3057617 13.0995538,9.92504498 13.1041988,9.46064356 C13.1088438,8.99624214 13.5024933,8.6227513 13.9849847,8.62495267 C14.467476,8.62717357 14.8574129,9.0042554 14.8574636,9.46867834 C14.8557848,9.69409528 14.7611403,9.90963717 14.594352,10.0678843 C14.4275638,10.2261314 14.2022951,10.31412 13.9681058,10.3124925 L13.9681058,10.3124925 Z M10.4109252,10.3124925 C9.92846735,10.3058058 9.54231945,9.92510798 9.5469341,9.46069567 C9.55154876,8.99628335 9.94519098,8.6227643 10.4276934,8.62495151 C10.9101959,8.627158 11.3001494,9.00424478 11.3001994,9.46867834 C11.2966575,9.93803576 10.8985494,10.3157924 10.4109252,10.3124925 L10.4109252,10.3124925 Z M6.85366105,10.3124925 C6.37121489,10.3057617 5.98510908,9.92504498 5.98975408,9.46064356 C5.99439909,8.99624214 6.38804859,8.6227513 6.87053995,8.62495267 C7.35303132,8.62717357 7.7429682,9.0042554 7.74301888,9.46867834 C7.74134013,9.69409528 7.64669561,9.90963717 7.47990734,10.0678843 C7.31311907,10.2261314 7.08785042,10.31412 6.85366105,10.3124925 L6.85366105,10.3124925 Z" id="形状" fill="#666666" fill-rule="nonzero"></path>
    </g>
</svg>