<!--?xml version="1.0"?-->
<svg xmlns="http://www.w3.org/2000/svg" class="icon" style="vertical-align:middle;fill:currentColor;overflow:hidden;" viewBox="0 0 1024 1024" version="1.1" width="200px" height="200px"><path d="M734.375 62.5C794.781144 62.5 843.75 111.468856 843.75 171.875C843.75 232.281144 794.781144 281.25 734.375 281.25C720.596313 281.25 707.412706 278.702152 695.269606 274.051884L642.817375 347.255813C670.682763 379.979941 687.5 422.401031 687.5 468.75C687.5 480.716316 686.379025 492.420816 684.236359 503.764216L746.117916 527.549688C763.090456 510.530834 786.565422 500 812.5 500C864.276694 500 906.25 541.973306 906.25 593.75C906.25 645.526694 864.276694 687.5 812.5 687.5C760.723306 687.5 718.75 645.526694 718.75 593.75C718.75 590.511284 718.914228 587.310925 719.234813 584.1568L662.488991 562.373428C644.100716 594.218594 616.619731 620.153534 583.594156 636.630134L611.610522 722.640019C620.850656 720.104206 630.579681 718.75 640.625 718.75C701.031144 718.75 750 767.718856 750 828.125C750 888.531144 701.031144 937.5 640.625 937.5C580.218856 937.5 531.25 888.531144 531.25 828.125C531.25 801.170044 541.000681 776.492481 557.16725 757.427109L523.774966 654.756972C515.98875 655.742234 508.053672 656.25 500 656.25C446.246375 656.25 397.775906 633.630134 363.587916 597.389734L241.297146 710.499944C246.88193 722.504125 250 735.887931 250 750C250 801.776694 208.026695 843.75 156.25 843.75C104.473305 843.75 62.5 801.776694 62.5 750C62.5 698.223306 104.473305 656.25 156.25 656.25C171.0685 656.25 185.083999 659.688056 197.542344 665.810016L328.499228 544.653463C318.213928 521.448572 312.5 495.766566 312.5 468.75C312.5 435.876706 320.959816 404.979309 335.821113 378.116147L216.924527 271.571108C203.186698 277.788591 187.935077 281.25 171.875 281.25C111.468856 281.25 62.5 232.281144 62.5 171.875C62.5 111.468856 111.468856 62.5 171.875 62.5C232.281144 62.5 281.25 111.468856 281.25 171.875C281.25 193.326419 275.074533 213.335482 264.404421 230.221365L374.816634 329.157675C408.010772 299.369977 451.889312 281.25 500 281.25C534.591075 281.25 566.994356 290.617045 594.811684 306.95297L645.701288 235.9188C632.677003 217.917076 625 195.792568 625 171.875C625 111.468856 673.968856 62.5 734.375 62.5zM640.625 781.25C614.736653 781.25 593.75 802.236653 593.75 828.125C593.75 854.013347 614.736653 875 640.625 875C666.513347 875 687.5 854.013347 687.5 828.125C687.5 802.236653 666.513347 781.25 640.625 781.25zM156.25 718.75C138.991102 718.75 125 732.741103 125 750C125 767.258897 138.991102 781.25 156.25 781.25C173.508898 781.25 187.5 767.258897 187.5 750C187.5 732.741103 173.508898 718.75 156.25 718.75zM812.5 562.5C795.241103 562.5 781.25 576.491103 781.25 593.75C781.25 611.008897 795.241103 625 812.5 625C829.758897 625 843.75 611.008897 843.75 593.75C843.75 576.491103 829.758897 562.5 812.5 562.5zM500 343.75C430.964406 343.75 375 399.714406 375 468.75C375 537.785594 430.964406 593.75 500 593.75C569.035594 593.75 625 537.785594 625 468.75C625 399.714406 569.035594 343.75 500 343.75zM734.375 125C708.486653 125 687.5 145.986653 687.5 171.875C687.5 197.763347 708.486653 218.75 734.375 218.75C760.263347 218.75 781.25 197.763347 781.25 171.875C781.25 145.986653 760.263347 125 734.375 125zM171.875 125C145.986653 125 125 145.986653 125 171.875C125 197.763347 145.986653 218.75 171.875 218.75C197.763347 218.75 218.75 197.763347 218.75 171.875C218.75 145.986653 197.763347 125 171.875 125z" fill="#666666"></path></svg>
