<!--?xml version="1.0" encoding="UTF-8"?-->
<svg width="32px" height="32px" viewBox="0 0 32 32" version="1.1" xmlns="http://www.w3.org/2000/svg" xmlns:xlink="http://www.w3.org/1999/xlink">
    <title>538.配送需求设置@1x</title>
    <g id="538.配送需求设置" stroke="none" stroke-width="1" fill="none" fill-rule="evenodd">
        <g id="编组" transform="translate(4.000000, 3.000000)" fill="#000000" fill-rule="nonzero">
            <path d="M20.442154,16.660365 C20.442154,17.5171568 21.1714948,18.2118007 22.0710825,18.2118007 C22.3655022,18.2118007 22.6415682,18.1374178 22.8800405,18.0072172 L22.8800405,18.0072172 L24,19.8722192 C23.5100178,20.1397332 23.1799031,20.642693 23.1799031,21.2190715 C23.1799031,21.7954498 23.5100178,22.2984098 24,22.5659236 L24,22.5659236 L22.8800405,24.4309257 C22.6415682,24.3007252 22.3655022,24.2263421 22.0710825,24.2263421 C21.1714948,24.2263421 20.4422805,24.9208654 20.4422805,25.7777778 L20.4422805,25.7777778 L18.2243861,25.7777778 C18.2243861,24.9208654 17.4951719,24.2263421 16.5955842,24.2263421 C16.3011644,24.2263421 16.0249719,24.3007252 15.7867527,24.4309257 L15.7867527,24.4309257 L14.6666667,22.5659236 C15.1566489,22.2984098 15.486637,21.7954498 15.486637,21.2190715 C15.486637,20.642693 15.1566489,20.1397332 14.6666667,19.8722192 L14.6666667,19.8722192 L15.7867527,18.0072172 C16.0249719,18.1374178 16.3011644,18.2118007 16.5955842,18.2118007 C17.4951719,18.2118007 18.2245127,17.5171568 18.2245127,16.660365 L18.2245127,16.660365 L20.442154,16.660365 Z M15.1573333,1.23357841 L19.99875,1.23393556 C20.7360373,1.23393556 21.3333333,1.86388597 21.3333333,2.65167946 L21.3328125,16.7295933 C20.9771348,16.3720825 20.7589598,15.8892324 20.7589598,15.3578775 L17.9077069,15.3578775 C17.9077069,16.459467 16.9699829,17.3525806 15.8133701,17.3525806 C15.4348306,17.3525806 15.0797259,17.2569452 14.773444,17.0895445 L13.3333333,19.4874043 C13.9633105,19.8313508 14.3875809,20.4780133 14.3875809,21.2190715 C14.3875809,21.9601294 13.9633105,22.606792 13.3333333,22.9507385 L13.9057778,23.9021957 L1.33325002,23.9021957 C0.597296014,23.9021957 0,23.2722453 0,22.4844519 L0,2.65167946 C0,1.869574 0.593296242,1.23393556 1.33325002,1.23393556 L6.31466667,1.23357841 L6.31578948,1.84039444 C6.31578948,2.47040819 6.78395591,2.99107575 7.39137018,3.0734786 L7.56023393,3.08483891 L13.9134503,3.08483891 C14.543464,3.08483891 15.0641316,2.61667246 15.1465344,2.00925821 L15.1578948,1.84039444 L15.1573333,1.23357841 Z M19.3500416,19.716291 C18.4892128,19.716291 17.7889166,20.4008546 17.7889166,21.2423442 C17.7889166,22.0838338 18.4892128,22.7685381 19.3500416,22.7685381 C20.2108704,22.7685381 20.9111666,22.0838338 20.9111666,21.2423442 C20.9111666,20.4008546 20.2108704,19.716291 19.3500416,19.716291 Z M10.6666667,17.7777778 L5.33333333,17.7777778 C4.84241357,17.7777778 4.44444444,18.1757468 4.44444444,18.6666667 C4.44444444,19.1575865 4.84241357,19.5555556 5.33333333,19.5555556 L10.6666667,19.5555556 C11.1575864,19.5555556 11.5555556,19.1575865 11.5555556,18.6666667 C11.5555556,18.1757468 11.1575864,17.7777778 10.6666667,17.7777778 Z M16,12.4444444 L5.33333333,12.4444444 C4.84241357,12.4444444 4.44444444,12.8424136 4.44444444,13.3333333 C4.44444444,13.8242531 4.84241357,14.2222222 5.33333333,14.2222222 L16,14.2222222 C16.4909198,14.2222222 16.8888889,13.8242531 16.8888889,13.3333333 C16.8888889,12.8424136 16.4909198,12.4444444 16,12.4444444 Z M16,7.11111111 L5.33333333,7.11111111 C4.84241357,7.11111111 4.44444444,7.50908023 4.44444444,8 C4.44444444,8.49091977 4.84241357,8.88888889 5.33333333,8.88888889 L16,8.88888889 C16.4909198,8.88888889 16.8888889,8.49091977 16.8888889,8 C16.8888889,7.50908023 16.4909198,7.11111111 16,7.11111111 Z M13.2923802,0 C13.973864,0 14.5263158,0.552451755 14.5263158,1.23393556 C14.5263158,1.91541936 13.973864,2.46787112 13.2923802,2.46787112 L8.18130398,2.46787112 C7.4998202,2.46787112 6.94736842,1.91541936 6.94736842,1.23393556 C6.94736842,0.552451755 7.4998202,0 8.18130398,0 L13.2923802,0 Z" id="形状" fill="#666666"></path>
        </g>
    </g>
</svg>