<!--?xml version="1.0"?-->
<svg xmlns="http://www.w3.org/2000/svg" class="icon" style="vertical-align:middle;fill:currentColor;overflow:hidden;" viewBox="0 0 1024 1024" version="1.1" width="200px" height="200px"><path d="M777.777778 0C900.507722 0 1000 99.492278 1000 222.222222L1000 777.777778C1000 900.507722 900.507722 1000 777.777778 1000L222.222222 1000C99.492278 1000 0 900.507722 0 777.777778L0 222.222222C0 99.492278 99.492278 0 222.222222 0L777.777778 0zM722.222222 683.333333L277.777778 683.333333C256.300038 683.333333 238.888889 700.744483 238.888889 722.222222C238.888889 743.699961 256.300038 761.111111 277.777778 761.111111L722.222222 761.111111C743.699961 761.111111 761.111111 743.699961 761.111111 722.222222C761.111111 700.744483 743.699961 683.333333 722.222222 683.333333zM722.222222 461.111111L277.777778 461.111111C256.300038 461.111111 238.888889 478.52226 238.888889 500C238.888889 521.47774 256.300038 538.888889 277.777778 538.888889L722.222222 538.888889C743.699961 538.888889 761.111111 521.47774 761.111111 500C761.111111 478.52226 743.699961 461.111111 722.222222 461.111111zM555.555556 238.888889L277.777778 238.888889C256.300038 238.888889 238.888889 256.300038 238.888889 277.777778C238.888889 299.255518 256.300038 316.666667 277.777778 316.666667L555.555556 316.666667C577.033294 316.666667 594.444444 299.255518 594.444444 277.777778C594.444444 256.300038 577.033294 238.888889 555.555556 238.888889z" fill="#666666"></path></svg>
