<!--?xml version="1.0" encoding="UTF-8"?-->
<svg width="32px" height="32px" viewBox="0 0 32 32" version="1.1" xmlns="http://www.w3.org/2000/svg" xmlns:xlink="http://www.w3.org/1999/xlink">
    <title>1701.单据转换</title>
    <g id="1701.单据转换" stroke="none" stroke-width="1" fill="none" fill-rule="evenodd">
        <path d="M7.60000002,2 L24.4,2 C25.2836556,2 26,2.71634441 26,3.60000002 L26,5 L26,5 L6,5 L6,3.60000002 C6,2.71634441 6.71634441,2 7.60000002,2 Z M26.4,7 C27.2836556,7 28,7.71634441 28,8.60000002 L28,28.4 C28,29.2836556 27.2836556,30 26.4,30 L5.60000002,30 C4.71634441,30 4,29.2836556 4,28.4 L4,8.60000002 C4,7.71634441 4.71634441,7 5.60000002,7 L26.4,7 Z M20.7412587,18.9259259 L10.1678322,18.9259259 C9.32106609,18.9259259 8.96174798,19.9680752 9.63916084,20.4592593 L13.1636364,23.0148148 C13.5529392,23.2970937 14.1052257,23.2208163 14.3972028,22.8444444 L14.4580261,22.7549786 C14.675205,22.3874168 14.5803355,21.912417 14.220979,21.6518519 L12.8111888,20.6296296 L20.7412587,20.6296296 C21.2278873,20.6296296 21.6223776,20.2482426 21.6223776,19.7777778 C21.6223776,19.307313 21.2278873,18.9259259 20.7412587,18.9259259 Z M17.7454545,13.1333333 C17.3561517,12.8510545 16.8038652,12.9273319 16.5118881,13.3037037 L16.4510648,13.3931696 C16.2338859,13.7607313 16.3287554,14.2357312 16.6881119,14.4962963 L18.0979021,15.5185185 L10.1678322,15.5185185 C9.68120365,15.5185185 9.28671329,15.8999056 9.28671329,16.3703704 C9.28671329,16.8408352 9.68120365,17.2222222 10.1678322,17.2222222 L20.7412587,17.2222222 C21.5880248,17.2222222 21.9473429,16.1800729 21.2699301,15.6888889 Z" id="形状结合" fill="#666666"></path>
    </g>
</svg>