<!--?xml version="1.0" encoding="UTF-8"?-->
<svg width="32px" height="32px" viewBox="0 0 32 32" version="1.1" xmlns="http://www.w3.org/2000/svg" xmlns:xlink="http://www.w3.org/1999/xlink">
    <title>1724.电商中心</title>
    <g id="1724.电商中心" stroke="none" stroke-width="1" fill="none" fill-rule="evenodd">
        <g id="实物类-copy-2" transform="translate(2.000000, 4.000000)" fill-rule="nonzero">
            <path d="M1.77421984,0.000428628613 C2.44072287,0.00892828218 4.00576109,0.16393897 4.60314603,2.18080907 L5.26451263,4.53340011 L25.967589,4.53340011 C26.3819368,4.53340011 26.5579362,4.54827099 26.7630987,4.75661087 C26.9682613,4.96903585 27.1734238,5.77569682 26.7630987,6.19237658 L24.536,16.363 L8.76964884,16.3636364 C8.75158854,16.3636364 8.73353858,16.3642471 8.71552983,16.3654665 L8.66165809,16.3709485 C8.22326106,16.4305901 7.91621916,16.8343302 7.9758608,17.2727273 L7.98183235,17.3166212 C8.04925946,17.8122454 8.47251506,18.1818182 8.97270476,18.1818182 L24.138,18.181 L23.8787553,19.3708953 C23.8787553,19.7565964 23.5305881,19.9638015 23.1565054,19.9956572 L23.0540825,20 L7.05829551,20 C6.64394771,20 6.43878521,19.787575 6.2336227,19.3708953 L2.73379175,2.92901361 C2.52862924,1.88322911 1.62023624,1.88322911 1.41507373,1.88322911 L1.02983532,1.88322911 C0.410325008,1.88322911 0,1.46654935 0,0.837444616 C0,0.41667976 0.414347803,0 0.824672811,0 Z" id="Combined-Shape" fill="#666666"></path>
            <path d="M1.77421984,0.000428628613 C2.44072287,0.00892828218 4.00576109,0.16393897 4.60314603,2.18080907 L5.26451263,4.53340011 L25.967589,4.53340011 C26.3819368,4.53340011 26.5579362,4.54827099 26.7630987,4.75661087 C26.9682613,4.96903585 27.1734238,5.77569682 26.7630987,6.19237658 L24.536,16.363 L8.76059088,16.3636364 C8.74255404,16.3636364 8.72452774,16.3642587 8.70654342,16.3655012 L8.65274789,16.3710869 C8.21935344,16.431252 7.91630077,16.8349301 7.9758608,17.2727273 L7.9926991,17.3964975 C8.0539219,17.8465168 8.43458713,18.1818182 8.88426799,18.1818182 L24.138,18.181 L23.8787553,19.3708953 C23.8787553,19.7565964 23.5305881,19.9638015 23.1565054,19.9956572 L23.0540825,20 L7.05829551,20 C6.64394771,20 6.43878521,19.787575 6.2336227,19.3708953 L2.73379175,2.92901361 C2.52862924,1.88322911 1.62023624,1.88322911 1.41507373,1.88322911 L1.02983532,1.88322911 C0.410325008,1.88322911 0,1.46654935 0,0.837444616 C0,0.41667976 0.414347803,0 0.824672811,0 Z M20.7541305,21 C19.6311958,21 18.5082611,21.8338762 18.5082611,23 C18.5082611,24 19.4446496,25 20.7541305,25 C21.8770653,25 23,24.1661238 23,23 C23,21.8338762 22.0636114,21 20.7541305,21 Z M8.24586947,21 C7.12293474,21 6,21.8338762 6,23 C6,24 6.93638857,25 8.24586947,25 C9.36880421,25 10.4917389,24.1661238 10.4917389,23 C10.4917389,21.8338762 9.36880421,21 8.24586947,21 Z" id="形状结合" fill="#666666"></path>
        </g>
    </g>
</svg>