<!--?xml version="1.0" encoding="UTF-8"?-->
<svg width="32px" height="32px" viewBox="0 0 32 32" version="1.1" xmlns="http://www.w3.org/2000/svg" xmlns:xlink="http://www.w3.org/1999/xlink">
    <title>1023.有效性</title>
    <g id="1023.有效性" stroke="none" stroke-width="1" fill="none" fill-rule="evenodd">
        <g id="编组" transform="translate(2.000000, 4.000000)" fill="#000000" fill-rule="nonzero">
            <path d="M27.7354934,16.2759555 C27.7357625,16.2762243 27.7360314,16.2764934 27.7363001,16.2767626 C28.0589962,16.6000196 28.0854707,17.1069688 27.8160165,17.4603698 L27.7351921,17.5526916 L22.10235,23.1757591 C21.7491288,23.5283673 21.1770526,23.5282323 20.823998,23.1754575 C20.8237289,23.1751886 20.8234599,23.1749195 20.8231912,23.1746504 C20.7128567,23.064124 20.6371521,22.932123 20.5960658,22.7921275 L17.3224547,19.5251827 C16.9697689,19.1733711 16.9690604,18.6022631 17.3208722,18.2495774 C17.3211945,18.2492543 17.3215171,18.2489313 17.3218399,18.2486087 C17.6748788,17.8957658 18.246975,17.8954903 18.6003534,18.2479931 L21.5413067,21.1817061 L26.4571414,16.2756538 C26.8103624,15.9230457 27.3824388,15.9231806 27.7354934,16.2759555 Z M14.6498493,18.5074061 C15.1892418,18.5074061 15.6265059,18.9446703 15.6265059,19.4840628 C15.6265059,20.0234553 15.1892418,20.4607194 14.6498493,20.4607194 L0.976656617,20.4607194 C0.437264075,20.4607194 0,20.0234553 0,19.4840628 C0,18.9446703 0.437264075,18.5074061 0.976656617,18.5074061 L14.6498493,18.5074061 Z M27.039267,0.183637436 L27.1317226,0.264437316 L27.2125261,0.356897945 C27.4573686,0.678604291 27.4573648,1.12708129 27.2125169,1.44878348 L27.1317171,1.54123736 L23.3009423,5.37153044 L27.1317171,9.20200523 C27.4549156,9.52519819 27.4818528,10.0324677 27.2125261,10.3863446 L27.1317226,10.4788052 C26.7791417,10.8313862 26.2074957,10.8313886 25.8549118,10.4788107 L22.0244521,6.64802061 L18.1939926,10.4788107 C17.8707906,10.8020072 17.3635157,10.8289382 17.0096373,10.5596051 L16.9171817,10.4788052 L16.8363782,10.3863446 C16.5915357,10.0646383 16.5915395,9.61616123 16.8363874,9.29445904 L16.9171871,9.20200523 L20.7469853,5.37153044 L16.9171871,1.54123736 C16.5939888,1.2180444 16.5670514,0.710774922 16.8363782,0.356897945 L16.9171817,0.264437316 C17.2697627,-0.088143661 17.8414087,-0.0881460675 18.1939926,0.264431909 L22.0244521,4.09504024 L25.8549118,0.264431909 C26.1781137,-0.0587645798 26.6853886,-0.0856955813 27.039267,0.183637436 Z M14.6498493,3.85755689 C15.1892418,3.85755689 15.6265059,4.29482096 15.6265059,4.8342135 C15.6265059,5.37360605 15.1892418,5.81087012 14.6498493,5.81087012 L0.976656617,5.81087012 C0.437264075,5.81087012 0,5.37360605 0,4.8342135 C0,4.29482096 0.437264075,3.85755689 0.976656617,3.85755689 L14.6498493,3.85755689 Z" id="形状" fill="#666666"></path>
        </g>
    </g>
</svg>