<!--?xml version="1.0" encoding="UTF-8"?-->
<svg width="32px" height="32px" viewBox="0 0 32 32" version="1.1" xmlns="http://www.w3.org/2000/svg" xmlns:xlink="http://www.w3.org/1999/xlink">
    <title>716.企业资源库@1x</title>
    <g id="716.企业资源库" stroke="none" stroke-width="1" fill="none" fill-rule="evenodd">
        <g id="编组" transform="translate(4.000000, 3.000000)" fill="#000000" fill-rule="nonzero">
            <path d="M0.726666652,6.97551694 L14.0826666,0.146016124 C14.4959056,-0.0651351464 14.9892036,-0.0462336375 15.3850743,0.195920042 C15.7809451,0.438073694 16.0224386,0.868643324 16.0226666,1.33271189 L16.0226666,26.6666665 L1.33333332,26.6666665 C0.596953663,26.6666665 0,26.0696982 0,25.3333005 L0,8.16221271 C0.000246048899,7.66159474 0.28088149,7.20329811 0.726666652,6.97551694 Z M19.3653332,11.3889585 L23.3653332,13.8476855 C23.759851,14.0904094 24.0001304,14.5204998 23.9999999,14.9837133 L23.9999999,25.3319672 C23.9999999,26.0683649 23.4030462,26.6653332 22.6666666,26.6653332 L17.3333331,26.6653332 L17.3333331,12.5249864 C17.3331971,12.0418918 17.5943703,11.5965106 18.0160326,11.3607723 C18.4376949,11.125034 18.9538829,11.135817 19.3653332,11.3889585 L19.3653332,11.3889585 Z M2.66666665,9.33333329 L2.66666665,10.6666666 L3.99999997,10.6666666 L3.99999997,9.33333329 L2.66666665,9.33333329 Z M5.33333329,9.33821611 L5.33333329,10.649414 L13.3333333,10.649414 L13.3333333,9.33821611 L5.33333329,9.33821611 Z M2.66666665,13.3333333 L2.66666665,14.6666666 L3.99999997,14.6666666 L3.99999997,13.3333333 L2.66666665,13.3333333 Z M5.33333329,13.3382161 L5.33333329,14.649414 L13.3333333,14.649414 L13.3333333,13.3382161 L5.33333329,13.3382161 Z M2.66666665,17.3333333 L2.66666665,18.6666666 L3.99999997,18.6666666 L3.99999997,17.3333333 L2.66666665,17.3333333 Z M5.33333329,17.3382161 L5.33333329,18.649414 L13.3333333,18.649414 L13.3333333,17.3382161 L5.33333329,17.3382161 Z M2.66666665,21.3333332 L2.66666665,22.6666666 L3.99999997,22.6666666 L3.99999997,21.3333332 L2.66666665,21.3333332 Z M5.33333329,21.338216 L5.33333329,22.649414 L13.3333333,22.649414 L13.3333333,21.338216 L5.33333329,21.338216 Z" id="形状" fill="#346bf6"></path>
        </g>
    </g>
</svg>