<!--?xml version="1.0"?-->
<svg xmlns="http://www.w3.org/2000/svg" class="icon" style="vertical-align:middle;fill:currentColor;overflow:hidden;" viewBox="0 0 1024 1024" version="1.1" width="200px" height="200px"><path d="M805.626069 593.29985C808.770622 593.500722 819.813059 595.016578 830.50745 606.235941L851.910438 627.315891C880.593475 655.239541 926.972575 699.733903 937.5 708.626778L937.5 875C937.5 906.25 906.25 937.5 875 937.5L343.75 937.5L341.630172 937.807341C336.686484 938.327206 323.989016 938.527359 313.141844 929.074009C231.192008 855.959238 149.492831 782.558231 68.045782 708.872322C58.440272 697.754197 63.705803 680.067344 66.196236 673.437331L67.515025 670.373675L69.458704 667.357347C78.511489 654.418659 116.356529 612.483419 196.572952 670.813375C248.432788 710.987041 300.381746 751.043159 352.419438 790.981425L597.709941 790.981425L674.8068 780.816003L673.57365 776.218853C669.825278 762.858675 657.947403 724.919184 643.695834 723.948575L579.553059 719.005553L543.176122 715.851541C516.447331 713.394397 492.817044 710.845269 480.557716 708.626778C448.912034 701.604288 430.319441 678.590006 429.6875 648.4375C428.7963 605.402247 468.75 593.75 480.152459 593.39075L805.626069 593.29985zM687.5 62.5C722.017797 62.5 750 90.482203 750 125L750 531.25L468.75 531.25C418.822472 531.25 378.010597 570.27875 375.159147 619.491475L375 625L250 625C215.482203 625 187.5 597.017797 187.5 562.5L187.5 125C187.5 90.482203 215.482203 62.5 250 62.5L687.5 62.5zM281.25 406.25C263.991102 406.25 250 420.241103 250 437.5C250 454.758897 263.991102 468.75 281.25 468.75C298.508898 468.75 312.5 454.758897 312.5 437.5C312.5 420.241103 298.508898 406.25 281.25 406.25zM656.25 406.25L406.25 406.25C388.991103 406.25 375 420.241103 375 437.5C375 454.758897 388.991103 468.75 406.25 468.75L656.25 468.75C673.508897 468.75 687.5 454.758897 687.5 437.5C687.5 420.241103 673.508897 406.25 656.25 406.25zM281.25 281.25C263.991102 281.25 250 295.241102 250 312.5C250 329.758897 263.991102 343.75 281.25 343.75C298.508898 343.75 312.5 329.758897 312.5 312.5C312.5 295.241102 298.508898 281.25 281.25 281.25zM656.25 281.25L406.25 281.25C388.991103 281.25 375 295.241102 375 312.5C375 329.758897 388.991103 343.75 406.25 343.75L656.25 343.75C673.508897 343.75 687.5 329.758897 687.5 312.5C687.5 295.241102 673.508897 281.25 656.25 281.25zM281.25 156.25C263.991102 156.25 250 170.241102 250 187.5C250 204.758898 263.991102 218.75 281.25 218.75C298.508898 218.75 312.5 204.758898 312.5 187.5C312.5 170.241102 298.508898 156.25 281.25 156.25zM656.25 156.25L406.25 156.25C388.991103 156.25 375 170.241102 375 187.5C375 204.758898 388.991103 218.75 406.25 218.75L656.25 218.75C673.508897 218.75 687.5 204.758898 687.5 187.5C687.5 170.241102 673.508897 156.25 656.25 156.25z" fill="#666666"></path></svg>
