<!--?xml version="1.0" encoding="UTF-8"?-->
<svg width="32px" height="32px" viewBox="0 0 32 32" version="1.1" xmlns="http://www.w3.org/2000/svg" xmlns:xlink="http://www.w3.org/1999/xlink">
    <title>1837.委托代销管理</title>
    <g id="1837.委托代销管理" stroke="none" stroke-width="1" fill="none" fill-rule="evenodd">
        <path d="M23.6421174,20.147153 C25.0100529,20.7335204 28,22.2447764 28,22.2447764 L25.2437486,28.8885328 L23.8383132,27.8971488 C23.0611389,27.3594164 22.6304321,27.2679167 21.6258121,27.8284553 C20.6529855,28.3716832 17.6633101,30.0607179 16.9157554,30.4552931 C15.0018052,31.4630261 13.9985589,30.8789791 13.0749159,30.2538432 L12.8543444,30.1038156 C12.7443974,30.0292013 12.6346391,29.9557818 12.5236337,29.8862365 C11.5766223,29.2932746 4.87199944,24.4698948 4.16765127,23.9283156 C3.06737899,23.08476 2.72444402,22.3483661 3.22525949,21.6413731 C3.60487924,21.1058389 4.45651009,20.6590567 6.18450009,21.7680438 C6.02444567,20.9882357 6.59401117,20.5062824 7.26738107,20.5062824 C7.86439223,20.5062824 8.56085998,20.6738944 9.11520805,21.2852662 C9.91031714,20.1474278 10.7293393,20.2823417 12.3220031,21.3561579 C12.9290686,21.7647465 13.464395,22.1148084 13.8627648,22.3596319 C13.9687431,22.4239289 14.0540692,22.4739378 14.1391236,22.5236718 C13.9828735,22.557469 13.8244495,22.5887932 13.6499929,22.5887932 C11.4157527,22.5887932 9.64999093,22.5887932 9.64999093,24.6954842 C9.64999093,26.3147263 11.3815135,26.7796436 12.2978183,26.7999769 L16.4383095,26.7999769 C18.1437451,26.7999769 19.8141264,24.8683169 19.8141264,24.8683169 C19.8141264,24.8683169 17.8423863,25.7464941 16.437766,25.7464941 L12.3073292,25.7464941 C12.299177,25.7464941 10.6206436,25.6739538 10.6206436,24.6954842 C10.6206436,23.7991719 11.0736329,23.6422761 13.6499929,23.6422761 C15.1974937,23.6422761 16.7610944,22.7301422 17.0013666,22.5842008 L17.0331468,22.5646132 L17.0731843,22.5328979 C17.3328841,22.3273357 18.7828265,21.1820512 19.2578761,20.8588172 C20.4945615,20.0193832 21.4828772,19.2236382 23.6421174,20.147153 Z M19.9725577,4.89455382 L19.9725577,7.34664449 C19.9725577,7.34664449 20.7747517,7.50919085 20.6339616,8.78981338 C20.4935674,10.0696701 19.5641156,10.424814 18.9169601,11.0508017 C18.7060065,11.2550099 18.5765022,11.4986962 18.4611897,11.752108 L18.3253223,12.0589662 C18.14177,12.4692571 17.9256769,12.8739787 17.4015561,13.1512645 C17.5458326,13.2082121 17.5646317,13.2784497 17.3993873,13.3619773 L17.3993873,14.5947168 C17.3993873,14.5947168 18.3671561,14.9207525 19.3877907,15.2523963 L19.7712198,15.3763997 C20.4084422,15.5814242 21.0216422,15.7729935 21.3874551,15.8728782 C22.1906039,16.1397965 23.3242443,17.2676021 24.7883764,19.2562949 C22.4938085,17.9588241 20.8267083,17.3631409 17.0036143,21.1026709 C16.5376613,21.4909729 15.9482951,21.7435728 15.2355157,21.8604707 C11.9707533,18.9747295 10.164862,18.4113977 8.86902038,19.7252053 C7.39527485,18.742781 6.47747648,18.8783114 5.77777778,19.7252053 C7.29416834,17.4239055 8.47235835,16.1397965 9.31234782,15.8728782 C10.572332,15.4725007 13.2451546,14.5947543 13.2451546,14.5947543 L13.2451546,13.3619773 C13.1307887,13.3041677 13.1045805,13.2527241 13.1471141,13.2076465 C13.1236007,13.193566 13.1111737,13.1856655 13.1111737,13.1856655 C12.0555761,12.6750858 12.2036789,11.6768077 11.5277773,11.0508017 C11.4085006,10.9403301 11.2822242,10.8383288 11.1543615,10.7382108 L10.8981248,10.5385342 C10.3878371,10.1363961 9.90990982,9.69412871 9.8107947,8.79015985 C9.67004237,7.51030318 10.0989828,7.34664449 10.4299203,7.34664449 L10.4299203,5.16939708 C10.5841626,3.40935878 12.5858846,2.24835611 14.2993026,2.05599542 C16.025562,1.73656742 19.6629854,2.7971877 19.9725577,4.89455382 Z" id="形状结合" fill="#666666" fill-rule="nonzero"></path>
    </g>
</svg>