<!--?xml version="1.0" encoding="UTF-8"?-->
<svg width="32px" height="32px" viewBox="0 0 32 32" version="1.1" xmlns="http://www.w3.org/2000/svg" xmlns:xlink="http://www.w3.org/1999/xlink">
    <title>1716.人人财务</title>
    <g id="1716.人人财务" stroke="none" stroke-width="1" fill="none" fill-rule="evenodd">
        <path d="M3.13337476,14.1875487 C3.96992085,14.6849757 4.81788299,18.8144171 5.18793391,20.4932246 L5.26210171,20.8234811 C5.29505331,20.9659673 5.32165727,21.0726361 5.34124238,21.1351439 C5.54149033,21.7742543 6.15016488,22.0239387 8.23075231,23.1466389 C10.2136764,24.3257251 12.4408029,24.8263007 12.820354,25.1375884 C13.1999051,25.448876 13.9444243,25.8497527 14.2039355,27.7591816 C14.3157487,28.5818802 14.3669303,30.0901158 14.3669303,30.0901158 L10.4650815,30.3629596 C10.3978689,29.4017748 9.42957089,28.4688455 9.00061984,28.1230329 C8.74246885,27.9149162 7.67481592,27.2508236 6.61006333,26.6075417 L6.27486963,26.4056479 C5.10866193,25.7053335 4.05046427,25.0917518 4.19717966,25.2086584 L4.214,25.221 L4.19921508,25.2105206 C3.65854637,24.8056972 2.3172856,23.6932284 2.33605504,22.7825545 L1.50070909,14.7428473 C1.47241577,14.2427541 2.29548113,13.6384499 3.13337476,14.1875487 Z M28.7971477,14.1875487 C29.6350414,13.6384499 30.4581067,14.2427541 30.4298134,14.7428473 L29.5944675,22.7825545 C29.6132369,23.6932284 28.2719761,24.8056972 27.7313074,25.2105206 L27.716,25.221 L27.7333429,25.2086584 C28.0197872,24.9804121 23.7133543,27.5366352 22.9772721,28.0864526 L22.9299027,28.1230329 C22.5009516,28.4688455 21.5326537,29.4017748 21.4654411,30.3629596 L17.5635922,30.0901158 C17.5635922,30.0901158 17.6147738,28.5818802 17.726587,27.7591816 C17.9860982,25.8497527 18.7306174,25.448876 19.1101685,25.1375884 C19.4897196,24.8263007 21.7168462,24.3257251 23.6997702,23.1466389 C25.7803576,22.0239387 26.3890322,21.7742543 26.5892801,21.1351439 C26.798188,20.4683945 27.8056857,14.7770918 28.7971477,14.1875487 Z M15.8254064,2 C21.5706894,2 26.3254064,6.75471698 26.3254064,12.5 C26.3254064,18.245283 21.5706894,23 15.8254064,23 C10.0801234,23 5.32540643,18.0471698 5.32540643,12.3018868 C5.32540643,6.55660377 10.0801234,2 15.8254064,2 Z M19.0744064,6.90741946 L19.0179925,6.93050341 C18.3392053,7.22076395 17.5560662,7.82994094 16.8733343,8.65540432 L15.8254064,9.92241946 L14.7774786,8.65540432 L14.6437408,8.50269152 C13.9569065,7.76101313 13.0090441,7.34467313 12.3021708,7.1210975 L12.2824064,7.11441946 L12.3095553,7.25030409 C12.4590794,7.91318352 12.8915586,8.72863356 13.5553829,9.5093303 L13.9724064,9.99941946 L12.3229511,10 C11.7717178,10 11.3254064,10.4477153 11.3254064,11 C11.3254064,11.5561352 11.7720224,12 12.3229511,12 L14.8734064,11.9994195 L14.8734064,13.9994195 L12.3229511,14 C11.7717178,14 11.3254064,14.4477153 11.3254064,15 C11.3254064,15.5561352 11.7720224,16 12.3229511,16 L14.8734064,15.9994195 L14.8739103,18.0197096 C14.8739103,18.5659113 15.3154609,19 15.8601412,19 L15.9758581,18.9934049 C16.4689216,18.9367783 16.846372,18.5224377 16.846372,18.0197096 L16.8454064,15.9994195 L19.3278618,16 C19.879095,16 20.3254064,15.5522847 20.3254064,15 L20.3186952,14.8826674 C20.2610719,14.3827202 19.8394384,14 19.3278618,14 L16.8454064,13.9994195 L16.8454064,11.9994195 L19.3278618,12 C19.879095,12 20.3254064,11.5522847 20.3254064,11 L20.3186952,10.8826674 C20.2610719,10.3827202 19.8394384,10 19.3278618,10 L17.6774064,9.99941946 L18.0954299,9.5093303 C18.7749235,8.71020562 19.0011651,7.72463522 19.0674574,7.00160547 L19.0744064,6.90741946 Z M12.5812221,6 L11.3254064,6.88674569 C11.3254064,6.88674569 11.6709838,6.9333738 12.164158,7.07891328 L12.2824064,7.11441946 C12.1963482,6.6077044 12.2877895,6.20719605 12.5812221,6 Z M19.0695908,6 C19.0695908,6 19.1136677,6.35287993 19.0780844,6.86922366 L19.0744064,6.90741946 L19.161775,6.8732235 C19.6352286,6.69881105 20.0479793,6.69085124 20.3254064,6.88674569 L19.0695908,6 Z" id="形状结合" fill="#666666" fill-rule="nonzero"></path>
    </g>
</svg>