<!--?xml version="1.0" encoding="UTF-8"?-->
<svg width="32px" height="32px" viewBox="0 0 32 32" version="1.1" xmlns="http://www.w3.org/2000/svg" xmlns:xlink="http://www.w3.org/1999/xlink">
    <title>1854.例外检验管理</title>
    <g id="1854.例外检验管理" stroke="none" stroke-width="1" fill="none" fill-rule="evenodd">
        <path d="M15.0862029,2 C22.3135132,2 28.1724057,7.88210402 28.1724057,15.1380471 C28.1724057,18.3174609 27.047485,21.2330945 25.1754347,23.50566 L29.4829209,28.5520723 C29.9738358,29.127121 29.9063624,29.9910913 29.3321251,30.482955 C29.3297095,30.4850241 29.3272867,30.4870846 29.3248567,30.4891366 C28.751499,30.9733084 27.894202,30.9010089 27.4100302,30.3276512 L23.2530918,25.4041806 C21.0145845,27.2014366 18.1753983,28.2760941 15.0862029,28.2760941 C7.85889259,28.2760941 2,22.3939901 2,15.1380471 C2,7.88210402 7.85889259,2 15.0862029,2 Z M15.0862029,4.71821663 C9.35419817,4.71821663 4.70749025,9.38333362 4.70749025,15.1380471 C4.70749025,20.8927605 9.35419817,25.5578775 15.0862029,25.5578775 C20.8182076,25.5578775 25.4649155,20.8927605 25.4649155,15.1380471 C25.4649155,9.38333362 20.8182076,4.71821663 15.0862029,4.71821663 Z M19.9752505,12.1459354 C21.1401972,12.1459354 21.9988108,13.0170048 22,14.1582228 L22,21 L13.9010018,21 C12.7360551,21 11.8762523,20.1289307 11.8762523,18.9877126 L11.8762523,12.1459354 L19.9752505,12.1459354 Z M17.0989982,9 C18.2639449,9 19.1420896,10.2650875 19.1432789,11.4063056 L11.0442807,11.4063056 L11.0442807,18.6219339 C9.87933396,18.6219339 9.01953113,17.7508645 9.01953113,16.6096465 L9,9 L17.0989982,9 Z" id="形状结合" fill="#666666" fill-rule="nonzero"></path>
    </g>
</svg>