<!--?xml version="1.0"?-->
<svg xmlns="http://www.w3.org/2000/svg" class="icon" style="vertical-align:middle;fill:currentColor;overflow:hidden;" viewBox="0 0 1024 1024" version="1.1" width="200px" height="200px"><path d="M93.75 125L906.25 125C923.508897 125 937.5 138.991102 937.5 156.25C937.5 173.508898 923.508897 187.5 906.25 187.5L93.75 187.5C76.491102 187.5 62.5 173.508898 62.5 156.25C62.5 138.991102 76.491102 125 93.75 125zM93.75 343.75L500 343.75C517.258897 343.75 531.25 357.741103 531.25 375C531.25 392.258897 517.258897 406.25 500 406.25L93.75 406.25C76.491102 406.25 62.5 392.258897 62.5 375C62.5 357.741103 76.491102 343.75 93.75 343.75zM642.252869 468.75C638.657128 468.75 635.151244 467.8305 632.225269 466.120031C624.471941 461.587581 622.676138 452.769316 628.214228 446.423884L767.211422 287.163757C768.317969 285.895899 769.673297 284.786679 771.222463 283.881066C778.975791 279.348616 789.750613 280.818327 795.288703 287.163757L934.285897 446.423884C936.375881 448.818544 937.499394 451.687806 937.499394 454.630613C937.499394 462.428534 929.77535 468.75 920.247256 468.75L812.5 468.75L812.5 812.5C812.5 829.758897 798.508897 843.75 781.25 843.75C763.991103 843.75 750 829.758897 750 812.5L750 468.75zM93.75 562.5L500 562.5C517.258897 562.5 531.25 576.491103 531.25 593.75C531.25 611.008897 517.258897 625 500 625L93.75 625C76.491102 625 62.5 611.008897 62.5 593.75C62.5 576.491103 76.491102 562.5 93.75 562.5zM93.75 781.25L500 781.25C517.258897 781.25 531.25 795.241103 531.25 812.5C531.25 829.758897 517.258897 843.75 500 843.75L93.75 843.75C76.491102 843.75 62.5 829.758897 62.5 812.5C62.5 795.241103 76.491102 781.25 93.75 781.25z" fill="#666666"></path></svg>
