<!--?xml version="1.0" encoding="UTF-8"?-->
<svg width="32px" height="32px" viewBox="0 0 32 32" version="1.1" xmlns="http://www.w3.org/2000/svg" xmlns:xlink="http://www.w3.org/1999/xlink">
    <title>1406-已扩展</title>
    <g id="1406-已扩展" stroke="none" stroke-width="1" fill="none" fill-rule="evenodd">
        <g id="编组" transform="translate(4.000000, 4.000000)" fill="#000000" fill-rule="nonzero">
            <path d="M21.8461538,0 C22.9564014,0 23.8704262,0.840017014 23.9873618,1.9191601 L24,2.15384616 L24,15.0769231 C24,16.1871746 23.1599954,17.101196 22.0808424,17.218131 L21.8461538,17.2307692 L17.2301538,17.2301538 L17.2307692,21.8461538 C17.2307692,22.9564052 16.3907646,23.8704268 15.3116116,23.9873618 L15.0769231,24 L2.15384616,24 C0.964305231,24 0,23.0357048 0,21.8461538 L0,21.8461538 L0,8.92307691 C0,7.733526 0.964305231,6.76923078 2.15384616,6.76923078 L2.15384616,6.76923078 L6.768,6.768 L6.76923078,2.15384616 C6.76923078,1.04360797 7.60923908,0.12957507 8.68838914,0.0126384148 L8.92307691,0 L21.8461538,0 Z M14.4615385,8.61538463 L2.15384616,8.61538463 C1.98390357,8.61538463 1.84615385,8.7531329 1.84615385,8.92307691 L1.84615385,8.92307691 L1.84615385,21.8461538 C1.84615385,22.0160978 1.98390357,22.1538462 2.15384616,22.1538462 L2.15384616,22.1538462 L15.0769231,22.1538462 C15.2468756,22.1538462 15.3846154,22.0161065 15.3846154,21.8461538 L15.3846154,21.8461538 L15.3846154,9.53846155 C15.3846154,9.02866022 14.9713398,8.61538463 14.4615385,8.61538463 L14.4615385,8.61538463 Z M21.8461538,1.84615385 L8.92307691,1.84615385 C8.78712171,1.84615385 8.67177175,1.93431366 8.63106999,2.05658818 L8.61538463,2.15384616 L8.61415385,6.768 L14.4615385,6.76923078 C15.9009775,6.76923078 17.0839052,7.8674857 17.2180926,9.27176613 L17.2307692,9.53846155 L17.2301538,15.384 L21.8461538,15.3846153 C21.9821158,15.3846153 22.0974617,15.2964619 22.1381616,15.1741848 L22.1538462,15.0769231 L22.1538462,2.15384616 C22.1538462,2.01789209 22.0656873,1.90254144 21.9434123,1.86183936 L21.8461538,1.84615385 Z" id="形状" fill="#666666"></path>
        </g>
    </g>
</svg>