<!--?xml version="1.0" encoding="UTF-8"?-->
<svg width="32px" height="32px" viewBox="0 0 32 32" version="1.1" xmlns="http://www.w3.org/2000/svg" xmlns:xlink="http://www.w3.org/1999/xlink">
    <title>140.眼睛</title>
    <g id="140.眼睛" stroke="none" stroke-width="1" fill="none" fill-rule="evenodd">
        <g id="眼睛" transform="translate(4.000000, 7.000000)" fill="#000000" fill-rule="nonzero">
            <path d="M12,19 C5.372583,19 0,12.9545455 0,9.5 C0,6.04545455 5.372583,0 12,0 C18.627417,0 24,6.04545455 24,9.5 C24,12.9545455 18.627417,19 12,19 Z M12,17.2727273 C17.0312565,17.2727273 22.2857143,12.5708971 22.2857143,9.5 C22.2857143,6.4291029 17.0312565,1.72727273 12,1.72727273 C6.96874354,1.72727273 1.71428571,6.4291029 1.71428571,9.5 C1.71428571,12.5708971 6.96874354,17.2727273 12,17.2727273 Z M12,4.31818182 C14.3669346,4.31818182 16.2857143,6.2514977 16.2857143,8.63636364 L16.2857143,10.3636364 C16.2857143,12.7485023 14.3669346,14.6818182 12,14.6818182 C9.63306539,14.6818182 7.71428571,12.7485023 7.71428571,10.3636364 L7.71428571,8.63636364 C7.71428571,6.2514977 9.63306539,4.31818182 12,4.31818182 Z M12,6.04545455 C10.5798393,6.04545455 9.42857143,7.20544409 9.42857143,8.63636364 L9.42857143,10.3636364 C9.42857143,11.7945559 10.5798393,12.9545455 12,12.9545455 C13.4201607,12.9545455 14.5714286,11.7945559 14.5714286,10.3636364 L14.5714286,8.63636364 C14.5714286,7.20544409 13.4201607,6.04545455 12,6.04545455 Z" id="形状" fill="#666666"></path>
        </g>
    </g>
</svg>