<!--?xml version="1.0" encoding="UTF-8"?-->
<svg width="32px" height="32px" viewBox="0 0 32 32" version="1.1" xmlns="http://www.w3.org/2000/svg" xmlns:xlink="http://www.w3.org/1999/xlink">
    <title>724.可研专项审批@1x</title>
    <g id="724.可研专项审批" stroke="none" stroke-width="1" fill="none" fill-rule="evenodd">
        <g id="编组" transform="translate(4.000000, 4.000000)" fill="#000000" fill-rule="nonzero">
            <path d="M17.5714286,11.1429039 C21.1218305,11.1429039 24,14.0210734 24,17.5714753 C24,21.1218774 21.1218305,24.0000467 17.5714286,24.0000467 C14.0210266,24.0000467 11.1428571,21.1218774 11.1428571,17.5714753 C11.1428571,14.0210734 14.0210266,11.1429039 17.5714286,11.1429039 Z M21.5845547,14.8440635 C21.2498196,14.5093284 20.7071067,14.5093284 20.3723717,14.8440635 L20.3723717,14.8440635 L16.7610463,18.4546193 L15.5331535,17.2263503 C15.1984182,16.8916152 14.6557055,16.8916152 14.3209704,17.2263503 C13.9862352,17.5610854 13.9862352,18.1037983 14.3209704,18.4385333 L14.3209704,18.4385333 L15.9851196,20.1069446 C16.0231385,20.1757818 16.0713424,20.2404986 16.129731,20.2988873 C16.4644661,20.6336223 17.007179,20.6336223 17.3419141,20.2988873 L17.3419141,20.2988873 L21.5845547,16.0562465 C21.9192899,15.7215114 21.9192899,15.1787985 21.5845547,14.8440635 Z M18.8571429,0 C19.3305299,0 19.7142857,0.383755943 19.7142857,0.857142857 L19.7156137,10.6063963 C19.0377214,10.3979554 18.3176772,10.2857611 17.5714286,10.2857611 C13.5476397,10.2857611 10.2857143,13.5476865 10.2857143,17.5714753 C10.2857143,19.3697693 10.9372302,21.0158936 12.0170964,22.2866826 L0.857142857,22.285761 C0.383755943,22.285761 0,21.9020052 0,21.4286182 L0,0.857142857 C0,0.383755943 0.383755943,0 0.857142857,0 L18.8571429,0 Z M9.42859464,12.857213 L5.99997681,12.857213 C5.52660268,12.857213 5.14285714,13.2409586 5.14285714,13.7143327 C5.14285714,14.1877068 5.52660268,14.5714523 5.99997681,14.5714523 L5.99997681,14.5714523 L9.42859464,14.5714523 C9.90196875,14.5714523 10.2857143,14.1877068 10.2857143,13.7143327 C10.2857143,13.2409586 9.90196875,12.857213 9.42859464,12.857213 L9.42859464,12.857213 Z M12.8571661,8.57149874 L5.99997681,8.57149874 C5.52660268,8.57149874 5.14285714,8.95524428 5.14285714,9.42861839 C5.14285714,9.90199252 5.52660268,10.2857381 5.99997681,10.2857381 L5.99997681,10.2857381 L12.8571661,10.2857381 C13.3305402,10.2857381 13.7142857,9.90199252 13.7142857,9.42861839 C13.7142857,8.95524428 13.3305402,8.57149874 12.8571661,8.57149874 L12.8571661,8.57149874 Z M14.5714753,4.28578443 L5.99995324,4.28578443 C5.52659213,4.28578443 5.14285714,4.66951942 5.14285714,5.14288052 C5.14285714,5.61624163 5.52659213,5.99997662 5.99995324,5.99997662 L5.99995324,5.99997662 L14.5714753,5.99997662 C15.0448365,5.99997662 15.4285714,5.61624163 15.4285714,5.14288052 C15.4285714,4.66951942 15.0448365,4.28578443 14.5714753,4.28578443 L14.5714753,4.28578443 Z" id="形状" fill="#666666"></path>
        </g>
    </g>
</svg>