<!--?xml version="1.0" encoding="UTF-8"?-->
<svg width="32px" height="32px" viewBox="0 0 32 32" version="1.1" xmlns="http://www.w3.org/2000/svg" xmlns:xlink="http://www.w3.org/1999/xlink">
    <title>1477-提交SVN时文件冲突解决</title>
    <g id="1477-提交SVN时文件冲突解决" stroke="none" stroke-width="1" fill="none" fill-rule="evenodd">
        <g id="编组" transform="translate(4.000000, 6.000000)" fill="#000000" fill-rule="nonzero">
            <path d="M19.5,18 L21,18 L21,19.5 L19.5,19.5 L19.5,18 Z M22.5,18 L24,18 L24,19.5 L22.5,19.5 L22.5,18 Z M22.5,15 L24,15 L24,16.5 L22.5,16.5 L22.5,15 Z M24,13.4985 L22.5,13.4985 C22.599,7.49849999 22.599,4.5 22.5,4.5 L14.1225,4.5075 C13.3192485,4.5081554 12.5492841,4.18666152 11.985,3.615 L9.8925,1.5 L1.5,1.5 L1.5,18 L18.0015,18 L18.0015,19.5000532 L1.5,19.5000532 C0.4995,19.506 0,19.005 0,18 L0,1.5 C0.0479999883,0.4995 0.548999991,0 1.5,0 L9.8925,0 C10.293237,0 10.6772819,0.160499905 10.959,0.4455 L13.053,2.56199999 C13.3350837,2.84737015 13.719743,3.00782494 14.121,3.00749999 L22.5,3 C23.469,3 23.97,3.49949998 24,4.5 L24,13.4985 Z M11.25,5.99999999 L12.75,5.99999999 L12.75,12 L11.25,12 L11.25,5.99999999 L11.25,5.99999999 Z M11.25,13.5 L12.75,13.5 L12.75,15 L11.25,15 L11.25,13.5 L11.25,13.5 Z" id="形状" fill="#666666"></path>
        </g>
    </g>
</svg>