<!--?xml version="1.0" encoding="UTF-8"?-->
<svg width="32px" height="32px" viewBox="0 0 32 32" version="1.1" xmlns="http://www.w3.org/2000/svg" xmlns:xlink="http://www.w3.org/1999/xlink">
    <title>696.档案写入规则@1x</title>
    <g id="696.档案写入规则" stroke="none" stroke-width="1" fill="none" fill-rule="evenodd">
        <g id="编组" transform="translate(4.000000, 4.000000)" fill="#000000" fill-rule="nonzero">
            <path d="M17.5664696,15.1169186 C17.7123735,15.3619378 17.9224796,15.5750964 18.1888502,15.7288856 C18.9518672,16.1694137 19.9059673,15.9663387 20.399746,15.2853901 L20.4921711,15.1428778 L22.4985397,16.3012554 C22.0403986,17.0947791 22.3288177,18.1190971 23.1427026,18.5889937 C23.3557991,18.712025 23.5837235,18.7848308 23.8124809,18.8110691 L23.9839863,18.8220736 L24,21.1343654 C23.4136537,21.1261845 22.8460476,21.4195701 22.5378483,21.9533869 C22.2604689,22.4338222 22.2568072,22.9988514 22.4777367,23.4742506 L22.5596306,23.6291583 L20.5491204,24.7714358 C20.4029875,24.5262844 20.192996,24.3131919 19.9266253,24.1594027 C19.1636084,23.7188746 18.2096655,23.9219097 17.7158534,24.6029453 L17.6234189,24.7454766 L15.6168213,23.5869669 C16.075027,22.7933315 15.7866578,21.7691914 14.972773,21.2992947 C14.7596764,21.1762633 14.5316786,21.1034154 14.3030094,21.0772277 L14.1316038,21.0662809 L14.1154755,18.7539231 C14.7018218,18.7621038 15.2693133,18.4686522 15.5775127,17.9348353 C15.8548921,17.4544001 15.8586465,16.8894244 15.6377357,16.414036 L15.5558449,16.25913 L17.5664696,15.1169186 Z M21.2640094,0 C21.7589398,0 22.1601603,0.400016321 22.1601603,0.87531044 L22.1605339,14.0630765 C21.2342745,13.573378 20.1783874,13.2960961 19.0577378,13.2960961 C15.3861223,13.2960961 12.4096897,16.2725287 12.4096897,19.9441442 C12.4096897,21.0647939 12.6869716,22.1206809 13.1766701,23.0469403 L0.896150776,23.0465666 C0.401220383,23.0465666 0,22.6465503 0,22.1712561 L0,0.87531044 C0,0.391889836 0.384631085,0 0.896150776,0 L21.2640094,0 Z M17.6480118,19.1589776 C17.1980531,19.938329 17.4655097,20.9382701 18.2443281,21.387921 C19.0231466,21.837572 20.0228492,21.5692257 20.4728079,20.7898744 C20.9227666,20.0105229 20.6552348,19.0107123 19.8764163,18.5610612 C19.097598,18.1114103 18.0979707,18.3796261 17.6480118,19.1589776 Z M10.6368769,10.6368769 L4.43203205,10.6368769 L4.43203205,12.4096897 L10.6368769,12.4096897 L10.6368769,10.6368769 Z M17.7281282,5.31843844 L4.43203205,5.31843844 L4.43203205,7.09125127 L17.7281282,7.09125127 L17.7281282,5.31843844 Z" id="形状" fill="#666666"></path>
        </g>
    </g>
</svg>