<!--?xml version="1.0" encoding="UTF-8"?-->
<svg width="32px" height="32px" viewBox="0 0 32 32" version="1.1" xmlns="http://www.w3.org/2000/svg" xmlns:xlink="http://www.w3.org/1999/xlink">
    <title>1790.金融机构管理</title>
    <g id="1790.金融机构管理" stroke="none" stroke-width="1" fill="none" fill-rule="evenodd">
        <path d="M17.1017801,2.20825963 C25.5887892,8.81063527 30.050293,12.2592678 30.4867719,12.5535381 C31.1571197,13.0054493 31.1890573,13.684637 30.4744882,14 L26.99,13.9992614 L26.99,26.9992614 L29.6007401,27 L31,30 L2,30 L3.39787488,27 L5.991,26.9992614 L5.999,13.9992614 L2.55353177,14 C1.79355963,13.684637 1.83774985,13.0054808 2.55353177,12.5535381 C3.01866764,12.2593413 7.4580422,8.81235917 15.8716555,2.2125916 C16.2318305,1.92824782 16.7393124,1.92684672 17.1017801,2.20825963 Z M18.9932749,16.0913666 C18.6916081,15.9033924 18.3077598,16.0149543 18.1333743,16.3389424 L16.5613999,19.2782676 C16.511974,19.3697946 16.4835375,19.4714946 16.478216,19.575766 C16.4661894,19.4743924 16.4401318,19.3719999 16.3905222,19.2782676 L14.8426009,16.3389424 C14.6722243,16.0154638 14.293387,15.9039019 13.9967313,16.0913666 C13.7000757,16.2788314 13.5988519,16.6934953 13.7702307,17.0179927 L15.117709,19.575766 L13.6760225,19.575766 C13.2986058,19.5902649 13,19.9055091 13,20.2894566 C13,20.6734041 13.2986058,20.9886483 13.6760225,21.0031472 L15.7836809,21.0031472 L15.7836809,22.4310377 L13.6760225,22.4310377 C13.2986058,22.4455366 13,22.7607808 13,23.1447283 C13,23.5286758 13.2986058,23.8439199 13.6760225,23.8584189 L15.7836809,23.8584189 L15.7836809,25.3576275 C15.7836809,25.7121805 16.0978754,26 16.4867349,26 C16.8745921,26 17.1892877,25.711671 17.1892877,25.3576275 L17.1892877,23.8584189 L19.2969461,23.8584189 C19.6743628,23.8439199 19.9729686,23.5286758 19.9729686,23.1447283 C19.9729686,22.7607808 19.6743628,22.4455366 19.2969461,22.4310377 L17.1892877,22.4310377 L17.1892877,21.0031472 L19.2969461,21.0031472 C19.6853044,21.0031472 20,20.6827251 20,20.2894566 C20,19.8956787 19.6853045,19.575766 19.2969461,19.575766 L17.8552596,19.575766 L19.2227822,17.0179927 C19.3966665,16.6940047 19.2934384,16.2788314 18.9932749,16.0913666 Z M16.5586811,6.14863822 C15.6516017,6.12750085 14.8041873,6.59579583 14.3445391,7.37220906 C13.8848909,8.14862229 13.8851719,9.11125994 14.3452733,9.8874087 C14.8053747,10.6635575 15.6530624,11.131365 16.5601293,11.109706 C17.9173038,11.0772993 19.0003932,9.97584734 19,8.62847032 C18.9996066,7.28109329 17.9158743,6.18026444 16.5586811,6.14863822 Z" id="形状结合" fill="#666666"></path>
    </g>
</svg>