<!--?xml version="1.0" encoding="UTF-8"?-->
<svg width="32px" height="32px" viewBox="0 0 32 32" version="1.1" xmlns="http://www.w3.org/2000/svg" xmlns:xlink="http://www.w3.org/1999/xlink">
    <title>1763.财务报表</title>
    <g id="1763.财务报表" stroke="none" stroke-width="1" fill="none" fill-rule="evenodd">
        <path d="M29.0833333,5 C29.5895944,5 30,5.41040565 30,5.91666667 C30,6.42292769 29.5895944,6.83333333 29.0833333,6.83333333 L28.2,6.83333333 L28.2,20.5833333 L29.0833333,20.5833333 C29.5895944,20.5833333 30,20.993739 30,21.5 C30,22.006261 29.5895944,22.4166667 29.0833333,22.4166667 L17.4,22.4166667 L17.4,25.166 L20.0833333,25.1666667 C20.5895944,25.1666667 21,25.5770723 21,26.0833333 C21,26.5895944 20.5895944,27 20.0833333,27 L12.9166667,27 C12.4104056,27 12,26.5895944 12,26.0833333 C12,25.5770723 12.4104056,25.1666667 12.9166667,25.1666667 L15.6,25.166 L15.6,22.4166667 L3.91666667,22.4166667 C3.41040565,22.4166667 3,22.006261 3,21.5 C3,20.993739 3.41040565,20.5833333 3.91666667,20.5833333 L4.8,20.5833333 L4.8,6.83333333 L3.91666667,6.83333333 C3.41040565,6.83333333 3,6.42292769 3,5.91666667 C3,5.41040565 3.41040565,5 3.91666667,5 L29.0833333,5 Z M12,14.1666667 C11.5029437,14.1666667 11.1,14.5696104 11.1,15.0666667 L11.1,17.85 C11.1,18.3470563 11.5029437,18.75 12,18.75 C12.4970563,18.75 12.9,18.3470563 12.9,17.85 L12.9,15.0666667 C12.9,14.5696104 12.4970563,14.1666667 12,14.1666667 Z M16.5,11.4166667 C16.0029437,11.4166667 15.6,11.8196104 15.6,12.3166667 L15.6,17.85 C15.6,18.3470563 16.0029437,18.75 16.5,18.75 C16.9970563,18.75 17.4,18.3470563 17.4,17.85 L17.4,12.3166667 C17.4,11.8196104 16.9970563,11.4166667 16.5,11.4166667 Z M21,9.58333333 C20.5029437,9.58333333 20.1,9.98627706 20.1,10.4833333 L20.1,17.85 C20.1,18.3470563 20.5029437,18.75 21,18.75 C21.4970563,18.75 21.9,18.3470563 21.9,17.85 L21.9,10.4833333 C21.9,9.98627706 21.4970563,9.58333333 21,9.58333333 Z" id="形状结合" fill="#666666"></path>
    </g>
</svg>