<!--?xml version="1.0" encoding="UTF-8"?-->
<svg width="32px" height="32px" viewBox="0 0 32 32" version="1.1" xmlns="http://www.w3.org/2000/svg" xmlns:xlink="http://www.w3.org/1999/xlink">
    <title>1239-固定-线性</title>
    <g id="1239-固定-线性" stroke="none" stroke-width="1" fill="none" fill-rule="evenodd">
        <g id="编组" transform="translate(4.000000, 4.000000)" fill="#000000" fill-rule="nonzero">
            <path d="M16.3092491,22.1217247 L14.3049472,20.1174228 L19.8167775,10.5969886 L18.213336,8.99354711 L12.7015057,18.5139812 L5.48601876,11.2984943 L15.0064529,5.78666405 L13.4030114,4.18322251 L3.88257723,9.69505278 L1.87827531,7.69075087 C1.39724284,7.2097184 0.775909255,7.18967539 0.324941311,7.64064333 C-0.126026608,8.09161125 -0.105983593,8.71294484 0.375048872,9.1939773 L14.8060227,23.6249511 C15.2870552,24.1059836 15.9083887,24.1260266 16.3593567,23.6750587 C16.8103246,23.2240907 16.7902816,22.6027572 16.3092491,22.1217247 M6.8890301,18.7144114 L3.13096399,22.4724775 C2.67999608,22.9234455 2.05866249,22.9034024 1.57763002,22.42237 C1.09659756,21.9413375 1.07655454,21.3200039 1.52752246,20.869036 L1.52752246,20.869036 L5.28558857,17.1109699 L6.8890301,18.7144114 Z M23.6249511,8.39225654 C24.1059836,8.873289 24.1260266,9.49462259 23.6750587,9.94559054 C23.2240907,10.3965585 22.6027572,10.3765154 22.1217247,9.89548297 L22.1217247,9.89548297 L14.104517,1.87827531 C13.6234846,1.39724284 13.6034415,0.775909255 14.0544095,0.324941311 C14.5053774,-0.126026608 15.126711,-0.105983593 15.6077435,0.375048872 L15.6077435,0.375048872 L23.6249511,8.39225654 Z" id="形状" fill="#346bf6"></path>
        </g>
    </g>
</svg>