<!--?xml version="1.0" encoding="UTF-8"?-->
<svg width="32px" height="32px" viewBox="0 0 32 32" version="1.1" xmlns="http://www.w3.org/2000/svg" xmlns:xlink="http://www.w3.org/1999/xlink">
    <title>流程图</title>
    <g id="流程图" stroke="none" stroke-width="1" fill="none" fill-rule="evenodd">
        <g id="视觉修正模版" transform="translate(-2.000000, -0.500000)"></g>
        <g id="编组" transform="translate(2.000000, 2.000000)" fill="#333333" fill-rule="nonzero">
            <path d="M8,8.8817842e-14 C9.8625,8.8817842e-14 11.4125,1.30682434 11.859375,3.06736276 L22,3.06736276 C25.3125,3.06736276 28,5.81520856 28,9.20208827 C28,12.2822317 25.775,14.8064156 22.890625,15.2441539 C22.475,17.0526198 20.896875,18.4041765 19.003125,18.4041765 C17.140625,18.4041765 15.590625,17.0973522 15.14375,15.3368138 L6,15.3368138 C3.79375,15.3368138 2,17.1708411 2,19.4266308 C2,21.6824205 3.79375,23.5164478 6,23.5164478 L22.456,23.516 L20.0375918,21.0119587 C19.6539426,20.6146783 19.6649929,19.9816097 20.0622733,19.5979605 C20.4289936,19.2438228 20.9966222,19.225997 21.3835303,19.5378219 L21.4762714,19.6226419 L24.9120215,23.1804652 C25.6793199,23.975026 25.6572194,25.2411631 24.8626586,26.0084616 L24.7702106,26.0923231 L21.2657468,29.0773524 C20.8453087,29.4354728 20.2141623,29.3849544 19.8560418,28.9645163 C19.5254691,28.5764196 19.5430858,28.0087844 19.8784381,27.6420809 L19.968878,27.5548113 L22.308,25.561 L6,25.5613563 C2.76278409,25.5613563 0.122481921,22.9369932 0.00414030217,19.6565394 L0,19.4266308 C0,16.0397511 2.6875,13.2919053 6,13.2919053 L15.140625,13.2919053 C15.5875,11.5313669 17.1375,10.2245425 19,10.2245425 C20.83125,10.2245425 22.353125,11.4866345 22.83125,13.1992454 C24.6375,12.8094347 26,11.1671175 26,9.20208827 C26,6.94629857 24.20625,5.11227126 22,5.11227126 L11.859375,5.11227126 C11.4125,6.87280968 9.8625,8.17963402 8,8.17963402 C6.1375,8.17963402 4.5875,6.87280968 4.140625,5.11227126 L1,5.11227126 C0.446875,5.11227126 0,4.65536202 0,4.08981701 C0,3.524272 0.446875,3.06736276 1,3.06736276 L4.140625,3.06736276 C4.5875,1.30682434 6.1375,8.8817842e-14 8,8.8817842e-14 Z M19,11.8604693 C17.675,11.8604693 16.6,12.9628028 16.6,14.3143595 C16.6,15.6659162 17.678125,16.7682497 19,16.7682497 C20.321875,16.7682497 21.4,15.6659162 21.4,14.3143595 C21.4,12.9628028 20.321875,11.8604693 19,11.8604693 Z M8,1.6359268 C6.675,1.6359268 5.6,2.73826029 5.6,4.08981701 C5.6,5.44137372 6.678125,6.54370721 8,6.54370721 C9.321875,6.54370721 10.4,5.44137372 10.4,4.08981701 C10.4,2.73826029 9.325,1.6359268 8,1.6359268 Z" id="形状结合" fill="#666666"></path>
        </g>
    </g>
</svg>