<!--?xml version="1.0" encoding="UTF-8"?-->
<svg width="32px" height="32px" viewBox="0 0 32 32" version="1.1" xmlns="http://www.w3.org/2000/svg" xmlns:xlink="http://www.w3.org/1999/xlink">
    <title>97.流量</title>
    <g id="97.流量" stroke="none" stroke-width="1" fill="none" fill-rule="evenodd">
        <g id="流量" transform="translate(4.000000, 4.000000)" fill="#000000" fill-rule="nonzero">
            <path d="M12.0013404,0 C13.6204624,0 15.1913325,0.318892361 16.6737407,0.945958015 C18.1025355,1.54890576 19.3865744,2.41447076 20.488328,3.5158553 C21.5900816,4.61723983 22.4559366,5.9008486 23.0617671,7.32916482 C23.6863621,8.81107636 24,10.3841001 24,12.0026798 C24,13.6212595 23.6836815,15.1916034 23.0564057,16.673515 C22.4532559,18.1018312 21.5874009,19.3854399 20.4856473,20.4868245 C19.3838937,21.588209 18.0998548,22.4510942 16.67106,23.0567217 C15.1913325,23.6837874 13.6177818,24 11.9986597,24 C10.3795376,24 8.80866746,23.6837874 7.32625936,23.0567217 C5.89746456,22.453774 4.61342568,21.588209 3.51167209,20.4868245 C2.40991847,19.3854399 1.54674412,18.1018312 0.940913673,16.673515 C0.3136379,15.1916034 0,13.6158999 0,11.9973203 C0,10.3787405 0.316318572,8.80839658 0.943594345,7.32648505 C1.54674412,5.89816883 2.41259914,4.61456006 3.51435273,3.51317552 C4.61610635,2.41179099 5.90014521,1.54890576 7.32894003,0.943278241 C8.80866746,0.316212587 10.3822183,0 12.0013404,0 Z M12.0013404,1.98302813 C6.46576569,1.98302813 1.98101197,6.47163913 1.98101197,12.0026798 C1.98101197,17.5337204 6.46844633,22.0196517 12.0013404,22.0196517 C17.5342344,22.0196517 22.0216688,17.5310407 22.0216688,12 C22.0216688,6.46895936 17.5342344,1.98302813 12.0013404,1.98302813 Z M16.9766559,8.74140239 C17.3599911,8.35819564 17.9899475,8.35819564 18.3732827,8.74140239 C18.7566179,9.12460917 18.7566179,9.75167488 18.370602,10.1348816 L18.370602,10.1348816 L13.4649838,15.0415364 C13.2666145,15.2398392 13.0039093,15.3363108 12.7412041,15.3282715 C12.4811795,15.3363108 12.2157936,15.2398392 12.0174243,15.0415364 L12.0174243,15.0415364 L8.89176814,11.9169272 L6.57567297,14.2242072 C6.19233779,14.6074141 5.56238134,14.6074141 5.17904613,14.2242072 C4.79571095,13.8410004 4.79571095,13.2112551 5.17904613,12.8280482 L5.17904613,12.8280482 L8.17603037,9.84010715 C8.3743997,9.64448416 8.63442421,9.54801256 8.89176814,9.553372 C9.15179273,9.54801256 9.41181724,9.64448416 9.60750587,9.84010715 L9.60750587,9.84010715 L12.7438847,12.9754354 L16.9766559,8.74140239 Z" id="形状" fill="#666666"></path>
        </g>
    </g>
</svg>