<!--?xml version="1.0"?-->
<svg xmlns="http://www.w3.org/2000/svg" class="icon" style="vertical-align:middle;fill:currentColor;overflow:hidden;" viewBox="0 0 1024 1024" version="1.1" width="200px" height="200px"><path d="M843.75 62.5C895.526694 62.5 937.5 104.473305 937.5 156.25L937.5 843.75C937.5 895.526694 895.526694 937.5 843.75 937.5L156.25 937.5C104.473305 937.5 62.5 895.526694 62.5 843.75L62.5 156.25C62.5 104.473305 104.473305 62.5 156.25 62.5L843.75 62.5zM355.347938 281.25L269.652062 281.25L93.75 750L174.291237 750L216.17268 632.484244L408.827319 632.484244L450.708763 750L531.25 750L355.347938 281.25zM722.872353 379.139956C679.771319 379.139956 645.812925 386.485044 620.997178 402.510684C591.610109 419.871794 573.324822 447.916666 566.141316 485.977566L639.935513 491.987178C643.853788 473.958334 653.649478 460.603631 668.016491 451.923078C680.424363 443.910256 696.750513 440.571581 717.647984 440.571581C765.973388 440.571581 790.136091 462.606838 790.136091 508.012822L790.136091 521.367522L716.341894 523.370725C666.710397 524.706197 628.180684 535.389956 600.752753 555.422009C570.712638 576.121794 556.345625 606.169872 556.345625 644.898503C556.345625 673.611113 566.794359 696.981838 587.691831 715.678419C607.936259 733.707266 635.364191 743.055556 670.628675 743.055556C700.015744 743.055556 725.484538 737.713675 747.035056 727.69765C765.973388 718.349359 782.299538 705.662394 795.360459 688.301281L795.360459 733.707266L864.583334 733.707266L864.583334 513.3547C864.583334 471.287394 854.134597 439.236113 833.237125 417.200856C809.727472 391.826922 772.50385 379.139956 722.872353 379.139956zM790.136091 576.121794L790.136091 593.482906C790.136091 620.192306 779.687353 642.227566 760.095975 659.588675C740.504594 676.28205 716.341894 684.962606 687.607869 684.962606C671.281719 684.962606 658.2208 680.288462 647.772063 672.275641C637.323328 664.262822 632.752006 654.246794 632.752006 642.227566C632.752006 600.827991 662.139075 579.460469 721.566263 578.125L790.136091 576.121794zM314.110825 363.970588L386.275772 569.459034L238.724227 569.459034L311.533505 363.970588L314.110825 363.970588z" fill="#666666"></path></svg>
