<!--?xml version="1.0" encoding="UTF-8"?-->
<svg width="32px" height="32px" viewBox="0 0 32 32" version="1.1" xmlns="http://www.w3.org/2000/svg" xmlns:xlink="http://www.w3.org/1999/xlink">
    <title>1429-表单</title>
    <g id="1429-表单" stroke="none" stroke-width="1" fill="none" fill-rule="evenodd">
        <g id="编组" transform="translate(4.000000, 6.000000)" fill="#000000" fill-rule="nonzero">
            <path d="M0.545454537,19.6363637 C0.244208291,19.6363637 -5.58099022e-16,19.3921554 -5.58099022e-16,19.0909091 L-5.58099022e-16,19.0909091 L-5.58099022e-16,0.545454537 C-5.58099022e-16,0.244208291 0.244208291,0 0.545454537,0 L0.545454537,0 L23.4545455,0 C23.7557913,0 24,0.244208291 24,0.545454537 L24,0.545454537 L24,19.0909091 C24,19.3921554 23.7557913,19.6363637 23.4545455,19.6363637 L23.4545455,19.6363637 L0.545454537,19.6363637 Z M1.09090907,18.5454546 L7.63636362,18.5454546 L7.63636362,13.0909091 L1.09090907,13.0909091 L1.09090907,18.5454546 Z M15.2727273,13.0909091 L8.72727272,13.0909091 L8.72727272,18.5454546 L15.2727273,18.5454546 L15.2727273,13.0909091 Z M22.9090909,13.0909091 L16.3636364,13.0909091 L16.3636364,18.5454546 L22.9090909,18.5454546 L22.9090909,13.0909091 Z M22.9090909,12 L22.9090909,6.54545455 L16.3636364,6.54545455 L16.3636364,12 L22.9090909,12 Z M1.09090907,12 L7.63636362,12 L7.63636362,6.54545455 L1.09090907,6.54545455 L1.09090907,12 Z M15.2727273,6.54545455 L8.72727272,6.54545455 L8.72727272,12 L15.2727273,12 L15.2727273,6.54545455 Z M22.9090909,1.0909091 L1.09090907,1.0909091 L1.09090907,5.45454545 L22.9090909,5.45454545 L22.9090909,1.0909091 Z" id="形状" fill="#346bf6"></path>
        </g>
    </g>
</svg>