<!--?xml version="1.0" encoding="UTF-8"?-->
<svg width="32px" height="32px" viewBox="0 0 32 32" version="1.1" xmlns="http://www.w3.org/2000/svg" xmlns:xlink="http://www.w3.org/1999/xlink">
    <title>961.快递代收</title>
    <g id="961.快递代收" stroke="none" stroke-width="1" fill="none" fill-rule="evenodd">
        <g id="编组" transform="translate(3.000000, 2.000000)" fill="#000000" fill-rule="nonzero">
            <path d="M23.7443435,18.200172 C23.4587408,17.9243694 23.2277387,17.6989672 23.1171376,17.5869662 L23.056937,17.5267656 C22.5011318,16.9905606 21.883726,16.7945587 21.3461209,16.8001588 L12.0584332,16.8001588 C11.5824287,16.8365591 11.1344244,16.9401601 10.66262,17.1893624 C10.2006156,17.4315647 9.81701199,17.7717679 9.55520952,18.200172 L2.28214083,18.200172 C1.91986675,18.1372545 1.54996246,18.1315854 1.18593047,18.1833718 C0.503678974,18.0777437 0.000119274383,17.4905386 0.000119274383,16.8001588 L0.000119274383,8.40007942 C0.000119274383,7.62687347 0.626926545,7.0000662 1.4001325,7.0000662 L23.8003441,7.0000662 C24.57355,7.0000662 25.2003573,7.62687347 25.2003573,8.40007942 L25.2003573,16.8001588 C25.2003573,17.5733647 24.57355,18.200172 23.8003441,18.200172 L23.7443435,18.200172 Z M25.2003573,21.4902031 L25.2003573,26.568051 C25.2003573,27.341257 24.57355,27.9680642 23.8003441,27.9680642 L8.08239561,27.9680642 C8.08239561,27.9680642 7.61619121,28.1164656 7.21858745,27.7734624 C4.8583987,25.6890568 2.50542906,23.5964912 0.159720782,21.4958031 C-0.186082484,21.0995994 0.13732057,20.4107929 0.13732057,20.4107929 C0.13732057,20.4107929 1.17333036,18.4759746 3.86135574,20.4107929 C5.3549402,21.5560911 6.85109142,22.6980381 8.34979814,23.8366252 L15.4142649,23.8366252 L17.6346858,23.5468225 C17.6346858,23.5468225 17.2370821,21.9592075 16.7386774,21.9256072 C15.3526643,21.8262062 12.8452406,21.6330044 12.040233,21.488803 C11.1288244,21.2886011 10.5856193,20.532594 10.5674191,19.6729859 C10.5394188,18.3345732 12.0584332,18.2001568 12.0584332,18.2001568 L21.3769212,18.2001568 C21.3769212,18.2001568 21.7549247,18.1917719 22.1189282,18.5697755 C22.4899317,18.944979 24.7901534,21.1457998 25.2003573,21.488803 L25.2003573,21.4902031 Z M23.0009365,8.40007942 L21.2901204,2.41502289 C21.1183286,1.81441118 20.569405,1.40029083 19.9447076,1.4000133 L5.25576891,1.4000133 C4.63107159,1.40029083 4.08214792,1.81441118 3.91035621,2.41502289 L2.19814003,8.40007942 L0.000119274383,8.40007942 L2.48094271,0.957609126 C2.67144521,0.385643868 3.20669918,-0.00014508626 3.80955525,4.09317025e-08 L21.3909213,4.09317025e-08 C21.9937774,-0.00014508626 22.5290313,0.385643868 22.7195339,0.957609126 L25.2003573,8.40007942 L23.0009365,8.40007942 Z" id="形状" fill="#346bf6"></path>
        </g>
    </g>
</svg>