<!--?xml version="1.0" encoding="UTF-8"?-->
<svg width="32px" height="32px" viewBox="0 0 32 32" version="1.1" xmlns="http://www.w3.org/2000/svg" xmlns:xlink="http://www.w3.org/1999/xlink">
    <title>1451-普通报表</title>
    <g id="1451-普通报表" stroke="none" stroke-width="1" fill="none" fill-rule="evenodd">
        <g id="编组" transform="translate(4.000000, 6.000000)" fill="#000000" fill-rule="nonzero">
            <path d="M23.4545455,0 C23.7557913,0 24,0.244208736 24,0.545454537 L24,0.545454537 L24,19.0909091 C24,19.3921549 23.7557913,19.6363637 23.4545455,19.6363637 L23.4545455,19.6363637 L0.545454537,19.6363637 C0.24420871,19.6363637 -5.58099022e-16,19.3921549 -5.58099022e-16,19.0909091 L-5.58099022e-16,19.0909091 L-5.58099022e-16,0.545454537 C-5.58099022e-16,0.244208736 0.24420871,0 0.545454537,0 L0.545454537,0 L23.4545455,0 Z M22.9090909,5.45454545 L1.09090907,5.45454545 L1.09090907,18.5454546 L22.9090909,18.5454546 L22.9090909,5.45454545 Z M18,14.1818182 C18.3012458,14.1818182 18.5454546,14.4260269 18.5454546,14.7272727 C18.5454546,14.9950473 18.3525,15.2177542 18.0980465,15.2639389 L18,15.2727273 L10.3636364,15.2727273 C10.0623905,15.2727273 9.81818183,15.0285186 9.81818183,14.7272727 C9.81818183,14.4594982 10.0111364,14.2367913 10.2655898,14.1906065 L10.3636364,14.1818182 L18,14.1818182 Z M7.09090909,14.1818182 C7.39215491,14.1818182 7.63636362,14.4260269 7.63636362,14.7272727 C7.63636362,14.9950473 7.4434091,15.2177542 7.18895562,15.2639389 L7.09090909,15.2727273 L5.99999999,15.2727273 C5.69875419,15.2727273 5.45454545,15.0285186 5.45454545,14.7272727 C5.45454545,14.4594982 5.6475,14.2367913 5.90195345,14.1906065 L5.99999999,14.1818182 L7.09090909,14.1818182 Z M18,9.81818183 C18.3012458,9.81818183 18.5454546,10.0623906 18.5454546,10.3636364 C18.5454546,10.6314109 18.3525,10.8541178 18.0980465,10.9003026 L18,10.9090909 L10.3636364,10.9090909 C10.0623905,10.9090909 9.81818183,10.6648822 9.81818183,10.3636364 C9.81818183,10.0958618 10.0111364,9.87315492 10.2655898,9.8269702 L10.3636364,9.81818183 L18,9.81818183 Z M7.09090909,9.81818183 C7.39215491,9.81818183 7.63636362,10.0623906 7.63636362,10.3636364 C7.63636362,10.6314109 7.4434091,10.8541178 7.18895562,10.9003026 L7.09090909,10.9090909 L5.99999999,10.9090909 C5.69875419,10.9090909 5.45454545,10.6648822 5.45454545,10.3636364 C5.45454545,10.0958618 5.6475,9.87315492 5.90195345,9.8269702 L5.99999999,9.81818183 L7.09090909,9.81818183 Z M22.9090909,1.0909091 L1.09090907,1.0909091 L1.09090907,4.36363638 L22.9090909,4.36363638 L22.9090909,1.0909091 Z" id="形状" fill="#346bf6"></path>
        </g>
    </g>
</svg>