<!--?xml version="1.0" encoding="UTF-8"?-->
<svg width="32px" height="32px" viewBox="0 0 32 32" version="1.1" xmlns="http://www.w3.org/2000/svg" xmlns:xlink="http://www.w3.org/1999/xlink">
    <title>1356-不错</title>
    <g id="1356-不错" stroke="none" stroke-width="1" fill="none" fill-rule="evenodd">
        <g id="编组" transform="translate(4.000000, 4.000000)" fill="#000000" fill-rule="nonzero">
            <path d="M3.19999999,0 L20,0 C21.7673112,0 23.2,1.4326888 23.2,3.19999999 L23.2,20.8 C23.2,22.5673112 21.7673112,24 20,24 L3.19999999,24 C1.4326888,24 0,22.5673112 0,20.8 L0,3.19999999 C0,1.4326888 1.4326888,0 3.19999999,0 Z M3.19999999,1.60000001 C2.3163444,1.60000001 1.59999998,2.3163444 1.59999998,3.19999999 L1.59999998,20.8 C1.59999998,21.6836556 2.3163444,22.4 3.19999999,22.4 L20,22.4 C20.8836556,22.4 21.6,21.6836556 21.6,20.8 L21.6,3.19999999 C21.6,2.3163444 20.8836556,1.60000001 20,1.60000001 L3.19999999,1.60000001 Z M11.6024,16.8 C9.69519998,16.8 8.42319998,15.624 7.9008,13.4848 C7.81337266,13.1269515 7.89514932,12.7487749 8.12261434,12.4590185 C8.35007937,12.1692621 8.69802637,12 9.06639998,12 L14.1384,12 C14.5067736,12 14.8547206,12.1692621 15.0821856,12.4590185 C15.3096507,12.7487749 15.3914273,13.1269515 15.304,13.4848 C14.7816,15.624 13.5096,16.8 11.6024,16.8 Z M7.2,10.4 C6.62832893,10.4000692 6.10005348,10.095126 5.81419797,9.6000559 C5.52834247,9.10498576 5.52834247,8.49501423 5.81419797,7.99994409 C6.10005348,7.50487395 6.62832893,7.19993081 7.2,7.19999999 C8.08357997,7.20010694 8.79980636,7.91642002 8.79980636,8.8 C8.79980636,9.68357998 8.08357997,10.3998931 7.2,10.4 L7.2,10.4 Z M16,10.4 C15.4283289,10.4000692 14.9000535,10.095126 14.614198,9.6000559 C14.3283425,9.10498576 14.3283425,8.49501423 14.614198,7.99994409 C14.9000535,7.50487395 15.4283289,7.19993081 16,7.19999999 C16.88358,7.20010694 17.5998063,7.91642002 17.5998063,8.8 C17.5998063,9.68357998 16.88358,10.3998931 16,10.4 L16,10.4 Z" id="形状" fill="#666666"></path>
        </g>
    </g>
</svg>