<!--?xml version="1.0" encoding="UTF-8"?-->
<svg width="32px" height="32px" viewBox="0 0 32 32" version="1.1" xmlns="http://www.w3.org/2000/svg" xmlns:xlink="http://www.w3.org/1999/xlink">
    <title>1976.职级申报</title>
    <g id="1976.职级申报" stroke="none" stroke-width="1" fill="none" fill-rule="evenodd">
        <path d="M21.8888889,2 C22.9934584,2 23.8888889,2.8954305 23.8888889,4 L8.55555556,4 C8.55555556,2.8954305 9.45098606,2 10.5555556,2 L21.8888889,2 Z M25.5,19 C28.5375661,19 31,21.4624339 31,24.5 C31,27.5375661 28.5375661,30 25.5,30 C22.4624339,30 20,27.5375661 20,24.5 C20,21.4624339 22.4624339,19 25.5,19 Z M25.5,21 L22.8535534,23.6464466 C22.7597852,23.7402148 22.7071068,23.8673918 22.7071068,24 C22.7071068,24.2761424 22.9309644,24.5 23.2071068,24.5 L24.625,24.5 L24.625,28 L26.375,28 L26.375,24.5 L27.7928932,24.5 C27.9255015,24.5 28.0526784,24.4473216 28.1464466,24.3535534 C28.3417088,24.1582912 28.3417088,23.8417088 28.1464466,23.6464466 L25.5,21 Z M24.4444444,4.625 C25.5490139,4.625 26.4444444,5.5204305 26.4444444,6.625 L26.4447286,18.0681572 C26.1363113,18.02325 25.8208708,18 25.5,18 C21.9101491,18 19,20.9101491 19,24.5 C19,25.5325324 19.2407519,26.5088341 19.6691828,27.3758322 L8,27.375 C6.8954305,27.375 6,26.4795695 6,25.375 L6,6.625 C6,5.5204305 6.8954305,4.625 8,4.625 L24.4444444,4.625 Z M15.9994346,7.53846154 C15.7044087,7.53846154 15.4350725,7.70886089 15.3050584,7.9777684 L14.1798071,10.2938983 L11.6635416,10.6648006 C11.3718309,10.7073617 11.1292813,10.9145313 11.0380341,11.1990675 C10.9467869,11.4836037 11.0226969,11.7960659 11.2337974,12.0048718 L13.0556867,13.8077097 L12.6259425,16.3535005 C12.5760261,16.6483404 12.6953988,16.9463713 12.9338131,17.122143 C13.1722274,17.2979147 13.4882789,17.3209016 13.748932,17.181428 L15.9994346,15.9803016 L18.2510681,17.1825762 C18.5118372,17.3216037 18.8277351,17.298202 19.0658699,17.1222157 C19.3040046,16.9462294 19.4230502,16.6481992 19.3729266,16.3535005 L18.9431824,13.8077097 L20.7662026,12.0048718 C20.9773031,11.7960659 21.0532131,11.4836037 20.9619659,11.1990675 C20.8707187,10.9145313 20.6281691,10.7073617 20.3364584,10.6648006 L17.819062,10.2938983 L16.6938107,7.9777684 C16.5637966,7.70886089 16.2944604,7.53846154 15.9994346,7.53846154 Z" id="形状结合" fill="#666666"></path>
    </g>
</svg>