<!--?xml version="1.0" encoding="UTF-8"?-->
<svg width="32px" height="32px" viewBox="0 0 32 32" version="1.1" xmlns="http://www.w3.org/2000/svg" xmlns:xlink="http://www.w3.org/1999/xlink">
    <title>分级统计</title>
    <g id="分级统计" stroke="none" stroke-width="1" fill="none" fill-rule="evenodd">
        <g id="视觉修正模版" transform="translate(-2.000000, -0.500000)"></g>
        <g id="编组" transform="translate(3.000000, 2.000000)" fill="#333333" fill-rule="nonzero">
            <path d="M25.5678737,8.61445534 C22.9941751,5.38341917 18.9095492,6.15379701 16.9568674,4.76256615 C15.7212361,3.88492053 4.77021281,-2.21959239 0.733603569,0.86191891 C-0.447608834,1.76556887 -0.242737311,10.5160208 1.64272096,11.6959666 C3.52497807,12.8759124 6.30995037,17.9695076 6.09227437,19.9198312 C5.88740284,21.8701549 10.1416881,24.1520335 11.6718223,25.2507158 C13.7141352,26.716709 15.0874147,28.4980047 16.403074,27.8706506 C18.2053033,26.999506 15.5963924,22.3219798 17.0496998,19.9588377 C18.5094095,17.5924451 28.1319688,11.855243 25.5678737,8.61445534 Z M23.7976556,9.90491946 C24.0313372,10.2494766 23.916097,10.7273059 23.5703763,11.2863987 L17.1873479,11.0783642 L17.4786496,7.21022231 C19.5273648,7.96434744 22.8085103,8.43567566 23.7976556,9.90491946 Z M10.2281183,15.0570243 L9.87919647,11.2798976 L14.2263141,12.7848973 L13.1763476,15.3300696 L10.2281183,15.0570243 Z M15.529169,6.13429376 C15.5067612,6.18305189 15.4939567,6.23506049 15.4907555,6.29031967 L15.1450348,10.9060856 L9.65831935,9.00777058 L12.126381,4.29773902 C13.5316716,4.96735016 14.7512974,5.65971503 15.529169,6.13429376 Z M2.81433,2.91951033 C4.4565033,1.66805268 7.46875493,2.35066596 10.2409227,3.46235041 L7.69283314,8.3251573 L2.91996686,6.67388332 C2.67988305,6.5893693 2.43979921,6.55036283 2.21251988,6.54711229 C2.14849754,4.85033072 2.35657015,3.2705686 2.81433,2.91951033 Z M3.56979372,11.1238717 C3.04481045,10.7955673 2.67668193,9.84966028 2.45580481,8.70872095 L7.78566556,10.5550273 C7.76965996,10.6005349 7.76325775,10.649293 7.76645884,10.6980511 L8.15059296,14.8652425 L6.25873248,14.6897134 C5.40723522,13.1034502 4.34446416,11.6082021 3.56979372,11.1238717 Z M7.71524098,18.8634059 C7.76645884,18.4148315 7.5903974,17.6964623 7.27668789,16.8708253 L10.3881741,17.1601233 C10.384973,17.1958793 10.384973,17.2348857 10.3881741,17.2706416 L10.7915149,22.4552519 C9.37341989,21.4735891 7.58399516,20.1083625 7.71524098,18.8634059 Z M14.8185208,25.2279621 C14.2135096,25.0134264 13.84218,24.6818714 12.968275,24.0122604 L12.4496939,17.3519052 L13.1539398,17.416916 C13.1763476,17.4201665 13.1987554,17.4201665 13.2243643,17.4201665 L15.5899902,19.0421856 C13.8453812,21.4930923 16.4670964,25.3644846 14.8185208,25.2279621 Z M17.0112863,17.5046805 L15.0522025,16.1654583 L16.2750294,13.1977158 C16.2846327,13.174962 16.2878338,13.1554589 16.2910349,13.1327051 L21.7937561,13.3114847 C20.3084375,14.7319704 18.3525546,16.2824777 17.0112863,17.5046805 Z" id="形状" fill="#666666"></path>
        </g>
    </g>
</svg>