<!--?xml version="1.0" encoding="UTF-8"?-->
<svg width="32px" height="32px" viewBox="0 0 32 32" version="1.1" xmlns="http://www.w3.org/2000/svg" xmlns:xlink="http://www.w3.org/1999/xlink">
    <title>1354-很棒</title>
    <g id="1354-很棒" stroke="none" stroke-width="1" fill="none" fill-rule="evenodd">
        <g id="编组" transform="translate(4.000000, 4.000000)" fill="#000000" fill-rule="nonzero">
            <path d="M3.19999999,0 L20,0 C21.7673112,0 23.2,1.4326888 23.2,3.19999999 L23.2,20.8 C23.2,22.5673112 21.7673112,24 20,24 L3.19999999,24 C1.4326888,24 0,22.5673112 0,20.8 L0,3.19999999 C0,1.4326888 1.4326888,0 3.19999999,0 Z M3.19999999,1.60000001 C2.3163444,1.60000001 1.59999998,2.3163444 1.59999998,3.19999999 L1.59999998,20.8 C1.59999998,21.6836556 2.3163444,22.4 3.19999999,22.4 L20,22.4 C20.8836556,22.4 21.6,21.6836556 21.6,20.8 L21.6,3.19999999 C21.6,2.3163444 20.8836556,1.60000001 20,1.60000001 L3.19999999,1.60000001 Z M4.8,7.99999999 L4.8,6.40000001 L6.39999998,6.40000001 C7.89599998,6.40000001 9.19999999,7.28480002 9.19999999,8.556 L9.19999999,9.03919999 C9.19999999,10.3112 7.896,11.1952 6.39999998,11.1952 L4.8,11.1952 L4.8,9.5952 L6.39999998,9.5952 C7.11359998,9.5952 7.59999998,9.26560001 7.59999998,9.03919999 L7.59999998,8.556 C7.59999998,8.32960001 7.1136,7.99999999 6.39999998,7.99999999 L4.8,7.99999999 Z M18.8,7.99999999 L17.2,7.99999999 C16.4864,7.99999999 16,8.32959998 16,8.556 L16,9.03919999 C16,9.26559998 16.4864,9.5952 17.2,9.5952 L18.8,9.5952 L18.8,11.1952 L17.2,11.1952 C15.704,11.1952 14.4,10.3104 14.4,9.03919999 L14.4,8.556 C14.4,7.284 15.704,6.40000001 17.2,6.40000001 L18.8,6.40000001 L18.8,7.99999999 L18.8,7.99999999 Z M11.6,20 C9.5544,20 8.43519998,17.936 8.00799998,14.1344 C8.00159998,14.0672 8.00159998,14.0672 7.99999999,14 C7.99999999,13.6817402 8.1264282,13.3765155 8.35147185,13.1514719 C8.57651551,12.9264282 8.8817402,12.8 9.19999999,12.8 L14,12.8 C14.0672,12.8016 14.0672,12.8016 14.1344,12.808 C14.7929171,12.8820555 15.266752,13.4758713 15.1928,14.1344 C14.7648,17.936 13.6448,20 11.6,20 Z" id="形状" fill="#666666"></path>
        </g>
    </g>
</svg>