<!--?xml version="1.0" encoding="UTF-8"?-->
<svg width="32px" height="32px" viewBox="0 0 32 32" version="1.1" xmlns="http://www.w3.org/2000/svg" xmlns:xlink="http://www.w3.org/1999/xlink">
&nbsp;&nbsp;&nbsp; <title>1366-帮助</title>
&nbsp;&nbsp;&nbsp; <g id="1366-帮助" stroke="none" stroke-width="1" fill="none" fill-rule="evenodd">
&nbsp;&nbsp;&nbsp;&nbsp;&nbsp;&nbsp;&nbsp; <g id="编组" transform="translate(4.000000, 4.000000)" fill="#000000" fill-rule="nonzero">
&nbsp;&nbsp;&nbsp;&nbsp;&nbsp;&nbsp;&nbsp;&nbsp;&nbsp;&nbsp;&nbsp; <path d="M12,22.2857143 C17.6806431,22.2857143 22.2857143,17.6806431 22.2857143,12 C22.2857143,6.31935686 17.6806431,1.71428571 12,1.71428571 C6.31935686,1.71428571 1.71428571,6.31935686 1.71428571,12 C1.71428571,17.6806431 6.31935686,22.2857143 12,22.2857143 Z M12,24 C5.372583,24 0,18.6274169 0,12 C0,5.372583 5.372583,0 12,0 C18.6274169,0 24,5.372583 24,12 C24,18.6274169 18.6274169,24 12,24 Z M12,16.2857143 C12.7100804,16.2857143 13.2857143,16.8613481 13.2857143,17.5714286 C13.2857143,18.281509 12.7100804,18.8571429 12,18.8571429 C11.2899196,18.8571429 10.7142857,18.281509 10.7142857,17.5714286 C10.7142857,16.8613481 11.2899196,16.2857143 12,16.2857143 Z M12,5.14285714 C13.8935477,5.14285714 15.4285714,6.67788085 15.4285714,8.57142857 L15.4285714,8.86491684 C15.4285714,9.72755693 15.085889,10.5548655 14.4759104,11.1648441 L13.9478105,11.692944 C13.6654601,11.9752944 13.4116899,12.2848442 13.1901961,12.617085 C12.9730286,12.9428362 12.8571429,13.3255808 12.8571429,13.717085 C12.8571429,14.1876726 12.4733869,14.5714286 12,14.5714286 C11.5266131,14.5714286 11.1428571,14.1876726 11.1428571,13.7142857 L11.1428571,13.5424369 C11.1428571,12.9263692 11.3252139,12.3240857 11.6669468,11.8114864 C12.0154876,11.2886752 12.4148181,10.8015702 12.8591223,10.3572661 L13.0561998,10.1601886 C13.4775651,9.73882324 13.7142857,9.16732918 13.7142857,8.57142857 C13.7142857,7.62465471 12.9467739,6.85714286 12,6.85714286 C11.0532261,6.85714286 10.2857143,7.62465471 10.2857143,8.57142857 C10.2857143,9.04481549 9.90195835,9.42857143 9.42857143,9.42857143 C8.95518451,9.42857143 8.57142857,9.04481549 8.57142857,8.57142857 C8.57142857,6.67788085 10.1064523,5.14285714 12,5.14285714 Z" id="形状" fill="#666666"></path>
&nbsp;&nbsp;&nbsp;&nbsp;&nbsp;&nbsp;&nbsp; </g>
&nbsp;&nbsp;&nbsp; </g>
</svg>