<!--?xml version="1.0" encoding="UTF-8"?-->
<svg width="32px" height="32px" viewBox="0 0 32 32" version="1.1" xmlns="http://www.w3.org/2000/svg" xmlns:xlink="http://www.w3.org/1999/xlink">
    <title>1921高端招聘</title>
    <g id="1921高端招聘" stroke="none" stroke-width="1" fill="none" fill-rule="evenodd">
        <g id="rcgyy_msggl_48_48" transform="translate(2.000000, 2.000000)" fill="#999999">
            <path d="M17.3310119,4.28084571 L17.3310119,7.90731889 L17.3940634,7.92774231 C17.6212148,8.01483908 18.3759696,8.42829933 18.2155724,10.0416663 C18.0790175,11.4182626 17.3842957,12.0715073 16.6825772,12.6815588 L16.4201813,12.9096319 C16.2464673,13.0621021 16.0766221,13.2171864 15.9192577,13.3855123 C15.0993777,14.2631667 14.0502873,16.5666012 13.8896585,16.6563883 L13.8896585,18.4795251 L14.3812376,18.6616774 L13.9181968,19.2712866 C13.6257518,19.6549643 13.6489196,20.1927335 13.9732784,20.5498385 L19.83,26.999 L0,27 C0,23.9885309 1.30606156,21.1398519 2.92172171,20.4300546 L3.07406647,20.3698377 L5.04066799,19.6690414 L8.33379513,18.4795805 L8.333,16.663 L8.15460931,16.5428287 C6.81715791,15.8274593 6.92453711,14.4647429 6.1709441,13.5360843 L6.03697793,13.3855123 C5.13302837,12.4596927 3.92847661,11.9361312 3.74068844,10.0421787 C3.55244651,8.14935884 4.12611066,7.90731889 4.56870592,7.90731889 L4.56870592,4.68731996 C4.77498921,2.08434454 7.45208857,0.367301574 9.74361084,0.0828133774 C12.0523071,-0.38959864 16.9169906,1.1789857 17.3310119,4.28084571 Z M24.9026158,16 C25.0719498,15.9986889 25.2399291,16.0753795 25.3496575,16.2193424 L27.8815394,19.5560535 C27.9235343,19.6098714 27.9519824,19.6690712 27.9709478,19.7309618 C28.0332627,19.9139427 27.9953319,20.1224871 27.8571553,20.2758682 L22.0198739,26.6734736 C21.9900711,26.740746 21.9453669,26.8039821 21.8857613,26.8578 C21.6933979,27.0300174 21.4129808,27.0448173 21.205716,26.9075816 C21.1745586,26.8887453 21.1447558,26.8672181 21.1163077,26.8416546 C21.0783768,26.8080184 21.0472194,26.7716913 21.0214806,26.7313279 L15.143559,20.2906681 C15.0040278,20.1372871 14.9674516,19.9287426 15.0284119,19.7457617 C15.0473773,19.6852165 15.0771801,19.6246714 15.1178202,19.5708534 L17.6117713,16.2839239 C17.7065983,16.1143974 17.8881244,16 18.0967439,16 L24.9026158,16 Z M12.9827978,18.083354 L12.055051,18.2780422 L10.2011738,18.2780422 L9.27342699,18.083354 L10.458971,19.5907969 L9.51263698,24.8140028 L11.1281124,26.1204003 L12.6409538,24.8140028 L11.9265565,19.5907969 L12.9827978,18.083354 Z M23.9909216,20.1144145 L21.593,22.742 L19.1953828,20.1144145 C18.9894727,19.8883792 18.6386126,19.8722338 18.4123824,20.0767419 C18.1847975,20.28125 18.1685415,20.6297211 18.3744516,20.8544109 L21.2206174,23.9704685 L21.2981835,24.029034 L21.3488583,24.056625 L21.383737,24.072716 L21.4421658,24.0922772 L21.4992703,24.1054547 L21.5496835,24.1114903 L21.5935816,24.1132445 L21.6869743,24.1052379 L21.7707008,24.0842106 L21.8349371,24.0584772 L21.8880209,24.0291626 L21.9536409,23.981049 L22.0036178,23.932796 L24.8118528,20.8544109 C25.0177629,20.6297211 25.0015068,20.28125 24.773922,20.0767419 C24.5476917,19.8722338 24.1968317,19.8883792 23.9909216,20.1144145 Z" id="形状" fill="#666666"></path>
        </g>
    </g>
</svg>