<!--?xml version="1.0"?-->
<svg xmlns="http://www.w3.org/2000/svg" class="icon" style="vertical-align:middle;fill:currentColor;overflow:hidden;" viewBox="0 0 1024 1024" version="1.1" width="200px" height="200px"><path d="M593.75 250C783.597881 250 937.5 403.902119 937.5 593.75C937.5 783.597881 783.597881 937.5 593.75 937.5C403.902119 937.5 250 783.597881 250 593.75C250 403.902119 403.902119 250 593.75 250zM593.75 312.5C438.419916 312.5 312.5 438.419916 312.5 593.75C312.5 749.080084 438.419916 875 593.75 875C749.080084 875 875 749.080084 875 593.75C875 438.419916 749.080084 312.5 593.75 312.5zM250 781.25C267.258898 781.25 281.25 795.241103 281.25 812.5C281.25 829.758897 267.258898 843.75 250 843.75L93.75 843.75C76.491102 843.75 62.5 829.758897 62.5 812.5C62.5 795.241103 76.491102 781.25 93.75 781.25L250 781.25zM593.75 390.625C611.008897 390.625 625 404.616103 625 421.875L625 578.125L718.75 578.125C734.776119 578.125 747.9846 590.188756 749.789759 605.730591L750 609.375C750 626.633897 736.008897 640.625 718.75 640.625L593.75 640.625C576.491103 640.625 562.5 626.633897 562.5 609.375L562.5 421.875C562.5 404.616103 576.491103 390.625 593.75 390.625zM187.5 562.5C204.758898 562.5 218.75 576.491103 218.75 593.75C218.75 611.008897 204.758898 625 187.5 625L93.75 625C76.491102 625 62.5 611.008897 62.5 593.75C62.5 576.491103 76.491102 562.5 93.75 562.5L187.5 562.5zM250 343.75C267.258898 343.75 281.25 357.741103 281.25 375C281.25 392.258897 267.258898 406.25 250 406.25L93.75 406.25C76.491102 406.25 62.5 392.258897 62.5 375C62.5 357.741103 76.491102 343.75 93.75 343.75L250 343.75zM812.5 125C829.758897 125 843.75 138.991102 843.75 156.25C843.75 173.508898 829.758897 187.5 812.5 187.5L93.75 187.5C76.491102 187.5 62.5 173.508898 62.5 156.25C62.5 138.991102 76.491102 125 93.75 125L812.5 125z" fill="#666666"></path></svg>
