<!--?xml version="1.0" encoding="UTF-8"?-->
<svg width="32px" height="32px" viewBox="0 0 32 32" version="1.1" xmlns="http://www.w3.org/2000/svg" xmlns:xlink="http://www.w3.org/1999/xlink">
    <title>553.勾稽记录@1x</title>
    <g id="553.勾稽记录" stroke="none" stroke-width="1" fill="none" fill-rule="evenodd">
        <g id="编组" transform="translate(5.000000, 3.000000)" fill="#000000" fill-rule="nonzero">
            <path d="M4.14399102,1.83333333 L4.14399102,4.73531564 L17.935754,4.73531564 L17.935754,1.83333333 L20.623711,1.83333333 C21.3840385,1.83333333 22,2.49566108 22,3.32394454 L22,24.1760555 C22,24.9983586 21.3881632,25.6666667 20.6250859,25.6666667 L1.37491408,25.6666667 C0.615961515,25.6666667 0,25.0043389 0,24.1760555 L0,3.32394454 C0,2.50164147 0.611836749,1.83333333 1.37491408,1.83333333 L4.14399102,1.83333333 Z M14.5651832,14.8958474 L7.43555366,14.8958474 C7.04221467,14.8966756 6.72343786,15.2213923 6.7222222,15.6224738 C6.72303298,16.023849 7.04192793,16.3490219 7.43555366,16.3498486 L12.8437554,16.3498486 L12.0449421,17.1636368 C11.7671598,17.44804 11.7671598,17.9079279 12.0449421,18.1923311 C12.3238544,18.4755821 12.7748632,18.4755821 13.0537754,18.1923311 L15.0699684,16.1356938 C15.1591033,16.0447336 15.222717,15.9310882 15.2541966,15.8065718 L15.2556704,15.8020633 C15.2578483,15.7938518 15.259814,15.7855833 15.2615657,15.7772664 L15.2637765,15.7652437 L15.267461,15.7464582 L15.2704086,15.7291756 L15.2718824,15.7141471 L15.2748302,15.6931074 L15.2748302,15.6795818 L15.2770477,15.6570392 L15.2770477,15.6224738 C15.2776296,15.4297082 15.2028432,15.2446538 15.0692375,15.1082768 C14.9356318,14.9718997 14.7542277,14.8954496 14.5651832,14.8958474 Z M8.94769838,10.1446202 L6.93003162,12.2012575 C6.84089671,12.2922177 6.77728298,12.4058632 6.74580345,12.5303795 L6.74432962,12.534888 L6.73917118,12.5604364 L6.73622353,12.5717076 L6.73327591,12.5904931 L6.73032826,12.6085272 L6.72811756,12.6235556 L6.72590682,12.6445954 L6.72443291,12.6573695 L6.72294691,12.6799121 L6.72294691,12.7144775 C6.72217269,12.9075037 6.79697316,13.0928664 6.93076011,13.2294282 C7.06454695,13.3659901 7.24625349,13.4424547 7.43555366,13.4418593 L14.5651832,13.4418593 C14.9585212,13.4406126 15.2769687,13.1155602 15.2777778,12.7144775 C15.276564,12.3136882 14.9582345,11.9890918 14.5651832,11.9878541 L9.15624462,11.9878541 L9.95579485,11.1725631 C10.2330882,10.8882472 10.2330882,10.4289361 9.95579485,10.1446202 C9.67696822,9.86186778 9.22652491,9.86186778 8.94769838,10.1446202 Z M16.5,0 L16.5,2.75 L5.5,2.75 L5.5,0 L16.5,0 Z" id="形状" fill="#666666"></path>
        </g>
    </g>
</svg>