<!--?xml version="1.0" encoding="UTF-8"?-->
<svg width="32px" height="32px" viewBox="0 0 32 32" version="1.1" xmlns="http://www.w3.org/2000/svg" xmlns:xlink="http://www.w3.org/1999/xlink">
    <title>1269-快捷键</title>
    <g id="1269-快捷键" stroke="none" stroke-width="1" fill="none" fill-rule="evenodd">
        <g id="编组" transform="translate(4.000000, 7.000000)" fill="#000000" fill-rule="nonzero">
            <path d="M22.4,0 C23.2836556,0 24,0.852790958 24,1.90476189 L24,1.90476189 L24,15.2380953 C24,16.2900662 23.2836556,17.1428571 22.4,17.1428571 L22.4,17.1428571 L1.59999999,17.1428571 C0.716344402,17.1428571 0,16.2900662 0,15.2380953 L0,15.2380953 L0,1.90476189 C0,0.852790958 0.716344402,0 1.59999999,0 L1.59999999,0 L22.4,0 Z M22.2857143,1.71428571 L1.71428571,1.71428571 L1.71428571,15.4285714 L22.2857143,15.4285714 L22.2857143,1.71428571 Z M5.57142857,10.2857143 C5.80812203,10.2857143 6,10.4775922 6,10.7142857 L6,11.5714286 C6,11.8081221 5.80812203,12 5.57142857,12 L4.71428571,12 C4.47759226,12 4.28571429,11.8081221 4.28571429,11.5714286 L4.28571429,10.7142857 C4.28571429,10.4775922 4.47759226,10.2857143 4.71428571,10.2857143 L5.57142857,10.2857143 Z M15.8571429,10.2857143 C16.0938363,10.2857143 16.2857143,10.4775922 16.2857143,10.7142857 L16.2857143,11.5714286 C16.2857143,11.8081221 16.0938363,12 15.8571429,12 L8.14285714,12 C7.90616366,12 7.71428571,11.8081221 7.71428571,11.5714286 L7.71428571,10.7142857 C7.71428571,10.4775922 7.90616366,10.2857143 8.14285714,10.2857143 L15.8571429,10.2857143 Z M19.2857143,10.2857143 C19.5224078,10.2857143 19.7142857,10.4775922 19.7142857,10.7142857 L19.7142857,11.5714286 C19.7142857,11.8081221 19.5224078,12 19.2857143,12 L18.4285714,12 C18.1918779,12 18,11.8081221 18,11.5714286 L18,10.7142857 C18,10.4775922 18.1918779,10.2857143 18.4285714,10.2857143 L19.2857143,10.2857143 Z M5.57142857,5.14285714 C5.80812203,5.14285714 6,5.33473509 6,5.57142857 L6,6.42857143 C6,6.66526491 5.80812203,6.85714286 5.57142857,6.85714286 L4.71428571,6.85714286 C4.47759226,6.85714286 4.28571429,6.66526491 4.28571429,6.42857143 L4.28571429,5.57142857 C4.28571429,5.33473509 4.47759226,5.14285714 4.71428571,5.14285714 L5.57142857,5.14285714 Z M12.4285714,5.14285714 C12.6652649,5.14285714 12.8571429,5.33473509 12.8571429,5.57142857 L12.8571429,6.42857143 C12.8571429,6.66526491 12.6652649,6.85714286 12.4285714,6.85714286 L11.5714286,6.85714286 C11.3347351,6.85714286 11.1428571,6.66526491 11.1428571,6.42857143 L11.1428571,5.57142857 C11.1428571,5.33473509 11.3347351,5.14285714 11.5714286,5.14285714 L12.4285714,5.14285714 Z M9,5.14285714 C9.23669349,5.14285714 9.42857143,5.33473509 9.42857143,5.57142857 L9.42857143,6.42857143 C9.42857143,6.66526491 9.23669349,6.85714286 9,6.85714286 L8.14285714,6.85714286 C7.90616366,6.85714286 7.71428571,6.66526491 7.71428571,6.42857143 L7.71428571,5.57142857 C7.71428571,5.33473509 7.90616366,5.14285714 8.14285714,5.14285714 L9,5.14285714 Z M15.8571429,5.14285714 C16.0938363,5.14285714 16.2857143,5.33473509 16.2857143,5.57142857 L16.2857143,6.42857143 C16.2857143,6.66526491 16.0938363,6.85714286 15.8571429,6.85714286 L15,6.85714286 C14.7633065,6.85714286 14.5714286,6.66526491 14.5714286,6.42857143 L14.5714286,5.57142857 C14.5714286,5.33473509 14.7633065,5.14285714 15,5.14285714 L15.8571429,5.14285714 Z M19.2857143,5.14285714 C19.5224078,5.14285714 19.7142857,5.33473509 19.7142857,5.57142857 L19.7142857,6.42857143 C19.7142857,6.66526491 19.5224078,6.85714286 19.2857143,6.85714286 L18.4285714,6.85714286 C18.1918779,6.85714286 18,6.66526491 18,6.42857143 L18,5.57142857 C18,5.33473509 18.1918779,5.14285714 18.4285714,5.14285714 L19.2857143,5.14285714 Z" id="形状" fill="#666666"></path>
        </g>
    </g>
</svg>