<!--?xml version="1.0"?-->
<svg xmlns="http://www.w3.org/2000/svg" class="icon" style="vertical-align:middle;fill:currentColor;overflow:hidden;" viewBox="0 0 1024 1024" version="1.1" width="200px" height="200px"><path d="M281.977882 31.25C393.840247 31.25 457.263803 127.888602 495.902069 291.918974C500.355978 310.827082 506.203806 341.544931 511.896728 373.374528L513.897038 384.637247L514.887641 390.270566L516.840284 401.475797C525.162625 449.509138 532.070772 492.828722 532.103422 493.7124L534.758063 506.942747C549.826253 581.241716 562.117741 632.315916 580.990506 690.485394C624.817516 825.568647 679.890075 903.338472 739.824331 903.338472C785.178094 903.338472 830.011931 831.604331 863.632375 709.348175C876.39065 662.954444 886.630909 613.001959 894.545487 563.01515C897.319294 545.496381 899.601438 529.240016 901.421753 514.677481C902.505006 506.011453 903.188525 499.890403 903.503219 496.743453C905.300409 478.771544 921.326431 465.659347 939.298338 467.456537C957.270247 469.253728 970.382444 485.279747 968.585253 503.251656C968.218628 506.917897 967.475634 513.571578 966.323309 522.790178C964.417663 538.035356 962.037028 554.993297 959.147369 573.243781C950.880619 625.454841 940.170316 677.700225 926.697803 726.691169C885.373144 876.962663 828.009116 968.745109 739.824331 968.745109C639.817559 968.745109 570.959275 871.507991 518.776416 710.670409C497.793934 645.998378 484.736394 590.434381 467.931759 506.411203L467.8869 506.034572C467.183413 501.268653 460.161475 457.500922 452.023656 410.580516L450.051819 399.277441C443.756691 363.408938 437.057431 327.375966 432.237841 306.915437C399.982681 169.983163 351.858753 96.656635 281.977882 96.656635C225.871387 96.656635 175.869873 168.087369 138.884285 291.372665C125.015033 337.603503 114.058926 387.403991 105.752585 437.242034C102.841275 454.7099 100.472526 470.917122 98.606371 485.431663C97.497203 494.058528 96.807776 500.141703 96.496781 503.251656C94.69959 521.223563 78.67357 534.335763 60.701662 532.538572C42.729754 530.741381 29.617556 514.715359 31.414746 496.743453C31.78507 493.040213 32.543447 486.348656 33.73373 477.090894C35.699995 461.797722 38.185646 444.790641 41.235877 426.48925C49.962515 374.129425 61.489938 321.732044 76.23609 272.578207C121.008795 123.335855 185.468894 31.25 281.977882 31.25zM347.384519 467.294238C365.446063 467.294238 380.087834 481.936009 380.087834 499.997553C380.087834 518.059097 365.446063 532.700872 347.384519 532.700872L216.571246 532.700872C198.509703 532.700872 183.867929 518.059097 183.867929 499.997553C183.867929 481.936009 198.509703 467.294238 216.571246 467.294238L347.384519 467.294238zM783.428753 467.294238C801.490297 467.294238 816.132072 481.936009 816.132072 499.997553C816.132072 518.059097 801.490297 532.700872 783.428753 532.700872L652.615481 532.700872C634.553938 532.700872 619.912166 518.059097 619.912166 499.997553C619.912166 481.936009 634.553938 467.294238 652.615481 467.294238L783.428753 467.294238z" fill="#666666"></path></svg>
