<!--?xml version="1.0" encoding="UTF-8"?-->
<svg width="32px" height="32px" viewBox="0 0 32 32" version="1.1" xmlns="http://www.w3.org/2000/svg" xmlns:xlink="http://www.w3.org/1999/xlink">
    <title>375.人力成本核算基础设置@1x</title>
    <g id="375.人力成本核算基础设置" stroke="none" stroke-width="1" fill="none" fill-rule="evenodd">
        <g id="编组" transform="translate(4.000000, 4.000000)" fill="#000000" fill-rule="nonzero">
            <path d="M19.5950221,12.4444444 C19.5950221,13.5306667 20.4975111,14.4112 21.6114667,14.4112 C21.9766221,14.4112 22.3186667,14.3164444 22.6133333,14.1512 L24,16.5154667 C23.3765131,16.8576247 22.9876561,17.5110284 22.9842667,18.2222222 C22.9842667,18.9525333 23.3933333,19.5904 24,19.9289778 L22.6133333,22.2932444 C22.3071736,22.1221619 21.962184,22.0326316 21.6114667,22.0332444 C20.4975111,22.0332444 19.5950221,22.9137779 19.5950221,24 L16.8494221,24 C16.8494221,22.9137779 15.9469333,22.0332444 14.8329778,22.0332444 C14.482254,22.0325799 14.1372513,22.1221134 13.8311111,22.2932444 L12.4444444,19.9289778 C13.0511111,19.5904 13.4601778,18.9525333 13.4601778,18.2222222 C13.4601778,17.4919111 13.0511111,16.8540444 12.4444444,16.5154667 L13.8311111,14.1512 C14.1257779,14.3164444 14.4678221,14.4112 14.8329778,14.4112 C15.9469333,14.4112 16.8494221,13.5306667 16.8494221,12.4444444 L19.5950221,12.4444444 Z M13.3287229,12.4444444 L13.3328679,12.9065851 C11.6435756,14.1487268 10.5572192,16.0860003 10.5572192,18.2625421 C10.5572192,20.1620756 11.384651,21.8793685 12.7181745,23.1113986 L2.10767252,23.1109569 C0.943637106,23.1109569 0,22.275651 0,21.2452493 L0.362287872,16.2298163 C0.649867435,13.8135448 2.94948705,12.4444444 5.02030396,12.4444444 L13.3287229,12.4444444 Z M18.2222221,16.2962963 C17.1608333,16.2962963 16.2962963,17.1594242 16.2962963,18.2227976 C16.2962963,19.2838695 17.159682,20.1481482 18.2222221,20.1481482 C19.2836112,20.1481482 20.1481482,19.2850204 20.1481482,18.2227976 C20.1481482,17.160575 19.2847624,16.2962963 18.2222221,16.2962963 Z M10.6666667,0 C13.6121853,0 16,2.38781466 16,5.33333333 C16,8.27885201 13.6121853,10.6666667 10.6666667,10.6666667 C7.72114799,10.6666667 5.33333333,8.27885201 5.33333333,5.33333333 C5.33333333,2.38781466 7.72114799,0 10.6666667,0 Z" id="形状" fill="#666666"></path>
        </g>
    </g>
</svg>