<!--?xml version="1.0" encoding="UTF-8"?-->
<svg width="32px" height="32px" viewBox="0 0 32 32" version="1.1" xmlns="http://www.w3.org/2000/svg" xmlns:xlink="http://www.w3.org/1999/xlink">
    <title>1975.我负责的盘点活动</title>
    <g id="1975.我负责的盘点活动" stroke="none" stroke-width="1" fill="none" fill-rule="evenodd">
        <path d="M16.1227432,25.9723777 L18.5914072,28.2270038 L16.5852549,28.9514645 C16.0658028,29.1390488 15.4926364,28.8700167 15.3050521,28.3505646 C15.213481,28.0969888 15.2281784,27.8171813 15.3458113,27.5745944 L16.1227432,25.9723777 Z M24.895147,17.3822095 L27.4303416,19.7145803 L19.3674406,27.6057949 L16.832246,25.273424 L24.895147,17.3822095 Z M23,4 C24.1045695,4 25,4.8954305 25,6 L25,15.237 L15.237,25 L6,25 C4.8954305,25 4,24.1045695 4,23 L4,6 C4,4.8954305 4.8954305,4 6,4 L23,4 Z M9.46011678,18.4793983 L8.071,19.92 L7.99507244,19.8403353 C7.87625046,19.7171125 7.72785315,19.563219 7.53988322,19.3682872 C7.25236285,19.0701179 6.77756759,19.0614853 6.47939832,19.3490057 C6.18122905,19.636526 6.17259641,20.1113213 6.46011678,20.4094906 C7.11801152,21.0917518 7.29114171,21.2712942 7.40814127,21.3926271 L7.45609703,21.442359 C7.47960629,21.466739 7.50334986,21.4913619 7.53154535,21.5206017 C7.82648605,21.8264661 8.31637109,21.8264661 8.61131179,21.5206017 L10.5398832,19.5206017 C10.8274036,19.2224324 10.8187709,18.7476371 10.5206017,18.4601168 C10.2224324,18.1725964 9.74763715,18.1812291 9.46011678,18.4793983 Z M15,19 L14,19 C13.4477153,19 13,19.4477153 13,20 C13,20.5522847 13.4477153,21 14,21 L15,21 C15.5522847,21 16,20.5522847 16,20 C16,19.4477153 15.5522847,19 15,19 Z M27.9506183,15.9770516 L28.8165728,16.7679262 C29.2703155,17.1823286 29.2842544,17.8648904 28.8394792,18.3005284 L28.1123119,19.0127574 L25.6032095,16.7211989 L26.3303768,16.00897 C26.7714687,15.5769395 27.4992711,15.564837 27.9506183,15.9770516 Z M9.46011678,12.4793983 L8.071,13.92 L7.99507244,13.8403353 C7.87625046,13.7171125 7.72785315,13.563219 7.53988322,13.3682872 C7.25236285,13.0701179 6.77756759,13.0614853 6.47939832,13.3490057 C6.18122905,13.636526 6.17259641,14.1113213 6.46011678,14.4094906 C7.11801152,15.0917518 7.29114171,15.2712942 7.40814127,15.3926271 L7.45609703,15.442359 C7.47960629,15.466739 7.50334986,15.4913619 7.53154535,15.5206017 C7.82648605,15.8264661 8.31637109,15.8264661 8.61131179,15.5206017 L10.5398832,13.5206017 C10.8274036,13.2224324 10.8187709,12.7476371 10.5206017,12.4601168 C10.2224324,12.1725964 9.74763715,12.1812291 9.46011678,12.4793983 Z M21,13 L14,13 C13.4477153,13 13,13.4477153 13,14 C13,14.5522847 13.4477153,15 14,15 L21,15 C21.5522847,15 22,14.5522847 22,14 C22,13.4477153 21.5522847,13 21,13 Z M9.46011678,7.47939832 L8.071,8.92 L7.99507244,8.84033529 C7.87625046,8.71711249 7.72785315,8.56321898 7.53988322,8.36828721 C7.25236285,8.07011794 6.77756759,8.0614853 6.47939832,8.34900567 C6.18122905,8.63652603 6.17259641,9.1113213 6.46011678,9.40949057 C7.11801152,10.0917518 7.29114171,10.2712942 7.40814127,10.3926271 L7.45609703,10.442359 C7.47960629,10.466739 7.50334986,10.4913619 7.53154535,10.5206017 C7.82648605,10.8264661 8.31637109,10.8264661 8.61131179,10.5206017 L10.5398832,8.52060168 C10.8274036,8.22243241 10.8187709,7.74763715 10.5206017,7.46011678 C10.2224324,7.17259641 9.74763715,7.18122905 9.46011678,7.47939832 Z M21,8 L14,8 C13.4477153,8 13,8.44771525 13,9 C13,9.55228475 13.4477153,10 14,10 L21,10 C21.5522847,10 22,9.55228475 22,9 C22,8.44771525 21.5522847,8 21,8 Z" id="形状结合" fill="#666666"></path>
    </g>
</svg>