<!--?xml version="1.0" encoding="UTF-8"?-->
<svg width="32px" height="32px" viewBox="0 0 32 32" version="1.1" xmlns="http://www.w3.org/2000/svg" xmlns:xlink="http://www.w3.org/1999/xlink">
    <title>1369-流程中</title>
    <g id="1369-流程中" stroke="none" stroke-width="1" fill="none" fill-rule="evenodd">
        <g id="编组" transform="translate(4.000000, 4.000000)" fill="#000000" fill-rule="nonzero">
            <path d="M11.9968605,5.98784437 C13.6503489,5.98784437 14.9907961,4.64742396 14.9907961,2.99390875 C14.9907961,1.34042038 13.6503756,0 11.9968605,0 C10.3433721,0 9.00295171,1.34042038 9.00295171,2.99390875 C9.00295171,4.64739715 10.3433989,5.98784437 11.9968605,5.98784437 L11.9968605,5.98784437 Z M11.9968605,1.50075133 C12.8201968,1.50075133 13.4900447,2.17059928 13.4900447,2.9939356 C13.4900447,3.81727191 12.8202236,4.48714668 11.9968605,4.48714668 C11.1735242,4.48714668 10.503703,3.81729875 10.503703,2.9939356 C10.503703,2.17057244 11.1735242,1.50075133 11.9968605,1.50075133 L11.9968605,1.50075133 Z M2.99390875,13.9360465 C1.34042038,13.9360465 0,15.2764669 0,16.9299822 C0,18.5834705 1.34042038,19.9239178 2.99390875,19.9239178 C4.64739712,19.9239178 5.98784437,18.5834705 5.98784437,16.9299822 C5.98784437,15.2764938 4.64742396,13.9360465 2.99390875,13.9360465 Z M2.99390875,18.4231396 C2.17059928,18.4231396 1.50072449,17.7533184 1.50072449,16.9299554 C1.50072449,16.106619 2.17057244,15.436771 2.99390875,15.436771 C3.81724509,15.436771 4.48709301,16.1065922 4.48709301,16.9299554 C4.48709301,17.7533184 3.81724509,18.4231396 2.99390875,18.4231396 Z M21.0060644,13.9360465 C19.352576,13.9360465 18.0121557,15.2764669 18.0121557,16.9299822 C18.0121557,18.5834705 19.352576,19.9239178 21.0060644,19.9239178 C22.6595529,19.9239178 24,18.5834705 24,16.9299822 C24,15.2764938 22.6595796,13.9360465 21.0060644,13.9360465 Z M21.0060644,18.4231396 C20.1827281,18.4231396 19.5128802,17.7533184 19.5128802,16.9299554 C19.5128802,16.106619 20.1827281,15.436771 21.0060644,15.436771 C21.8294008,15.436771 22.4992755,16.1065922 22.4992755,16.9299554 C22.4992755,17.7533184 21.8294008,18.4231396 21.0060644,18.4231396 Z M11.9758766,21.9070573 C9.83686048,21.9070573 7.75210197,21.1585064 6.10588551,19.7999196 L5.15031306,20.9569858 C7.06510734,22.5375939 9.48915028,23.4077818 11.9758497,23.4077818 C14.4838014,23.4077818 16.9239714,22.5240429 18.8464401,20.9196064 L17.8850179,19.7676923 C16.2315295,21.1471556 14.1331664,21.9070573 11.9758766,21.9070573 L11.9758766,21.9070573 Z M21.2053042,12.6776298 L22.7060555,12.6776298 C22.7060555,8.52305904 20.272111,4.70380143 16.5048569,2.94767441 L15.8709928,4.30773701 C19.1113685,5.8187388 21.205331,9.10381932 21.205331,12.6776298 L21.2053042,12.6776298 Z M8.08078712,4.3077102 L7.44692309,2.94764759 C3.67999104,4.70380143 1.24604648,8.52308588 1.24604648,12.6776028 L2.74679784,12.6776028 C2.74679784,9.10381932 4.84073344,5.81836315 8.08078712,4.30773701 L8.08078712,4.3077102 Z" id="形状" fill="#346bf6"></path>
        </g>
    </g>
</svg>