<!--?xml version="1.0" encoding="UTF-8"?-->
<svg width="32px" height="32px" viewBox="0 0 32 32" version="1.1" xmlns="http://www.w3.org/2000/svg" xmlns:xlink="http://www.w3.org/1999/xlink">
    <title>1887.消息中心</title>
    <g id="1887.消息中心" stroke="none" stroke-width="1" fill="none" fill-rule="evenodd">
        <path d="M16.6306359,18.2190477 L22.2500338,23.8384457 C22.6015057,24.1899175 22.6015057,24.759766 22.2500338,25.1112379 L16.6306359,30.7306359 C16.279164,31.0821077 15.7093155,31.0821077 15.3578436,30.7306359 L9.73844567,25.1112379 C9.38697381,24.759766 9.38697381,24.1899175 9.73844567,23.8384457 L15.3578436,18.2190477 C15.7093155,17.8675758 16.279164,17.8675758 16.6306359,18.2190477 Z M24.5956443,10.2343726 L30.234709,15.8734373 C30.58075,16.2194783 30.58075,16.7805217 30.234709,17.1265627 L24.5956443,22.7656274 C24.2496032,23.1116685 23.6885598,23.1116685 23.3425188,22.7656274 L17.7034541,17.1265627 C17.357413,16.7805217 17.357413,16.2194783 17.7034541,15.8734373 L23.3425188,10.2343726 C23.6885598,9.88833151 24.2496032,9.88833151 24.5956443,10.2343726 Z M8.65579408,10.2442059 L14.2751921,15.8636039 C14.6266639,16.2150758 14.6266639,16.7849242 14.2751921,17.1363961 L8.65579408,22.7557941 C8.30432222,23.1072659 7.73447374,23.1072659 7.38300188,22.7557941 L1.7636039,17.1363961 C1.41213203,16.7849242 1.41213203,16.2150758 1.7636039,15.8636039 L7.38300188,10.2442059 C7.73447374,9.89273406 8.30432222,9.89273406 8.65579408,10.2442059 Z M23.9690815,12.1140608 L19.5831423,16.5 L23.9690815,20.8859392 L28.3550207,16.5 L23.9690815,12.1140608 Z M16.6306359,2.26936415 L22.2500338,7.88876212 C22.6015057,8.24023399 22.6015057,8.81008247 22.2500338,9.16155433 L16.6306359,14.7809523 C16.279164,15.1324242 15.7093155,15.1324242 15.3578436,14.7809523 L9.73844567,9.16155433 C9.38697381,8.81008247 9.38697381,8.24023399 9.73844567,7.88876212 L15.3578436,2.26936415 C15.7093155,1.91789228 16.279164,1.91789228 16.6306359,2.26936415 Z" id="形状结合" fill="#666666"></path>
    </g>
</svg>