<!--?xml version="1.0" encoding="UTF-8"?-->
<svg width="32px" height="32px" viewBox="0 0 32 32" version="1.1" xmlns="http://www.w3.org/2000/svg" xmlns:xlink="http://www.w3.org/1999/xlink">
    <title>1500-继承</title>
    <g id="1500-继承" stroke="none" stroke-width="1" fill="none" fill-rule="evenodd">
        <g id="编组" transform="translate(5.000000, 4.000000)" fill="#000000" fill-rule="nonzero">
            <path d="M15.2160092,15.080605 L13.6363796,11.9227574 C12.7004803,12.4371921 11.6495465,12.7062389 10.5815819,12.7048081 C9.74028234,12.7059329 8.90719144,12.5394107 8.13096793,12.2149677 L7.10187945,14.6147625 C9.43192332,15.7475347 10.4912294,18.4877587 9.52899427,20.8932484 C8.56675913,23.2987381 5.90983045,24.5524076 3.44135726,23.7656946 C0.972884069,22.9789816 -0.468653792,20.4191133 0.138461212,17.9004453 C0.745576215,15.3817773 3.195122,13.7598394 5.75093613,14.1842111 L6.89154448,11.5232621 C4.69418304,9.95519662 3.72785467,7.16963404 4.4820696,4.577649 C5.23628454,1.98566395 7.54629239,0.153448587 10.241919,0.00914310246 C12.9375455,-0.135162382 15.4299592,1.43996405 16.4565851,3.936615 C17.4832109,6.43326596 16.8197932,9.30607405 14.8023975,11.0997689 L16.4201415,14.3324337 C18.1191405,13.7050477 20.0172608,14.4656166 20.8129396,16.0926096 C21.6086183,17.7196026 21.0435305,19.6848002 19.5051632,20.6406438 C17.966796,21.5964875 15.9545956,21.232653 14.848351,19.798626 C13.7421064,18.3645989 13.9009708,16.3259503 15.2160092,15.080605 L15.2160092,15.080605 Z M10.5815819,11.2931642 C13.310285,11.2931642 15.5223359,9.08111324 15.5223359,6.35241013 C15.5223359,3.62370703 13.310285,1.4116561 10.5815819,1.4116561 C7.85287881,1.4116561 5.64082789,3.62370703 5.64082789,6.35241013 C5.64082789,9.08111324 7.85287881,11.2931642 10.5815819,11.2931642 L10.5815819,11.2931642 Z M4.93500588,22.5863162 C6.88407953,22.5863162 8.46411591,21.0062798 8.46411591,19.0572062 C8.46411591,17.1081325 6.88407953,15.5280962 4.93500588,15.5280962 C2.98593224,15.5280962 1.40589586,17.1081325 1.40589586,19.0572062 C1.40589586,21.0062798 2.98593224,22.5863162 4.93500588,22.5863162 L4.93500588,22.5863162 Z M17.6398019,19.7630282 C18.8092461,19.7630282 19.7572679,18.8150064 19.7572679,17.6455622 C19.7572679,16.476118 18.8092461,15.5280962 17.6398019,15.5280962 C16.4703578,15.5280962 15.522336,16.476118 15.522336,17.6455622 C15.522336,18.8150063 16.4703578,19.7630282 17.6398019,19.7630282 L17.6398019,19.7630282 Z" id="形状" fill="#346bf6"></path>
        </g>
    </g>
</svg>