<!--?xml version="1.0" encoding="UTF-8"?-->
<svg width="32px" height="32px" viewBox="0 0 32 32" version="1.1" xmlns="http://www.w3.org/2000/svg" xmlns:xlink="http://www.w3.org/1999/xlink">
    <title>1916初始化中心</title>
    <g id="1916初始化中心" stroke="none" stroke-width="1" fill="none" fill-rule="evenodd">
        <g id="zzfzy_cshzx_48_48" transform="translate(2.000000, 2.000000)" fill="#999999">
            <path d="M27.9451147,15.9710812 L27.5231939,17.845529 C25.9165081,23.8210654 20.4998843,28 14.3019172,28 C10.2064936,28 6.3679469,26.1798573 3.76328108,23.0320945 L3.49291951,22.70536 L5.03614811,21.4304327 L5.30650967,21.7571671 C7.53200613,24.4467003 10.8056078,25.9992034 14.3019172,25.9992034 C19.491861,25.9992034 24.0423304,22.5634781 25.5082393,17.6136335 L25.9728291,15.9710812 L27.9451147,15.9710812 Z M14.2732288,4.49265868 C19.4284604,4.49265868 23.6076013,8.66845785 23.6076013,13.8195672 C23.6076013,18.9706765 19.4284604,23.1464757 14.2732288,23.1464757 C9.11799724,23.1464757 4.93885633,18.9706765 4.93885633,13.8195672 C4.93885633,8.66845785 9.11799724,4.49265868 14.2732288,4.49265868 Z M10.0514378,0.570497229 L10.6449469,2.48138634 L10.2397231,2.60704489 C5.35628688,4.12138211 2.00239779,8.66822184 2.00239779,13.8295089 C2.00239779,15.3412406 2.2864506,16.8191651 2.84017206,18.203873 L3.35579164,19.4095864 L1.68708764,20.5188854 L0.980712608,18.946251 C0.332585126,17.3254591 0,15.5955955 0,13.8295089 C0,7.79074075 3.92574435,2.47005426 9.646214,0.696155784 L10.0514378,0.570497229 Z M9.87909617,10.461654 L9.05040543,10.461654 L9.05040543,16.8798638 L9.87909617,16.8798638 L9.87909617,13.9877331 L13.1275639,13.9877331 L13.1275639,16.8798638 L13.9562546,16.8798638 L13.9562546,10.461654 L13.1275639,10.461654 L13.1275639,13.2501984 L9.87909617,13.2501984 L9.87909617,10.461654 Z M17.5693462,10.461654 L15.6136361,10.461654 L15.6136361,16.8798638 L16.4423268,16.8798638 L16.4423268,14.178332 L17.0389842,14.178332 C17.2848291,14.178332 17.4961452,14.2425555 17.6729326,14.3710026 C17.8497199,14.4994497 18.0444623,14.7418417 18.2571596,15.0981787 L19.3220272,16.8798638 L20.2998822,16.8798638 L19.0982807,14.9573013 C18.8938703,14.6230627 18.7274415,14.3868858 18.5989945,14.2487707 C18.4705474,14.1106556 18.3179302,14.004307 18.1411428,13.9297248 L18.1411428,13.9090075 C19.0913749,13.6438265 19.5664909,13.0665053 19.5664909,12.1770439 C19.5664909,11.6356326 19.3897036,11.2143815 19.0361288,10.9132905 C18.6825541,10.6121995 18.1936266,10.461654 17.5693462,10.461654 Z M14.3067979,0 C21.8699874,0 28,6.15392596 28,13.7437608 L28,14.1677112 L25.9976022,14.1677112 L25.9976022,13.7437608 C25.9976022,7.25763749 20.7627789,2.00079662 14.3067979,2.00079662 L12.1710372,2.21173269 L11.7305294,0.21165486 L14.3067979,0 Z M17.4326123,11.1867584 C17.8441953,11.1867584 18.1577167,11.2806767 18.3731763,11.4685133 C18.5886358,11.6563499 18.6963656,11.9173874 18.6963656,12.251626 C18.6963656,12.6107254 18.5782772,12.9007671 18.3421004,13.1217513 C18.1059235,13.3427355 17.7986173,13.4532276 17.4201819,13.4532276 L16.4423268,13.4532276 L16.4423268,11.1867584 L17.4326123,11.1867584 Z" id="形状" fill="#666666"></path>
        </g>
    </g>
</svg>