<!--?xml version="1.0" encoding="UTF-8"?-->
<svg width="32px" height="32px" viewBox="0 0 32 32" version="1.1" xmlns="http://www.w3.org/2000/svg" xmlns:xlink="http://www.w3.org/1999/xlink">
    <title>1917初始化计划</title>
    <g id="1917初始化计划" stroke="none" stroke-width="1" fill="none" fill-rule="evenodd">
        <g id="编组-17" transform="translate(-27.000000, 2.000000)">
            <g id="zzfzy_cshjh_48_48" transform="translate(19.000000, -10.000000)">
                <g id="Group-6-Copy" transform="translate(11.000000, 12.000000)">
                    <g id="Group-2" transform="translate(0.000000, 1.999945)"></g>
                </g>
            </g>
        </g>
        <path d="M21,5.999 L21,8.49738121 C21,9.27707733 21.5948881,9.91782989 22.35554,9.99051463 L22.5,9.99738121 L23.5,9.99738121 C24.3284271,9.99738121 25,9.32580834 25,8.49738121 L25,5.999 L28,5.99994543 C28.5522847,5.99994543 29,6.44766068 29,6.99994543 L29,27 C29,27.5522847 28.5522847,28 28,28 L3,28 C2.44771525,28 2,27.5522847 2,27 L2,6.99994543 C2,6.44766068 2.44771525,5.99994543 3,5.99994543 L6.078,5.999 L6.07893181,8.5 C6.07893181,9.32842712 6.75050468,10 7.57893181,10 L8.5,10 C9.32842712,10 10,9.32842712 10,8.5 L9.999,5.999 L21,5.999 Z M24,21 L7,21 C6.44771525,21 6,21.4477153 6,22 C6,22.5522847 6.44771525,23 7,23 L24,23 C24.5522847,23 25,22.5522847 25,22 C25,21.4477153 24.5522847,21 24,21 Z M24,17 L7,17 C6.44771525,17 6,17.4477153 6,18 C6,18.5522847 6.44771525,19 7,19 L24,19 C24.5522847,19 25,18.5522847 25,18 C25,17.4477153 24.5522847,17 24,17 Z M24,13 L7,13 C6.44771525,13 6,13.4477153 6,14 C6,14.5522847 6.44771525,15 7,15 L24,15 C24.5522847,15 25,14.5522847 25,14 C25,13.4477153 24.5522847,13 24,13 Z M8,3 C8.55228475,3 9,3.44771525 9,4 L9,8 C9,8.55228475 8.55228475,9 8,9 C7.44771525,9 7,8.55228475 7,8 L7,4 C7,3.44771525 7.44771525,3 8,3 Z M23,3 C23.5522847,3 24,3.44771525 24,4 L24,8 C24,8.55228475 23.5522847,9 23,9 C22.4477153,9 22,8.55228475 22,8 L22,4 C22,3.44771525 22.4477153,3 23,3 Z" id="形状结合" fill="#666666"></path>
    </g>
</svg>