<!--?xml version="1.0" encoding="UTF-8"?-->
<svg width="32px" height="32px" viewBox="0 0 32 32" version="1.1" xmlns="http://www.w3.org/2000/svg" xmlns:xlink="http://www.w3.org/1999/xlink">
    <title>1170-洞察</title>
    <g id="1170-洞察" stroke="none" stroke-width="1" fill="none" fill-rule="evenodd">
        <g id="编组" transform="translate(4.000000, 4.000000)" fill="#000000" fill-rule="nonzero">
            <path d="M16,22.4 L16,24 L8.88888888,24 L8.88888888,22.4 L16,22.4 Z M12,3.64444444 C16.418278,3.64444444 20,7.36545559 20,11.9555555 C20,14.9294115 18.4965554,17.5384633 16.2362214,19.007123 L16.2352941,21.2444445 L8.70588232,21.2444445 L8.70589143,19.531637 C5.9308042,18.2272938 4,15.3256752 4,11.9555555 C4,7.36545559 7.58172201,3.64444444 12,3.64444444 Z M12,5.6 C8.46537761,5.6 5.6,8.46537761 5.6,12 C5.6,15.5346224 8.46537761,18.4 12,18.4 C15.5346224,18.4 18.4,15.5346224 18.4,12 C18.4,8.46537761 15.5346224,5.6 12,5.6 Z M2.4,11.2 C2.84182779,11.2 3.2,11.5581722 3.2,12 C3.2,12.4418278 2.84182779,12.8 2.4,12.8 L0.8,12.8 C0.358172211,12.8 0,12.4418278 0,12 C0,11.5581722 0.358172211,11.2 0.8,11.2 L2.4,11.2 Z M23.2,11.2 C23.6418278,11.2 24,11.5581722 24,12 C24,12.4418278 23.6418278,12.8 23.2,12.8 L21.6,12.8 C21.1581722,12.8 20.8,12.4418278 20.8,12 C20.8,11.5581722 21.1581722,11.2 21.6,11.2 L23.2,11.2 Z M4,2.86862915 L5.13137085,4 C5.44379028,4.31241943 5.44379028,4.81895142 5.13137085,5.13137085 C4.81895142,5.44379028 4.31241943,5.44379028 4,5.13137085 L2.86862915,4 C2.55620972,3.68758057 2.55620972,3.18104858 2.86862915,2.86862915 C3.18104858,2.55620972 3.68758057,2.55620972 4,2.86862915 Z M20,2.86862915 C20.3124194,2.55620972 20.8189514,2.55620972 21.1313709,2.86862915 C21.4437903,3.18104858 21.4437903,3.68758057 21.1313709,4 L21.1313709,4 L20,5.13137085 C19.6875806,5.44379028 19.1810486,5.44379028 18.8686291,5.13137085 C18.5562097,4.81895142 18.5562097,4.31241943 18.8686291,4 L18.8686291,4 L20,2.86862915 Z M12,0 C12.4418278,0 12.8,0.358172211 12.8,0.8 L12.8,2.4 C12.8,2.84182779 12.4418278,3.2 12,3.2 C11.5581722,3.2 11.2,2.84182779 11.2,2.4 L11.2,0.8 C11.2,0.358172211 11.5581722,0 12,0 Z" id="形状" fill="#346bf6"></path>
        </g>
    </g>
</svg>