<!--?xml version="1.0" encoding="UTF-8"?-->
<svg width="32px" height="32px" viewBox="0 0 32 32" version="1.1" xmlns="http://www.w3.org/2000/svg" xmlns:xlink="http://www.w3.org/1999/xlink">
    <title>423.集成元数据@1x</title>
    <g id="423.集成元数据" stroke="none" stroke-width="1" fill="none" fill-rule="evenodd">
        <g id="编组" transform="translate(4.000000, 4.000000)" fill="#000000" fill-rule="nonzero">
            <path d="M0,4.75014075 C2.08585019,6.19543615 6.67482649,7.1990994 12.0005454,7.1990994 C17.3253362,7.1990994 21.913641,6.19578597 24,4.7508964 L23.9990444,20.9973733 C23.9990444,22.6540203 18.6271335,23.996998 12.0005454,23.996998 C5.50648917,23.996998 0.217424753,22.7072022 0.0084597769,21.0963874 L0.002046416,20.9973733 L0,4.75014075 Z M17.8124367,8.71987477 C16.8184484,8.71987477 16.0126618,9.52566141 16.0126618,10.5196496 C16.0126618,10.6490868 16.0263257,10.7753325 16.0522899,10.8970232 L16.1002907,11.0759725 L13.8328612,12.8485466 C13.3926762,12.328593 12.7351596,11.998499 12.0005454,11.998499 C11.4214901,11.998499 10.8903376,12.203596 10.475769,12.5451088 L10.3259048,12.6794365 L8.04604457,11.1989316 C8.06041437,11.1073264 8.06787434,11.0134289 8.06787434,10.9177888 C8.06787434,9.92380052 7.26208769,9.11801391 6.26809949,9.11801391 C5.27411131,9.11801391 4.46832464,9.92380052 4.46832464,10.9177888 C4.46832464,11.911777 5.27411131,12.7175637 6.26809949,12.7175637 C6.66421697,12.7175637 7.03044561,12.5895944 7.32769911,12.3727423 L7.47039695,12.2570902 L9.7020928,13.7063095 C9.63623569,13.9253915 9.60084564,14.1576623 9.60084564,14.3981988 C9.60084564,14.8126319 9.70590328,15.2025273 9.8908395,15.5427064 L9.98984765,15.7085362 L8.05430833,17.5768183 C7.84431146,17.4909536 7.6144695,17.4436258 7.37357352,17.4436258 C6.37958532,17.4436258 5.57379867,18.2494125 5.57379867,19.2434006 C5.57379867,20.2373888 6.37958532,21.0431755 7.37357352,21.0431755 C8.36756173,21.0431755 9.17334837,20.2373888 9.17334837,19.2434006 C9.17334837,18.9926188 9.12205637,18.753817 9.02939078,18.5369133 L8.952289,18.3784965 L10.8782623,16.5198357 C11.2131567,16.6973528 11.5951092,16.7978986 12.0005454,16.7978986 C12.5874755,16.7978986 13.125191,16.5871854 13.5421705,16.2372804 L13.6927386,16.099681 L16.8550051,18.1541541 C16.8190499,18.2960286 16.799945,18.4446199 16.799945,18.5976735 C16.799945,19.5916616 17.6057317,20.3974483 18.5997199,20.3974483 C19.593708,20.3974483 20.3994947,19.5916616 20.3994947,18.5976735 C20.3994947,17.6036853 19.593708,16.7978986 18.5997199,16.7978986 C18.2630352,16.7978986 17.9479431,16.8903481 17.6784446,17.0512465 L17.5224086,17.1558072 L14.3059495,15.0665227 C14.3673422,14.854375 14.4002452,14.6301295 14.4002452,14.3981988 C14.4002452,14.2983616 14.3941485,14.1999485 14.3823068,14.1033112 L14.3602797,13.9597314 L16.8316631,12.0289637 C17.1138036,12.2126782 17.4506541,12.3194244 17.8124367,12.3194244 C18.8064249,12.3194244 19.6122115,11.5136379 19.6122115,10.5196496 C19.6122115,9.52566141 18.8064249,8.71987477 17.8124367,8.71987477 Z M12.0005454,4.09221423e-16 C18.6271335,4.09221423e-16 23.9990444,1.34297777 23.9990444,2.99962476 C23.9990444,4.65627175 18.6271335,5.99924952 12.0005454,5.99924952 C5.3739574,5.99924952 0.002046416,4.65627175 0.002046416,2.99962476 C0.002046416,1.34297777 5.3739574,4.09221423e-16 12.0005454,4.09221423e-16 Z" id="形状" fill="#346bf6"></path>
        </g>
    </g>
</svg>