<!--?xml version="1.0" encoding="UTF-8"?-->
<svg width="32px" height="32px" viewBox="0 0 32 32" version="1.1" xmlns="http://www.w3.org/2000/svg" xmlns:xlink="http://www.w3.org/1999/xlink">
    <title>1047.代码</title>
    <g id="1047.代码" stroke="none" stroke-width="1" fill="none" fill-rule="evenodd">
        <g id="编组" transform="translate(2.000000, 6.000000)" fill="#000000" fill-rule="nonzero">
            <path d="M21.5362517,16.2616725 C21.350246,16.472074 21.0829097,16.5925611 20.8020772,16.5925611 C20.5212447,16.5925611 20.2539083,16.472074 20.0679027,16.2616725 C19.8698505,16.0433079 19.7610422,15.7585188 19.7630044,15.4637244 C19.7630044,15.1635216 19.8719154,14.8757626 20.0679027,14.6673317 L25.4108886,9.85164481 L20.0679027,5.03751338 C19.8697495,4.81859104 19.7609557,4.53328484 19.7630044,4.23800981 C19.7630044,3.93780709 19.8719154,3.65004804 20.0679027,3.44006169 C20.2544374,3.23057467 20.5215776,3.11074961 20.8020772,3.11074961 C21.0825768,3.11074961 21.349717,3.23057467 21.5362517,3.44006169 L27.7036285,8.99770034 C27.9213921,9.23101849 28.0116084,9.54210938 27.9976093,9.85320027 C28.017641,10.1659686 27.9111513,10.4736677 27.702073,10.7071447 L21.5362517,16.2616725 L21.5362517,16.2616725 Z M11.1224843,20.0740913 C10.6278498,19.9076576 10.518968,19.1252641 10.7802844,18.615075 L15.4777567,0.46292194 C15.4777567,0.46292194 16.3114803,-0.221478001 16.7594512,0.0740583141 C16.9756593,0.214049212 17.1327602,0.445811908 17.1980893,0.719571902 C17.2626315,0.992308927 17.229611,1.27903751 17.104762,1.52996365 L12.4072897,19.6852276 C12.1459734,20.1938612 11.730667,20.2794112 11.1224843,20.0740913 L11.1224843,20.0740913 Z M7.93069185,16.4327725 C7.7444416,16.642188 7.47755216,16.7619949 7.19729509,16.7619949 C6.91703802,16.7619949 6.65014859,16.642188 6.46389833,16.4327725 L0.29652157,10.9155756 C0.0879612163,10.6837391 -0.0180589467,10.3774587 0.00254068492,10.0662975 C-0.018177722,9.75484305 0.088484641,9.4483291 0.298077028,9.2170194 L6.46389833,3.69826711 C6.86831648,3.26118441 7.5262737,3.26118441 7.93069185,3.69826711 C8.12940677,3.91447254 8.23888784,4.19790067 8.23715002,4.49154888 C8.23715002,4.79019614 8.12667913,5.07639974 7.93069185,5.28483063 L2.58615046,10.0662975 L7.93069185,14.8477644 C8.12980941,15.0637194 8.23935425,15.3473126 8.23715002,15.6410462 C8.23895901,15.9342437 8.1294413,16.2172108 7.93069185,16.4327725 L7.93069185,16.4327725 Z" id="形状" fill="#346bf6"></path>
        </g>
    </g>
</svg>