<!--?xml version="1.0" encoding="UTF-8"?-->
<svg width="32px" height="32px" viewBox="0 0 32 32" version="1.1" xmlns="http://www.w3.org/2000/svg" xmlns:xlink="http://www.w3.org/1999/xlink">
    <title>1784.银企互联</title>
    <g id="1784.银企互联" stroke="none" stroke-width="1" fill="none" fill-rule="evenodd">
        <path d="M16.5901283,2.09346007 C25.3906523,8.76270397 30.0169801,12.2457342 30.4690743,12.5426003 C31.1625376,12.9979288 31.1955765,13.6822523 30.4563671,14 L1.57261907,14 C0.786441001,13.6822523 0.832155014,12.9979605 1.57261907,12.5426003 C2.05439565,12.2458083 6.65773956,8.7644429 15.3826508,2.09850396 C15.7379347,1.82473651 16.2320479,1.82336905 16.5901283,2.09346007 Z M16.0607046,6.00069168 C15.1223466,5.97939448 14.245711,6.45123058 13.7702129,7.23351485 C13.2947147,8.01579911 13.2950054,8.98571598 13.7709724,9.76773378 C14.2469394,10.5497516 15.1238577,11.0210966 16.0622027,10.9992738 C17.4661763,10.966622 18.5866137,9.85684117 18.5862069,8.49927563 C18.5857999,7.14171009 17.4646975,6.03255705 16.0607046,6.00069168 Z M10.3103448,16 L10.3223087,18.0208124 L8.27323125,18.0640851 L8.263,26.999028 L14.44,26.999028 L14.4490177,17.9892693 L12.390264,18.017301 L12.3793103,16 L19.6206897,16 L19.6326535,18.0208124 L17.5835761,18.0640851 L17.573,26.999028 L23.75,26.999028 L23.7593625,17.9892693 L21.7006088,18.017301 L21.6896552,16 L28.9310345,16 L28.9429984,18.0208124 L26.8939209,18.0640851 L26.883,26.999028 L29.5524898,27 L31,30 L1,30 L2.44607747,27 L5.129,26.999028 L5.13867288,17.9892693 L3.07991913,18.017301 L3.06896552,16 L10.3103448,16 Z" id="形状结合" fill="#666666" fill-rule="nonzero"></path>
    </g>
</svg>