<!--?xml version="1.0" encoding="UTF-8"?-->
<svg width="32px" height="32px" viewBox="0 0 32 32" version="1.1" xmlns="http://www.w3.org/2000/svg" xmlns:xlink="http://www.w3.org/1999/xlink">
    <title>524.完整性校验@1x</title>
    <g id="524.完整性校验" stroke="none" stroke-width="1" fill="none" fill-rule="evenodd">
        <g id="编组" transform="translate(6.000000, 3.000000)" fill="#000000" fill-rule="nonzero">
            <path d="M10.0009021,0 L10.555731,0.625218156 L10.5608821,0.630699486 L10.6219249,0.691751848 C11.0358555,1.09173854 13.4042947,3.1591486 18.2012433,3.2622691 L18.5754883,3.26626587 C18.7865939,3.26626587 19.0022103,3.26301679 19.2214354,3.25512613 L20,3.22774093 L20,15.0985311 C20,18.2065198 18.9913844,22.7399316 10.2715503,26.2081053 L10,26.3157895 L9.72844968,26.2076412 C1.14658179,22.7945178 0.0339483284,18.3501545 0.000788850526,15.2475976 L0,3.22727677 L0.778564648,3.254662 C6.19492621,3.44463016 8.83226125,1.21720323 9.34947968,0.721590636 L9.44013528,0.630695478 C9.44297728,0.627645272 9.44465293,0.625800825 9.44517117,0.625218156 L10.0009021,0 Z M9.99954893,1.45002338 C8.91470073,2.33934632 5.49460958,4.06090099 0.791645979,4.08085969 L0.791645979,15.0980668 C0.791645979,16.7694927 1.50570617,21.9165187 10,25.3879416 C18.3640565,21.9703823 19.1841178,16.9279302 19.2073708,15.1781229 L19.207903,4.08085969 C14.5040372,4.06229342 11.0843972,2.33981046 9.99954893,1.45002338 Z M9.99954893,2.23862447 C10.9819745,3.04473688 14.0151961,4.58146924 18.2042181,4.68994688 L18.6002977,4.69586641 L18.6002977,14.9862053 C18.6002977,16.5476261 17.9340521,21.35489 10,24.5970198 C2.19436032,21.4071824 1.42266243,16.7018426 1.39979955,15.0642492 L1.3992512,14.9862053 L1.39880013,4.69586641 C5.79142043,4.67683601 8.98597137,3.06899955 9.99954893,2.23862447 Z M15.7258806,9.66037548 C15.5203416,9.45483641 15.1870969,9.45483641 14.9815578,9.66037548 L14.9815578,9.66037548 L8.57435864,16.0662212 L5.89073064,13.3819901 L5.81783811,13.3210897 C5.6127137,13.1789885 5.32910905,13.1992887 5.14640768,13.3819901 C4.94086865,13.5875293 4.94086865,13.920774 5.14640768,14.1263131 L5.14640768,14.1263131 L8.12369937,17.1036047 L8.20265957,17.1686464 C8.31410725,17.2435643 8.44788706,17.2712718 8.57594526,17.2518511 C8.73554715,17.2759087 8.90408589,17.2264933 9.02697432,17.1036047 L9.02697432,17.1036047 L15.7258806,10.4046984 C15.9314198,10.1991594 15.9314198,9.86591464 15.7258806,9.66037548 Z" id="形状" fill="#346bf6"></path>
        </g>
    </g>
</svg>