<!--?xml version="1.0" encoding="UTF-8"?-->
<svg width="32px" height="32px" viewBox="0 0 32 32" version="1.1" xmlns="http://www.w3.org/2000/svg" xmlns:xlink="http://www.w3.org/1999/xlink">
    <title>1891.智能检索</title>
    <g id="1891.智能检索" stroke="none" stroke-width="1" fill="none" fill-rule="evenodd">
        <path d="M15.0862029,2 C22.3135132,2 28.1724057,7.88210402 28.1724057,15.1380471 C28.1724057,18.3174609 27.047485,21.2330945 25.1754347,23.50566 L29.4829209,28.5520723 C29.9738358,29.127121 29.9063624,29.9910913 29.3321251,30.482955 C29.3297095,30.4850241 29.3272867,30.4870846 29.3248567,30.4891366 C28.751499,30.9733084 27.894202,30.9010089 27.4100302,30.3276512 L23.2530918,25.4041806 C21.0145845,27.2014366 18.1753983,28.2760941 15.0862029,28.2760941 C7.85889259,28.2760941 2,22.3939901 2,15.1380471 C2,7.88210402 7.85889259,2 15.0862029,2 Z M15.0862029,4.71821663 C9.35419817,4.71821663 4.70749025,9.38333362 4.70749025,15.1380471 C4.70749025,20.8927605 9.35419817,25.5578775 15.0862029,25.5578775 C20.8182076,25.5578775 25.4649155,20.8927605 25.4649155,15.1380471 C25.4649155,9.38333362 20.8182076,4.71821663 15.0862029,4.71821663 Z M19.8059701,18.0149254 C20.3005535,18.0149254 20.7014925,18.4158644 20.7014925,18.9104478 C20.7014925,19.4050311 20.3005535,19.8059701 19.8059701,19.8059701 L10.8507463,19.8059701 C10.3561629,19.8059701 9.95522388,19.4050311 9.95522388,18.9104478 C9.95522388,18.4158644 10.3561629,18.0149254 10.8507463,18.0149254 L19.8059701,18.0149254 Z M22.4925373,14.4328358 C22.9871207,14.4328358 23.3880597,14.8337749 23.3880597,15.3283582 C23.3880597,15.8229416 22.9871207,16.2238806 22.4925373,16.2238806 L13.5373134,16.2238806 C13.0427301,16.2238806 12.641791,15.8229416 12.641791,15.3283582 C12.641791,14.8337749 13.0427301,14.4328358 13.5373134,14.4328358 L22.4925373,14.4328358 Z M9.95522388,14.4328358 C10.4498072,14.4328358 10.8507463,14.8337749 10.8507463,15.3283582 C10.8507463,15.8229416 10.4498072,16.2238806 9.95522388,16.2238806 L8.1641791,16.2238806 C7.66959575,16.2238806 7.26865672,15.8229416 7.26865672,15.3283582 C7.26865672,14.8337749 7.66959575,14.4328358 8.1641791,14.4328358 L9.95522388,14.4328358 Z M15.3283582,10.8507463 C15.8229416,10.8507463 16.2238806,11.2516853 16.2238806,11.7462687 C16.2238806,12.240852 15.8229416,12.641791 15.3283582,12.641791 L10.8507463,12.641791 C10.3561629,12.641791 9.95522388,12.240852 9.95522388,11.7462687 C9.95522388,11.2516853 10.3561629,10.8507463 10.8507463,10.8507463 L15.3283582,10.8507463 Z M19.8059701,10.8507463 C20.3005535,10.8507463 20.7014925,11.2516853 20.7014925,11.7462687 C20.7014925,12.240852 20.3005535,12.641791 19.8059701,12.641791 L18.9104478,12.641791 C18.4158644,12.641791 18.0149254,12.240852 18.0149254,11.7462687 C18.0149254,11.2516853 18.4158644,10.8507463 18.9104478,10.8507463 L19.8059701,10.8507463 Z" id="形状结合" fill="#666666" fill-rule="nonzero"></path>
    </g>
</svg>