<!--?xml version="1.0" encoding="UTF-8"?-->
<svg width="32px" height="32px" viewBox="0 0 32 32" version="1.1" xmlns="http://www.w3.org/2000/svg" xmlns:xlink="http://www.w3.org/1999/xlink">
    <title>832.库存</title>
    <g id="832.库存" stroke="none" stroke-width="1" fill="none" fill-rule="evenodd">
        <g id="编组" transform="translate(2.000000, 1.000000)" fill="#000000" fill-rule="nonzero">
            <path d="M1.18094113,8.31805848 L12.2458818,13.6611171 C12.8146717,13.9359007 13.1761981,14.5117834 13.1764701,15.14347 L13.1764701,28.2573518 C13.1764701,28.5499188 13.0214053,28.8205645 12.7689013,28.9683387 C12.5163972,29.1161129 12.2044486,29.1188273 11.9494113,28.9754694 L0.838352906,22.713352 C0.321009555,22.4217692 0.000688843717,21.8742662 0,21.2804109 L0,9.05923492 C0.000258401894,8.77610754 0.145939046,8.51296402 0.385748405,8.36245606 C0.625557765,8.21194809 0.925867982,8.19518103 1.18094113,8.31805848 Z M3.29411751,13.1768818 L3.29411751,14.8239406 L9.88235253,18.1180581 L9.88235253,16.4709993 L3.29411751,13.1768818 Z M14.6489406,0.132176465 L26.715293,5.24958802 C26.9931038,5.35542515 27.176694,5.62182909 27.176694,5.9191174 C27.176694,6.21640571 26.9931038,6.48280965 26.715293,6.58864678 L14.6489406,11.7077054 C14.2371759,11.8822936 13.762823,11.8822936 13.3510583,11.7077054 L1.28470583,6.58864678 C1.00689503,6.48280965 0.8233048,6.21640571 0.8233048,5.9191174 C0.8233048,5.62182909 1.00689503,5.35542515 1.28470583,5.24958802 L13.3510583,0.132176465 C13.762823,-0.0440588217 14.2371759,-0.0440588217 14.6489406,0.132176465 Z M26.8190577,8.31805848 C27.0741309,8.19518103 27.3744411,8.21194809 27.6142504,8.36245606 C27.8540598,8.51296402 27.9997404,8.77610754 27.9999994,9.05923492 L27.9999994,21.2820579 C28.0004988,21.8770919 27.6800157,22.4261316 27.1616459,22.7182932 L16.0505876,28.9787635 C15.7960624,29.1218362 15.4848085,29.1194406 15.2325157,28.9724673 C14.9802228,28.825494 14.8246145,28.5559189 14.8235288,28.26394 L14.8235288,15.1467641 C14.8238007,14.5150775 15.1853271,13.9391948 15.754117,13.6644112 L26.8190577,8.31970554 L26.8190577,8.31805848 Z" id="形状" fill="#346bf6"></path>
        </g>
    </g>
</svg>