<!--?xml version="1.0" encoding="UTF-8"?-->
<svg width="32px" height="32px" viewBox="0 0 32 32" version="1.1" xmlns="http://www.w3.org/2000/svg" xmlns:xlink="http://www.w3.org/1999/xlink">
    <title>1074.斜体</title>
    <g id="1074.斜体" stroke="none" stroke-width="1" fill="none" fill-rule="evenodd">
        <g id="编组" transform="translate(7.000000, 2.000000)" fill="#000000" fill-rule="nonzero">
            <path d="M17.662,0.238000008 C17.888,0.337999992 18,0.468 18,0.625999993 C18,0.869999977 17.846,1.006 17.536,1.03399998 C16.37,1.15 15.548,1.37599998 15.07,1.71400001 C14.592,2.052 14.2,2.56800002 13.89,3.26599998 C13.58,3.96199997 12.944,6.08999998 11.982,9.646 C11.0878317,12.93233 10.2517016,16.234177 9.47400002,19.55 C8.764,22.596 8.41000001,24.408 8.41000001,24.982 C8.41000001,26.276 9.15400002,26.986 10.644,27.116 C11.29,27.174 11.614,27.338 11.614,27.612 C11.614,27.872 11.346,28 10.814,28 L3.47800001,27.87 L0.654000012,27.936 C0.218000004,27.936 0,27.806 0,27.548 C0,27.304 0.337999992,27.13 1.01200001,27.03 C2.26200002,26.858 3.14000002,26.498 3.64600002,25.952 C4.15200003,25.406 4.58600003,24.336 4.95400001,22.74 L7.08000002,14.356 L8.97600003,6.79000001 C9.48200003,4.75 9.73600004,3.57000001 9.73600004,3.25399999 C9.73600004,1.78999998 8.72400003,0.983999989 6.70000001,0.839999989 C6.28,0.797999977 6.06800001,0.645999996 6.06800001,0.387999985 C6.06800001,0.216 6.13199999,0.108 6.25800003,0.0639999844 C6.38400003,0.0219999727 6.73600001,1.33226763e-15 7.31200001,1.33226763e-15 L17.66,0.238000008 L17.662,0.238000008 Z" id="路径" fill="#666666"></path>
        </g>
    </g>
</svg>