<!--?xml version="1.0" encoding="UTF-8"?-->
<svg width="32px" height="32px" viewBox="0 0 32 32" version="1.1" xmlns="http://www.w3.org/2000/svg" xmlns:xlink="http://www.w3.org/1999/xlink">
    <title>1749.职位类别</title>
    <g id="1749.职位类别" stroke="none" stroke-width="1" fill="none" fill-rule="evenodd">
        <path d="M27,5 C28.1045695,5 29,5.8954305 29,7 L29,28 C29,29.1045695 28.1045695,30 27,30 L8,30 C6.8954305,30 6,29.1045695 6,28 L6,7 C6,5.8954305 6.8954305,5 8,5 L27,5 Z M23,2 C24.1045695,2 25,2.8954305 25,4 L25,4.05832124 L7.10949354,4.05832124 C6.00492404,4.05832124 5.10949354,4.95375174 5.10949354,6.05832124 L5.10949354,27 L5,27 C3.8954305,27 3,26.1045695 3,25 L3,4 C3,2.8954305 3.8954305,2 5,2 L23,2 Z M18.8560434,12.8277072 L18.8398892,12.8416247 C18.6770992,12.836669 18.4218359,12.8339817 18.1265997,12.832893 L17.4170122,12.8328589 C16.9285157,12.8342581 16.4386741,12.8381243 16.1246757,12.8421974 L14.0090632,22.2479601 L17.2772402,24.4321826 C17.3986866,24.5137511 17.5581983,24.5137511 17.6796447,24.4321826 L20.9568848,22.2479601 L20.9713859,22.2479601 L18.8560434,12.8277072 Z M19.642726,13.2391749 L21.000388,18.8746504 C21.0239522,18.9707199 21.1544618,18.9779704 21.1907145,18.8873388 L22.0444645,16.6831773 C22.0807172,16.5889204 22.0698414,16.4837877 22.0136498,16.4004065 L19.874743,13.1376674 C19.7967998,13.0180337 19.608286,13.0996021 19.642726,13.2391749 Z M20.2463328,10 L14.7178026,10 C14.4187182,10 14.2483307,10.340775 14.4277813,10.5800425 C15.1133952,11.4940445 15.6431878,12.2003188 16.017159,12.6988653 L16.121,12.839 L16.1244057,12.8277072 L18.85,12.827 L18.9473787,12.6983289 L19.1903985,12.3743557 C19.5393499,11.9091634 19.9880018,11.311059 20.536354,10.5800425 C20.7158047,10.340775 20.5454172,10 20.2463328,10 Z" id="形状结合" fill="#666666"></path>
    </g>
</svg>