<!--?xml version="1.0" encoding="UTF-8"?-->
<svg width="32px" height="32px" viewBox="0 0 32 32" version="1.1" xmlns="http://www.w3.org/2000/svg" xmlns:xlink="http://www.w3.org/1999/xlink">
    <title>279.职位维护</title>
    <g id="279.职位维护" stroke="none" stroke-width="1" fill="none" fill-rule="evenodd">
        <g id="职位维护" transform="translate(5.000000, 4.000000)" fill="#000000" fill-rule="nonzero">
            <path d="M18.9084771,13.2993631 C18.9084771,14.3049355 19.747219,15.1202032 20.7817448,15.1202032 C21.052611,15.1202032 21.3099688,15.0643315 21.5424898,14.9637443 L21.7120466,14.880094 L23,17.0689507 C22.4365204,17.3829179 22.0568885,17.9732159 22.0568885,18.6496815 C22.0568885,19.2585007 22.3643903,19.7975239 22.8366674,20.1281225 L23,20.2304124 L21.7120466,22.4192691 C21.4378034,22.2664595 21.1203275,22.1791599 20.7817448,22.1791599 C19.8080734,22.1791599 19.007959,22.9012095 18.917197,23.8246267 L18.9086226,24 L16.358044,24 C16.358044,22.9942861 15.5194478,22.1791599 14.4849219,22.1791599 C14.2140557,22.1791599 13.9566048,22.2350316 13.7241956,22.3356188 L13.5547657,22.4192691 L12.2666667,20.2304124 C12.8301464,19.9164452 13.2096326,19.3261472 13.2096326,18.6496815 C13.2096326,18.0408624 12.9022487,17.5018392 12.4299953,17.1712405 L12.2666667,17.0689507 L13.5547657,14.880094 C13.8287179,15.0329036 14.1463393,15.1202032 14.4849219,15.1202032 C15.4585933,15.1202032 16.2588366,14.3980283 16.3496138,13.4747143 L16.3581897,13.2993631 L18.9084771,13.2993631 Z M14.2837377,3.03217719 L14.3281542,3.25690199 L14.3281542,6.01595205 C14.3281542,6.01595205 15.2151192,6.19884642 15.0594512,7.63978082 C14.904221,9.07985346 13.8765504,9.4794553 13.1610076,10.1838059 C12.4966329,10.8382839 12.5629138,11.8531556 11.6412891,12.4547713 L11.5806108,12.488 L11.6070887,12.5212296 C11.622784,12.5550765 11.6059668,12.5918668 11.5509827,12.6316003 L11.4830669,12.6723147 L11.4830669,14.0593719 C11.4830669,14.0593719 11.500191,14.0652428 11.5323914,14.0762544 L11.672173,14.1239824 C12.0340018,14.2473641 12.8648481,14.5295419 13.7223565,14.8128553 C13.3858876,14.8130041 13.0672159,14.7257748 12.7923579,14.5730883 L11.5,16.7601819 C12.0653427,17.0738963 12.4460837,17.6637188 12.4460837,18.3396396 C12.4460837,19.0155604 12.0653427,19.6053829 11.5,19.9190972 L11.8668159,20.5413333 L0,20.541818 C0,18.2775175 1.05460807,16.1341831 2.36863738,15.5630036 L2.54143836,15.4975371 C3.87884475,15.0650591 6.65591793,14.1375647 6.87594395,14.0640571 L6.88984012,14.0594141 L6.88740208,12.6729421 C6.79393,12.6197084 6.74170095,12.5859176 6.74170095,12.5859176 C5.57455428,12.0114223 5.7383077,10.888177 4.99098095,10.1838059 C4.24365422,9.4794348 3.24780913,9.08110504 3.09255806,7.64017066 C2.94557779,6.28010205 3.36044775,6.04028904 3.71524752,6.0178409 L3.77710911,6.01595205 L3.77710911,3.56615087 C3.94765073,1.58578615 6.16090244,0.279445994 8.05538412,0.0630050872 C9.90249381,-0.284815766 13.7285959,0.821604661 14.2837377,3.03217719 Z M17.6333334,17.1210191 C16.7864968,17.1210191 16.1000001,17.8054245 16.1000001,18.6496815 C16.1000001,19.4939385 16.7864968,20.178344 17.6333334,20.178344 C18.48017,20.178344 19.1666667,19.4939385 19.1666667,18.6496815 C19.1666667,17.8054245 18.48017,17.1210191 17.6333334,17.1210191 Z M10.7333334,13.7579617 L9.96633263,13.9060821 L8.43366743,13.9060821 L7.66666668,13.7579617 L8.64679742,14.9048364 L7.86442995,18.8786937 L9.20000003,19.8726115 L10.450719,18.8786937 L9.86010169,14.9048364 L10.7333334,13.7579617 Z" id="形状" fill="#666666"></path>
        </g>
    </g>
</svg>