<!--?xml version="1.0" encoding="UTF-8"?-->
<svg width="32px" height="32px" viewBox="0 0 32 32" version="1.1" xmlns="http://www.w3.org/2000/svg" xmlns:xlink="http://www.w3.org/1999/xlink">
    <title>1755.岗位信息维护</title>
    <g id="1755.岗位信息维护" stroke="none" stroke-width="1" fill="none" fill-rule="evenodd">
        <path d="M24.5167301,21.0000541 C24.5671541,21.0012177 24.8824408,21.0214293 25.1882775,21.3389544 C25.5256664,21.6834831 27.6251235,23.7040973 28,24.0206912 L28,28.9707947 C28,29.5230795 27.5522847,29.9707947 27,29.9707947 L12.3768741,29.9707947 C12.3768741,29.9707947 11.9513893,30.1067439 11.5877591,29.7920123 C11.3909489,29.6235442 9.93005087,28.3189965 8.41246577,26.9599542 L7.97837051,26.5711078 C6.82223249,25.535213 5.69993957,24.5274802 5.14550688,24.0262782 C4.83061064,23.6631263 5.12488868,23.0299384 5.12488868,23.0299384 C5.12488868,23.0299384 6.06957739,21.2532878 8.52501829,23.0299384 C9.79838902,24.0155248 11.817182,25.5609954 12.4352794,26.0338947 L12.5520759,26.1232425 C12.5670724,26.1347129 12.5797525,26.1444108 12.5899944,26.1522435 L12.6212082,26.176113 L19.0683667,26.176113 L21.0944364,25.9106651 C21.0944364,25.9106651 20.7325411,24.4523056 20.2770661,24.4206462 C19.011858,24.3293927 16.7235668,24.1529157 15.9888089,24.0206912 C15.1565831,23.8363218 14.6617462,23.1416775 14.6448767,22.352055 C14.6186354,21.1229256 16.0056783,21 16.0056783,21 Z M26,2 C26.5522847,2 27,2.44771525 27,3 L26.9991156,21.1254957 C26.7486633,20.8854816 26.5387093,20.6823402 26.4141966,20.5587851 L26.3592684,20.5038375 C26.3353224,20.4795151 26.3353224,20.4795151 26.3034245,20.4484954 C25.7816372,19.9466663 25.2030953,19.7640236 24.6992399,19.7695448 L15.9922457,19.7692028 C15.5445758,19.8034632 15.1259076,19.9009676 14.6829745,20.132703 C13.8247759,20.5816988 13.2587582,21.389773 13.2822685,22.4801757 C13.3037842,23.4773959 13.7751246,24.3682475 14.5466922,24.9207047 L14.665,24.999 L12.91548,25.0015295 C12.8353441,24.9407962 12.7476875,24.8743501 12.653358,24.8028301 L12.4795503,24.671034 C11.8566808,24.1986635 11.2338302,23.7256611 10.6320478,23.2677213 C10.0388458,22.8162875 9.5235185,22.4230842 9.10854529,22.1050477 C7.97779561,21.2944183 6.91987779,20.9641618 5.99817743,21.0390326 L6,3 C6,2.44771525 6.44771525,2 7,2 L26,2 Z M22,13 L11,13 C10.4477153,13 10,13.4477153 10,14 C10,14.5522847 10.4477153,15 11,15 L22,15 C22.5522847,15 23,14.5522847 23,14 C23,13.4477153 22.5522847,13 22,13 Z M22,7 L11,7 C10.4477153,7 10,7.44771525 10,8 C10,8.55228475 10.4477153,9 11,9 L22,9 C22.5522847,9 23,8.55228475 23,8 C23,7.44771525 22.5522847,7 22,7 Z" id="形状结合" fill="#666666"></path>
    </g>
</svg>