<!--?xml version="1.0" encoding="UTF-8"?-->
<svg width="32px" height="32px" viewBox="0 0 32 32" version="1.1" xmlns="http://www.w3.org/2000/svg" xmlns:xlink="http://www.w3.org/1999/xlink">
    <title>1894.标签管理</title>
    <g id="1894.标签管理" stroke="none" stroke-width="1" fill="none" fill-rule="evenodd">
        <g id="编组-41备份-2" transform="translate(4.000000, 2.000000)" fill="#333333">
            <path d="M2,0 L22,0 C22.5522847,-1.01453063e-16 23,0.44771525 23,1 L23,2 L23,2 L1,2 L1,1 C1,0.44771525 1.44771525,6.76353751e-17 2,0 Z M23,4 C23.5522847,4 24,4.44771525 24,5 L24,27.4709844 C24,28.0232692 23.5522847,28.4709844 23,28.4709844 C22.8620407,28.4709844 22.7255736,28.4424385 22.5991812,28.3871418 L12.4008188,23.9253582 C12.1452983,23.813568 11.8547017,23.813568 11.5991812,23.9253582 L1.40081883,28.3871418 C0.89483911,28.6085079 0.305208795,28.377783 0.0838426651,27.8718033 C0.0285459646,27.7454108 -4.73234877e-16,27.6089438 0,27.4709844 L0,5 C-6.76353751e-17,4.44771525 0.44771525,4 1,4 L23,4 Z M13.4256266,8 L10.5743734,8 C10.5743734,9.12767758 9.63664967,10.0419421 8.48003689,10.0419421 C8.10149723,10.0419421 7.74639254,9.94404189 7.44011067,9.77267679 L6,12.2273232 C6.62997722,12.579415 7.05424759,13.2413921 7.05424759,14 C7.05424759,14.7586079 6.62997722,15.420585 6,15.7726768 L7.44011067,18.2273232 C7.74639254,18.0559581 8.10149723,17.9580579 8.48003689,17.9580579 C9.63664967,17.9580579 10.5742107,18.8721637 10.5742107,20 L13.4257893,20 C13.4257893,18.8721637 14.3633503,17.9580579 15.5199631,17.9580579 C15.8985028,17.9580579 16.2534447,18.0559581 16.5600521,18.2273232 L18,15.7726768 C17.3700228,15.420585 16.9455897,14.7586079 16.9455897,14 C16.9455897,13.2413921 17.3700228,12.579415 18,12.2273232 L16.5600521,9.77267679 C16.2534447,9.94404189 15.8985028,10.0419421 15.5199631,10.0419421 C14.3633503,10.0419421 13.4256266,9.12767758 13.4256266,8 Z M11.9256266,12 C13.0301961,12 13.9256266,12.8954305 13.9256266,14 C13.9256266,15.1045695 13.0301961,16 11.9256266,16 C10.8210571,16 9.92562656,15.1045695 9.92562656,14 C9.92562656,12.8954305 10.8210571,12 11.9256266,12 Z" id="形状结合" fill="#666666"></path>
        </g>
    </g>
</svg>