<!--?xml version="1.0" encoding="UTF-8"?-->
<svg width="32px" height="32px" viewBox="0 0 32 32" version="1.1" xmlns="http://www.w3.org/2000/svg" xmlns:xlink="http://www.w3.org/1999/xlink">
    <title>1895.标签场景管理</title>
    <g id="1895.标签场景管理" stroke="none" stroke-width="1" fill="none" fill-rule="evenodd">
        <path d="M17.2666667,2 L17.2666667,12.3333333 L21.1276524,9.22222222 L24.9333333,12.3333333 L24.9333333,2 L26.46,2 C27.3105185,2 28,2.68948147 28,3.53999996 L28.0015996,19.1026501 C26.7309694,17.8051427 24.9595103,17 23,17 C19.1340068,17 16,20.1340068 16,24 C16,26.5471258 17.3604373,28.7765044 19.3943311,30.0011551 L5.53999996,30 C4.68948147,30 4,29.3105185 4,28.46 L4,3.53999996 C4,2.68948147 4.68948147,2 5.53999996,2 L17.2666667,2 Z M27.9062858,28.9928331 C27.7196312,29.4967914 27.2773766,29.8770741 26.736817,29.9751885 L26.6217331,29.9914532 C27.0883662,29.7087758 27.5193304,29.3731224 27.9062858,28.9928331 Z M24.1880221,19 C24.1880221,19.9397313 24.9694586,20.7016184 25.9333026,20.7016184 C26.2487523,20.7016184 26.5445373,20.6200349 26.8000434,20.4772307 L28,22.5227693 C27.475019,22.8161792 27.1213247,23.3678267 27.1213247,24 C27.1213247,24.6321733 27.475019,25.1838208 28,25.4772307 L26.8000434,27.5227693 C26.5445373,27.3799651 26.2487523,27.2983816 25.9333026,27.2983816 C24.9694586,27.2983816 24.1881578,28.0601365 24.1881578,29 L21.8118422,29 C21.8118422,28.0601365 21.0305414,27.2983816 20.0666974,27.2983816 C19.7512477,27.2983816 19.4553271,27.3799651 19.2000922,27.5227693 L18,25.4772307 C18.524981,25.1838208 18.8785397,24.6321733 18.8785397,24 C18.8785397,23.3678267 18.524981,22.8161792 18,22.5227693 L19.2000922,20.4772307 C19.4553271,20.6200349 19.7512477,20.7016184 20.0666974,20.7016184 C21.0305414,20.7016184 21.8119779,19.9397313 21.8119779,19 L24.1880221,19 Z M23,22 C21.8954305,22 21,22.8954305 21,24 C21,25.1045695 21.8954305,26 23,26 C24.1045695,26 25,25.1045695 25,24 C25,22.8954305 24.1045695,22 23,22 Z M13,23 L8,23 C7.44771525,23 7,23.4477153 7,24 C7,24.5522847 7.44771525,25 8,25 L13,25 C13.5522847,25 14,24.5522847 14,24 C14,23.4477153 13.5522847,23 13,23 Z M13,17 L8,17 C7.44771525,17 7,17.4477153 7,18 C7,18.5522847 7.44771525,19 8,19 L13,19 C13.5522847,19 14,18.5522847 14,18 C14,17.4477153 13.5522847,17 13,17 Z M13,6 L8,6 C7.44771525,6 7,6.44771525 7,7 L7,12 C7,12.5522847 7.44771525,13 8,13 L13,13 C13.5522847,13 14,12.5522847 14,12 L14,7 C14,6.44771525 13.5522847,6 13,6 Z" id="形状结合" fill="#666666"></path>
    </g>
</svg>