<!--?xml version="1.0" encoding="UTF-8"?-->
<svg width="32px" height="32px" viewBox="0 0 32 32" version="1.1" xmlns="http://www.w3.org/2000/svg" xmlns:xlink="http://www.w3.org/1999/xlink">
    <title>646.劳动合同@1x</title>
    <g id="646.劳动合同" stroke="none" stroke-width="1" fill="none" fill-rule="evenodd">
        <g id="编组" transform="translate(4.000000, 4.000000)" fill="#000000" fill-rule="nonzero">
            <path d="M18.690583,9.54260088 C19.9641255,9.63228697 21.0582959,10.5650224 21.3452915,11.8206278 C21.6143498,13.0224215 21.1300448,14.2600897 20.1255605,14.9417039 L19.838565,15.1210761 L19.8026905,15.4618833 C19.67713,16.4484304 19.4618833,19.7309416 22.1165918,20.8071749 L22.2600896,20.8609865 L23.6591928,20.8609865 C23.8565022,20.8609865 24,21.0224215 24,21.2017937 L24,24.412556 C24,24.7533632 23.8744394,24.7892377 23.7130044,24.7892377 L13.3273542,24.7892377 C13.1300448,24.7892377 12.986547,24.6278027 12.986547,24.4484305 L12.986547,21.2017937 C12.986547,21.0044843 13.147982,20.8609865 13.3273542,20.8609865 L14.8878924,20.8609865 L15.0134528,20.8071749 C17.7578475,19.6950672 17.4349776,16.2331838 17.3452915,15.5515694 L17.2914798,15.192825 L16.986547,15.0134528 C16.089686,14.4753363 15.5336322,13.5067264 15.5336322,12.4843049 C15.5336322,10.8520179 16.8609865,9.54260088 18.4753362,9.54260088 L18.690583,9.54260088 Z M17.0941704,0 C18.0448429,0 18.8161434,0.771300461 18.8161434,1.72197309 L18.8161434,1.72197309 L18.8161434,7.42600896 C18.6726458,7.40807174 18.5112108,7.40807174 18.3677129,7.40807174 C15.67713,7.40807174 13.5067264,9.41704034 13.5067264,12.0896861 C13.5067264,13.5964125 14.2242152,15.0134528 15.4080718,15.9282511 C15.4439461,16.7174887 15.3721972,18.2600897 14.2780269,18.8340806 L14.2780269,18.8340806 L12.7533632,18.8340806 C11.7130045,18.8340806 10.8699551,19.67713 10.8699551,20.7174888 L10.8699551,20.7174888 L10.8699551,24.4484305 L1.72197309,24.4484305 C0.771300461,24.4484305 0,23.67713 0,22.7264573 L0,22.7264573 L0,1.72197309 C0,0.771300461 0.771300461,0 1.72197309,0 L1.72197309,0 L17.0941704,0 Z M7.80269057,12.3766816 L3.91031391,12.3766816 C3.4618834,12.3946188 3.10313901,12.7533632 3.10313901,13.2017937 C3.10313901,13.6681614 3.4618834,14.0269058 3.91031391,14.0269058 L3.91031391,14.0269058 L7.80269057,14.0269058 C8.25112105,14.0269058 8.60986547,13.6502242 8.60986547,13.2017937 C8.60986547,12.735426 8.25112105,12.3766816 7.80269057,12.3766816 L7.80269057,12.3766816 Z M9.90134526,8.25112105 L3.91031391,8.25112105 C3.4618834,8.25112105 3.10313901,8.60986547 3.10313901,9.05829595 C3.10313901,9.50672644 3.4618834,9.86547082 3.91031391,9.86547082 L3.91031391,9.86547082 L9.90134526,9.86547082 C10.3497757,9.86547082 10.7085201,9.50672644 10.7085201,9.05829595 C10.7085201,8.60986547 10.3497757,8.25112105 9.90134526,8.25112105 L9.90134526,8.25112105 Z M13.1300448,4.10762332 L3.91031391,4.10762332 C3.4618834,4.10762332 3.10313901,4.46636771 3.10313901,4.91479819 C3.10313901,5.36322871 3.4618834,5.72197309 3.91031391,5.72197309 L3.91031391,5.72197309 L13.1300448,5.72197309 C13.5784753,5.72197309 13.9372197,5.36322871 13.9372197,4.91479819 C13.9372197,4.46636771 13.5784753,4.10762332 13.1300448,4.10762332 L13.1300448,4.10762332 Z" id="形状" fill="#346bf6"></path>
        </g>
    </g>
</svg>