<!--?xml version="1.0" encoding="UTF-8"?-->
<svg width="32px" height="32px" viewBox="0 0 32 32" version="1.1" xmlns="http://www.w3.org/2000/svg" xmlns:xlink="http://www.w3.org/1999/xlink">
    <title>1805.土地增值税</title>
    <g id="1805.土地增值税" stroke="none" stroke-width="1" fill="none" fill-rule="evenodd">
        <path d="M21.0980762,19.830127 L21.2320508,22.0621778 L27.4280922,22.1664096 C29.0683676,22.1940028 30.6600382,21.6092307 31.8923048,20.5262794 L26.7781555,28.6343934 C26.3985316,29.2362597 25.7277061,29.5910925 25.016554,29.5661916 L21.4509619,29.441343 L21.4019238,32.3564065 L17.6519238,25.8612159 L21.0980762,19.830127 Z M15,23 L15,30 L8,30 C6.66666667,29.6666667 6,28.8333333 6,27.5 C6,26.1666667 6.66666667,24.6666667 8,23 L15,23 Z M7.5,14 L11,20 L9,19 L5.81171195,24.3138134 C4.96767783,25.720537 4.67827002,27.3913501 5,29 L0.535242002,20.5169598 C0.203822474,19.8872627 0.231941004,19.1288944 0.609081839,18.5254691 L2.5,15.5 L-4.61852778e-13,14 L7.5,14 Z M27.7583302,11.3660254 L31.2583302,17.4282032 C31.6363218,18.7495704 31.2479673,19.7435874 30.0932667,20.410254 C28.9385662,21.0769207 27.3061948,21.2495704 25.1961524,20.9282032 L21.6961524,14.8660254 L27.7583302,11.3660254 Z M21.5,2 C19.8333333,2 18.6666667,2.33333333 18,3 C17.3333333,3.66666667 15.3333333,7 12,13 L5.5,9.5 L9.90626693,2.89059961 C10.2771985,2.33420227 10.9016611,2 11.5703675,2 L21.5,2 Z M22.5,3.5 C22.8333333,3.83333333 23.5,4.83333333 24.5,6.5 L27,5 L23.5,11.5 L16,11.5 L18.5,10 L16.5,7.5 C17.1666667,5.83333333 18,4.5 19,3.5 C20.5,2 22,3 22.5,3.5 Z" id="形状结合" fill="#666666"></path>
    </g>
</svg>