<!--?xml version="1.0" encoding="UTF-8"?-->
<svg width="32px" height="32px" viewBox="0 0 32 32" version="1.1" xmlns="http://www.w3.org/2000/svg" xmlns:xlink="http://www.w3.org/1999/xlink">
    <title>1865.信用证</title>
    <g id="1865.信用证" stroke="none" stroke-width="1" fill="none" fill-rule="evenodd">
        <path d="M28.7500917,15.8708453 C30.7612454,17.0319723 32,19.1778115 32,21.5 C32,22.8589938 31.5757466,24.1575908 30.8207109,25.2337719 L31.7083556,28.6810324 C31.7334175,28.7785449 31.677492,28.8910021 31.5597173,28.97992 C31.4419425,29.068838 31.2782891,29.1221592 31.1247607,29.1216365 L29.5882449,29.115327 L28.256463,29.9018449 C28.1232575,29.9805419 27.9551829,30.0175442 27.809864,30.0001654 C27.6645451,29.9827867 27.561731,29.9133887 27.5366717,29.8157648 L27.022394,27.8193514 C26.047091,28.0542134 25.0298625,28.0600666 24.0524697,27.836911 L23.5425933,29.8157648 C23.517534,29.9133887 23.4147199,29.9827867 23.269401,30.0001654 C23.124082,30.0175442 22.9560075,29.9805419 22.822802,29.9018449 L21.4910201,29.115327 L19.9545043,29.1216365 C19.8009759,29.1221592 19.6373225,29.068838 19.5195477,28.97992 C19.401773,28.8910021 19.3458475,28.7785449 19.3709094,28.6810324 L20.2371222,25.3148757 C19.4459517,24.2231405 19,22.8933131 19,21.5 C19,19.1778115 20.2387546,17.0319723 22.2499083,15.8708453 C24.2610619,14.7097182 26.7389381,14.7097182 28.7500917,15.8708453 Z M30,13 L30.0004871,15.4998166 C28.7469128,14.5580618 27.1886276,14 25.5,14 C21.3578644,14 18,17.3578644 18,21.5 C18,22.7645134 18.3129402,23.9559356 18.8655993,25.0010455 L3,25 C2.44771525,25 2,24.5522847 2,24 L2,13 L30,13 Z M25.5,18.5 C25.3090723,18.5 25.1347207,18.6130615 25.0503248,18.7916 L24.3951124,20.1759918 L22.9292814,20.3981007 C22.7403967,20.4266955 22.5834755,20.5646257 22.5245248,20.7538726 C22.4655741,20.9431194 22.514823,21.1508451 22.6515556,21.2896721 L23.7123279,22.3672923 L23.4621742,23.8891304 C23.4300884,24.0850371 23.5073699,24.2829612 23.6615766,24.3998159 C23.8157833,24.5166707 24.0202229,24.5322293 24.1890739,24.4399605 L25.5,23.7213728 L26.8109261,24.4399605 C26.9798131,24.5325277 27.1844643,24.5171212 27.3388412,24.400218 C27.4932181,24.2833149 27.5705507,24.0851871 27.5383272,23.8891304 L27.2876721,22.3672923 L28.3484444,21.2896721 C28.485177,21.1508451 28.5344259,20.9431194 28.4754752,20.7538726 C28.4165245,20.5646257 28.2596033,20.4266955 28.0707186,20.3981007 L26.6048876,20.1765144 L25.9496752,18.7916 C25.8652794,18.6130615 25.6909277,18.5 25.5,18.5 Z M29,5 C29.5522847,5 30,5.44771525 30,6 L30,11 L2,11 L2,6 C2,5.44771525 2.44771525,5 3,5 L29,5 Z" id="形状结合" fill="#666666" fill-rule="nonzero"></path>
    </g>
</svg>