<!--?xml version="1.0" encoding="UTF-8"?-->
<svg width="32px" height="32px" viewBox="0 0 32 32" version="1.1" xmlns="http://www.w3.org/2000/svg" xmlns:xlink="http://www.w3.org/1999/xlink">
    <title>1449-轻量卡片</title>
    <g id="1449-轻量卡片" stroke="none" stroke-width="1" fill="none" fill-rule="evenodd">
        <g id="编组" transform="translate(4.000000, 4.000000)" fill="#000000" fill-rule="nonzero">
            <path d="M21,4.09272615e-16 C22.6568544,4.09272615e-16 24,1.3431456 24,3 L24,3 L24,21 C24,22.6568544 22.6568544,24 21,24 L21,24 L3,24 C1.3431456,24 4.09272615e-16,22.6568544 4.09272615e-16,21 L4.09272615e-16,21 L4.09272615e-16,3 C4.09272615e-16,1.3431456 1.3431456,4.09272615e-16 3,4.09272615e-16 L3,4.09272615e-16 L21,4.09272615e-16 Z M22.8,7.19999999 L1.20000001,7.19999999 L1.20000001,21 C1.20000001,21.9356352 1.91386561,22.7045388 2.826648,22.7917596 L3.00000001,22.8 L21,22.8 C21.9941124,22.8 22.8,21.9941124 22.8,21 L22.8,21 L22.8,7.19999999 Z M17.971428,16.8 C18.3027996,16.8 18.571428,17.0686296 18.571428,17.4 C18.571428,17.694552 18.359178,17.9395296 18.0792792,17.9903328 L17.971428,18 L6.028572,18 C5.69720041,18 5.42857201,17.7313704 5.42857201,17.4 C5.42857201,17.105448 5.640822,16.8604704 5.92072081,16.8096672 L6.028572,16.8 L17.971428,16.8 Z M17.971428,12 C18.3027996,12 18.571428,12.2686296 18.571428,12.6 C18.571428,12.894552 18.359178,13.1395296 18.0792792,13.1903328 L17.971428,13.2 L6.028572,13.2 C5.69720041,13.2 5.42857201,12.9313704 5.42857201,12.6 C5.42857201,12.305448 5.640822,12.0604704 5.92072081,12.0096672 L6.028572,12 L17.971428,12 Z M21,1.20000001 L3.00000001,1.20000001 C2.0058876,1.20000001 1.20000001,2.0058876 1.20000001,3.00000001 L1.20000001,3.00000001 L1.20000001,6.00000001 L22.8,6.00000001 L22.8,3.00000001 C22.8,2.06436482 22.0861344,1.29546121 21.173352,1.20824041 L21,1.20000001 Z" id="形状" fill="#666666"></path>
        </g>
    </g>
</svg>