<!--?xml version="1.0" encoding="UTF-8"?-->
<svg width="32px" height="32px" viewBox="0 0 32 32" version="1.1" xmlns="http://www.w3.org/2000/svg" xmlns:xlink="http://www.w3.org/1999/xlink">
    <title>165.项目符号列表</title>
    <g id="165.项目符号列表" stroke="none" stroke-width="1" fill="none" fill-rule="evenodd">
        <g id="项目符号列表" transform="translate(4.000000, 7.000000)" fill="#000000" fill-rule="nonzero">
            <path d="M0.857142857,0 L2.57142857,0 C3.04481549,0 3.42857143,0.380557974 3.42857143,0.85 C3.42857143,1.31944203 3.04481549,1.7 2.57142857,1.7 L0.857142857,1.7 C0.383755941,1.7 0,1.31944203 0,0.85 C0,0.380557974 0.383755941,0 0.857142857,0 Z M6,0 L23.1428571,0 C23.616244,0 24,0.380557974 24,0.85 C24,1.31944203 23.616244,1.7 23.1428571,1.7 L6,1.7 C5.52661308,1.7 5.14285714,1.31944203 5.14285714,0.85 C5.14285714,0.380557974 5.52661308,0 6,0 Z M0.857142857,7.65 L2.57142857,7.65 C3.04481549,7.65 3.42857143,8.030558 3.42857143,8.5 C3.42857143,8.969442 3.04481549,9.35 2.57142857,9.35 L0.857142857,9.35 C0.383755941,9.35 0,8.969442 0,8.5 C0,8.030558 0.383755941,7.65 0.857142857,7.65 Z M6,7.65 L23.1428571,7.65 C23.616244,7.65 24,8.030558 24,8.5 C24,8.969442 23.616244,9.35 23.1428571,9.35 L6,9.35 C5.52661308,9.35 5.14285714,8.969442 5.14285714,8.5 C5.14285714,8.030558 5.52661308,7.65 6,7.65 Z M6,15.3 L23.1428571,15.3 C23.616244,15.3 24,15.680558 24,16.15 C24,16.619442 23.616244,17 23.1428571,17 L6,17 C5.52661308,17 5.14285714,16.619442 5.14285714,16.15 C5.14285714,15.680558 5.52661308,15.3 6,15.3 Z M0.857142857,15.3 L2.57142857,15.3 C3.04481549,15.3 3.42857143,15.680558 3.42857143,16.15 C3.42857143,16.619442 3.04481549,17 2.57142857,17 L0.857142857,17 C0.383755941,17 0,16.619442 0,16.15 C0,15.680558 0.383755941,15.3 0.857142857,15.3 Z" id="形状" fill="#666666"></path>
        </g>
    </g>
</svg>