<!--?xml version="1.0" encoding="UTF-8"?-->
<svg width="32px" height="32px" viewBox="0 0 32 32" version="1.1" xmlns="http://www.w3.org/2000/svg" xmlns:xlink="http://www.w3.org/1999/xlink">
    <title>1445-列表</title>
    <g id="1445-列表" stroke="none" stroke-width="1" fill="none" fill-rule="evenodd">
        <g id="编组" transform="translate(6.000000, 4.000000)" fill="#000000" fill-rule="nonzero">
            <path d="M19.0909091,-5.58099022e-16 C19.3921554,-5.58099022e-16 19.6363637,0.244208291 19.6363637,0.545454537 L19.6363637,0.545454537 L19.6363637,23.4545455 C19.6363637,23.7557917 19.3921554,24 19.0909091,24 L19.0909091,24 L0.545454537,24 C0.244208291,24 0,23.7557917 0,23.4545455 L0,23.4545455 L0,0.545454537 C0,0.244208291 0.244208291,-5.58099022e-16 0.545454537,-5.58099022e-16 L0.545454537,-5.58099022e-16 L19.0909091,-5.58099022e-16 Z M18.5465455,1.09090907 L1.09199999,1.09090907 L1.09199999,22.9090909 L18.5465455,22.9090909 L18.5465455,1.09090907 Z M4.90909091,16.0427808 C5.81281899,16.0427808 6.54545455,16.7754164 6.54545455,17.6791444 C6.54545455,18.5828724 5.81281899,19.3155081 4.90909091,19.3155081 C4.00535487,19.3155081 3.27272728,18.5828754 3.27272728,17.6791444 C3.27272728,16.7754134 4.00535487,16.0427808 4.90909091,16.0427808 Z M15.8181818,17.4545454 C16.1194281,17.4545454 16.3636364,17.6987537 16.3636364,18 C16.3636364,18.2677745 16.1706816,18.4904819 15.9162279,18.5366665 L15.8181818,18.5454546 L8.18181819,18.5454546 C7.88057194,18.5454546 7.63636365,18.3012463 7.63636365,18 C7.63636365,17.7322256 7.82931841,17.5095181 8.08377207,17.4633335 L8.18181819,17.4545454 L15.8181818,17.4545454 Z M4.90909091,17.1336899 C4.60784901,17.1336899 4.36363638,17.3779042 4.36363638,17.6791444 C4.36363638,17.9803846 4.60784901,18.224599 4.90909091,18.224599 C5.21032648,18.224599 5.45454545,17.98038 5.45454545,17.6791444 C5.45454545,17.3779088 5.21032648,17.1336899 4.90909091,17.1336899 Z M4.90909091,10.2032086 C5.8128263,10.2032086 6.54545455,10.9358242 6.54545455,11.8395722 C6.54545455,12.7433203 5.8128263,13.4759359 4.90909091,13.4759359 C4.00534757,13.4759359 3.27272728,12.7433231 3.27272728,11.8395722 C3.27272728,10.9358212 4.00534757,10.2032086 4.90909091,10.2032086 Z M15.8181818,11.4545455 C16.1194281,11.4545455 16.3636364,11.6987538 16.3636364,12 C16.3636364,12.2677744 16.1706816,12.4904819 15.9162279,12.5366665 L15.8181818,12.5454545 L8.18181819,12.5454545 C7.88057194,12.5454545 7.63636365,12.3012462 7.63636365,12 C7.63636365,11.7322256 7.82931841,11.5095181 8.08377207,11.4633335 L8.18181819,11.4545455 L15.8181818,11.4545455 Z M4.90909091,11.2941177 C4.60783747,11.2941177 4.36363638,11.5383163 4.36363638,11.8395722 C4.36363638,12.1408282 4.60783747,12.3850268 4.90909091,12.3850268 C5.21033805,12.3850268 5.45454545,12.1408235 5.45454545,11.8395722 C5.45454545,11.5383208 5.21033805,11.2941177 4.90909091,11.2941177 Z M4.90909091,4.36363635 C5.81282193,4.36363635 6.54545455,5.09626397 6.54545455,5.99999999 C6.54545455,6.90374802 5.8128263,7.63636362 4.90909091,7.63636362 C4.00534757,7.63636362 3.27272728,6.90375098 3.27272728,5.99999999 C3.27272728,5.09626101 4.00535194,4.36363635 4.90909091,4.36363635 Z M4.90909091,5.45454545 C4.60784443,5.45454545 4.36363638,5.69875353 4.36363638,5.99999999 C4.36363638,6.30125595 4.60783747,6.54545455 4.90909091,6.54545455 C5.21033805,6.54545455 5.45454545,6.30125139 5.45454545,5.99999999 C5.45454545,5.69875811 5.21033116,5.45454545 4.90909091,5.45454545 Z M15.8181818,5.45454545 C16.1194281,5.45454545 16.3636364,5.69875374 16.3636364,5.99999999 C16.3636364,6.26777443 16.1706816,6.4904819 15.9162279,6.53666652 L15.8181818,6.54545455 L8.18181819,6.54545455 C7.88057194,6.54545455 7.63636365,6.30124626 7.63636365,5.99999999 C7.63636365,5.73222555 7.82931841,5.5095181 8.08377207,5.46333348 L8.18181819,5.45454545 L15.8181818,5.45454545 Z" id="形状" fill="#346bf6"></path>
        </g>
    </g>
</svg>