<!--?xml version="1.0" encoding="UTF-8"?-->
<svg width="32px" height="32px" viewBox="0 0 32 32" version="1.1" xmlns="http://www.w3.org/2000/svg" xmlns:xlink="http://www.w3.org/1999/xlink">
    <title>1367-加载</title>
    <g id="1367-加载" stroke="none" stroke-width="1" fill="none" fill-rule="evenodd">
        <g id="编组" transform="translate(5.000000, 4.000000)" fill="#000000" fill-rule="nonzero">
            <path d="M11.4745341,18.8571429 C11.7704008,18.8571429 12.0102484,19.0969903 12.0102484,19.3928571 L12.0102484,23.4642857 C12.0102484,23.7601526 11.7704008,24 11.4745341,24 L10.8316769,24 C10.5358101,24 10.2959627,23.7601526 10.2959627,23.4642857 L10.2959627,19.3928571 C10.2959627,19.0969903 10.5358101,18.8571429 10.8316769,18.8571429 L11.4745341,18.8571429 Z M15.6342635,16.7057967 L15.6456338,16.721443 L15.6456338,16.721443 L18.4264277,20.6970061 C18.5916966,20.9332829 18.5403041,21.2579848 18.3101473,21.4316752 L17.6081842,21.9614193 C17.3720202,22.1396432 17.0360925,22.0926733 16.8578687,21.8565093 C16.8539848,21.8513626 16.850194,21.8461463 16.8464984,21.8408628 L14.0657044,17.8652998 C13.9004355,17.629023 13.951828,17.3043211 14.1819849,17.1306306 L14.8839478,16.6008866 C15.1201119,16.4226628 15.4560396,16.4696326 15.6342635,16.7057967 Z M7.4066167,16.5895162 C7.41190012,16.5932119 7.41711644,16.5970026 7.42226308,16.6008866 L8.12422605,17.1306306 C8.35438295,17.3043211 8.40577545,17.629023 8.24050646,17.8652998 L5.45971256,21.8408628 C5.29013004,22.0833065 4.9561168,22.1423722 4.71367308,21.9727897 C4.70838962,21.969094 4.70317329,21.9653033 4.69802667,21.9614193 L3.99606367,21.4316752 C3.76590683,21.2579848 3.71451432,20.9332829 3.87978326,20.6970061 L6.66057722,16.721443 C6.83015968,16.4789994 7.16417298,16.4199337 7.4066167,16.5895162 Z M17.4520034,13.0745231 C17.4558075,13.0757131 17.4595983,13.0769455 17.4633748,13.0782201 L21.9416722,14.5896215 C22.2175898,14.6827423 22.3685869,14.9792164 22.2816476,15.2571436 L22.0065933,16.136436 C21.918263,16.4188097 21.617748,16.5761131 21.3353742,16.4877828 C21.3315701,16.4865928 21.3277794,16.4853604 21.3240028,16.4840859 L16.8457054,14.9726844 C16.5697878,14.8795636 16.4187907,14.5830896 16.50573,14.3051623 L16.7807843,13.4258699 C16.8691146,13.1434962 17.1696296,12.9861928 17.4520034,13.0745231 Z M5.5217296,13.4144985 C5.52300421,13.4182751 5.5242366,13.4220658 5.52542659,13.4258699 L5.80048091,14.3051623 C5.88742021,14.5830896 5.73642312,14.8795636 5.46050552,14.9726844 L0.982208157,16.4840859 C0.701876171,16.5786964 0.397925195,16.4281394 0.303314644,16.1478075 L0.299617656,16.136436 L0.299617656,16.136436 L0.0245633386,15.2571436 C-0.0623759894,14.9792164 0.0886211215,14.6827423 0.364538726,14.5896215 L4.84283609,13.0782201 C5.12316807,12.9836095 5.42711905,13.1341665 5.5217296,13.4144985 Z M22.0028963,7.85219254 L22.0065933,7.86356401 L22.0065933,7.86356401 L22.2816476,8.74285637 C22.3685869,9.02078367 22.2175898,9.31725773 21.9416722,9.4103785 L17.4633748,10.9217799 C17.1830428,11.0163905 16.8790918,10.8658335 16.7844814,10.5855015 C16.7832067,10.5817249 16.7819743,10.5779342 16.7807843,10.5741301 L16.50573,9.69483771 C16.4187907,9.41691042 16.5697878,9.12043636 16.8457054,9.02731559 L21.3240028,7.51591414 C21.6043348,7.42130356 21.9082857,7.57186055 22.0028963,7.85219254 Z M0.970836683,7.51221721 C0.974640806,7.51340717 0.978431544,7.51463956 0.982208157,7.51591414 L5.46050552,9.02731559 C5.73642312,9.12043636 5.88742021,9.41691042 5.80048091,9.69483771 L5.52542659,10.5741301 C5.43709633,10.8565038 5.13658133,11.0138072 4.85420756,10.9254769 L4.84283609,10.9217799 L4.84283609,10.9217799 L0.364538726,9.4103785 C0.0886211215,9.31725773 -0.0623759894,9.02078367 0.0245633386,8.74285637 L0.299617656,7.86356401 C0.387947915,7.5811903 0.688462913,7.42388692 0.970836683,7.51221721 Z M17.5925379,2.0272103 C17.5978213,2.03090595 17.6030376,2.03469669 17.6081842,2.03858065 L18.3101473,2.56832475 C18.5403041,2.74201517 18.5916966,3.06671709 18.4264277,3.30299388 L15.6456338,7.27855696 C15.4760512,7.5210006 15.142038,7.5800663 14.8995943,7.41048379 C14.8943108,7.40678811 14.8890945,7.4029974 14.8839478,7.39911344 L14.1819849,6.86936939 C13.951828,6.69567895 13.9004355,6.370977 14.0657044,6.13470021 L16.8464984,2.15913715 C17.0160809,1.91669346 17.3500942,1.85762779 17.5925379,2.0272103 Z M5.44834224,2.14349074 C5.4522262,2.14863736 5.45601692,2.1538537 5.45971256,2.15913715 L8.24050646,6.13470021 C8.40577545,6.370977 8.35438295,6.69567895 8.12422605,6.86936939 L7.42226308,7.39911344 C7.18609905,7.57733727 6.85017129,7.53036738 6.67194746,7.29420335 C6.66806357,7.2890567 6.66427278,7.28384039 6.66057722,7.27855696 L3.87978326,3.30299388 C3.71451432,3.06671709 3.76590683,2.74201517 3.99606367,2.56832475 L4.69802667,2.03858065 C4.9341907,1.86035685 5.27011843,1.90732668 5.44834224,2.14349074 Z M11.4745341,0 C11.7704008,0 12.0102484,0.239847442 12.0102484,0.535714286 L12.0102484,4.60714286 C12.0102484,4.9030097 11.7704008,5.14285714 11.4745341,5.14285714 L10.8316769,5.14285714 C10.5358101,5.14285714 10.2959627,4.9030097 10.2959627,4.60714286 L10.2959627,0.535714286 C10.2959627,0.239847442 10.5358101,0 10.8316769,0 L11.4745341,0 Z" id="形状" fill="#666666"></path>
        </g>
    </g>
</svg>