<!--?xml version="1.0" encoding="UTF-8"?-->
<svg width="32px" height="32px" viewBox="0 0 32 32" version="1.1" xmlns="http://www.w3.org/2000/svg" xmlns:xlink="http://www.w3.org/1999/xlink">
    <title>1196-锁定</title>
    <g id="1196-锁定" stroke="none" stroke-width="1" fill="none" fill-rule="evenodd">
        <g id="编组" transform="translate(7.000000, 4.000000)" fill="#000000" fill-rule="nonzero">
            <path d="M9.23305734,0 C12.0112782,0 14.7673143,2.50934125 14.7610896,5.47257175 L14.7618379,5.81715958 C14.7618929,5.84444071 14.7619497,5.87333739 14.7620077,5.90384959 L14.7627309,6.34754611 C14.7627909,6.39098354 14.7628502,6.43603667 14.7629082,6.48270563 L14.7636289,7.30392756 C14.7636629,7.36675522 14.7636933,7.43119893 14.7637195,7.49725865 L14.7637463,8.60936076 C14.7637195,8.69158172 14.7636863,8.7754189 14.763646,8.86087237 L14.7627963,9.96389742 C14.7624845,10.2590502 14.7620922,10.568751 14.7616068,10.8930009 L14.7610896,11.0411768 L14.3981538,11.0769231 L16.6238814,11.0769231 C17.6387914,11.0769231 18.4615385,11.8853194 18.4615385,12.9284849 L18.4615385,22.1484381 C18.4615385,23.1710275 17.6203119,24 16.6238814,24 L1.83765705,24 C0.822747087,24 0,23.1916037 0,22.1484381 L0,12.9284849 C0,11.9058955 0.841226585,11.0769231 1.83765705,11.0769231 L3.69138462,11.0769231 L3.69230769,5.47257175 C3.69230769,2.61329626 6.17298583,0 9.23305734,0 Z M9.427542,1.85257397 L9.23305734,1.84615385 C9.28662885,1.84615385 9.34035361,1.84785751 9.39417296,1.8512238 L9.41353846,1.85261538 L9.23305734,1.84615385 L9.23305734,1.84615385 C7.25995413,1.84615385 5.53846154,3.7448111 5.53846154,5.93892728 L5.53753846,11.0769231 L12.9342719,11.077523 C12.9341632,11.0492039 12.9340633,11.0170578 12.9339715,10.9813718 L12.9333455,10.5581861 C12.9332992,10.5017972 12.9332601,10.4425979 12.9332277,10.3809005 L12.9331848,9.30711195 C12.9332072,9.22824 12.9332338,9.14843142 12.9332641,9.06799828 L12.9341009,7.62021823 C12.9341575,7.54353435 12.9342148,7.46809967 12.9342723,7.39422664 L12.9349373,6.6026927 C12.934988,6.54630894 12.9350368,6.49273598 12.9350833,6.44228594 L12.9355563,5.93892728 L12.9355563,5.93892728 C12.9355563,4.92188157 12.5358377,3.98380853 11.9337535,3.26304821 L11.8259923,3.13874989 L11.8259923,3.13874989 L11.7544615,3.06276923 L11.8098462,3.12092308 L11.685191,2.98160221 C11.0616486,2.31967119 10.267096,1.90800608 9.427542,1.85257397 Z" id="形状" fill="#346bf6"></path>
        </g>
    </g>
</svg>