<!--?xml version="1.0" encoding="UTF-8"?-->
<svg width="32px" height="32px" viewBox="0 0 32 32" version="1.1" xmlns="http://www.w3.org/2000/svg" xmlns:xlink="http://www.w3.org/1999/xlink">
    <title>1856.物流配送</title>
    <g id="1856.物流配送" stroke="none" stroke-width="1" fill="none" fill-rule="evenodd">
        <path d="M24.1736124,22.2881778 C25.6647812,22.2881778 26.8736124,23.497009 26.8736124,24.9881778 C26.8736124,26.4793466 25.6647812,27.6881778 24.1736124,27.6881778 C22.6824436,27.6881778 21.4736124,26.4793466 21.4736124,24.9881778 C21.4736124,23.497009 22.6824436,22.2881778 24.1736124,22.2881778 Z M8.87361243,22.2881778 C10.3647812,22.2881778 11.5736124,23.497009 11.5736124,24.9881778 C11.5736124,26.4793466 10.3647812,27.6881778 8.87361243,27.6881778 C7.3824436,27.6881778 6.17361243,26.4793466 6.17361243,24.9881778 C6.17361243,23.497009 7.3824436,22.2881778 8.87361243,22.2881778 Z M22.6648567,7.7 L30.7,17.1451781 L30.7,23.8993297 L27.8134992,23.8993297 C27.8134992,21.6496649 25.5471398,20.6594638 24.1736124,20.6594638 C22.1405646,20.6594638 20.6060408,22.4355925 20.6060408,23.8993297 L18.9997593,23.9 L18.9830788,23.89984 L12.5288434,23.8992174 C12.2700065,22.0675091 10.7140799,20.6594638 8.83333333,20.6594638 C6.95258677,20.6594638 5.39666018,22.0675091 5.13782327,23.8992174 L1.80002488,23.899305 C1.30298225,23.8956227 0.90303471,23.4897049 0.906717056,22.9926623 L0.92671507,20.2933325 C0.93037814,19.7988917 1.33223594,19.4 1.82669037,19.4 L18.1,19.4 L18.1,8.60067026 C18.1001322,8.10366559 18.5029953,7.70074324 19,7.70053811 L22.6648567,7.7 Z M16.1,5 C16.5970563,5 17,5.40294371 17,5.89999998 L17,17.1 C17,17.5970563 16.5970563,18 16.1,18 L1.89999998,18 C1.40294371,18 1,17.5970563 1,17.1 L1,5.89999998 C1,5.40294371 1.40294371,5 1.89999998,5 Z M23.1661181,10.4 L21.7,10.4 L21.7,14.9 C21.7,15.8941125 22.5058875,16.7 23.5,16.7 L26.863924,16.7 C27.3609803,16.7 27.763924,16.2970563 27.763924,15.8 C27.763924,15.5759323 27.6803418,15.3599224 27.5295224,15.1942123 L23.1661181,10.4 Z" id="形状结合" fill="#666666"></path>
    </g>
</svg>