<!--?xml version="1.0" encoding="UTF-8"?-->
<svg width="32px" height="32px" viewBox="0 0 32 32" version="1.1" xmlns="http://www.w3.org/2000/svg" xmlns:xlink="http://www.w3.org/1999/xlink">
    <title>1960.干部任期管理</title>
    <g id="1960.干部任期管理" stroke="none" stroke-width="1" fill="none" fill-rule="evenodd">
        <path d="M20.0517065,6.39606252 L20.0517065,10.1201404 L20.1516396,10.1547541 C20.4220407,10.2698045 21.1372667,10.7271771 20.9768111,12.3119327 C20.8487442,13.579605 20.2512595,14.2499451 19.6000256,14.826619 L19.0754543,15.2775269 C18.9020299,15.4275362 18.7326657,15.5804358 18.5752439,15.7457766 C17.6701477,16.6971236 17.8370126,18.212635 16.3605501,18.9880706 L16.2496165,19.0624437 L16.25,20.4217447 L19.1,21.443 L19.1,28 C19.1,28.5128358 19.4860402,28.9355072 19.9833789,28.9932723 L20.1,29 L2,29 C2,25.8733625 3.425,22.9210224 5.15381743,22.3248762 L10.55,20.4218005 L10.549,19.05 L10.4546999,18.9880706 C9.05594592,18.2534474 9.16824689,16.8540542 8.38011266,15.9004012 L8.24000609,15.7457766 C7.29462366,14.795039 6.03486081,14.2573862 5.8384653,12.3124589 C5.64159523,10.3686947 6.24155349,10.1201404 6.70443527,10.1201404 L6.70443527,6.81347681 C6.92017364,4.14044363 9.71997887,2.37718731 12.1165339,2.08504226 C14.5310502,1.59991551 19.6187083,3.2107175 20.0517065,6.39606252 Z M14.9827978,20.083354 L14.055051,20.2780422 L12.2011738,20.2780422 L11.273427,20.083354 L12.458971,21.5907969 L11.512637,26.8140028 L13.1281124,28.1204003 L14.6409538,26.8140028 L13.9265565,21.5907969 L14.9827978,20.083354 Z M22,17 L22,18.9951172 L28,18.9951172 L28,17 L29.3131843,17.0004207 C29.6925025,17.0004207 30,17.2946326 30,17.6555534 L30,27.3448673 C30,27.7066868 29.6915598,28 29.3131843,28 L20.6868157,28 C20.3074982,28 20,27.7057875 20,27.3448673 L20,17.6555534 C20,17.2937333 20.3084409,17.0004207 20.6868157,17.0004207 L22,17 Z M27.5,24 L22.5,24 C22.2238576,24 22,24.2238576 22,24.5 C22,24.7761424 22.2238576,25 22.5,25 L27.5,25 C27.7761424,25 28,24.7761424 28,24.5 C28,24.2238576 27.7761424,24 27.5,24 Z M27.5,22 L22.5,22 C22.2238576,22 22,22.2238576 22,22.5 C22,22.7761424 22.2238576,23 22.5,23 L27.5,23 C27.7761424,23 28,22.7761424 28,22.5 C28,22.2238576 27.7761424,22 27.5,22 Z M27,16 L27,18 L23,18 L23,16 L27,16 Z" id="形状结合" fill="#666666"></path>
    </g>
</svg>