<!--?xml version="1.0" encoding="UTF-8"?-->
<svg width="32px" height="32px" viewBox="0 0 32 32" version="1.1" xmlns="http://www.w3.org/2000/svg" xmlns:xlink="http://www.w3.org/1999/xlink">
    <title>1721.制造供应商</title>
    <g id="1721.制造供应商" stroke="none" stroke-width="1" fill="none" fill-rule="evenodd">
        <path d="M22.2094564,18.5575404 C23.3682398,17.6363754 25.0493422,17.6363754 26.2081256,18.5575404 C26.6412047,19.0511785 26.8146203,19.7069647 26.6789707,20.338082 C26.6508605,20.586686 26.5876127,20.8285709 26.5876127,21.0771748 C26.6358802,21.0642738 26.6869235,21.0642738 26.735191,21.0771748 C26.8705528,21.0978524 26.965876,21.2154504 26.9530447,21.3459358 L26.8195214,22.6427076 C26.8141573,22.7069461 26.7822041,22.7664824 26.7307503,22.8081089 C26.6792966,22.8497353 26.6125967,22.8700101 26.5454475,22.8644354 C26.4845907,22.8587726 26.4287693,22.8296612 26.3908416,22.7838071 C26.3557039,23.0660061 26.2924561,23.3482052 26.2924561,23.6236852 C26.2272936,23.9064072 26.0412305,24.1500987 25.7794458,24.2955877 L25.6529501,25.2093751 C26.9503691,25.3562412 28.2122255,25.7129535 29.3845728,26.264262 C29.7977087,26.5039937 30.0342404,26.9458918 29.9959687,27.4064963 C29.9538035,27.8432329 29.9046107,28.2934076 29.8554179,28.7503013 C29.8050933,29.1599899 29.5035082,29.5012425 29.0894162,29.6170555 C25.8552207,30.1276482 22.5553338,30.1276482 19.3211383,29.6170555 C18.9081017,29.4996956 18.6072326,29.1592531 18.5551366,28.7503013 C18.5129714,28.3135646 18.4637786,27.8566709 18.4145858,27.4064963 C18.3983894,26.9612534 18.6313243,26.5414343 19.0259817,26.3045762 C20.2004714,25.7511884 21.4646085,25.3922312 22.7646319,25.2429702 L22.6381362,24.3359019 C22.3763516,24.1904129 22.1902885,23.9467213 22.125126,23.6639994 C22.0899883,23.3885194 22.0267404,23.1063203 22.0267404,22.8241213 C21.9865833,22.8673733 21.9319102,22.8958857 21.8721346,22.9047496 C21.7335042,22.9126796 21.6128266,22.8150506 21.5980606,22.6830217 L21.4645374,21.3862499 C21.4479373,21.2547432 21.5450545,21.134932 21.6823911,21.1174889 C21.7306072,21.1042349 21.7817532,21.1042349 21.8299694,21.1174889 C21.7948317,20.868885 21.7386114,20.6270001 21.7386114,20.3783962 C21.5892238,19.7344437 21.7634306,19.0607498 22.2094564,18.5575404 Z M5.79138021,18.5575404 C6.95079966,17.6363754 8.63282476,17.6363754 9.79224421,18.5575404 C10.2255609,19.0511785 10.3990717,19.7069647 10.2633477,20.338082 C10.2352221,20.586686 10.1719396,20.8285709 10.1719396,21.0771748 C10.2200655,21.0631519 10.2714729,21.0631519 10.3195989,21.0771748 C10.455035,21.0978524 10.5504105,21.2154504 10.5375721,21.3459358 L10.4039756,22.6427076 C10.3986085,22.7069461 10.3666377,22.7664824 10.3151558,22.8081089 C10.2636738,22.8497353 10.1969373,22.8700101 10.1297512,22.8644354 C10.070872,22.8585497 10.0172909,22.8292922 9.98209188,22.7838071 L9.87662095,23.6236852 C9.81722898,23.9069645 9.63266517,24.1519152 9.37036048,24.2955877 C9.32817211,24.5979438 9.28598374,24.9003 9.23676398,25.2093751 C10.5371352,25.3562648 11.8019917,25.7129573 12.9774663,26.264262 C13.3868974,26.5068229 13.6202475,26.9476042 13.5821663,27.4064963 C13.5399779,27.8432329 13.4977896,28.2934076 13.4485698,28.7503013 C13.3982176,29.1599899 13.096467,29.5012425 12.6821477,29.6170555 C9.44617696,30.1276482 6.14447888,30.1276482 2.90850811,29.6170555 C2.49524478,29.4996956 2.19421061,29.1592531 2.14208599,28.7503013 C2.09286624,28.3202837 2.05067786,27.8566709 2.00145811,27.4064963 C1.9793174,26.9616488 2.21063221,26.5401333 2.60615809,26.3045762 C3.78163875,25.7520335 5.04631617,25.3931199 6.34686047,25.2429702 L6.22029535,24.3359019 C5.95836698,24.1904129 5.77220173,23.9467213 5.70700346,23.6639994 C5.67887789,23.3885194 5.60856395,23.1063203 5.60856395,22.8241213 C5.56838474,22.8673733 5.51368169,22.8958858 5.45387323,22.9047496 C5.31516672,22.9126796 5.19442288,22.8150506 5.17964881,22.6830217 L5.04605231,21.3862499 C5.02944305,21.2547432 5.12661358,21.134932 5.26402555,21.1174889 C5.31231953,21.104588 5.36339088,21.104588 5.41168486,21.1174889 C5.3765279,20.868885 5.32027673,20.6270001 5.32027673,20.3783962 C5.1708071,19.7344437 5.34510951,19.0607498 5.79138021,18.5575404 Z M15.9997222,16 C16.3991333,16 16.72292,16.3033521 16.72292,16.6775559 L16.72292,20.322807 L19.984542,22.1454325 C20.3329314,22.3518763 20.4474214,22.7779543 20.2448932,23.1143376 C20.1189328,23.330035 19.8781364,23.464876 19.6157112,23.4666667 C19.4932929,23.463097 19.3738476,23.4304575 19.2685762,23.3718088 L15.9997222,21.5491833 L12.7453321,23.3718088 C12.6358162,23.4327052 12.5110783,23.4654276 12.3837332,23.4666667 C12.121308,23.464876 11.8805116,23.330035 11.7545511,23.1143376 C11.5527843,22.7799978 11.6674889,22.356106 12.0149023,22.1522081 L15.2765244,20.322807 L15.2765244,16.6775559 C15.2765244,16.3033521 15.6003111,16 15.9997222,16 Z M20.3919623,13.7452432 C20.8136908,13.6399564 21.1242718,13.2987331 21.1739752,12.8860759 C21.2162462,12.4363555 21.2655623,11.9799229 21.3078333,11.543627 C21.337206,11.0976184 21.1072093,10.6722518 20.7089945,10.4361066 C19.5315678,9.88450492 18.2640787,9.52812842 16.9609686,9.38228427 C17.0126331,9.08247069 17.0549041,8.78041969 17.0877815,8.47613127 C17.3526562,8.33337759 17.5400816,8.088763 17.6020783,7.80490683 L17.7077557,6.96587626 C17.7475029,7.00859803 17.8030284,7.03504884 17.8627493,7.03971096 C17.9281994,7.0452867 17.9932781,7.02574223 18.0435413,6.98541544 C18.0938046,6.94508866 18.1250942,6.88731566 18.1304654,6.82491913 L18.285459,5.50931922 C18.2954382,5.44587386 18.2777503,5.38130013 18.2365023,5.330592 C18.1952544,5.27988387 18.1340349,5.24745286 18.067059,5.24082942 C18.0187219,5.22758878 17.9674476,5.22758878 17.9191106,5.24082942 C17.9543364,4.99247639 17.982517,4.75083559 18.0106977,4.50248255 C18.1581381,3.86130982 17.9836284,3.1912936 17.5386719,2.69017655 C16.3769825,1.76994115 14.6916643,1.76994115 13.529975,2.69017655 C13.0828305,3.19287808 12.9081869,3.86589214 13.0579491,4.50919479 C13.0579491,4.75754782 13.1213556,4.99918862 13.1495362,5.24754169 C13.1011477,5.23465375 13.0499764,5.23465375 13.0015878,5.24754169 C12.8630511,5.26499664 12.763606,5.38342889 12.7761427,5.51603146 L12.9100008,6.81149463 C12.9282204,6.94070203 13.0481992,7.03449423 13.1847621,7.02628646 C13.2434333,7.01824772 13.2978029,6.99234754 13.3397556,6.95245176 C13.3397556,7.2276538 13.403162,7.50956806 13.4383879,7.79148233 C13.5053008,8.0732344 13.6914114,8.3161331 13.9526846,8.46270677 C13.9949556,8.76475777 14.0372266,9.06009654 14.0794976,9.36885977 C12.7784579,9.51794705 11.5134628,9.87656184 10.3385168,10.4293944 C9.93837263,10.6620046 9.70334495,11.0841096 9.72558774,11.5302025 C9.76785871,11.9866351 9.81717483,12.4430677 9.86649099,12.8726514 C9.90064707,13.2810095 10.1943997,13.627517 10.6062329,13.7452432 C13.845535,14.2626967 17.1526602,14.2626967 20.3919623,13.7452432 Z" id="形状结合" fill="#666666" fill-rule="nonzero"></path>
    </g>
</svg>