<!--?xml version="1.0" encoding="UTF-8"?-->
<svg width="32px" height="32px" viewBox="0 0 32 32" version="1.1" xmlns="http://www.w3.org/2000/svg" xmlns:xlink="http://www.w3.org/1999/xlink">
    <title>地图类</title>
    <g id="地图类" stroke="none" stroke-width="1" fill="none" fill-rule="evenodd">
        <g id="视觉修正模版" transform="translate(-2.000000, -0.500000)"></g>
        <path d="M16,1 C24.2842712,1 31,7.71572875 31,16 C31,24.2842712 24.2842712,31 16,31 C7.71572875,31 1,24.2842712 1,16 C1,7.71572875 7.71572875,1 16,1 Z M15.7289132,20.8643572 C14.5456423,20.8643572 13.4250795,20.9297392 12.3509255,21.0604916 L12.3665208,21.1696438 C12.3974644,21.3809319 12.4301438,21.5893238 12.4644716,21.7946461 L12.5723132,22.4012311 C12.7036945,23.097766 12.8542005,23.7545768 13.0200905,24.3642356 L13.1659622,24.8750795 C13.9381961,27.4529879 14.9911806,29.0645161 16,29.0645161 C17.041362,29.0645161 18.1297844,27.3473414 18.9078828,24.6226094 L19.0500524,24.100088 C19.1884109,23.5661059 19.3150743,22.998261 19.4276868,22.4012311 L19.5355284,21.7946461 C19.5698562,21.5893238 19.6025356,21.3809319 19.6334792,21.1696438 L19.6403346,21.1224558 C18.3904582,20.9504327 17.0868251,20.8643572 15.7289132,20.8643572 Z M10.3649682,21.3869054 C8.51966481,21.7722446 6.79206545,22.3706818 5.08622088,23.182148 C6.82669961,25.8226242 9.49818456,27.7927207 12.63288,28.6264996 C11.7361016,27.1754276 11.0365661,25.1370924 10.5847097,22.7288662 L10.4705994,22.0809614 C10.4525625,21.9715792 10.4350192,21.8615104 10.4179738,21.7507741 Z M21.6222264,21.4771971 L21.5820262,21.7507741 C21.5649808,21.8615104 21.5474375,21.9715792 21.5294006,22.0809614 L21.4152903,22.7288662 C20.9634339,25.1370924 20.2638984,27.1754276 19.3667621,28.6260485 C22.4385785,27.8095407 25.0653269,25.9016481 26.8071925,23.3429946 C25.2071072,22.51172 23.4796003,21.8901766 21.6222264,21.4771971 Z M27.7540983,10.2903245 L27.7223771,10.3074463 C25.9060381,11.2468105 23.9448474,11.9400404 21.8410099,12.3876756 C21.881518,12.8341234 21.9144704,13.2899928 21.9396605,13.752729 L21.9730436,14.4915335 L21.9932262,15.2409258 C21.9977305,15.4923872 22,15.7454623 22,16 C22,16.2545377 21.9977305,16.5076128 21.9932262,16.7590742 L21.9730436,17.5084665 L21.9396605,18.247271 C21.9130512,18.7360769 21.8777804,19.2172204 21.8341258,19.6894937 L21.8410099,19.6123244 C23.9569041,20.0625249 25.9285119,20.7611431 27.7535901,21.708728 C28.5935701,19.9847258 29.0645161,18.0473606 29.0645161,16 C29.0645161,13.9526394 28.5935701,12.0152742 27.7540983,10.2903245 Z M4.08009634,10.6464566 L4.01954617,10.7811101 C3.32224618,12.3795905 2.93548387,14.1446287 2.93548387,16 C2.93548387,17.9082708 3.34461496,19.720984 4.07994499,21.3552073 C6.00014025,20.5014661 8.0235342,19.8807959 10.1486015,19.4914637 C10.1125852,19.0833652 10.0832515,18.6681586 10.0603395,18.247271 L10.0269564,17.5084665 L10.0067738,16.7590742 C10.0022695,16.5076128 10,16.2545377 10,16 L10.0016978,15.6193093 C10.0028282,15.4927906 10.0045217,15.3666565 10.0067738,15.2409258 L10.0269564,14.4915335 L10.0603395,13.752729 C10.0869488,13.2639231 10.1222196,12.7827796 10.1658742,12.3105063 L10.1486015,12.5085363 C8.0235342,12.1192041 6.00014025,11.4985339 4.08009634,10.6464566 Z M15.7289132,13 C14.5030437,13 13.3057801,12.9340134 12.137378,12.8020298 C12.0782199,13.4833163 12.0368125,14.1877215 12.0158387,14.9089208 L12.0017817,15.6337383 L12.0017817,16.3662617 L12.0158387,17.0910792 C12.0437347,18.0503062 12.1077783,18.9798243 12.2023855,19.8685455 L12.137378,19.1979702 C13.3057801,19.0659866 14.5030437,19 15.7289132,19 C17.1561392,19 18.532029,19.0894699 19.8560962,19.2685288 C19.9188958,18.5653152 19.9624632,17.8371842 19.9841613,17.0910792 L19.9982183,16.3662617 L20,16 L19.9982183,15.6337383 L19.9841613,14.9089208 C19.9562653,13.9496938 19.8922217,13.0201757 19.7976145,12.1314545 L19.8560962,12.7314712 C18.532029,12.9105301 17.1561392,13 15.7289132,13 Z M16,2.93548387 C14.958638,2.93548387 13.8702156,4.65265861 13.0921172,7.37739065 L12.9499476,7.89991197 C12.8115891,8.43389411 12.6849257,9.00173897 12.5723132,9.5987689 L12.4644716,10.2053539 C12.4301438,10.4106762 12.3974644,10.6190681 12.3665208,10.8303562 L12.3509255,10.9395084 C13.4250795,11.0702608 14.5456423,11.1356428 15.7289132,11.1356428 C17.0868251,11.1356428 18.3904582,11.0495673 19.6403346,10.8775442 L19.6334792,10.8303562 C19.6025356,10.6190681 19.5698562,10.4106762 19.5355284,10.2053539 L19.4276868,9.5987689 C19.2963055,8.90223398 19.1457995,8.24542319 18.9799095,7.63576445 L18.8340378,7.1249205 C18.0618039,4.54701212 17.0088194,2.93548387 16,2.93548387 Z M12.6332379,3.37395146 L12.4322866,3.42858188 C9.38427884,4.29189997 6.78945854,6.23383583 5.08634904,8.81586613 C6.79206545,9.62931823 8.51966481,10.2277554 10.3649682,10.6130946 L10.4179738,10.2492259 C10.4350192,10.1384896 10.4525625,10.0284208 10.4705994,9.91903857 L10.5847097,9.27113377 C11.0365661,6.86290757 11.7361016,4.82457239 12.6332379,3.37395146 Z M19.36712,3.37350039 L19.3799256,3.39530149 C20.2707427,4.84454164 20.9656463,6.87469884 21.4152903,9.27113377 L21.5294006,9.91903857 C21.5474375,10.0284208 21.5649808,10.1384896 21.5820262,10.2492259 L21.6222264,10.5228029 C23.4796003,10.1098234 25.2071072,9.48828004 26.8067231,8.65865662 C25.0653269,6.09835186 22.4385785,4.19045928 19.36712,3.37350039 Z" id="形状结合" fill="#666666" fill-rule="nonzero"></path>
    </g>
</svg>