<!--?xml version="1.0"?-->
<svg xmlns="http://www.w3.org/2000/svg" class="icon" style="vertical-align:middle;fill:currentColor;overflow:hidden;" viewBox="0 0 1024 1024" version="1.1" width="200px" height="200px"><path d="M833.982903 542.656403C835.781741 528.656841 837.130609 514.437366 837.130609 500C837.130609 485.562634 835.781741 471.344169 833.982903 457.343594L929.085922 384.937866C937.629103 378.375884 940.102894 366.563313 934.481397 356.937728L844.549903 205.344378C838.929444 195.937696 827.237522 192.000508 817.120488 195.937696L705.155053 239.906496C681.997228 222.625437 656.591631 207.96917 629.16325 196.81229L612.301875 80.874554C610.278053 70.593277 601.059919 62.5 589.819 62.5L409.956016 62.5C398.714059 62.5 389.496963 70.593278 387.698125 80.874554L370.835713 196.812291C343.406297 207.968162 318.0007 222.405528 294.843911 239.906497L182.879513 195.937697C172.762479 192.219409 161.071592 195.937697 155.450096 205.344379L65.518602 356.937728C59.898143 366.344413 62.370896 378.155978 70.914077 384.937866L165.792114 457.343597C163.993277 471.343159 162.644407 485.562634 162.644407 500C162.644407 514.437366 163.993276 528.655831 165.792114 542.656403L70.914077 615.062134C62.370896 621.624116 59.897106 633.436688 65.518602 643.062272L155.450096 794.655622C161.070555 804.062303 172.761442 807.999491 182.879513 804.062303L294.844948 760.093503C318.002772 777.374563 343.408369 792.030828 370.83675 803.187709L387.699163 919.125447C389.498 929.406722 398.716134 937.5 409.95705 937.5L589.820038 937.5C601.061994 937.5 610.279091 929.406722 612.077925 919.125447L628.940341 803.187709C656.369756 792.031837 681.775353 777.594472 704.932141 760.093503L816.896541 804.062303C827.013575 807.780591 838.705497 804.062303 844.325956 794.655622L934.25745 643.062272C939.877909 633.655587 937.405156 621.844022 928.861975 615.062134L833.982903 542.656403zM499.886472 653.124647C412.8777 653.124647 342.506359 584.656103 342.506359 500C342.506359 415.343894 412.8777 346.875353 499.886472 346.875353C586.895244 346.875353 657.266584 415.343894 657.266584 500C657.266584 584.656103 586.895244 653.124647 499.886472 653.124647z" fill="#666666"></path></svg>
