<!--?xml version="1.0" encoding="UTF-8"?-->
<svg width="32px" height="32px" viewBox="0 0 32 32" version="1.1" xmlns="http://www.w3.org/2000/svg" xmlns:xlink="http://www.w3.org/1999/xlink">
    <title>1733.全网会员</title>
    <g id="1733.全网会员" stroke="none" stroke-width="1" fill="none" fill-rule="evenodd">
        <path d="M14.7294738,3.50208194 C15.4554757,2.8053816 16.6492848,2.8702974 17.2852835,3.64381031 C18.0171701,4.52942201 17.7533187,5.56268799 16.5892978,6.34199215 C16.9672841,7.02697528 17.351292,7.71182378 17.7352085,8.39676205 C18.8032502,10.3097138 19.8651336,12.2167845 20.9330384,14.1297811 C21.1789622,14.5726543 21.3349739,14.6140011 21.7729472,14.3541583 C23.4227941,13.362284 25.0726865,12.3644389 26.722579,11.3725197 C26.8004936,11.3252918 26.872478,11.278064 26.9625269,11.2249102 C26.6204871,10.8883445 26.404534,10.5105219 26.3805392,10.0440348 C26.3325497,9.17023007 26.9445536,8.40268799 27.8024356,8.26095958 C28.6963099,8.10746917 29.5243125,8.60933222 29.7883007,9.45956792 C29.8062284,9.52448372 29.8362447,9.59532545 29.8602851,9.66033108 L29.8602851,10.2507239 C29.5783236,11.1363356 29.0024031,11.6500505 28.0124585,11.6559315 C27.9764207,11.7563131 27.9404741,11.8566947 27.9104122,11.9570763 C27.4368191,13.5553082 26.9631602,15.154965 26.4894785,16.754644 L26.631426,16.275738 C29.4116602,17.0991177 31.44,19.6726868 31.44,22.72 C31.44,26.4313535 28.4313535,29.44 24.72,29.44 C22.4278584,29.44 20.4037524,28.292403 19.1909015,26.5404284 L8.14208374,26.5406005 C7.54809874,26.5406005 7.05013846,26.1922278 6.87619908,25.6667508 C6.69619257,25.1413187 6.86415608,24.5449551 7.33807591,24.2438103 C7.58409091,24.0903199 7.9080205,23.9841021 8.19604919,23.9841021 C10.7818752,23.9663244 13.3616341,23.9781762 15.941393,23.9781762 L18.1177213,23.9788863 C18.0404382,23.5710978 18,23.1502713 18,22.72 C18,22.5711814 18.0048375,22.4234927 18.0143638,22.2770825 L7.6201287,22.2777946 C7.15218477,22.2777946 7.00817043,22.171532 6.8822206,21.7404658 C6.09627729,19.0953031 5.31635549,16.4443491 4.53036656,13.7991863 C4.32038935,13.0847082 4.10443629,12.3703648 3.88839198,11.6500056 C3.15048387,11.6500056 2.59253666,11.3606678 2.24456663,10.7348541 C2.16053925,10.5813636 2.1065738,10.4101403 2.04056532,10.244798 C2.03458946,10.0381537 2.03458946,9.84331649 2.03458946,9.64843434 L2.1245927,9.40053312 C2.35254318,8.72740181 2.95250408,8.27281146 3.68443629,8.22553872 C4.35036005,8.1783109 5.01632939,8.56210441 5.32826163,9.16434906 C5.6463066,9.77835576 5.55630336,10.504551 5.09433529,11.0418799 C5.04032418,11.1009147 4.98635873,11.1599495 4.92632615,11.2308361 C6.21625122,12.0101403 7.50010915,12.7777273 8.77799119,13.5511953 C9.26395405,13.8464141 9.74991692,14.1415881 10.2358798,14.425 C10.5119111,14.5844164 10.7278185,14.5371886 10.8778087,14.2715095 C12.3533995,11.6273125 13.8272849,8.98219415 15.299464,6.33615601 C14.6574894,6.01732323 14.2435565,5.52726712 14.2075187,4.80102694 C14.1835696,4.29328285 14.3635305,3.85633559 14.7294738,3.50208194 Z M24.72,16.84 C24.5876244,16.84 24.4562705,16.8443744 24.3260749,16.8529864 L24.3013347,16.84 C25.4222161,17.4483231 26.0223432,17.8975287 26.101716,18.1876166 C26.1950243,18.528635 25.9114696,18.8625984 25.5707847,19.181117 L25.3387063,19.3910826 C25.1051817,19.598576 24.8778444,19.7983764 24.75143,19.987998 C23.8512394,21.338284 22.9510487,21.338284 22.5009533,20.8881886 C22.050858,20.4380933 21.6007627,19.0878073 21.1506673,19.5379026 C20.700572,19.987998 21.2883533,22.390539 22.050858,23.5887606 C22.8133627,24.7869823 23.8512394,23.5887606 24.3013347,24.4889513 C24.5965004,25.0792827 23.8754488,26.2503098 22.1381798,28.0020324 C22.4540603,28.1591246 22.7882906,28.2871124 23.1354809,28.3840354 L23.1195895,28.4848955 L23.1388555,28.3619556 C23.2297423,27.8316531 23.4110216,27.5880162 23.6826934,27.6310448 C24.1272473,27.7014552 25.0749374,27.9036887 26.0462838,27.093989 C27.0176302,26.2842894 27.515378,25.515422 27.3578542,24.5674864 C27.2003303,23.6195508 26.223163,23.9611761 26.1102895,23.0345959 C26.0746452,22.7419916 25.921871,22.431065 25.7446288,22.1174466 L25.5626625,21.8035099 C25.2266886,21.2284368 24.9122906,20.6618283 25.1904548,20.2 C25.6709202,19.4022965 27.6174045,20.0515368 28.1323688,19.6773934 C28.3993874,19.483393 28.7690076,19.3735025 29.2412294,19.3477217 L29.449892,19.3418223 L29.5345786,19.3435977 C28.4708152,17.8295229 26.7109654,16.84 24.72,16.84 Z M25.769553,26.2371648 C25.6015504,26.8403025 25.3801213,27.1685846 25.1052657,27.2220111 C24.6929823,27.3021509 24.2521027,27.2351761 24.2005591,26.9700073 C24.1490155,26.7048385 24.4479017,26.4251079 24.8648464,25.9851609 C25.2817911,25.5452138 25.9414171,24.9201747 26.3537005,24.8400349 C26.6285561,24.7866084 26.4338403,25.2523184 25.769553,26.2371648 Z" id="形状结合" fill="#666666" fill-rule="nonzero"></path>
    </g>
</svg>