<!--?xml version="1.0"?-->
<svg xmlns="http://www.w3.org/2000/svg" class="icon" style="vertical-align:middle;fill:currentColor;overflow:hidden;" viewBox="0 0 1024 1024" version="1.1" width="200px" height="200px"><path d="M406.25 62.5C440.767797 62.5 468.75 90.482203 468.75 125L468.75 281.25L406.25 281.25L406.25 156.25C406.25 138.991102 392.258897 125 375 125L156.25 125C138.991102 125 125 138.991102 125 156.25L125 843.75C125 861.008897 138.991102 875 156.25 875L375 875C392.258897 875 406.25 861.008897 406.25 843.75L406.25 718.75L468.75 718.75L468.75 875C468.75 909.517797 440.767797 937.5 406.25 937.5L125 937.5C90.482203 937.5 62.5 909.517797 62.5 875L62.5 125C62.5 90.482203 90.482203 62.5 125 62.5L406.25 62.5zM333.406253 352.164897L458.643297 474.057044C462.973828 478.271913 465.677547 483.470556 466.75445 488.913844C468.019881 492.162406 468.75 495.725922 468.75 499.455412C468.75 502.857025 468.142616 506.120566 467.027647 509.1489C466.435825 514.069509 464.5207 518.852256 461.301713 522.978997L458.643297 525.942956L333.406253 647.835106C321.878503 659.054966 303.188327 659.054966 291.660575 647.835106C281.019573 637.478309 280.201035 621.181616 289.204959 609.910987L291.660575 607.204388L372.839863 528.140775L185.768654 528.185666L185.768654 470.725156L371.718153 470.680266L291.660575 392.795613C280.132823 381.57575 280.132823 363.384759 291.660575 352.164897C303.188327 340.945034 321.878503 340.945034 333.406253 352.164897zM875 62.5C909.517797 62.5 937.5 90.482203 937.5 125L937.5 125L937.5 875C937.5 909.517797 909.517797 937.5 875 937.5L875 937.5L593.75 937.5C559.232203 937.5 531.25 909.517797 531.25 875L531.25 875L531.25 718.75L593.75 718.75L593.75 843.75C593.75 861.008897 607.741103 875 625 875L625 875L843.75 875C861.008897 875 875 861.008897 875 843.75L875 843.75L875 156.25C875 138.991102 861.008897 125 843.75 125L843.75 125L625 125C607.741103 125 593.75 138.991102 593.75 156.25L593.75 156.25L593.75 281.25L531.25 281.25L531.25 125C531.25 90.482203 559.232203 62.5 593.75 62.5L593.75 62.5zM664.8624 352.164897C676.390153 340.945034 695.080328 340.945034 706.608078 352.164897C718.135831 363.384759 718.135831 381.57575 706.608078 392.795613L706.608078 392.795613L626.5505 470.680266L812.5 470.725156L812.5 528.185666L625.428791 528.140775L706.608078 607.204388L709.063694 609.910987C718.067619 621.181616 717.249081 637.478309 706.608078 647.835106C695.080328 659.054966 676.390153 659.054966 664.8624 647.835106L664.8624 647.835106L539.625356 525.942956L536.966944 522.978997C533.747953 518.852256 531.832831 514.069509 531.241009 509.1489C530.126037 506.120566 529.518653 502.857025 529.518653 499.455412C529.518653 495.725922 530.248772 492.162406 531.514203 488.913844C532.591109 483.470556 535.294825 478.271913 539.625356 474.057044L539.625356 474.057044z" fill="#666666"></path></svg>
