<!--?xml version="1.0" encoding="UTF-8"?-->
<svg width="32px" height="32px" viewBox="0 0 32 32" version="1.1" xmlns="http://www.w3.org/2000/svg" xmlns:xlink="http://www.w3.org/1999/xlink">
    <title>143.话筒、麦</title>
    <g id="143.话筒、麦" stroke="none" stroke-width="1" fill="none" fill-rule="evenodd">
        <g id="话筒、麦" transform="translate(7.000000, 4.000000)" fill="#000000" fill-rule="nonzero">
            <path d="M9.35,22.2857143 L11.9,22.2857143 C12.369442,22.2857143 12.75,22.6694703 12.75,23.1428571 C12.75,23.616244 12.369442,24 11.9,24 L5.1,24 C4.630558,24 4.25,23.616244 4.25,23.1428571 C4.25,22.6694703 4.630558,22.2857143 5.1,22.2857143 L7.65,22.2857143 L7.65,20.529107 C3.35467572,20.0990574 0,16.4445841 0,12 L0,11.1428571 C0,10.6694703 0.380557974,10.2857143 0.85,10.2857143 C1.31944203,10.2857143 1.7,10.6694703 1.7,11.1428571 L1.7,12 C1.7,15.7870954 4.74446371,18.8571429 8.5,18.8571429 C12.2555363,18.8571429 15.3,15.7870954 15.3,12 L15.3,11.1428571 C15.3,10.6694703 15.680558,10.2857143 16.15,10.2857143 C16.619442,10.2857143 17,10.6694703 17,11.1428571 L17,12 C17,16.4445841 13.6453243,20.0990574 9.35,20.529107 L9.35,22.2857143 Z M8.5,0 C11.3166522,0 13.6,2.30253556 13.6,5.14285714 L13.6,12 C13.6,14.8403216 11.3166522,17.1428571 8.5,17.1428571 C5.68334776,17.1428571 3.4,14.8403216 3.4,12 L3.4,5.14285714 C3.4,2.30253556 5.68334776,0 8.5,0 Z M8.5,1.71428571 C6.62223184,1.71428571 5.1,3.24930942 5.1,5.14285714 L5.1,12 C5.1,13.8935477 6.62223184,15.4285714 8.5,15.4285714 C10.3777682,15.4285714 11.9,13.8935477 11.9,12 L11.9,5.14285714 C11.9,3.24930942 10.3777682,1.71428571 8.5,1.71428571 Z" id="形状" fill="#346bf6"></path>
        </g>
    </g>
</svg>