<!--?xml version="1.0" encoding="UTF-8"?-->
<svg width="32px" height="32px" viewBox="0 0 32 32" version="1.1" xmlns="http://www.w3.org/2000/svg" xmlns:xlink="http://www.w3.org/1999/xlink">
    <title>1284-模块</title>
    <g id="1284-模块" stroke="none" stroke-width="1" fill="none" fill-rule="evenodd">
        <g id="编组" transform="translate(4.000000, 4.000000)" fill="#000000" fill-rule="nonzero">
            <path d="M12,12.852467 C11.8644958,12.8531006 11.7308377,12.8210226 11.6103896,12.7589412 L6.71688312,9.92257759 C6.47237989,9.78915722 6.32225328,9.53093943 6.32727275,9.25244773 L6.32727275,3.59530487 C6.32225328,3.31681314 6.47237989,3.05859541 6.71688312,2.92517501 L11.6103896,0.10439578 C11.8514814,-0.0347985933 12.1485187,-0.0347985933 12.3896104,0.10439578 L17.2831169,2.92517501 C17.5276201,3.05859541 17.6777467,3.31681314 17.6727273,3.59530487 L17.6727273,9.25244773 C17.6777467,9.53093943 17.5276201,9.78915722 17.2831169,9.92257759 L12.3896104,12.7589412 C12.2691624,12.8210226 12.1355043,12.8531006 12,12.852467 Z M7.88571427,8.8160841 L12,11.1849153 L16.1142857,8.8160841 L16.1142857,4.04725293 L12,1.66283735 L7.88571427,4.04725293 L7.88571427,8.8160841 Z M5.76623376,23.621279 C5.62822587,23.6259251 5.49215216,23.5878244 5.37662339,23.512188 L0.3896104,20.6914088 C0.149775333,20.5457115 0.00238589333,20.286306 0,20.0056944 L0,14.364136 C0.00238589333,14.0835244 0.149775333,13.8241191 0.3896104,13.6784218 L5.29870128,10.8576425 C5.53979307,10.7184482 5.83683032,10.7184482 6.07792208,10.8576425 L10.9714286,13.6784218 C11.2112637,13.8241191 11.3586531,14.0835244 11.361039,14.364136 L11.361039,20.0056944 C11.3586531,20.286306 11.2112637,20.5457115 10.9714286,20.6914088 L6.07792208,23.512188 C5.98368451,23.5718034 5.87707939,23.6091151 5.76623376,23.621279 L5.76623376,23.621279 Z M1.55844155,19.5693308 L5.76623376,21.938162 L9.80259741,19.5693308 L9.80259741,14.8160842 L5.76623376,12.4316686 L1.55844155,14.8160842 L1.55844155,19.5693308 Z M18.3116883,23.621279 C18.1741516,23.6222163 18.0391299,23.5844102 17.9220779,23.512188 L13.0285715,20.6914088 C12.7887364,20.5457115 12.6413469,20.286306 12.6389611,20.0056944 L12.6389611,14.364136 C12.6413469,14.0835244 12.7887364,13.8241191 13.0285715,13.6784218 L17.9220779,10.8576425 C18.1631697,10.7184482 18.4602069,10.7184482 18.7012987,10.8576425 L23.6103896,13.6784218 C23.8502247,13.8241191 23.9976141,14.0835244 24,14.364136 L24,20.0056944 C23.9976141,20.286306 23.8502247,20.5457115 23.6103896,20.6914088 L18.7012987,23.512188 C18.58577,23.5878244 18.4496963,23.6259251 18.3116883,23.621279 L18.3116883,23.621279 Z M14.1974025,19.5693308 L18.3116883,21.938162 L22.4415584,19.5693308 L22.4415584,14.8160842 L18.3116883,12.4316686 L14.1974025,14.8160842 L14.1974025,19.5693308 Z" id="形状" fill="#346bf6"></path>
        </g>
    </g>
</svg>