<!--?xml version="1.0"?-->
<svg xmlns="http://www.w3.org/2000/svg" class="icon" style="vertical-align:middle;fill:currentColor;overflow:hidden;" viewBox="0 0 1024 1024" version="1.1" width="200px" height="200px"><path d="M219.048878 273.138615C290.515357 199.132909 386.916191 158.067597 487.740115 156.308947L515.290667 156.293894L546.227985 156.881175L524.659006 136.320277C511.43206 123.728206 510.009372 103.393357 520.731065 89.147757L523.420372 85.974057C536.981728 71.730298 559.522211 71.17604 573.766614 84.736731L663.034898 169.718988L664.003916 170.678708L664.877529 171.628584L666.586952 173.636306C666.875327 174.01423 667.159267 174.394028 667.435664 174.779501C667.880467 175.389916 668.297219 176.011805 668.692359 176.643574C669.019888 177.17713 669.348631 177.734901 669.662302 178.301967C670.001068 178.906087 670.30952 179.505447 670.599911 180.111446C670.827987 180.592786 671.05023 181.083299 671.261501 181.579451C671.529995 182.208886 671.781268 182.852564 672.013171 183.501744C672.231234 184.105903 672.431506 184.716118 672.615443 185.333118L673.065194 187.006789C673.852335 190.191607 674.204132 193.548371 674.059813 196.999344L673.976251 197.835606L673.712445 200.448064L673.529864 201.83185C673.371292 202.717549 673.173433 203.621106 672.940014 204.517531C672.8061 205.035394 672.660705 205.546085 672.504401 206.051805C672.283848 206.762974 672.04001 207.472292 671.77306 208.175005C671.600494 208.629997 671.418787 209.079668 671.228319 209.524558L670.178506 211.759548C669.906248 212.287961 669.626332 212.801097 669.334417 213.306257L668.425647 214.794934C668.049047 215.376515 667.665799 215.934212 667.26748 216.479996L666.06274 218.037894C665.637463 218.55834 665.200394 219.062981 664.749781 219.554808L664.272224 220.06523L579.289968 309.333515C565.728612 323.577274 543.188129 324.131532 528.943083 310.571507C514.699324 297.010149 514.145066 274.469666 527.705757 260.225264L557.952221 228.414598L550.066206 228.182638C523.885768 227.529777 502.840664 227.277134 488.982654 227.519025C406.857574 228.951516 328.491027 262.334492 270.28092 322.612823C150.739416 446.401674 154.182593 643.66116 277.971444 763.202664C401.760295 882.744168 599.019782 879.300991 718.561286 755.51214C776.771619 695.233576 807.399331 615.749886 805.964574 533.625016C805.621033 513.960904 821.283452 497.741495 840.947566 497.397956C860.611677 497.054415 876.831086 512.716834 877.174627 532.380945C878.936069 633.205227 841.260124 730.980484 769.793413 804.98643C622.928058 957.069956 380.580763 961.30006 228.497236 814.434706C76.41371 667.569351 72.183524 425.222141 219.048878 273.138615zM502.572584 390.714559L504.65505 390.969354C505.185918 391.050878 505.730489 391.146943 506.272692 391.257503C506.960826 391.394994 507.638652 391.557301 508.3075 391.741279C508.795739 391.878054 509.276616 392.022772 509.754466 392.179315C510.36869 392.378827 510.986862 392.603616 511.595591 392.846998C512.149875 393.068639 512.690589 393.302471 513.225685 393.552292C513.871618 393.85552 514.509199 394.181059 515.133667 394.527368C515.512338 394.734338 515.89417 394.956467 516.27216 395.187358C517.071103 395.67871 517.847847 396.202814 518.598739 396.759798C518.831356 396.929796 519.057586 397.102641 519.281959 397.278991C519.364474 397.345972 519.455088 397.417878 519.545293 397.490273L522.097099 399.777912L647.097097 524.777914C659.300983 536.981799 659.300983 556.768202 647.097097 568.972088C634.893214 581.175971 615.106809 581.175969 602.902926 568.972086L531.250011 497.343751L531.250011 671.875001C531.250011 689.133898 517.258911 703.125001 500.000013 703.125001C482.741114 703.125001 468.750011 689.133898 468.750012 671.875L468.750012 497.34375L397.097098 568.972087C385.831974 580.23721 368.106004 581.103758 355.846904 571.571731L352.902925 568.972087C340.699041 556.768203 340.699041 536.981797 352.902925 524.777913L477.902925 399.777913L480.30541 397.622868L480.218578 397.712785L477.902925 399.777913L479.607322 398.194002L480.218578 397.712785L480.370534 397.55543L480.54497 397.419782L480.457367 397.465512L480.726573 397.27456L480.588387 397.374824L481.396681 396.760455C482.152177 396.202816 482.928919 395.67871 483.729381 395.189607L484.87307 394.520975C485.490826 394.18106 486.128406 393.855519 486.778163 393.551681C487.309434 393.30247 487.850147 393.068639 488.395762 392.850796C489.013162 392.603617 489.631334 392.378828 490.25825 392.173333L491.687732 391.74516C492.361372 391.557301 493.039198 391.394993 493.725197 391.25516C494.269535 391.146942 494.814106 391.050877 495.360423 390.969306C495.953269 390.878507 496.567292 390.805191 497.186513 390.749937C497.947979 390.683299 498.686895 390.643728 499.426198 390.630236C499.600061 390.626883 499.799816 390.625 500.000012 390.624999L500.604839 390.630818L501.697795 390.670867L501.864814 390.682713L502.572584 390.714559z" fill="#666666"></path></svg>
