<!--?xml version="1.0" encoding="UTF-8"?-->
<svg width="32px" height="32px" viewBox="0 0 32 32" version="1.1" xmlns="http://www.w3.org/2000/svg" xmlns:xlink="http://www.w3.org/1999/xlink">
    <title>402.姓名@1x</title>
    <g id="402.姓名" stroke="none" stroke-width="1" fill="none" fill-rule="evenodd">
        <g id="编组" transform="translate(4.000000, 6.000000)" fill="#000000" fill-rule="nonzero">
            <path d="M23.1428571,0 C23.616244,0 24,0.383755941 24,0.857142857 L24,19.7142857 C24,20.1876726 23.616244,20.5714286 23.1428571,20.5714286 L0.857142857,20.5714286 C0.383755941,20.5714286 0,20.1876726 0,19.7142857 L0,0.857142857 C0,0.383755941 0.383755941,0 0.857142857,0 L23.1428571,0 Z M6.90842323,10.0642657 C4.54148862,10.0642657 2.62270897,11.7735613 2.62270897,14.34998 C3.33041919,16.160303 10.4498439,16.0703705 11.1941375,14.34998 C11.1941375,11.7735613 9.27535792,10.0642657 6.90842323,10.0642657 Z M21.0512804,13.4928371 L15.0512804,13.4928371 C14.814587,13.4928371 14.6227089,13.6847151 14.6227089,13.9214085 C14.6227089,14.158102 14.814587,14.34998 15.0512804,14.34998 L15.0512804,14.34998 L21.0512804,14.34998 C21.2879739,14.34998 21.4798518,14.158102 21.4798518,13.9214085 C21.4798518,13.6847151 21.2879739,13.4928371 21.0512804,13.4928371 L21.0512804,13.4928371 Z M6.90842323,4.92140857 C5.48826248,4.92140857 4.33699469,6.07267636 4.33699469,7.49283711 C4.33699469,8.91299794 5.48826248,10.0642657 6.90842323,10.0642657 C8.32858406,10.0642657 9.4798518,8.91299794 9.4798518,7.49283711 C9.4798518,6.07267636 8.32858406,4.92140857 6.90842323,4.92140857 Z M21.0512804,9.20712283 L13.3369947,9.20712283 C13.1003013,9.20712283 12.9084232,9.39900077 12.9084232,9.63569425 C12.9084232,9.87238774 13.1003013,10.0642657 13.3369947,10.0642657 L13.3369947,10.0642657 L21.0512804,10.0642657 C21.2879739,10.0642657 21.4798518,9.87238774 21.4798518,9.63569425 C21.4798518,9.39900077 21.2879739,9.20712283 21.0512804,9.20712283 L21.0512804,9.20712283 Z M21.0512804,4.92140857 L13.3369947,4.92140857 C13.1003013,4.92140857 12.9084232,5.11328651 12.9084232,5.34997997 C12.9084232,5.58667345 13.1003013,5.7785514 13.3369947,5.7785514 L13.3369947,5.7785514 L21.0512804,5.7785514 C21.2879739,5.7785514 21.4798518,5.58667345 21.4798518,5.34997997 C21.4798518,5.11328651 21.2879739,4.92140857 21.0512804,4.92140857 L21.0512804,4.92140857 Z" id="形状" fill="#666666"></path>
        </g>
    </g>
</svg>