<!--?xml version="1.0" encoding="UTF-8"?-->
<svg width="32px" height="32px" viewBox="0 0 32 32" version="1.1" xmlns="http://www.w3.org/2000/svg" xmlns:xlink="http://www.w3.org/1999/xlink">
    <title>1504-原生</title>
    <g id="1504-原生" stroke="none" stroke-width="1" fill="none" fill-rule="evenodd">
        <g id="编组" transform="translate(4.000000, 4.000000)" fill="#000000" fill-rule="nonzero">
            <path d="M21.1764706,-2.70842172e-16 C22.7358628,-2.70842172e-16 24,1.26413718 24,2.82352941 L24,21.1764706 C24,22.7358628 22.7358628,24 21.1764706,24 L2.82352941,24 C1.26413718,24 -2.70842172e-16,22.7358628 -2.70842172e-16,21.1764706 L-2.70842172e-16,2.82352941 C-2.70842172e-16,1.26413718 1.26413718,-2.70842172e-16 2.82352941,-2.70842172e-16 L21.1764706,-2.70842172e-16 Z M21.1764706,1.41176469 L2.82352941,1.41176469 C2.0438333,1.41176469 1.41176469,2.0438333 1.41176469,2.82352941 L1.41176469,21.1764706 C1.41176469,21.9561666 2.0438333,22.5882353 2.82352941,22.5882353 L21.1764706,22.5882353 C21.9561666,22.5882353 22.5882353,21.9561666 22.5882353,21.1764706 L22.5882353,2.82352941 C22.5882353,2.0438333 21.9561666,1.41176469 21.1764706,1.41176469 Z M12.0025055,4.94117646 C12.4363323,4.94117646 12.7868193,5.25661384 12.7868193,5.64705882 L12.7868193,5.64705882 L12.7868193,10.5661867 L18.2745097,10.5661867 C18.7083366,10.5661867 19.0588235,10.881624 19.0588235,11.272067 C19.0588235,11.6625099 18.7083366,11.9779473 18.2745097,11.9779473 L18.2745097,11.9779473 L12.7867782,11.9779473 L12.7867782,16.9411765 C12.7867782,17.3316215 12.4362912,17.6470588 12.0024645,17.6470588 C11.5686377,17.6470588 11.2181507,17.3316215 11.2181507,16.9411765 L11.2181507,16.9411765 L11.2181507,11.9779473 L5.7254902,11.9779473 C5.29166345,11.9779473 4.94117646,11.6625099 4.94117646,11.272067 C4.94117646,10.881624 5.29166345,10.5661867 5.7254902,10.5661867 L5.7254902,10.5661867 L11.2181918,10.5661867 L11.2181918,5.64705882 C11.2181918,5.25661384 11.5686788,4.94117646 12.0025055,4.94117646 Z" id="形状" fill="#346bf6"></path>
        </g>
    </g>
</svg>