<!--?xml version="1.0" encoding="UTF-8"?-->
<svg width="32px" height="32px" viewBox="0 0 32 32" version="1.1" xmlns="http://www.w3.org/2000/svg" xmlns:xlink="http://www.w3.org/1999/xlink">
    <title>1124-NEW</title>
    <g id="1124-NEW" stroke="none" stroke-width="1" fill="none" fill-rule="evenodd">
        <g id="编组" transform="translate(4.000000, 5.000000)" fill="#000000" fill-rule="nonzero">
            <path d="M13.1274571,0 C13.2437526,0 13.3559496,0.0370198492 13.4485407,0.104153297 L13.5340222,0.181068802 L18.4568187,5.6508426 C18.5246146,5.72617152 18.5696986,5.81832212 18.5880033,5.91669574 L18.5972309,6.01675117 L18.5972309,10.9395476 C18.5972309,11.2416349 18.3523408,11.486525 18.0502536,11.486525 C17.7859272,11.486525 17.5653924,11.299031 17.5143888,11.0497826 L17.5032761,10.9395476 L17.5027292,6.22788444 L12.8835052,1.09340777 L1.64093214,1.09395474 C1.37660554,1.09395474 1.15607093,1.28144854 1.1050674,1.53069705 L1.09395474,1.64093214 L1.09395474,21.3321179 C1.09395474,21.5964527 1.28144321,21.8169812 1.53069503,21.867983 L1.64093214,21.8790952 L8.20466071,21.8790952 C8.50674796,21.8790952 8.75163808,22.1239853 8.75163808,22.4260725 C8.75163808,22.690399 8.56414409,22.9109337 8.31489572,22.9619373 L8.20466071,22.97305 L1.64093214,22.97305 C0.79939897,22.97305 0.105827757,22.3395947 0.0110396663,21.5234875 L0,21.3321179 L0,1.64093214 C0,0.799403066 0.633465496,0.105828335 1.44956472,0.0110397451 L1.64093214,0 L13.1274571,0 Z M6.48304939,20.2381631 L6.48304939,15.9553302 L6.51586804,15.9553302 L9.44493191,20.2381631 L10.3802632,20.2381631 L10.3802632,14.3800353 L9.41211326,14.3800353 L9.41211326,18.6054356 L9.37929462,18.6054356 L6.48304939,14.3800353 L5.52310409,14.3800353 L5.52310409,20.2381631 L6.48304939,20.2381631 Z M15.8937952,20.2381631 L15.8937952,19.417697 L12.488861,19.417697 L12.488861,17.6454903 L15.5574041,17.6454903 L15.5574041,16.8250242 L12.488861,16.8250242 L12.488861,15.2005014 L15.754316,15.2005014 L15.754316,14.3800353 L11.5289157,14.3800353 L11.5289157,20.2381631 L15.8937952,20.2381631 Z M18.970543,20.2381631 L20.1191955,15.8322603 L20.1520141,15.8322603 L21.292462,20.2381631 L22.3098399,20.2381631 L24,14.3800353 L22.9169848,14.3800353 L21.8175603,18.8351661 L21.7847416,18.8351661 L20.6278844,14.3800353 L19.6351205,14.3800353 L18.4782633,18.8351661 L18.4454447,18.8351661 L17.3460202,14.3800353 L16.263005,14.3800353 L17.9449604,20.2381631 L18.970543,20.2381631 Z M12.5804797,0 C12.8448061,0 13.0653409,0.187493983 13.1163445,0.43674236 L13.1274571,0.546977372 L13.1263632,5.4697738 L18.0502536,5.4697738 C18.3145799,5.4697738 18.5351148,5.65726778 18.5861184,5.90651615 L18.5972309,6.01675117 C18.5972309,6.28107753 18.4097369,6.50161233 18.1604886,6.55261594 L18.0502536,6.56372856 L12.5804797,6.56372856 C12.3161534,6.56372856 12.0956186,6.37623456 12.044615,6.12698621 L12.0335024,6.01675117 L12.0335024,0.546977372 C12.0335024,0.244890114 12.2783925,0 12.5804797,0 Z" id="形状" fill="#346bf6"></path>
        </g>
    </g>
</svg>