<!--?xml version="1.0"?-->
<svg xmlns="http://www.w3.org/2000/svg" class="icon" style="vertical-align:middle;fill:currentColor;overflow:hidden;" viewBox="0 0 1024 1024" version="1.1" width="200px" height="200px"><path d="M918.036456 363.898438C943.987847 389.849828 943.987847 431.925347 918.036456 457.876738C892.085066 483.828128 850.00955 483.828128 824.058159 457.876738L634.168263 647.804544C689.636744 725.659147 682.44965 834.430991 612.606988 904.273653L589.112413 927.768228C576.136719 940.743925 555.098959 940.743925 542.123263 927.768228L342.419378 728.064344L141.06066 882.229613C133.775499 887.807316 123.348088 886.423147 117.770386 879.137984C113.207424 873.178197 113.207424 864.899128 117.770386 858.939341L271.935656 657.580622L72.231772 457.876738C59.256076 444.901041 59.256076 423.863281 72.231772 410.887588L95.726346 387.393013C165.577201 317.542159 274.366368 310.361573 352.222847 365.851256L542.123263 175.941841C516.171872 149.990451 516.171872 107.914933 542.123263 81.963543C568.074653 56.012153 610.150172 56.012153 636.101563 81.963543L918.036456 363.898438zM565.617838 857.284506C610.085281 812.817059 616.936078 743.727 583.755234 691.854047L580.04685 686.364019L547.425375 640.577075L824.053469 363.893747L636.10045 175.940728L359.449231 452.605056L313.654216 419.966144C263.063726 383.909409 193.75164 387.9789 147.572801 429.761278L142.715495 434.382163L565.617838 857.284506z" fill="#666666"></path></svg>
