<!--?xml version="1.0"?-->
<svg xmlns="http://www.w3.org/2000/svg" class="icon" style="vertical-align:middle;fill:currentColor;overflow:hidden;" viewBox="0 0 1024 1024" version="1.1" width="200px" height="200px"><path d="M815.972222 125C883.090159 125 937.5 184.961864 937.5 258.928571L937.5 504.071428C937.5 518.864772 919.673587 531.25 906.25 531.25C892.826413 531.25 875 514.793341 875 500L875 281.25C875 236.869976 852.770762 187.5 812.5 187.5L187.5 187.5C147.229237 187.5 125 221.244976 125 265.625L125 734.375C125 778.755025 147.229237 812.5 187.5 812.5L562.5 812.5C583.333334 812.5 593.75 822.916666 593.75 843.75C593.75 864.583334 583.402778 875 562.708334 875L184.027777 875C151.796607 875 120.885541 860.889709 98.094662 835.773228C75.303783 810.65675 62.5 776.591494 62.5 741.071428L62.5 258.928571C62.5 184.961864 116.909839 125 184.027777 125L815.972222 125zM704.265088 602.088491L796.907903 694.666578L889.550722 602.152691C896.638253 595.053731 906.974675 592.27515 916.666359 594.863619C926.358041 597.452088 933.932584 605.014353 936.536734 614.701781C939.140884 624.389209 936.379006 634.730053 929.291472 641.829013L836.584453 734.3429L929.227269 826.985188C940.183647 837.959231 940.169275 855.737297 929.195169 866.693609C918.221063 877.649925 900.442897 877.635553 889.486519 866.661509L796.907903 774.083422L704.265088 866.661509C697.192019 873.820684 686.826222 876.643056 677.099978 874.057956C667.373734 871.472853 659.777166 863.876328 657.19205 854.150141C654.606934 844.423953 657.429322 834.058213 664.588538 826.985188L757.231356 734.3429L664.588538 641.764813C657.429322 634.691788 654.606934 624.326047 657.19205 614.599859C659.777166 604.873672 667.373734 597.277147 677.099978 594.692044C686.826222 592.106944 697.192019 594.929316 704.265088 602.088491zM395.077963 593.75C409.615194 593.75 421.872075 608.125 420.731897 625C420.731897 641.9375 408.475019 656.25 393.937788 656.25L197.599666 656.25C183.062435 656.25 170.805556 641.9375 170.805556 625C170.805556 608.125 183.062436 593.75 197.599666 593.75L395.077963 593.75zM567.998453 343.75C589.831469 343.75 608.305556 358.0625 608.305556 375C608.305556 391.875 589.831469 406.25 567.998453 406.25L211.16864 406.25C189.335626 406.25 170.805556 391.875 170.805556 375C170.805556 358.0625 189.279644 343.75 211.16864 343.75L567.998453 343.75z" fill="#666666"></path></svg>
