<!--?xml version="1.0" encoding="UTF-8"?-->
<svg width="32px" height="32px" viewBox="0 0 32 32" version="1.1" xmlns="http://www.w3.org/2000/svg" xmlns:xlink="http://www.w3.org/1999/xlink">
    <title>258.offer管理</title>
    <g id="258.offer管理" stroke="none" stroke-width="1" fill="none" fill-rule="evenodd">
        <g id="offer管理" transform="translate(4.000000, 4.000000)" fill="#000000" fill-rule="nonzero">
            <path d="M1.14442104,10.1911579 C1.28084211,10.248 1.28084211,11.2231579 1.14442104,13.1128421 L12,17.6842105 L21.5595789,13.6585263 L22.7368421,13.1633684 C22.6458947,11.2206316 22.6458947,10.2290526 22.7368421,10.1911579 C22.8290527,10.1532632 23.2496843,10.9654737 24,12.6315789 L24,22.7368421 C24,23.0718524 23.8669177,23.3931416 23.6300296,23.6300296 C23.3931416,23.8669177 23.0718524,24 22.7368421,24 L1.26315789,24 C0.9281476,24 0.606858427,23.8669177 0.369970373,23.6300296 C0.13308232,23.3931416 0,23.0718524 0,22.7368421 L0,12.6315789 C0.62652632,10.9465263 1.008,10.1330526 1.14442104,10.1911579 Z M20.2105263,0 C20.9081492,0 21.4736843,0.565535067 21.4736843,1.26315789 L21.4736843,11.368421 L12,15.6341053 L2.52631579,11.368421 L2.52631579,1.26315789 C2.52631579,0.565535067 3.09185085,0 3.78947368,0 L20.2105263,0 Z M6.57333333,5.12666667 C6.05333333,5.12666667 5.63333333,5.3 5.32,5.64666667 C5.00666667,5.98666667 4.85333333,6.42 4.85333333,6.94666667 C4.85333333,7.46666667 5.00666667,7.9 5.31333333,8.23333333 C5.63333333,8.58 6.05333333,8.76 6.57333333,8.76 C7.09333333,8.76 7.51333333,8.58 7.83333333,8.23333333 C8.14,7.9 8.29333333,7.46666667 8.29333333,6.94666667 C8.29333333,6.42 8.13333333,5.98666667 7.82666667,5.64666667 C7.51333333,5.3 7.09333333,5.12666667 6.57333333,5.12666667 Z M15.0333333,5.12666667 C14.5266667,5.12666667 14.12,5.3 13.8266667,5.65333333 C13.52,6 13.3733333,6.42666667 13.3733333,6.94 C13.3733333,7.50666667 13.5333333,7.95333333 13.8533333,8.28666667 C14.1466667,8.6 14.5533333,8.76 15.06,8.76 C15.52,8.76 15.9,8.62666667 16.2,8.36666667 C16.44,8.15333333 16.5933333,7.88 16.6733333,7.56 L15.9666667,7.56 C15.8733333,7.76 15.7733333,7.91333333 15.6533333,8.00666667 C15.5,8.12 15.3,8.18 15.0533333,8.18 C14.7733333,8.18 14.5533333,8.08666667 14.3933333,7.91333333 C14.2333333,7.73333333 14.1466667,7.47333333 14.12,7.14 L16.7333333,7.14 C16.7266667,6.52666667 16.5866667,6.04666667 16.32,5.7 C16.0266667,5.31333333 15.5933333,5.12666667 15.0333333,5.12666667 Z M11.0466667,3.90666667 L10.3266667,3.90666667 C10.02,3.90666667 9.79333333,3.98666667 9.63333333,4.16 C9.47333333,4.32 9.39333333,4.55333333 9.39333333,4.84666667 L9.39333333,5.22 L8.6,5.22 L8.6,5.8 L9.39333333,5.8 L9.39333333,8.66666667 L10.0933333,8.66666667 L10.0933333,5.8 L11.4866667,5.8 L11.4866667,8.66666667 L12.1933333,8.66666667 L12.1933333,5.8 L13.0933333,5.8 L13.0933333,5.22 L12.1933333,5.22 L12.1933333,4.86666667 C12.1933333,4.74 12.22,4.64666667 12.2733333,4.59333333 C12.3266667,4.53333333 12.4133333,4.50666667 12.52,4.50666667 L13.14,4.50666667 L13.14,3.90666667 L12.4266667,3.90666667 C12.12,3.90666667 11.8866667,3.98666667 11.7266667,4.16 C11.5666667,4.32 11.4866667,4.55333333 11.4866667,4.84666667 L11.4866667,5.22 L10.0933333,5.22 L10.0933333,4.86666667 C10.0933333,4.74 10.12,4.64666667 10.1733333,4.59333333 C10.2266667,4.53333333 10.3133333,4.50666667 10.4266667,4.50666667 L11.0466667,4.50666667 L11.0466667,3.90666667 Z M18.9333333,5.12666667 C18.72,5.12666667 18.5333333,5.18666667 18.3733333,5.32 C18.24,5.41333333 18.1266667,5.55333333 18.04,5.74 L18.04,5.22 L17.3333333,5.22 L17.3333333,8.66666667 L18.04,8.66666667 L18.04,6.84 C18.04,6.54 18.1266667,6.29333333 18.3066667,6.10666667 C18.4733333,5.93333333 18.6666667,5.84666667 18.88,5.84666667 C19.04,5.84666667 19.2066667,5.86666667 19.38,5.92 L19.38,5.21333333 C19.26,5.15333333 19.1066667,5.12666667 18.9333333,5.12666667 Z M6.57333333,5.70666667 C6.9,5.70666667 7.15333333,5.83333333 7.34,6.09333333 C7.5,6.31333333 7.58,6.6 7.58,6.94666667 C7.58,7.28666667 7.5,7.56666667 7.34,7.79333333 C7.15333333,8.04666667 6.9,8.18 6.57333333,8.18 C6.24666667,8.18 5.99333333,8.04666667 5.81333333,7.79333333 C5.65333333,7.57333333 5.58,7.29333333 5.58,6.94666667 C5.58,6.6 5.65333333,6.31333333 5.81333333,6.09333333 C5.99333333,5.83333333 6.24666667,5.70666667 6.57333333,5.70666667 Z M15.0533333,5.70666667 C15.6133333,5.70666667 15.9266667,6.00666667 15.9933333,6.60666667 L14.1333333,6.60666667 C14.1733333,6.31333333 14.2733333,6.09333333 14.42,5.94 C14.58,5.78 14.7866667,5.70666667 15.0533333,5.70666667 Z" id="形状" fill="#666666"></path>
        </g>
    </g>
</svg>