<!--?xml version="1.0" encoding="UTF-8"?-->
<svg width="32px" height="32px" viewBox="0 0 32 32" version="1.1" xmlns="http://www.w3.org/2000/svg" xmlns:xlink="http://www.w3.org/1999/xlink">
    <title>2005.入职折算</title>
    <g id="2005.入职折算" stroke="none" stroke-width="1" fill="none" fill-rule="evenodd">
        <path d="M24.5,19 C27.5375661,19 30,21.4624339 30,24.5 C30,27.5375661 27.5375661,30 24.5,30 C21.4624339,30 19,27.5375661 19,24.5 C19,21.4624339 21.4624339,19 24.5,19 Z M27,2 L27.0325914,18.5118594 C26.2542752,18.1822741 25.3984238,18 24.5,18 C22.9910691,18 21.6022274,18.5141634 20.4991172,19.376848 C20.2055436,18.7974694 19.8072427,18.3712228 19.3800031,18.2262873 C18.6403171,18.0201254 16.5,17.2841003 16.5,17.2841003 L16.5,16.3753957 C16.6205357,16.3132029 16.6054687,16.2610053 16.4983857,16.2188031 L16.5952883,16.164742 C16.8595817,15.9943767 17.0008878,15.7723767 17.1115425,15.540436 L17.1647431,15.4238303 L17.2809204,15.1572945 C17.3607485,14.9818091 17.4521364,14.8138074 17.5959228,14.6717301 C18.0632693,14.210288 18.7344776,13.9484963 18.835864,13.0050596 C18.9375363,12.0610584 18.3582279,11.9412386 18.3582279,11.9412386 L18.3582279,10.1336985 C18.1346687,8.58764089 15.5078852,7.80581266 14.2612583,8.0412766 C13.0239048,8.18307383 11.5783513,9.03889817 11.4669645,10.3362971 L11.4669645,11.9412386 C11.2279763,11.9412386 10.9182148,12.0618784 11.0198598,13.005315 C11.1212598,13.9493163 11.7716817,14.2102746 12.2597874,14.6717301 C12.7478932,15.1331857 12.64094,15.8690588 13.403245,16.2454288 C13.403245,16.2454288 13.4123238,16.2513204 13.4285831,16.2623068 C13.3987427,16.2953737 13.4179687,16.33307 13.5,16.3753957 L13.5,17.284128 C13.5,17.284128 11.5698078,17.9311521 10.6599039,18.2262873 C9.75,18.5214226 9,19.9830433 9,21.5309538 L18.7167561,21.5298408 C18.2586147,22.4200992 18,23.4298482 18,24.5 C18,25.8808786 18.4305994,27.1611854 19.1648493,28.2139712 L18.0190706,27.5820986 L15,29.25 L11.8895454,27.5820986 L9.04943201,29.25 L5.97546197,27.5820986 L3.05331746,29.25 L3,8 L9,2 L27,2 Z M24.2380935,21.6805711 C23.9235991,21.4110045 23.4501242,21.4474257 23.1805575,21.7619201 L21.1805575,24.0952534 C20.9398142,24.3761207 20.9398142,24.7905732 21.1805575,25.0714405 L23.1805575,27.4047738 C23.4501242,27.7192682 23.9235991,27.7556893 24.2380935,27.4861227 L24.3169494,27.4078216 C24.5566811,27.1317836 24.564503,26.7144907 24.3194425,26.4285867 L23.308,25.25 L27.25,25.2500136 C27.6642136,25.2500136 28,24.9142272 28,24.5000136 C28,24.0858 27.6642136,23.7500136 27.25,23.7500136 L23.451,23.75 L24.3194425,22.7381071 C24.5890091,22.4236127 24.5525879,21.9501378 24.2380935,21.6805711 Z" id="形状结合" fill="#666666"></path>
    </g>
</svg>