<!--?xml version="1.0" encoding="UTF-8"?-->
<svg width="32px" height="32px" viewBox="0 0 32 32" version="1.1" xmlns="http://www.w3.org/2000/svg" xmlns:xlink="http://www.w3.org/1999/xlink">
    <title>1930入职管理</title>
    <g id="1930入职管理" stroke="none" stroke-width="1" fill="none" fill-rule="evenodd">
        <g id="hr_ggzl_48_48" transform="translate(2.000000, 2.000000)" fill="#999999">
            <path d="M8,18 L8,19 C8,20.6568542 9.34314575,22 11,22 L17,22 C18.6568542,22 20,20.6568542 20,19 L20,18 L27,18 C27.5522847,18 28,18.4477153 28,19 L28,27 C28,27.5128358 27.6139598,27.9355072 27.1166211,27.9932723 L27,28 L1,28 C0.44771525,28 0,27.5522847 0,27 L0,19 C0,18.4477153 0.44771525,18 1,18 L8,18 Z M23,0 C23.5522847,0 24,0.44771525 24,1 L24,17 L19,17 L19,19 C19,20.1045695 18.1045695,21 17,21 L11,21 C9.8954305,21 9,20.1045695 9,19 L9,17 L4,17 L4,1 C4,0.44771525 4.44771525,0 5,0 L23,0 Z M16.5,14 L10.5,14 C10.2238576,14 10,14.2238576 10,14.5 C10,14.7761424 10.2238576,15 10.5,15 L16.5,15 C16.7761424,15 17,14.7761424 17,14.5 C17,14.2238576 16.7761424,14 16.5,14 Z M16.5,12 L10.5,12 C10.2238576,12 10,12.2238576 10,12.5 C10,12.7761424 10.2238576,13 10.5,13 L16.5,13 C16.7761424,13 17,12.7761424 17,12.5 C17,12.2238576 16.7761424,12 16.5,12 Z M15.4589662,3.29019234 C15.3347667,2.39984846 13.9390199,1.92865174 13.1781914,2.00878708 L13.0690673,2.0249589 C12.3472778,2.11070002 11.5040383,2.62819489 11.4390626,3.4126985 L11.4390626,4.38316515 C11.2996528,4.38316515 11.1189586,4.4561129 11.1782516,5.02658469 C11.2374016,5.59739785 11.6168143,5.75519259 11.9015427,6.03422283 C12.1546345,6.28224972 12.1334605,6.66138435 12.4379422,6.90241198 L12.5836998,6.99559538 C12.5657822,7.01568788 12.5768226,7.03861789 12.625,7.06438542 L12.625,7.61387234 L10.9682773,8.18357176 C10.4375,8.36203241 10,9.06401852 10,10 L17,10 C17,9.06401852 16.5625,8.36203241 16.0550018,8.18357176 L15.8589313,8.12330049 C15.745781,8.08715063 15.6129841,8.04310069 15.474156,7.99619636 L14.375,7.61385563 L14.375,7.06438542 C14.4446103,7.02715456 14.4366911,6.99584748 14.3759136,6.97046418 C14.7898941,6.73872382 14.7476911,6.30728856 15.0142883,6.03422283 C15.2869071,5.75520072 15.6784453,5.59690204 15.7375873,5.02643026 C15.7968961,4.4556171 15.4589662,4.38316515 15.4589662,4.38316515 L15.4589662,3.29019234 Z" id="形状" fill="#666666"></path>
        </g>
    </g>
</svg>