<!--?xml version="1.0" encoding="UTF-8"?-->
<svg width="32px" height="32px" viewBox="0 0 32 32" version="1.1" xmlns="http://www.w3.org/2000/svg" xmlns:xlink="http://www.w3.org/1999/xlink">
    <title>1264-组织</title>
    <g id="1264-组织" stroke="none" stroke-width="1" fill="none" fill-rule="evenodd">
        <g id="编组" transform="translate(4.000000, 4.000000)" fill="#000000" fill-rule="nonzero">
            <path d="M15.4285714,0 C16.7980122,0 17.9174236,1.07050283 17.9956348,2.4203376 L18,2.57142857 L18,6.85714286 C18,8.22658363 16.9294971,9.34599505 15.5796624,9.42420625 L15.4285714,9.42857143 L12.8562857,9.42857143 L12.8562857,11.142 L18,11.1428571 C18.9467739,11.1428571 19.7142857,11.910369 19.7142857,12.8571429 L19.7142857,14.5705714 L21.4285714,14.5714286 C22.7980122,14.5714286 23.9174236,15.6419314 23.9956348,16.9917662 L24,17.1428571 L24,21.4285714 C24,22.8487322 22.8487322,24 21.4285714,24 L21.4285714,24 L16.2857143,24 C14.8655535,24 13.7142857,22.8487322 13.7142857,21.4285714 L13.7142857,21.4285714 L13.7142857,17.1428571 C13.7142857,15.7226964 14.8655535,14.5714286 16.2857143,14.5714286 L16.2857143,14.5714286 L18,14.5705714 L17.9991429,12.8571429 L6,12.8571429 L6,14.5705714 L7.71428571,14.5714286 C9.08372648,14.5714286 10.2031379,15.6419314 10.2813491,16.9917662 L10.2857143,17.1428571 L10.2857143,21.4285714 C10.2857143,22.8487322 9.13444646,24 7.71428571,24 L7.71428571,24 L2.57142857,24 C1.15126779,24 0,22.8487322 0,21.4285714 L0,21.4285714 L0,17.1428571 C0,15.7226964 1.15126779,14.5714286 2.57142857,14.5714286 L2.57142857,14.5714286 L4.28571429,14.5705714 L4.28571429,12.8571429 C4.28571429,11.9534042 4.98503811,11.2130014 5.87206085,11.1475592 L6,11.1428571 L11.142,11.142 L11.142,9.42857143 L8.57142857,9.42857143 C7.2019878,9.42857143 6.0825764,8.35806857 6.00436517,7.00823383 L6,6.85714286 L6,2.57142857 C6,1.20198783 7.07050286,0.0825764023 8.4203376,0.00436517486 L8.57142857,0 L15.4285714,0 Z M7.71428571,16.2857143 L2.57142857,16.2857143 C2.09804165,16.2857143 1.71428571,16.6694703 1.71428571,17.1428571 L1.71428571,17.1428571 L1.71428571,21.4285714 C1.71428571,21.9019583 2.09804165,22.2857143 2.57142857,22.2857143 L2.57142857,22.2857143 L7.71428571,22.2857143 C8.1876726,22.2857143 8.57142857,21.9019583 8.57142857,21.4285714 L8.57142857,21.4285714 L8.57142857,17.1428571 C8.57142857,16.6694703 8.1876726,16.2857143 7.71428571,16.2857143 L7.71428571,16.2857143 Z M21.4285714,16.2857143 L16.2857143,16.2857143 C15.8123274,16.2857143 15.4285714,16.6694703 15.4285714,17.1428571 L15.4285714,17.1428571 L15.4285714,21.4285714 C15.4285714,21.9019583 15.8123274,22.2857143 16.2857143,22.2857143 L16.2857143,22.2857143 L21.4285714,22.2857143 C21.9019583,22.2857143 22.2857143,21.9019583 22.2857143,21.4285714 L22.2857143,21.4285714 L22.2857143,17.1428571 C22.2857143,16.6694703 21.9019583,16.2857143 21.4285714,16.2857143 L21.4285714,16.2857143 Z M15.4285714,1.71428571 L8.57142857,1.71428571 C8.13185502,1.71428571 7.76956526,2.04517731 7.72005232,2.47146761 L7.71428571,2.57142857 L7.71428571,6.85714286 C7.71428571,7.29671641 8.04517731,7.65900617 8.47146764,7.7085191 L8.57142857,7.71428571 L15.4285714,7.71428571 C15.868145,7.71428571 16.2304347,7.38339412 16.2799477,6.95710379 L16.2857143,6.85714286 L16.2857143,2.57142857 C16.2857143,2.09804165 15.9019583,1.71428571 15.4285714,1.71428571 Z" id="形状" fill="#666666"></path>
        </g>
    </g>
</svg>