<!--?xml version="1.0" encoding="UTF-8"?-->
<svg width="32px" height="32px" viewBox="0 0 32 32" version="1.1" xmlns="http://www.w3.org/2000/svg" xmlns:xlink="http://www.w3.org/1999/xlink">
    <title>1812.其他税费</title>
    <g id="1812.其他税费" stroke="none" stroke-width="1" fill="none" fill-rule="evenodd">
        <g id="编组备份-29" stroke-width="0.1">
            <line x1="0" y1="0" x2="32" y2="32" id="路径-17" stroke="#979797"></line>
            <line x1="0" y1="0" x2="32" y2="32" id="路径-17" stroke="#979797" transform="translate(16.000000, 16.000000) scale(-1, 1) translate(-16.000000, -16.000000) "></line>
            <circle id="椭圆形" stroke="#7F93BC" cx="16" cy="16" r="14"></circle>
            <line x1="0" y1="16" x2="32" y2="16" id="路径-26" stroke="#979797"></line>
            <line x1="16" y1="0" x2="16" y2="32" id="路径-26" stroke="#979797"></line>
            <rect id="矩形" stroke="#7F93BC" x="4" y="4" width="24" height="24"></rect>
            <rect id="矩形" stroke="#7F93BC" x="6" y="2" width="20" height="28"></rect>
            <rect id="矩形" stroke="#7F93BC" transform="translate(16.000000, 16.000000) rotate(-270.000000) translate(-16.000000, -16.000000) " x="6" y="2" width="20" height="28"></rect>
        </g>
        <path d="M2,27 L4,24 L2,22 L4,19 L2,16 L4,13 L2,10 L4,8 L2,5 L29,5 C29.5522847,5 30,5.44771525 30,6 L30,26 C30,26.5522847 29.5522847,27 29,27 L2,27 Z M10,21 L8,21 C7.44771525,21 7,21.4477153 7,22 C7,22.5522847 7.44771525,23 8,23 L10,23 C10.5522847,23 11,22.5522847 11,22 C11,21.4477153 10.5522847,21 10,21 Z M18.8786797,8.29289322 C18.4881554,8.68341751 18.4881554,9.31658249 18.8786797,9.70710678 L21.5125708,12.3410002 L21.5067277,12.3833789 L21.504,12.414 L19,12.4142136 C18.4477153,12.4142136 18,12.8619288 18,13.4142136 C18,13.9664983 18.4477153,14.4142136 19,14.4142136 L21.5,14.414 L21.5,16.414 L19,16.4142136 C18.4477153,16.4142136 18,16.8619288 18,17.4142136 C18,17.9664983 18.4477153,18.4142136 19,18.4142136 L21.5,18.414 L21.5,21.5 C21.5,22.0522847 21.9477153,22.5 22.5,22.5 C23.0522847,22.5 23.5,22.0522847 23.5,21.5 L23.5,18.414 L26,18.4142136 C26.5522847,18.4142136 27,17.9664983 27,17.4142136 C27,16.8619288 26.5522847,16.4142136 26,16.4142136 L23.5,16.414 L23.5,14.414 L26,14.4142136 C26.5522847,14.4142136 27,13.9664983 27,13.4142136 C27,12.8619288 26.5522847,12.4142136 26,12.4142136 L23.4963472,12.4139245 C23.4942523,12.3893522 23.4912689,12.3650333 23.4874292,12.3410002 L26.1213203,9.70710678 C26.5118446,9.31658249 26.5118446,8.68341751 26.1213203,8.29289322 L26.027113,8.20970461 C25.6348218,7.90467972 25.0675907,7.93240926 24.7071068,8.29289322 L22.5,10.5 L20.2928932,8.29289322 C19.9023689,7.90236893 19.2692039,7.90236893 18.8786797,8.29289322 Z M15,17 L8,17 C7.44771525,17 7,17.4477153 7,18 C7,18.5522847 7.44771525,19 8,19 L15,19 C15.5522847,19 16,18.5522847 16,18 C16,17.4477153 15.5522847,17 15,17 Z M15,13 L8,13 C7.44771525,13 7,13.4477153 7,14 C7,14.5522847 7.44771525,15 8,15 L15,15 C15.5522847,15 16,14.5522847 16,14 C16,13.4477153 15.5522847,13 15,13 Z" id="形状结合" fill="#666666"></path>
    </g>
</svg>