<!--?xml version="1.0"?-->
<svg xmlns="http://www.w3.org/2000/svg" class="icon" style="vertical-align:middle;fill:currentColor;overflow:hidden;" viewBox="0 0 1024 1024" version="1.1" width="200px" height="200px"><path d="M283.538905 67.915812C290.910925 68.349086 298.158699 71.382003 303.791261 77.014565L449.317956 222.541261C461.521841 234.745145 461.521841 254.53155 449.317956 266.735435C437.114072 278.939319 417.327666 278.939319 405.123781 266.735435L312.5 174.111653L312.531566 502.219794C418.525369 517.3968 500 608.558691 500 718.75C500 839.562287 402.062288 937.5 281.25 937.5C160.437711 937.5 62.5 839.562287 62.5 718.75C62.5 608.547841 143.990676 517.37885 250 502.215313L250 173.611653L156.916261 266.735435C144.712377 278.939319 124.925971 278.939319 112.722087 266.735435C100.518203 254.53155 100.518203 234.745145 112.722087 222.541261L258.248782 77.014565C263.881344 71.382003 271.129118 68.349086 278.501138 67.915812L283.538905 67.915812zM718.75 62.5C839.562287 62.5 937.5 160.437711 937.5 281.25C937.5 391.441309 856.025369 482.6032 750.031566 497.780206L750.03125 625L843.75 625C861.008897 625 875 638.991103 875 656.25C875 673.508897 861.008897 687.5 843.75 687.5L750.03125 687.5L750 906.25C750 923.508897 736.008897 937.5 718.75 937.5C701.491103 937.5 687.5 923.508897 687.5 906.25L687.46875 687.5L593.75 687.5C576.491103 687.5 562.5 673.508897 562.5 656.25C562.5 638.991103 576.491103 625 593.75 625L687.46875 625L687.5 497.784687C581.490675 482.62115 500 391.452159 500 281.25C500 160.437711 597.937713 62.5 718.75 62.5zM281.25 562.5C194.955508 562.5 125 632.455509 125 718.75C125 805.044491 194.955508 875 281.25 875C367.544491 875 437.5 805.044491 437.5 718.75C437.5 632.455509 367.544491 562.5 281.25 562.5zM718.75 125C632.455509 125 562.5 194.955508 562.5 281.25C562.5 367.544491 632.455509 437.5 718.75 437.5C805.044491 437.5 875 367.544491 875 281.25C875 194.955508 805.044491 125 718.75 125z" fill="#666666"></path></svg>
