<!--?xml version="1.0" encoding="UTF-8"?-->
<svg width="32px" height="32px" viewBox="0 0 32 32" version="1.1" xmlns="http://www.w3.org/2000/svg" xmlns:xlink="http://www.w3.org/1999/xlink">
    <title>744.核算函数</title>
    <g id="744.核算函数" stroke="none" stroke-width="1" fill="none" fill-rule="evenodd">
        <g id="编组" transform="translate(2.000000, 2.000000)" fill="#000000" fill-rule="nonzero">
            <path d="M0.621242434,18.2084069 C2.24586532,19.8171486 5.32007176,21.027674 10.6083811,21.2187916 C11.0703684,23.6877353 12.4721099,25.8381164 14.4471069,27.2876015 C13.6985673,27.3193639 12.9499783,27.3513725 12.1853604,27.3513725 C4.49178134,27.3513725 0,25.4081378 0,23.0029174 L0,23.0029174 L0,19.514418 C0,19.0525292 0.207047979,18.6224536 0.621242434,18.2084069 Z M20.1629962,11.6617792 C24.4796875,11.6617792 27.9839711,15.1659628 28,19.4987338 C28,23.8311107 24.4957657,27.3353436 20.1629962,27.3353436 C15.8306193,27.3353436 12.3262387,23.8311107 12.3262387,19.4987338 C12.3262387,15.1660121 15.8306193,11.6617792 20.1629962,11.6617792 Z M18.1008669,16.610749 C18.0279965,16.8966192 17.9618312,17.167205 17.8697727,17.5592029 L17.8111698,17.8100646 L16.5107528,17.8100646 C16.4664929,17.8100646 16.4282688,17.8372426 16.4119241,17.8757448 L16.4034577,17.9174336 L16.4034577,18.7763885 C16.4034577,18.8208628 16.4304777,18.8590217 16.4689886,18.8753215 L16.5107528,18.8837589 L17.5649273,18.8837589 L17.5241553,19.0576974 L17.5134264,19.1049398 C17.1786654,20.570532 17.0155761,21.2560857 16.8653638,21.799911 C16.7285616,22.2970312 16.4984131,22.5493502 16.117515,22.620213 C16.0821082,22.6271918 16.0322151,22.6325613 15.9673027,22.6363187 C15.9249142,22.6390824 15.8896103,22.6662154 15.8746576,22.7035197 L15.8669806,22.7436877 L15.8669806,23.6047906 C15.8669806,23.6340269 15.8788495,23.6620087 15.899909,23.6822716 C15.9209686,23.7025359 15.9493748,23.71333 15.9785676,23.7121596 C16.0161659,23.7108908 16.0537295,23.7087427 16.0912279,23.7057182 C17.0021646,23.6268018 17.6314504,23.057744 17.8996897,22.0855132 C18.0432998,21.5636992 18.194681,20.9339295 18.4842174,19.6734675 L18.5595545,19.3449104 L18.5702835,19.2971306 L18.6652404,18.8837589 L20.0514947,18.8837589 C20.0959386,18.8837589 20.13407,18.8567186 20.1503582,18.8181816 L20.1587898,18.7763885 L20.1587898,17.9174336 C20.1587898,17.8731447 20.1316307,17.8348931 20.093156,17.8185368 L20.0514947,17.8100646 L18.9130922,17.8100646 C19.0042932,17.4219241 19.0692071,17.1545742 19.140558,16.8754134 C19.2765549,16.3395259 19.7234011,16.107758 20.6490443,16.2235253 L20.8712304,16.2564291 L21.0187615,16.2832725 C21.0619018,16.2914318 21.1039716,16.2725117 21.1273139,16.2383404 L21.14376,16.1995239 L21.3191876,15.3588214 C21.3251799,15.3306006 21.3195714,15.3011543 21.3036265,15.2771196 C21.2876816,15.2530834 21.2627401,15.2364794 21.2344251,15.231052 C21.184532,15.2219251 21.1453693,15.2144089 21.1147903,15.2095782 C19.495705,14.9282707 18.41417,15.3765379 18.1008669,16.610749 Z M21.9162852,17.8100646 L20.802562,17.8100646 C20.7583021,17.8100646 20.720078,17.8372426 20.7037318,17.8757448 L20.6952654,17.9174336 L20.6952654,18.7763885 C20.6952654,18.8208628 20.7222869,18.8590217 20.7607978,18.8753215 L20.802562,18.8837589 L21.2607122,18.8837589 L21.7397858,19.8178728 L20.6421553,21.0311461 L20.2660849,21.0311461 C20.2218265,21.0311461 20.1836024,21.058324 20.1672562,21.0968262 L20.1587898,21.1385151 L20.1587898,21.9974714 C20.1587898,22.0419442 20.1858113,22.0801031 20.2243208,22.0964029 L20.2660849,22.1048404 L21.1185462,22.1048404 L22.2639217,20.8389552 L22.9130577,22.1048404 L23.8068269,22.1048404 C23.8512707,22.1048404 23.8894021,22.0778 23.9056903,22.0392645 L23.9141234,21.9974714 L23.9141234,21.1385151 C23.9141234,21.0942262 23.8869643,21.055976 23.8484882,21.0396183 L23.8068269,21.0311461 L23.5686321,21.0311461 L23.0332284,19.9880525 L24.0321475,18.8837589 L24.3433039,18.8837589 C24.3877463,18.8837589 24.4258792,18.8567186 24.4421674,18.8181816 L24.450599,18.7763885 L24.450599,17.9174336 C24.450599,17.8731447 24.4234399,17.8348931 24.3849638,17.8185368 L24.3433039,17.8100646 L23.5562939,17.8100646 L22.5096283,18.9669701 L21.9162852,17.8100646 Z M0.621291683,10.3714523 C2.40522047,12.139597 5.90960105,13.4138949 12.1534995,13.4138949 L12.1534995,13.4138949 L12.6472477,13.4138949 C11.2932483,15.0546453 10.4810361,17.173067 10.4650071,19.4666266 C3.83877507,19.1959047 0.015881196,17.3641846 4.92485102e-05,15.1660121 L4.92485102e-05,15.1660121 L4.92485102e-05,11.6776604 C4.92485102e-05,11.2157224 0.207097228,10.785696 0.621291683,10.3714523 Z M12.2012416,0 C19.894673,0 25.262636,1.94328393 25.262636,4.3484059 L25.262636,4.3484059 L25.262636,6.96072504 C25.262636,9.36599475 19.894673,11.3092294 12.2012416,11.3092294 C4.50781029,11.3092294 0.015881196,9.38187595 0.015881196,6.96072504 L0.015881196,6.96072504 L0.015881196,4.3484059 C0.015881196,1.94328393 4.50781029,0 12.2012416,0 Z" id="形状" fill="#346bf6"></path>
        </g>
    </g>
</svg>