<!--?xml version="1.0"?-->
<svg xmlns="http://www.w3.org/2000/svg" class="icon" style="vertical-align:middle;fill:currentColor;overflow:hidden;" viewBox="0 0 1024 1024" version="1.1" width="200px" height="200px"><path d="M305.360753 141.566515L305.360753 237.631189L694.636481 237.631189L694.636481 141.566515L841.772488 141.566515C846.218147 141.566515 850.517997 142.141578 854.600547 143.219223C859.348541 144.484068 863.846991 146.438914 867.933609 148.971188C871.060566 150.905334 873.857559 153.109555 876.377569 155.582941L879.876844 159.408342C886.599341 167.586499 890.624747 177.995862 890.624747 189.38303L890.624747 858.430563C890.647925 871.120097 885.509688 883.297256 876.343 892.270134C867.176306 901.243013 854.736122 906.272609 841.772488 906.249925L158.224742 906.249925C145.26111 906.272609 132.820925 901.243013 123.654235 892.270134C114.487544 883.297256 109.349307 871.120097 109.375097 858.430563L109.375097 189.38303C109.375097 168.676319 122.750467 151.013655 141.632198 144.375687C142.351454 144.136991 143.089625 143.896252 143.835404 143.672429C148.383066 142.297896 153.211137 141.566515 158.224742 141.566515L305.360753 141.566515zM602.396719 413.340944C596.182475 370.353992 523.166147 348.615854 488.513834 355.162749C454.119294 359.105313 413.937447 382.900857 410.841243 418.974044L410.841243 463.598219C404.198122 463.598219 395.587727 466.952516 398.413138 493.184053C401.23174 519.431291 419.311426 526.687038 432.879231 539.517456C446.112028 552.031075 443.610803 571.802528 463.137734 582.479769L463.304659 606.063294C463.304659 606.063294 403.152921 624.10145 374.797038 632.329422C346.441156 640.557391 323.068456 681.305403 323.068456 724.459056L697.031663 724.459056C697.031663 681.305403 673.658963 640.557391 646.546725 632.329422C623.495447 626.581906 556.795463 606.062522 556.795463 606.062522L556.795463 580.729066C559.866166 579.311684 560.112866 578.080519 558.416203 577.118841C570.243 566.038544 570.43785 550.161459 581.207031 539.517456C594.197797 526.687409 612.855281 519.408491 615.673503 493.176953C618.499672 466.929719 602.396719 463.598219 602.396719 463.598219L602.396719 413.340944zM354.357093 93.75L648.335134 93.75L648.335134 189.670793L354.357093 189.670793L354.357093 93.75z" fill="#666666"></path></svg>
