<!--?xml version="1.0" encoding="UTF-8"?-->
<svg width="32px" height="32px" viewBox="0 0 32 32" version="1.1" xmlns="http://www.w3.org/2000/svg" xmlns:xlink="http://www.w3.org/1999/xlink">
    <title>1946加班申请</title>
    <g id="1946加班申请" stroke="none" stroke-width="1" fill="none" fill-rule="evenodd">
        <g id="编组-11" transform="translate(2.000000, 2.000000)">
            <path d="M22,16 C25.3137085,16 28,18.6862915 28,22 C28,25.3137085 25.3137085,28 22,28 C18.6862915,28 16,25.3137085 16,22 C16,18.6862915 18.6862915,16 22,16 Z M18.6888967,4.26111343 L18.6888967,7.87087062 L18.7919367,7.90442175 C19.0707445,8.01594034 19.8082066,8.45927269 19.6427625,9.9953799 C19.4402883,11.8794749 18.0998483,12.4022874 17.1665315,13.3238127 C16.7261496,13.7589602 16.4057608,14.6278701 16,15.3517456 C15.5911491,16.0811339 15.0981414,16.6640927 14.9779133,16.7261268 L14.9779133,18.54086 L15.7675162,18.810522 C15.2767968,19.7667996 15,20.8510751 15,22 C15,23.970516 15.8142123,25.7508625 17.1245592,27.0229618 L0,27.0220603 C0,23.9307978 1.49779133,21.0118607 3.31491958,20.4224593 L6.50241062,19.3704949 L8.98674798,18.5409152 L8.98674798,16.7261268 C8.8219583,16.6411002 8.15203333,16.0554083 7.94449257,15.8038368 C7.30450487,15.0280724 7.24604881,14.0196973 6.50997515,13.3238127 C5.53520115,12.4022605 4.23627275,11.8811124 4.03377138,9.99588994 C3.8307807,8.1117949 4.44939143,7.87087062 4.92666403,7.87087062 L4.92666403,4.66571406 C5.14910962,2.07473689 8.03595971,0.365608521 10.5070228,0.0824316545 C12.9966053,-0.38780281 18.2424368,1.17355124 18.6888967,4.26111343 Z M22.5,17.75 L22.3982294,17.7568466 C22.0321539,17.806509 21.75,18.1203042 21.75,18.5 L21.749,22.098 L19.8339749,23.3759623 C19.4893283,23.6057266 19.3961979,24.0713786 19.6259623,24.4160251 C19.8557266,24.7606717 20.3213786,24.8538021 20.6660251,24.6240377 L22.9160251,23.1240377 C23.1246741,22.9849384 23.25,22.7507649 23.25,22.5 L23.25,18.5 C23.25,18.0857864 22.9142136,17.75 22.5,17.75 Z" id="形状" fill="#666666" fill-rule="nonzero"></path>
            <g id="编组" transform="translate(16.000000, 16.000000)"></g>
        </g>
    </g>
</svg>