<!--?xml version="1.0" encoding="UTF-8"?-->
<svg width="32px" height="32px" viewBox="0 0 32 32" version="1.1" xmlns="http://www.w3.org/2000/svg" xmlns:xlink="http://www.w3.org/1999/xlink">
    <title>475.发薪日程@1x</title>
    <g id="475.发薪日程" stroke="none" stroke-width="1" fill="none" fill-rule="evenodd">
        <g id="编组" transform="translate(4.000000, 4.000000)" fill="#000000" fill-rule="nonzero">
            <path d="M0,6.54557083 L0,4.36376719 C0,3.15879028 0.97683326,2.18196352 2.18181817,2.18196352 L3.27272729,2.18196352 L3.27272729,1.09106173 C3.27267016,0.701281972 3.48058377,0.341086161 3.81813566,0.146179783 C4.15568758,-0.0487265945 4.57158516,-0.0487265945 4.90913708,0.146179783 C5.24668897,0.341086161 5.45460258,0.701281972 5.45454546,1.09106173 L5.45454546,2.18196352 L18.5454545,2.18196352 L18.5454545,1.09106173 C18.5455428,0.488635739 19.0339336,0.000319805538 19.6363637,0.000319805538 C20.2387937,0.000319805538 20.7271844,0.488635739 20.7272727,1.09106173 L20.7272727,2.18196352 L21.8181818,2.18196352 C23.0231668,2.18196352 24,3.15879028 24,4.36376719 L24,6.54557083 L0,6.54557083 Z M0,7.63647265 L24,7.63647265 L24,21.8181964 C24,23.0231732 23.0231668,24 21.8181818,24 L2.18181817,24 C0.97683326,24 0,23.0231732 0,21.8181964 L0,7.63647265 Z M6.47781817,15.1680588 L10.1978182,18.7353077 C10.2278445,18.7746969 10.2606558,18.8118829 10.296,18.8465798 C10.4800497,19.0355839 10.7330872,19.1415563 10.9968964,19.1401446 C11.2607056,19.1386754 11.5125706,19.0299462 11.6945455,18.8389434 L17.8407273,12.7418932 C18.0304721,12.5589149 18.1384697,12.3071908 18.1403649,12.0435997 C18.1421649,11.7800086 18.0377066,11.5267954 17.8505455,11.3411753 C17.6654043,11.153794 17.4125348,11.0489697 17.14912,11.050378 C16.8857052,11.0518441 16.6339946,11.1594213 16.4509091,11.3488116 L10.9887273,16.7662301 L7.86109091,13.7684318 C7.67759146,13.5822132 7.42707447,13.4773648 7.16563637,13.4773648 C6.90419827,13.4773648 6.65368125,13.5822132 6.47018183,13.7684318 C6.28279934,13.9535718 6.17797434,14.2064394 6.17938265,14.4698525 C6.1808487,14.7332656 6.28842665,14.9849745 6.47781817,15.1680588 Z" id="形状" fill="#666666"></path>
        </g>
    </g>
</svg>