<!--?xml version="1.0" encoding="UTF-8"?-->
<svg width="32px" height="32px" viewBox="0 0 32 32" version="1.1" xmlns="http://www.w3.org/2000/svg" xmlns:xlink="http://www.w3.org/1999/xlink">
    <title>1796.付款排程</title>
    <g id="1796.付款排程" stroke="none" stroke-width="1" fill="none" fill-rule="evenodd">
        <path d="M28,14 L28,28 C28,29.1045695 27.1045695,30 26,30 L6,30 C4.8954305,30 4,29.1045695 4,28 L4,14 L28,14 Z M18.4932749,17.0913666 C18.1916081,16.9033924 17.8077598,17.0149543 17.6333743,17.3389424 L16.0613999,20.2782676 C16.011974,20.3697946 15.9835375,20.4714946 15.978216,20.575766 C15.9661894,20.4743924 15.9401318,20.3719999 15.8905222,20.2782676 L14.3426009,17.3389424 C14.1722243,17.0154638 13.793387,16.9039019 13.4967313,17.0913666 C13.2000757,17.2788314 13.0988519,17.6934953 13.2702307,18.0179927 L14.617709,20.575766 L13.1760225,20.575766 C12.7986058,20.5902649 12.5,20.9055091 12.5,21.2894566 C12.5,21.6734041 12.7986058,21.9886483 13.1760225,22.0031472 L15.2836809,22.0031472 L15.2836809,23.4310377 L13.1760225,23.4310377 C12.7986058,23.4455366 12.5,23.7607808 12.5,24.1447283 C12.5,24.5286758 12.7986058,24.8439199 13.1760225,24.8584189 L15.2836809,24.8584189 L15.2836809,26.3576275 C15.2836809,26.7121805 15.5978754,27 15.9867349,27 C16.3745921,27 16.6892877,26.711671 16.6892877,26.3576275 L16.6892877,24.8584189 L18.7969461,24.8584189 C19.1743628,24.8439199 19.4729686,24.5286758 19.4729686,24.1447283 C19.4729686,23.7607808 19.1743628,23.4455366 18.7969461,23.4310377 L16.6892877,23.4310377 L16.6892877,22.0031472 L18.7969461,22.0031472 C19.1853044,22.0031472 19.5,21.6827251 19.5,21.2894566 C19.5,20.8956787 19.1853045,20.575766 18.7969461,20.575766 L17.3552596,20.575766 L18.7227822,18.0179927 C18.8966665,17.6940047 18.7934384,17.2788314 18.4932749,17.0913666 Z M21.5,2 C22.3284271,2 23,2.67157288 23,3.5 L22.999,5.999 L26,5.99999999 C27.1045695,5.99999999 28,6.89543049 28,7.99999999 L28,12 L4,12 L4,7.99999999 C4,6.89543049 4.8954305,5.99999999 6,5.99999999 L9,5.999 L9,3.5 C9,2.67157288 9.67157288,2 10.5,2 C11.3284271,2 12,2.67157288 12,3.5 L12,5.999 L19.999,5.999 L20,3.5 C20,2.67157288 20.6715729,2 21.5,2 Z" id="形状结合" fill="#666666" fill-rule="nonzero"></path>
    </g>
</svg>