<!--?xml version="1.0" encoding="UTF-8"?-->
<svg width="32px" height="32px" viewBox="0 0 32 32" version="1.1" xmlns="http://www.w3.org/2000/svg" xmlns:xlink="http://www.w3.org/1999/xlink">
    <title>715.付款业务@1x</title>
    <g id="715.付款业务" stroke="none" stroke-width="1" fill="none" fill-rule="evenodd">
        <g id="编组" transform="translate(4.000000, 2.000000)" fill="#000000" fill-rule="nonzero">
            <path d="M12.327,0.0592304029 L23.841,6.99531701 C23.937,7.03176646 24,7.12289017 24,7.22312618 L24,9.03344977 C24,9.06382433 23.994,9.09116141 23.985,9.11849853 C23.94,9.24607165 23.802,9.30985825 23.676,9.26429641 L21.84,8.58694377 L21.84,24.9345302 C21.84,26.0766135 20.928,27 19.8,27 L4.2,27 C3.07199998,27 2.15999998,26.0766135 2.15999998,24.9345302 L2.15999998,8.58694377 L0.320999975,9.26429641 C0.293999987,9.27340877 0.266999999,9.27948366 0.239999982,9.27948366 C0.107999981,9.27948366 0,9.17013529 0,9.03648721 L0,7.22616365 C0,7.12592761 0.062999991,7.03480394 0.15899999,6.99835446 L11.67,0.0592304029 C11.883,-0.0197434676 12.114,-0.0197434676 12.327,0.0592304029 Z M8.87232038,9.75281277 L6.99166204,9.75281277 C6.94776876,9.75281277 6.90387548,9.76294198 6.8633586,9.78657683 C6.73167874,9.85748136 6.68440907,10.0229253 6.75531359,10.1512287 L10.2633998,16.6204233 L8.3388482,16.6204233 C8.19028631,16.6204233 8.06873569,16.741974 8.06873569,16.8905358 L8.06873569,17.8055419 C8.06873569,17.9541039 8.19028631,18.0756545 8.3388482,18.0756545 L10.904917,18.0756545 L10.904917,19.392453 L8.3388482,19.392453 C8.19028631,19.392453 8.06873569,19.5140037 8.06873569,19.6625655 L8.06873569,20.5775716 C8.06873569,20.7261335 8.19028631,20.8476842 8.3388482,20.8476842 L10.904917,20.8476842 L10.904917,22.9883258 C10.904917,23.1368877 11.0264677,23.2584383 11.1750296,23.2584383 L12.8598564,23.2584383 C13.0084182,23.2584383 13.1299689,23.1368877 13.1299689,22.9883258 L13.1299689,20.8443078 L15.706167,20.8443078 C15.8547288,20.8443078 15.9762795,20.7227571 15.9762795,20.5741953 L15.9762795,19.6591892 C15.9762795,19.5106272 15.8547288,19.3890766 15.706167,19.3890766 L13.1299689,19.3890766 L13.1299689,18.0722781 L15.706167,18.0722781 C15.8547288,18.0722781 15.9762795,17.9507274 15.9762795,17.8021656 L15.9762795,16.8871595 C15.9762795,16.7385977 15.8547288,16.6170469 15.706167,16.6170469 L13.7613568,16.6170469 L17.2626903,10.1478523 C17.2829487,10.1073354 17.2964544,10.0634422 17.2964544,10.0195489 C17.2930779,9.87436342 17.1715273,9.75281277 17.0229654,9.75281277 L15.1828239,9.75281277 C15.0815317,9.75281277 14.9869923,9.81021168 14.9430991,9.90137466 L12.0832829,15.6007487 L11.9718615,15.6007487 L9.11204525,9.90137466 C9.06477558,9.81021168 8.9736126,9.75281277 8.87232038,9.75281277 Z" id="形状" fill="#666666"></path>
        </g>
    </g>
</svg>