<!--?xml version="1.0" encoding="UTF-8"?-->
<svg width="32px" height="32px" viewBox="0 0 32 32" version="1.1" xmlns="http://www.w3.org/2000/svg" xmlns:xlink="http://www.w3.org/1999/xlink">
    <title>272.公司动态付款计划</title>
    <g id="272.公司动态付款计划" stroke="none" stroke-width="1" fill="none" fill-rule="evenodd">
        <g id="公司动态付款计划" transform="translate(4.000000, 4.000000)" fill="#000000" fill-rule="nonzero">
            <path d="M13.4537249,0 L16.9886122,2.35664226 L16.9886122,24 L0,24 L0,21.5233363 L1.67076678,21.5233363 L1.67076678,2.79021968 L13.4537249,0 Z M5.53846154,15.6923077 C5.02866024,15.6923077 4.61538462,16.1055834 4.61538462,16.6153846 L4.61538462,16.6153846 L4.61538462,19.3846154 C4.61538462,19.8944166 5.02866024,20.3076923 5.53846154,20.3076923 C6.04826283,20.3076923 6.46153846,19.8944166 6.46153846,19.3846154 L6.46153846,19.3846154 L6.46153846,16.6153846 C6.46153846,16.1055834 6.04826283,15.6923077 5.53846154,15.6923077 Z M9.23076923,13.8461538 C8.72096794,13.8461538 8.30769231,14.2594295 8.30769231,14.7692308 L8.30769231,14.7692308 L8.30769231,19.3846154 C8.30769231,19.8944166 8.72096794,20.3076923 9.23076923,20.3076923 C9.7405705,20.3076923 10.1538462,19.8944166 10.1538462,19.3846154 L10.1538462,19.3846154 L10.1538462,14.7692308 C10.1538462,14.2594295 9.7405705,13.8461538 9.23076923,13.8461538 Z M12.9230769,12.9230769 C12.4132757,12.9230769 12,13.3363526 12,13.8461538 L12,13.8461538 L12,19.3846154 C12,19.8944166 12.4132757,20.3076923 12.9230769,20.3076923 C13.4328782,20.3076923 13.8461538,19.8944166 13.8461538,19.3846154 L13.8461538,19.3846154 L13.8461538,13.8461538 C13.8461538,13.3363526 13.4328782,12.9230769 12.9230769,12.9230769 Z M14.5049618,6.66151172 L14.4680877,6.66094494 L11.1860389,6.77451923 L11.11193,6.78458969 C10.9449691,6.82481732 10.8236277,6.97797486 10.8297985,7.15629858 L10.8297985,7.15629858 L10.8386975,7.22509106 C10.8539543,7.29244895 10.8879219,7.35466793 10.93734,7.40423126 L10.93734,7.40423126 L12.0200789,8.49111886 L10.4581956,9.92437874 L8.21621069,7.79591099 C7.85903648,7.45682139 7.29856217,7.45785848 6.9426453,7.7982676 L6.9426453,7.7982676 L4.2717774,10.3527621 C3.96681833,10.6444337 3.94979582,11.1259807 4.23339843,11.4384578 L4.23339843,11.4384578 L4.25726202,11.4635185 C4.53941296,11.7459667 4.99711104,11.7462078 5.27955929,11.4640568 L5.27955929,11.4640568 L7.57830522,9.16773061 L9.8402867,11.2352148 C10.1908761,11.5556586 10.7274106,11.5577487 11.080486,11.2400461 L11.080486,11.2400461 L13.0204889,9.49310456 L13.7328644,10.2079729 L13.7907171,10.2553714 C13.9338956,10.3502086 14.1286806,10.3347234 14.255035,10.2087392 C14.309653,10.1542813 14.3458461,10.0840866 14.3585337,10.008009 L14.3585337,10.008009 L14.845058,7.09069304 L14.8498996,7.01605989 C14.8436166,6.84443612 14.7175951,6.69510572 14.5415954,6.66575403 L14.5415954,6.66575403 L14.5049618,6.66151172 Z M21.6434084,21.6433578 L21.6434084,2.79021968 L18.108521,0.433577413 L16.3410773,0.433577413 L18.108521,1.61189855 L18.108521,24 L24,24 L24,21.6433578 L21.6434084,21.6433578 Z" id="形状" fill="#666666"></path>
        </g>
    </g>
</svg>