<!--?xml version="1.0" encoding="UTF-8"?-->
<svg width="32px" height="32px" viewBox="0 0 32 32" version="1.1" xmlns="http://www.w3.org/2000/svg" xmlns:xlink="http://www.w3.org/1999/xlink">
    <title>1332-待生效</title>
    <g id="1332-待生效" stroke="none" stroke-width="1" fill="none" fill-rule="evenodd">
        <g id="编组" transform="translate(4.000000, 5.000000)" fill="#000000" fill-rule="nonzero">
            <path d="M19.6205364,12.6327928 C22.0484305,12.6327928 24,14.5843623 24,17.0122564 C24,19.4401505 22.0484305,21.39172 19.6205364,21.39172 C17.1926423,21.39172 15.2410728,19.4401505 15.2410728,17.0122564 C15.2410728,14.5843623 17.1926423,12.6327928 19.6205364,12.6327928 Z M19.6205364,13.8583502 C17.8755346,13.8583502 16.4666302,15.2672546 16.4666302,17.0122564 C16.4666302,18.7572582 17.8755346,20.1661627 19.6205364,20.1661627 C21.3655382,20.1661627 22.7744427,18.7572582 22.7744427,17.0122564 C22.7744427,15.2672546 21.3655382,13.8583502 19.6205364,13.8583502 Z M12.2103253,-3.60787947e-16 C12.5378118,-3.60787947e-16 12.8097453,0.235809285 12.866132,0.546748864 L12.8768606,0.666559107 L12.8768606,2.33684844 L19.6412278,2.33684844 C20.4937059,2.33684844 21.1969043,2.98703896 21.2814741,3.81730613 L21.2900006,3.98562128 L21.2900006,11.1044156 C21.2900006,11.4725329 20.9915826,11.7709509 20.6234653,11.7709509 C20.2962499,11.7709509 20.0241056,11.5351638 19.9676688,11.2242261 L19.95693,11.1044156 L19.95693,3.98562128 C19.95693,3.83636591 19.8526914,3.71103241 19.7134468,3.67826887 L19.6412278,3.66991908 L12.8523928,3.66991908 C12.6884724,4.79696451 11.7157078,5.6656692 10.5439632,5.6656692 C9.43731562,5.6656692 8.50838679,4.89080608 8.27053807,3.85526328 L8.23584312,3.66991908 L1.64910606,3.66991908 C1.49985066,3.66991908 1.37427238,3.77393037 1.34143889,3.91330491 L1.33307064,3.98562128 L1.33307064,17.2367356 C1.33307064,17.3859911 1.43732675,17.5113071 1.57677123,17.5440656 L1.64910606,17.5524141 L13.7401466,17.5524141 C14.1082639,17.5524141 14.4066819,17.850832 14.4066819,18.2189494 C14.4066819,18.5461648 14.1708948,18.8183091 13.859957,18.8747459 L13.7401466,18.8854847 L1.64910606,18.8854847 C0.796583375,18.8854847 0.0931311086,18.2352942 0.00852974796,17.405027 L-9.01969868e-16,17.2367119 L-9.01969868e-16,3.98559749 C-9.01969868e-16,3.13338718 0.650190525,2.42995444 1.48071264,2.3453543 L1.64908227,2.33682465 L8.21137525,2.33682465 L8.21137525,0.666559107 C8.21137525,0.339347573 8.44718453,0.0671814539 8.75809067,0.0107397395 L8.87788675,-3.60787947e-16 L12.2103253,-3.60787947e-16 Z M19.8640323,14.9592747 L19.8629937,16.8789684 L21.7473747,16.8795453 L21.7473747,18.0681745 L18.6384748,18.0681745 L18.6384748,14.9592747 L19.8640323,14.9592747 Z M16.0429035,10.4795328 C16.4113496,10.4795328 16.7094625,10.7780028 16.7094625,11.1460681 C16.7094625,11.4732373 16.4739164,11.7454175 16.1628014,11.8018628 L16.0429035,11.8126034 L4.19469309,11.8126034 C3.8262707,11.8126034 3.52815777,11.5141572 3.52815777,11.1460681 C3.52815777,10.8188778 3.76368499,10.5467139 4.07479589,10.4902724 L4.19469309,10.4795328 L16.0429035,10.4795328 Z M17.5758347,7.65387428 C17.9442571,7.65387428 18.24237,7.95232043 18.24237,8.3204096 C18.24237,8.64759993 18.0068239,8.91978255 17.6957256,8.9762282 L17.5758347,8.9869687 L4.19469309,8.9869687 C3.8262707,8.9869687 3.52815777,8.68847495 3.52815777,8.3204096 C3.52815777,7.99324038 3.76368499,7.72106012 4.07477918,7.66461475 L4.19466927,7.65387428 L17.5758347,7.65387428 Z M11.5437663,1.33309442 L9.54444588,1.33309442 L9.54444588,3.33272419 C9.54444588,3.88406055 9.99260304,4.33255096 10.5439394,4.33255096 C11.0493311,4.33255096 11.4683035,3.95567445 11.5346227,3.46821063 L11.5437663,3.33272419 L11.5437663,1.33309442 Z" id="形状" fill="#346bf6"></path>
        </g>
    </g>
</svg>