<!--?xml version="1.0" encoding="UTF-8"?-->
<svg width="32px" height="32px" viewBox="0 0 32 32" version="1.1" xmlns="http://www.w3.org/2000/svg" xmlns:xlink="http://www.w3.org/1999/xlink">
    <title>19.待结算</title>
    <g id="19.待结算" stroke="none" stroke-width="1" fill="none" fill-rule="evenodd">
        <g id="待结算" transform="translate(4.000000, 4.000000)" fill="#000000" fill-rule="nonzero">
            <path d="M17.7777778,11.5555556 C21.2142162,11.5555556 24,14.3413394 24,17.7777778 C24,21.2142162 21.2142162,24 17.7777778,24 C14.3413394,24 11.5555556,21.2142162 11.5555556,17.7777778 C11.5555556,14.3413394 14.3413394,11.5555556 17.7777778,11.5555556 Z M21.3333333,0 C21.8242531,0 22.2222222,0.397969124 22.2222222,0.888888889 L22.2232978,11.1256525 C20.9518862,10.2742992 19.4228165,9.77777778 17.7777778,9.77777778 C13.3594998,9.77777778 9.77777778,13.3594998 9.77777778,17.7777778 C9.77777778,19.4228165 10.2742992,20.9518862 11.1256525,22.2232978 L0.888888889,22.2222222 C0.397969124,22.2222222 0,21.8242531 0,21.3333333 L0,0.888888889 C0,0.397969124 0.397969124,0 0.888888889,0 L21.3333333,0 Z M17.7777778,13.3333333 C17.3219237,13.3333333 16.9462158,13.6764802 16.8948691,14.118559 L16.8888889,14.2222222 L16.8888889,17.7777778 L16.8965977,17.8946169 C16.9170275,18.0487155 16.9775535,18.1948383 17.0720717,18.3182484 L17.1492384,18.4063171 L18.9270162,20.1840949 L19.0107561,20.2580403 C19.3304007,20.5065791 19.7807104,20.5065791 20.100355,20.2580403 L20.1840949,20.1840949 L20.2580403,20.100355 C20.5065791,19.7807104 20.5065791,19.3304007 20.2580403,19.0107561 L20.1840949,18.9270162 L18.6666667,17.4088889 L18.6666667,14.2222222 L18.6606865,14.118559 C18.6093397,13.6764802 18.2336318,13.3333333 17.7777778,13.3333333 Z M8,9.77777778 L4.44444444,9.77777778 C3.95352468,9.77777778 3.55555556,10.1757469 3.55555556,10.6666667 C3.55555556,11.1225207 3.89870239,11.4982286 4.34078123,11.5495754 L4.44444444,11.5555556 L8,11.5555556 C8.49091974,11.5555556 8.88888889,11.1575864 8.88888889,10.6666667 C8.88888889,10.1757469 8.49091974,9.77777778 8,9.77777778 Z M11.5555556,4.44444444 L4.44444444,4.44444444 C3.95352468,4.44444444 3.55555556,4.84241357 3.55555556,5.33333333 C3.55555556,5.78918741 3.89870239,6.16489526 4.34078123,6.21624201 L4.44444444,6.22222222 L11.5555556,6.22222222 C12.0464753,6.22222222 12.4444444,5.8242531 12.4444444,5.33333333 C12.4444444,4.84241357 12.0464753,4.44444444 11.5555556,4.44444444 Z" id="形状" fill="#666666"></path>
        </g>
    </g>
</svg>