<!--?xml version="1.0" encoding="UTF-8"?-->
<svg width="32px" height="32px" viewBox="0 0 32 32" version="1.1" xmlns="http://www.w3.org/2000/svg" xmlns:xlink="http://www.w3.org/1999/xlink">
    <title>236.待开发票</title>
    <g id="236.待开发票" stroke="none" stroke-width="1" fill="none" fill-rule="evenodd">
        <g id="待开发票" transform="translate(6.000000, 4.000000)" fill="#000000" fill-rule="nonzero">
            <path d="M18.3333333,0 C19.2538079,0 20,0.741045928 20,1.65517241 L20,24 L17.6115922,22.3296028 L15.0964868,24 L12.5946487,22.3296028 L10.1025237,24 L7.60129509,22.3296028 L5.09126651,24 L2.55847925,22.3296028 L0,24 L0,1.65517241 C0,0.741045928 0.74619208,0 1.66666667,0 L18.3333333,0 Z M10,5.79310345 C7.23857624,5.79310345 5,8.01624123 5,10.7586207 C5,13.5010001 7.23857624,15.7241379 10,15.7241379 C12.7614238,15.7241379 15,13.5010001 15,10.7586207 C15,8.01624123 12.7614238,5.79310345 10,5.79310345 Z M10,7.86206897 C10.4273632,7.86206897 10.7795893,8.1815505 10.8277269,8.59314117 L10.8333333,8.68965517 L10.8333333,10.7586207 L12.5,10.7586207 C12.9273632,10.7586207 13.2795893,11.0781022 13.3277269,11.4896929 L13.3333333,11.5862069 C13.3333333,12.0106227 13.0116332,12.3604198 12.5971842,12.4082253 L12.5,12.4137931 L10,12.4137931 C9.57263683,12.4137931 9.22041067,12.0943116 9.17227309,11.6827209 L9.16666667,11.5862069 L9.16666667,8.68965517 C9.16666667,8.23259197 9.53976275,7.86206897 10,7.86206897 Z" id="形状" fill="#346bf6"></path>
        </g>
    </g>
</svg>