<!--?xml version="1.0" encoding="UTF-8"?-->
<svg width="32px" height="32px" viewBox="0 0 32 32" version="1.1" xmlns="http://www.w3.org/2000/svg" xmlns:xlink="http://www.w3.org/1999/xlink">
    <title>1732.人员管理</title>
    <g id="1732.人员管理" stroke="none" stroke-width="1" fill="none" fill-rule="evenodd">
        <g id="干部管理" transform="translate(2.012423, 2.001958)" fill="#333333" fill-rule="nonzero">
            <path d="M22.3332538,16.9721983 C22.6037164,16.9721983 22.7389478,17.03974 22.9417209,17.3102027 C23.0092627,17.3777445 23.0092627,17.4454341 23.0092627,17.5805176 L23.009803,18.5599496 C23.0119643,18.594531 23.022771,18.594531 23.0768044,18.594531 C23.3472671,18.6622205 23.6852716,18.8649936 23.8880447,18.9325354 L23.8880447,18.8649936 L24.496364,18.2565265 C24.6315954,18.1212952 24.9020581,17.9862116 25.1723729,18.1889847 C25.2400625,18.1889847 25.2400625,18.2565265 25.3076043,18.2565265 L26.051155,19.0000772 C26.1863863,19.1353085 26.3217654,19.3380816 26.1863863,19.6085443 C26.1863863,19.6760861 26.1188445,19.7437757 26.051155,19.879007 L25.4428356,20.4874741 L25.4428356,20.5550159 C25.5103774,20.8254786 25.7131505,21.0282517 25.7808401,21.2985666 C25.7808401,21.3662562 25.8483818,21.3662562 25.8483818,21.3662562 L26.6596221,21.3662562 C26.9300848,21.3662562 27.1328579,21.5013397 27.2680892,21.7718024 L27.2680892,23.0561306 C27.2680892,23.3265933 27.2003997,23.4616769 26.9300848,23.6645978 C26.862543,23.7321395 26.7948534,23.7321395 26.6596221,23.7321395 L25.8154215,23.7326799 C25.7808401,23.7348412 25.7808401,23.7456479 25.7808401,23.7996813 C25.7131505,24.070144 25.6456087,24.2053753 25.5103774,24.4756902 C25.5103774,24.5433798 25.4428356,24.5433798 25.4428356,24.6109216 L25.5103774,24.6109216 L26.1188445,25.2192409 C26.3893072,25.4897036 26.3893072,25.827708 26.1863863,25.9629394 C25.9159236,26.2332543 25.7131505,26.5712587 25.3751461,26.7740318 C25.1048312,27.0444945 24.9020581,26.9092632 24.6315954,26.7740318 L24.023276,26.1657125 L23.9555865,26.1657125 C23.6852716,26.2332543 23.4824985,26.4360274 23.2120358,26.5037169 C23.144494,26.5037169 23.144494,26.5712587 23.144494,26.5712587 L23.144494,27.382499 C23.144494,27.6528139 23.0092627,27.855587 22.7389478,27.9908183 L21.4544717,27.9908183 C21.1841569,27.9908183 21.0489255,27.9232765 20.8461524,27.6528139 C20.7784628,27.5852721 20.7784628,27.5175825 20.7784628,27.382499 L20.7784628,26.5712587 C20.7784628,26.5037169 20.7784628,26.5037169 20.7109211,26.5037169 C20.4404584,26.4360274 20.305227,26.3684856 20.0349122,26.2332543 C19.8319912,26.0980229 19.6969077,26.0980229 19.6292181,26.0304812 C19.4939868,26.300796 19.2236719,26.4360274 19.0208988,26.7064901 C18.8856675,26.8415736 18.6152048,26.9768049 18.3448899,26.7740318 C18.2773481,26.7740318 18.2773481,26.7064901 18.2096585,26.7064901 L17.4661079,25.9629394 C17.3308765,25.827708 17.1956452,25.6249349 17.3308765,25.3544722 C17.3308765,25.2869305 17.3985661,25.2192409 17.4661079,25.0841574 L18.0744272,24.4756902 L18.0744272,24.4081485 C18.0068854,24.1376858 17.8041123,23.9349127 17.7365705,23.6645978 C17.7365705,23.5969082 17.668881,23.5969082 17.668881,23.5969082 L16.8577885,23.5969082 C16.5874736,23.5969082 16.3847005,23.4616769 16.2494692,23.191362 L16.2494692,21.9070337 C16.2494692,21.6365711 16.317011,21.5013397 16.5874736,21.2985666 C16.6548676,21.2310248 16.7225572,21.2310248 16.8577885,21.2310248 L17.8041123,21.2310248 C17.8716541,21.2310248 17.8716541,21.2310248 17.8716541,21.1633353 C17.9393437,20.8930204 18.0068854,20.757789 18.1421168,20.4874741 C18.1421168,20.4197846 18.2096585,20.4197846 18.2096585,20.3522428 L17.6013392,19.7437757 C17.3308765,19.473313 17.3308765,19.1353085 17.6013392,18.9325354 L18.3448899,18.1889847 C18.6152048,17.9185221 18.9532092,17.9185221 19.1561301,18.1889847 L19.7644495,18.7973041 L19.8319912,18.7973041 C20.1024539,18.7297623 20.305227,18.5269892 20.5756897,18.4592996 C20.6433793,18.4592996 20.6433793,18.3917579 20.6433793,18.3917579 L20.6433793,17.5805176 C20.6433793,17.3102027 20.7784628,17.1074296 21.0489255,16.9721983 Z M11.3407932,0 C11.8091518,0.040643299 12.1903121,0.0937012784 12.4836828,0.162425402 C12.7772013,0.231149526 13.0176618,0.315392 13.2018129,0.412196948 C13.3862596,0.512253361 13.5421821,0.627532536 13.673423,0.768232247 C13.8084227,0.909026678 13.9458421,1.04748083 14.0856199,1.18353287 L14.6665974,1.18353287 C14.8471846,1.18305661 15.0269239,1.20823603 15.2004287,1.25831654 C15.3721651,1.30841864 15.547153,1.40211992 15.7187416,1.53942037 C15.8906258,1.67686862 16.081132,1.87358219 16.2840529,2.12956107 C16.7524115,2.71984957 17.0991358,3.36615192 17.3209743,4.06580784 C17.5457687,4.76516816 17.7080463,5.43053592 17.807955,6.06131992 C17.9109672,6.79201254 17.9703804,7.51029047 17.9922538,8.21910961 C18.0327493,8.31916602 18.0640816,8.43459299 18.0828515,8.57514491 C18.1045771,8.71244536 18.1171396,8.8810781 18.1295543,9.07779167 C18.1390131,9.27465303 18.123347,9.52132091 18.0828515,9.81794309 C18.0422082,10.211518 17.9798392,10.5236586 17.8985526,10.7484529 C17.8175616,10.976351 17.7268162,11.1482352 17.6238039,11.2669136 C17.5206438,11.4042141 17.4112764,11.5041227 17.2896421,11.563388 C17.2085032,11.8789278 17.1179056,12.166239 17.0148933,12.4222179 C16.9133258,12.6569357 16.8060448,12.8891396 16.6931462,13.1186224 C16.5808229,13.3466682 16.4435225,13.5184046 16.2810971,13.6369353 C15.9928978,13.8654125 15.7076324,14.0975663 15.4253709,14.3333397 C15.2005765,14.5208901 15.0507136,14.8424894 14.9664711,15.2953296 C14.9039543,15.5702261 14.8851845,15.8480785 14.9039543,16.1228272 C14.92568,16.3975759 15.0006115,16.6788275 15.1318524,16.9661387 C15.2630933,17.2533021 15.4784289,17.5218435 15.7719474,17.7779701 C15.8904257,17.8799892 16.0171762,17.9719871 16.1508907,18.0530144 C15.3358572,19.4308076 14.9068212,21.0026291 14.9088315,22.6034382 C14.9071048,24.1523751 15.3090594,25.6750247 16.0750725,27.0212909 C15.8921037,27.0390261 15.7092828,27.0585349 15.5260185,27.0747922 C14.7747923,27.1424766 14.0219908,27.1913624 13.2683202,27.2214037 C12.5373319,27.2496323 11.8941333,27.2651507 11.3444881,27.2651507 C10.7946951,27.2651507 10.1609552,27.2463809 9.43646993,27.2058854 C8.71508832,27.1655376 7.97168543,27.1185392 7.20980832,27.0591261 C6.44793121,26.999713 5.68915776,26.9311367 4.93644387,26.8531015 C4.18387776,26.7750664 3.49693211,26.6844688 2.87856279,26.587516 C2.25694201,26.4877552 1.72931809,26.3940539 1.29214399,26.3067078 C0.854969886,26.2192139 0.586280731,26.1255126 0.483268442,26.0254562 C0.298969556,25.8880079 0.158565432,25.4478779 0.0555531434,24.7106824 C-0.0476069391,23.970531 -0.00711143396,23.0088366 0.177187453,21.8284074 C0.280347535,21.1569801 0.558199906,20.6448746 1.01724749,20.2919429 C1.47629508,19.9359076 2.003919,19.6549516 2.6035185,19.4487792 C3.22494307,19.2354703 3.85654987,19.0530664 4.4960183,18.9022377 C5.15813459,18.7430638 5.73275694,18.5089584 6.21988535,18.1934186 C6.60725294,17.9562095 6.906831,17.7314151 7.11921071,17.512828 C7.33159042,17.2973447 7.48470481,17.0786098 7.5782583,16.8631264 C7.66885591,16.6476431 7.71570655,16.419745 7.71570655,16.1823881 C7.71570655,15.9451791 7.70639554,15.6797414 7.68437426,15.3829714 C7.64387875,14.9489009 7.4969717,14.6145913 7.24099281,14.3775301 C6.96794518,14.1229626 6.68781515,13.8760992 6.40093277,13.6372308 C6.23835958,13.5187002 6.10105912,13.3469638 5.98873582,13.1189179 C5.87577213,12.8894663 5.7684904,12.6572607 5.66698869,12.4225135 C5.5639764,12.1665346 5.47337879,11.8792234 5.39223999,11.5636836 C5.35159669,11.5230403 5.28907991,11.454464 5.2079411,11.3576591 C5.14542432,11.2576026 5.07670019,11.1265095 4.99556139,10.9578768 C4.91457038,10.7890962 4.82397277,10.5486357 4.72081269,10.2333915 C4.61765261,9.91785171 4.55217995,9.63689567 4.52084766,9.39022779 C4.48966316,9.14341212 4.4958705,8.931328 4.53636601,8.75308866 C4.55823949,8.53760528 4.6081938,8.35035052 4.6894804,8.19102878 C4.6894804,7.50097946 4.72997591,6.81078235 4.8112625,6.12073303 C4.89240131,5.54921435 5.02349442,4.92759357 5.20779331,4.25631406 C5.39209219,3.58503456 5.68546292,2.98543505 6.09145252,2.451456 C6.45694663,1.95797245 6.85347743,1.54902697 7.28119273,1.22417616 C7.70905582,0.899473155 8.14948139,0.646450144 8.60838118,0.471610062 C9.05628973,0.296933369 9.52247162,0.173335427 9.99808642,0.103160082 C10.466445,0.0342881649 10.9130779,0 11.3407932,0 Z M12.0528638,19.23034 L10.6505961,19.23034 C10.5069405,19.3677882 10.3975731,19.4957776 10.3164343,19.6144561 C10.2356954,19.7133838 10.1684984,19.8226287 10.1166171,19.9393069 C10.0666628,20.0576897 10.0697664,20.1672049 10.1322832,20.2640099 C10.2759388,20.5386108 10.3977209,20.7820272 10.4976295,20.9883474 C10.6007896,21.1945198 10.7100092,21.3567974 10.8317913,21.4754758 C10.7912958,21.6534195 10.7286312,21.9033389 10.6476402,22.2311456 C10.5663536,22.5561442 10.49157,22.8932619 10.4197422,23.2368825 C10.3479144,23.5833112 10.2885013,23.908162 10.2352955,24.2140952 C10.185489,24.5201762 10.1605118,24.7511779 10.1605118,24.9104996 C10.1605118,25.010556 10.2072147,25.125983 10.2978123,25.2665349 C10.3971954,25.414867 10.504553,25.5576979 10.6194116,25.694398 C10.7411937,25.8411573 10.869331,25.9660431 11.0004241,26.062848 C11.1315172,26.1627566 11.2501956,26.2096073 11.350252,26.2096073 C11.4534121,26.2096073 11.5750464,26.1596529 11.7155983,26.062848 C11.8621184,25.9609739 11.9999402,25.8471276 12.1276475,25.7224788 C12.2588884,25.5943416 12.3715073,25.4570412 12.4619571,25.3070304 C12.5527025,25.1602712 12.5994053,25.0353854 12.5994053,24.9385805 C12.5994053,24.819902 12.5682209,24.6169811 12.5089555,24.3326258 C12.446291,24.0453146 12.3806705,23.726819 12.3089905,23.3707837 C12.2371627,23.015044 12.1622312,22.6714233 12.0809446,22.3371137 C11.9998058,22.0030997 11.9279781,21.7345584 11.8684171,21.5379926 C11.990347,21.4377884 12.1090255,21.297532 12.2182451,21.1099817 C12.36207,20.860525 12.4995622,20.6074703 12.6305898,20.3510605 C12.6929588,20.232382 12.6960625,20.1105999 12.6461082,19.9830539 C12.5961539,19.8549166 12.5181188,19.7331345 12.4182101,19.6144561 C12.3150501,19.4957776 12.1932679,19.3677882 12.0528638,19.23034 Z M21.7246388,19.9465488 C20.3724732,19.9465488 19.2232285,21.0282517 19.2232285,22.4478113 C19.2232285,23.7998291 20.3050792,24.9490738 21.7246388,24.9490738 C23.1443462,24.9490738 24.2259013,23.8675187 24.2259013,22.4478113 C24.2259013,21.0956457 23.1441984,19.9465488 21.7246388,19.9465488 Z" id="形状结合" fill="#666666"></path>
        </g>
    </g>
</svg>