<!--?xml version="1.0" encoding="UTF-8"?-->
<svg width="32px" height="32px" viewBox="0 0 32 32" version="1.1" xmlns="http://www.w3.org/2000/svg" xmlns:xlink="http://www.w3.org/1999/xlink">
    <title>1435-个人信息</title>
    <g id="1435-个人信息" stroke="none" stroke-width="1" fill="none" fill-rule="evenodd">
        <g id="编组" transform="translate(4.000000, 6.000000)" fill="#000000" fill-rule="nonzero">
            <path d="M23.4545455,0 C23.7557913,0 24,0.244208736 24,0.545454537 L24,0.545454537 L24,19.0909091 C24,19.3921549 23.7557913,19.6363637 23.4545455,19.6363637 L23.4545455,19.6363637 L0.545454537,19.6363637 C0.244208291,19.6363637 -5.58099022e-16,19.3921549 -5.58099022e-16,19.0909091 L-5.58099022e-16,19.0909091 L-5.58099022e-16,0.545454537 C-5.58099022e-16,0.244208736 0.244208291,0 0.545454537,0 L0.545454537,0 L23.4545455,0 Z M22.9090909,1.0909091 L1.09090907,1.0909091 L1.09090907,18.5454546 L22.9090909,18.5454546 L22.9090909,1.0909091 Z M8.18181819,5.45454545 C9.68804989,5.45454545 10.9090909,6.67558691 10.9090909,8.18181819 C10.9090909,9.01116218 10.5389084,9.75404509 9.95476145,10.2542477 C11.1704225,10.8921469 12,12.1673782 12,13.6363636 C12,13.9376095 11.7557913,14.1818182 11.4545455,14.1818182 C11.1532996,14.1818182 10.9090909,13.9376095 10.9090909,13.6363636 C10.9090909,12.1301367 9.68804465,10.9090909 8.18181819,10.9090909 C6.6755917,10.9090909 5.45454545,12.1301367 5.45454545,13.6363636 C5.45454545,13.9376095 5.21033716,14.1818182 4.90909091,14.1818182 C4.60784464,14.1818182 4.36363635,13.9376095 4.36363635,13.6363636 C4.36363635,12.1673782 5.19321414,10.8921469 6.4094388,10.2535986 C5.82472842,9.75404509 5.45454545,9.01116218 5.45454545,8.18181819 C5.45454545,6.67558691 6.67558646,5.45454545 8.18181819,5.45454545 Z M19.0909091,12 C19.3921549,12 19.6363637,12.2442087 19.6363637,12.5454546 C19.6363637,12.8132291 19.4434091,13.035936 19.1889557,13.0821207 L19.0909091,13.0909091 L15.8181818,13.0909091 C15.516936,13.0909091 15.2727273,12.8467004 15.2727273,12.5454546 C15.2727273,12.27768 15.4656818,12.0549731 15.7201353,12.0087884 L15.8181818,12 L19.0909091,12 Z M8.18181819,6.54545455 C7.27807898,6.54545455 6.54545455,7.27807856 6.54545455,8.18181819 C6.54545455,9.08555782 7.27807898,9.81818183 8.18181819,9.81818183 C9.08555737,9.81818183 9.81818183,9.08555782 9.81818183,8.18181819 C9.81818183,7.27807856 9.08555737,6.54545455 8.18181819,6.54545455 Z M19.0909091,6.54545455 C19.3921549,6.54545455 19.6363637,6.78966329 19.6363637,7.09090909 C19.6363637,7.35868363 19.4434091,7.58139055 19.1889557,7.62757528 L19.0909091,7.63636365 L14.7272727,7.63636365 C14.4260269,7.63636365 14.1818182,7.39215491 14.1818182,7.09090909 C14.1818182,6.82313454 14.3747727,6.60042765 14.6292262,6.55424292 L14.7272727,6.54545455 L19.0909091,6.54545455 Z" id="形状" fill="#666666"></path>
        </g>
    </g>
</svg>