<!--?xml version="1.0"?-->
<svg xmlns="http://www.w3.org/2000/svg" class="icon" style="vertical-align:middle;fill:currentColor;overflow:hidden;" viewBox="0 0 1024 1024" version="1.1" width="200px" height="200px"><path d="M493.247625 483.448854C551.704865 483.448854 608.45165 494.918949 661.878145 517.557295C713.49357 539.491335 759.675795 570.681945 799.519285 610.42482C839.36277 650.067075 870.653995 696.45053 892.38681 748.06596C915.025155 801.39184 926.49525 858.23924 926.39529 916.69648C926.39529 935.109 911.503635 950 893.09111 950C874.67859 950 859.78759 935.109 859.78759 916.69648C859.78759 714.66182 695.382895 550.257125 493.348239 550.257125C291.313583 550.257125 126.808273 714.66182 126.607043 916.69648C126.607043 935.109 111.716043 950 93.303522 950C74.891001 950 60 935.109 60 916.69648C60 858.23924 71.470095 801.492455 94.108441 748.06596C116.042482 696.45053 147.132476 650.268305 186.975964 610.42482C226.718838 570.58133 273.001677 539.290105 324.617105 517.557295C378.144215 494.918949 434.790386 483.448854 493.247625 483.448854zM659.564 815.88038C678.07714 815.88038 693.068755 830.871995 692.96864 849.38513C692.96864 867.79765 678.07714 882.688655 659.664615 882.688655L406.517608 882.688655L415.774176 891.94522C428.753494 904.92454 428.753494 926.154275 415.774176 939.133595C409.334824 945.67356 400.78256 948.893235 392.230297 948.893235C383.678033 948.893235 375.125769 945.572945 368.686417 939.133595L302.481834 872.92901C289.502516 859.949695 289.502516 838.719955 302.481834 825.740635C308.719956 819.4019 316.86976 816.182225 325.120179 815.980995C325.925098 815.88038 326.528787 815.88038 327.233091 815.88038zM570.218 627.83119C583.197315 614.851875 604.427055 614.851875 617.40637 627.83119L683.610955 694.035775L684.71772 695.243155L685.12018 695.746225C685.32141 695.947455 685.52264 696.2493 685.72387 696.45053C685.824485 696.65176 686.025715 696.953605 686.22694 697.154835C686.327555 697.25545 686.528785 697.45668 686.6294 697.65791L687.23309 698.46283L687.534935 698.965905C687.63555 699.16713 687.83678 699.468975 688.03801 699.77082L688.339855 700.273895C688.541085 700.475125 688.6417 700.77697 688.84293 701.078815L689.144775 701.58189L689.84908 702.990495C689.949695 703.191725 690.050305 703.392955 690.15092 703.6948L690.452765 704.399105C690.55338 704.70095 690.653995 704.90218 690.75461 705.10341L691.056455 705.90833L691.55953 707.41755L691.660145 707.920625L691.96199 708.926775L692.56568 711.94522C692.666295 712.14645 692.666295 712.34768 692.666295 712.54891C692.666295 712.850755 692.76691 713.253215 692.76691 713.55506C692.867525 713.856905 692.867525 714.058135 692.867525 714.35998C692.96814 714.66182 692.96814 714.86305 692.96814 715.164895C692.96814 715.66797 692.96814 716.07043 692.062605 718.08273L692.062605 719.99441C691.96199 720.296255 691.96199 720.497485 691.96199 720.79933C691.861375 721.101175 691.861375 721.302405 691.861375 721.60425L691.76076 722.610395C691.660145 722.811625 691.660145 723.012855 691.660145 723.214085L691.056455 726.23253L690.75461 727.23868L690.653995 727.741755L690.251535 728.949135C690.050305 729.552825 689.949695 729.754055 689.84908 730.055895L688.943545 732.16881L688.23924 733.57742L687.937395 734.08049C687.736165 734.28172 687.63555 734.583565 687.43432 734.88541L687.132475 735.388485C687.03186 735.589715 686.83063 735.89156 686.6294 736.193405L686.327555 736.69648C686.12633 736.998325 685.9251 737.199555 685.72387 737.501395C685.623255 737.60201 685.422025 737.80324 685.32141 738.00447C685.220795 738.2057 685.019565 738.507545 684.818335 738.708775L684.214645 739.41308L683.812185 739.916155C683.007265 740.721075 682.20235 741.626605 681.39743 742.33091L680.894355 742.73337L679.485745 743.94075L678.98267 744.34321L678.177755 744.9469L677.67468 745.24874L676.769145 745.85243L676.26607 746.154275L675.360535 746.65735L674.85746 746.959195L674.052545 747.361655L673.448855 747.6635L672.643935 747.965345L671.235325 748.569035L670.43041 748.87088L668.921185 749.37395C668.82057 749.474565 668.61934 749.474565 668.41811 749.57518C668.01565 749.675795 667.713805 749.77641 667.41196 749.877025L665.68893 750.22918C665.09782 750.3801 664.69536 750.480715 664.393515 750.480715C664.192285 750.58133 663.991055 750.58133 663.789825 750.58133L662.884295 750.681945C662.58245 750.78256 662.38122 750.78256 662.079375 750.78256C661.878145 750.883175 661.676915 750.883175 661.37507 750.883175L327.233091 750.883175C308.82057 750.883175 293.92957 735.992175 293.92957 717.579655C293.92957 699.16713 308.82057 684.27613 327.233091 684.27613L579.474565 684.27613L570.218 675.019565C557.23868 662.040245 557.23868 640.81051 570.218 627.83119zM494.958077 50C557.339295 50 616.09838 74.248184 660.16769 118.418111C704.33762 162.688653 728.5858 221.447736 728.5858 283.828955C728.5858 340.575741 707.959755 395.310229 670.531025 437.970934C663.789825 445.517049 654.633875 449.340413 645.377305 449.340413C637.62996 449.340413 629.782 446.623812 623.443265 441.089995C609.659025 428.915596 608.25042 407.887088 620.42482 394.002236C647.188375 363.515931 661.878145 324.376747 661.878145 283.828955C661.878145 191.665735 587.02068 116.707658 494.756848 116.707658C402.593628 116.707658 327.635551 191.76635 327.635551 283.828955C327.635551 324.376747 342.325322 363.616546 369.088876 394.002236C381.263276 407.887088 379.955283 428.915596 366.070431 441.089995C352.286193 453.163779 331.157071 451.855786 319.183902 437.970934C281.755171 395.310229 261.129123 340.575741 261.129123 283.828955C261.129123 221.246507 285.377306 162.588038 329.547233 118.418111C373.817776 74.248184 432.576858 50 494.958077 50z" fill="#666666"></path></svg>
