<!--?xml version="1.0" encoding="UTF-8"?-->
<svg width="32px" height="32px" viewBox="0 0 32 32" version="1.1" xmlns="http://www.w3.org/2000/svg" xmlns:xlink="http://www.w3.org/1999/xlink">
    <title>436.个税源数据@1x</title>
    <g id="436.个税源数据" stroke="none" stroke-width="1" fill="none" fill-rule="evenodd">
        <g id="编组" transform="translate(4.000000, 3.000000)" fill="#000000" fill-rule="nonzero">
            <path d="M20.1739056,7.35321435 C17.9130419,8.27236615 14.7826126,8.63999998 12.0000159,8.63999998 C9.04348696,8.63999998 6.08695814,8.27233254 3.82609434,7.35321435 C1.21739799,6.61787948 8.73114911e-16,5.51585119 8.73114911e-16,4.41194206 C8.73114911e-16,3.30991373 1.39129838,2.20597103 3.82609434,1.28775963 C6.08695811,0.368607835 9.04348696,0 12.0000159,0 C14.7826126,0 17.9130419,0.551484363 20.1739056,1.28775963 C22.6086698,2.205971 24,3.30991373 24,4.41194206 C24,5.51585119 22.7826019,6.61787948 20.1739056,7.35321435 M20.2285915,12.9600225 C18.0000547,13.7828614 14.9143114,14.4 12.0000157,14.4 C9.08571987,14.4 6.1714241,13.7828614 3.77140841,12.9600225 C1.37142408,11.9314457 8.73114911e-16,10.698221 8.73114911e-16,9.46285388 L8.73114911e-16,7.19999998 C1.71428794,8.02287644 2.91426447,9.05141564 4.79996865,9.46285388 C7.02853673,10.08 9.42858367,10.4914683 11.9999843,10.4914683 C14.5714476,10.4914683 16.9714005,10.08003 19.2,9.46285388 C21.0857042,9.05141564 22.285712,8.02287644 24,7.19999998 L24,9.66859178 C24,10.6982586 22.6285759,11.9314833 20.2285915,12.9600225 M20.2285915,18.8677217 C18.0000547,19.6061953 14.9143114,20.1599999 12.0000157,20.1599999 C9.08571987,20.1599999 6.1714241,19.6061953 3.77140841,18.8677217 C1.37142408,18.1291805 8.73114911e-16,17.0225158 8.73114911e-16,15.73017 L8.73114911e-16,12.96 C1.71428794,13.8840534 2.91426447,14.6215489 4.79996865,15.1763316 C7.02853673,15.73017 9.42858367,16.0994068 11.9999843,16.0994068 C14.5714476,16.0994068 16.9714005,15.73017 19.2,15.1763316 C21.0857042,14.6215489 22.285712,13.8840534 24,12.96 L24,15.73017 C24,17.0225158 22.6285759,18.1292143 20.2285915,18.8677217 M12,25.9199999 C9.08570795,25.9199999 6.17141605,25.3671345 3.77140349,24.6277096 C1.3714223,23.8891615 8.73114911e-16,22.7824863 8.73114911e-16,21.4901284 L8.73114911e-16,18.72 C1.7142857,19.6430163 2.91426066,20.3815306 4.79996242,20.9353742 C6.85711151,21.4901621 9.42857138,21.8594362 11.828584,21.8594362 C14.4000125,21.8594362 16.8,21.4901959 19.0285589,20.9353742 C21.0857079,20.3815306 22.2856829,19.64305 24,18.72 L24,21.4901621 C24,22.5969385 22.6285776,23.7056039 20.2285651,24.6277433 C18,25.5507596 14.7428446,25.9199999 12,25.9199999" id="形状" fill="#666666"></path>
        </g>
    </g>
</svg>