<!--?xml version="1.0" encoding="UTF-8"?-->
<svg width="32px" height="32px" viewBox="0 0 32 32" version="1.1" xmlns="http://www.w3.org/2000/svg" xmlns:xlink="http://www.w3.org/1999/xlink">
    <title>2004.个人空间</title>
    <g id="2004.个人空间" stroke="none" stroke-width="1" fill="none" fill-rule="evenodd">
        <path d="M28,3 C29.1045695,3 30,3.8954305 30,5 L30,20.6 C30,21.7045695 29.1045695,22.6 28,22.6 L20.666,22.6 L20.666,25.384 L22.4642649,25.3849373 C22.7679443,25.3849373 23.0551702,25.5229325 23.2449478,25.7600098 L24.5357061,27.3724735 C24.708275,27.5880531 24.673408,27.9027097 24.4578284,28.0752787 C24.3691531,28.1462622 24.2589515,28.1849373 24.1453647,28.1849373 L7.5487231,28.1849373 C7.27258073,28.1849373 7.0487231,27.9610796 7.0487231,27.6849373 C7.0487231,27.5713505 7.08739818,27.4611488 7.15838169,27.3724735 L8.44914,25.7600098 C8.63891756,25.5229325 8.92614347,25.3849373 9.22982282,25.3849373 L11.333,25.384 L11.333,22.6 L4,22.6 C2.8954305,22.6 2,21.7045695 2,20.6 L2,5 C2,3.8954305 2.8954305,3 4,3 L28,3 Z M26.2666667,15.1333333 L18.8,15.1333333 C18.2845342,15.1333333 17.8666667,15.5512009 17.8666667,16.0666667 C17.8666667,16.5821324 18.2845342,17 18.8,17 L26.2666667,17 C26.7821324,17 27.2,16.5821324 27.2,16.0666667 C27.2,15.5512009 26.7821324,15.1333333 26.2666667,15.1333333 Z M15.0666667,15.1333333 C14.5512009,15.1333333 14.1333333,15.5512009 14.1333333,16.0666667 C14.1333333,16.5821324 14.5512009,17 15.0666667,17 C15.5821324,17 16,16.5821324 16,16.0666667 C16,15.5512009 15.5821324,15.1333333 15.0666667,15.1333333 Z M8.1550486,8.62469375 C7.44869553,8.70952402 6.62348977,9.22152141 6.55990373,9.99769104 L6.55990373,10.9578482 C6.42347541,10.9578482 6.24664561,11.030021 6.30467047,11.5944325 C6.36255547,12.1591818 6.73385399,12.3153002 7.01249302,12.5913663 C7.27516836,12.851616 7.23595788,13.2577639 7.59517952,13.4920859 L7.6,13.7375555 L7.54728838,13.7531192 C7.30966735,13.8232529 6.32822123,14.1126395 5.8328291,14.2542694 C5.26666667,14.4161321 4.8,15.2177372 4.8,16.0666667 L12.2666667,16.0666667 C12.2666667,15.2177372 11.8,14.4161321 11.2586686,14.2542694 L11.1626969,14.2298335 C10.9984643,14.1868611 10.7712491,14.122671 10.5364538,14.0547207 L10.2546067,13.9724928 C9.83701572,13.8497955 9.46666667,13.7375404 9.46666667,13.7375404 L9.465,13.494 L9.53413143,13.4503382 C9.79656529,13.241705 9.81978997,12.9285282 9.98035057,12.688995 L10.0586684,12.5913663 C10.3254569,12.3153083 10.7086215,12.1586912 10.7664987,11.5942797 C10.8156098,11.116415 10.58639,10.9915745 10.5146984,10.9644724 L10.4938363,10.9578482 L10.4938363,9.8764863 C10.3662158,8.95155649 8.86669549,8.48382732 8.1550486,8.62469375 Z M26.2666667,11.4 L18.8,11.4 C18.2845342,11.4 17.8666667,11.8178676 17.8666667,12.3333333 C17.8666667,12.8487991 18.2845342,13.2666667 18.8,13.2666667 L26.2666667,13.2666667 C26.7821324,13.2666667 27.2,12.8487991 27.2,12.3333333 C27.2,11.8178676 26.7821324,11.4 26.2666667,11.4 Z M15.0666667,11.4 C14.5512009,11.4 14.1333333,11.8178676 14.1333333,12.3333333 C14.1333333,12.8487991 14.5512009,13.2666667 15.0666667,13.2666667 C15.5821324,13.2666667 16,12.8487991 16,12.3333333 C16,11.8178676 15.5821324,11.4 15.0666667,11.4 Z M26.2666667,7.66666667 L18.8,7.66666667 C18.2845342,7.66666667 17.8666667,8.08453423 17.8666667,8.6 C17.8666667,9.11546577 18.2845342,9.53333333 18.8,9.53333333 L26.2666667,9.53333333 C26.7821324,9.53333333 27.2,9.11546577 27.2,8.6 C27.2,8.08453423 26.7821324,7.66666667 26.2666667,7.66666667 Z M15.0666667,7.66666667 C14.5512009,7.66666667 14.1333333,8.08453423 14.1333333,8.6 C14.1333333,9.11546577 14.5512009,9.53333333 15.0666667,9.53333333 C15.5821324,9.53333333 16,9.11546577 16,8.6 C16,8.08453423 15.5821324,7.66666667 15.0666667,7.66666667 Z" id="形状结合" fill="#666666"></path>
    </g>
</svg>