<!--?xml version="1.0" encoding="UTF-8"?-->
<svg width="32px" height="32px" viewBox="0 0 32 32" version="1.1" xmlns="http://www.w3.org/2000/svg" xmlns:xlink="http://www.w3.org/1999/xlink">
    <title>160.手机</title>
    <g id="160.手机" stroke="none" stroke-width="1" fill="none" fill-rule="evenodd">
        <g id="手机" transform="translate(7.000000, 4.000000)" fill="#000000" fill-rule="nonzero">
            <path d="M15.5454545,0 C17.4533473,0 19,1.53502371 19,3.42857143 L19,20.5714286 C19,22.4649763 17.4533473,24 15.5454545,24 L3.45454545,24 C1.54665267,24 0,22.4649763 0,20.5714286 L0,3.42857143 C0,1.53502371 1.54665267,0 3.45454545,0 L15.5454545,0 Z M17.2727273,17.1428571 L1.72727273,17.1428571 L1.72727273,20.5714286 C1.72727273,21.4751673 2.43189446,22.2155701 3.32563707,22.2810123 L3.45454545,22.2857143 L15.5454545,22.2857143 C16.4560397,22.2857143 17.2020517,21.5863905 17.2679896,20.6993677 L17.2727273,20.5714286 L17.2727273,17.1428571 Z M9.5,18 C10.4539464,18 11.2272727,18.7675119 11.2272727,19.7142857 C11.2272727,20.6610596 10.4539464,21.4285714 9.5,21.4285714 C8.54605361,21.4285714 7.77272727,20.6610596 7.77272727,19.7142857 C7.77272727,18.7675119 8.54605361,18 9.5,18 Z M15.5454545,1.71428571 L3.45454545,1.71428571 C2.54396027,1.71428571 1.79794831,2.41360954 1.7320104,3.30063228 L1.72727273,3.42857143 L1.72727273,15.4285714 L17.2727273,15.4285714 L17.2727273,3.42857143 C17.2727273,2.52483275 16.5681055,1.7844299 15.6743629,1.71898777 L15.5454545,1.71428571 Z" id="形状" fill="#346bf6"></path>
        </g>
    </g>
</svg>