<!--?xml version="1.0"?-->
<svg xmlns="http://www.w3.org/2000/svg" class="icon" style="vertical-align:middle;fill:currentColor;overflow:hidden;" viewBox="0 0 1024 1024" version="1.1" width="200px" height="200px"><path d="M437.5 93.75C454.758897 93.75 468.75 107.741102 468.75 125C468.75 142.258898 454.758897 156.25 437.5 156.25L156.25 156.25L156.25 843.75L843.75 843.75L843.75 562.5C843.75 546.473881 855.813756 533.2654 871.355591 531.460241L875 531.25C892.258897 531.25 906.25 545.241103 906.25 562.5L906.25 875C906.25 892.258897 892.258897 906.25 875 906.25L125 906.25C107.741102 906.25 93.75 892.258897 93.75 875L93.75 125C93.75 107.741102 107.741102 93.75 125 93.75L437.5 93.75zM718.75 656.25C736.008897 656.25 750 670.241103 750 687.5C750 704.758897 736.008897 718.75 718.75 718.75L281.25 718.75C263.991102 718.75 250 704.758897 250 687.5C250 670.241103 263.991102 656.25 281.25 656.25L718.75 656.25zM375 468.75C392.258897 468.75 406.25 482.741103 406.25 500C406.25 517.258897 392.258897 531.25 375 531.25L281.25 531.25C263.991102 531.25 250 517.258897 250 500C250 482.741103 263.991102 468.75 281.25 468.75L375 468.75zM865.847087 134.152913C878.050972 146.356797 878.050972 166.143203 865.847087 178.347087L606.6875 437.5L750 437.5C766.026119 437.5 779.2346 449.563756 781.039759 465.105591L781.25 468.75C781.25 486.008897 767.258897 500 750 500L531.25 500C513.991103 500 500 486.008897 500 468.75L500 250C500 232.741102 513.991103 218.75 531.25 218.75C548.508897 218.75 562.5 232.741102 562.5 250L562.5 393.25L821.652913 134.152913C833.856797 121.949029 853.643203 121.949029 865.847087 134.152913zM375 281.25C392.258897 281.25 406.25 295.241102 406.25 312.5C406.25 329.758897 392.258897 343.75 375 343.75L281.25 343.75C263.991102 343.75 250 329.758897 250 312.5C250 295.241102 263.991102 281.25 281.25 281.25L375 281.25z" fill="#666666"></path></svg>
