<!--?xml version="1.0" encoding="UTF-8"?-->
<svg width="32px" height="32px" viewBox="0 0 32 32" version="1.1" xmlns="http://www.w3.org/2000/svg" xmlns:xlink="http://www.w3.org/1999/xlink">
    <title>1352-较差</title>
    <g id="1352-较差" stroke="none" stroke-width="1" fill="none" fill-rule="evenodd">
        <g id="编组" transform="translate(4.000000, 4.000000)" fill="#000000" fill-rule="nonzero">
            <path d="M3.19999999,0 L20,0 C21.7673112,0 23.2,1.4326888 23.2,3.19999999 L23.2,20.8 C23.2,22.5673112 21.7673112,24 20,24 L3.19999999,24 C1.4326888,24 0,22.5673112 0,20.8 L0,3.19999999 C0,1.4326888 1.4326888,0 3.19999999,0 Z M3.19999999,1.60000001 C2.3163444,1.60000001 1.59999998,2.3163444 1.59999998,3.19999999 L1.59999998,20.8 C1.59999998,21.6836556 2.3163444,22.4 3.19999999,22.4 L20,22.4 C20.8836556,22.4 21.6,21.6836556 21.6,20.8 L21.6,3.19999999 C21.6,2.3163444 20.8836556,1.60000001 20,1.60000001 L3.19999999,1.60000001 Z M15.1824,16.5096 L13.608,16.7952 C13.2832,15.0064 12.6272,14.2576 11.5976,14.2576 C10.5672,14.2576 9.912,15.0064 9.58719998,16.7952 L8.01279998,16.5096 C8.46079999,14.0384 9.67039999,12.6576 11.5968,12.6576 C13.5248,12.6576 14.7336,14.0384 15.1824,16.5096 Z M6.39999998,7.99999999 L8.79999998,7.99999999 C9.24182779,7.99999999 9.59999998,8.35817219 9.59999998,8.8 C9.59999998,9.2418278 9.24182779,9.6 8.79999998,9.6 L6.39999998,9.6 C5.95817218,9.6 5.59999998,9.2418278 5.59999998,8.8 C5.59999998,8.35817219 5.95817218,7.99999999 6.39999998,7.99999999 Z M14.4,7.99999999 L16.8,7.99999999 C17.2418278,7.99999999 17.6,8.35817219 17.6,8.8 C17.6,9.2418278 17.2418278,9.6 16.8,9.6 L14.4,9.6 C13.9581722,9.6 13.6,9.2418278 13.6,8.8 C13.6,8.35817219 13.9581722,7.99999999 14.4,7.99999999 L14.4,7.99999999 Z" id="形状" fill="#666666"></path>
        </g>
    </g>
</svg>