<!--?xml version="1.0" encoding="UTF-8"?-->
<svg width="32px" height="32px" viewBox="0 0 32 32" version="1.1" xmlns="http://www.w3.org/2000/svg" xmlns:xlink="http://www.w3.org/1999/xlink">
    <title>1737.职位族</title>
    <g id="1737.职位族" stroke="none" stroke-width="1" fill="none" fill-rule="evenodd">
        <path d="M8.28835791,2.46736833 C9.5349848,2.23222232 12.1617683,3.01299492 12.3853275,4.55696503 L12.3853275,6.3620646 C12.3853275,6.3620646 12.9646359,6.48172265 12.8629636,7.4244493 C12.7953727,8.05255787 12.4745276,8.37812215 12.1296679,8.66191416 L11.9217043,8.82926286 C11.8181155,8.91251705 11.7164917,8.99670563 11.6230224,9.08886944 C11.479236,9.23075493 11.3878481,9.39852978 11.30802,9.57377822 L11.1918427,9.83995411 C11.054506,10.1516608 10.8900368,10.4580562 10.4795648,10.6604433 L10.5254853,10.6338535 C10.6325684,10.6759988 10.6476353,10.7281259 10.5270996,10.7902348 L10.5270996,11.6977125 C10.5270996,11.6977125 12.6674167,12.4327438 13.4071027,12.6386273 C14.2770996,12.9333641 15.0270996,14.3930113 15.0270996,15.9388318 L3.02709961,15.9388318 C3.02709961,14.3930113 3.77709961,12.9333641 4.68700352,12.6386273 C4.92436975,12.5617395 5.2311696,12.4609369 5.55502335,12.3539293 L5.88262175,12.2455092 C6.7061294,11.9725678 7.52709961,11.6977401 7.52709961,11.6977401 L7.52709961,10.7902348 C7.44506836,10.7479662 7.42584229,10.7103208 7.45568275,10.6772985 C7.43942338,10.666327 7.43034463,10.6604433 7.43034463,10.6604433 C6.66803958,10.2845815 6.77499276,9.54970194 6.28688705,9.08886944 C5.79878134,8.62803695 5.14835943,8.367431 5.04695944,7.42470435 C4.94531443,6.48254149 5.2550759,6.3620646 5.4940641,6.3620646 L5.4940641,4.75929011 C5.6054509,3.46364292 7.05100445,2.6089741 8.28835791,2.46736833 Z M18,4 L28,4 C28.5522847,4 29,4.44771525 29,5 L29,15 C29,15.5522847 28.5522847,16 28,16 L18,16 C17.4477153,16 17,15.5522847 17,15 L17,5 C17,4.44771525 17.4477153,4 18,4 Z M18,18 L28,18 C28.5522847,18 29,18.4477153 29,19 L29,29 C29,29.5522847 28.5522847,30 28,30 L18,30 C17.4477153,30 17,29.5522847 17,29 L17,19 C17,18.4477153 17.4477153,18 18,18 Z M4,18 L14,18 C14.5522847,18 15,18.4477153 15,19 L15,29 C15,29.5522847 14.5522847,30 14,30 L4,30 C3.44771525,30 3,29.5522847 3,29 L3,19 C3,18.4477153 3.44771525,18 4,18 Z" id="形状结合" fill="#666666"></path>
    </g>
</svg>