<!--?xml version="1.0" encoding="UTF-8"?-->
<svg width="32px" height="32px" viewBox="0 0 32 32" version="1.1" xmlns="http://www.w3.org/2000/svg" xmlns:xlink="http://www.w3.org/1999/xlink">
    <title>371.岗位薪酬成本核算@1x</title>
    <g id="371.岗位薪酬成本核算" stroke="none" stroke-width="1" fill="none" fill-rule="evenodd">
        <g id="编组" transform="translate(4.000000, 4.000000)" fill="#000000" fill-rule="nonzero">
            <path d="M24,11.9466667 L24,23.04 L14.5714286,23.04 L14.5714286,11.9466667 L24,11.9466667 Z M18.8571429,19.6266667 L16.2857143,19.6266667 L16.2857143,21.3333333 L18.8571429,21.3333333 L18.8571429,19.6266667 Z M22.2857143,19.6266667 L19.7142857,19.6266667 L19.7142857,21.3333333 L22.2857143,21.3333333 L22.2857143,19.6266667 Z M9.03703705,8.53333333 L9.03703705,9.78956569 L14.962963,9.78956569 L14.962963,8.53333333 L24,8.53333333 L24,11.0933333 L13.7638811,11.0933333 L13.7638811,20.48 L1.48148152,20.48 C0.663281856,20.48 0,19.9030561 0,19.19136 L0,8.53333333 L9.03703705,8.53333333 Z M18.8571429,17.0666667 L16.2857143,17.0666667 L16.2857143,18.7733333 L18.8571429,18.7733333 L18.8571429,17.0666667 Z M22.2857143,17.0666667 L19.7142857,17.0666667 L19.7142857,18.7733333 L22.2857143,18.7733333 L22.2857143,17.0666667 Z M22.2857143,13.6533333 L16.2857143,13.6533333 L16.2857143,15.36 L22.2857143,15.36 L22.2857143,13.6533333 Z M13.4814814,0 C15.1178808,0 16.4444444,1.14505485 16.4444444,2.55755158 L16.4444444,3.83632736 L22.5185186,3.83632736 C23.3367182,3.83632736 24,4.4088548 24,5.11510315 L24,7.68 L14.962963,7.68 L14.962963,6.53596511 L9.03703705,6.53596511 L9.03703705,7.68 L0,7.68 L0,5.11510315 C0,4.4088548 0.663281856,3.83632736 1.48148152,3.83632736 L7.55555556,3.83632736 L7.55555556,2.55755158 C7.55555556,1.14505485 8.8821193,0 10.5185186,0 L13.4814814,0 Z M13.4814814,1.15986184 L10.5185186,1.15986184 C9.70031888,1.15986184 9.03703705,1.73238927 9.03703705,2.43863762 L9.03703705,3.71741341 L14.962963,3.71741341 L14.962963,2.43863762 C14.962963,2.09948519 14.8068788,1.77422361 14.5290471,1.5344066 C14.2512154,1.29458962 13.8743948,1.15986184 13.4814814,1.15986184 Z" id="形状" fill="#346bf6"></path>
        </g>
    </g>
</svg>