<!--?xml version="1.0" encoding="UTF-8"?-->
<svg width="32px" height="32px" viewBox="0 0 32 32" version="1.1" xmlns="http://www.w3.org/2000/svg" xmlns:xlink="http://www.w3.org/1999/xlink">
    <title>531.派工单准备@1x</title>
    <g id="531.派工单准备" stroke="none" stroke-width="1" fill="none" fill-rule="evenodd">
        <g id="编组" transform="translate(4.000000, 4.000000)" fill="#000000" fill-rule="nonzero">
            <path d="M20.442154,15.6879952 C20.442154,16.5593146 21.1714948,17.2657367 22.0710824,17.2657367 C22.3655021,17.2657367 22.6415681,17.1900924 22.8800406,17.0576842 L22.8800406,17.0576842 L24,18.9543088 C23.5100177,19.2263583 23.1799031,19.7378463 23.1799031,20.3239976 C23.1799031,20.910149 23.5100177,21.4216368 24,21.6936866 L24,21.6936866 L22.8800406,23.590311 C22.6415681,23.4579028 22.3655021,23.3822586 22.0710824,23.3822586 C21.1714948,23.3822586 20.4422805,24.0885581 20.4422805,24.96 L20.4422805,24.96 L18.2243862,24.96 C18.2243862,24.0885581 17.4951719,23.3822586 16.5955843,23.3822586 C16.3011646,23.3822586 16.024972,23.4579028 15.7867528,23.590311 L15.7867528,23.590311 L14.6666667,21.6936866 C15.1566489,21.4216368 15.4866371,20.910149 15.4866371,20.3239976 C15.4866371,19.7378463 15.1566489,19.2263583 14.6666667,18.9543088 L14.6666667,18.9543088 L15.7867528,17.0576842 C16.024972,17.1900924 16.3011646,17.2657367 16.5955843,17.2657367 C17.4951719,17.2657367 18.2245127,16.5593146 18.2245127,15.6879952 L18.2245127,15.6879952 L20.442154,15.6879952 Z M19.9987501,0 C20.7360373,0 21.3333333,0.640631624 21.3333333,1.44178271 L21.3335814,15.7591827 C20.9774492,15.3955321 20.7589599,14.9041768 20.7589599,14.3634231 L17.9077068,14.3634231 C17.9077068,15.4836908 16.969983,16.3919478 15.8133702,16.3919478 C15.4348307,16.3919478 15.0797259,16.2946909 14.773444,16.1244518 L13.3333333,18.562969 C13.9633106,18.9127473 14.3875809,19.5703745 14.3875809,20.3239976 C14.3875809,21.0776208 13.9633106,21.7352481 13.3333333,22.0850264 L13.90464,23.05152 L1.33325,23.0526161 C0.597295995,23.0526161 0,22.4119845 0,21.6108334 L0,1.44178271 C0,0.646416108 0.593296251,0 1.33325,0 L19.9987501,0 Z M19.3500417,18.7957365 C18.4892127,18.7957365 17.7889166,19.4919074 17.7889166,20.347665 C17.7889166,21.2034226 18.4892127,21.8997366 19.3500417,21.8997366 C20.2108704,21.8997366 20.9111666,21.2034226 20.9111666,20.347665 C20.9111666,19.4919074 20.2108704,18.7957365 19.3500417,18.7957365 Z M10.56,14.4 L4.8,14.4 C4.26980665,14.4 3.84,14.8298067 3.84,15.36 C3.84,15.8901933 4.26980665,16.32 4.8,16.32 L10.56,16.32 C11.0901933,16.32 11.52,15.8901933 11.52,15.36 C11.52,14.8298067 11.0901933,14.4 10.56,14.4 Z M16.32,8.64 L4.8,8.64 C4.26980665,8.64 3.84,9.06980665 3.84,9.6 C3.84,10.1301933 4.26980665,10.56 4.8,10.56 L16.32,10.56 C16.8501934,10.56 17.28,10.1301933 17.28,9.6 C17.28,9.06980665 16.8501934,8.64 16.32,8.64 Z M16.32,2.88 L4.8,2.88 C4.26980665,2.88 3.84,3.30980665 3.84,3.84 C3.84,4.37019335 4.26980665,4.8 4.8,4.8 L16.32,4.8 C16.8501934,4.8 17.28,4.37019335 17.28,3.84 C17.28,3.30980665 16.8501934,2.88 16.32,2.88 Z" id="形状" fill="#666666"></path>
        </g>
    </g>
</svg>