<!--?xml version="1.0" encoding="UTF-8"?-->
<svg width="32px" height="32px" viewBox="0 0 32 32" version="1.1" xmlns="http://www.w3.org/2000/svg" xmlns:xlink="http://www.w3.org/1999/xlink">
    <title>433.隐私声明服务@1x</title>
    <g id="433.隐私声明服务" stroke="none" stroke-width="1" fill="none" fill-rule="evenodd">
        <g id="编组" transform="translate(6.000000, 3.000000)" fill="#000000" fill-rule="nonzero">
            <path d="M10.4869882,0.172569797 L11.0391823,0.604040384 C12.0986817,1.37764705 13.2314769,2.02557844 14.4181401,2.53672225 C16.3414205,3.37796225 18.2247548,3.43795964 18.2776245,3.43795966 L19.1858074,3.45327814 C19.6322622,3.4545547 19.9953005,3.85283524 20,4.34940937 L20,15.353186 C19.9941255,16.383354 18.6782588,19.6193833 16.3649181,22.0039606 C14.2583563,24.1804616 11.0333079,25.7799664 10.0029372,25.5297645 C8.97256656,25.2795627 5.74751805,24.1804616 3.64095635,22.0039606 C1.3276156,19.6193835 0,16.2914431 0,15.353186 L0,4.3468563 C0.0012636,3.8564007 0.365165547,3.45816681 0.816542347,3.45327814 L1.73059979,3.43795966 C1.73855283,3.43756689 1.78985829,3.43587489 1.87797491,3.43022953 L2.03694053,3.41846468 C2.6534028,3.36715324 4.10837827,3.18382996 5.5842096,2.53672225 C7.62027845,1.64314412 8.95494333,0.609146544 8.96786701,0.600210757 L9.50831235,0.175122864 C9.79914856,-0.057428816 10.1951275,-0.0584618027 10.4869882,0.172569797 Z M10,8.33333334 C9.07952544,8.33333334 8.33333333,9.07952542 8.33333333,10 C8.33333333,10.7257985 8.79727056,11.3432388 9.44476944,11.571945 L9.44476944,11.571945 L9.44444445,16.6666667 L10.5555555,16.6666667 L10.5563367,11.5715539 C11.2032577,11.3425355 11.6666667,10.7253852 11.6666667,10 C11.6666667,9.07952542 10.9204746,8.33333334 10,8.33333334 Z" id="形状" fill="#666666"></path>
        </g>
    </g>
</svg>