<!--?xml version="1.0"?-->
<svg xmlns="http://www.w3.org/2000/svg" class="icon" style="vertical-align:middle;fill:currentColor;overflow:hidden;" viewBox="0 0 1024 1024" version="1.1" width="200px" height="200px"><path d="M328.118919 112.132353L328.118919 211.397059L671.856753 211.397059L671.856753 112.132353L800.758444 112.132353C824.476353 112.132353 843.729109 134.21875 843.729109 161.764706L843.734163 546.845941C804.565288 517.430216 755.880666 500 703.125 500C573.683263 500 468.75 604.933263 468.75 734.375C468.75 820.630244 515.344591 896.002738 584.736709 936.695416C488.260522 936.887725 359.753228 937.159938 199.217229 937.5C175.499318 937.5 156.25 915.413603 156.25 887.867647L156.25 161.764706C156.25 134.367648 175.370417 112.132353 199.217229 112.132353L328.118919 112.132353zM718.75 562.5C822.303391 562.5 906.25 646.446609 906.25 750C906.25 853.553391 822.303391 937.5 718.75 937.5C615.196609 937.5 531.25 853.553391 531.25 750C531.25 646.446609 615.196609 562.5 718.75 562.5zM718.75 816.964284C707.654994 816.964284 698.660716 825.958566 698.660716 837.053572C698.660716 848.148578 707.654994 857.142856 718.75 857.142856C729.845006 857.142856 738.839284 848.148578 738.839284 837.053572C738.839284 825.958566 729.845006 816.964284 718.75 816.964284zM718.75 642.857144C689.163316 642.857144 665.178572 666.841888 665.178572 696.428572C665.178572 703.825241 671.174759 709.821428 678.571428 709.821428C685.9681 709.821428 691.964284 703.825241 691.964284 696.428572C691.964284 681.635231 703.956659 669.642856 718.75 669.642856C733.543341 669.642856 745.535716 681.635231 745.535716 696.428572C745.535716 704.808425 742.539719 712.879381 737.140906 719.209387L735.253122 721.252947L732.173784 724.332281C725.231534 731.274534 718.991994 738.88555 713.546044 747.054475C708.799753 754.173909 706.021069 762.400556 705.462181 770.901494L705.357144 774.100578L705.357144 776.785716C705.357144 784.182384 711.353328 790.178572 718.75 790.178572C725.618338 790.178572 731.279113 785.008391 732.052753 778.382625L732.142856 776.829453C732.142856 770.7122 733.953572 764.731816 737.346813 759.641953C739.942444 755.748506 742.821753 752.054491 745.960378 748.589628L749.184538 745.20225L757.4361 736.950691C766.233869 728.152922 771.472959 716.461706 772.226916 704.113713L772.321428 701.014325L772.321428 696.428572C772.321428 666.841888 748.336684 642.857144 718.75 642.857144zM437.5 468.75L312.5 468.75C295.241102 468.75 281.25 482.741103 281.25 500C281.25 516.026119 293.313756 529.2346 308.85559 531.039759L312.5 531.25L437.5 531.25C454.758897 531.25 468.75 517.258897 468.75 500C468.75 482.741103 454.758897 468.75 437.5 468.75zM687.5 343.75L312.5 343.75C295.241102 343.75 281.25 357.741103 281.25 375C281.25 391.026119 293.313756 404.2346 308.85559 406.039759L312.5 406.25L687.5 406.25C704.758897 406.25 718.75 392.258897 718.75 375C718.75 357.741103 704.758897 343.75 687.5 343.75zM628.889525 62.5L628.889525 161.764706L371.086147 161.764706L371.086147 62.5L628.889525 62.5z" fill="#666666"></path></svg>
