<!--?xml version="1.0"?-->
<svg xmlns="http://www.w3.org/2000/svg" class="icon" style="vertical-align:middle;fill:currentColor;overflow:hidden;" viewBox="0 0 1024 1024" version="1.1" width="200px" height="200px"><path d="M594.185672 62.5L594.185672 354.996578L875 354.996578L875 906.25C875 923.508897 861.008897 937.5 843.75 937.5L156.25 937.5C138.991102 937.5 125 923.508897 125 906.25L125 93.75C125 76.491102 138.991102 62.5 156.25 62.5L594.185672 62.5zM367.095559 618.272997C346.564025 618.272997 328.928894 625.573506 315.37735 639.999234C301.069568 653.268094 293.75 671.968269 293.75 694.325316C293.75 716.682363 301.069568 735.382541 316.278719 749.549022C329.114075 763.274256 346.830772 771.132409 367.095559 771.132409C387.173394 771.132409 404.432041 764.180853 419.330466 750.303794C433.794578 734.968516 441.15015 715.654353 441.15015 694.325316C441.15015 673.108197 433.875669 654.523209 420.231834 639.999234C405.625094 625.470828 387.513531 618.272997 367.095559 618.272997zM434.291816 286.111111L300.608335 286.111111L302.22456 307.10315L320.943637 550.232341L322.321556 568.129191L412.578591 568.129191L413.956513 550.232341L432.675591 307.10315L434.291816 286.111111zM647.578584 62.5L875 305.555556L647.578584 305.555556L647.578584 62.5z" fill="#666666"></path></svg>
