<!--?xml version="1.0" encoding="UTF-8"?-->
<svg width="32px" height="32px" viewBox="0 0 32 32" version="1.1" xmlns="http://www.w3.org/2000/svg" xmlns:xlink="http://www.w3.org/1999/xlink">
    <title>1858.采购检验管理</title>
    <g id="1858.采购检验管理" stroke="none" stroke-width="1" fill="none" fill-rule="evenodd">
        <path d="M15.0862029,2 C22.3135132,2 28.1724057,7.88210402 28.1724057,15.1380471 C28.1724057,18.3174609 27.047485,21.2330945 25.1754347,23.50566 L29.4829209,28.5520723 C29.9738358,29.127121 29.9063624,29.9910913 29.3321251,30.482955 C29.3297095,30.4850241 29.3272867,30.4870846 29.3248567,30.4891366 C28.751499,30.9733084 27.894202,30.9010089 27.4100302,30.3276512 L23.2530918,25.4041806 C21.0145845,27.2014366 18.1753983,28.2760941 15.0862029,28.2760941 C7.85889259,28.2760941 2,22.3939901 2,15.1380471 C2,7.88210402 7.85889259,2 15.0862029,2 Z M15.0862029,4.71821663 C9.35419817,4.71821663 4.70749025,9.38333362 4.70749025,15.1380471 C4.70749025,20.8927605 9.35419817,25.5578775 15.0862029,25.5578775 C20.8182076,25.5578775 25.4649155,20.8927605 25.4649155,15.1380471 C25.4649155,9.38333362 20.8182076,4.71821663 15.0862029,4.71821663 Z M20,21 C20.5830619,21 21,21.4169381 21,22 C21,22.5830619 20.5,23 20,23 C19.4169381,23 19,22.5 19,22 C19,21.4169381 19.5,21 20,21 Z M13,21 C13.5,21 14,21.4169381 14,22 C14,22.5830619 13.5,23 13,23 C12.4169381,23 12,22.5 12,22 C12,21.4169381 12.5,21 13,21 Z M9.77676455,9 C10.0909112,9 10.8212002,9.1008365 11.1353469,10.1131559 L11.7784285,12.9541657 L22.5369316,12.9541657 C22.7470427,12.9541657 22.8209767,12.9443993 22.9403256,13.0621997 C23.0198915,13.1407332 23.0198915,13.3723701 22.9403256,13.7571103 L21.4777077,19.6955133 C21.4777077,19.8991635 21.2675966,20 21.0595254,20 L12.4918893,20 C12.2817782,20 12.1777426,19.8971863 12.073707,19.6955133 L10.2989824,10.4176426 C10.1949468,9.91148289 9.98483571,9.91148289 9.88080013,9.91148289 L8.52221782,9.91148289 C8.20807116,9.91148289 8,9.70980989 8,9.40532319 C8,9.201673 8.21011108,9 8.41818224,9 Z" id="形状结合" fill="#666666"></path>
    </g>
</svg>