<!--?xml version="1.0" encoding="UTF-8"?-->
<svg width="32px" height="32px" viewBox="0 0 32 32" version="1.1" xmlns="http://www.w3.org/2000/svg" xmlns:xlink="http://www.w3.org/1999/xlink">
    <title>1857.采购分析</title>
    <g id="1857.采购分析" stroke="none" stroke-width="1" fill="none" fill-rule="evenodd">
        <path d="M29.9,4 C30.5075132,4 31,4.49248678 31,5.1 L31,22.4652174 C31,23.0727306 30.5075132,23.5652174 29.9,23.5652174 L17.666,23.565 L17.666,26.826 L23.2463768,26.826087 C23.8466863,26.826087 24.3333333,27.312734 24.3333333,27.9130435 C24.3333333,28.513353 23.8466863,29 23.2463768,29 L8.75362319,29 C8.15331368,29 7.66666667,28.513353 7.66666667,27.9130435 C7.66666667,27.312734 8.15331368,26.826087 8.75362319,26.826087 L14.333,26.826 L14.333,23.565 L2.1,23.5652174 C1.49248678,23.5652174 1,23.0727306 1,22.4652174 L1,5.1 C1,4.49248678 1.49248678,4 2.1,4 L29.9,4 Z M16.1634722,7.27239017 C12.6405812,7.55045144 9.91976741,10.4173084 9.8974537,13.8747452 C9.88642886,15.6290828 10.5939491,17.3146913 11.8620438,18.5552187 C13.1301385,19.7957461 14.853205,20.4878855 16.6465278,20.4771003 C18.3400342,20.4879604 19.9692616,19.8434494 21.1790278,18.6840749 L16.35875,14.253459 C16.2628241,14.1596184 16.2628241,14.0624264 16.1634722,13.9685858 Z M22.9125463,14.3472996 L17.8969907,14.3472996 L21.5627315,17.7423177 C22.3447376,16.7654434 22.8143263,15.5843466 22.9125463,14.3472996 Z M17.1295833,7.74159307 L17.1295833,13.4021909 L22.9125463,13.4021909 C22.8340425,12.0735193 22.2912341,10.8146835 21.3799158,9.83422125 L21.1790278,9.62845902 C20.1309181,8.50891871 18.6786619,7.83223013 17.1295833,7.74159307 Z" id="形状结合" fill="#666666"></path>
    </g>
</svg>