<!--?xml version="1.0" encoding="UTF-8"?-->
<svg width="32px" height="32px" viewBox="0 0 32 32" version="1.1" xmlns="http://www.w3.org/2000/svg" xmlns:xlink="http://www.w3.org/1999/xlink">
    <title>1860.生产调度</title>
    <g id="1860.生产调度" stroke="none" stroke-width="1" fill="none" fill-rule="evenodd">
        <path d="M8.03602629,18 L9.5032276,20.8794011 C9.8446707,21.5494874 10.5331591,21.9713841 11.2852223,21.9713841 L20.816861,21.9713841 C21.5173191,21.9713841 22.1624456,21.605423 22.5235357,21.014146 L22.601718,20.8737617 L24.0546178,18 L29,18 C29.5522847,18 30,18.4477153 30,19 L30,27 C30,28.0543618 29.1841222,28.9181651 28.1492623,28.9945143 L28,29 L4,29 C2.8954305,29 2,28.1045695 2,27 L2,19 C2,18.4477153 2.44771525,18 3,18 L8.03602629,18 Z M25,3 C25.5522847,3 26,3.44771525 26,4 L26,17 L23.439654,17 L21.7092895,20.4225729 C21.5391147,20.7591699 21.1940307,20.9713841 20.816861,20.9713841 L11.2852223,20.9713841 C10.9091907,20.9713841 10.5649465,20.7604358 10.394225,20.4253926 L8.6488132,17 L6,17 L6,4 C6,3.44771525 6.44771525,3 7,3 L25,3 Z M12.1427889,6 L10,9.07687585 L11.2855928,9.07687585 L11.2855928,13.1153634 C11.2855928,14.4937404 12.5352898,15.6154492 14.0713894,15.6154492 C15.6073884,15.6154492 16.8570854,14.4937404 16.8570854,13.1153634 L16.8570854,9.26920542 C16.8570854,8.73898543 17.3376962,8.30759369 17.9285905,8.30759369 C18.5193036,8.30759369 18.9998944,8.73900348 18.9998944,9.26920542 L18.9998944,12.9231242 L17.7143015,12.9231242 L19.8569898,16 L22,12.9231422 L20.7142059,12.9231422 L20.7142059,9.26920542 C20.7142059,7.89064788 19.464509,6.76911965 17.9286106,6.76911965 C16.3926116,6.76911965 15.1429146,7.89064788 15.1429146,9.26920542 L15.1429146,13.1153634 C15.1429146,13.6455834 14.6621025,14.0768849 14.0714095,14.0768849 C13.4806964,14.0768849 12.9999044,13.6455654 12.9999044,13.1153634 L12.9999044,9.07687585 L14.2856985,9.07687585 L12.1427889,6 Z" id="形状结合" fill="#666666"></path>
    </g>
</svg>