<!--?xml version="1.0" encoding="UTF-8"?-->
<svg width="32px" height="32px" viewBox="0 0 32 32" version="1.1" xmlns="http://www.w3.org/2000/svg" xmlns:xlink="http://www.w3.org/1999/xlink">
    <title>594.产值确认@1x</title>
    <g id="594.产值确认" stroke="none" stroke-width="1" fill="none" fill-rule="evenodd">
        <g id="编组" transform="translate(4.000000, 2.000000)" fill="#000000" fill-rule="nonzero">
            <path d="M18,14.8965517 C21.3137085,14.8965517 24,17.6060009 24,20.9482759 C24,24.2905508 21.3137085,27 18,27 C14.6862915,27 12,24.2905508 12,20.9482759 C12,17.6060009 14.6862915,14.8965517 18,14.8965517 Z M21.2300574,0 C21.7402518,0 22.1538462,0.413594336 22.1538462,0.9237888 L22.1541573,15.3617933 C20.9970355,14.4850505 19.558671,13.9655172 18,13.9655172 C14.1764902,13.9655172 11.0769231,17.0918048 11.0769231,20.9482759 C11.0769231,22.125303 11.3656543,23.2343119 11.875576,24.2071796 L0.9237888,24.2068966 C0.413594336,24.2068966 0,23.7933022 0,23.2831078 L0,0.9237888 C0,0.413594336 0.413594336,0 0.9237888,0 L21.2300574,0 Z M20.5576512,18.6412937 L20.5548618,18.6440831 L16.978,22.2505517 L15.2307456,20.4063517 L15.2209249,20.3963057 C15.0447272,20.221614 14.7602751,20.2228348 14.5855834,20.3990325 C14.4264476,20.5595401 14.4039959,20.8052384 14.5198885,20.9897761 L14.5780316,21.0646925 L16.5761833,23.1745311 C16.5937989,23.2021279 16.6145972,23.228281 16.6385781,23.2524686 C16.6866698,23.3009749 16.7428933,23.3365178 16.8029018,23.3590785 C16.9672993,23.4285734 17.1644268,23.3959843 17.2976852,23.2615771 C17.3218051,23.2372493 17.342785,23.2109644 17.360619,23.1832321 L21.2075758,19.3024239 C21.3882691,19.1201728 21.3882691,18.8263341 21.2075758,18.6440831 C21.0288743,18.4638411 20.7378932,18.4625922 20.5576512,18.6412937 Z M9.47260371,10.8738509 C9.19731101,10.8738509 8.9689297,11.0747028 8.9260064,11.3378603 L8.9187575,11.427697 L8.9187575,18.699315 C8.9187575,19.0051958 9.16672291,19.2531612 9.47260371,19.2531612 C9.74789642,19.2531612 9.9762776,19.0523093 10.0192009,18.7891518 L10.0264498,18.699315 L10.0264498,11.427697 C10.0264498,11.1218162 9.77848451,10.8738509 9.47260371,10.8738509 Z M4.85721904,13.6669543 C4.58192634,13.6669543 4.35354512,13.8678063 4.31062182,14.1309637 L4.3033729,14.2208005 L4.3033729,18.699315 C4.3033729,19.0051958 4.55133827,19.2531612 4.85721904,19.2531612 C5.13251178,19.2531612 5.36089299,19.0523093 5.40381629,18.7891518 L5.41106522,18.699315 L5.41106522,14.2208005 C5.41106522,13.9149197 5.16309984,13.6669543 4.85721904,13.6669543 Z M17.0920222,4.65517242 L14.5000175,6.49677843 L11.9080129,8.33838451 L9.28615491,4.97711824 L3.69230768,8.99280211 L4.27506166,9.8648433 L9.01968509,6.52689882 L11.7089125,9.81820371 L17.7249206,5.54566243 L17.0920222,4.65517242 Z" id="形状" fill="#346bf6"></path>
        </g>
    </g>
</svg>