<!--?xml version="1.0" encoding="UTF-8"?-->
<svg width="32px" height="32px" viewBox="0 0 32 32" version="1.1" xmlns="http://www.w3.org/2000/svg" xmlns:xlink="http://www.w3.org/1999/xlink">
    <title>1888.产品运营分析</title>
    <g id="1888.产品运营分析" stroke="none" stroke-width="1" fill="none" fill-rule="evenodd" opacity="0.900000036">
        <path d="M29.1666667,5 C29.6959396,5 30.125,5.42906045 30.125,5.95833333 C30.125,6.48760622 29.6959396,6.91666667 29.1666667,6.91666667 L28.25,6.91666667 L28.2496588,16.5678853 C27.9435772,16.5231476 27.630683,16.5 27.3125,16.5 C23.6881313,16.5 20.75,19.5034231 20.75,23.2083333 L17,23.2083333 L17,26.083 L19.7916667,26.0833333 C20.3209396,26.0833333 20.75,26.5123938 20.75,27.0416667 C20.75,27.5709396 20.3209396,28 19.7916667,28 L12.3333333,28 C11.8040604,28 11.375,27.5709396 11.375,27.0416667 C11.375,26.5123938 11.8040604,26.0833333 12.3333333,26.0833333 L15.125,26.083 L15.125,23.2083333 L2.95833333,23.2083333 C2.42906045,23.2083333 2,22.7792729 2,22.25 C2,21.7207271 2.42906045,21.2916667 2.95833333,21.2916667 L3.875,21.2916667 L3.875,6.91666667 L2.95833333,6.91666667 C2.42906045,6.91666667 2,6.48760622 2,5.95833333 C2,5.42906045 2.42906045,5 2.95833333,5 L29.1666667,5 Z M28.4262707,18.4166667 C28.4262707,19.3172425 29.1588674,20.0473843 30.0624712,20.0473843 C30.3582053,20.0473843 30.6355037,19.9692001 30.8750407,19.832346 L32,21.792654 C31.5078303,22.0738384 31.1762419,22.6025006 31.1762419,23.2083333 C31.1762419,23.814166 31.5078303,24.3428283 32,24.6240127 L30.8750407,26.5843206 C30.6355037,26.4474665 30.3582053,26.3692823 30.0624712,26.3692823 C29.1588674,26.3692823 28.4263979,27.0992974 28.4263979,28 L26.1986021,28 C26.1986021,27.0992974 25.4661326,26.3692823 24.5625288,26.3692823 C24.2667947,26.3692823 23.9893692,26.4474665 23.7500865,26.5843206 L22.625,24.6240127 C23.1171697,24.3428283 23.4486309,23.814166 23.4486309,23.2083333 C23.4486309,22.6025006 23.1171697,22.0738384 22.625,21.792654 L23.7500865,19.832346 C23.9893692,19.9692001 24.2667947,20.0473843 24.5625288,20.0473843 C25.4661326,20.0473843 26.1987293,19.3172425 26.1987293,18.4166667 L28.4262707,18.4166667 Z M27.3125,21.2916667 C26.2769661,21.2916667 25.4375,22.1497876 25.4375,23.2083333 C25.4375,24.2668791 26.2769661,25.125 27.3125,25.125 C28.3480339,25.125 29.1875,24.2668791 29.1875,23.2083333 C29.1875,22.1497876 28.3480339,21.2916667 27.3125,21.2916667 Z M20.75,11.7083333 C20.232233,11.7083333 19.8125,12.1280664 19.8125,12.6458333 L19.8125,18.4375 C19.8125,18.955267 20.232233,19.375 20.75,19.375 C21.267767,19.375 21.6875,18.955267 21.6875,18.4375 L21.6875,12.6458333 C21.6875,12.1280664 21.267767,11.7083333 20.75,11.7083333 Z M16.0625,9.79166667 C15.544733,9.79166667 15.125,10.2113997 15.125,10.7291667 L15.125,18.4375 C15.125,18.955267 15.544733,19.375 16.0625,19.375 C16.580267,19.375 17,18.955267 17,18.4375 L17,10.7291667 C17,10.2113997 16.580267,9.79166667 16.0625,9.79166667 Z M11.375,13.625 C10.857233,13.625 10.4375,14.044733 10.4375,14.5625 L10.4375,18.4375 C10.4375,18.955267 10.857233,19.375 11.375,19.375 C11.892767,19.375 12.3125,18.955267 12.3125,18.4375 L12.3125,14.5625 C12.3125,14.044733 11.892767,13.625 11.375,13.625 Z" id="形状结合" fill="#666666"></path>
    </g>
</svg>