<!--?xml version="1.0" encoding="UTF-8"?-->
<svg width="32px" height="32px" viewBox="0 0 32 32" version="1.1" xmlns="http://www.w3.org/2000/svg" xmlns:xlink="http://www.w3.org/1999/xlink">
    <title>1853.生产检验管理</title>
    <g id="1853.生产检验管理" stroke="none" stroke-width="1" fill="none" fill-rule="evenodd">
        <path d="M15.0862029,2 C22.3135132,2 28.1724057,7.88210402 28.1724057,15.1380471 C28.1724057,18.3174609 27.047485,21.2330945 25.1754347,23.50566 L29.4829209,28.5520723 C29.9738358,29.127121 29.9063624,29.9910913 29.3321251,30.482955 C29.3297095,30.4850241 29.3272867,30.4870846 29.3248567,30.4891366 C28.751499,30.9733084 27.894202,30.9010089 27.4100302,30.3276512 L23.2530918,25.4041806 C21.0145845,27.2014366 18.1753983,28.2760941 15.0862029,28.2760941 C7.85889259,28.2760941 2,22.3939901 2,15.1380471 C2,7.88210402 7.85889259,2 15.0862029,2 Z M15.0862029,4.71821663 C9.35419817,4.71821663 4.70749025,9.38333362 4.70749025,15.1380471 C4.70749025,20.8927605 9.35419817,25.5578775 15.0862029,25.5578775 C20.8182076,25.5578775 25.4649155,20.8927605 25.4649155,15.1380471 C25.4649155,9.38333362 20.8182076,4.71821663 15.0862029,4.71821663 Z M6.98085415,15.1380471 L11.5874794,18.0485741 L9.60323384,18.0485741 C10.5794972,20.0055337 12.7051945,21.3617803 15.1702527,21.3617803 C18.357844,21.3617803 20.9776985,19.0945855 21.2796127,16.193506 L23.2086736,17.1841162 C22.4405024,20.6710763 19.1336318,23.292697 15.1708891,23.292697 C10.6381719,23.292697 6.96373212,19.8631502 6.96373212,15.6321736 C6.96373212,15.4663724 6.96943947,15.301472 6.98085415,15.1380471 Z M14.9422921,6.98339716 C19.5077529,6.98339716 23.2086736,10.6222318 23.2086736,15.1107018 L23.2086736,15.1380471 L18.5524491,13.0690557 L20.5377728,12.5222312 C19.5489678,10.4595222 17.415101,9.03195578 14.9416303,9.03195578 C11.7518731,9.03195578 9.12634386,11.4068687 8.79406069,14.4564479 L6.96373212,12.9754718 C7.91740221,9.52289013 11.1282528,6.98339716 14.9422921,6.98339716 Z" id="形状结合" fill="#666666" fill-rule="nonzero"></path>
    </g>
</svg>