<!--?xml version="1.0" encoding="UTF-8"?-->
<svg width="32px" height="32px" viewBox="0 0 32 32" version="1.1" xmlns="http://www.w3.org/2000/svg" xmlns:xlink="http://www.w3.org/1999/xlink">
    <title>1873.项目日志</title>
    <g id="1873.项目日志" stroke="none" stroke-width="1" fill="none" fill-rule="evenodd">
        <path d="M14.2685263,5.12437419 C15.095068,6.36472108 15.5460398,7.13932206 15.5460399,7.13932206 C15.5460399,7.13932206 15.921445,7.44855935 16.5239619,7.44855935 L28.126015,7.44813826 C28.2431391,7.4408561 30,7.36534574 30,9.38867188 L30,26.8394488 C30,26.8394488 30.2995504,28.9358576 28.3469989,28.9358576 L3.89662579,28.9358576 C3.89662579,28.9358576 2.01651302,29.2450524 2.01651302,26.6866777 L2.01713905,6.18485809 C2.02621646,5.93086149 2.1669162,3.96238782 4.34776231,3.96238782 L12.5398762,3.96238782 C12.5398762,3.96238782 13.5178394,3.72794337 14.2685263,5.12437419 Z M24.9416667,22.8363636 L6.84166667,22.8363636 C6.28938192,22.8363636 5.84166667,23.2840789 5.84166667,23.8363636 L5.84166667,24.3272727 C5.84166667,24.8795575 6.28938192,25.3272727 6.84166667,25.3272727 L24.9416667,25.3272727 C25.4939514,25.3272727 25.9416667,24.8795575 25.9416667,24.3272727 L25.9416667,23.8363636 C25.9416667,23.2840789 25.4939514,22.8363636 24.9416667,22.8363636 Z M17.6701725,4.35932909 L26.1349504,4.40299216 C26.6602986,4.40570202 27.0847458,4.83234433 27.0847458,5.35769948 L27.0847458,6.00114709 L16.9907498,6.00114709 L16.9137651,5.90290297 C16.5885431,5.48787044 16.6613489,4.88777557 17.0763814,4.56255355 C17.2457542,4.42983195 17.454996,4.35821916 17.6701725,4.35932909 Z" id="形状结合" fill="#666666" fill-rule="nonzero"></path>
    </g>
</svg>