<!--?xml version="1.0" encoding="UTF-8"?-->
<svg width="32px" height="32px" viewBox="0 0 32 32" version="1.1" xmlns="http://www.w3.org/2000/svg" xmlns:xlink="http://www.w3.org/1999/xlink">
    <title>568.项目@1x</title>
    <g id="568.项目" stroke="none" stroke-width="1" fill="none" fill-rule="evenodd">
        <g id="编组" transform="translate(4.000000, 6.000000)" fill="#000000" fill-rule="nonzero">
            <path d="M23.9853217,18.5952461 L23.9853217,4.41984581 C23.9853217,2.71960783 22.3141105,2.8438775 22.3141105,2.8438775 L12.8955101,2.8438775 C12.3599396,2.8438775 12.0262461,2.59268166 12.0262461,2.59268166 C12.0262461,2.59268166 11.6253822,1.96346732 10.8906785,0.955924016 C10.2234012,-0.178407493 9.3541006,0.0120335553 9.3541006,0.0120335553 L2.07222158,0.0120335553 C0,0.0120335553 0,1.83919771 0,1.83919771 L0,18.471149 C0,20.5493364 1.67121136,20.2981752 1.67121136,20.2981752 L22.5159875,20.2981752 C24.2515888,20.2981752 23.9853217,18.5952461 23.9853217,18.5952461 Z M5.31865509,10.6025861 C5.80957486,10.6025861 6.20754396,10.9662688 6.20754396,11.4148938 C6.20754396,11.863519 5.80957486,12.2272015 5.31865509,12.2272015 C4.82773531,12.2272015 4.42976619,11.863519 4.42976619,11.4148938 C4.42976619,10.9662688 4.82773531,10.6025861 5.31865509,10.6025861 Z M5.31865509,6.54104775 C5.83269958,6.54104775 6.20754396,6.92470702 6.20754396,7.35330862 C6.20754396,7.78191025 5.83269958,8.1656631 5.31865509,8.1656631 C4.80450815,8.1656631 4.42976619,7.82313277 4.42976619,7.35330862 C4.42976619,6.92662543 4.80450818,6.54104775 5.31865509,6.54104775 Z M8.88801888,6.56230002 L19.5546857,6.56230002 C20.0456053,6.56230002 20.4435745,6.92598255 20.4435745,7.37460768 C20.4435745,7.82323288 20.0456053,8.18691538 19.5546857,8.18691538 L8.88801888,8.18691538 C8.39709911,8.18691538 7.99912998,7.82323288 7.99912998,7.37460768 C7.99912998,6.92598255 8.39709911,6.56230002 8.88801888,6.56230002 Z M5.31865509,14.6641246 C5.80957486,14.6641246 6.20754396,15.0278072 6.20754396,15.4764323 C6.20754396,15.9250575 5.80957486,16.28874 5.31865509,16.28874 C4.82773531,16.28874 4.42976619,15.9250575 4.42976619,15.4764323 C4.42976619,15.0278072 4.82773531,14.6641246 5.31865509,14.6641246 Z M19.5546857,10.6238384 C20.0456053,10.6238384 20.4435745,10.987521 20.4435745,11.4361461 C20.4435745,11.8847713 20.0456053,12.2484539 19.5546857,12.2484539 L8.88801888,12.2484539 C8.39709911,12.2484539 7.99912998,11.8847713 7.99912998,11.4361461 C7.99912998,10.987521 8.39709911,10.6238384 8.88801888,10.6238384 L19.5546857,10.6238384 Z M8.88801888,14.685377 L19.5546857,14.685377 C20.0456053,14.685377 20.4435745,15.0490595 20.4435745,15.4976847 C20.4435745,15.9463097 20.0456053,16.3099923 19.5546857,16.3099923 L8.88801888,16.3099923 C8.39709911,16.3099923 7.99912998,15.9463097 7.99912998,15.4976847 C7.99912998,15.0490595 8.39709911,14.685377 8.88801888,14.685377 Z" id="形状" fill="#346bf6"></path>
        </g>
    </g>
</svg>