<!--?xml version="1.0" encoding="UTF-8"?-->
<svg width="32px" height="32px" viewBox="0 0 32 32" version="1.1" xmlns="http://www.w3.org/2000/svg" xmlns:xlink="http://www.w3.org/1999/xlink">
    <title>730.项目预算执行汇总分析表@1x</title>
    <g id="730.项目预算执行汇总分析表" stroke="none" stroke-width="1" fill="none" fill-rule="evenodd">
        <g id="编组" transform="translate(5.000000, 4.000000)" fill="#000000" fill-rule="nonzero">
            <path d="M20.276608,0 C21.2284112,0 22,0.771588895 22,1.723392 L22,23.026608 C22,23.9784112 21.2284112,24.75 20.276608,24.75 L1.723392,24.75 C0.771588895,24.75 0,23.9784112 0,23.026608 L0,1.723392 C0,0.771588895 0.771588895,0 1.723392,0 L20.276608,0 Z M16.5549707,19.0384615 L5.44502934,19.0384615 C5.01239156,19.0384615 4.65422246,19.3572999 4.59267633,19.7728224 L4.58333334,19.9001575 L4.58333334,20.0806116 C4.58333334,20.5132495 4.90217172,20.8714186 5.31769422,20.9329647 L5.44502934,20.9423076 L16.5549707,20.9423076 C16.9876084,20.9423076 17.3457775,20.6234693 17.4073237,20.2079468 L17.4166667,20.0806116 L17.4166667,19.9001575 C17.4166667,19.4242559 17.0308722,19.0384615 16.5549707,19.0384615 Z M16.5549707,14.2788462 L5.44502934,14.2788462 C5.01239156,14.2788462 4.65422246,14.5976845 4.59267633,15.013207 L4.58333334,15.1405422 L4.58333334,15.3209963 C4.58333334,15.753634 4.90217172,16.1118031 5.31769422,16.1733494 L5.44502934,16.1826923 L16.5549707,16.1826923 C16.9876084,16.1826923 17.3457775,15.8638539 17.4073237,15.4483314 L17.4166667,15.3209963 L17.4166667,15.1405422 C17.4166667,14.6646407 17.0308722,14.2788462 16.5549707,14.2788462 Z M5.55497069,7.61538462 L5.44502934,7.61538462 C5.01239156,7.61538462 4.65422246,7.934223 4.59267633,8.3497455 L4.58333334,8.47708062 L4.58333334,10.5613809 C4.58333334,10.9940187 4.90217172,11.3521878 5.31769422,11.4137339 L5.44502934,11.4230769 L5.55497069,11.4230769 C5.98760847,11.4230769 6.34577754,11.1042386 6.40732367,10.688716 L6.41666668,10.5613809 L6.41666668,8.47708062 C6.41666668,8.00117906 6.03087224,7.61538462 5.55497069,7.61538462 Z M11.0549707,6.66346156 L10.9450293,6.66346156 C10.5123916,6.66346156 10.1542225,6.98229991 10.0926763,7.39782244 L10.0833333,7.52515756 L10.0833333,10.5613809 C10.0833333,10.9940187 10.4021717,11.3521878 10.8176942,11.4137339 L10.9450293,11.4230769 L11.0549707,11.4230769 C11.4876084,11.4230769 11.8457775,11.1042386 11.9073237,10.688716 L11.9166667,10.5613809 L11.9166667,7.52515756 C11.9166667,7.04925598 11.5308722,6.66346156 11.0549707,6.66346156 Z M17.1875,4.125 C16.8078042,4.125 16.5,4.43280425 16.5,4.8125 L16.5,4.8125 L16.5,10.3125 C16.5,10.6921958 16.8078042,11 17.1875,11 C17.5671958,11 17.875,10.6921958 17.875,10.3125 L17.875,10.3125 L17.875,4.8125 C17.875,4.43280425 17.5671958,4.125 17.1875,4.125 Z" id="形状" fill="#666666"></path>
        </g>
    </g>
</svg>