<!--?xml version="1.0" encoding="UTF-8"?-->
<svg width="32px" height="32px" viewBox="0 0 32 32" version="1.1" xmlns="http://www.w3.org/2000/svg" xmlns:xlink="http://www.w3.org/1999/xlink">
    <title>556.项目授权@1x</title>
    <g id="556.项目授权" stroke="none" stroke-width="1" fill="none" fill-rule="evenodd">
        <g id="编组" transform="translate(4.000000, 7.000000)" fill="#000000" fill-rule="nonzero">
            <path d="M23.7909,17.9319923 C23.8878226,17.9319923 23.9851054,18.0691049 23.9851054,18.2407087 L23.9851054,18.2407087 L23.9851054,18.549049 C23.9851054,18.7202517 23.8878226,18.8577528 23.7665643,18.8577528 L23.7665643,18.8577528 L14.831312,18.8577528 C14.7097054,18.8577528 14.6127828,18.7202517 14.6127828,18.549049 L14.6127828,18.549049 L14.6127828,18.2407087 C14.6127828,18.0691049 14.7097054,17.9319923 14.831312,17.9319923 L14.831312,17.9319923 L23.7909,17.9319923 Z M7.91015787,0 C8.24751948,0 8.54342041,0.225106902 8.63343918,0.550236806 L9.54123195,3.829005 L19.799854,3.829005 C20.2143391,3.829005 20.5503458,4.16501159 20.5503458,4.57949674 L20.5503458,6.37707501 C20.0301603,6.21885531 19.4500742,6.1513087 18.8215494,6.20507988 C16.1266753,6.43563032 14.8407584,8.44028727 15.0155507,10.6075309 C15.0765619,11.3640085 15.3039571,12.0707255 15.7846668,12.6268569 C16.5533423,13.7387568 17.2185154,14.4325915 15.9436781,14.8558896 L14.1778213,14.8558896 C13.8257406,14.8558896 13.633465,15.0313491 13.633465,15.3532796 L13.6410127,18.3785945 L0.750491741,18.379224 C0.33600659,18.379224 0,18.0432174 0,17.6287322 L0,0.750491741 C0,0.33600659 0.33600659,0 0.750491741,0 L7.91015787,0 Z M19.2766324,7.22096932 C21.0376943,7.22096932 22.4349934,8.66453656 22.4349934,10.4194646 C22.4349934,10.9853735 22.295225,11.4948457 22.0436516,11.9478687 C21.9597738,12.1175673 21.8479687,12.2592419 21.7361516,12.4005281 C21.1444184,13.3815973 20.6042154,14.1001599 21.4377446,15.1376533 C21.4798576,15.191834 21.522331,15.2456138 21.5662459,15.2986415 L21.5662459,15.2986415 C21.5916627,15.3300872 21.6174398,15.3603923 21.644298,15.3895569 C21.6994799,15.4520597 21.7528479,15.5066039 21.7942283,15.538037 L21.7942283,15.538037 L21.8025764,15.5437271 C21.9005921,15.6259069 22.015316,15.6994013 22.1249469,15.7122853 L22.1249469,15.7122853 L23.5247924,15.7122853 C23.9157739,15.7122853 24,15.7971347 24,16.1933449 L24,16.1933449 L24,17.068109 C23.9947576,17.1769199 23.9580671,17.134449 23.7484146,17.1554765 L23.7484146,17.1554765 L15.1402533,17.1554765 C14.8331378,17.1554765 14.6374669,17.2122893 14.6374669,16.929341 L14.6374669,16.929341 L14.6374669,16.1933449 C14.6374669,15.881984 14.8051864,15.7122853 15.1123021,15.7122853 L15.1123021,15.7122853 L16.7895342,15.7122853 C18.2912989,14.5291446 17.7190286,13.716932 17.1021724,12.8363274 L16.9745766,12.6530133 C16.9111261,12.5607243 16.8486965,12.4673791 16.7895342,12.3724914 C16.3702171,11.8346192 16.1186437,11.1554482 16.1186437,10.4194646 C16.1186437,8.63649987 17.5438941,7.22096932 19.2766324,7.22096932 Z M12.8783402,8.08946869 L8.69092479,12.5996337 L6.72955277,10.2930622 C6.51039768,10.0353447 6.13249569,10.011774 5.8854814,10.2404426 C5.63846708,10.4691111 5.61589574,10.8634372 5.83505086,11.1211548 L8.22230769,13.9285784 C8.34047086,14.0675263 8.50472979,14.1384138 8.66977345,14.1384138 L8.67388416,14.1384138 C8.83008988,14.1384138 8.9861274,14.0749153 9.10339383,13.9486202 L13.7372475,8.95764493 C13.9670156,8.71016272 13.9609991,8.3152128 13.7238317,8.0754705 C13.4866457,7.83570875 13.1081084,7.84200595 12.8783402,8.08946869 Z M17.626465,1.58907555 C18.0409502,1.58907555 18.3769568,1.92508216 18.3769568,2.33956732 C18.3769568,2.35644112 18.3763877,2.37331013 18.3752505,2.39014559 L18.3452879,2.8337261 L10.4893164,2.8337261 L10.1256057,1.58907555 L17.626465,1.58907555 Z" id="形状" fill="#346bf6"></path>
        </g>
    </g>
</svg>