<!--?xml version="1.0" encoding="UTF-8"?-->
<svg width="32px" height="32px" viewBox="0 0 32 32" version="1.1" xmlns="http://www.w3.org/2000/svg" xmlns:xlink="http://www.w3.org/1999/xlink">
    <title>1305-项目</title>
    <g id="1305-项目" stroke="none" stroke-width="1" fill="none" fill-rule="evenodd">
        <g id="编组" transform="translate(4.000000, 6.000000)" fill="#000000" fill-rule="nonzero">
            <path d="M11.1428571,0 C11.4294456,0 11.6970724,0.143229559 11.8560431,0.38168555 L11.8560431,0.38168555 L13.3157143,2.57142857 L21.4285714,2.57142857 C22.7980122,2.57142857 23.9174236,3.6419314 23.9956348,4.99176617 L23.9956348,4.99176617 L24,5.14285714 L24,18 C24,19.4201607 22.8487322,20.5714286 21.4285714,20.5714286 L21.4285714,20.5714286 L2.57142857,20.5714286 C1.15126779,20.5714286 0,19.4201607 0,18 L0,18 L0,5.14285714 C0,5.03371236 0.00684907886,4.92528077 0.020407104,4.81807041 L0.020407104,4.81807041 L0.036,4.71428571 L0.0204514834,4.61095666 L0.00513205029,4.44907373 L0,4.28571429 L0,2.57142857 C0,1.15126779 1.15126779,0 2.57142857,0 L2.57142857,0 L11.1428571,0 Z M10.6834286,1.71428571 L2.57142857,1.71428571 C2.09804165,1.71428571 1.71428571,2.09804165 1.71428571,2.57142857 L1.71428571,2.57142857 L1.71428571,4.28571429 C1.71428571,4.3596401 1.72344875,4.43165036 1.74111686,4.5001279 L1.74111686,4.5001279 L1.76148653,4.60642727 C1.77507686,4.71358815 1.76832902,4.82268886 1.74124131,4.92792763 L1.74124131,4.92792763 L1.72108279,5.0336584 L1.71428571,5.14285714 L1.71428571,18 C1.71428571,18.4733869 2.09804165,18.8571429 2.57142857,18.8571429 L2.57142857,18.8571429 L21.4285714,18.8571429 C21.9019583,18.8571429 22.2857143,18.4733869 22.2857143,18 L22.2857143,18 L22.2857143,5.14285714 C22.2857143,4.66947023 21.9019583,4.28571429 21.4285714,4.28571429 L21.4285714,4.28571429 L12.852,4.28571429 C12.5535583,4.28571429 12.2766013,4.13048144 12.120847,3.8759071 L12.120847,3.8759071 L12.0814424,3.81025698 L10.6834286,1.71428571 Z M18.8571429,9.42857143 C19.8039167,9.42857143 20.5714286,10.1960833 20.5714286,11.1428571 L20.5714286,11.1428571 L20.5714286,17.1428571 C20.5714286,17.8824418 19.6976035,18.2748471 19.144831,17.7834937 L19.144831,17.7834937 L17.142,16.0037143 L15.1408833,17.7834937 C14.6121444,18.2534839 13.7896636,17.9148934 13.7191431,17.2373117 L13.7191431,17.2373117 L13.7142857,17.1428571 L13.7142857,11.1428571 C13.7142857,10.1960833 14.4817976,9.42857143 15.4285714,9.42857143 L15.4285714,9.42857143 L18.8571429,9.42857143 Z M18.8571429,11.1428571 L15.4285714,11.1428571 L15.4285714,15.2331429 L16.5734025,14.2165063 C16.8710985,13.9518875 17.3071306,13.9298359 17.6278827,14.1503516 L17.6278827,14.1503516 L17.7123118,14.2165063 L18.8571429,15.234 L18.8571429,11.1428571 Z" id="形状" fill="#666666"></path>
        </g>
    </g>
</svg>