<!--?xml version="1.0" encoding="UTF-8"?-->
<svg width="32px" height="32px" viewBox="0 0 32 32" version="1.1" xmlns="http://www.w3.org/2000/svg" xmlns:xlink="http://www.w3.org/1999/xlink">
    <title>447.项目形象进度汇报@1x</title>
    <g id="447.项目形象进度汇报" stroke="none" stroke-width="1" fill="none" fill-rule="evenodd">
        <g id="编组" transform="translate(4.000000, 5.000000)" fill="#000000" fill-rule="nonzero">
            <path d="M12.8593315,18.7349391 L14.9084009,20.7758235 L12.9839365,21.467915 C12.5903708,21.6094523 12.1565841,21.4051429 12.0150468,21.0115773 C11.9463438,20.820538 11.957223,20.6099131 12.0452431,20.426969 L12.8593315,18.7349391 Z M20.3851357,11.2409634 L22.4891777,13.3519339 L15.5721143,20.2360831 L13.4680723,18.1251126 L20.3851357,11.2409634 Z M8.1255806,0 C8.46257495,0 8.75902419,0.222682898 8.85289953,0.546337933 L9.78124006,3.74698781 L20.3099912,3.74698781 C20.7282337,3.74698781 21.0672862,4.08604032 21.0672862,4.50428277 L21.0672862,9.7421683 L12.7908523,17.9855415 L0.757294954,17.9855415 C0.339052509,17.9855415 0,17.646489 0,17.2282466 L0,0.757294954 C0,0.339052509 0.339052509,0 0.757294954,0 L8.1255806,0 Z M15.5918093,6.55164622 C15.4481343,6.55164622 15.3125051,6.6083381 15.2105916,6.71046107 L15.2059762,6.71495726 L15.1699268,6.75008028 C14.9298711,6.98398766 13.6626686,8.21907427 12.3241865,9.53006897 L11.9927815,9.85479814 C10.8315243,10.9931383 9.6757882,12.1312947 9.14250397,12.6720838 C9.10599219,12.7091094 9.04513936,12.7708186 9.00862766,12.8078441 L8.97820122,12.8386988 L5.8525823,9.77401591 C5.74990255,9.6711163 5.61427335,9.61442442 5.4709815,9.61442442 C5.32768962,9.61442442 5.19320983,9.6711163 5.09167949,9.77401591 C4.98976602,9.87575064 4.93382856,10.0120441 4.93344349,10.1572685 C4.9330623,10.3036578 4.9893829,10.4418928 5.09206262,10.5459573 L8.59966552,13.9954459 C8.70081271,14.097569 8.83605883,14.1538726 8.97973375,14.1538726 C9.12340876,14.1538726 9.25865488,14.097569 9.35980204,13.9954459 L15.973027,7.48317905 C16.0749404,7.37911458 16.131261,7.24243274 16.131261,7.0968201 C16.131261,6.95120741 16.0753236,6.81413736 15.973027,6.71123768 C15.8711135,6.6083381 15.7354843,6.55164622 15.5918093,6.55164622 Z M22.9600734,10.0173602 L23.7247909,10.7790229 C24.0887236,11.141502 24.0932373,11.7247009 23.7292436,12.0872407 L23.0747377,12.739132 L20.9921031,10.6648166 L21.6466089,10.0129252 C22.0080825,9.6528955 22.5906963,9.64945846 22.9600734,10.0173602 Z M18.0801716,1.55503761 C18.4984141,1.55503761 18.8374666,1.89409012 18.8374666,2.31233256 C18.8374666,2.33016724 18.8368366,2.34799636 18.8355777,2.36578655 L18.8067605,2.77302777 L10.7531733,2.77302777 L10.3803136,1.55503761 L18.0801716,1.55503761 Z" id="形状" fill="#666666"></path>
        </g>
    </g>
</svg>