<!--?xml version="1.0" encoding="UTF-8"?-->
<svg width="32px" height="32px" viewBox="0 0 32 32" version="1.1" xmlns="http://www.w3.org/2000/svg" xmlns:xlink="http://www.w3.org/1999/xlink">
    <title>268.项目准备</title>
    <g id="268.项目准备" stroke="none" stroke-width="1" fill="none" fill-rule="evenodd">
        <g id="项目准备" transform="translate(6.000000, 4.000000)" fill="#000000" fill-rule="nonzero">
            <path d="M18.9903517,0 C19.5954637,0 20.0860039,0.477562944 20.0860039,1.06666667 L20.0860039,13.6750488 C18.8920684,12.7322858 17.3623033,11.9999505 15.6927155,11.9999505 C11.8793027,11.9999505 8.78792076,14.9548589 8.78792076,18.5999232 C8.78792076,20.8316589 9.94677216,22.8046791 11.7206715,23.9991872 L1.09565218,23.999901 C0.490540204,23.999901 0,23.522338 0,22.9332343 L0,1.06666667 C0,0.477562944 0.490540204,0 1.09565218,0 L18.9903517,0 Z M15.5217391,13.3333334 C18.547299,13.3333334 21,15.721148 21,18.6666667 C21,21.6121852 18.547299,24 15.5217391,24 C12.4961792,24 10.0434783,21.6121852 10.0434783,18.6666667 C10.0434783,15.721148 12.4961792,13.3333334 15.5217391,13.3333334 Z M17.7072528,16.8004679 L17.6334774,16.861728 L15.0563533,19.3393334 L13.9275932,18.2532246 C13.6943647,18.0286043 13.3288851,18.0081842 13.0713699,18.1919645 L12.9975946,18.2532246 C12.7640745,18.4775576 12.7428454,18.8290587 12.9339073,19.0767506 L12.9975946,19.1477129 L14.5849633,20.6748201 C14.6096486,20.6992505 14.6363689,20.7217689 14.6648613,20.7421228 C14.6716352,20.7468993 14.6782683,20.7514451 14.6849811,20.755867 L14.7462266,20.7917999 L14.7462266,20.7917999 C14.7554954,20.7964195 14.7645642,20.8008247 14.773732,20.8050248 C14.7932285,20.8141495 14.813441,20.8222718 14.8341348,20.829425 C14.8438896,20.8326021 14.8536,20.8357135 14.8633859,20.8386068 C14.8898082,20.8466038 14.9172279,20.8529067 14.9452531,20.8575053 L14.9532111,20.8586647 C14.9881575,20.8639804 15.0221359,20.8665495 15.0567398,20.8665495 C15.1960472,20.8667993 15.3310445,20.8243842 15.4426854,20.7467434 L15.5217391,20.6820242 L18.5634761,17.7562164 C18.8203481,17.50945 18.8203481,17.1088103 18.5634761,16.861728 C18.3302476,16.6371078 17.9647679,16.6166878 17.7072528,16.8004679 Z M16.4665722,7.71426448 L7.11943168,7.71426448 C6.63318298,7.71426448 6.23900054,8.09801883 6.23900054,8.57140734 C6.23900054,8.99219048 6.55045334,9.34215788 6.96117307,9.41473347 L7.11943168,9.42855017 L16.4665722,9.42855017 C16.9528209,9.42855017 17.3470033,9.0447888 17.3470033,8.57140734 C17.3470033,8.09801883 16.9528209,7.71426448 16.4665722,7.71426448 Z M4.21657222,7.71426448 L3.61943168,7.71426448 C3.13318298,7.71426448 2.73900054,8.09801883 2.73900054,8.57140734 C2.73900054,8.99219048 3.05045334,9.34215788 3.46117307,9.41473347 L3.61943168,9.42855017 L4.21657222,9.42855017 C4.70282084,9.42855017 5.09700327,9.0447888 5.09700327,8.57140734 C5.09700327,8.09801883 4.70282084,7.71426448 4.21657222,7.71426448 Z M16.4665722,3.4285502 L7.11943168,3.4285502 C6.63318298,3.4285502 6.23900054,3.81230455 6.23900054,4.28569306 C6.23900054,4.70647617 6.55045334,5.05644357 6.96117307,5.12901915 L7.11943168,5.14283591 L16.4665722,5.14283591 C16.9528209,5.14283591 17.3470033,4.75907449 17.3470033,4.28569306 C17.3470033,3.81230455 16.9528209,3.4285502 16.4665722,3.4285502 Z M4.21657222,3.4285502 L3.61943168,3.4285502 C3.13318298,3.4285502 2.73900054,3.81230455 2.73900054,4.28569306 C2.73900054,4.70647617 3.05045334,5.05644357 3.46117307,5.12901915 L3.61943168,5.14283591 L4.21657222,5.14283591 C4.70282084,5.14283591 5.09700327,4.75907449 5.09700327,4.28569306 C5.09700327,3.81230455 4.70282084,3.4285502 4.21657222,3.4285502 Z" id="形状" fill="#666666"></path>
        </g>
    </g>
</svg>