<!--?xml version="1.0" encoding="UTF-8"?-->
<svg width="32px" height="32px" viewBox="0 0 32 32" version="1.1" xmlns="http://www.w3.org/2000/svg" xmlns:xlink="http://www.w3.org/1999/xlink">
    <title>963.证明办理工作台</title>
    <g id="963.证明办理工作台" stroke="none" stroke-width="1" fill="none" fill-rule="evenodd">
        <g id="编组" transform="translate(4.000000, 2.000000)" fill="#000000" fill-rule="nonzero">
            <path d="M18.2896806,17.1572989 C16.331964,17.1255039 14.5091984,18.1517289 13.5210465,19.8420606 C12.5328947,21.5323923 12.5328947,23.6241887 13.5210465,25.3145204 C14.5091984,27.0048521 16.331964,28.031077 18.2896806,27.999282 C21.2492898,27.9512155 23.6233456,25.5382899 23.6233456,22.5782905 C23.6233456,19.618291 21.2492898,17.2053655 18.2896806,17.1572989 Z M21.6610899,21.9642022 L20.0854779,23.476904 L20.4643683,25.6358641 C20.4733659,25.6968472 20.4477994,25.7577894 20.3979852,25.7940998 C20.348171,25.8304101 20.2823283,25.8360975 20.2270256,25.8088669 L18.2896806,24.7608419 L16.3194508,25.8245944 C16.2642694,25.8510618 16.1989966,25.8449897 16.1496442,25.8087979 C16.1002917,25.7726061 16.0748808,25.7121768 16.083538,25.6515916 L16.4924536,23.476904 L14.9168416,21.9642022 C14.8757627,21.920649 14.8613449,21.8583372 14.8791181,21.8011667 C14.8968913,21.7439962 14.9440966,21.7008418 15.0026281,21.6882556 L17.1944731,21.4037304 L18.1395543,19.4020455 C18.1685433,19.3485224 18.2245219,19.3151794 18.2853913,19.3151794 C18.3462607,19.3151794 18.4022393,19.3485224 18.4312284,19.4020455 L19.3763096,21.4037304 L21.5667247,21.6882556 C21.6267318,21.6983787 21.6763757,21.7405518 21.6960666,21.7981329 C21.7157576,21.8557141 21.7023328,21.9194547 21.6610899,21.9642022 Z M22.8763985,17.5662145 C20.2021761,15.0596425 16.0214505,15.1272688 13.4296973,17.719022 C10.8379441,20.3107752 10.7703177,24.4915009 13.2768898,27.1657233 L1.42977491,27.1657233 C0.640132031,27.1657233 0,26.5255912 0,25.7359484 L0,1.42977491 C0,0.640132031 0.640132031,0 1.42977491,0 L21.4466236,0 C22.2362665,0 22.8763985,0.640132031 22.8763985,1.42977491 L22.8763985,17.5662145 Z M4.28932473,5.71909964 C3.89450329,5.71909964 3.57443727,6.03916565 3.57443727,6.43398709 C3.57443727,6.82880853 3.89450329,7.14887455 4.28932473,7.14887455 L18.5870738,7.14887455 C18.9818953,7.14887455 19.3019613,6.82880853 19.3019613,6.43398709 C19.3019613,6.03916565 18.9818953,5.71909964 18.5870738,5.71909964 L4.28932473,5.71909964 Z M4.28932473,11.4381993 C3.89450329,11.4381993 3.57443727,11.7582653 3.57443727,12.1530867 C3.57443727,12.5479082 3.89450329,12.8679742 4.28932473,12.8679742 L12.8679742,12.8679742 C13.2627956,12.8679742 13.5828616,12.5479082 13.5828616,12.1530867 C13.5828616,11.7582653 13.2627956,11.4381993 12.8679742,11.4381993 L4.28932473,11.4381993 Z" id="形状" fill="#666666"></path>
        </g>
    </g>
</svg>