<!--?xml version="1.0" encoding="UTF-8"?-->
<svg width="32px" height="32px" viewBox="0 0 32 32" version="1.1" xmlns="http://www.w3.org/2000/svg" xmlns:xlink="http://www.w3.org/1999/xlink">
    <title>1062.冻结窗体</title>
    <g id="1062.冻结窗体" stroke="none" stroke-width="1" fill="none" fill-rule="evenodd">
        <g id="编组" transform="translate(2.000000, 3.000000)" fill="#000000" fill-rule="nonzero">
            <path d="M28,4.31421487e-16 L28,26.3529412 L0,26.3529412 L0,4.31421487e-16 L28,4.31421487e-16 Z M26.3529412,6.58823527 L1.64705885,6.58823527 L1.64705885,24.7058824 L26.3529412,24.7058824 L26.3529412,6.58823527 Z M14,8.23529409 C18.0934047,8.23529409 21.4117647,11.5536542 21.4117647,15.6470588 C21.4117647,19.7404635 18.0934047,23.0588235 14,23.0588235 C9.9065954,23.0588235 6.5882353,19.7404635 6.5882353,15.6470588 C6.5882353,11.5536542 9.9065954,8.23529409 14,8.23529409 Z M17.2941177,14.8235294 L10.7058823,14.8235294 C10.2510596,14.8235294 9.88235294,15.192236 9.88235294,15.6470588 C9.88235294,16.1018816 10.2510596,16.4705882 10.7058823,16.4705882 L17.2941177,16.4705882 C17.7489405,16.4705882 18.1176471,16.1018816 18.1176471,15.6470588 C18.1176471,15.192236 17.7489405,14.8235294 17.2941177,14.8235294 Z M26.3529412,1.64705879 L1.64705885,1.64705879 L1.64705885,4.94117645 L26.3529412,4.94117645 L26.3529412,1.64705879 Z" id="形状" fill="#346bf6"></path>
        </g>
    </g>
</svg>