<!--?xml version="1.0"?-->
<svg xmlns="http://www.w3.org/2000/svg" class="icon" style="vertical-align:middle;fill:currentColor;overflow:hidden;" viewBox="0 0 1024 1024" version="1.1" width="200px" height="200px"><path d="M93.75 125L906.25 125C923.508897 125 937.5 138.991102 937.5 156.25C937.5 173.508898 923.508897 187.5 906.25 187.5L93.75 187.5C76.491102 187.5 62.5 173.508898 62.5 156.25C62.5 138.991102 76.491102 125 93.75 125zM93.75 343.75L500 343.75C517.258897 343.75 531.25 357.741103 531.25 375C531.25 392.258897 517.258897 406.25 500 406.25L93.75 406.25C76.491102 406.25 62.5 392.258897 62.5 375C62.5 357.741103 76.491102 343.75 93.75 343.75zM781.25 281.25C798.508897 281.25 812.5 295.241102 812.5 312.5L812.5 656.25L920.247256 656.25C929.77535 656.25 937.499394 662.571466 937.499394 670.369388C937.499394 673.312194 936.375881 676.181456 934.285897 678.576116L795.288703 837.836244C789.750613 844.181675 778.975791 845.651384 771.222463 841.118934C769.673297 840.213322 768.317969 839.1041 767.211422 837.836244L628.214228 678.576116C622.676138 672.230684 624.471941 663.412419 632.225269 658.879969C635.151244 657.1695 638.657128 656.25 642.252869 656.25L750 656.25L750 312.5C750 295.241102 763.991103 281.25 781.25 281.25zM93.75 562.5L500 562.5C517.258897 562.5 531.25 576.491103 531.25 593.75C531.25 611.008897 517.258897 625 500 625L93.75 625C76.491102 625 62.5 611.008897 62.5 593.75C62.5 576.491103 76.491102 562.5 93.75 562.5zM93.75 781.25L500 781.25C517.258897 781.25 531.25 795.241103 531.25 812.5C531.25 829.758897 517.258897 843.75 500 843.75L93.75 843.75C76.491102 843.75 62.5 829.758897 62.5 812.5C62.5 795.241103 76.491102 781.25 93.75 781.25z" fill="#666666"></path></svg>
