<!--?xml version="1.0" encoding="UTF-8"?-->
<svg width="32px" height="32px" viewBox="0 0 32 32" version="1.1" xmlns="http://www.w3.org/2000/svg" xmlns:xlink="http://www.w3.org/1999/xlink">
    <title>雷达图</title>
    <g id="雷达图" stroke="none" stroke-width="1" fill="none" fill-rule="evenodd">
        <g id="视觉修正模版" transform="translate(-2.000000, -0.500000)"></g>
        <path d="M16.5,1 C25.0604136,1 32,7.71572875 32,16 C32,24.2842712 25.0604136,31 16.5,31 C7.93958638,31 1,24.2842712 1,16 C1,7.71572875 7.93958638,1 16.5,1 Z M16.5,3 C9.04415588,3 3,8.82029825 3,16 C3,23.1797017 9.04415588,29 16.5,29 C23.9558441,29 30,23.1797017 30,16 C30,12.6753573 28.7039767,9.64220595 26.5718988,7.34347843 L23.8879416,10.0271988 C25.2087994,11.6589754 26,13.7370903 26,16 C26,21.2467051 21.7467051,25.5 16.5,25.5 C11.2532949,25.5 7,21.2467051 7,16 C7,10.7532949 11.2532949,6.5 16.5,6.5 C18.7629097,6.5 20.8410246,7.29120064 22.4728012,8.61205841 L25.1034768,5.98148104 C22.7675309,4.11921403 19.7694957,3 16.5,3 Z M16.5,8.5 C12.3578644,8.5 9,11.8578644 9,16 C9,20.1421356 12.3578644,23.5 16.5,23.5 C20.6421356,23.5 24,20.1421356 24,16 C24,14.2898519 23.4276233,12.7133896 22.4639906,11.4517337 L19.0190426,14.8951302 C19.1675647,15.2332673 19.25,15.6070068 19.25,16 C19.25,17.5187831 18.0187831,18.75 16.5,18.75 C14.9812169,18.75 13.75,17.5187831 13.75,16 C13.75,14.4812169 14.9812169,13.25 16.5,13.25 C16.8929932,13.25 17.2667327,13.3324353 17.6048698,13.4809574 L21.0482663,10.0360094 C19.7866104,9.07237672 18.2101481,8.5 16.5,8.5 Z M16.5,15.1710526 C16.042185,15.1710526 15.6710526,15.542185 15.6710526,16 C15.6710526,16.457815 16.042185,16.8289474 16.5,16.8289474 C16.957815,16.8289474 17.3289474,16.457815 17.3289474,16 C17.3289474,15.542185 16.957815,15.1710526 16.5,15.1710526 Z" id="形状结合" fill="#666666" fill-rule="nonzero"></path>
    </g>
</svg>