<!--?xml version="1.0" encoding="UTF-8"?-->
<svg width="32px" height="32px" viewBox="0 0 32 32" version="1.1" xmlns="http://www.w3.org/2000/svg" xmlns:xlink="http://www.w3.org/1999/xlink">
    <title>1736.职级方案</title>
    <g id="1736.职级方案" stroke="none" stroke-width="1" fill="none" fill-rule="evenodd">
        <path d="M10,3 L10,4 C10,5.0543618 10.8158778,5.91816512 11.8507377,5.99451426 L12,6 L20,6 C21.1045695,6 22,5.1045695 22,4 L22,3 L28.004543,3 C28.5543187,3 29,3.44610862 29,3.99296544 L29,29.0070346 C29,29.5554342 28.5447371,30 28.004543,30 L4.99545703,30 C4.44568129,30 4,29.5538914 4,29.0070346 L4,3.99296544 C4,3.44456577 4.45526288,3 4.99545703,3 L10,3 Z M15.551632,10.9084929 L14.0590869,13.9327195 C13.9862559,14.0802912 13.8454731,14.1825759 13.682618,14.2062401 L10.3451858,14.6911974 C10.2363673,14.7070097 10.1357961,14.7582533 10.0590418,14.8369951 C9.86629117,15.0347369 9.87033732,15.3512935 10.0680791,15.5440441 L12.4830678,17.8980762 C12.6009108,18.0129448 12.654685,18.1784449 12.6268661,18.340642 L12.0567646,21.6645887 C12.0381762,21.7729675 12.0558335,21.8844515 12.107003,21.9817818 C12.2355034,22.2262041 12.537817,22.3201773 12.7822393,22.1916769 L15.7673294,20.6223222 C15.9129914,20.5457431 16.0870086,20.5457431 16.2326706,20.6223222 L19.2177607,22.1916769 C19.3150909,22.2428464 19.426575,22.2605038 19.5349538,22.2419154 C19.807122,22.1952349 19.9899159,21.9367569 19.9432354,21.6645887 L19.3731339,18.340642 C19.345315,18.1784449 19.3990892,18.0129448 19.5169322,17.8980762 L21.9319209,15.5440441 C22.0106627,15.4672898 22.0619063,15.3667186 22.0777186,15.2579001 C22.1174274,14.9846277 21.9280866,14.7309062 21.6548142,14.6911974 L18.317382,14.2062401 C18.1545269,14.1825759 18.0137441,14.0802912 17.9409131,13.9327195 L16.448368,10.9084929 C16.3997029,10.8098866 16.3198892,10.7300728 16.2212829,10.6814077 C15.973656,10.5591965 15.6738431,10.660866 15.551632,10.9084929 Z M21,2 L21,4 C21,4.55228475 20.5522847,5 20,5 L12,5 C11.4477153,5 11,4.55228475 11,4 L11,2 L21,2 Z" id="形状结合" fill="#666666"></path>
    </g>
</svg>