<!--?xml version="1.0" encoding="UTF-8"?-->
<svg width="32px" height="32px" viewBox="0 0 32 32" version="1.1" xmlns="http://www.w3.org/2000/svg" xmlns:xlink="http://www.w3.org/1999/xlink">
    <title>1986.调动原因</title>
    <g id="1986.调动原因" stroke="none" stroke-width="1" fill="none" fill-rule="evenodd">
        <path d="M22.9393573,18 C26.2530658,18 28.9393573,20.6862915 28.9393573,24 C28.9393573,27.3137085 26.2530658,30 22.9393573,30 C19.6256488,30 16.9393573,27.3137085 16.9393573,24 C16.9393573,20.6862915 19.6256488,18 22.9393573,18 Z M19.5816837,3 L25.9976711,9.27586207 L25.9988249,17.6939123 C25.0828393,17.2492636 24.0552422,17 22.9696787,17 C19.1204314,17 16,20.1340068 16,24 C16,25.3582993 16.3851974,26.6262395 17.0518647,27.6996417 L15.0477047,29 L12.2316471,27.1828023 L9.50529995,29 C7.88965935,27.7885349 6.9641263,27.1828023 6.7287008,27.1828023 C6.49327529,27.1828023 5.58370836,27.7885349 4,29 L4,4 C4,3.44771525 4.44771525,3 5,3 L19.5816837,3 Z M26.6923077,24.9444444 L19,24.9444444 L19,25.6190548 L21.4615385,27.6111111 L21.4615385,25.6190548 L26.6923077,25.6190548 C26.8622415,25.6190548 27,25.4680381 27,25.2817496 C27,25.0954611 26.8622415,24.9444444 26.6923077,24.9444444 Z M24.512304,20.5 L24.512304,22.4915138 L19.3062391,22.4915138 C19.1371079,22.4915138 19,22.6426519 19,22.8290903 C19,23.0155286 19.1371079,23.1666667 19.3062391,23.1666667 L27,23.1666667 L26.9677278,22.6381321 L24.512304,20.5 Z M14.9988355,16.4482759 L8.58284814,16.4482759 L8.58284814,18.2413793 L14.9988355,18.2413793 L14.9988355,16.4482759 Z M21.4148229,11.9655172 L8.58284814,11.9655172 L8.58284814,13.7586207 L21.4148229,13.7586207 L21.4148229,11.9655172 Z" id="形状结合" fill="#666666"></path>
    </g>
</svg>