<!--?xml version="1.0" encoding="UTF-8"?-->
<svg width="32px" height="32px" viewBox="0 0 32 32" version="1.1" xmlns="http://www.w3.org/2000/svg" xmlns:xlink="http://www.w3.org/1999/xlink">
    <title>1988.终止调动原因</title>
    <g id="1988.终止调动原因" stroke="none" stroke-width="1" fill="none" fill-rule="evenodd">
        <path d="M24.4285714,17.9285714 C27.5055865,17.9285714 30,20.422985 30,23.5 C30,26.577015 27.5055865,29.0714286 24.4285714,29.0714286 C21.3515564,29.0714286 18.8571429,26.577015 18.8571429,23.5 C18.8571429,20.422985 21.3515564,17.9285714 24.4285714,17.9285714 Z M27.1428571,4 C27.6951419,4 28.1428571,4.44771525 28.1428571,5 L28.1432351,18.1653323 C27.0903182,17.4307883 25.8097528,17 24.4285714,17 C20.8387206,17 17.9285714,19.9101491 17.9285714,23.5 C17.9285714,25.3189378 18.6757048,26.9633733 19.8798257,28.1431606 L5,28.1428571 C4.44771525,28.1428571 4,27.6951419 4,27.1428571 L4,5 C4,4.44771525 4.44771525,4 5,4 L27.1428571,4 Z M24.4285714,26.2857143 C23.9157356,26.2857143 23.5,26.7014499 23.5,27.2142857 C23.5,27.7271216 23.9157356,28.1428571 24.4285714,28.1428571 C24.9414073,28.1428571 25.3571429,27.7271216 25.3571429,27.2142857 C25.3571429,26.7014499 24.9414073,26.2857143 24.4285714,26.2857143 Z M25.3571429,19.7857143 L23.5,19.7857143 L23.9642857,25.3571429 L24.8928571,25.3571429 L25.3571429,19.7857143 Z M19.2348303,14.6785714 L8.58828001,14.6785714 C8.20365314,14.6785714 7.89185144,14.9903731 7.89185144,15.375 C7.89185144,15.7596269 8.20365314,16.0714286 8.58828001,16.0714286 L16.0031314,16.0714286 L16.0031314,18.8571429 L19.5748015,15.5452042 C19.7772872,15.3574432 19.7892239,15.0410859 19.601463,14.8386002 C19.5068456,14.7365626 19.3739854,14.6785714 19.2348303,14.6785714 Z M11.4968647,7.71428571 L7.9251946,11.0262244 C7.82315698,11.1208419 7.76516583,11.2537021 7.76516583,11.3928571 C7.76516583,11.6689995 7.98902346,11.8928571 8.26516583,11.8928571 L18.9117161,11.8928571 C19.296343,11.8928571 19.6081447,11.5810555 19.6081447,11.1964286 C19.6081447,10.8118017 19.296343,10.5 18.9117161,10.5 L11.4968647,10.5 L11.4968647,7.71428571 Z" id="形状结合备份-37" fill="#666666"></path>
    </g>
</svg>