<!--?xml version="1.0" encoding="UTF-8"?-->
<svg width="32px" height="32px" viewBox="0 0 32 32" version="1.1" xmlns="http://www.w3.org/2000/svg" xmlns:xlink="http://www.w3.org/1999/xlink">
    <title>753.沟通</title>
    <g id="753.沟通" stroke="none" stroke-width="1" fill="none" fill-rule="evenodd">
        <g id="编组" transform="translate(2.000000, 1.000000)" fill="#000000" fill-rule="nonzero">
            <path d="M10.7931765,26.2187674 L4.90164706,30 L4.90164706,23.4602998 C1.97482353,20.8950583 0,17.3137146 0,13.1177124 C0,5.87173792 6.50588235,0 14.56,0 C21.2536471,0 28,5.87340366 28,13.1177124 C28,20.3636868 22.6009412,26.523598 14.56,26.523598 C13.2996067,26.4972041 12.0418337,26.3959749 10.7931765,26.2204331 L10.7931765,26.2187674 Z M6.02494118,16.0977235 C7.51477276,18.9038249 10.4076319,20.6561576 13.5569412,20.6601888 C16.8159049,20.654938 19.7896357,18.7799556 21.2289412,15.8228762 C21.5316842,15.2071404 21.2877758,14.4596853 20.6821176,14.1471405 C20.3913069,13.9986692 20.0538292,13.9741144 19.7449986,14.0789559 C19.4361679,14.1837974 19.181689,14.4093089 19.0383529,14.7051638 C18.0103836,16.818287 15.8855455,18.1581459 13.5569412,18.1615769 C11.2889412,18.1615769 9.24164706,16.8956135 8.176,14.9000555 C8.02226916,14.6093059 7.75977251,14.3929611 7.44717234,14.2993694 C7.13457217,14.2057776 6.79792732,14.242741 6.51247059,14.4019989 C5.91739144,14.7361745 5.69981511,15.4929484 6.02494118,16.0977235 L6.02494118,16.0977235 Z" id="形状" fill="#346bf6"></path>
        </g>
    </g>
</svg>