<!--?xml version="1.0" encoding="UTF-8"?-->
<svg width="32px" height="32px" viewBox="0 0 32 32" version="1.1" xmlns="http://www.w3.org/2000/svg" xmlns:xlink="http://www.w3.org/1999/xlink">
    <title>644.应收@1x</title>
    <g id="644.应收" stroke="none" stroke-width="1" fill="none" fill-rule="evenodd">
        <g id="编组" transform="translate(4.000000, 3.000000)" fill="#000000" fill-rule="nonzero">
            <path d="M20.0168067,0 C20.7965029,0 21.4285714,0.632068601 21.4285714,1.41176471 L21.4285714,14.8210598 C20.4988004,14.3703768 19.4553848,14.117647 18.3529412,14.117647 C14.4544607,14.117647 11.2941177,17.2779901 11.2941177,21.1764706 C11.2941177,22.1801313 11.5035854,23.1348681 11.8811891,23.999349 L1.41176471,24 C0.632068601,24 0,23.3679313 0,22.5882353 L0,1.41176471 C0,0.632068601 0.632068601,0 1.41176471,0 L20.0168067,0 Z M14.9803922,8.47058824 L6.19607843,8.47058824 C5.89286327,8.47058824 5.64705883,8.70761396 5.64705883,9.00000001 C5.64705883,9.29238605 5.89286327,9.52941177 6.19607843,9.52941177 L6.19607843,9.52941177 L10.0392157,9.52941177 L10.0392157,11.6470588 L6.19607843,11.6470588 C5.89286327,11.6470588 5.64705883,11.8840846 5.64705883,12.1764706 C5.64705883,12.4688566 5.89286327,12.7058824 6.19607843,12.7058824 L6.19607843,12.7058824 L10.0392157,12.7058824 L10.0392157,16.4117647 C10.0392157,16.7041508 10.2850201,16.9411765 10.5882353,16.9411765 C10.8914505,16.9411765 11.1372549,16.7041508 11.1372549,16.4117647 L11.1372549,16.4117647 L11.1372549,12.7058824 L14.9803922,12.7058824 C15.2836073,12.7058824 15.5294118,12.4688566 15.5294118,12.1764706 C15.5294118,11.8840846 15.2836073,11.6470588 14.9803922,11.6470588 L14.9803922,11.6470588 L11.1372549,11.6470588 L11.1372549,9.52941177 L14.9803922,9.52941177 C15.2836073,9.52941177 15.5294118,9.29238605 15.5294118,9.00000001 C15.5294118,8.70761396 15.2836073,8.47058824 14.9803922,8.47058824 L14.9803922,8.47058824 Z M14.2941177,4.23529412 L10.5882353,6.88235293 L6.88235293,4.23529412 L5.7295587,5.17428256 L10.5882353,8.20588236 L15.4897269,5.17428256 L14.2941177,4.23529412 Z M18.3529412,15.5294118 C21.4717256,15.5294118 24,18.0576861 24,21.1764706 C24,24.2952551 21.4717256,26.8235294 18.3529412,26.8235294 C15.2341567,26.8235294 12.7058824,24.2952551 12.7058824,21.1764706 C12.7058824,18.0576861 15.2341567,15.5294118 18.3529412,15.5294118 Z M18.6254118,17.5941177 L18.012,17.7028235 C18.1672941,17.9202353 18.3070588,18.1531765 18.4312941,18.4016471 L15.5505882,18.4016471 L15.5505882,20.6767059 C15.5350588,22.2529412 15.3021176,23.4797647 14.8672941,24.3649412 L15.3254118,24.7764706 C15.8301177,23.7515294 16.0941176,22.3849412 16.1251765,20.6767059 L16.1251765,18.9451765 L21.8788235,18.9451765 L21.8788235,18.4016471 L19.0369412,18.4016471 C18.9127059,18.1065882 18.7729412,17.8348235 18.6254118,17.5941177 Z M20.7684706,19.8070588 C20.4112941,21.4376471 19.992,22.7964706 19.5105882,23.8990588 L16.2727059,23.8990588 L16.2727059,24.4425882 L21.7545882,24.4425882 L21.7545882,23.8990588 L20.1162353,23.8990588 C20.5976471,22.7498824 20.9936471,21.4298824 21.3197647,19.9545882 L20.7684706,19.8070588 Z M17.1190588,20.1875294 L16.6298823,20.3428235 C16.956,21.2435294 17.22,22.1908235 17.4296471,23.1691765 L17.9576471,23.0371765 C17.7091765,21.9656471 17.4296471,21.0105882 17.1190588,20.1875294 Z M18.6176471,19.6362353 L18.1284706,19.7915294 C18.408,20.7232941 18.6331765,21.6938824 18.804,22.7032941 L19.3397647,22.5790588 C19.1223529,21.4764706 18.8816471,20.4903529 18.6176471,19.6362353 Z" id="形状" fill="#666666"></path>
        </g>
    </g>
</svg>