<!--?xml version="1.0" encoding="UTF-8"?-->
<svg width="32px" height="32px" viewBox="0 0 32 32" version="1.1" xmlns="http://www.w3.org/2000/svg" xmlns:xlink="http://www.w3.org/1999/xlink">
    <title>1782.应收</title>
    <g id="1782.应收" stroke="none" stroke-width="1" fill="none" fill-rule="evenodd">
        <path d="M20.4907692,16.297371 C20.4907692,16.8834885 20.2129231,17.2744132 19.6292308,17.2744132 L17.2729231,17.2744132 L17.2729231,18.8036028 C17.2729231,19.5358452 16.7296154,20.0782869 16.0005384,20.0782869 C15.270923,20.0782869 14.7276154,19.5363844 14.7276154,18.8036028 L14.7276154,17.2744132 L12.4364615,17.2744132 C11.8533077,17.2744132 11.5092308,16.7875097 11.5092308,16.2013923 C11.5092308,15.6147356 11.8527692,15.2356735 12.4364615,15.2356735 L14.7276154,15.2356735 L14.7276154,13.9609894 L12.4364615,13.9609894 C11.8533077,13.9609894 11.5092308,13.5075167 11.5092308,12.9213993 C11.5092308,12.3352818 11.8527692,11.9217105 12.4364615,11.9217104 L14.6533077,11.9222497 L12.3346923,9.59341684 C11.919088,9.1755679 11.919088,8.49987003 12.3346923,8.08202108 C12.5338685,7.88162362 12.8045768,7.76896165 13.0869231,7.76896165 C13.3692693,7.76896165 13.6399777,7.88162362 13.8391539,8.08202108 L15.9822308,10.2345334 L18.1339231,8.07339377 C18.3330992,7.87299631 18.6038076,7.76033434 18.8861538,7.76033434 C19.1685001,7.76033434 19.4392084,7.87299631 19.6383846,8.07339377 C20.0542226,8.49093562 20.0542226,9.16670849 19.6383846,9.58425034 L17.3170769,11.920632 L19.5640769,11.9211712 C20.1477692,11.9211712 20.4913077,12.3352818 20.4913077,12.92086 C20.4913077,13.5069775 20.1477692,13.9604501 19.5640769,13.9604501 L17.2734615,13.9604501 L17.2734615,15.2351343 L19.5010769,15.2351343 C20.0842308,15.2351343 20.4907692,15.5349331 20.4907692,16.297371 Z M28.4836923,16.7376747 L28.4465384,16.7376747 C28.4357692,16.7376747 28.4260769,16.7344395 28.4153077,16.7344395 C28.4045384,16.7344395 28.3948461,16.7376747 28.3840769,16.7376747 L25.1635384,16.7376747 L25.1635384,4.54882905 C25.1635384,3.08380503 24.0629231,2 22.6036923,2 L9.39630769,2 C7.93707694,2 6.83646152,3.08380503 6.83646157,4.54882905 L6.83646157,16.7371355 L3.55346158,16.7371355 C3.31976926,16.7371355 3.15930774,16.7991443 3.15930769,16.7991442 C2.47483383,16.9905244 2.00108734,17.6145403 2,18.326177 C2,18.7268074 2.15238462,19.088615 2.39523077,19.3684631 L13.536,29.1340318 C14.2351271,29.6948199 15.1042357,30 16,30 C16.9033653,30.0007379 17.7794787,29.6902089 18.4812308,29.1205516 L29.6257692,19.3431204 C29.8660687,19.0587637 29.998577,18.6986826 30,18.326177 C30,17.477149 29.3323472,16.7786771 28.4853077,16.7414491 L28.4836923,16.7376747 Z" id="形状" fill="#666666" fill-rule="nonzero"></path>
    </g>
</svg>