<!--?xml version="1.0"?-->
<svg xmlns="http://www.w3.org/2000/svg" class="icon" style="vertical-align:middle;fill:currentColor;overflow:hidden;" viewBox="0 0 1024 1024" version="1.1" width="200px" height="200px"><path d="M718.75 593.75C822.303391 593.75 906.25 677.696609 906.25 781.25C906.25 884.803391 822.303391 968.75 718.75 968.75C615.196609 968.75 531.25 884.803391 531.25 781.25C531.25 677.696609 615.196609 593.75 718.75 593.75zM671.875 93.75L671.875 296.875L875 296.875L875.019013 586.0974C832.216156 551.778525 777.880425 531.25 718.75 531.25C580.678812 531.25 468.75 643.178812 468.75 781.25C468.75 835.671025 486.138784 886.030681 515.663325 927.075944L500 937.5L406.25 875L312.5 937.5L218.75 875L125 937.5L125 156.25C125 121.732203 152.982203 93.75 187.5 93.75L671.875 93.75zM703.125 640.625C687.098881 640.625 673.8904 652.688756 672.085241 668.230591L671.875 671.875L671.875 796.875L672.146013 800.982625C672.864247 806.400153 674.992116 811.537284 678.315019 815.875922L681.027913 818.972087L774.777913 881.472087L777.721894 884.071731C788.9594 892.809422 804.7906 892.809422 816.028106 884.071731L818.972087 881.472087L821.571731 878.528106C830.309422 867.2906 830.309422 851.4594 821.571731 840.221894L818.972087 837.277913L734.375 783.90625L734.375 671.875L734.164759 668.230591C732.3596 652.688756 719.151119 640.625 703.125 640.625zM245.261727 310.038372C228.002828 310.038372 214.011727 324.029475 214.011727 341.288372L214.011727 497.538372C214.011727 514.797272 228.002828 528.788372 245.261727 528.788372C262.520625 528.788372 276.511727 514.797272 276.511727 497.538372L276.511727 341.288372C276.511727 324.029475 262.520625 310.038372 245.261727 310.038372zM375 187.5C359.375 195.3125 362.068388 219.799131 346.350291 253.939922C337.733991 272.655121 327.505738 288.624564 315.665525 301.848251C310.589933 307.545446 307.780401 314.905166 307.761727 322.535319L307.761727 497.538372C307.761727 514.797272 321.752828 528.788372 339.011728 528.788372L468.751419 528.788372C494.644225 528.788372 517.855928 512.822603 527.116963 488.642641L579.273422 352.465506C580.639988 348.897497 581.34065 345.109128 581.34065 341.288372C581.34065 324.029475 567.34955 310.038372 550.09065 310.038372L423.290166 310.038372C431.069397 267.641891 433.122403 236.193855 429.449181 215.694264C423.939353 184.944877 390.625 179.6875 375 187.5zM718.75 93.75L875 250L718.75 250L718.75 93.75z" fill="#666666"></path></svg>
