<!--?xml version="1.0" encoding="UTF-8"?-->
<svg width="32px" height="32px" viewBox="0 0 32 32" version="1.1" xmlns="http://www.w3.org/2000/svg" xmlns:xlink="http://www.w3.org/1999/xlink">
    <title>1963.评议记录</title>
    <g id="1963.评议记录" stroke="none" stroke-width="1" fill="none" fill-rule="evenodd">
        <path d="M19.7473742,6.15183682 L19.7473742,9.66902148 C19.7473742,9.66902148 20.8546381,9.90217175 20.6603063,11.7390475 C20.466521,13.5748248 19.1836038,14.0842297 18.2903388,14.9821224 C17.3971517,15.8806167 17.561821,17.311933 16.1047856,18.0442889 L16.0725912,18.0647118 C16.0341387,18.0887125 15.9623099,18.1324604 15.8628935,18.1883943 C16.2282245,18.2747433 16.3487165,18.3893337 16.0581902,18.5329496 L16.0581902,20.2015861 C16.0581902,20.2015861 16.0993211,20.2151372 16.1747692,20.2399058 L16.3128276,20.2851799 C16.772091,20.4356404 17.7896733,20.7676387 18.8425184,21.1020249 L18.9992358,21.152 L19,27 C19,27.5128358 19.3860402,27.9355072 19.8833789,27.9932723 L20,28 L2.99996262,28 C2.90225175,27.9999237 2.80507954,27.9855275 2.71154384,27.9572699 C2.1828583,27.7975512 1.88375153,27.2394894 2.04303094,26.7106711 C2.90509918,23.8413615 3.84564642,22.248373 4.86467265,21.9317056 C5.44600015,21.7510553 6.24461126,21.4986086 7.05105829,21.2423022 L7.49045673,21.1025242 C8.94931595,20.6380437 10.3081902,20.2016369 10.3081902,20.2016369 L10.3081902,18.5329496 C10.0151902,18.3881109 10.1402375,18.2727941 10.5129142,18.1869992 C10.4157819,18.1312614 10.3460681,18.0883826 10.3085169,18.0647118 L10.276644,18.0442889 C9.50978328,17.6588384 9.20316101,17.0796107 8.94872509,16.4864437 L8.79906148,16.1303095 C8.62414305,15.7162251 8.43480682,15.3129346 8.09109091,14.9821224 C7.15814772,14.0842035 5.91496069,13.5764203 5.72114934,11.7395445 C5.52686966,9.90376725 6.11893373,9.66902148 6.57572497,9.66902148 L6.57572497,6.54606143 C6.78862467,4.02153009 9.55159036,2.35623246 11.9166118,2.08031769 C14.2993581,1.62214243 19.3200733,3.14345542 19.7473742,6.15183682 Z M27.2683256,15 L30,18 L30,26 C30,26.5522847 29.5522847,27 29,27 L21,27 C20.4477153,27 20,26.5522847 20,26 L20,16 C20,15.4477153 20.4477153,15 21,15 L27.2683256,15 Z M26.9670138,19.1655231 L24.3419644,21.9242744 L23.0329862,20.5485609 C22.7923777,20.3197656 22.4118508,20.329342 22.1830556,20.5699505 C21.9389815,20.8266266 21.9389815,21.2295825 22.1830556,21.4862586 L23.8744755,23.2639054 C23.8990003,23.2872262 23.9249788,23.3080704 23.9521021,23.3264458 L23.9800977,23.3510964 C24.1878934,23.5135398 24.4795127,23.5208788 24.6952163,23.3690933 L24.7749161,23.3020389 L27.8169444,20.1032208 C28.0610185,19.8465447 28.0610185,19.4435888 27.8169444,19.1869127 C27.5881492,18.9463042 27.2076223,18.9367278 26.9670138,19.1655231 Z" id="形状结合" fill="#666666"></path>
    </g>
</svg>