<!--?xml version="1.0" encoding="UTF-8"?-->
<svg width="32px" height="32px" viewBox="0 0 32 32" version="1.1" xmlns="http://www.w3.org/2000/svg" xmlns:xlink="http://www.w3.org/1999/xlink">
    <title>1922招聘信息</title>
    <g id="1922招聘信息" stroke="none" stroke-width="1" fill="none" fill-rule="evenodd">
        <g id="rcgyy_msggl_48_48" transform="translate(2.000000, 2.000000)" fill="#999999">
            <path d="M18.0517065,4.39606252 L18.0517065,8.1201404 L18.1516396,8.15475409 C18.4220407,8.26980446 19.1372667,8.72717711 18.9768111,10.3119327 C18.8487442,11.579605 18.2512595,12.2499451 17.6000256,12.826619 L17.0754543,13.2775269 C16.9020299,13.4275362 16.7326657,13.5804358 16.5752439,13.7457766 C15.6701477,14.6971236 15.8370126,16.212635 14.3605501,16.9880706 L14.2496165,17.0624437 L14.25,18.4217447 L17.1,19.443 L17.1,26 C17.1,26.5128358 17.4860402,26.9355072 17.9833789,26.9932723 L18.1,27 L0,27 C0,23.8733625 1.425,20.9210224 3.15381743,20.3248762 L8.55,18.4218005 L8.549,17.05 L8.45469991,16.9880706 C7.05594592,16.2534474 7.16824689,14.8540542 6.38011266,13.9004012 L6.24000609,13.7457766 C5.29462366,12.795039 4.03486081,12.2573862 3.8384653,10.3124589 C3.64159523,8.36869473 4.24155349,8.1201404 4.70443527,8.1201404 L4.70443527,4.81347681 C4.92017364,2.14044363 7.71997887,0.377187311 10.1165339,0.0850422577 C12.5310502,-0.400084491 17.6187083,1.2107175 18.0517065,4.39606252 Z M20,15 L20,16.9951172 L26,16.9951172 L26,15 L27.3131843,15.0004207 C27.6925025,15.0004207 28,15.2946326 28,15.6555534 L28,25.3448673 C28,25.7066868 27.6915598,26 27.3131843,26 L18.6868157,26 C18.3074982,26 18,25.7057875 18,25.3448673 L18,15.6555534 C18,15.2937333 18.3084409,15.0004207 18.6868157,15.0004207 L20,15 Z M25.5,22 L20.5,22 C20.2238576,22 20,22.2238576 20,22.5 C20,22.7761424 20.2238576,23 20.5,23 L25.5,23 C25.7761424,23 26,22.7761424 26,22.5 C26,22.2238576 25.7761424,22 25.5,22 Z M25.5,20 L20.5,20 C20.2238576,20 20,20.2238576 20,20.5 C20,20.7761424 20.2238576,21 20.5,21 L25.5,21 C25.7761424,21 26,20.7761424 26,20.5 C26,20.2238576 25.7761424,20 25.5,20 Z M25,14 L25,16 L21,16 L21,14 L25,14 Z" id="形状" fill="#666666"></path>
        </g>
    </g>
</svg>