<!--?xml version="1.0" encoding="UTF-8"?-->
<svg width="32px" height="32px" viewBox="0 0 32 32" version="1.1" xmlns="http://www.w3.org/2000/svg" xmlns:xlink="http://www.w3.org/1999/xlink">
    <title>1929招聘直通车</title>
    <g id="1929招聘直通车" stroke="none" stroke-width="1" fill="none" fill-rule="evenodd">
        <g id="编组-12" transform="translate(1.744565, 2.000000)">
            <g id="编组-8" fill="#999999" fill-rule="nonzero">
                <path d="M1.69965979,20.201532 C2.00370272,20.2653959 2.33232311,20.30327 2.68497691,20.3134668 L26.7542298,20.3138429 C24.4461165,24.8739373 19.7158412,28 14.2554348,28 C8.82214697,28 4.11175598,24.9049108 1.79120782,20.3816784 L1.69965979,20.201532 Z M13.8971284,7.48983156 L14.3662009,7.77340577 L28.7608696,15.8160041 L28.7608696,17.5631394 L28.7284701,17.4914514 C28.6611277,17.3576073 28.4813271,17.0658917 28.1203988,16.8736707 L24.2952668,14.8413624 C24.0652635,14.9460462 23.778644,15.2023408 23.619411,15.8160041 C23.5167941,16.2202998 23.5698718,16.4910336 23.6760272,16.6570837 L28.7608696,18.2634375 L28.7608696,19.3138845 L2.71387939,19.3138845 C-0.721803893,19.2145433 -0.0224947541,16.1810961 0.240651197,15.333678 L0.328543798,15.0823046 C0.561231825,14.5213009 3.70326082,7.06834008 6.82563086,6.02627042 C9.42410832,5.15904633 12.6965471,6.80121275 13.8971284,7.48983156 Z M12.7313996,11.7482272 C12.4890878,13.581328 13.29564,13.9318329 14.6560478,14.4193169 L21.2019287,16.7761608 C21.319623,16.7076713 21.5411653,16.5263756 21.7834771,16.0388917 C22.0707897,15.4668031 22.0188657,14.8503977 21.8907866,14.3951441 L14.9156676,10.1769979 C13.8668036,9.72980189 12.9460186,10.1487964 12.7313996,11.7482272 Z M14.2554348,0 C21.9874213,0 28.2554348,6.2680135 28.2554348,14 C28.2554348,14.129012 28.2536897,14.2576165 28.2502219,14.385791 L14.8539538,6.90042404 L14.4144796,6.63405837 C11.7547719,5.10822206 8.94519639,4.26465769 6.50905324,5.07770381 C4.82625072,5.63932765 3.23290528,7.48495468 1.62987966,10.2304701 C1.19118215,10.9818311 0.774742222,11.7654855 0.385664954,12.5556343 L0.233,12.871 L0.314853228,12.7015096 C0.969966608,5.57827243 6.96126303,0 14.2554348,0 Z M6.678139,7.82064857 C5.99054805,8.12751004 5.59518326,8.61191278 5.4404753,8.83493531 L2.70752838,13.1460415 C2.59086314,13.3494985 2.15636332,14.2315429 3.38788899,14.238437 L8.54954823,14.238437 C9.63975819,14.238437 10.5950061,13.5085568 10.8814897,12.456661 L11.4695195,10.2975635 C11.676374,9.53804581 11.3854381,8.73650265 10.754415,8.28429231 L10.4913717,8.10904253 C10.0424578,7.8250764 8.50360944,7.01014463 6.678139,7.82064857 Z" id="形状结合" fill="#666666"></path>
            </g>
            <g id="Group-17" transform="translate(17.310296, 11.570442) rotate(5.000000) translate(-17.310296, -11.570442) translate(6.207790, -5.233859)"></g>
        </g>
    </g>
</svg>