<!--?xml version="1.0" encoding="UTF-8"?-->
<svg width="32px" height="32px" viewBox="0 0 32 32" version="1.1" xmlns="http://www.w3.org/2000/svg" xmlns:xlink="http://www.w3.org/1999/xlink">
    <title>409.参考利率数据@1x</title>
    <g id="409.参考利率数据" stroke="none" stroke-width="1" fill="none" fill-rule="evenodd">
        <g id="编组" transform="translate(4.000000, 4.000000)" fill="#000000" fill-rule="nonzero">
            <path d="M17.571724,11.1423451 C21.1219628,11.1423451 24,14.0203824 24,17.5706212 C24,21.12086 21.1219628,23.9988972 17.571724,23.9988972 C14.0214852,23.9988972 11.1434479,21.12086 11.1434479,17.5706212 C11.1434479,14.0203824 14.0214852,11.1423451 17.571724,11.1423451 Z M3.50246763e-05,16.7606705 C2.21670158,18.0359 5.6644093,18.8129002 9.53015703,18.8545155 C9.7286501,20.1093226 10.2140123,21.268688 10.9168098,22.263497 C10.5694588,22.2772193 10.2158554,22.2846903 9.85779272,22.2846903 C4.7845047,22.2846903 0.606430684,20.7848728 0.0613336113,18.8565364 L0.00110279732,18.8562764 L3.50246763e-05,16.7606705 Z M19.7705627,17.2893841 C19.2739337,17.2893841 18.8763515,17.4477195 18.5778161,17.7643902 C18.2792807,18.0810609 18.1300131,18.507241 18.1300131,19.0429307 C18.1300131,19.5283995 18.2695156,19.9197041 18.5485206,20.2168444 C18.8275257,20.5139848 19.1972073,20.662555 19.6575657,20.662555 C20.1486145,20.662555 20.5434066,20.5042196 20.841942,20.1875489 C21.1404774,19.8708782 21.289745,19.447488 21.289745,18.9173785 C21.289745,18.4012191 21.1565201,18.0008469 20.8900703,17.7162618 C20.6236205,17.4316766 20.2504513,17.2893841 19.7705627,17.2893841 Z M20.3271778,14.0878013 L19.2683536,14.0878013 L15.0623526,20.5746684 L16.1128067,20.5746684 L20.3271778,14.0878013 Z M19.7287119,18.0510679 C19.9268055,18.0510679 20.0851408,18.1298867 20.203718,18.2875246 C20.3222951,18.4451625 20.3815837,18.670459 20.3815837,18.9634143 C20.3815837,19.5883856 20.1583796,19.9008712 19.7119716,19.9008712 C19.2683536,19.9008712 19.0465446,19.5995458 19.0465446,18.9968949 C19.0465446,18.3663435 19.2739337,18.0510679 19.7287119,18.0510679 Z M15.7487051,13.9999147 C15.246496,13.9999147 14.8482163,14.1596451 14.553866,14.4791059 C14.2595156,14.7985667 14.1123405,15.2233518 14.1123405,15.7534614 C14.1123405,16.2389301 14.2511455,16.6295372 14.5287555,16.9252825 C14.8063656,17.2210279 15.1767448,17.3689005 15.6398931,17.3689005 C16.133732,17.3689005 16.5285241,17.2112627 16.8242695,16.895987 C17.1200148,16.5807113 17.2678875,16.1608087 17.2678875,15.6362793 C17.2678875,15.1257 17.1346626,14.7253278 16.8682127,14.4351626 C16.6017629,14.1449973 16.2285937,13.9999147 15.7487051,13.9999147 Z M1.94882767e-16,11.6180497 C2.2791383,12.9291985 5.8596087,13.7136555 9.85779272,13.7136555 C10.0398905,13.7136555 10.2211219,13.7120283 10.4014033,13.7087982 C9.89207455,14.6524436 9.56344427,15.7088005 9.46239564,16.8308295 L9.44013761,17.1377839 L9.31246397,17.1366479 C8.22902553,17.115075 7.1901354,17.0298017 6.21799177,16.8930468 L5.73758495,16.8204357 L5.20296138,16.7273806 C4.80797453,16.6536795 4.42670342,16.5713241 4.06089544,16.4812763 L3.70030658,16.3887 L3.23622841,16.2576568 C1.82988116,15.8389603 0.710170566,15.3019372 1.94882767e-16,14.7142373 L1.94882767e-16,11.6180497 Z M15.7235946,14.7615984 C16.1532624,14.7615984 16.3680962,15.064319 16.3680962,15.6697599 C16.3680962,16.2947311 16.1434972,16.6072168 15.6942991,16.6072168 C15.2534711,16.6072168 15.0330571,16.3072864 15.0330571,15.7074256 C15.0330571,15.0768741 15.2632363,14.7615984 15.7235946,14.7615984 Z M19.7153371,6.47555156 L19.715654,9.57155979 L19.5803672,9.67776802 C18.9378734,9.51475937 18.2649144,9.42813819 17.571724,9.42813819 C15.2612122,9.42813819 13.1754706,10.3904931 11.6934649,11.936237 C11.0985992,11.9779953 10.4848614,11.9994486 9.85779272,11.9994486 C8.57717635,11.9994486 7.35215931,11.9099734 6.21799177,11.7504259 L5.73758495,11.6778149 L5.20296138,11.5847598 C4.80797453,11.5110587 4.42670342,11.4287033 4.06089544,11.3386555 L3.70030658,11.2460792 L3.23622841,11.115036 C1.82988116,10.6963395 0.710170566,10.1593163 1.94882767e-16,9.57161646 L1.94882767e-16,6.47542882 C2.2791383,7.78657772 5.8596087,8.57103472 9.85779272,8.57103472 C13.855852,8.57103472 17.4362237,7.78662665 19.7153371,6.47555156 Z M9.85779272,0 C15.3014922,0 19.7144826,1.72682233 19.7144826,3.85696562 C19.7144826,4.00190925 19.6940505,4.14498552 19.6542518,4.28577745 L19.7144826,4.28551736 L19.715654,4.42893896 C19.0562131,4.97468085 18.0436223,5.47672607 16.7762945,5.88090505 L16.479357,5.9724152 L16.0152788,6.10345834 C15.6599738,6.19852757 15.2886232,6.28622503 14.9029742,6.3655887 L14.5126241,6.44213892 L13.9780004,6.53519403 C12.7122964,6.73996222 11.3213543,6.85682777 9.85779272,6.85682777 C8.57717635,6.85682777 7.35215931,6.76735259 6.21799177,6.60780509 L5.73758495,6.53519403 L5.20296138,6.44213892 C4.80797453,6.36843787 4.42670342,6.28608249 4.06089544,6.19603468 L3.70030658,6.10345834 L3.23622841,5.9724152 C1.82988116,5.5537187 0.710170566,5.01669552 1.94882767e-16,4.42899566 L0.00110279732,4.28551736 L0.0613336113,4.28577745 C0.0215349373,4.14498552 0.00110279732,4.00190925 0.00110279732,3.85696562 C0.00110279732,1.72682233 4.41409319,0 9.85779272,0 Z" id="形状" fill="#666666"></path>
        </g>
    </g>
</svg>