<!--?xml version="1.0" encoding="UTF-8"?-->
<svg width="32px" height="32px" viewBox="0 0 32 32" version="1.1" xmlns="http://www.w3.org/2000/svg" xmlns:xlink="http://www.w3.org/1999/xlink">
    <title>回归曲线图</title>
    <g id="回归曲线图" stroke="none" stroke-width="1" fill="none" fill-rule="evenodd">
        <g id="视觉修正模版" transform="translate(-2.000000, -0.500000)"></g>
        <path d="M3.99990088,4 C4.54868425,4 4.99356106,4.44487682 4.99356106,4.99366018 L4.99356106,26.9968747 L27.9935611,26.9968747 C28.5458458,26.9968747 28.9935611,27.44459 28.9935611,27.9968747 C28.9935611,28.5491595 28.5458458,28.9968747 27.9935611,28.9968747 L5.49797886,28.9968747 C4.11922087,28.9948922 3.00202015,27.8984805 3,26.5453787 L3,4.99992051 C3,4.4489055 3.44576824,4.00173523 3.99678053,4.0000049 Z M14.5,17.25 C15.7426407,17.25 16.75,18.2573593 16.75,19.5 C16.75,20.7426407 15.7426407,21.75 14.5,21.75 C13.2573593,21.75 12.25,20.7426407 12.25,19.5 C12.25,18.2573593 13.2573593,17.25 14.5,17.25 Z M14.5,18.75 C14.0857864,18.75 13.75,19.0857864 13.75,19.5 C13.75,19.9142136 14.0857864,20.25 14.5,20.25 C14.9142136,20.25 15.25,19.9142136 15.25,19.5 C15.25,19.0857864 14.9142136,18.75 14.5,18.75 Z M14.9381443,13 C18.4706186,12.9891028 17.0850515,17.4297278 24.2293815,17.2656652 C25.0448453,17.2474361 25.4958763,17.2000403 26.2427835,16.9193111 C26.4268041,16.791707 26.6541237,16.7151444 26.8958763,16.7151444 C27.5345361,16.7151444 28.0505154,17.2364986 28.0505154,17.8818111 C28.0505154,18.4614986 27.6319587,18.9391028 27.0871134,19.0338944 C26.3474227,19.197957 25.1963917,19.3328528 24.2293815,19.3437902 C16.7386598,19.416707 16.4139175,15.4026445 15.006701,15.2932694 C12.7515464,15.1182694 10.1427835,18.2391028 9.04226803,19.504207 L8.95765745,19.5954952 C8.74937982,19.7978674 8.46720361,19.9234778 8.15463919,19.9234778 C7.51597938,19.9234778 7,19.4021236 7,18.7568112 C7,18.4031652 7.15876289,18.0859778 7.40412371,17.8708736 C8.77525772,16.1974362 11.6798969,13.0109778 14.9381443,13 Z M23,10.25 C24.5187831,10.25 25.75,11.4812169 25.75,13 C25.75,14.5187831 24.5187831,15.75 23,15.75 C21.4812169,15.75 20.25,14.5187831 20.25,13 C20.25,11.4812169 21.4812169,10.25 23,10.25 Z M23,11.75 C22.3096441,11.75 21.75,12.3096441 21.75,13 C21.75,13.6903559 22.3096441,14.25 23,14.25 C23.6903559,14.25 24.25,13.6903559 24.25,13 C24.25,12.3096441 23.6903559,11.75 23,11.75 Z M10,8.25 C11.5187831,8.25 12.75,9.48121694 12.75,11 C12.75,12.5187831 11.5187831,13.75 10,13.75 C8.48121694,13.75 7.25,12.5187831 7.25,11 C7.25,9.48121694 8.48121694,8.25 10,8.25 Z M10,9.75 C9.30964406,9.75 8.75,10.3096441 8.75,11 C8.75,11.6903559 9.30964406,12.25 10,12.25 C10.6903559,12.25 11.25,11.6903559 11.25,11 C11.25,10.3096441 10.6903559,9.75 10,9.75 Z" id="形状结合" fill="#666666" fill-rule="nonzero"></path>
    </g>
</svg>