<!--?xml version="1.0" encoding="UTF-8"?-->
<svg width="32px" height="32px" viewBox="0 0 32 32" version="1.1" xmlns="http://www.w3.org/2000/svg" xmlns:xlink="http://www.w3.org/1999/xlink">
    <title>关系类</title>
    <g id="关系类" stroke="none" stroke-width="1" fill="none" fill-rule="evenodd">
        <g id="视觉修正模版" transform="translate(-2.000000, -0.500000)"></g>
        <g id="编组" transform="translate(2.000000, 2.000000)" fill="#333333" fill-rule="nonzero">
            <path d="M25.6666667,0 L2.33333332,0 C1.04635418,0 0,1.04635418 0,2.33333332 L0,25.6666667 C0,26.9536458 1.04635418,28 2.33333332,28 L25.6666667,28 C26.9536458,28 28,26.9536458 28,25.6666667 L28,2.33333332 C28,1.04270835 26.9536458,0 25.6666667,0 Z M26,26 L2,26 L2,2 L26,2 L26,26 Z M5.99994188,12.9892185 L22.1484376,12.8151042 L22.1484376,12.8151042 L22.2067709,12.8151042 C22.2177084,12.8151042 22.2250001,12.8151042 22.2322916,12.8114584 C22.2432292,12.8114584 22.2505208,12.8114584 22.2614584,12.8078126 C22.2723958,12.8078126 22.2833333,12.8041666 22.2942709,12.8041666 C22.3015624,12.8041666 22.3088542,12.8041666 22.3161459,12.8005209 C22.3270834,12.8005209 22.3416666,12.796875 22.3526042,12.7932292 C22.3598958,12.7932292 22.3671875,12.7895834 22.3708334,12.7895834 C22.3817708,12.7859374 22.3963542,12.7859374 22.4072918,12.7822918 C22.4145834,12.7822918 22.4182292,12.7786459 22.4255209,12.7786459 C22.4364584,12.775 22.4473959,12.7713542 22.4619792,12.7677084 C22.4692709,12.7640625 22.4765625,12.7640625 22.4802084,12.7604167 C22.4911458,12.7567708 22.5020834,12.753125 22.5130208,12.7494792 C22.5203126,12.7458333 22.5276042,12.7458333 22.5348959,12.7421875 C22.5458334,12.7385417 22.553125,12.7348958 22.5640625,12.73125 C22.5713542,12.7276042 22.5822916,12.7239584 22.5895834,12.7203125 C22.5968751,12.7166666 22.6078126,12.7130208 22.6151043,12.709375 C22.6260417,12.7057292 22.6333334,12.7020834 22.6442708,12.6984376 C22.6515625,12.6947916 22.6588542,12.6911458 22.6661459,12.6875001 C22.6770834,12.6838542 22.6880209,12.6765624 22.6953124,12.6729166 C22.7026042,12.6692709 22.7062501,12.665625 22.7135416,12.6619792 C22.7244792,12.6546875 22.7354166,12.6510417 22.7463543,12.64375 C22.75,12.6401042 22.7572918,12.6364583 22.7609375,12.6328126 C22.771875,12.6255208 22.7828126,12.6182292 22.79375,12.6109375 C22.7973959,12.6072918 22.8046874,12.6036458 22.8083334,12.6 C22.8192709,12.5927084 22.8302084,12.5854166 22.8375001,12.5781251 C22.8447916,12.5744792 22.8484376,12.5671875 22.8557292,12.5635416 C22.8630208,12.5562501 22.8739584,12.5489584 22.88125,12.5416666 C22.8885417,12.534375 22.8958334,12.5270834 22.903125,12.5234375 C22.9104167,12.5161459 22.9177084,12.5125 22.925,12.5052083 C22.9541666,12.4796876 22.9796876,12.4505208 23.0052084,12.425 C23.0125,12.4177084 23.0161458,12.4104167 23.0234376,12.403125 C23.0307292,12.3958334 23.0380209,12.3885417 23.0416667,12.38125 C23.0489584,12.3739583 23.05625,12.3630208 23.0635417,12.3557292 C23.0671874,12.3484376 23.0744792,12.3447916 23.0781251,12.3375 C23.0854166,12.3265625 23.0927084,12.3156251 23.1000001,12.3083334 C23.1036458,12.3046875 23.1072916,12.2973959 23.1109375,12.29375 C23.1182293,12.2828125 23.1255208,12.271875 23.1328126,12.2609375 C23.1364584,12.2572918 23.1401042,12.25 23.14375,12.2463542 C23.1510417,12.2354167 23.1546876,12.2244791 23.1619792,12.2135416 C23.165625,12.2062501 23.1692709,12.2026042 23.1729168,12.1953126 C23.1765624,12.1843751 23.1838542,12.1734375 23.1875,12.1661459 C23.1911459,12.1588542 23.1947916,12.1515624 23.1984376,12.1442709 C23.2020834,12.1333333 23.2057292,12.1260417 23.2093751,12.1151042 C23.2130208,12.1078126 23.2166666,12.096875 23.2203126,12.0895834 C23.2239584,12.0822916 23.2276042,12.0713542 23.2312501,12.0640626 C23.2348958,12.053125 23.2385417,12.0458334 23.2421875,12.0348959 C23.2458334,12.0276042 23.2458334,12.0203124 23.2494793,12.0130208 C23.253125,12.0020833 23.2567708,11.9911458 23.2604167,11.9802084 C23.2640626,11.9729166 23.2640626,11.965625 23.2677084,11.9619792 C23.2713542,11.9510416 23.275,11.9401042 23.2786459,11.9255209 C23.2786459,11.9182292 23.2822918,11.9145834 23.2822918,11.9072918 C23.2859375,11.8963542 23.2895834,11.8817708 23.2895834,11.8708334 C23.2895834,11.8635417 23.2932292,11.8598958 23.2932292,11.8526041 C23.296875,11.8416666 23.296875,11.8270834 23.3005209,11.8161458 C23.3005209,11.8088542 23.3041667,11.8015624 23.3041667,11.7942709 C23.3041667,11.7833334 23.3078125,11.7723959 23.3078125,11.7614583 C23.3078125,11.7505208 23.3078125,11.7432292 23.3114584,11.7322918 C23.3114584,11.725 23.3114584,11.7140626 23.3151042,11.7067708 C23.3187501,11.6666667 23.3187501,11.6302084 23.3151042,11.5901042 C23.3151042,11.5791667 23.3151042,11.571875 23.3114584,11.5645834 C23.3114584,11.5536458 23.3114584,11.5463542 23.3078125,11.5354166 C23.3078125,11.5244792 23.3041667,11.5135417 23.3041667,11.5026042 C23.3041667,11.4953126 23.3041667,11.4880208 23.3005209,11.4807292 C23.3005209,11.4697917 23.296875,11.4552084 23.2932292,11.4442708 C23.2932292,11.4369792 23.2895834,11.4333334 23.2895834,11.4260416 C23.2859375,11.4151042 23.2859375,11.4005208 23.2822918,11.3895834 C23.2822918,11.3822918 23.2786459,11.3786458 23.2786459,11.3713542 C23.275,11.3604166 23.2713542,11.3458334 23.2677084,11.3348958 C23.2640626,11.3276042 23.2640626,11.3203126 23.2604167,11.3166667 C23.2567708,11.3057292 23.253125,11.2947917 23.2494793,11.2838542 C23.2458334,11.2765625 23.2458334,11.2692708 23.2421875,11.2619792 C23.2385417,11.2510416 23.2348958,11.24375 23.2312501,11.2328126 C23.2276042,11.2255208 23.2239584,11.2145834 23.2203126,11.2072918 C23.2166666,11.2 23.2130208,11.1890626 23.2093751,11.1817708 C23.2057292,11.1708334 23.2020834,11.1635416 23.1984376,11.1526042 C23.1947916,11.1453125 23.1911459,11.1380208 23.1875,11.1307292 C23.1838542,11.1197917 23.1765624,11.1088542 23.1729168,11.1015625 C23.1692709,11.0942708 23.165625,11.090625 23.1619792,11.0833334 C23.1546876,11.0723958 23.1510417,11.0614584 23.14375,11.0505208 C23.1401042,11.0432292 23.1364584,11.0395834 23.1328126,11.0359375 C23.1255208,11.025 23.1182293,11.0140626 23.1109375,11.003125 C23.1072916,10.9994792 23.1036458,10.9921875 23.1000001,10.9885416 C23.0927084,10.9776042 23.0854166,10.9666666 23.0781251,10.959375 C23.0744792,10.9520834 23.0671874,10.9484376 23.0635417,10.9411458 C23.05625,10.9338542 23.0489584,10.9229168 23.0416667,10.915625 C23.034375,10.9083334 23.0270835,10.9010416 23.0234376,10.89375 C23.0161458,10.8864584 23.0125,10.8791666 23.0052084,10.871875 C22.990625,10.8572916 22.9796876,10.8427084 22.9651042,10.828125 L17.8937501,5.74583334 C17.4380208,5.29010417 16.6979168,5.29010417 16.2421874,5.74583334 C15.7864584,6.20156251 15.7864584,6.94166668 16.2421874,7.39739585 L20,11 L6,11 C5.44771525,11 5,11.4477153 5,12 C5,12.5463621 5.44291397,12.989276 5.98927605,12.989276 C5.9928314,12.989276 5.99638673,12.9892569 5.99994188,12.9892185 Z M22.0000581,15.0107792 L5.84791669,15.1848958 L5.84791669,15.1848958 L5.78958333,15.1848958 C5.75312502,15.1885416 5.74583334,15.1885416 5.73489583,15.1921875 C5.69479167,15.1958334 5.68750002,15.1958334 5.68020833,15.1994793 C5.63645834,15.2067708 5.62916666,15.2104167 5.62552084,15.2104167 C5.58177085,15.2177082 5.57812502,15.2213542 5.57083334,15.2213542 C5.52708335,15.2359375 5.51979167,15.2359375 5.51614584,15.2395834 C5.47604167,15.2541667 5.46875003,15.2541667 5.46145834,15.2578125 C5.425,15.2723959 5.41406253,15.2760416 5.40677085,15.2796876 C5.3703125,15.2942708 5.36302085,15.2979166 5.35208335,15.3015625 C5.31927083,15.3161458 5.30833332,15.3234376 5.30104167,15.3270834 C5.27187501,15.3453126 5.26093751,15.3489583 5.25,15.35625 C5.22447916,15.3744792 5.21354169,15.3817709 5.20260418,15.3890625 C5.17708335,15.4072916 5.16614584,15.4145834 5.15885416,15.4218751 C5.13333332,15.44375 5.12239585,15.4510417 5.11510417,15.4583334 C5.08593751,15.4838542 5.07864582,15.4875 5.07135418,15.4947917 C5.04218752,15.5203124 5.01666668,15.5494792 4.99114584,15.575 C4.98385416,15.5822918 4.98020833,15.5895833 4.97291669,15.596875 C4.965625,15.6041667 4.95833332,15.6114584 4.9546875,15.61875 C4.94739585,15.6260417 4.94010417,15.6369792 4.93281252,15.6442709 C4.91093751,15.6734376 4.90364586,15.684375 4.89635418,15.6916667 C4.87812499,15.7171875 4.87083334,15.728125 4.86354169,15.7390625 C4.8453125,15.7645834 4.84166668,15.7755209 4.834375,15.7864584 C4.81979167,15.815625 4.81250002,15.8265625 4.80885416,15.8338542 C4.80520833,15.8411458 4.80156251,15.8484376 4.79791669,15.8557292 C4.79427083,15.8666667 4.790625,15.8739584 4.78697918,15.8848959 C4.78333332,15.8921874 4.7796875,15.9031251 4.77604167,15.9104166 C4.77239585,15.9177084 4.76875003,15.9286458 4.76510417,15.9359375 C4.76145834,15.946875 4.75781252,15.9541667 4.75416666,15.9651042 C4.74322919,15.9979168 4.73958333,16.0088542 4.73593751,16.0197916 C4.725,16.0489584 4.72135418,16.0598958 4.71770835,16.0744792 C4.71041667,16.1036459 4.70677085,16.1182292 4.70677085,16.1291666 C4.69947916,16.1583334 4.69947916,16.1729166 4.69583334,16.1838543 C4.69218752,16.2166667 4.68854169,16.2276042 4.68854169,16.2385417 C4.68854169,16.2494792 4.68854169,16.2567709 4.68489583,16.2677084 C4.68489583,16.2750001 4.68489583,16.2859375 4.68125001,16.2932292 C4.67760418,16.3333333 4.67760418,16.3697917 4.68125001,16.4098958 C4.68125001,16.4208334 4.68125001,16.428125 4.68489583,16.4354167 C4.68489583,16.4463542 4.68489583,16.4536458 4.68854169,16.4645833 C4.68854169,16.4755209 4.69218752,16.4864584 4.69218752,16.4973959 C4.69583334,16.5302084 4.69947916,16.5447916 4.70312499,16.5557293 C4.71041667,16.5848958 4.71041667,16.5994792 4.71406253,16.6104167 C4.72135418,16.6395834 4.725,16.6541666 4.72864586,16.6651042 C4.73958333,16.6942708 4.74322919,16.7052083 4.74687501,16.7161458 C4.75781252,16.7489584 4.76145834,16.75625 4.76510417,16.7671875 C4.76875003,16.7744792 4.77239585,16.7854166 4.77604167,16.7927084 C4.7796875,16.8 4.78333332,16.8109375 4.78697918,16.8182292 C4.790625,16.8291667 4.79427083,16.8364583 4.79791669,16.8473959 C4.80156251,16.8546875 4.80520833,16.8619792 4.80885416,16.8692709 C4.81250002,16.8802084 4.81979167,16.8911459 4.82343752,16.8984376 C4.84166668,16.9276043 4.8453125,16.9385417 4.85260418,16.9494792 C4.87083334,16.975 4.87812499,16.9859374 4.88541667,16.996875 C4.90364586,17.0223958 4.91093751,17.0333334 4.91822919,17.040625 C4.94010417,17.0661458 4.94739585,17.0770833 4.9546875,17.084375 C4.96197918,17.0916667 4.96927083,17.0989584 4.97291669,17.10625 C4.98020833,17.1135417 4.98385416,17.1208334 4.99114584,17.128125 C5.00572917,17.1427084 5.01666668,17.1572916 5.03125001,17.171875 L10.1026042,22.2541667 C10.5583334,22.7098959 11.2984376,22.7098959 11.7541667,22.2541667 C12.2098958,21.7984376 12.2098958,21.0583334 11.7541667,20.6026042 L8,17 L22,17 C22.5522847,17 23,16.5522847 23,16 C23,15.4536367 22.557085,15.0107217 22.0107217,15.0107217 C22.0071671,15.0107217 22.0036125,15.0107408 22.0000581,15.0107792 Z" id="形状" fill="#666666"></path>
        </g>
    </g>
</svg>