<!--?xml version="1.0" encoding="UTF-8"?-->
<svg width="32px" height="32px" viewBox="0 0 32 32" version="1.1" xmlns="http://www.w3.org/2000/svg" xmlns:xlink="http://www.w3.org/1999/xlink">
    <title>1402-发布</title>
    <g id="1402-发布" stroke="none" stroke-width="1" fill="none" fill-rule="evenodd">
        <g id="编组" transform="translate(4.000000, 4.000000)" fill="#000000" fill-rule="nonzero">
            <path d="M23.0712161,0.00167528396 C23.1045678,-0.000409572957 23.1376025,-0.000529512776 23.1702144,0.00120934769 C23.1811722,0.00370158979 23.1935237,0.00464073908 23.2058546,0.00583999679 C23.3538831,0.018216134 23.4911384,0.0700992226 23.6088144,0.149631909 C23.6211817,0.158178569 23.6342923,0.167478948 23.6471966,0.177181627 C23.673618,0.197110208 23.6977171,0.217471545 23.7206831,0.23903197 C23.7267457,0.244644109 23.7340167,0.251671588 23.7411946,0.258849321 L23.7626459,0.281110056 C23.7828501,0.302750133 23.8019924,0.325388415 23.8199822,0.34893393 L23.7411946,0.258849321 C23.7828005,0.300455458 23.8193581,0.345198433 23.8508667,0.392316969 C23.9954372,0.605994434 24.048441,0.885605421 23.9490003,1.16972153 L23.9765735,1.0745294 C23.9718929,1.09518692 23.9664579,1.11570804 23.9602684,1.13604875 L23.9490003,1.16972153 L16.1641972,23.4120162 C15.9015096,24.1625523 14.856143,24.2052006 14.5331903,23.4785571 L14.5331903,23.4785571 L10.2203609,13.7778684 L0.521428197,9.46679498 C-0.153312174,9.16691037 -0.164734721,8.24412799 0.437997228,7.90350956 L0.437997228,7.90350956 L0.587969005,7.83578806 L22.8302637,0.0509849062 C22.8402247,0.0474986161 22.8501799,0.0441996952 22.860127,0.0410855585 C22.8843808,0.0334557958 22.9090102,0.0269998925 22.9338274,0.021629151 C22.9596273,0.0155284875 22.9854896,0.0109374531 23.0112044,0.00752786386 C23.0221269,0.00709449031 23.0338252,0.00586413085 23.0455396,0.0048681443 L23.0712161,0.00167528396 Z M21.0189686,4.22135342 L11.9335765,13.3067455 L15.2371691,20.7420479 L21.0189686,4.22135342 Z M19.7810093,2.97637024 L3.25618139,8.76106024 L10.6921052,12.0652743 L19.7810093,2.97637024 Z" id="形状" fill="#346bf6"></path>
        </g>
    </g>
</svg>