<!--?xml version="1.0" encoding="UTF-8"?-->
<svg width="32px" height="32px" viewBox="0 0 32 32" version="1.1" xmlns="http://www.w3.org/2000/svg" xmlns:xlink="http://www.w3.org/1999/xlink">
    <title>581.报表管理@1x</title>
    <g id="581.报表管理" stroke="none" stroke-width="1" fill="none" fill-rule="evenodd">
        <g id="编组" transform="translate(4.000000, 4.000000)" fill="#000000" fill-rule="nonzero">
            <path d="M19.0293258,12.9230769 C19.2686348,12.9230769 19.5499766,13.0907569 19.66065,13.2976006 C19.66065,13.2976006 20.4207617,14.9650191 21.6054715,14.9650191 C21.9932069,14.9650191 22.2629862,14.8366952 22.2629862,14.8366952 C22.4861369,14.7637007 22.7682635,14.8579123 22.8884576,15.0579452 L22.8884576,15.0579452 L23.9281241,16.7882086 C24.0489808,16.9893439 24.0136245,17.2882573 23.8506334,17.4583127 C23.8506334,17.4583127 23.0657302,18.1644691 23.0657302,18.9230769 C23.0657302,19.6816848 23.8506334,20.3878411 23.8506334,20.3878411 C24.0133227,20.5634682 24.0483183,20.8579123 23.9281241,21.0579452 L23.9281241,21.0579452 L22.8884576,22.7882086 C22.7676011,22.9893439 22.4882304,23.0872985 22.2629862,23.0094586 C22.2629862,23.0094586 21.9932069,22.8811348 21.6054715,22.8811348 C20.4207617,22.8811348 19.6607861,24.5485532 19.6607861,24.5485532 C19.5491759,24.7489821 19.2674678,24.9230769 19.0294433,24.9230769 L19.0294433,24.9230769 L16.9705556,24.9230769 C16.7312192,24.9230769 16.4498693,24.7553969 16.3392128,24.5485532 C16.3392128,24.5485532 15.5792372,22.8811348 14.3945273,22.8811348 C14.006792,22.8811348 13.7370921,23.0094586 13.7370921,23.0094586 C13.5139866,23.0824531 13.231891,22.9882415 13.1116833,22.7882086 L13.1116833,22.7882086 L12.0718993,21.0579452 C11.951029,20.8568099 11.986354,20.5578965 12.1493199,20.3878411 C12.1493199,20.3878411 12.934102,19.6816848 12.934102,18.9230769 C12.934102,18.1644691 12.1493199,17.4583127 12.1493199,17.4583127 C11.9866557,17.2826856 11.9516916,16.9882415 12.0718993,16.7882086 L12.0718993,16.7882086 L13.1116833,15.0579452 C13.2325535,14.8568099 13.5118961,14.7588554 13.7370921,14.8366952 C13.7370921,14.8366952 14.006792,14.9650191 14.3945273,14.9650191 C15.5792372,14.9650191 16.3393489,13.2976006 16.3393489,13.2976006 C16.4509755,13.0971717 16.7326758,12.9230769 16.9706731,12.9230769 L16.9706731,12.9230769 L19.0293258,12.9230769 Z M18.5208662,0 C18.9976291,0 19.3841218,0.386492721 19.3841218,0.863255631 L19.3848592,10.7103671 C19.2851129,10.6590714 19.1760465,10.6284262 19.0738238,10.6284262 L16.1700341,10.6284262 C15.9312942,10.6284262 15.6506095,10.8067987 15.5457521,11.0064305 C15.5457521,11.0064305 14.4984196,13.3469882 12.9697885,13.3469882 C12.4694935,13.3469882 11.9928076,13.1343102 11.9928076,13.1343102 C11.7733119,13.0537808 11.4983731,13.1550534 11.3770411,13.3633823 L9.91039532,15.8816358 C9.78981259,16.0886781 9.83075372,16.398432 9.98755265,16.5692651 C9.98755265,16.5692651 11.0854016,17.6066109 11.0854016,18.6165918 C11.0854016,19.6265729 9.98755265,20.6639186 9.98755265,20.6639186 C9.82435708,20.8366434 9.78906323,21.143219 9.91039532,21.351548 L10.9153846,23.0769231 L0.863255631,23.0769231 C0.386492721,23.0769231 0,22.6904304 0,22.2136674 L0,0.863255631 C0,0.386492721 0.386492721,0 0.863255631,0 L18.5208662,0 Z M18.0220033,16.9451732 C16.888337,16.9451732 15.9660835,17.8461703 15.9660835,18.9537077 C15.9660835,20.0612451 16.888337,20.9624275 18.0220033,20.9624275 C19.1556697,20.9624275 20.0779231,20.0612451 20.0779231,18.9537077 C20.0779231,17.8461703 19.1556697,16.9451732 18.0220033,16.9451732 Z M16.0142317,4.78858395 L9.84029556,8.44461932 L6.5837137,5.13299425 L2.00249191,8.18852777 L2.83702653,9.42038734 L6.5837137,7.20109783 L9.43507448,10.3943626 L16.8494181,6.17985062 L16.0142317,4.78858395 Z" id="形状" fill="#666666"></path>
        </g>
    </g>
</svg>