<!--?xml version="1.0" encoding="UTF-8"?-->
<svg width="32px" height="32px" viewBox="0 0 32 32" version="1.1" xmlns="http://www.w3.org/2000/svg" xmlns:xlink="http://www.w3.org/1999/xlink">
    <title>1897.报表管理</title>
    <g id="1897.报表管理" stroke="none" stroke-width="1" fill="none" fill-rule="evenodd">
        <path d="M26.5,2 C27.6045695,2 28.5,2.8954305 28.5,4 L28.5015996,19.1026501 C27.2309694,17.8051427 25.4595103,17 23.5,17 C19.6340068,17 16.5,20.1340068 16.5,24 C16.5,25.9595103 17.3051427,27.7309694 18.6026501,29.0015996 L5.5,29 C4.3954305,29 3.5,28.1045695 3.5,27 L3.5,4 C3.5,2.8954305 4.3954305,2 5.5,2 L26.5,2 Z M24.6880221,19 C24.6880221,19.9397313 25.4694586,20.7016184 26.4333026,20.7016184 C26.7487523,20.7016184 27.0445373,20.6200349 27.3000434,20.4772307 L28.5,22.5227693 C27.975019,22.8161792 27.6213247,23.3678267 27.6213247,24 C27.6213247,24.6321733 27.975019,25.1838208 28.5,25.4772307 L27.3000434,27.5227693 C27.0445373,27.3799651 26.7487523,27.2983816 26.4333026,27.2983816 C25.4694586,27.2983816 24.6881578,28.0601365 24.6881578,29 L22.3118422,29 C22.3118422,28.0601365 21.5305414,27.2983816 20.5666974,27.2983816 C20.2512477,27.2983816 19.9553271,27.3799651 19.7000922,27.5227693 L18.5,25.4772307 C19.024981,25.1838208 19.3785397,24.6321733 19.3785397,24 C19.3785397,23.3678267 19.024981,22.8161792 18.5,22.5227693 L19.7000922,20.4772307 C19.9553271,20.6200349 20.2512477,20.7016184 20.5666974,20.7016184 C21.5305414,20.7016184 22.3119779,19.9397313 22.3119779,19 L24.6880221,19 Z M23.5,22 C22.3954305,22 21.5,22.8954305 21.5,24 C21.5,25.1045695 22.3954305,26 23.5,26 C24.6045695,26 25.5,25.1045695 25.5,24 C25.5,22.8954305 24.6045695,22 23.5,22 Z M12.5,16 C11.9477153,16 11.5,16.4477153 11.5,17 L11.5,24 C11.5,24.5522847 11.9477153,25 12.5,25 C13.0522847,25 13.5,24.5522847 13.5,24 L13.5,17 C13.5,16.4477153 13.0522847,16 12.5,16 Z M7.5,19 C6.94771525,19 6.5,19.4477153 6.5,20 L6.5,24 C6.5,24.5522847 6.94771525,25 7.5,25 C8.05228475,25 8.5,24.5522847 8.5,24 L8.5,20 C8.5,19.4477153 8.05228475,19 7.5,19 Z M13.4452998,6.16794971 L7.4452998,10.1679497 C6.98577112,10.4743022 6.86159725,11.0951715 7.16794971,11.5547002 L7.23823728,11.648003 C7.56217462,12.0297714 8.12799499,12.1165204 8.5547002,11.8320503 L13.741,8.374 L16.6807681,12.5734623 C16.9963229,13.0242549 17.6167885,13.135407 18.06921,12.8221922 L24.56921,8.32219219 C25.0232942,8.0078262 25.1365582,7.38487423 24.8221922,6.93079002 L24.7443857,6.83209093 C24.4129867,6.46181094 23.8499447,6.38762382 23.43079,6.67780781 L17.748,10.611 L14.8192319,6.42653766 C14.5075944,5.98134125 13.8974621,5.86650817 13.4452998,6.16794971 Z" id="形状结合" fill="#666666" fill-rule="nonzero"></path>
    </g>
</svg>