<!--?xml version="1.0" encoding="UTF-8"?-->
<svg width="32px" height="32px" viewBox="0 0 32 32" version="1.1" xmlns="http://www.w3.org/2000/svg" xmlns:xlink="http://www.w3.org/1999/xlink">
    <title>1970.复核安排</title>
    <g id="1970.复核安排" stroke="none" stroke-width="1" fill="none" fill-rule="evenodd">
        <path d="M17.0621838,27.6271195 L19.4911231,30.1012069 L17.6804799,30.5080638 C17.1416312,30.6291447 16.6066526,30.2904771 16.4855717,29.7516284 C16.4448198,29.5702696 16.4554229,29.3811417 16.5161907,29.2054743 L17.0621838,27.6271195 Z M25.9831706,18.5424544 L28.4772736,21.1015046 L20.2778799,29.4468999 L17.7837769,26.8878498 L25.9831706,18.5424544 Z M27,7 C27.5522847,7 28,7.44771525 28,8 L28,15.298 L27.9215112,15.2214049 L14.855,28 L8,28 C7.44771525,28 7,27.5522847 7,27 L7,8 C7,7.44771525 7.44771525,7 8,7 L27,7 Z M24,4 C24.5522847,4 25,4.44771525 25,5 L25,5.74012591 L6.82917061,5.74012591 C6.27688586,5.74012591 5.82917061,6.18784116 5.82917061,6.74012591 L5.82917061,25 L5,25 C4.44771525,25 4,24.5522847 4,24 L4,5 C4,4.44771525 4.44771525,4 5,4 L24,4 Z M29.035467,17.0591262 L29.9419527,17.9824613 C30.3733538,18.421881 30.3709721,19.1367471 29.9290486,19.5868848 L29.1713885,20.358628 L26.7026615,17.8440133 L27.4603216,17.0722702 C27.8988494,16.6255912 28.6080548,16.6237694 29.035467,17.0591262 Z M19,15 L11,15 C10.4477153,15 10,15.4477153 10,16 C10,16.5522847 10.4477153,17 11,17 L19,17 C19.5522847,17 20,16.5522847 20,16 C20,15.4477153 19.5522847,15 19,15 Z M19,11 L11,11 C10.4477153,11 10,11.4477153 10,12 C10,12.5522847 10.4477153,13 11,13 L19,13 C19.5522847,13 20,12.5522847 20,12 C20,11.4477153 19.5522847,11 19,11 Z" id="形状结合" fill="#666666"></path>
    </g>
</svg>