<!--?xml version="1.0" encoding="UTF-8"?-->
<svg width="32px" height="32px" viewBox="0 0 32 32" version="1.1" xmlns="http://www.w3.org/2000/svg" xmlns:xlink="http://www.w3.org/1999/xlink">
    <title>974.逆时针旋转</title>
    <g id="974.逆时针旋转" stroke="none" stroke-width="1" fill="none" fill-rule="evenodd">
        <g id="编组" transform="translate(2.000000, 4.000000)" fill="#000000" fill-rule="nonzero">
            <path d="M15.9310345,0 C22.5965401,0 28,5.40345993 28,12.0689655 C28,18.7344711 22.5965401,24.137931 15.9310345,24.137931 C15.3977941,24.137931 14.9655172,23.7056542 14.9655172,23.1724138 C14.9655172,22.6391734 15.3977941,22.2068966 15.9310345,22.2068966 C21.5300592,22.2068966 26.0689655,17.6679902 26.0689655,12.0689655 C26.0689655,6.4699408 21.5300592,1.93103448 15.9310345,1.93103448 C10.5505354,1.93103448 6.14901834,6.12255483 5.81363871,11.4184401 L7.89953345,9.02175062 C8.24937062,8.61930895 8.85921322,8.57666466 9.2616548,8.92650187 C9.63313949,9.24942849 9.69805123,9.79389812 9.4306831,10.1922832 L9.35690368,10.2886233 L5.55628585,14.660734 C5.35810557,14.8887142 5.07648591,15.0012305 4.79639925,14.9923409 C4.51661636,15.0009714 4.23541668,14.8884519 4.03746448,14.660734 L0.236846652,10.2886233 C-0.112990554,9.88618158 -0.0703462067,9.27633908 0.332095468,8.92650187 C0.734537144,8.57666466 1.34437965,8.61930895 1.69421688,9.02175062 L3.87395087,11.5285762 C4.15660374,5.11384495 9.44661787,0 15.9310345,0 Z" id="路径" fill="#666666"></path>
        </g>
    </g>
</svg>