<!--?xml version="1.0"?-->
<svg xmlns="http://www.w3.org/2000/svg" class="icon" style="vertical-align:middle;fill:currentColor;overflow:hidden;" viewBox="0 0 1024 1024" version="1.1" width="200px" height="200px"><path d="M937.5 722.314044C930.344844 811.353372 873.663059 888.775788 790.947559 922.492C708.232063 956.208209 613.58035 940.471834 546.22275 881.805138L546.22275 881.805138L546.15975 881.805138L705.66 722.314044L937.5 722.314044zM682.665 467.5L682.665 691.757778L519.7155 854.745519C485.538 813.715069 465 761.013391 465 703.413259C465 580.054159 559.7205 477.375659 682.665 467.5L682.665 467.5zM713.537691 149.340534C714.045144 149.340534 714.461856 149.744641 714.461856 150.243137L714.461856 415.421822C705.766369 414.611369 696.953997 414.1969 688.043478 414.1969C534.874509 414.1969 410.706519 536.665844 410.706519 687.738938C410.706519 729.703684 420.287384 769.461322 437.40935 805L94.668834 804.971234C94.161374 804.971234 93.75 804.567125 93.75 804.068631L93.75 150.243137C93.75 149.744641 94.161374 149.340534 94.668834 149.340534L713.537691 149.340534zM720.5595 467.5C836.306797 476.789409 928.210975 568.697388 937.5 684.449475L937.5 684.449475L720.5595 684.449475L720.5595 467.5zM450.940219 257.887168L365.583216 320.279878L279.738552 257.887168L246.358696 285.282867L347.1833 358.048975L347.428206 358.238016L246.602681 358.268859L246.602681 397.306191L346.477338 397.276372L346.477338 458.627941L246.602681 458.650556L246.602681 497.687881L346.477338 497.6663L346.477563 592.492816L384.727828 592.492816L384.710219 497.6663L484.076088 497.687881L484.076088 458.650556L384.710219 458.627941L384.710219 397.276372L484.076088 397.306191L484.076088 358.268859L380.035106 358.238016L380.319169 358.048975L483.8321 285.282867L450.940219 257.887168zM714.456525 62.5C763.081591 62.5 802.5 101.378795 802.5 149.338221L802.492697 438.501378C789.110025 432.513631 775.159744 427.543616 760.7434 423.6915C759.855219 420.823053 759.120378 417.670791 758.478262 414.320925L758.478262 149.342902C758.478262 125.363188 738.769059 105.92379 714.456525 105.92379L181.793477 105.92379L181.793477 62.5L714.456525 62.5z" fill="#666666"></path></svg>
