<!--?xml version="1.0" encoding="UTF-8"?-->
<svg width="32px" height="32px" viewBox="0 0 32 32" version="1.1" xmlns="http://www.w3.org/2000/svg" xmlns:xlink="http://www.w3.org/1999/xlink">
    <title>1694.调薪申请</title>
    <g id="1694.调薪申请" stroke="none" stroke-width="1" fill="none" fill-rule="evenodd">
        <g id="编组-47" transform="translate(2.000000, 2.000000)" fill="#353535">
            <path d="M15.4110124,0 C15.6441795,1.84454705e-15 15.8677029,0.0930628682 16.0319764,0.258535251 L20.7459639,5.00692727 C20.908684,5.17083492 21,5.39242982 21,5.62339202 L20.9999312,14.9291656 C17.5469419,15.359782 14.875,18.3053583 14.875,21.875 C14.875,23.1501727 15.2159697,24.3457076 15.8117104,25.3754062 L0.875,25.375 C0.391750844,25.375 2.95904766e-17,24.9832492 0,24.5 L0,0.875 C-5.91809532e-17,0.391750844 0.391750844,5.91809532e-17 0.875,0 L15.4110124,0 Z M13.3,18.7115952 L4.2,18.7115952 C3.81340068,18.7115952 3.5,19.0249958 3.5,19.4115952 C3.5,19.7981945 3.81340068,20.1115952 4.2,20.1115952 L13.3,20.1115952 C13.6865993,20.1115952 14,19.7981945 14,19.4115952 C14,19.0249958 13.6865993,18.7115952 13.3,18.7115952 Z M13.3,15.2115952 L4.2,15.2115952 C3.81340068,15.2115952 3.5,15.5249958 3.5,15.9115952 C3.5,16.2981945 3.81340068,16.6115952 4.2,16.6115952 L13.3,16.6115952 C13.6865993,16.6115952 14,16.2981945 14,15.9115952 C14,15.5249958 13.6865993,15.2115952 13.3,15.2115952 Z M14.779483,6.1324234 L11.654483,6.1324234 L11.5760844,6.13729304 C11.2679113,6.17585967 11.029483,6.43879758 11.029483,6.7574234 L11.0343527,6.83582207 C11.0729193,7.14399516 11.3358572,7.3824234 11.654483,7.3824234 L13.0039558,7.3814234 L10.0649993,10.4449211 L7.71987796,8.34364086 L7.64775332,8.28617782 C7.29815239,8.03915115 6.77613339,8.08747677 6.49546744,8.40905048 L3.66798226,11.6486487 L3.61094612,11.7231417 C3.40677723,12.029485 3.48919309,12.4287739 3.81776762,12.6505907 L3.90246885,12.7007528 C4.25079235,12.8803152 4.70479828,12.8078321 4.95701203,12.5188576 L7.21474823,9.93114005 L9.53059257,12.0067137 L9.60567192,12.0662391 C9.94421077,12.3030792 10.4446538,12.2658953 10.7314048,11.9670832 L14.1529558,8.4004234 L14.154483,9.8824234 L14.1593527,9.96082207 C14.1979193,10.2689952 14.4608572,10.5074234 14.779483,10.5074234 C15.124661,10.5074234 15.404483,10.2276014 15.404483,9.8824234 L15.404483,6.7574234 L15.3996134,6.67902473 C15.3610468,6.37085164 15.0981088,6.1324234 14.779483,6.1324234 Z" id="形状结合" fill="#666666"></path>
            <path d="M21.875,15.75 C25.2577441,15.75 28,18.4922559 28,21.875 C28,25.2577441 25.2577441,28 21.875,28 C18.4922559,28 15.75,25.2577441 15.75,21.875 C15.75,18.4922559 18.4922559,15.75 21.875,15.75 Z M23.7674409,18.375 L21.8803905,19.773498 L19.9825591,18.375 L19.244606,18.9890594 L21.478606,20.624 L21.457606,20.625 L19.25,20.625 L19.25,21.5 L21.457606,21.5 L21.457606,22.874 L19.25,22.875 L19.25,23.75 L21.457606,23.749 L21.4580078,25.875 L22.3036346,25.875 L22.303606,23.749 L24.5,23.75 L24.5,22.875 L22.303606,22.874 L22.303606,21.5 L24.5,21.5 L24.5,20.625 L22.303606,20.625 L22.200606,20.624 L24.494606,18.9890594 L23.7674409,18.375 Z" id="形状结合" fill="#666666"></path>
        </g>
    </g>
</svg>