<!--?xml version="1.0" encoding="UTF-8"?-->
<svg width="32px" height="32px" viewBox="0 0 32 32" version="1.1" xmlns="http://www.w3.org/2000/svg" xmlns:xlink="http://www.w3.org/1999/xlink">
    <title>1727.销售管理</title>
    <g id="1727.销售管理" stroke="none" stroke-width="1" fill="none" fill-rule="evenodd">
        <path d="M15.9763489,5.13837281 C17.1895579,6.67143115 19.3157681,7.26252748 21.1481011,6.56518543 C21.3129689,6.50244067 21.812973,6.65140678 21.9021156,6.80440732 L31.8887567,23.945061 C32.0030688,24.1412616 32.0408018,24.3777928 31.9743549,24.6082469 C31.9082455,24.8387978 31.7511484,25.0198123 31.5502358,25.1256237 L18.662073,31.9051957 C18.4611603,32.011007 18.2166769,32.0420352 17.9760395,31.9730336 C17.7354021,31.9040319 17.5441734,31.7480652 17.4298612,31.5518646 L7.32944565,14.2164084 C7.27819703,14.1284498 7.35748532,13.8526403 7.44440958,13.7986912 C9.17294318,12.7258868 9.84914137,10.6193782 9.1063059,8.76378899 C9.10232159,8.75383626 9.05020826,8.5690389 9.10566883,8.38255757 C9.17348567,8.15452935 9.35960731,7.9137203 9.46277358,7.85950088 C11.3266311,6.87994346 13.1904887,5.90038605 15.0543463,4.92082863 C15.2442006,4.82104998 15.8482099,4.97645146 15.9763489,5.13837281 Z M15.6657108,2.00000071 C15.8885865,1.99936349 16.3631081,2.42542477 16.3998118,2.63278127 C16.4622534,2.98554322 13.9306106,4.55200773 8.80488349,7.33217481 L8.459381,7.51942037 C8.09854502,7.71467029 7.94390253,8.15123944 8.10138022,8.53008757 C8.50757359,9.5068789 8.58293551,10.431848 8.3275003,11.3049805 C8.01619356,12.369094 7.2038098,13.2025934 5.890349,13.805479 L13.7503499,28.1799113 L5.57537418,28.1799113 C5.33940715,28.1808154 5.1007442,28.0935598 4.91521149,27.9173861 C4.72967878,27.7412125 4.63240523,27.5094778 4.62533222,27.2775543 C4.62533222,27.2775543 4.48563047,22.6985685 4.3275266,17.5170846 L4.30586431,16.8071576 C4.27685955,15.8566047 4.24742873,14.8921098 4.21830091,13.9375735 L4.19652325,13.223912 C4.12419639,10.853754 4.0549025,8.58318257 4.00003336,6.78564683 C3.99696583,6.68167269 4.20618487,6.46892153 4.3123279,6.46101606 C6.42303669,6.30381165 8.08545922,4.71225319 8.3275003,2.67848695 C8.32879852,2.66757854 8.3728716,2.47535741 8.51602073,2.33238547 C8.69106261,2.15756026 8.9804848,2.02698387 9.1015948,2.02649964 L15.6657108,2.00000071 Z M17.2123926,23.1792088 L17.2013955,23.185558 C16.8207491,23.4053243 16.6886912,23.891022 16.905653,24.2732738 L18.7883256,27.5902404 C19.0121616,27.977979 19.5014339,28.1090791 19.884068,27.8881652 L19.8950651,27.881816 C20.2757115,27.6620497 20.4077694,27.1763521 20.1908076,26.7941002 L18.3081351,23.4771336 C18.084299,23.089395 17.5950267,22.9582949 17.2123926,23.1792088 Z M19.9146056,19.3381205 L19.8942838,19.3499065 C19.5151135,19.5742869 19.3896314,20.0635613 19.6140117,20.4427316 L22.573652,25.4440955 C22.7969567,25.8214482 23.2824043,25.9487322 23.6621345,25.7294949 L23.6750563,25.7220345 C24.0616266,25.4933286 24.1871087,25.0040541 23.9627284,24.6248839 L21.0030882,19.6235199 C20.7797834,19.2461672 20.2943358,19.1188832 19.9146056,19.3381205 Z M22.9617921,15.7062205 L22.9507609,15.7125894 C22.5687216,15.9331599 22.4373328,16.4213618 22.6570626,16.8038852 L26.3679494,23.2640974 C26.5897413,23.648256 27.0790136,23.7793562 27.4616477,23.5584423 L27.472679,23.5520734 C27.8547182,23.3315029 27.986107,22.843301 27.7663773,22.4607776 L24.0554904,16.0005654 L23.9879914,15.900998 C23.7456212,15.5954796 23.3096413,15.5053897 22.9617921,15.7062205 Z M21.0690238,10.3672977 L17.3450159,12.677806 L19.3446113,13.1710458 L18.4032808,15.8140179 L15.0027824,15.4803943 L13.7167519,21.1776973 L14.7525337,21.552817 L15.9290471,16.6134805 L19.1502409,17.0022162 L20.420452,13.437113 L22.3772429,13.9206433 L21.0690238,10.3672977 Z M12.1629507,8.85998673 C11.9215441,9.70187164 12.4199234,10.5833779 13.2761121,10.828886 C14.1323008,11.0743942 15.0220776,10.5909353 15.2634842,9.74905041 C15.5048908,8.9071655 15.0065115,8.02565925 14.1503228,7.78015109 C13.2941341,7.53464293 12.4043573,8.01810182 12.1629507,8.85998673 Z" id="形状结合" fill="#666666" fill-rule="nonzero"></path>
    </g>
</svg>