<!--?xml version="1.0" encoding="UTF-8"?-->
<svg width="32px" height="32px" viewBox="0 0 32 32" version="1.1" xmlns="http://www.w3.org/2000/svg" xmlns:xlink="http://www.w3.org/1999/xlink">
    <title>1730.销售管理</title>
    <g id="1730.销售管理" stroke="none" stroke-width="1" fill="none" fill-rule="evenodd">
        <path d="M16.076225,15.0783583 C17.8595831,18.5034955 21.9920849,16.7397686 23.1160414,15.3141411 C24.4760715,16.839675 26.3776836,17.3656185 27.2558984,17.3656185 L27.2558984,28.5260405 C27.2558984,29.0638995 26.3999282,30 25.7710069,30 L6.39583682,30 C5.81133611,30 4.92825587,29.4799808 4.92825587,28.5260405 C4.85692154,25.6856828 4.92825587,20.3010411 4.92825587,17.5442233 C5.78426774,17.3771435 7.81637314,17.5442233 9.05132869,15.6228049 C9.69333758,16.9594439 11.3927251,17.0484324 12.4419418,17.0484324 C13.4911585,17.0484324 15.2915475,16.665617 16.076225,15.0783583 Z M15,20 L12,20 C10.8954305,20 10,20.8954305 10,22 L10,28 L15,28 L15,20 Z M20,20 L17,20 L17,28 L22,28 L22,22 C22,20.8954305 21.1045695,20 20,20 Z M25.5885425,4.89655172 C25.9373255,4.89655172 28.7083411,10.5678356 29.6572718,11.6948078 C30.6990979,13.1345694 29.210775,15.1377161 27.2759551,15.3881094 C25.3411352,15.701101 23.8528122,14.8873227 22.9598184,13.0093727 C22.3644893,14.574331 21.248247,15.513306 19.3134271,15.4507077 C17.6018557,15.3881094 16.5600296,14.5117327 15.9647004,13.0719711 C15.2949551,14.6995277 14.1042967,15.5759044 12.1694768,15.4507077 C10.6067377,15.3881094 9.63932777,14.6369294 8.8951663,13.0719711 C8.74633401,13.3223644 8.67191784,13.5727577 8.59750168,13.7605527 C7.92775634,14.8873227 6.58826566,15.5759044 5.09994268,15.513306 C3.61161971,15.3881094 2.42096132,14.5743311 2.04888057,13.3223644 C1.97446441,12.9467744 1.97446441,12.5085861 2.12329674,12.1329961 C2.71862591,10.6306361 5.94512342,4.89655172 6.3916203,4.89655172 L25.5885425,4.89655172 Z M23.9162661,2 C24.0943836,2 24.2572139,2.10063462 24.3368705,2.25994781 L24.8321377,3.25048229 C24.9482844,3.48277568 24.8541289,3.76524218 24.6218355,3.88138887 C24.5565387,3.91403725 24.4845373,3.93103448 24.4115333,3.93103448 L7.58846669,3.93103448 C7.32875479,3.93103448 7.11821669,3.72049639 7.11821669,3.46078448 C7.11821669,3.38778048 7.13521392,3.31577906 7.1678623,3.25048229 L7.66312954,2.25994781 C7.74278614,2.10063462 7.90561637,2 8.08373393,2 L23.9162661,2 Z" id="形状结合" fill="#666666" fill-rule="nonzero"></path>
    </g>
</svg>