<!--?xml version="1.0" encoding="UTF-8"?-->
<svg width="32px" height="32px" viewBox="0 0 32 32" version="1.1" xmlns="http://www.w3.org/2000/svg" xmlns:xlink="http://www.w3.org/1999/xlink">
    <title>233.销售机会</title>
    <g id="233.销售机会" stroke="none" stroke-width="1" fill="none" fill-rule="evenodd">
        <g id="销售机会" transform="translate(4.000000, 5.000000)" fill="#000000" fill-rule="nonzero">
            <path d="M12.3409567,-4.02169126e-16 C13.6780996,-4.02169126e-16 14.7580996,1.03548662 14.7623853,2.31245038 C14.7623853,2.54392639 14.7267718,2.76745876 14.660492,2.97832296 L14.6667413,2.95810463 L14.6667413,2.95810463 L21.2622222,6.57889729 L22.2857142,6.57922832 C23.1877551,6.57922832 23.9265306,7.24373363 23.9948447,8.08837471 L24,8.21636137 L24,21.362867 C24,22.2243108 23.3041788,22.9298371 22.4197325,22.9950767 L22.2857142,23 L1.71428574,23 C0.812244906,23 0.0734694115,22.3354948 0.00515527111,21.4908536 L0,21.362867 L0,8.21636137 C0,7.35491753 0.695821226,6.64939115 1.58026749,6.58415155 L1.71428574,6.57922832 L2.77422222,6.57889729 L9.97169444,2.79214652 L9.97643772,2.81313334 C9.93917362,2.65191142 9.91952812,2.4843719 9.91952812,2.31245038 C9.91952812,1.03531931 11.0036386,-4.02169126e-16 12.3409567,-4.02169126e-16 Z M5.44293862,12.7707296 C4.9776593,12.7577845 4.52738898,12.8937076 4.17467724,13.1526087 C3.83355474,13.4015875 3.64173883,13.7705509 3.65311414,14.1558504 C3.65311414,14.469768 3.77318621,14.7739766 3.99832137,15.0199327 C4.22454852,15.2495098 4.5019287,15.4366395 4.81321935,15.5706124 L5.00392507,15.6445315 L5.36414133,15.7869272 C5.63805576,15.8775426 5.88945666,16.0102294 6.10333508,16.1817514 C6.20839816,16.2820755 6.26468195,16.4147623 6.26092967,16.5474491 C6.26092967,16.7092623 6.17462789,16.864603 6.02453776,16.9616908 C5.84442965,17.0846689 5.61554224,17.1461578 5.38290258,17.1332128 C5.18028094,17.1299765 4.98141155,17.0976139 4.79379891,17.0328887 C4.60618629,16.9681633 4.42357666,16.8933697 4.24708181,16.8094666 L3.9870646,16.6768997 L3.55555555,16.4471249 L3.65311414,17.6477787 L3.78444299,17.7157403 C4.03959617,17.8290095 4.30975835,17.9196249 4.58742505,17.9811139 C4.8500827,18.0426029 5.12024487,18.0749655 5.39040708,18.0749655 C5.9000265,18.0912847 6.39774466,17.9397079 6.78249283,17.651015 C7.16147034,17.3759326 7.37534864,16.9713996 7.37159648,16.5506854 C7.37534864,16.2108777 7.24401985,15.8807788 6.99637122,15.6154052 C6.76185542,15.3753823 6.47522499,15.1780601 6.15168005,15.0365485 L5.95324495,14.9584438 L5.58177194,14.8192844 C5.33037104,14.7383778 5.10148363,14.6153997 4.90261427,14.4600591 C4.79755118,14.3759163 4.74126739,14.2561745 4.74126739,14.1331965 C4.73001062,14.0069822 4.79379891,13.8904767 4.90636649,13.8128064 C5.05270434,13.709246 5.24031698,13.660702 5.42792959,13.6768833 C5.60803774,13.6801196 5.78439361,13.7124822 5.94949273,13.7707349 C6.10901668,13.8269884 6.26113811,13.8974196 6.40342712,13.9808085 L6.54234862,14.0684712 L6.95884865,14.3370811 L6.95884865,13.1752625 L6.83502429,13.1137735 C6.62489818,13.0037405 6.39976305,12.9195977 6.16337111,12.8613449 C5.92697921,12.8030922 5.68683505,12.7707296 5.44293862,12.7707296 Z M14.1894394,12.9163614 L13.0412501,12.9163614 L13.0412501,17.9228611 L16.6921918,17.9228611 L16.6771829,16.9649271 L14.1894394,16.9649271 L14.1894394,12.9163614 Z M20.4106742,12.9163614 L16.9923721,12.9163614 L16.9923721,17.9228611 L20.4106742,17.9228611 L20.4444444,16.9649271 L18.1218001,16.9649271 L18.1218001,15.7545645 L20.0992372,15.7545645 L20.0992372,14.8548833 L18.1218001,14.8548833 L18.1218001,13.8160427 L20.4106742,13.8160427 L20.4106742,12.9163614 Z M10.1219976,12.7998559 L9.70924981,12.7998559 L7.00387569,17.9228611 L8.25337576,17.9228611 L8.77493887,16.8484217 L8.81621372,16.7610425 L9.30400653,15.8354712 L9.91187142,14.6509987 L10.5122318,15.8613613 L9.46910562,15.8613613 L9.02258758,16.7610425 L10.9549976,16.7610425 L11.5666149,17.9228611 L12.7936014,17.9228611 L10.1219976,12.7998559 Z M10.5520112,3.87089655 L10.565849,3.88525375 L10.565849,3.88525375 L6.10837799,6.2287961 L18.0440922,6.2287961 L13.9907189,4.00514855 L14.0182489,3.98028218 C13.5830892,4.37950561 12.992031,4.62490079 12.3409567,4.62490079 C11.6323435,4.62490079 10.994823,4.33421526 10.5520112,3.87089655 Z M12.3409567,1.22784975 C11.7152424,1.22784975 11.2052424,1.71489682 11.2052424,2.31245038 C11.2052424,2.91000397 11.7152424,3.39705104 12.3409567,3.39705104 C12.9666711,3.39705104 13.476671,2.91000397 13.476671,2.31245038 C13.476671,1.71489682 12.9666709,1.22784975 12.3409567,1.22784975 Z" id="形状" fill="#666666"></path>
        </g>
    </g>
</svg>