<!--?xml version="1.0" encoding="UTF-8"?-->
<svg width="32px" height="32px" viewBox="0 0 32 32" version="1.1" xmlns="http://www.w3.org/2000/svg" xmlns:xlink="http://www.w3.org/1999/xlink">
    <title>1092.保存</title>
    <g id="1092.保存" stroke="none" stroke-width="1" fill="none" fill-rule="evenodd">
        <g id="编组" transform="translate(2.000000, 2.000000)" fill="#000000" fill-rule="nonzero">
            <path d="M6.99999998,26.25 L6.99999998,22.75875 C6.99999998,20.8215 8.55225,19.25 10.4965,19.25 L17.5035,19.25 C18.4326691,19.2509263 19.3233365,19.6212861 19.9792087,20.2794561 C20.6350809,20.9376261 21.0023234,21.8295833 21,22.75875 L21,26.25 L26.25,26.25 L26.25,1.75 L22.75,1.75 L22.75,8.7395 C22.7537257,9.66985961 22.38651,10.5633414 21.7296272,11.2221948 C21.0727444,11.8810483 20.1803666,12.2509387 19.25,12.25 L8.75,12.25 C6.81624999,12.25 5.25,10.69775 5.25,8.7395 L5.25,1.75 L1.75,1.75 L1.75,26.25 L6.99999998,26.25 Z M-2.91433544e-16,1.75 C-2.91433544e-16,0.783999993 0.778750014,-2.91433544e-16 1.75,-2.91433544e-16 L26.25,-2.91433544e-16 C27.216,-2.91433544e-16 28,0.778750014 28,1.75 L28,26.25 C28,27.216 27.22125,28 26.25,28 L1.75,28 C0.783999993,28 -2.91433544e-16,27.22125 -2.91433544e-16,26.25 L-2.91433544e-16,1.75 Z M6.99989318,1.75 L6.99989318,8.7395 C6.99483463,9.20615536 7.17720958,9.65535309 7.50621647,9.98633401 C7.83522335,10.3173149 8.28332208,10.5023737 8.74999999,10.5000225 L19.25,10.5000225 C20.223,10.5000225 21,9.71950001 21,8.7395 L21,1.75 L6.99989318,1.75 Z M8.74994373,26.25 L19.2500219,26.25 L19.2500219,22.75875 C19.2523261,22.2937129 19.0694595,21.846874 18.7417757,21.5168918 C18.4140919,21.1869096 17.968542,21.0009243 17.5035,20.9999991 L10.4965,20.9999991 C10.0310244,20.9995182 9.58465412,21.1850542 9.25666525,21.5153436 C8.92867637,21.845633 8.74626473,22.2932891 8.74994373,22.75875 L8.74994373,26.25 Z M15.75,6.99999998 L19.25,6.99999998 L19.25,8.74999999 L15.75,8.74999999 L15.75,6.99999998 Z" id="形状" fill="#666666"></path>
        </g>
    </g>
</svg>