<!--?xml version="1.0" encoding="UTF-8"?-->
<svg width="32px" height="32px" viewBox="0 0 32 32" version="1.1" xmlns="http://www.w3.org/2000/svg" xmlns:xlink="http://www.w3.org/1999/xlink">
    <title>散点图</title>
    <g id="散点图" stroke="none" stroke-width="1" fill="none" fill-rule="evenodd">
        <g id="视觉修正模版" transform="translate(-2.000000, -0.500000)"></g>
        <path d="M3.99990088,4 C4.54868425,4 4.99356106,4.44487682 4.99356106,4.99366018 L4.99356106,26.9968747 L27.9935611,26.9968747 C28.5458458,26.9968747 28.9935611,27.44459 28.9935611,27.9968747 C28.9935611,28.5491595 28.5458458,28.9968747 27.9935611,28.9968747 L5.49797886,28.9968747 C4.11922087,28.9948922 3.00202015,27.8984805 3,26.5453787 L3,4.99992051 C3,4.4489055 3.44576824,4.00173523 3.99678053,4.0000049 Z M10.5,18.25 C12.2949254,18.25 13.75,19.7050746 13.75,21.5 C13.75,23.2949254 12.2949254,24.75 10.5,24.75 C8.70507456,24.75 7.25,23.2949254 7.25,21.5 C7.25,19.7050746 8.70507456,18.25 10.5,18.25 Z M10.5,19.75 C9.53350169,19.75 8.75,20.5335017 8.75,21.5 C8.75,22.4664983 9.53350169,23.25 10.5,23.25 C11.4664983,23.25 12.25,22.4664983 12.25,21.5 C12.25,20.5335017 11.4664983,19.75 10.5,19.75 Z M20,12.25 C22.6233526,12.25 24.75,14.3766474 24.75,17 C24.75,19.6233526 22.6233526,21.75 20,21.75 C17.3766474,21.75 15.25,19.6233526 15.25,17 C15.25,14.3766474 17.3766474,12.25 20,12.25 Z M20,13.75 C18.2050746,13.75 16.75,15.2050746 16.75,17 C16.75,18.7949254 18.2050746,20.25 20,20.25 C21.7949254,20.25 23.25,18.7949254 23.25,17 C23.25,15.2050746 21.7949254,13.75 20,13.75 Z M12.5,10.5 C13.6045695,10.5 14.5,11.3954305 14.5,12.5 C14.5,13.6045695 13.6045695,14.5 12.5,14.5 C11.3954305,14.5 10.5,13.6045695 10.5,12.5 C10.5,11.3954305 11.3954305,10.5 12.5,10.5 Z M12.5,11.5 C11.9477153,11.5 11.5,11.9477153 11.5,12.5 C11.5,13.0522847 11.9477153,13.5 12.5,13.5 C13.0522847,13.5 13.5,13.0522847 13.5,12.5 C13.5,11.9477153 13.0522847,11.5 12.5,11.5 Z M23.5,4.35 C25.239697,4.35 26.65,5.76030304 26.65,7.5 C26.65,9.23969696 25.239697,10.65 23.5,10.65 C21.760303,10.65 20.35,9.23969696 20.35,7.5 C20.35,5.76030304 21.760303,4.35 23.5,4.35 Z M23.5,5.65 C22.4782732,5.65 21.65,6.47827321 21.65,7.5 C21.65,8.52172679 22.4782732,9.35 23.5,9.35 C24.5217268,9.35 25.35,8.52172679 25.35,7.5 C25.35,6.47827321 24.5217268,5.65 23.5,5.65 Z" id="形状结合" fill="#666666" fill-rule="nonzero"></path>
    </g>
</svg>