<!--?xml version="1.0"?-->
<svg xmlns="http://www.w3.org/2000/svg" class="icon" style="vertical-align:middle;fill:currentColor;overflow:hidden;" viewBox="0 0 1024 1024" version="1.1" width="200px" height="200px"><path d="M843.75 93.75C878.267797 93.75 906.25 121.732203 906.25 156.25L906.25 376.674344C906.25 393.933244 892.258897 407.924344 875 407.924344C857.741103 407.924344 843.75 393.933244 843.75 376.674344L843.75 156.25L156.25 156.25L156.25 843.75L376.228866 843.75C393.487766 843.75 407.478866 857.741103 407.478866 875C407.478866 892.258897 393.487766 906.25 376.228866 906.25L156.25 906.25C121.732203 906.25 93.75 878.267797 93.75 843.75L93.75 156.25C93.75 121.732203 121.732203 93.75 156.25 93.75L843.75 93.75zM420.06095 376.892938L798.336209 488.150369C806.615006 490.585306 811.352388 499.270506 808.917447 507.549303C807.690919 511.7195 804.78265 515.190275 800.89145 517.127666L656.797134 588.874853L869.562125 801.598875C881.766009 813.802759 881.766009 833.589163 869.562125 845.793047C857.358241 857.996931 837.571834 857.996931 825.36795 845.793047L613.111191 633.577259L540.928538 777.357341C537.056425 785.069288 527.665691 788.182091 519.953741 784.309981C516.085403 782.367719 513.196106 778.907781 511.974731 774.755113L400.662016 396.291872C398.227075 388.013078 402.964456 379.327878 411.243253 376.892938C414.121528 376.046388 417.182672 376.046388 420.06095 376.892938z" fill="#666666"></path></svg>
