<!--?xml version="1.0"?-->
<svg xmlns="http://www.w3.org/2000/svg" class="icon" style="vertical-align:middle;fill:currentColor;overflow:hidden;" viewBox="0 0 1024 1024" version="1.1" width="200px" height="200px"><path d="M903.125 125C922.109788 125 937.5 140.390212 937.5 159.375L937.5 500C937.5 517.258898 923.5089 531.25 906.25 531.25L900.632775 530.746521C886.0547 528.100523 875 515.341243 875 500L875 375L125 375L125 812.5L468.75 812.5C486.008898 812.5 500 826.4911 500 843.75C500 861.0089 486.008898 875 468.75 875L96.875 875C77.890212 875 62.5 859.609788 62.5 840.625L62.5 159.375C62.5 140.390212 77.890212 125 96.875 125L903.125 125zM750 468.75C767.2589 468.75 781.25 482.741102 781.25 500L780.9619 503.067368C852.4254 517.433033 906.25 580.555812 906.25 656.25L906.25 750L937.5 750C954.7589 750 968.75 763.9911 968.75 781.25C968.75 798.5089 954.7589 812.5 937.5 812.5L812.5 812.5C812.5 847.017794 784.517794 875 750 875C715.482206 875 687.5 847.017794 687.5 812.5L562.5 812.5C545.241102 812.5 531.25 798.5089 531.25 781.25C531.25 763.9911 545.241102 750 562.5 750L593.75 750L593.75 656.25C593.75 580.555812 647.5746 517.433033 719.0381 503.067368C718.800244 502.056748 718.75 501.034241 718.75 500C718.75 482.741102 732.7411 468.75 750 468.75zM750 562.5C698.223306 562.5 656.25 604.473305 656.25 656.25L656.25 750L843.75 750L843.75 656.25C843.75 607.518993 806.569494 567.471958 759.02875 562.929161L750 562.5zM875 187.5L125 187.5L125 312.5L875 312.5L875 187.5zM218.75 218.75C236.008898 218.75 250 232.741102 250 250C250 265.341243 238.945302 278.100523 224.367227 280.746521L218.75 281.25C201.491102 281.25 187.5 267.258898 187.5 250C187.5 232.741102 201.491102 218.75 218.75 218.75zM312.5 218.75C329.758897 218.75 343.75 232.741102 343.75 250C343.75 265.341243 332.695301 278.100523 318.117227 280.746521L312.5 281.25C295.241102 281.25 281.25 267.258898 281.25 250C281.25 232.741102 295.241102 218.75 312.5 218.75zM406.25 218.75C423.508897 218.75 437.5 232.741102 437.5 250C437.5 265.341243 426.445301 278.100523 411.867227 280.746521L406.25 281.25C388.991103 281.25 375 267.258898 375 250C375 232.741102 388.991103 218.75 406.25 218.75z" fill="#666666"></path></svg>
