<!--?xml version="1.0" encoding="UTF-8"?-->
<svg width="32px" height="32px" viewBox="0 0 32 32" version="1.1" xmlns="http://www.w3.org/2000/svg" xmlns:xlink="http://www.w3.org/1999/xlink">
    <title>261.售后服务</title>
    <g id="261.售后服务" stroke="none" stroke-width="1" fill="none" fill-rule="evenodd">
        <g id="售后服务" transform="translate(5.000000, 4.000000)" fill="#000000" fill-rule="nonzero">
            <path d="M22.2910796,16.6963508 C23.2363068,17.6248187 23.2363068,19.1301625 22.2910796,20.0586303 L18.3803544,23.9000163 C18.2446365,24.0333279 18.0245943,24.0333279 17.8888764,23.9000163 L13.9781512,20.0586303 C13.032924,19.1301625 13.032924,17.6248187 13.9781512,16.6963508 C14.9233784,15.767883 16.4558945,15.767883 17.4011217,16.6963508 L18.1346154,17.4168394 L18.8681091,16.6963508 C19.8133363,15.767883 21.3458524,15.767883 22.2910796,16.6963508 Z M20.3461539,0 C20.7998163,0 21.1737179,0.343146837 21.2248178,0.785225671 L21.2307692,0.888888888 L21.231089,14.0174362 L21.0170673,14.0177458 C20.4771419,14.0317595 19.9464835,14.1472221 19.4506688,14.389442 L19.2403846,14.5010851 L18.1346154,15.382807 L16.8512104,14.5010851 C15.7486807,13.985243 14.0811721,13.985243 12.6278279,15.382807 C11.2199008,16.736697 11.128579,19.2742171 12.4913981,20.8383495 L12.6278279,20.9866061 L14.6925769,23.1111111 L0.884615385,23.1111111 C0.430952911,23.1111111 0.0570513514,22.7679643 0.00595146585,22.3258854 L0,22.2222222 L0,0.888888888 C0,0.433034809 0.341497093,0.0573269617 0.781450548,0.00598021689 L0.884615385,0 L20.3461539,0 Z M15.9230769,3.55555555 C15.4694145,3.55555555 15.0955129,3.89870239 15.044413,4.34078122 L15.044413,4.34078122 L15.0384615,4.44444444 L15.0343751,4.63723523 C14.933916,7.00239405 12.9938984,8.88888888 10.6153846,8.88888888 C8.17258672,8.88888888 6.1923077,6.8990433 6.1923077,4.44444444 L6.1923077,4.44444444 L6.18635626,4.34078122 C6.13525637,3.89870239 5.76135476,3.55555555 5.30769231,3.55555555 C4.85402984,3.55555555 4.48012828,3.89870239 4.42902839,4.34078122 L4.42902839,4.34078122 L4.42307693,4.44444444 L4.42666759,4.65835534 C4.53887424,7.99574809 7.2667158,10.6666667 10.6153846,10.6666667 C14.0353017,10.6666667 16.8076923,7.88088285 16.8076923,4.44444444 L16.8076923,4.44444444 L16.8017409,4.34078122 C16.750641,3.89870239 16.3767394,3.55555555 15.9230769,3.55555555 Z" id="形状" fill="#346bf6"></path>
        </g>
    </g>
</svg>