<!--?xml version="1.0"?-->
<svg xmlns="http://www.w3.org/2000/svg" class="icon" style="vertical-align:middle;fill:currentColor;overflow:hidden;" viewBox="0 0 1024 1024" version="1.1" width="200px" height="200px"><path d="M851.906563 656.25L859.284688 692.525C866.090938 694.340625 872.694063 696.825 879.000313 699.9375L885.200313 703.259375L916.053438 682.765625L916.106563 682.81875L945.225313 711.93125L945.331563 711.984375L924.834688 742.8375C928.378437 748.95625 931.297188 755.409375 933.547188 762.1L935.572188 768.865625L971.794063 776.2375L971.794063 817.496875L935.519063 824.884375C933.715937 831.721875 931.234688 838.353125 928.112813 844.684375L924.781563 850.9125L945.278438 881.765625L945.225313 881.81875L916.106563 910.93125L916.053438 910.984375L885.200313 890.49375C879.106563 894.028125 872.681562 896.940625 866.022188 899.19375L859.284688 901.225L851.906563 937.5L810.647188 937.5L803.272188 901.225C796.465938 899.409375 789.862813 896.925 783.556563 893.8125L777.350313 890.49375L746.444063 910.984375L717.222188 881.7625L737.712813 850.909375C734.187813 844.78125 731.275313 838.328125 729.019062 831.640625L726.981563 824.88125L690.706562 817.50625L690.706562 776.24375L726.981563 768.86875C728.778437 762.025 731.269063 755.3875 734.409687 749.0625L737.765938 742.840625L717.275312 711.9875L746.497187 682.765625L777.350313 703.20625C783.447187 699.678125 789.875313 696.7625 796.534688 694.50625L803.272188 692.46875L810.647188 656.25L851.906563 656.25zM815.706562 125L190.706563 125L190.706563 875L596.956562 875C614.215938 875 628.206562 888.990625 628.206562 906.25C628.206562 923.509375 614.215938 937.5 596.956562 937.5L159.456563 937.5C142.197813 937.5 128.206563 923.509375 128.206563 906.25L128.206563 93.75C128.206563 76.49125 142.197813 62.5 159.456563 62.5L846.956562 62.5C864.215938 62.5 878.206562 76.49125 878.206562 93.75L878.206562 562.5C878.206562 579.759375 864.215938 593.75 846.956562 593.75C829.697188 593.75 815.706562 579.759375 815.706562 562.5L815.706562 125zM831.375313 749.999972C805.487813 749.971875 784.481563 770.934375 784.450284 796.821875C784.422188 822.7125 805.384687 843.721875 831.272188 843.749972C857.162813 843.78125 878.172188 822.815625 878.200284 796.928125C878.228438 771.0375 857.265938 750.03125 831.375313 749.999972zM503.206562 687.5C520.465938 687.5 534.456562 701.490625 534.456562 718.75C534.456562 736.009375 520.465938 750 503.206562 750L284.456563 750C267.197813 750 253.206563 736.009375 253.206563 718.75C253.206563 701.490625 267.197813 687.5 284.456563 687.5L503.206562 687.5zM690.706562 468.75C707.965938 468.75 721.956562 482.740625 721.956562 500C721.956562 517.259375 707.965938 531.25 690.706562 531.25L284.456563 531.25C267.197813 531.25 253.206563 517.259375 253.206563 500C253.206563 482.740625 267.197813 468.75 284.456563 468.75L690.706562 468.75zM690.706562 250C707.965938 250 721.956562 263.99125 721.956562 281.25C721.956562 298.50875 707.965938 312.5 690.706562 312.5L284.456563 312.5C267.197813 312.5 253.206563 298.50875 253.206563 281.25C253.206563 263.99125 267.197813 250 284.456563 250L690.706562 250z" fill="#666666"></path></svg>
