<!--?xml version="1.0" encoding="UTF-8"?-->
<svg width="32px" height="32px" viewBox="0 0 32 32" version="1.1" xmlns="http://www.w3.org/2000/svg" xmlns:xlink="http://www.w3.org/1999/xlink">
    <title>780.主数据</title>
    <g id="780.主数据" stroke="none" stroke-width="1" fill="none" fill-rule="evenodd">
        <g id="编组" transform="translate(2.000000, 5.000000)" fill="#000000" fill-rule="nonzero">
            <path d="M6.36631579,19.1578947 L1.55621053,19.1578947 C0.697052632,19.1578947 0,18.4976842 0,17.6842105 L0,1.47368421 C0,0.660210526 0.697052632,0 1.55621053,0 L26.4437895,0 C27.3029474,0 28,0.660210526 28,1.47368421 L28,17.6842105 C28,18.4976842 27.3029474,19.1578947 26.4437895,19.1578947 L21.8311579,19.1578947 L20.6772632,17.6842105 L26.6058947,17.6842105 L26.6058947,1.47368421 L1.38526316,1.47368421 L1.38526316,17.6842105 L7.49810526,17.6842105 L6.68757895,18.7865263 L6.36631579,19.1578947 Z M19.0768421,16.2105263 L14.0471579,10.3054737 L8.92315789,16.2105263 L4.38863158,16.2105263 C3.99778623,16.2105263 3.62294888,16.0552636 3.34657948,15.7788942 C3.07021008,15.5025248 2.91494737,15.1276875 2.91494737,14.7368421 L2.91494737,4.42105263 C2.91494737,3.60715932 3.57473826,2.94736842 4.38863158,2.94736842 L23.5789474,2.94736842 C24.3928407,2.94736842 25.0526316,3.60715932 25.0526316,4.42105263 L25.0526316,14.7368421 C25.0526316,15.5507354 24.3928407,16.2105263 23.5789474,16.2105263 L19.0768421,16.2105263 Z M13.8747368,13.1452632 L22.0684211,22.0890526 L5.86378947,22.0890526 L13.8762105,13.1437895 L13.8747368,13.1452632 Z" id="形状" fill="#346bf6"></path>
        </g>
    </g>
</svg>