<!--?xml version="1.0" encoding="UTF-8"?-->
<svg width="32px" height="32px" viewBox="0 0 32 32" version="1.1" xmlns="http://www.w3.org/2000/svg" xmlns:xlink="http://www.w3.org/1999/xlink">
    <title>41.设置</title>
    <g id="41.设置" stroke="none" stroke-width="1" fill="none" fill-rule="evenodd">
        <g id="设置" transform="translate(4.000000, 4.000000)" fill="#000000" fill-rule="nonzero">
            <path d="M15.4017179,0.114768277 L20.5978703,3.1128341 C20.9644495,3.32434219 21.1217839,3.77174301 20.9682806,4.16614344 L20.2896351,5.9098065 C20.7381042,6.51928574 21.1184351,7.17661252 21.4228482,7.87027738 L23.2731104,8.1547496 C23.6912889,8.21904326 24,8.57884385 24,9.00193417 L24,14.9980658 C24,15.4211561 23.6912889,15.7809567 23.2731104,15.8452504 L21.4228482,16.1297226 C21.1184353,16.8233871 20.7381046,17.4807136 20.2896364,18.0901919 L20.9682809,19.8338573 C21.1217837,20.2282576 20.9644491,20.6756579 20.5978703,20.8871659 L15.4017179,23.8852317 C15.0354438,24.0965639 14.5697766,24.0091991 14.3050118,23.6794764 L13.1359397,22.2235821 C12.7605476,22.2648625 12.3815049,22.2856695 12,22.2856695 C11.6184951,22.2856695 11.2394524,22.2648625 10.8640603,22.2235821 L9.69498824,23.6794764 C9.4302234,24.0091991 8.9645562,24.0965639 8.59828208,23.8852317 L3.40212968,20.8871659 C3.03555056,20.6756578 2.8782161,20.228257 3.03171941,19.8338566 L3.71036489,18.0901935 C3.26189579,17.4807143 2.88156488,16.8233875 2.57715182,16.1297226 L0.726889673,15.8452504 C0.308711122,15.7809567 0,15.4211561 0,14.9980658 L0,9.00193417 C0,8.57884385 0.308711122,8.21904326 0.726889673,8.1547496 L2.57715179,7.87027738 C2.88156472,7.17661285 3.26189535,6.5192864 3.7103636,5.90980815 L3.03171911,4.16614264 C2.87821629,3.77174237 3.03555083,3.32434203 3.40212968,3.1128341 L8.59828208,0.114768277 C8.9645562,-0.0965638594 9.4302234,-0.00919905572 9.69498824,0.320523605 L10.8640603,1.77641788 C11.2394524,1.73513749 11.6184951,1.71433048 12,1.71433048 C12.3815049,1.71433048 12.7605476,1.73513749 13.1359397,1.77641788 L14.3050118,0.320523605 C14.5697766,-0.00919905572 15.0354438,-0.0965638594 15.4017179,0.114768277 Z M12,8.57144349 C10.1064523,8.57144349 8.57142857,10.1064605 8.57142857,12 C8.57142857,13.8935395 10.1064523,15.4285565 12,15.4285565 C13.8935477,15.4285565 15.4285714,13.8935395 15.4285714,12 C15.4285714,10.1064605 13.8935477,8.57144349 12,8.57144349 Z" id="形状" fill="#346bf6"></path>
        </g>
    </g>
</svg>