<!--?xml version="1.0" encoding="UTF-8"?-->
<svg width="32px" height="32px" viewBox="0 0 32 32" version="1.1" xmlns="http://www.w3.org/2000/svg" xmlns:xlink="http://www.w3.org/1999/xlink">
    <title>Shape</title>
    <g id="Shape" stroke="none" stroke-width="1" fill="none" fill-rule="evenodd">
        <g id="视觉修正模版" transform="translate(-2.000000, -0.500000)"></g>
        <path d="M27,2 C28.6568542,2 30,3.34314575 30,5 L30,10 C30,11.6568542 28.6568542,13 27,13 L22,13 C20.3431458,13 19,11.6568542 19,10 L19,6.5 L9,6.5 C8.48716416,6.5 8.06449284,6.88604019 8.00672773,7.38337887 L8,7.5 L8,10 L9,10 C10.5976809,10 11.9036609,11.24892 11.9949073,12.8237272 L12,13 L12,19 C12,20.6568542 10.6568542,22 9,22 L8,22 L8,24.3076923 L8.00672773,24.451226 C8.06449284,25.0633352 8.48716416,25.5384615 9,25.5384615 L19,25.538 L19,22 C19,20.4023191 20.24892,19.0963391 21.8237272,19.0050927 L22,19 L27,19 C28.6568542,19 30,20.3431458 30,22 L30,27 C30,28.6568542 28.6568542,30 27,30 L22,30 C20.6941178,30 19.5831148,29.1656226 19.1710242,28.0009007 L9,28 L8.82372721,27.9937321 C7.24891996,27.8814288 6,26.2740688 6,24.3076923 L6,22 L5,22 C3.40231912,22 2.09633912,20.75108 2.00509269,19.1762728 L2,19 L2,13 C2,11.3431458 3.34314575,10 5,10 L6,10 L6,7.5 C6,5.90231912 7.24891996,4.59633912 8.82372721,4.50509269 L9,4.5 L19.0414298,4.50029469 C19.2793474,3.08129303 20.5133989,2 22,2 Z M27,21 L22,21 C21.4477153,21 21,21.4477153 21,22 L21,27 C21,27.5522847 21.4477153,28 22,28 L27,28 C27.5522847,28 28,27.5522847 28,27 L28,22 C28,21.4477153 27.5522847,21 27,21 Z M9,12 L5,12 C4.44771525,12 4,12.4477153 4,13 L4,19 C4,19.5522847 4.44771525,20 5,20 L9,20 C9.55228475,20 10,19.5522847 10,19 L10,13 C10,12.4477153 9.55228475,12 9,12 Z M27,4 L22,4 C21.4477153,4 21,4.44771525 21,5 L21,10 C21,10.5522847 21.4477153,11 22,11 L27,11 C27.5522847,11 28,10.5522847 28,10 L28,5 C28,4.44771525 27.5522847,4 27,4 Z" id="形状结合" fill="#666666" fill-rule="nonzero"></path>
    </g>
</svg>