<!--?xml version="1.0" encoding="UTF-8"?-->
<svg width="32px" height="32px" viewBox="0 0 32 32" version="1.1" xmlns="http://www.w3.org/2000/svg" xmlns:xlink="http://www.w3.org/1999/xlink">
    <title>1177-换班</title>
    <g id="1177-换班" stroke="none" stroke-width="1" fill="none" fill-rule="evenodd">
        <g id="编组" transform="translate(4.000000, 6.000000)" fill="#000000" fill-rule="nonzero">
            <path d="M22.9090909,11.5684392 C23.5115834,11.5684392 24,12.0568559 24,12.6593483 C24,13.2618408 23.5115834,13.7502574 22.9090909,13.7502574 L3.6523636,13.7512801 L7.23096167,17.4735429 C7.64774392,17.9072051 7.63488941,18.5963882 7.20222558,19.0142068 C6.81602949,19.3871522 6.22895577,19.4188874 5.80999759,19.1176965 L5.6614931,18.9891569 L0.313294184,13.4243572 L0.287322519,13.3971456 L0.256568133,13.3622071 L0.256568133,13.3622071 L0.190265751,13.2710621 C0.0673815621,13.0911763 0,12.8831313 0,12.6593483 C0,12.0568559 0.488416651,11.5684392 1.09090909,11.5684392 L22.9090909,11.5684392 Z M18.1900023,0.203600093 L18.3385069,0.332139903 L23.6867057,5.8969395 L23.7126774,5.92415114 L23.7434319,5.95908959 L23.7434319,5.95908959 L23.8097343,6.0502346 C23.9326185,6.23012049 24,6.43816558 24,6.66194845 C24,7.26444086 23.5115834,7.75285754 22.9090909,7.75285754 L1.09090909,7.75285754 C0.488416616,7.75285754 0,7.26444086 0,6.66194845 C0,6.05945605 0.488416616,5.57103936 1.09090909,5.57103936 L20.3476364,5.57001663 L16.7690383,1.84775376 C16.3522562,1.4140916 16.3651106,0.724908508 16.7977743,0.307089908 C17.1839705,-0.0658554298 17.7710442,-0.0975905861 18.1900023,0.203600093 Z" id="形状" fill="#666666"></path>
        </g>
    </g>
</svg>