<!--?xml version="1.0" encoding="UTF-8"?-->
<svg width="32px" height="32px" viewBox="0 0 32 32" version="1.1" xmlns="http://www.w3.org/2000/svg" xmlns:xlink="http://www.w3.org/1999/xlink">
    <title>459.战略协议签订@1x</title>
    <g id="459.战略协议签订" stroke="none" stroke-width="1" fill="none" fill-rule="evenodd">
        <g id="编组" transform="translate(4.000000, 5.000000)" fill="#000000" fill-rule="nonzero">
            <path d="M19.6365267,0 C20.3324716,0 20.8966463,0.573281225 20.8966463,1.26202971 L20.8962857,5.79685714 L12.3567396,14.3463285 C12.3256681,14.4035921 12.3109515,14.4232359 12.3043983,14.446978 L11.1697811,18.6094175 C11.1035141,18.851728 11.1714194,19.1128345 11.3505888,19.296977 C11.4847611,19.4279541 11.6614448,19.5 11.8495966,19.5 C11.9117679,19.5 11.9739391,19.492623 12.0352911,19.4762296 L16.1656219,18.3490742 C16.2277931,18.3548119 16.2744567,18.3376271 16.3096522,18.3015618 L20.8962857,13.7108571 L20.8966463,21.0236846 C20.8966463,21.7206843 20.3377115,22.2857143 19.6365267,22.2857143 L1.26011959,22.2857143 C0.564174747,22.2857143 0,21.7124331 0,21.0236846 L0,1.26202971 C0,0.565029943 0.558934821,0 1.26011959,0 L19.6365267,0 Z M2.85293659,19.9216558 C2.71284203,20.2356417 2.80053224,20.6322669 3.04896815,20.8089598 C3.12911986,20.8661625 3.21629072,20.8928571 3.30196005,20.8928571 C3.48186045,20.8928571 3.65723062,20.7733605 3.7519451,20.5623913 C4.53859622,18.8030308 5.44670647,17.1860998 5.92192954,16.6610799 C5.99198194,17.1708134 6.01565159,17.6881869 6.03733114,18.1509129 C6.08220214,19.1335615 6.11494774,19.8441401 6.62192401,20.0729706 C7.10052137,20.2934212 7.53173143,19.7575111 7.76521089,19.442477 L7.80922576,19.3827047 L8.22447514,18.8093866 C8.48401311,18.4470701 8.79142508,18.0186851 8.99502599,17.8000436 C8.9960185,17.8051346 8.99704175,17.8101934 8.99803938,17.8152911 C9.07414928,18.1559717 9.0136614,18.4813659 8.95974523,18.767399 C8.90181822,19.0801268 8.81361891,19.5504605 9.12354026,19.8707959 C9.4742857,20.2356287 9.91929822,20.0042884 10.7407159,19.5326641 C11.0007629,19.3839629 11.1146528,18.9974877 10.9967211,18.6708029 C10.877792,18.342821 10.5714033,18.1979269 10.3128629,18.3479188 C10.2135668,18.405115 10.1263907,18.4547101 10.0492884,18.4966588 C10.0769998,18.1966687 10.0765164,17.8419857 9.99184465,17.4619053 C9.94094699,17.2356172 9.78674219,16.5440996 9.28127262,16.3953595 C8.72398963,16.2298856 8.27406797,16.8021527 7.57199152,17.7785601 L7.45898949,17.9360395 L7.08607595,18.4508707 C7.0790208,18.323734 7.07298901,18.1927968 7.06744054,18.075849 C7.04274764,17.5381691 7.01199198,16.8695002 6.90415971,16.2059354 C6.77868447,15.434321 6.41129373,15.2500204 6.20317278,15.20933 C5.91692105,15.1508431 5.06275263,14.9817902 2.85293659,19.9216558 Z M18.92947,9.81061637 L20.8966463,11.810673 L16.2313126,16.4382598 L12.847742,17.7884301 L14.216362,14.5534827 L18.92947,9.81061637 Z M22.6282917,7.21023865 L23.807942,8.4424679 C23.9302069,8.56474535 24,8.72743285 24,8.88831094 C23.9991435,9.02027032 23.9522235,9.13978612 23.8658703,9.22571682 L21.8180542,11.1414544 L19.8132908,9.05287003 L21.8436903,7.15370279 C22.0356848,6.96066813 22.4077455,6.98872981 22.6282917,7.21023865 Z M12.1062905,9.41606795 L4.61102658,9.41606795 C4.37260674,9.41606795 4.17932928,9.60934544 4.17932928,9.84776519 C4.17932928,10.0596939 4.33204232,10.2359547 4.53342843,10.2725073 L4.61102658,10.2794625 L12.1062905,10.2794625 C12.3447104,10.2794625 12.5379878,10.0861851 12.5379878,9.84776519 C12.5379878,9.60934544 12.3447104,9.41606795 12.1062905,9.41606795 Z M16.2359851,6.0016218 L4.66066124,6.0016218 C4.39482893,6.0016218 4.17932928,6.2171215 4.17932928,6.48295373 C4.17932928,6.72220287 4.353884,6.92068243 4.58258669,6.95798589 L4.66066124,6.96428571 L16.2359851,6.96428571 C16.5018174,6.96428571 16.7173171,6.74878604 16.7173171,6.48295373 C16.7173171,6.2171215 16.5018174,6.0016218 16.2359851,6.0016218 Z" id="形状" fill="#346bf6"></path>
        </g>
    </g>
</svg>