<!--?xml version="1.0" encoding="UTF-8"?-->
<svg width="32px" height="32px" viewBox="0 0 32 32" version="1.1" xmlns="http://www.w3.org/2000/svg" xmlns:xlink="http://www.w3.org/1999/xlink">
    <title>1840.单件管理</title>
    <g id="1840.单件管理" stroke="none" stroke-width="1" fill="none" fill-rule="evenodd">
        <path d="M21.5,5.999 L21.5,8.49738121 C21.5,9.27707733 22.0948881,9.91782989 22.85554,9.99051463 L23,9.99738121 L24,9.99738121 C24.8284271,9.99738121 25.5,9.32580834 25.5,8.49738121 L25.5,5.999 L28.5,5.99994543 C29.0522847,5.99994543 29.5,6.44766068 29.5,6.99994543 L29.5,27 C29.5,27.5522847 29.0522847,28 28.5,28 L3.5,28 C2.94771525,28 2.5,27.5522847 2.5,27 L2.5,6.99994543 C2.5,6.44766068 2.94771525,5.99994543 3.5,5.99994543 L6.578,5.999 L6.57893181,8.5 C6.57893181,9.32842712 7.25050468,10 8.07893181,10 L9,10 C9.82842712,10 10.5,9.32842712 10.5,8.5 L10.499,5.999 L21.5,5.999 Z M17.5446051,11 L14.4553949,11 C14.4553949,12.2218226 13.4397038,13.212104 12.1867066,13.212104 C11.776622,13.212104 11.3921016,13.1060454 11.0599436,12.9203999 L9.5,15.5796001 C10.1824753,15.961033 10.6422779,16.6781748 10.6422779,17.5 C10.6422779,18.3218252 10.1824753,19.038967 9.5,19.4203999 L11.0599436,22.0796001 C11.3921016,21.8939546 11.776622,21.787896 12.1867066,21.787896 C13.4397038,21.787896 14.4555712,22.7783493 14.4555712,24 L17.5444288,24 C17.5444288,22.7783493 18.5602962,21.787896 19.8132934,21.787896 C20.223378,21.787896 20.6080748,21.8939546 20.9398801,22.0796001 L22.5,19.4203999 C21.8175247,19.038967 21.3578984,18.3218252 21.3578984,17.5 C21.3578984,16.6781748 21.8175247,15.961033 22.5,15.5796001 L20.9398801,12.9203999 C20.6080748,13.1060454 20.223378,13.212104 19.8132934,13.212104 C18.5602962,13.212104 17.5446051,12.2218226 17.5446051,11 Z M16,15.6428571 C17.0256717,15.6428571 17.8571429,16.4743283 17.8571429,17.5 C17.8571429,18.5256717 17.0256717,19.3571429 16,19.3571429 C14.9743283,19.3571429 14.1428571,18.5256717 14.1428571,17.5 C14.1428571,16.4743283 14.9743283,15.6428571 16,15.6428571 Z M8.5,3 C9.05228475,3 9.5,3.44771525 9.5,4 L9.5,8 C9.5,8.55228475 9.05228475,9 8.5,9 C7.94771525,9 7.5,8.55228475 7.5,8 L7.5,4 C7.5,3.44771525 7.94771525,3 8.5,3 Z M23.5,3 C24.0522847,3 24.5,3.44771525 24.5,4 L24.5,8 C24.5,8.55228475 24.0522847,9 23.5,9 C22.9477153,9 22.5,8.55228475 22.5,8 L22.5,4 C22.5,3.44771525 22.9477153,3 23.5,3 Z" id="形状结合" fill="#666666"></path>
    </g>
</svg>