<!--?xml version="1.0" encoding="UTF-8"?-->
<svg width="32px" height="32px" viewBox="0 0 32 32" version="1.1" xmlns="http://www.w3.org/2000/svg" xmlns:xlink="http://www.w3.org/1999/xlink">
    <title>1903社会招聘</title>
    <g id="1903社会招聘" stroke="none" stroke-width="1" fill="none" fill-rule="evenodd">
        <g id="rcgyy_shzp_48_48" transform="translate(2.000000, 2.000000)" fill="#999999">
            <path d="M26.88,3.36 C27.4985589,3.36 28,3.86144108 28,4.48 L28,26.88 C28,27.4985589 27.4985589,28 26.88,28 L4.48,28 C3.86144108,28 3.36,27.4985589 3.36,26.88 L3.36,4.48 C3.36,3.86144108 3.86144108,3.36 4.48,3.36 L26.88,3.36 Z M23.52,0 C24.1385589,0 24.64,0.50144108 24.64,1.12 L24.64,2.24 L3.24,2.24 C2.68771525,2.24 2.24,2.68771525 2.24,3.24 L2.24,24.64 L2.24,24.64 L1.12,24.64 C0.50144108,24.64 0,24.1385589 0,23.52 L0,1.12 C0,0.50144108 0.50144108,0 1.12,0 L23.52,0 Z M14.7147108,7.89241368 C13.0979023,8.07247003 11.2090457,9.15920927 11.0635003,10.8066669 L11.0635003,12.8446468 C10.7512223,12.8446468 10.3464674,12.9978371 10.4792835,14.1958278 C10.6117795,15.3945355 11.4616641,15.7259044 12.0994556,16.3118679 C12.3120527,16.5071891 12.4382562,16.7412281 12.5489316,16.9841713 L12.678824,17.2780692 C12.8346875,17.6269355 13.0164786,17.969691 13.4280606,18.2205699 C13.5507419,18.354255 13.6480551,18.4391348 13.72,18.4752094 L13.72,19.6291319 L10.0089411,20.8255007 C8.82,21.2002681 7.84,22.6744389 7.84,24.64 L23.52,24.64 C23.52,22.6744389 22.54,21.2002681 21.4032041,20.8255007 L20.9230821,20.6866447 C20.6134052,20.5934597 20.2426982,20.4771986 19.8636635,20.3561712 L17.6500794,19.6324626 C17.6461466,19.1809244 17.643197,18.8422707 17.6412306,18.6165016 C17.6408204,18.5694042 17.6408204,18.4048462 17.6420465,18.2779748 C18.5693628,17.79132 18.4748281,16.885306 19.0720058,16.3118679 C19.6826719,15.7259215 20.5597174,15.3934943 20.6921956,14.1955035 C20.8250474,12.9967959 20.0680844,12.8446468 20.0680844,12.8446468 L20.0680844,10.5494039 C19.7759671,8.58619565 16.3436366,7.59341787 14.7147108,7.89241368 Z" id="形状" fill="#666666"></path>
        </g>
    </g>
</svg>