<!--?xml version="1.0"?-->
<svg xmlns="http://www.w3.org/2000/svg" class="icon" style="vertical-align:middle;fill:currentColor;overflow:hidden;" viewBox="0 0 1024 1024" version="1.1" width="200px" height="200px"><path d="M843.75 93.75C861.008897 93.75 875 107.741102 875 125L875 423.5625L580.212634 726.383028L539.477847 863.025225C538.613878 865.923347 538.6095 869.009916 539.465241 871.910478C541.907097 880.187234 550.596253 884.917356 558.873009 882.4755L698.447287 841.297494L875 668.1875L875 906.25C875 923.508897 861.008897 937.5 843.75 937.5L156.25 937.5C138.991102 937.5 125 923.508897 125 906.25L125 125C125 107.741102 138.991102 93.75 156.25 93.75L843.75 93.75zM837.935219 520.356056L896.003112 575.778272L688.070837 790.720138L593.653809 829.867084L631.844541 736.07275L837.935219 520.356056zM500 562.5L250 562.5C232.741102 562.5 218.75 576.491103 218.75 593.75C218.75 611.008897 232.741102 625 250 625L500 625C517.258897 625 531.25 611.008897 531.25 593.75C531.25 576.491103 517.258897 562.5 500 562.5zM943.112416 435.916106C943.190338 435.989825 943.267497 436.064344 943.343884 436.13965L978.003366 470.309231C983.465891 475.694325 984.128472 484.109325 979.953297 490.228822L978.160516 492.405634L926.827819 544.473138L870.601522 489.82575L921.023813 436.528394C926.954334 430.259716 936.843738 429.985584 943.112416 435.916106zM500 218.75L250 218.75C232.741102 218.75 218.75 232.741102 218.75 250C218.75 267.258898 232.741102 281.25 250 281.25L343.75 281.25L343.75 468.75C343.75 486.008897 357.741103 500 375 500C392.258897 500 406.25 486.008897 406.25 468.75L406.25 281.25L500 281.25C517.258897 281.25 531.25 267.258898 531.25 250C531.25 232.741102 517.258897 218.75 500 218.75zM687.5 343.75L625 343.75C607.741103 343.75 593.75 357.741103 593.75 375C593.75 392.258897 607.741103 406.25 625 406.25L687.5 406.25C704.758897 406.25 718.75 392.258897 718.75 375C718.75 357.741103 704.758897 343.75 687.5 343.75zM687.5 218.75L625 218.75C607.741103 218.75 593.75 232.741102 593.75 250C593.75 267.258898 607.741103 281.25 625 281.25L687.5 281.25C704.758897 281.25 718.75 267.258898 718.75 250C718.75 232.741102 704.758897 218.75 687.5 218.75z" fill="#666666"></path></svg>
