<!--?xml version="1.0"?-->
<svg xmlns="http://www.w3.org/2000/svg" class="icon" style="vertical-align:middle;fill:currentColor;overflow:hidden;" viewBox="0 0 1024 1024" version="1.1" width="200px" height="200px"><path d="M500 62.5C741.624578 62.5 937.5 258.375422 937.5 500C937.5 551.683403 928.538103 601.273644 912.083528 647.301503L830.539394 615.371041C843.146997 579.246903 850 540.423753 850 500C850 306.700338 693.299663 150 500 150C306.700338 150 150 306.700338 150 500C150 693.299663 306.700338 850 500 850C540.530925 850 579.452747 843.110609 615.6583 830.438997L647.644153 911.960872C601.519794 928.493563 551.811678 937.5 500 937.5C258.375422 937.5 62.5 741.624578 62.5 500C62.5 258.375422 258.375422 62.5 500 62.5zM664.983753 905.324147L697.851175 788.752525C733.39365 764.352341 764.204863 733.5602 788.626963 698.033953L905.513781 664.517566C861.18725 773.6679 774.071547 860.875784 664.983753 905.324147zM500 237.5C644.974747 237.5 762.5 355.025253 762.5 500C762.5 529.158234 757.745894 557.206091 748.970528 583.410712L708.159453 567.431656C715.034966 546.191834 718.75 523.529762 718.75 500C718.75 379.187713 620.812287 281.25 500 281.25C379.187713 281.25 281.25 379.187713 281.25 500C281.25 620.812287 379.187713 718.75 500 718.75C523.587491 718.75 546.303025 715.016716 567.587959 708.108791L583.599356 748.907275C557.340713 757.723047 529.228216 762.5 500 762.5C355.025253 762.5 237.5 644.974747 237.5 500C237.5 355.025253 355.025253 237.5 500 237.5zM500 368.75C572.487372 368.75 631.25 427.512628 631.25 500C631.25 512.273713 629.565278 524.153938 626.414466 535.422041L476.79735 476.816919L535.515581 626.388272C524.219694 629.555941 512.307681 631.25 500 631.25C427.512628 631.25 368.75 572.487372 368.75 500C368.75 427.512628 427.512628 368.75 500 368.75zM523.23125 523.1875L852.84375 652.29375L696.304281 697.167112L652.55625 852.58125z" fill="#666666"></path></svg>
