<!--?xml version="1.0" encoding="UTF-8"?-->
<svg width="32px" height="32px" viewBox="0 0 32 32" version="1.1" xmlns="http://www.w3.org/2000/svg" xmlns:xlink="http://www.w3.org/1999/xlink">
    <title>468.备件采购计划@1x</title>
    <g id="468.备件采购计划" stroke="none" stroke-width="1" fill="none" fill-rule="evenodd">
        <g id="编组" transform="translate(4.000000, 5.000000)" fill="#000000" fill-rule="nonzero">
            <path d="M21.424853,0 L21.4248401,16.7129294 C21.4290451,16.8250065 21.4296962,16.9371865 21.4267925,17.0493043 C21.3499507,20.0161987 18.8523356,22.3598056 15.8482072,22.2839223 L15.8482072,22.2839223 L3.37386057,22.2839223 C3.33668712,22.2844772 3.29950706,22.284416 3.26233583,22.2837387 C1.42706173,22.2503102 -0.0332794371,20.7538572 0.00057699257,18.9413305 L0.00057699257,18.9413305 L16.3415176,18.9413305 C16.6530524,18.9394088 16.7162329,18.7362427 16.7142857,18.4285714 C16.7123399,18.1209002 16.597249,17.9980769 16.2857143,18 L16.2857143,18 L3.42857143,18 L3.39640362,5.80050972 C3.31879044,2.67570021 5.81922624,0.0796213851 8.98318681,0 L8.98318681,0 L21.424853,0 Z M8.14285715,12.8571429 L7.28571429,12.8571429 C7.0490208,12.8571429 6.85714286,13.0490208 6.85714286,13.2857143 C6.85714286,13.5224078 7.0490208,13.7142857 7.28571429,13.7142857 L7.28571429,13.7142857 L8.14285715,13.7142857 C8.37955063,13.7142857 8.57142857,13.5224078 8.57142857,13.2857143 C8.57142857,13.0490208 8.37955063,12.8571429 8.14285715,12.8571429 L8.14285715,12.8571429 Z M17.5714286,12.8571429 L10.7142857,12.8571429 C10.4775922,12.8571429 10.2857143,13.0490208 10.2857143,13.2857143 C10.2857143,13.5224078 10.4775922,13.7142857 10.7142857,13.7142857 L10.7142857,13.7142857 L17.5714286,13.7142857 C17.8081221,13.7142857 18,13.5224078 18,13.2857143 C18,13.0490208 17.8081221,12.8571429 17.5714286,12.8571429 L17.5714286,12.8571429 Z M8.14285715,9.42857143 L7.28571429,9.42857143 C7.0490208,9.42857143 6.85714286,9.62044937 6.85714286,9.85714286 C6.85714286,10.0938363 7.0490208,10.2857143 7.28571429,10.2857143 L7.28571429,10.2857143 L8.14285715,10.2857143 C8.37955063,10.2857143 8.57142857,10.0938363 8.57142857,9.85714286 C8.57142857,9.62044937 8.37955063,9.42857143 8.14285715,9.42857143 L8.14285715,9.42857143 Z M17.5714286,9.42857143 L10.7142857,9.42857143 C10.4775922,9.42857143 10.2857143,9.62044937 10.2857143,9.85714286 C10.2857143,10.0938363 10.4775922,10.2857143 10.7142857,10.2857143 L10.7142857,10.2857143 L17.5714286,10.2857143 C17.8081221,10.2857143 18,10.0938363 18,9.85714286 C18,9.62044937 17.8081221,9.42857143 17.5714286,9.42857143 L17.5714286,9.42857143 Z M8.14285715,6 L7.28571429,6 C7.0490208,6 6.85714286,6.19187794 6.85714286,6.42857143 C6.85714286,6.66526491 7.0490208,6.85714286 7.28571429,6.85714286 L7.28571429,6.85714286 L8.14285715,6.85714286 C8.37955063,6.85714286 8.57142857,6.66526491 8.57142857,6.42857143 C8.57142857,6.19187794 8.37955063,6 8.14285715,6 L8.14285715,6 Z M17.5714286,6 L10.7142857,6 C10.4775922,6 10.2857143,6.19187794 10.2857143,6.42857143 C10.2857143,6.66526491 10.4775922,6.85714286 10.7142857,6.85714286 L10.7142857,6.85714286 L17.5714286,6.85714286 C17.8081221,6.85714286 18,6.66526491 18,6.42857143 C18,6.19187794 17.8081221,6 17.5714286,6 L17.5714286,6 Z M21.4285714,0 C22,0 22.5714286,0.285714295 23.1428571,0.857142857 C23.7142857,1.42857142 24,2.28571428 24,3.42857143 L21.4285714,3.42857143 L21.4285714,0 Z" id="形状" fill="#666666"></path>
        </g>
    </g>
</svg>