<!--?xml version="1.0"?-->
<svg xmlns="http://www.w3.org/2000/svg" class="icon" style="vertical-align:middle;fill:currentColor;overflow:hidden;" viewBox="0 0 1024 1024" version="1.1" width="200px" height="200px"><path d="M847.710213 273.124311C861.569709 273.124311 873.008838 284.335668 874.766487 298.633178L875 302.267148L875 783.357163C875 798.212984 864.540544 810.474441 851.122122 812.272913L847.710213 812.5L152.289789 812.5C138.430291 812.5 126.904721 801.288644 125.213565 786.991134L125 783.357163L125 302.267148C125 287.411328 135.459455 275.149871 148.877878 273.351397L152.289789 273.124311L847.710213 273.124311zM346.354166 554.632866L293.650794 554.632866L293.650794 717.803031L346.354166 717.803031L346.354166 554.632866zM478.1126 364.267678L425.409225 364.267678L425.409225 717.803031L478.1126 717.803031L478.1126 364.267678zM583.519344 445.852759L530.815972 445.852759L530.815972 717.803031L583.519344 717.803031L583.519344 445.852759zM715.277778 527.437841L662.574406 527.437841L662.574406 717.803031L715.277778 717.803031L715.277778 527.437841zM806.215884 187.5C813.683472 187.5 819.89525 192.450858 821.183453 199.219829L821.428572 201.837298L821.428572 229.980884C821.428572 237.061031 816.046528 242.882485 808.9502 244.088733L806.215884 244.318182L209.932197 244.318182C202.335315 244.318182 182.314293 239.05306 179.030213 231.958531L178.571428 229.980884L178.571428 201.837298C178.571428 194.535897 197.863982 188.573085 207.550344 187.629987L209.932197 187.5L806.215884 187.5z" fill="#666666"></path></svg>
