<!--?xml version="1.0" encoding="UTF-8"?-->
<svg width="32px" height="32px" viewBox="0 0 32 32" version="1.1" xmlns="http://www.w3.org/2000/svg" xmlns:xlink="http://www.w3.org/1999/xlink">
    <title>1225-星星_实心</title>
    <g id="1225-星星_实心" stroke="none" stroke-width="1" fill="none" fill-rule="evenodd">
        <g id="编组" transform="translate(4.000000, 4.000000)" fill="#000000" fill-rule="nonzero">
            <path d="M7.8749839,7.11042056 L10.8563132,0.727814399 C11.0635778,0.283796069 11.5092443,-4.29399121e-16 11.9992554,-4.29399121e-16 C12.4892665,-4.29399121e-16 12.934933,0.283796069 13.1421976,0.727814399 L16.1250161,7.1089314 L22.9305481,8.15284342 C23.3973112,8.22469778 23.7848313,8.55127657 23.9347378,8.99911452 C24.0846444,9.44695247 23.9718202,9.94101344 23.642374,10.279386 L18.6729954,15.396193 L19.8315739,22.5293436 C19.9094464,23.0064735 19.7077545,23.4861363 19.3123144,23.7642446 C18.9168744,24.0423528 18.3972657,24.0699719 17.9745721,23.8353505 L12,20.5189567 L6.02542794,23.8368397 C5.60273436,24.0714611 5.08312566,24.0438419 4.68768558,23.7657337 C4.2922455,23.4876255 4.09055363,23.0079627 4.16842609,22.5308328 L5.32700461,15.3976822 L0.357625998,10.2808752 C0.0281797943,9.94250262 -0.0846443619,9.44844164 0.0652621809,9.00060369 C0.215168724,8.55276573 0.602688827,8.22618694 1.06945189,8.15433258 L7.8749839,7.11042056 Z" id="路径" fill="#346bf6"></path>
        </g>
    </g>
</svg>