<!--?xml version="1.0" encoding="UTF-8"?-->
<svg width="32px" height="32px" viewBox="0 0 32 32" version="1.1" xmlns="http://www.w3.org/2000/svg" xmlns:xlink="http://www.w3.org/1999/xlink">
    <title>1073.标题</title>
    <g id="1073.标题" stroke="none" stroke-width="1" fill="none" fill-rule="evenodd">
        <g id="编组" transform="translate(2.000000, 2.000000)" fill="#000000" fill-rule="nonzero">
            <path d="M20.0230907,2.74124344 C20.0230907,2.14057258 19.9466417,1.7146423 19.7981122,1.4612684 C19.6473984,1.20571025 19.3940245,1.06373349 19.033622,1.03315389 L17.8759654,0.764490205 L17.8759654,0 C18.4438724,0.058974959 26.0385366,0.058974959 26.5780482,0 L26.5780482,0.764490205 L24.9398549,1.21226303 C24.5466885,1.27342225 24.2933146,1.40884623 24.1753647,1.61853496 C24.0552305,1.82603943 23.9940713,2.2170216 23.9940713,2.78492861 L23.9722287,24.686481 C23.9722287,25.313363 24.0377565,25.76332 24.1731804,26.034168 C24.2649193,26.2132771 25.5383416,26.746236 28,27.6308604 L28,28.3953506 C27.2507996,28.3363757 18.6535611,28.3363757 17.8759654,28.3953506 L17.8759654,27.6308604 C19.0925969,26.8860285 19.7391372,26.4120446 19.8199548,26.2110929 C19.9400889,25.9140338 19.9990639,25.4029175 19.9990639,24.686481 L20.0209065,15.2701459 L6.91536004,15.2701459 L6.89351746,24.6842967 C6.89351746,25.4334971 6.95249242,25.9511662 7.0726266,26.2351197 C7.15125988,26.4251501 7.83493254,26.8903971 9.12146033,27.6330447 L9.12146033,28.3953506 C8.34168033,28.3363757 0.74920041,28.3363757 -1.45500794e-15,28.3953506 L-1.45500794e-15,27.6308604 C2.11436148,26.746236 3.22178016,26.2110929 3.32007176,26.034168 C3.4729698,25.76332 3.54505033,25.313363 3.54505033,24.686481 L3.56689291,2.74124344 C3.56689291,2.14057258 3.49262815,1.7146423 3.34409861,1.4612684 C3.24362275,1.29089631 2.52500197,1.05936496 1.18605197,0.762305943 L1.18605197,0 L9.12146033,0 L9.12146033,0.764490205 C7.85022234,1.19260471 7.17528668,1.4787425 7.09446914,1.6163507 C6.97433496,1.82603943 6.91536,2.21702156 6.91536004,2.78492861 L6.91536004,13.1164677 L20.025275,13.1164677 L20.025275,2.74124344 L20.0230907,2.74124344 Z" id="路径" fill="#346bf6"></path>
        </g>
    </g>
</svg>