<!--?xml version="1.0"?-->
<svg xmlns="http://www.w3.org/2000/svg" class="icon" style="vertical-align:middle;fill:currentColor;overflow:hidden;" viewBox="0 0 1024 1024" version="1.1" width="200px" height="200px"><path d="M500 62.5C741.624578 62.5 937.5 258.375422 937.5 500C937.5 741.624578 741.624578 937.5 500 937.5C258.375422 937.5 62.5 741.624578 62.5 500C62.5 258.375422 258.375422 62.5 500 62.5zM523.330584 408.442537L521.542691 408.676828L412.167691 436.020578C408.689822 436.890044 406.25 440.014913 406.25 443.599816L406.25 443.599816L406.25 460.9375C406.25 465.252225 409.747775 468.75 414.0625 468.75L414.0625 468.75L468.75 468.75L468.75 671.875L396.905344 686.243931C393.253591 686.974281 390.625 690.180647 390.625 693.904719L390.625 693.904719L390.625 710.9375C390.625 715.252225 394.122775 718.75 398.4375 718.75L398.4375 718.75L601.5625 718.75C605.877225 718.75 609.375 715.252225 609.375 710.9375L609.375 710.9375L609.375 693.904719C609.375 690.180647 606.746409 686.974281 603.094656 686.243931L603.094656 686.243931L531.25 671.875L531.25 416.256066C531.25 415.6173 531.171663 414.980947 531.016738 414.361256C529.970263 410.175359 525.728588 407.630353 521.542691 408.676828zM500 250C474.111653 250 453.125 270.986653 453.125 296.875C453.125 322.763347 474.111653 343.75 500 343.75C525.888347 343.75 546.875 322.763347 546.875 296.875C546.875 270.986653 525.888347 250 500 250z" fill="#666666"></path></svg>