<!--?xml version="1.0" encoding="UTF-8"?-->
<svg width="32px" height="32px" viewBox="0 0 32 32" version="1.1" xmlns="http://www.w3.org/2000/svg" xmlns:xlink="http://www.w3.org/1999/xlink">
    <title>955.敬请期待</title>
    <g id="955.敬请期待" stroke="none" stroke-width="1" fill="none" fill-rule="evenodd">
        <g id="编组" transform="translate(3.000000, 2.000000)" fill="#000000" fill-rule="nonzero">
            <path d="M1.58079186,4.82818388 L12.0654853,0.257857509 C12.8566657,-0.0874811341 13.7562782,-0.0858813489 14.5462255,0.262269021 L24.9073965,4.82965439 C25.1758193,4.94802952 25.3481847,5.21464187 25.3459693,5.50799903 C25.3437108,5.8013562 25.1672997,6.06530903 24.897103,6.17957704 L14.4991693,10.5587379 C13.7363658,10.8799928 12.8765274,10.8815822 12.1125414,10.5631494 L1.5925559,6.18104755 C1.32040328,6.06792504 1.14210025,5.80321929 1.13950953,5.50850386 C1.13697477,5.21378843 1.3106476,4.94602202 1.58079186,4.82818388 Z M1.04405791,7.76036882 L11.434639,12.5571528 C11.9554717,12.7974966 12.2890019,13.3187575 12.2890019,13.8923704 L12.2890019,27.2651336 C12.2888661,27.5238389 12.1527774,27.7634362 11.9306474,27.8960511 C11.7085175,28.0286659 11.4330368,28.0347817 11.2052404,27.9121554 L0.773485178,22.2948302 C0.29733639,22.0385121 0.000283935757,21.5415422 8.8817842e-16,21.0007867 L8.8817842e-16,8.42797763 C8.8817842e-16,8.17704088 0.127748361,7.94337146 0.339159293,7.80818757 C0.550570226,7.67300368 0.816326748,7.65497535 1.04405791,7.76036882 L1.04405791,7.76036882 Z M25.4250139,7.76036882 L15.0344328,12.5571528 C14.5136002,12.7974966 14.18007,13.3187575 14.18007,13.8923704 L14.18007,27.2651336 C14.1802057,27.5238389 14.3162945,27.7634362 14.5384244,27.8960511 C14.7605543,28.0286659 15.036035,28.0347817 15.2638314,27.9121554 L25.6955867,22.2948302 C26.1717355,22.0385121 26.4687879,21.5415422 26.4690718,21.0007867 L26.4690718,8.42797763 C26.4690718,8.17704088 26.3413235,7.94337146 26.1299125,7.80818757 C25.9185016,7.67300368 25.6527451,7.65497535 25.4250139,7.76036882 L25.4250139,7.76036882 Z" id="形状" fill="#666666"></path>
        </g>
    </g>
</svg>