<!--?xml version="1.0" encoding="UTF-8"?-->
<svg width="32px" height="32px" viewBox="0 0 32 32" version="1.1" xmlns="http://www.w3.org/2000/svg" xmlns:xlink="http://www.w3.org/1999/xlink">
    <title>1111-第2步</title>
    <g id="1111-第2步" stroke="none" stroke-width="1" fill="none" fill-rule="evenodd">
        <g id="编组" transform="translate(4.000000, 4.000000)" fill="#000000" fill-rule="nonzero">
            <path d="M12,23.0769231 C18.1172308,23.0769231 23.0769231,18.1172308 23.0769231,12 C23.0769231,5.88276921 18.1172308,0.923076914 12,0.923076914 C5.88276923,0.923076914 0.923076914,5.88276923 0.923076914,12 C0.923076914,18.1172308 5.88276921,23.0769231 12,23.0769231 L12,23.0769231 Z M12,24 C5.3723077,24 0,18.6276923 0,12 C0,5.3723077 5.3723077,0 12,0 C18.6276923,0 24,5.3723077 24,12 C24,18.6276923 18.6276923,24 12,24 Z M12.3138461,7.20738462 C13.1667692,7.20738462 13.8646154,7.45292309 14.4203077,7.944 C14.9630769,8.43507691 15.2473846,9.09415385 15.2473846,9.89538462 C15.2473846,10.6966154 14.9372308,11.4203077 14.3427692,12.0664615 C14.0196923,12.4024615 13.3864615,12.9064615 12.4301539,13.5526154 C11.2541539,14.3409231 10.5821539,15.0516923 10.4141539,15.672 L15.2603077,15.672 L15.2603077,16.6153846 L9.10892309,16.6153846 C9.10892309,15.7753846 9.40615385,15.0129231 10.0264615,14.328 C10.3883077,13.9144615 11.0473846,13.3587692 12.0295385,12.6867692 C12.7532308,12.1698461 13.2313846,11.7950769 13.4769231,11.5366154 C13.9421539,11.0326154 14.1876923,10.4769231 14.1876923,9.88246153 C14.1876923,9.31384615 14.0196923,8.88738462 13.6836923,8.57723077 C13.3476923,8.26707691 12.8695384,8.112 12.2750769,8.112 C11.6418461,8.112 11.1507692,8.31876923 10.8147692,8.75815385 C10.4529231,9.17169232 10.2590769,9.792 10.2461539,10.6061539 L9.18646153,10.6061539 C9.18646153,9.5723077 9.4836923,8.74523077 10.0523077,8.13784615 C10.6209231,7.51753845 11.3833846,7.20738462 12.3138461,7.20738462 Z" id="形状" fill="#666666"></path>
        </g>
    </g>
</svg>