<!--?xml version="1.0" encoding="UTF-8"?-->
<svg width="16px" height="16px" viewBox="0 0 16 16" version="1.1" xmlns="http://www.w3.org/2000/svg" xmlns:xlink="http://www.w3.org/1999/xlink">
    <title>停止回答</title>
    <g id="停止回答" stroke="none" stroke-width="1" fill="none" fill-rule="evenodd">
        <g id="编组" transform="translate(1, 1)" fill="#666666" fill-rule="nonzero">
            <path d="M7,14 C6.05527877,14 5.13849013,13.8148306 4.27508126,13.4496388 C3.44146503,13.0970504 2.69291332,12.5924043 2.0502553,11.949747 C1.40759729,11.3070898 0.902950633,10.5585389 0.550361818,9.72492363 C0.185169659,8.86149973 0,7.94472818 0,7 C0,6.05528787 0.185169659,5.13850027 0.550361818,4.2750924 C0.902950633,3.44146109 1.40759729,2.69292626 2.0502553,2.05026898 C2.69291332,1.40759568 3.44146503,0.902965629 4.27508126,0.550361188 C5.13850616,0.185169447 6.05527876,0 7,0 C7.94472124,0 8.86150987,0.185169447 9.72491874,0.550361188 C10.558535,0.902965629 11.3070867,1.40759568 11.9497447,2.05026898 C12.5924027,2.69292626 13.0970494,3.44147712 13.4496382,4.2750924 C13.8148303,5.13850027 14,6.05528785 14,7 C14,7.94472816 13.8148303,8.86151576 13.4496382,9.72492363 C13.0970494,10.5585389 12.5924027,11.3070898 11.9497447,11.949747 C11.3070867,12.5924043 10.558535,13.0970504 9.72491874,13.4496388 C8.86150987,13.8148306 7.94472123,14 7,14 Z M7,0.994155338 C5.39578423,0.994155338 3.88758474,1.61886971 2.75322014,2.75323301 C1.61887158,3.88759632 0.994140447,5.39579408 0.994140447,7.00000801 C0.994140447,8.60422195 1.61885553,10.1124197 2.75322014,11.246783 C3.88758474,12.3811463 5.39578423,13.0058607 7,13.0058607 C8.60421577,13.0058607 10.1124313,12.3811463 11.2467799,11.246783 C12.3811445,10.1124197 13.0058596,8.60422195 13.0058596,7.00000801 C13.0058596,5.39579408 12.3811445,3.88759632 11.2467799,2.75323301 C10.1124313,1.61886973 8.6042318,0.994155338 7,0.994155338 Z" id="形状" fill="#666666"></path>
            <path d="M5.46931057,4.49544213 L8.53070546,4.49544213 C9.08299021,4.49544213 9.53070546,4.94315738 9.53070546,5.49544213 L9.53070546,8.5045579 C9.53070546,9.05684265 9.08299021,9.5045579 8.53070546,9.5045579 L5.46931057,9.5045579 C4.91702582,9.5045579 4.46931057,9.05684265 4.46931057,8.5045579 L4.46931057,5.49544213 C4.46931057,4.94315738 4.91702582,4.49544213 5.46931057,4.49544213 Z" id="路径" fill="#666666"></path>
        </g>
    </g>
</svg>