<!--?xml version="1.0" encoding="UTF-8"?-->
<svg width="32px" height="32px" viewBox="0 0 32 32" version="1.1" xmlns="http://www.w3.org/2000/svg" xmlns:xlink="http://www.w3.org/1999/xlink">
    <title>943.数据维护</title>
    <g id="943.数据维护" stroke="none" stroke-width="1" fill="none" fill-rule="evenodd">
        <g id="编组" transform="translate(2.000000, 2.000000)" fill="#000000" fill-rule="nonzero">
            <path d="M12.7042222,14.6891111 L12.4444444,14.6906667 C9.422,14.6906667 6.39955556,14.0622222 3.91066667,13.2222222 C1.42177778,12.1722222 0,10.9153333 0,9.65377778 L0,7.34533333 C1.778,8.18533333 3.02244444,9.23377778 4.97777778,9.65377778 C7.28933333,10.2837778 9.77822222,10.7037778 12.4444444,10.7037778 C15.1106667,10.7037778 17.5995556,10.2837778 19.9111111,9.65377778 C21.8664444,9.23377778 23.1108889,8.18533333 24.8888889,7.34533333 L24.8888889,9.86533333 C24.8888889,10.4066667 24.5093333,11.004 23.8,11.5997778 C22.6659866,11.1290963 21.4500355,10.8874921 20.2222222,10.8888889 C17.1391111,10.8888889 14.4044444,12.3837778 12.7042222,14.6891111 L12.7042222,14.6891111 Z M10.8935556,20.5193333 C8.52503976,20.3646818 6.18208879,19.9387856 3.91066667,19.25 C1.42177778,18.4955556 0,17.3677778 0,16.0486667 L0,13.2222222 C1.778,14.1648889 3.02244444,14.9177778 4.97777778,15.484 C7.07155556,15.9957778 9.31155556,16.352 11.6977778,16.4157778 C11.1216966,17.7048524 10.8466721,19.108169 10.8935556,20.5193333 L10.8935556,20.5193333 Z M11.116,22.2771111 C11.4639531,23.8226993 12.2006932,25.2538814 13.2564444,26.4351111 C12.9826667,26.4413333 12.712,26.4444444 12.4444444,26.4444444 C9.422,26.4444444 6.39955556,25.8797778 3.91066667,25.1253333 C1.42177778,24.3724444 0,23.2431111 0,21.9255556 L0,19.0991111 C1.778,20.0402222 3.02244444,20.7946667 4.97777778,21.3593333 C6.78533333,21.8384444 8.97555556,22.1822222 11.116,22.2771111 Z M20.9206667,7.50244444 C18.5764444,8.44044444 15.33,8.81533333 12.4444444,8.81533333 C9.37844444,8.81533333 6.31244444,8.44044444 3.96666667,7.50244444 C1.26466667,6.75111111 0,5.628 0,4.50022222 C0,3.37711111 1.44355556,2.25088889 3.96666667,1.31444444 C6.314,0.376444444 9.38,0 12.4444444,0 C15.33,0 18.5764444,0.563111111 20.9222222,1.31444444 C23.4437778,2.25088889 24.8888889,3.37555556 24.8888889,4.50177778 C24.8888889,5.628 23.6257778,6.75111111 20.9222222,7.50244444 L20.9206667,7.50244444 Z M17.6477778,20.2626667 C17.6477778,21.6968889 18.8144444,22.8651111 20.2502222,22.8651111 C21.6844444,22.8651111 22.8526667,21.6984444 22.8526667,20.2626667 C22.8526667,18.8268889 21.686,17.6586667 20.2502222,17.6586667 C18.816,17.6586667 17.6477778,18.8253333 17.6477778,20.2626667 Z M18.3742222,12.4444444 L22.0702222,12.4444444 C22.0702222,13.9066667 23.2851111,15.092 24.7846667,15.092 C25.2762222,15.092 25.7366667,14.9644444 26.1333333,14.742 L28,17.9246667 C27.1606906,18.3852642 26.6372293,19.2648459 26.6326667,20.2222222 C26.6326667,21.2053333 27.1833333,22.064 28,22.5197778 L26.1333333,25.7024444 C25.7211953,25.472141 25.2567861,25.3516196 24.7846667,25.3524444 C23.2851111,25.3524444 22.0702222,26.5377778 22.0702222,28 L18.3742222,28 C18.3742222,26.5377778 17.1593333,25.3524444 15.6597778,25.3524444 C15.1876495,25.3515499 14.723223,25.4720758 14.3111111,25.7024444 L12.4444444,22.5197778 C13.2611111,22.064 13.8117778,21.2053333 13.8117778,20.2222222 C13.8117778,19.2391111 13.2611111,18.3804444 12.4444444,17.9246667 L14.3111111,14.742 C14.7077778,14.9644444 15.1682222,15.092 15.6597778,15.092 C17.1593333,15.092 18.3742222,13.9066667 18.3742222,12.4444444 L18.3742222,12.4444444 Z" id="形状" fill="#346bf6"></path>
        </g>
    </g>
</svg>