<!--?xml version="1.0" encoding="UTF-8"?-->
<svg width="32px" height="32px" viewBox="0 0 32 32" version="1.1" xmlns="http://www.w3.org/2000/svg" xmlns:xlink="http://www.w3.org/1999/xlink">
    <title>624.供方入围@1x</title>
    <g id="624.供方入围" stroke="none" stroke-width="1" fill="none" fill-rule="evenodd">
        <g id="编组" transform="translate(4.000000, 7.000000)" fill="#000000" fill-rule="nonzero">
            <path d="M24,3.19999649 L24,16.4444264 L23.9968,16.4911819 L24,16.4922896 L24,17.5999807 L3.20002282,17.5999807 L3.20002282,16.4922896 L22.8432013,16.4911819 L22.8444458,3.19999649 L24,3.19999649 Z M19.6820148,0 C19.9805996,0.00198013223 20.2661278,0.116761088 20.4757826,0.319090927 C20.6854374,0.52142074 20.802044,0.79472453 20.8000035,1.078875 L20.8000035,1.078875 L20.8000035,13.3286014 C20.8000035,13.9173963 20.3007041,14.3958668 19.6820148,14.3999842 L19.6820148,14.3999842 L1.11801497,14.3999842 C0.499325858,14.3958668 2.63363782e-05,13.9173963 2.63363782e-05,13.3286014 L2.63363782e-05,13.3286014 L2.63363782e-05,1.078875 C-0.00201418687,0.79472453 0.114592405,0.52142074 0.324247241,0.319090927 C0.533902076,0.116761088 0.819430185,0.00198013223 1.11801497,0 L1.11801497,0 L19.6820148,0 Z M18.1495536,7.70350873 C17.9127124,7.47647702 17.5390116,7.47647702 17.3021705,7.70350873 L17.3021705,7.70350873 L14.7936101,10.1071889 L13.7362366,9.11472838 C13.466271,8.8612202 13.0479075,8.8542342 12.7696283,9.09858755 C12.7540502,9.11226648 12.7392074,9.12676083 12.7251622,9.14200963 C12.5054487,9.38055291 12.5207132,9.75204344 12.7592565,9.97175697 L12.7592565,9.97175697 L13.8688111,10.9935879 L13.8416309,11.020721 L14.689014,11.8330076 L14.7328102,11.7887871 L14.7828435,11.8356093 L15.1744097,11.3647875 L15.4384094,11.1135878 L15.6776903,10.9378284 L15.6480092,10.911988 L18.1495536,8.51579528 C18.1552787,8.51030731 18.1608872,8.50469887 18.1663752,8.49897379 C18.3813916,8.27466704 18.3738604,7.91852522 18.1495536,7.70350873 Z M5.25909382,7.75441397 C3.82624906,7.75441397 2.66895136,9.33526551 2.66895136,11.2832342 L2.66895136,11.2832342 L7.87285464,11.2832342 C7.87285464,9.33526551 6.69193861,7.75441397 5.25909382,7.75441397 Z M5.25909382,3.13170441 C4.17081841,3.13586052 3.29090045,3.97659921 3.29090045,5.01227339 C3.29090045,5.77356092 3.77321613,6.45974293 4.51258845,6.75037019 C5.25196077,7.04099743 6.1025162,6.87872853 6.66704261,6.33934355 C7.23156902,5.79995856 7.39868405,4.9898794 7.09034442,4.28741566 C6.78200484,3.58495194 6.05904671,3.12870131 5.25909382,3.13170441 Z M18.2736756,4.15067182 L10.5653432,4.15067182 C10.4031946,4.15067182 10.2477992,4.21246639 10.1338849,4.3222817 C10.0199706,4.432097 9.95703378,4.58076548 9.959037,4.73506245 C9.95700129,4.88868023 10.0201821,5.03660191 10.1343342,5.1452356 C10.2484862,5.25386928 10.403922,5.31399581 10.5653432,5.31196087 L10.5653432,5.31196087 L18.2736756,5.31196087 C18.6084725,5.31196087 18.8798791,5.05367466 18.8798791,4.73506245 C18.8798791,4.41521579 18.6097421,4.15477243 18.2736756,4.15067182 L18.2736756,4.15067182 Z" id="形状" fill="#346bf6"></path>
        </g>
    </g>
</svg>