<!--?xml version="1.0" encoding="UTF-8"?-->
<svg width="32px" height="32px" viewBox="0 0 32 32" version="1.1" xmlns="http://www.w3.org/2000/svg" xmlns:xlink="http://www.w3.org/1999/xlink">
    <title>1480-SVN管理 灰色</title>
    <g id="1480-SVN管理-灰色" stroke="none" stroke-width="1" fill="none" fill-rule="evenodd">
        <g id="编组" transform="translate(4.000000, 4.000000)" fill="#000000" fill-rule="nonzero">
            <path d="M1.5,1.5 L1.5,22.5 L22.5,22.5 L22.5,1.5 L1.5,1.5 Z M1.5,-4.79616347e-16 L22.5,-4.79616347e-16 C23.3284271,-4.79616347e-16 24,0.671572877 24,1.5 L24,22.5 C24,23.3284271 23.3284271,24 22.5,24 L1.5,24 C0.671572877,24 -2.39808173e-16,23.3284271 -2.39808173e-16,22.5 L-2.39808173e-16,1.5 C-2.39808173e-16,0.671572877 0.671572877,-4.79616347e-16 1.5,-4.79616347e-16 L1.5,-4.79616347e-16 Z M5.94,11.01 C5.12549999,10.632 4.857,10.4085 4.857,9.975 C4.857,9.55349999 5.16299999,9.231 5.736,9.231 C6.27149999,9.231 6.76949999,9.45599999 7.074,9.6375 L7.43099999,8.181 C6.89203222,7.88755787 6.2866176,7.7377539 5.67300001,7.746 C4.092,7.746 3.07350002,8.81099999 3.07349999,10.212 C3.07349999,11.067 3.55799999,11.892 4.88249999,12.4815 C5.65949998,12.8445 5.90249998,13.0965 5.90250001,13.5735 C5.90250003,14.0505 5.58300002,14.358 4.92149999,14.358 C4.33499998,14.358 3.63449998,14.0775 3.26399999,13.839 L2.90700001,15.339 C3.37950001,15.6465 4.131,15.8565 4.90799999,15.8565 C6.6795,15.8565 7.69800001,14.8755 7.69800001,13.392 C7.69800001,12.312 7.1385,11.556 5.94,11.01 L5.94,11.01 Z M10.866,13.821 L10.83,13.821 C10.725,13.1325 10.605,12.474 10.4625,11.787 L9.85650001,7.76700001 L7.97249999,7.76700001 L9.92999999,15.897 L11.625,15.897 L14.136,7.76700001 L12.321,7.76700001 C12.321,7.76700001 10.9725,13.1325 10.866,13.821 Z M18.9105,7.719 C17.9355,7.719 17.271,8.37899999 16.9695,8.964 L16.9335,8.964 L16.8495,7.56 L15.306,7.56 C15.33,8.262 15.3555,9.3525 15.3555,10.284 L15.3255,15.8565 L17.109,15.8565 L17.139,11.115 C17.139,9.89700001 17.802,9.45300001 18.2835,9.45300001 C19.0425,9.45300001 19.308,10.2255 19.308,11.2005 L19.278,15.8565 L21.063,15.8565 L21.093,10.971 C21.093,8.73600001 20.1405,7.719 18.9105,7.719 L18.9105,7.719 Z" id="形状" fill="#346bf6"></path>
        </g>
    </g>
</svg>