<!--?xml version="1.0" encoding="UTF-8"?-->
<svg width="32px" height="32px" viewBox="0 0 32 32" version="1.1" xmlns="http://www.w3.org/2000/svg" xmlns:xlink="http://www.w3.org/1999/xlink">
    <title>1013.切换</title>
    <g id="1013.切换" stroke="none" stroke-width="1" fill="none" fill-rule="evenodd">
        <g id="编组" transform="translate(1.000000, 1.000000)" fill="#000000" fill-rule="nonzero">
            <path d="M8.87755556,17.1111111 L12.8224444,21.056 L11.7226667,22.1557778 L6.678,17.1111111 L6.22222223,17.1111111 L6.22222223,15.5555556 L21.7777778,15.5555556 L21.7777778,17.1111111 L8.87755556,17.1111111 Z M19.1224444,10.8888889 L15.5555556,7.322 L16.6553333,6.22222223 L21.322,10.8888889 L21.7777778,10.8888889 L21.7777778,11.3446667 L22.1557778,11.7226667 L21.7777778,12.0991111 L21.7777778,12.4444444 L21.4324444,12.4444444 L21.056,12.8224444 L20.678,12.4444444 L6.22222223,12.4444444 L6.22222223,10.8888889 L19.1224444,10.8888889 L19.1224444,10.8888889 Z M14,28 C6.2680135,28 0,21.7319865 0,14 C0,6.2680135 6.2680135,0 14,0 C21.7319865,0 28,6.2680135 28,14 C28,21.7319865 21.7319865,28 14,28 Z M14,26.4444444 C20.8728769,26.4444444 26.4444444,20.8728769 26.4444444,14 C26.4444444,7.12712311 20.8728769,1.55555556 14,1.55555556 C7.12712311,1.55555556 1.55555556,7.12712311 1.55555556,14 C1.55555556,20.8728769 7.12712311,26.4444444 14,26.4444444 Z" id="形状" fill="#666666"></path>
        </g>
    </g>
</svg>