<!--?xml version="1.0" encoding="UTF-8"?-->
<svg width="32px" height="32px" viewBox="0 0 32 32" version="1.1" xmlns="http://www.w3.org/2000/svg" xmlns:xlink="http://www.w3.org/1999/xlink">
    <title>798.系统集成</title>
    <g id="798.系统集成" stroke="none" stroke-width="1" fill="none" fill-rule="evenodd">
        <g id="编组" transform="translate(2.000000, 6.000000)" fill="#000000" fill-rule="nonzero">
            <path d="M1.47368421,-1.09074543e-15 L26.5263158,-1.09074543e-15 C27.3402091,-1.09074543e-15 28,0.659790895 28,1.47368421 L28,4.42105263 C28,5.23494595 27.3402091,5.89473684 26.5263158,5.89473684 L1.47368421,5.89473684 C0.659790895,5.89473684 1.09074543e-15,5.23494595 1.09074543e-15,4.42105263 L1.09074543e-15,1.47368421 C1.09074543e-15,0.659790895 0.659790895,-1.09074543e-15 1.47368421,-1.09074543e-15 Z M21.3684211,1.47368421 C20.9614744,1.47368421 20.6315789,1.80357966 20.6315789,2.21052632 L20.6315789,3.68421053 C20.6315789,4.09115718 20.9614744,4.42105263 21.3684211,4.42105263 L24.3157895,4.42105263 C24.7227361,4.42105263 25.0526316,4.09115718 25.0526316,3.68421053 L25.0526316,2.21052632 C25.0526316,1.80357966 24.7227361,1.47368421 24.3157895,1.47368421 L21.3684211,1.47368421 L21.3684211,1.47368421 Z M1.47368421,7.36842105 L26.5263158,7.36842105 C27.3402091,7.36842105 28,8.02821195 28,8.84210526 L28,11.7894737 C28,12.603367 27.3402091,13.2631579 26.5263158,13.2631579 L1.47368421,13.2631579 C0.659790895,13.2631579 1.09074543e-15,12.603367 1.09074543e-15,11.7894737 L1.09074543e-15,8.84210526 C1.09074543e-15,8.02821195 0.659790895,7.36842105 1.47368421,7.36842105 Z M21.3684211,8.84210526 C20.9614744,8.84210526 20.6315789,9.17200071 20.6315789,9.57894737 L20.6315789,11.0526316 C20.6315789,11.4595782 20.9614744,11.7894737 21.3684211,11.7894737 L24.3157895,11.7894737 C24.7227361,11.7894737 25.0526316,11.4595782 25.0526316,11.0526316 L25.0526316,9.57894737 C25.0526316,9.17200071 24.7227361,8.84210526 24.3157895,8.84210526 L21.3684211,8.84210526 Z M1.47368421,14.7368421 L26.5263158,14.7368421 C26.9171611,14.7368421 27.2919985,14.8921048 27.5683679,15.1684742 C27.8447373,15.4448436 28,15.819681 28,16.2105263 L28,19.1578947 C28,19.9717881 27.3402091,20.6315789 26.5263158,20.6315789 L1.47368421,20.6315789 C0.659790895,20.6315789 1.09074543e-15,19.9717881 1.09074543e-15,19.1578947 L1.09074543e-15,16.2105263 C1.09074543e-15,15.396633 0.659790895,14.7368421 1.47368421,14.7368421 L1.47368421,14.7368421 Z M21.3684211,16.2105263 C20.9614744,16.2105263 20.6315789,16.5404218 20.6315789,16.9473684 L20.6315789,18.4210526 C20.6315789,18.8279993 20.9614744,19.1578947 21.3684211,19.1578947 L24.3157895,19.1578947 C24.5112122,19.1578947 24.6986308,19.0802634 24.8368155,18.9420787 C24.9750002,18.803894 25.0526316,18.6164753 25.0526316,18.4210526 L25.0526316,16.9473684 C25.0526316,16.5404218 24.7227361,16.2105263 24.3157895,16.2105263 L21.3684211,16.2105263 L21.3684211,16.2105263 Z" id="形状" fill="#666666"></path>
        </g>
    </g>
</svg>
