<!--?xml version="1.0" encoding="UTF-8"?-->
<svg width="32px" height="32px" viewBox="0 0 32 32" version="1.1" xmlns="http://www.w3.org/2000/svg" xmlns:xlink="http://www.w3.org/1999/xlink">
    <title>394.标签管理@1x</title>
    <g id="394.标签管理" stroke="none" stroke-width="1" fill="none" fill-rule="evenodd">
        <g id="编组" transform="translate(4.000000, 2.000000)" fill="#000000" fill-rule="nonzero">
            <path d="M17.404471,0 C18.2157524,0.053108544 18.8734313,0.762992608 18.9837656,1.67395744 L18.9988874,1.87207587 L19,16.0828097 C18.5325556,15.9519534 18.0424743,15.8823529 17.5374345,15.8823529 C14.8472385,15.8823529 12.5814685,17.857179 11.9006418,20.5456379 L10.547301,18.9936752 L10.4928401,18.93449 C9.95231059,18.3772417 9.12254909,18.3569549 8.56117949,18.8576554 L8.4267513,18.9936752 L1.73846029,26.6557429 L1.72200701,26.6767255 L1.6863065,26.7126449 C1.67885594,26.7211802 1.6738889,26.7268704 1.66643837,26.7325606 C1.65650429,26.7382507 1.64905376,26.7467861 1.6416032,26.7524762 C1.63663619,26.7581666 1.63166915,26.7610116 1.62670214,26.7667017 C1.61676806,26.7752371 1.60931754,26.7837724 1.59938346,26.7894626 C1.59441642,26.7923077 1.58944941,26.7979979 1.58448237,26.8008429 C1.57703184,26.8065332 1.56709776,26.8150684 1.55716371,26.8207588 C1.55219667,26.8264489 1.54722966,26.8292939 1.54226262,26.8321391 C1.53232858,26.8378293 1.52487802,26.8435194 1.51494397,26.8492098 C1.50997693,26.8548999 1.50500989,26.8577449 1.50004288,26.8605901 C1.4901088,26.8634353 1.48265827,26.8691254 1.47272422,26.8748156 C1.46775718,26.8805058 1.46030666,26.8833509 1.45533962,26.886196 C1.44788906,26.8890411 1.43795501,26.8947313 1.43050445,26.8975765 L1.41932864,26.9032666 L1.40815283,26.9089568 L1.38580118,26.9174921 C1.37835066,26.9203371 1.36841661,26.9260275 1.36096605,26.9288725 C1.35351552,26.9317176 1.34854848,26.9345626 1.34109795,26.9374078 C1.33364739,26.943098 1.32371334,26.9459431 1.31377926,26.9487881 L1.30508698,26.9516333 L1.29639466,26.9544785 L1.26659251,26.9630137 L1.2492079,26.9687038 L1.23306502,26.9729716 L1.21692221,26.9772392 L1.1995376,26.9800843 L1.1672519,26.9857745 C1.15980138,26.9857745 1.15483434,26.9886197 1.14738378,26.9886197 C1.13744973,26.9886197 1.12751568,26.9914647 1.1175816,26.9914647 C1.11013107,26.9943098 1.10019702,26.9943098 1.09274646,26.9943098 C1.08281242,26.9971548 1.07536186,26.9971548 1.0679113,26.9971548 L1.04400749,26.9996444 L1.01824102,27 L0.96857072,26.9971548 L0.955221856,26.9957324 L0.931318016,26.9928872 C0.908966368,26.9914647 0.89903232,26.9914647 0.889098272,26.9886197 L0.879164192,26.9871971 L0.869230144,26.9857745 L0.836944448,26.9800843 L0.81955984,26.9772392 L0.803416992,26.9729716 L0.787274176,26.9687038 L0.769889568,26.9630137 L0.740087392,26.9544785 L0.709974752,26.943098 L0.695384096,26.9374078 C0.687933568,26.9345626 0.682966528,26.9317176 0.675516,26.9288725 L0.663098432,26.9231823 L0.628329216,26.9089568 C0.620878656,26.9061116 0.613428128,26.9004215 0.605977568,26.8975765 C0.59852704,26.8947313 0.588592992,26.8918861 0.581142432,26.886196 C0.576175424,26.8805058 0.568724864,26.8776606 0.563757824,26.8748156 C0.553823776,26.8719704 0.546373216,26.8662803 0.536439168,26.8605901 C0.531472128,26.8548999 0.52650512,26.8520548 0.52153808,26.8492098 C0.511604032,26.8435194 0.504153472,26.8378293 0.494219424,26.8321391 L0.486768896,26.825382 L0.45199968,26.8008429 C0.44703264,26.7979979 0.442065632,26.7923077 0.437098592,26.7894626 C0.427164512,26.7809272 0.419713984,26.7752371 0.409779936,26.7667017 C0.404812896,26.7610116 0.399845856,26.7581666 0.394878848,26.7524762 L0.383703008,26.7435853 L0.352659104,26.7126449 C0.347692064,26.7069547 0.340241536,26.7012645 0.335274496,26.6955744 C0.322856896,26.6813489 0.310439328,26.6699684 0.29802176,26.6557429 C0.285604192,26.6415173 0.275670144,26.6272918 0.263252576,26.6130663 L0.255802016,26.6031086 L0.239659168,26.5817703 L0.23096688,26.5703898 L0.213582272,26.544784 C0.208615232,26.5390938 0.206131712,26.5334036 0.201164704,26.5277135 C0.193714144,26.516333 0.186263616,26.5077976 0.181296576,26.4964173 L0.176329536,26.4878819 L0.15397792,26.4480506 L0.148079552,26.4395153 L0.136593312,26.415332 L0.129142752,26.3996839 L0.123244416,26.3911486 L0.119208704,26.3826132 L0.106791136,26.3513172 C0.101824096,26.345627 0.099340576,26.3370917 0.096857056,26.3314015 C0.094373536,26.3228662 0.089406528,26.3114857 0.086923008,26.3029505 L0.081955968,26.2901474 L0.07698896,26.2773445 L0.0695384,26.2517387 L0.059604352,26.2232877 C0.057120832,26.2147523 0.054637312,26.2090622 0.052153792,26.2005268 C0.047186784,26.1919916 0.044703264,26.1806111 0.042219744,26.1692308 L0.039736224,26.1592729 L0.037252736,26.1493151 L0.029802176,26.1151738 C0.029802176,26.1094836 0.029802176,26.1037934 0.027318656,26.0981033 C0.024835136,26.0867229 0.022351648,26.0724974 0.019868128,26.0611169 C0.019868128,26.0525816 0.017384608,26.0468914 0.017384608,26.0412013 C0.014901088,26.0298209 0.014901088,26.0155954 0.012417568,26.0042149 C0.012417568,25.9956797 0.00993408,25.9899894 0.00993408,25.9814542 L0.00745056,25.9473129 C0.00496704,25.9387777 0.00496704,25.9273972 0.00496704,25.918862 C0.00248352,25.9074815 0.00248352,25.8989462 0.00248352,25.890411 L0.000310432,25.86196 L0,1.84931507 C0.034769216,0.919915712 0.642844,0.159047424 1.4284632,0.020091904 L1.59938346,0 L17.404471,0 Z M20.2773643,17 C20.7535038,17.1209237 21.209898,17.3093348 21.6326797,17.5595088 C21.3993717,18.0773517 21.5105075,18.6855073 21.9118838,19.0873665 C22.3132602,19.4892255 22.9212818,19.6010922 23.4394047,19.3684067 C23.6900545,19.7903063 23.8788448,20.246001 24,20.7215493 C23.4693198,20.923427 23.118348,21.431947 23.1178228,21.9997283 C23.118348,22.5675098 23.4693198,23.0760298 24,23.2779075 C23.8787127,23.7538412 23.6893512,24.2097723 23.437775,24.6315933 C22.9197242,24.4007917 22.313051,24.5126268 21.9113477,24.9129773 C21.5106537,25.3145538 21.3991693,25.9216687 21.63105,26.4394047 C21.2089812,26.6901022 20.7531003,26.878894 20.2773643,27 C20.0753808,26.469719 19.5671743,26.1190305 18.9997283,26.118366 C18.4325982,26.1194058 17.9245925,26.469375 17.7215492,26.9989137 C17.2453075,26.8780398 16.7888813,26.6894325 16.3662338,26.4388615 C16.5988142,25.9211252 16.4873443,25.3135333 16.086127,24.9120747 C15.6849097,24.510616 15.0773848,24.398781 14.559509,24.63105 C14.3088243,24.209103 14.120377,23.7531705 14,23.2773643 C14.5300673,23.0752043 14.8805123,22.5670375 14.8810908,21.9997283 C14.8799645,21.4324618 14.5297523,20.9244167 14,20.7215493 C14.1206952,20.2458482 14.3095122,19.7900892 14.5605953,19.3684067 C15.0786867,19.5994725 15.6856168,19.4870437 16.0865657,19.0857333 C16.4875145,18.684423 16.5993962,18.0773917 16.3678635,17.5595088 C16.7899933,17.3091897 17.2458717,17.1207648 17.7215492,17 C17.9236035,17.5304663 18.4320838,17.8811947 18.9997283,17.881634 C19.5669328,17.880197 20.0747443,17.5297812 20.2773643,17 Z M18.9522282,20.334021 C18.0321358,20.360408 17.3076447,21.1276808 17.3340318,22.0477727 C17.360419,22.9678645 18.1276922,23.6923553 19.0477845,23.6659682 C19.6429798,23.6488987 20.1838567,23.315593 20.4666717,22.7916043 C20.7494868,22.2676155 20.7312738,21.63255 20.4188935,21.1256307 C20.1065133,20.6187113 19.5474237,20.3169515 18.9522282,20.334021 Z M9.49944371,9.52941181 L3.65363219,9.52941181 C3.25006314,9.52941181 2.92290576,9.8849504 2.92290576,10.3235294 C2.92290576,10.7255602 3.19780883,11.057814 3.55447693,11.1103977 L3.65363219,11.1176471 L9.49944371,11.1176471 C9.9030128,11.1176471 10.2301701,10.7621085 10.2301701,10.3235294 C10.2301701,9.8849504 9.9030128,9.52941181 9.49944371,9.52941181 Z M15.3452552,4.76470589 L3.65363219,4.76470589 C3.25006314,4.76470589 2.92290576,5.12024448 2.92290576,5.55882352 C2.92290576,5.96085434 3.19780883,6.2931081 3.55447693,6.34569181 L3.65363219,6.35294118 L15.3452552,6.35294118 C15.7488243,6.35294118 16.0759816,5.99740259 16.0759816,5.55882352 C16.0759816,5.12024448 15.7488243,4.76470589 15.3452552,4.76470589 Z" id="形状" fill="#666666"></path>
        </g>
    </g>
</svg>