<!--?xml version="1.0" encoding="UTF-8"?-->
<svg width="32px" height="32px" viewBox="0 0 32 32" version="1.1" xmlns="http://www.w3.org/2000/svg" xmlns:xlink="http://www.w3.org/1999/xlink">
    <title>253.人才库管理</title>
    <g id="253.人才库管理" stroke="none" stroke-width="1" fill="none" fill-rule="evenodd">
        <g id="人才库管理" transform="translate(4.000000, 6.000000)" fill="#000000" fill-rule="nonzero">
            <path d="M10.2127743,0.988564905 C10.9017455,2.03051168 11.2776571,2.68121112 11.2776571,2.68121112 C11.2776572,2.68121112 11.5249044,2.88646395 11.9325827,2.9320757 L12.0928127,2.94098424 L20.9337704,2.94042107 L20.944268,2.93990347 L21.0508551,2.93992419 C21.4032688,2.95264525 22.3816804,3.10132228 22.4836949,4.35195728 L22.4923249,4.57076542 L22.4923249,9.7281281 C21.6851232,9.38063761 20.7944105,9.18798852 19.8583142,9.18798852 C16.2024996,9.18798852 13.2388762,12.1262761 13.2388762,15.7508375 C13.2388762,17.892516 14.273591,19.79459 15.8744271,20.9924719 L1.56718469,20.9912744 C1.56718469,20.9912744 1.53009156,20.9974221 1.46731855,21 L1.35532584,21 C0.948728103,20.9837247 0.0914845,20.7773091 0.00677663649,19.3393031 L0,19.1018629 L0.0011245631,1.86482004 C0.0129568616,1.6117004 0.14928538,0.148008549 1.72002744,0.0212094772 L1.94323351,0.0124444512 L8.77184274,0.0124444512 C8.77184271,0.0124444512 9.58703263,-0.184499374 10.2127743,0.988564905 Z M22.1277403,12.3474842 C23.3759134,13.5849868 23.6879568,15.1318651 23.0638701,16.9881192 L24,17.916246 L22.1277403,19.7725001 L21.1916103,18.8443731 C19.3193505,19.4631244 17.7591339,19.1537488 16.5109608,17.916246 C15.2627875,16.6787434 15.2627875,15.4412408 16.5109608,14.2037381 L18.3832205,16.0599921 C18.9002308,16.5725825 19.7384701,16.5725825 20.2554804,16.0599921 C20.7724907,15.5474017 20.7724907,14.7163285 20.2554804,14.2037381 L18.3832205,12.3474842 C19.6313938,11.1099814 20.879567,11.1099814 22.1277403,12.3474842 Z M6.79242608,4.62266446 C5.97338092,4.72143334 5.01665148,5.31542462 4.94251377,6.21674786 L4.94251377,7.33122806 C4.78452984,7.33122806 4.57932726,7.41483702 4.64684553,8.06992718 C4.7139225,8.72547678 5.14462728,8.90693582 5.46765585,9.22759009 C5.79068443,9.54778492 5.71963581,10.059086 6.22447829,10.3200196 C6.22447829,10.3200196 6.23021512,10.3246135 6.2416888,10.3315043 C6.22138921,10.3544738 6.23374548,10.3811184 6.28846618,10.4105194 L6.28846618,11.0417212 C6.28846618,11.0417212 5.01091463,11.4910047 4.40854576,11.6958926 C3.8061769,11.9007806 3.30971904,12.7070102 3.30971904,13.7819828 L11.2530447,13.7819828 C11.2530447,12.7070102 10.7565869,11.9007806 10.1806958,11.6958926 C9.69085735,11.552563 8.2742976,11.0417212 8.2742976,11.0417212 L8.2742976,10.41006 C8.35328955,10.3673367 8.34446364,10.3315043 8.27518021,10.3021033 C8.74516029,10.0356571 8.69705905,9.54043469 8.99978801,9.22713069 C9.30869513,8.90647645 9.75352137,8.72455798 9.82059833,8.06946781 C9.8876753,7.41391825 9.50418919,7.33076866 9.50418919,7.33076866 L9.50418919,6.07571513 C9.35635509,5.00212061 7.61764934,4.45912162 6.79242608,4.62266446 Z" id="形状" fill="#666666"></path>
        </g>
    </g>
</svg>