<!--?xml version="1.0" encoding="UTF-8"?-->
<svg width="32px" height="32px" viewBox="0 0 32 32" version="1.1" xmlns="http://www.w3.org/2000/svg" xmlns:xlink="http://www.w3.org/1999/xlink">
    <title>1807.税务风险管控</title>
    <g id="1807.税务风险管控" stroke="none" stroke-width="1" fill="none" fill-rule="evenodd">
        <path d="M23.8125,1 C23.812879,3.9388764 25.7405784,6.50562386 28.5,7.24144446 L28.5,17.1111111 C28.5,17.1111111 27.1875,27.0548889 16,30 C5.29778343,27.0891344 3.54011881,17.3414155 3.50068992,17.1151179 L3.5,7.24144446 C6.19531249,6.52611111 8.18750001,4.00311111 8.18750001,1 L23.8125,1 Z M21.5071329,3.60399209 L10.4810316,3.60399209 C9.69338704,5.89719091 8.13879152,7.82580955 6.0963253,9.04362336 L6.0963253,16.8628807 C6.16890884,17.1656495 6.30747745,17.6470177 6.53347621,18.2542561 C7.04815957,19.6371267 7.78884171,21.0268011 8.79346407,22.3161196 C10.5387685,24.5613708 12.8927851,26.2759262 16.0089289,27.2828874 C19.2454955,26.2759262 21.6292053,24.5630717 23.3464661,22.3297272 C24.2714181,21.1283724 24.9976711,19.7778032 25.495929,18.3324997 C25.6582121,17.8749824 25.7904804,17.4067329 25.8918393,16.9309186 L25.8918393,9.04362336 C23.8493731,7.82580955 22.2947775,5.89719091 21.5071329,3.60399209 Z M22.2357796,11.079198 C22.4515954,11.2056683 22.5245165,11.4778395 22.4027562,11.6918979 L20.8531429,14.4138142 L22.4027562,17.1376 C22.5245165,17.3516585 22.4515954,17.6238296 22.2391247,17.7483397 C22.0249916,17.8738239 21.7539782,17.8030825 21.6304542,17.5922945 L20.3381429,15.3208142 L19.0493141,17.587355 C18.9229381,17.8030825 18.6519247,17.8738239 18.4411367,17.7502999 C18.2253209,17.6238296 18.1523999,17.3516585 18.2741602,17.1376 L19.8231429,14.4138142 L18.2741602,11.6918979 C18.1523999,11.4778395 18.2253209,11.2056683 18.4377917,11.0811583 C18.6519247,10.955674 18.9229381,11.0264155 19.0464621,11.2372035 L20.3381429,13.5078142 L21.6276022,11.242143 C21.7539782,11.0264155 22.0249916,10.955674 22.2357796,11.079198 Z M15.1341423,11.2670869 C15.2766222,10.86939 15.8307637,10.86939 15.9732436,11.2670869 L17.7589579,17.1577119 C17.8432166,17.3928989 17.7236825,17.6528855 17.4919711,17.7384081 C17.2602597,17.8239307 17.0041153,17.7026036 16.9198566,17.4674165 L16.377,15.593 L14.729,15.593 L14.1875293,17.4674165 C14.1126327,17.6764717 13.9019251,17.7955634 13.6932875,17.7593821 L13.6154148,17.7384081 C13.3837034,17.6528855 13.2641693,17.3928989 13.348428,17.1577119 Z M12.9494048,10.9688142 C13.1548678,10.9688142 13.3214286,11.1926718 13.3214286,11.4688142 C13.3214286,11.7449566 13.1548678,11.9688142 12.9494048,11.9688142 L11.6421429,11.9688142 L11.6428571,17.3125642 C11.6428571,17.5350122 11.465982,17.7200218 11.2327328,17.7583887 L11.1428571,17.7656892 C10.8667148,17.7656892 10.6428571,17.5628182 10.6428571,17.3125642 L10.6421429,11.9688142 L9.22916667,11.9688142 C9.04653282,11.9688142 8.89463663,11.791939 8.86313666,11.5586898 L8.85714286,11.4688142 C8.85714286,11.1926718 9.02370359,10.9688142 9.22916667,10.9688142 L12.9494048,10.9688142 Z M15.5536929,12.7478622 L15.019,14.593 L16.087,14.593 L15.5536929,12.7478622 Z" id="形状结合" fill="#666666" fill-rule="nonzero"></path>
    </g>
</svg>