<!--?xml version="1.0" encoding="UTF-8"?-->
<svg width="32px" height="32px" viewBox="0 0 32 32" version="1.1" xmlns="http://www.w3.org/2000/svg" xmlns:xlink="http://www.w3.org/1999/xlink">
    <title>1808.税务统计分析</title>
    <g id="1808.税务统计分析" stroke="none" stroke-width="1" fill="none" fill-rule="evenodd">
        <path d="M24,20 C27.3137085,20 30,22.6862915 30,26 C30,29.3137085 27.3137085,32 24,32 C20.6862915,32 18,29.3137085 18,26 C18,22.6862915 20.6862915,20 24,20 Z M27,2 C27.5522847,2 28,2.44771525 28,3 L28.0013298,20.255617 C26.8672447,19.4641776 25.4878296,19 24,19 C20.1340068,19 17,22.1340068 17,26 C17,27.0596738 17.2354627,28.0643523 17.6569218,28.9645693 L16.1230284,30 L13.1215541,27.9816034 L10.1095198,30 L7.07017511,27.9816034 L4,30 L4,3 C4,2.44771525 4.44771525,2 5,2 L27,2 Z M24,22 C23.7238576,22 23.5,22.2238576 23.5,22.5 L23.5,29.5 C23.5,29.7761424 23.7238576,30 24,30 C24.2761424,30 24.5,29.7761424 24.5,29.5 L24.5,22.5 C24.5,22.2238576 24.2761424,22 24,22 Z M22,23 C21.7238576,23 21.5,23.2238576 21.5,23.5 L21.5,28.5 C21.5,28.7761424 21.7238576,29 22,29 C22.2761424,29 22.5,28.7761424 22.5,28.5 L22.5,23.5 C22.5,23.2238576 22.2761424,23 22,23 Z M26,23 C25.7238576,23 25.5,23.2238576 25.5,23.5 L25.5,28.5 C25.5,28.7761424 25.7238576,29 26,29 C26.2761424,29 26.5,28.7761424 26.5,28.5 L26.5,23.5 C26.5,23.2238576 26.2761424,23 26,23 Z M22.0483528,9.39557638 L17.5592036,15.3116763 L13.7016465,11.5203566 C13.2596301,11.0851982 12.5321756,11.1532487 12.1785366,11.6628375 L8.17853658,17.426782 C7.86366117,17.8805131 7.97622594,18.5035918 8.42995705,18.8184673 C8.88368815,19.1333427 9.50676685,19.0207779 9.82164227,18.5670468 L13.144677,13.7785998 L16.9666802,17.5349171 C17.3964924,17.9580608 18.1002683,17.9072639 18.4648589,17.426782 L23.6415961,10.6045328 C23.9754402,10.1645708 23.8894147,9.53727703 23.4494527,9.20343293 C23.0094907,8.86958883 22.3821969,8.95561438 22.0483528,9.39557638 Z" id="形状结合" fill="#666666"></path>
    </g>
</svg>