<!--?xml version="1.0" encoding="UTF-8"?-->
<svg width="32px" height="32px" viewBox="0 0 32 32" version="1.1" xmlns="http://www.w3.org/2000/svg" xmlns:xlink="http://www.w3.org/1999/xlink">
    <title>1800.税务服务管理</title>
    <g id="1800.税务服务管理" stroke="none" stroke-width="1" fill="none" fill-rule="evenodd">
        <path d="M10,4 L10,5 C10,6.0543618 10.8158778,6.91816512 11.8507377,6.99451426 L12,7 L20,7 C21.1045695,7 22,6.1045695 22,5 L22,4 L26.9993054,4 C27.5519738,4 28,4.45127869 28,5.00329963 L28,28.9967004 C28,29.5508075 27.5525308,30 26.9993054,30 L5.00069463,30 C4.44802625,30 4,29.5487213 4,28.9967004 L4,5.00329963 C4,4.44919255 4.44746922,4 5.00069463,4 L10,4 Z M17.663231,10 L14.336769,10 C14.336769,11.3156238 13.2427579,12.3822658 11.8933764,12.3822658 C11.4517468,12.3822658 11.037458,12.2680489 10.6801291,12.0681229 L9,14.9318771 C9.73497342,15.3426509 10.2299555,16.1149574 10.2299555,17 C10.2299555,17.8850426 9.73497342,18.6573491 9,19.0681229 L10.6801291,21.9318771 C11.037458,21.7319511 11.4517468,21.6177342 11.8933764,21.6177342 C13.2427579,21.6177342 14.3365791,22.684191 14.3365791,24 L17.6634209,24 C17.6634209,22.684191 18.7572421,21.6177342 20.1066236,21.6177342 C20.5482532,21.6177342 20.9623522,21.7319511 21.3200608,21.9318771 L23,19.0681229 C22.2650266,18.6573491 21.7698546,17.8850426 21.7698546,17 C21.7698546,16.1149574 22.2650266,15.3426509 23,14.9318771 L21.3200608,12.0681229 C20.9623522,12.2680489 20.5482532,12.3822658 20.1066236,12.3822658 C18.7572421,12.3822658 17.663231,11.3156238 17.663231,10 Z M16,15 C17.1045695,15 18,15.8954305 18,17 C18,18.1045695 17.1045695,19 16,19 C14.8954305,19 14,18.1045695 14,17 C14,15.8954305 14.8954305,15 16,15 Z M21,2 L21,4 C21,5.1045695 20.1045695,6 19,6 L13,6 C11.8954305,6 11,5.1045695 11,4 L11,2 L21,2 Z" id="形状结合" fill="#666666"></path>
    </g>
</svg>