<!--?xml version="1.0" encoding="UTF-8"?-->
<svg width="32px" height="32px" viewBox="0 0 32 32" version="1.1" xmlns="http://www.w3.org/2000/svg" xmlns:xlink="http://www.w3.org/1999/xlink">
    <title>1998.劳动合同终止</title>
    <g id="1998.劳动合同终止" stroke="none" stroke-width="1" fill="none" fill-rule="evenodd">
        <path d="M23.4444444,19.5925926 C26.5126931,19.5925926 29,22.0798995 29,25.1481481 C29,28.2163968 26.5126931,30.7037037 23.4444444,30.7037037 C20.3761958,30.7037037 17.8888889,28.2163968 17.8888889,25.1481481 C17.8888889,22.0798995 20.3761958,19.5925926 23.4444444,19.5925926 Z M26.0740741,2 C27.1786436,2 28.0740741,2.8954305 28.0740741,4 L28.075654,20.6136659 C26.8991376,19.4122109 25.2588566,18.6666667 23.4444444,18.6666667 C19.8648211,18.6666667 16.962963,21.5685248 16.962963,25.1481481 C16.962963,26.9620583 17.7080947,28.6019336 18.9089649,29.7783809 L6,29.7777778 C4.8954305,29.7777778 4,28.8823473 4,27.7777778 L4,4 C4,2.8954305 4.8954305,2 6,2 L26.0740741,2 Z M26.6714351,23.3291418 L21.6254381,28.3751388 C22.1627163,28.6786461 22.7833532,28.8518519 23.4444444,28.8518519 C25.4899435,28.8518519 27.1481481,27.1936472 27.1481481,25.1481481 C27.1481481,24.4870569 26.9749424,23.86642 26.6714351,23.3291418 Z M23.4444444,21.4444444 C21.3989454,21.4444444 19.7407407,23.1026491 19.7407407,25.1481481 C19.7407407,25.8606066 19.9419086,26.5260797 20.2905417,27.090865 L25.3881544,21.9948586 C24.8231562,21.6458482 24.1573205,21.4444444 23.4444444,21.4444444 Z M13.2592593,21.4444444 L10.4814815,21.4444444 C9.97010671,21.4444444 9.55555556,21.8589956 9.55555556,22.3703704 C9.55555556,22.8817451 9.97010671,23.2962963 10.4814815,23.2962963 L13.2592593,23.2962963 C13.770634,23.2962963 14.1851852,22.8817451 14.1851852,22.3703704 C14.1851852,21.8589956 13.770634,21.4444444 13.2592593,21.4444444 Z M17.8888889,16.8148148 L10.4814815,16.8148148 C9.97010671,16.8148148 9.55555556,17.229366 9.55555556,17.7407407 C9.55555556,18.2521155 9.97010671,18.6666667 10.4814815,18.6666667 L17.8888889,18.6666667 C18.4002637,18.6666667 18.8148148,18.2521155 18.8148148,17.7407407 C18.8148148,17.229366 18.4002637,16.8148148 17.8888889,16.8148148 Z M15.5679339,3.88247406 C14.6920001,3.98767033 13.6686794,4.62258773 13.5898277,5.58509968 L13.5898277,6.77577072 C13.4206458,6.77577072 13.2013628,6.86527074 13.2733182,7.56518581 C13.3451002,8.26551972 13.8055398,8.45911899 14.1510744,8.80146278 C14.4966089,9.14380658 14.4208957,9.68973481 14.9605385,9.96895546 C14.9605385,9.96895546 14.9770055,9.9801545 15.0070793,9.99862589 L15.0082305,10.1519014 C15.0082305,10.1519014 14.4688166,10.3560595 13.8762686,10.583591 L13.5507139,10.7089305 C13.1715722,10.8553288 12.8067177,10.9978815 12.581465,11.09 C12.2676363,11.2183423 11.9739778,11.7783761 11.7004893,12.7701016 C11.5527297,13.3022535 11.8646422,13.8532603 12.3968747,14.0007291 C12.4825008,14.0244541 12.570907,14.0366613 12.6597584,14.037037 L19.4143157,14.037037 C19.9665997,14.0361303 20.4135804,13.5876817 20.412675,13.0353977 C20.4125324,12.9484315 20.4010459,12.8618554 20.3777814,12.7780553 C20.10735,11.78137 19.8217014,11.218685 19.5208355,11.09 C19.3215276,11.0199615 18.9177933,10.8671408 18.4943106,10.7047743 L18.1758814,10.582354 C17.5958863,10.3588312 17.0658436,10.1518768 17.0658436,10.1518768 L17.0683293,10.0009238 C17.1010851,9.98108736 17.1191094,9.96895546 17.1191094,9.96895546 C17.6587522,9.68973481 17.5977635,9.14402598 17.9285736,8.80146278 C18.2594125,8.45912896 18.734567,8.26491142 18.8063393,7.56499634 C18.878314,6.86466243 18.4682163,6.77577072 18.4682163,6.77577072 L18.4682163,5.43479617 C18.3099567,4.2878098 16.4504326,3.70778851 15.5679339,3.88247406 Z" id="形状结合" fill="#666666"></path>
    </g>
</svg>