<!--?xml version="1.0" encoding="UTF-8"?-->
<svg width="32px" height="32px" viewBox="0 0 32 32" version="1.1" xmlns="http://www.w3.org/2000/svg" xmlns:xlink="http://www.w3.org/1999/xlink">
    <title>1935我交付的招聘</title>
    <g id="1935我交付的招聘" stroke="none" stroke-width="1" fill="none" fill-rule="evenodd">
        <g id="yxy_lssy_48_48" transform="translate(2.052926, 2.000000)">
            <g id="编组-10" transform="translate(-0.000000, 0.000000)" fill="#999999">
                <path d="M5.97677452,16.8571429 C6.32959403,16.8571429 7.06791907,17.1902903 7.93583242,17.64869 C9.04183882,18.8249089 10.095467,19.6805234 11.1017528,20.2167671 C11.8490417,20.614993 12.7423018,20.7796076 13.918944,20.8109181 C14.0527195,20.8144779 14.1776917,20.8164652 14.3134378,20.8170147 L15.6122882,20.8034216 C16.9871287,20.7971508 17.4716804,20.8968637 17.60533,21.1817481 C18.1291545,22.2983201 17.4721143,22.8571429 14.6974441,22.8571429 C12.5748556,22.8571429 11.2343199,22.5917259 10.7250562,22.1329025 L10.0556998,22.8758439 C10.80846,23.5540467 12.3393017,23.8571429 14.6974441,23.8571429 C18.0907437,23.8571429 19.4304702,22.717685 18.5106544,20.7570274 C18.3306072,20.3732431 18.0953955,20.1363877 17.7000223,19.9945644 C18.5102496,19.9104179 19.1339871,19.807626 19.5703134,19.6872591 C21.2161779,19.2332236 22.9851049,18.4992948 24.9765406,17.9920635 C26.5067538,17.6023085 27.4457721,17.6141031 27.7935955,18.0274472 C28.1209859,18.4165093 27.924601,19.1613285 27.2044408,20.2619048 L16.5204208,27.0714286 L14.7631464,27.0714286 L13.3953055,26.5207762 C10.5832164,25.4043204 8.76250172,24.7894738 8.05392053,24.7454611 L7.97710354,24.7429199 C7.23447014,24.7429199 6.71940792,24.4249048 5.97677452,25.1815186 L2.90154435,19.3853167 C5.12944455,17.8720892 4.89299979,16.8571429 5.97677452,16.8571429 Z M1.67032604,19.8086077 L5.03691799,25.8464355 L4.02693317,26.4772845 C3.59197348,26.7489657 3.02897686,26.6454626 2.71651224,26.2542486 L2.63646393,26.1382395 L0.13942832,21.9166502 C-0.136792061,21.4496609 0.00976537642,20.8475987 0.469717499,20.5598127 L1.67032604,19.8086077 Z M22.9470742,0 C23.499359,0 23.9470742,0.44771525 23.9470742,1 L23.9470742,16 C23.9470742,16.5522847 23.499359,17 22.9470742,17 L7.94707424,17 C7.39478949,17 6.94707424,16.5522847 6.94707424,16 L6.94707424,1 C6.94707424,0.44771525 7.39478949,0 7.94707424,0 L22.9470742,0 Z M18.7526298,13.2222222 L12.1415187,13.2222222 C11.8807176,13.2222222 11.6692965,13.4336433 11.6692965,13.6944444 C11.6692965,13.9552456 11.8807176,14.1666667 12.1415187,14.1666667 L18.7526298,14.1666667 C19.0134309,14.1666667 19.224852,13.9552456 19.224852,13.6944444 C19.224852,13.4336433 19.0134309,13.2222222 18.7526298,13.2222222 Z M17.8081854,11.3333333 L13.0859631,11.3333333 C12.825162,11.3333333 12.6137409,11.5447544 12.6137409,11.8055556 C12.6137409,12.0663567 12.825162,12.2777778 13.0859631,12.2777778 L17.8081854,12.2777778 C18.0689865,12.2777778 18.2804076,12.0663567 18.2804076,11.8055556 C18.2804076,11.5447544 18.0689865,11.3333333 17.8081854,11.3333333 Z M15.1485443,1.89662993 L15.0400823,1.91246118 C14.3583922,1.9934389 13.5619993,2.48218406 13.5006334,3.22310414 L13.5006334,4.13965598 C13.3689686,4.13965598 13.198313,4.20855108 13.2543118,4.74732998 C13.3101757,5.2864313 13.66851,5.43545967 13.9374201,5.69898823 C14.1764513,5.93323585 14.1564536,6.29130744 14.4440196,6.51894464 L14.5816796,6.6069512 C14.5647574,6.62592744 14.5751845,6.64758356 14.6206853,6.67191956 L14.6206853,7.19087944 L13.0560028,7.72892888 C12.5547131,7.89747505 12.1415187,8.56046194 12.1415187,9.44444444 L18.7526298,9.44444444 C18.7526298,8.56046194 18.3394354,7.89747505 17.8601315,7.72892888 L17.6749538,7.67200602 L16.7028192,7.34223425 C16.4562784,7.25603123 16.2734631,7.19086365 16.2734631,7.19086365 L16.2734631,6.67191956 C16.3392062,6.63675708 16.3317269,6.60718929 16.274326,6.58321617 C16.6653076,6.36435027 16.6254492,5.95688364 16.8772354,5.69898823 C17.1347087,5.43546735 17.5044948,5.28596304 17.5603512,4.74718413 C17.616365,4.20808282 17.297209,4.13965598 17.297209,4.13965598 L17.297209,3.10740388 C17.1802027,2.26862574 15.8682877,1.82373199 15.1485443,1.89662993 L15.1485443,1.89662993 Z" id="形状" fill="#666666"></path>
            </g>
            <g id="1" transform="translate(-0.357125, 16.857143)"></g>
        </g>
    </g>
</svg>