<!--?xml version="1.0" encoding="UTF-8"?-->
<svg width="32px" height="32px" viewBox="0 0 32 32" version="1.1" xmlns="http://www.w3.org/2000/svg" xmlns:xlink="http://www.w3.org/1999/xlink">
    <title>1927我交付的候选人</title>
    <g id="1927我交付的候选人" stroke="none" stroke-width="1" fill="none" fill-rule="evenodd">
        <g id="hr_wjfdhxr_48_48" transform="translate(3.000000, 2.000000)" fill="#999999" fill-rule="nonzero">
            <g id="编组-5">
                <path d="M21,16 C24.3137085,16 27,18.6862915 27,22 C27,25.3137085 24.3137085,28 21,28 C17.6862915,28 15,25.3137085 15,22 C15,18.6862915 17.6862915,16 21,16 Z M17.9413408,4.0906689 L17.9413408,7.5560358 L18.0114043,7.57726413 C18.2521737,7.66411621 19.021987,8.06418398 18.857052,9.5955647 C18.6626767,11.4042959 17.3758544,11.9061959 16.4798703,12.7908602 C15.6311173,13.6295247 14.5832952,15.9515666 14.3787968,16.0570817 L14.3787968,17.7992256 L14.653706,17.89341 C13.8858801,19.089348 13.44,20.5126036 13.44,22.04 C13.44,23.9416774 14.1311754,25.6819222 15.2760186,27.0232267 L0,27.0223389 C0,24.0547268 1.43787968,20.1713862 3.18232279,19.605561 L8.62727806,17.7992786 L8.62727806,16.0570817 C8.46911129,15.9754724 7.18535919,13.6755502 6.24957615,12.7908602 C6.1361479,12.683625 6.01814756,12.5820374 5.89800383,12.4830808 L5.4421613,12.1184338 C4.71191729,11.5358763 4.0138033,10.9122824 3.87242053,9.59605434 C3.67754947,7.78732311 4.27141577,7.5560358 4.72959747,7.5560358 L4.72959747,4.4790855 C4.94314523,1.99174742 7.71452132,0.35098418 10.0867418,0.0791343884 C12.4767411,-0.372290698 17.5127393,1.12660919 17.9413408,4.0906689 Z M23.6280444,19.2296331 L20.1208263,22.9154847 L18.3719556,21.0774517 C18.0504888,20.771768 17.5420828,20.7845627 17.2363991,21.1060295 C16.910302,21.4489636 16.910302,21.987336 17.2363991,22.3302702 L19.4962341,24.7053093 C19.5290007,24.7364672 19.5637094,24.7643162 19.5999478,24.7888669 L19.6373514,24.8218015 C19.9149785,25.0388353 20.3045988,25.0486406 20.5927913,24.8458464 L20.6992748,24.7562578 L24.7636009,20.4824516 C25.089698,20.1395174 25.089698,19.601145 24.7636009,19.2582109 C24.4579172,18.9367441 23.9495112,18.9239494 23.6280444,19.2296331 Z" id="形状" fill="#666666"></path>
            </g>
        </g>
    </g>
</svg>