<!--?xml version="1.0" encoding="UTF-8"?-->
<svg width="32px" height="32px" viewBox="0 0 32 32" version="1.1" xmlns="http://www.w3.org/2000/svg" xmlns:xlink="http://www.w3.org/1999/xlink">
    <title>648.时区@1x</title>
    <g id="648.时区" stroke="none" stroke-width="1" fill="none" fill-rule="evenodd">
        <g id="编组" transform="translate(5.000000, 2.000000)" fill="#000000" fill-rule="nonzero">
            <path d="M11.6874992,10.268498 L14.5021237,13.0831225 L13.257749,14.3274972 L9.88899962,10.9587479 L9.62499965,10.9587479 L9.62499965,6.51062374 C9.62509156,5.9411452 10.0867709,5.47954036 10.6562494,5.47954036 C11.225728,5.47954036 11.6874073,5.9411452 11.6874992,6.51062374 L11.6874992,10.268498 Z M0.24475149,13.0349975 C0.0817700019,12.2902226 -0.000289234135,11.5300221 7.65953429e-07,10.7676229 C7.65953429e-07,4.81937407 4.92525058,0 11.0000008,0 C17.0747482,0 22.0000008,4.82074905 22.0000008,10.7662479 C22.0003871,11.5291068 21.9183273,12.2897735 21.7552473,13.0349975 L21.9958723,12.9497475 C22.0371223,12.9552475 21.5393724,15.625497 17.957498,20.723996 C17.3689982,21.5627458 15.6832485,23.5193704 12.900249,26.5979948 C12.3903228,27.161849 11.6697285,27.4894536 10.9096149,27.5029992 C10.1495012,27.5165447 9.41769208,27.2148225 8.8879998,26.6694948 C7.08613421,24.825197 5.43798383,22.8367477 3.96000076,20.723996 C2.02950112,17.9478715 0.709501398,15.347747 7.65953429e-07,12.9194975 L0.24475149,13.0363725 L0.24475149,13.0349975 Z M10.9999994,17.7649965 C14.7963737,17.7649965 17.8749981,14.7083721 17.8749981,10.9367479 C17.8749981,7.16649863 14.7963737,4.10987421 10.9999994,4.10987421 C7.20362512,4.10987421 4.12500072,7.1664986 4.12500072,10.9367479 C4.12500072,14.7083722 7.20362512,17.7649965 10.9999994,17.7649965 L10.9999994,17.7649965 Z" id="形状" fill="#346bf6"></path>
        </g>
    </g>
</svg>