<!--?xml version="1.0" encoding="UTF-8"?-->
<svg width="32px" height="32px" viewBox="0 0 32 32" version="1.1" xmlns="http://www.w3.org/2000/svg" xmlns:xlink="http://www.w3.org/1999/xlink">
    <title>1362-待发送</title>
    <g id="1362-待发送" stroke="none" stroke-width="1" fill="none" fill-rule="evenodd">
        <g id="编组" transform="translate(4.000000, 4.000000)" fill="#000000" fill-rule="nonzero">
            <path d="M21.8294149,0.26546273 L1.05749587,12.5268449 C0.383998512,12.9256873 0.037499856,13.4574772 0,13.9726486 L0,14.164516 C0.047999808,14.7809087 0.539997888,15.3444247 1.44449436,15.5906796 L5.47497866,16.6905178 C5.68265047,16.7399251 5.90130497,16.7041566 6.08277641,16.5910914 C6.26424785,16.4780261 6.39364893,16.2969395 6.44247487,16.0877219 C6.5575865,15.652524 6.31143235,15.2033321 5.88447705,15.0694651 L1.86749273,13.9741594 L22.3379129,1.89104765 L20.1059216,18.4973947 C20.0729218,18.7436496 19.8914225,18.8675326 19.6664233,18.8040803 L11.0969567,16.436709 L18.0419297,9.21675514 C18.3560237,8.88472702 18.3560237,8.36283144 18.0419297,8.03080332 C17.8928323,7.87409568 17.6866774,7.78548713 17.4711818,7.78548713 C17.2556863,7.78548713 17.0495314,7.87409568 16.9004341,8.03080332 L9.28796378,15.9472206 C9.22265157,16.0153117 9.16106102,16.0869269 9.1034645,16.1617494 C8.86038218,16.3211159 8.71717644,16.59642 8.72546599,16.8884282 C8.64393998,17.1370105 8.60241564,17.3971264 8.60246647,17.6589192 L8.60246647,22.5311417 C8.60246647,23.7034966 9.85796157,24.39996 10.7954579,23.7518411 L14.6924428,21.0521011 C14.9324418,20.8874275 15.0674412,20.6003819 15.0494413,20.2997393 C15.0313508,20.0040793 14.8605157,19.7396773 14.5994431,19.6032758 C14.3425723,19.4703881 14.0338249,19.4913128 13.7969462,19.6576634 L10.2149602,22.1383423 L10.2149602,17.9263249 L19.2494249,20.4190898 C20.4119204,20.7408832 21.533916,19.9688814 21.7004154,18.7240097 L23.9774065,1.785294 C24.1754057,0.357619514 23.0399101,-0.450640654 21.8294149,0.26546273 Z" id="路径" fill="#346bf6"></path>
        </g>
    </g>
</svg>