<!--?xml version="1.0" encoding="UTF-8"?-->
<svg width="32px" height="32px" viewBox="0 0 32 32" version="1.1" xmlns="http://www.w3.org/2000/svg" xmlns:xlink="http://www.w3.org/1999/xlink">
    <title>71.置顶</title>
    <g id="71.置顶" stroke="none" stroke-width="1" fill="none" fill-rule="evenodd">
        <g id="置顶" transform="translate(5.000000, 4.000000)" fill="#000000" fill-rule="nonzero">
            <path d="M10.4017712,3.67962276 C10.706749,3.3706365 11.1866397,3.34686832 11.5185273,3.60831824 L11.5982288,3.67962276 L21.7505094,13.965337 C22.260302,14.48183 21.9371091,15.3490121 21.248415,15.4234429 L21.1522806,15.4285714 L16.0761403,15.4285714 L16.0761403,23.1428571 C16.0761403,23.5486174 15.7978547,23.8885263 15.4241023,23.9773623 L15.3287811,23.9942334 L15.230117,24 L6.76988315,24 C6.33601199,24 5.97842219,23.6691084 5.92955157,23.2428181 L5.92385977,23.1428571 L5.92385977,15.4285714 L0.847719434,15.4285714 C0.159534534,15.4285714 -0.214982825,14.6588935 0.130757529,14.1140344 L0.185092643,14.0378342 L0.249490589,13.965337 L10.4017712,3.67962276 Z M21.1522806,0 C21.6195264,0 21.998304,0.383755941 21.998304,0.857142857 L21.998304,1.71428571 C21.998304,2.18767263 21.6195264,2.57142857 21.1522806,2.57142857 L0.847719434,2.57142857 C0.380473634,2.57142857 0.00169605325,2.18767263 0.00169605325,1.71428571 L0.00169605325,0.857142857 C0.00169605325,0.383755941 0.380473634,0 0.847719434,0 L21.1522806,0 Z" id="形状" fill="#666666"></path>
        </g>
    </g>
</svg>