<!--?xml version="1.0" encoding="UTF-8"?-->
<svg width="32px" height="32px" viewBox="0 0 32 32" version="1.1" xmlns="http://www.w3.org/2000/svg" xmlns:xlink="http://www.w3.org/1999/xlink">
    <title>树状图</title>
    <g id="树状图" stroke="none" stroke-width="1" fill="none" fill-rule="evenodd">
        <g id="视觉修正模版" transform="translate(-2.000000, -0.500000)"></g>
        <path d="M23.5,18 C23.5,17.4871642 23.1139598,17.0644928 22.6166211,17.0067277 L22.5,17 L9.5,17 C8.98716416,17 8.56449284,17.3860402 8.50672773,17.8833789 L8.5,18 L8.5,20 L11,20 C12.6568542,20 14,21.3431458 14,23 L14,26 C14,27.6568542 12.6568542,29 11,29 L5,29 C3.34314575,29 2,27.6568542 2,26 L2,23 C2,21.3431458 3.34314575,20 5,20 L6.5,20 L6.5,18 C6.5,16.4023191 7.74891996,15.0963391 9.32372721,15.0050927 L9.5,15 L15,15 L15,12 L10,12 C8.40231912,12 7.09633912,10.75108 7.00509269,9.17627279 L7,9 L7,6 C7,4.34314575 8.34314575,3 10,3 L22,3 C23.6568542,3 25,4.34314575 25,6 L25,9 C25,10.6568542 23.6568542,12 22,12 L17,12 L17,15 L22.5,15 C24.0976809,15 25.4036609,16.24892 25.4949073,17.8237272 L25.5,18 L25.5,20 L27,20 C28.6568542,20 30,21.3431458 30,23 L30,26 C30,27.6568542 28.6568542,29 27,29 L21,29 C19.3431458,29 18,27.6568542 18,26 L18,23 C18,21.3431458 19.3431458,20 21,20 L23.5,20 L23.5,18 Z M11,22 L5,22 C4.44771525,22 4,22.4477153 4,23 L4,26 C4,26.5522847 4.44771525,27 5,27 L11,27 C11.5522847,27 12,26.5522847 12,26 L12,23 C12,22.4477153 11.5522847,22 11,22 Z M27,22 L21,22 C20.4477153,22 20,22.4477153 20,23 L20,26 C20,26.5522847 20.4477153,27 21,27 L27,27 C27.5522847,27 28,26.5522847 28,26 L28,23 C28,22.4477153 27.5522847,22 27,22 Z M22,5 L10,5 C9.44771525,5 9,5.44771525 9,6 L9,9 C9,9.55228475 9.44771525,10 10,10 L22,10 C22.5522847,10 23,9.55228475 23,9 L23,6 C23,5.44771525 22.5522847,5 22,5 Z" id="形状结合" fill="#666666" fill-rule="nonzero"></path>
    </g>
</svg>