<!--?xml version="1.0" encoding="UTF-8"?-->
<svg width="32px" height="32px" viewBox="0 0 32 32" version="1.1" xmlns="http://www.w3.org/2000/svg" xmlns:xlink="http://www.w3.org/1999/xlink">
    <title>1358-体验新版</title>
    <g id="1358-体验新版" stroke="none" stroke-width="1" fill="none" fill-rule="evenodd">
        <g id="编组" transform="translate(4.000000, 5.000000)" fill="#000000" fill-rule="nonzero">
            <path d="M23.0954544,13.2666684 C23.5950212,13.2666684 24,13.6716472 24,14.1712139 C24,14.6152732 23.6800168,14.9845964 23.2580478,15.0611861 L23.0954544,15.0757596 L3.56933682,15.0751564 L9.26235244,20.7679668 C9.61560021,21.1212132 9.61560139,21.6939398 9.2623551,22.0471874 C8.94835842,22.3611854 8.46094518,22.396075 8.10841046,22.1518556 L7.98313451,22.0471901 L0.746739794,14.8108256 L0.723057199,14.7862247 C0.702808925,14.7643967 0.683624946,14.7415675 0.665587671,14.7178198 L0.746739794,14.8108256 C0.698194064,14.76228 0.656319769,14.7095894 0.621116969,14.6538928 C0.608486618,14.6337668 0.5963187,14.6127166 0.584995555,14.5911533 C0.571739346,14.5659696 0.560110624,14.5409871 0.549683225,14.5156268 C0.540853644,14.4942649 0.532408199,14.4712538 0.524891874,14.4478265 C0.516020641,14.4198687 0.508730149,14.3926362 0.502729958,14.3651784 C0.497282336,14.3406238 0.492839526,14.3152281 0.489478524,14.2894923 C0.486251222,14.2646221 0.483994894,14.2392666 0.482803325,14.2138705 C0.482141777,14.1995081 0.481815243,14.1853991 0.481815243,14.1712139 L0.48264016,14.1321894 C0.483789237,14.1054145 0.486121488,14.0786808 0.489636914,14.0520736 L0.481815243,14.1712139 C0.481815243,14.103952 0.489156738,14.0384048 0.503082108,13.9753298 C0.508699293,13.9501299 0.515502054,13.9245847 0.523439709,13.8993191 C0.531855804,13.8724165 0.541597311,13.8459259 0.552508215,13.8200492 C0.560972562,13.799917 0.57002013,13.7804129 0.579799672,13.7611854 C0.593442332,13.7344802 0.608748198,13.7078464 0.625324162,13.6821079 C0.637996252,13.662302 0.651142729,13.6435238 0.665084657,13.6251566 C0.682315743,13.6025497 0.700487557,13.5807858 0.719625802,13.559923 C0.727930254,13.5508289 0.737205074,13.541137 0.746737131,13.531605 L0.775069843,13.5044789 C0.795932745,13.4853407 0.817696546,13.4671689 0.840290358,13.4500344 L0.746737131,13.531605 C0.79321688,13.485125 0.843496559,13.4447608 0.896576075,13.4105124 C0.922993321,13.3936013 0.949627108,13.3782955 0.977067576,13.3643483 C0.99554433,13.3548869 1.01504842,13.3458393 1.03478766,13.3375236 C1.06107285,13.3264504 1.08756345,13.3167089 1.11460169,13.308203 C1.13971593,13.3003682 1.16526108,13.2935654 1.1910058,13.2878975 C1.20149952,13.2855016 1.21259784,13.2832692 1.2237676,13.2812418 L1.26720469,13.2745026 C1.29381191,13.2709871 1.32054553,13.2686547 1.34732048,13.2675055 L1.38636081,13.2666684 L23.0954544,13.2666684 Z M15.8916213,0.160269486 L16.0168971,0.26493525 L23.2532616,7.50129981 L23.2747016,7.52349186 C23.2957765,7.54604717 23.3157109,7.56968195 23.3344124,7.59430426 L23.2532616,7.50129981 C23.3018073,7.54984545 23.3436815,7.60253623 23.3788842,7.65823282 C23.3915135,7.67835724 23.4036814,7.69940744 23.4150045,7.7209708 C23.4281953,7.74602952 23.4397701,7.77088067 23.4501559,7.7961062 C23.459555,7.81884654 23.4683296,7.84288614 23.4760901,7.86737704 C23.4848228,7.89517276 23.492153,7.92296124 23.4981419,7.95097899 C23.502325,7.97018433 23.5058943,7.9900615 23.5088034,8.01015242 C23.5133899,8.04224405 23.516276,8.07385212 23.5175084,8.10551251 C23.517938,8.11629782 23.5181848,8.12857513 23.5181848,8.14091012 L23.5174358,8.1781222 C23.5161653,8.20917575 23.5133031,8.24017634 23.5088498,8.27099121 L23.5181848,8.14091012 C23.5181848,8.20621298 23.5112648,8.26989956 23.498118,8.33127655 C23.492153,8.35885903 23.4848228,8.38664751 23.4761513,8.41410395 C23.4683296,8.43893409 23.459555,8.4629737 23.4498152,8.48651269 C23.4397701,8.51093959 23.4281953,8.53579074 23.4154315,8.56018181 C23.4036814,8.58241279 23.3915135,8.60346303 23.3785446,8.62395612 C23.365131,8.64534739 23.3503594,8.66664859 23.3345694,8.687423 C23.3157109,8.71213831 23.2957765,8.73577309 23.2747016,8.75832838 C23.2678965,8.76563453 23.2606565,8.77312556 23.2532616,8.78052043 L23.2310576,8.80197237 C23.2085022,8.82304747 23.1848675,8.84298174 23.1602452,8.86168326 L23.2532616,8.78052043 C23.204716,8.8290661 23.1520253,8.87094025 23.0963286,8.90614293 C23.0761922,8.91878434 23.0551419,8.93095226 23.0335787,8.94227537 C23.0085319,8.95545413 22.9836808,8.96702892 22.9584552,8.97741476 C22.9357028,8.98682585 22.9116633,8.99560061 22.8871723,9.003361 C22.8593887,9.01208154 22.8316003,9.01941178 22.8035826,9.02540068 C22.7947991,9.02736087 22.7855407,9.02919277 22.7762325,9.03088226 L22.7437324,9.03610868 C22.7129176,9.04056202 22.681917,9.043424 22.6508634,9.04469468 L22.6136392,9.04545569 L0.90454557,9.04545569 C0.404978859,9.04545569 0,8.64047686 0,8.14091012 C0,7.69685081 0.319983299,7.3275276 0.74195236,7.25093801 L0.90454557,7.23636455 L20.4300662,7.23636455 L14.7376764,1.54415587 C14.3844294,1.19090885 14.3844294,0.618182293 14.7376764,0.26493525 C15.0516738,-0.0490621 15.5390872,-0.0839506686 15.8916213,0.160269486 Z" id="形状" fill="#346bf6"></path>
        </g>
    </g>
</svg>