<!--?xml version="1.0" encoding="UTF-8"?-->
<svg width="32px" height="32px" viewBox="0 0 32 32" version="1.1" xmlns="http://www.w3.org/2000/svg" xmlns:xlink="http://www.w3.org/1999/xlink">
    <title>888.打印配置</title>
    <g id="888.打印配置" stroke="none" stroke-width="1" fill="none" fill-rule="evenodd">
        <g id="编组" transform="translate(2.000000, 3.000000)" fill="#000000" fill-rule="nonzero">
            <path d="M4.42105263,19.1578947 L1.47368421,19.1578947 C0.659790895,19.1578947 0,18.4981038 0,17.6842105 L0,7.36842105 C0,5.74063442 1.31958179,4.42105263 2.94736842,4.42105263 L25.0526316,4.42105263 C26.6804182,4.42105263 28,5.74063442 28,7.36842105 L28,17.6842105 C28,18.4981038 27.3402091,19.1578947 26.5263158,19.1578947 L23.5789474,19.1578947 L23.5789474,23.5789474 C23.5789474,24.3928407 22.9191565,25.0526316 22.1052632,25.0526316 L5.89473684,25.0526316 C5.08084353,25.0526316 4.42105263,24.3928407 4.42105263,23.5789474 L4.42105263,19.1578947 Z M4.42105263,16.2105263 L4.42105263,13.2631579 L23.5789474,13.2631579 L23.5789474,16.2105263 C24.3928407,16.2105263 25.0526316,15.5507354 25.0526316,14.7368421 L25.0526316,13.2631579 C25.0526316,12.4492646 24.3928407,11.7894737 23.5789474,11.7894737 L4.42105263,11.7894737 C3.60715932,11.7894737 2.94736842,12.4492646 2.94736842,13.2631579 L2.94736842,14.7368421 C2.94736842,15.1276875 3.10263113,15.5025248 3.37900053,15.7788942 C3.65536993,16.0552636 4.03020728,16.2105263 4.42105263,16.2105263 L4.42105263,16.2105263 Z M5.89473684,0 L22.1052632,0 C22.4961085,0 22.8709459,0.155262712 23.1473153,0.431632112 C23.4236847,0.708001512 23.5789474,1.08283886 23.5789474,1.47368421 L23.5789474,2.94736842 L4.42105263,2.94736842 L4.42105263,1.47368421 C4.42105263,0.659790895 5.08084353,0 5.89473684,0 Z M19.1578947,7.36842105 L19.1578947,8.84210526 L25.0526316,8.84210526 L25.0526316,7.36842105 L19.1578947,7.36842105 L19.1578947,7.36842105 Z" id="形状" fill="#346bf6"></path>
        </g>
    </g>
</svg>