<!--?xml version="1.0" encoding="UTF-8"?-->
<svg width="32px" height="32px" viewBox="0 0 32 32" version="1.1" xmlns="http://www.w3.org/2000/svg" xmlns:xlink="http://www.w3.org/1999/xlink">
    <title>726.投资计划类型@1x</title>
    <g id="726.投资计划类型" stroke="none" stroke-width="1" fill="none" fill-rule="evenodd">
        <g id="编组" transform="translate(5.000000, 4.000000)" fill="#000000" fill-rule="nonzero">
            <path d="M20.35,0 C21.2612698,0 22,0.738730158 22,1.65 L22,22.8088236 C22,23.7200934 21.2612698,24.4588236 20.35,24.4588236 L1.65,24.4588236 C0.738730158,24.4588236 0,23.7200934 0,22.8088236 L0,1.65 C0,0.738730158 0.738730158,0 1.65,0 L20.35,0 Z M5.43232232,18.8733257 C4.93229086,18.8733257 4.52693527,19.2757007 4.52693527,19.7720555 C4.52693527,20.2684103 4.93229086,20.6707853 5.43232232,20.6707853 C5.93235378,20.6707853 6.33770937,20.2684103 6.33770937,19.7720555 C6.33770937,19.2757007 5.93235378,18.8733257 5.43232232,18.8733257 Z M18.1643278,18.8733257 L8.99728384,18.8733257 C8.52850435,18.8733257 8.14848348,19.2533465 8.14848348,19.7221261 L8.14848348,19.7221261 L8.14848348,19.8219849 C8.14848348,20.2907645 8.52850435,20.6707853 8.99728384,20.6707853 L8.99728384,20.6707853 L18.1643278,20.6707853 C18.6331073,20.6707853 19.0131281,20.2907645 19.0131281,19.8219849 L19.0131281,19.8219849 L19.0131281,19.7221261 C19.0131281,19.2533465 18.6331073,18.8733257 18.1643278,18.8733257 L18.1643278,18.8733257 Z M5.43232232,14.3796767 C4.93229086,14.3796767 4.52693527,14.7820517 4.52693527,15.2784065 C4.52693527,15.7747613 4.93229086,16.1771363 5.43232232,16.1771363 C5.93235378,16.1771363 6.33770937,15.7747613 6.33770937,15.2784065 C6.33770937,14.7820517 5.93235378,14.3796767 5.43232232,14.3796767 Z M18.1643278,14.3796767 L8.99728384,14.3796767 C8.52850435,14.3796767 8.14848348,14.7596975 8.14848348,15.2284771 L8.14848348,15.2284771 L8.14848348,15.328336 C8.14848348,15.7971155 8.52850435,16.1771363 8.99728384,16.1771363 L8.99728384,16.1771363 L18.1643278,16.1771363 C18.6331073,16.1771363 19.0131281,15.7971155 19.0131281,15.328336 L19.0131281,15.328336 L19.0131281,15.2284771 C19.0131281,14.7596975 18.6331073,14.3796767 18.1643278,14.3796767 L18.1643278,14.3796767 Z M18.3568122,4.40600439 L13.4147233,8.41877221 L9.05579973,5.5733624 L3.5292574,9.67808888 L4.32464989,11.1614256 L9.21675284,7.56604559 L13.4147233,10.1883005 L18.736381,5.79339819 L18.3568122,4.40600439 Z" id="形状" fill="#346bf6"></path>
        </g>
    </g>
</svg>