<!--?xml version="1.0" encoding="UTF-8"?-->
<svg width="32px" height="32px" viewBox="0 0 32 32" version="1.1" xmlns="http://www.w3.org/2000/svg" xmlns:xlink="http://www.w3.org/1999/xlink">
    <title>2.扩展定义</title>
    <g id="2.扩展定义" stroke="none" stroke-width="1" fill="none" fill-rule="evenodd">
        <g id="扩展定义" transform="translate(4.000000, 4.000000)" fill="#000000" fill-rule="nonzero">
            <path d="M16.2771062,0 C20.5423427,0 24,3.45760275 24,7.7227719 C24,11.9879411 20.5423427,15.4455438 16.2771062,15.4455438 C15.414438,15.4455438 14.5848059,15.3041025 13.8101356,15.0431455 L9.6192933,19.2327678 L8.90964874,18.5224561 L8.74797022,18.3796902 C8.07472061,17.8562151 7.10123945,17.9038039 6.48257736,18.5224561 C5.86391529,19.1411085 5.8163259,20.1145741 6.33980918,20.7878132 L6.48257736,20.9494892 L7.19258844,21.6594344 L5.45645662,23.3973168 C5.14696437,23.7068042 4.73091786,23.88635 4.29341924,23.8992287 L0.882976917,23.9996211 C0.409266939,24.0135657 0.0139447042,23.6408582 -4.99479539e-16,23.1671556 L-4.99479539e-16,23.1166581 L0.10039405,19.7062697 C0.113272789,19.2687779 0.292821626,18.8527379 0.602313885,18.5432506 L8.95666322,10.1898407 C8.69567263,9.41514343 8.55421236,8.5854773 8.55421236,7.7227719 C8.55421236,3.45760275 12.0118697,0 16.2771062,0 Z M16.2771062,5.1485146 C14.8553607,5.1485146 13.7028082,6.30104886 13.7028082,7.7227719 C13.7028082,9.14449494 14.8553607,10.2970292 16.2771062,10.2970292 C17.6988516,10.2970292 18.8514041,9.14449494 18.8514041,7.7227719 C18.8514041,6.30104886 17.6988516,5.1485146 16.2771062,5.1485146 Z" id="形状" fill="#346bf6"></path>
        </g>
    </g>
</svg>