<!--?xml version="1.0" encoding="UTF-8"?-->
<svg width="32px" height="32px" viewBox="0 0 32 32" version="1.1" xmlns="http://www.w3.org/2000/svg" xmlns:xlink="http://www.w3.org/1999/xlink">
    <title>UML</title>
    <g id="UML" stroke="none" stroke-width="1" fill="none" fill-rule="evenodd">
        <g id="视觉修正模版" transform="translate(-2.000000, -0.500000)"></g>
        <path d="M29.0089381,6 C28.4616103,6 28.0179072,6.44034931 28.0179072,6.98353997 L28.0179072,20.9733468 C27.9832727,20.8096832 27.8965578,20.6613986 27.770552,20.550363 L24.3371873,17.4858369 C24.0063068,17.1906827 23.4949039,17.2144721 23.1955196,17.5389173 C23.0501348,17.692311 22.9738275,17.8977685 22.9841202,18.1081103 C22.993659,18.3102893 23.0817059,18.50878 23.2460931,18.6575097 L25.2407287,20.4345205 L16.7758998,20.4326763 L16.7758998,9.50564164 C16.7758998,9.06203437 16.3321967,8.70239684 15.7848688,8.70239684 C15.2375411,8.70239684 14.7938379,9.06203437 14.7938379,9.50564164 L14.7938379,11.1306011 L11.4964611,8.18745001 C11.1655807,7.89229578 10.6541778,7.91608518 10.3547935,8.24053041 C10.2094087,8.39392406 10.1331014,8.59938165 10.1433942,8.80972345 C10.1529329,9.01190238 10.2409798,9.21039302 10.405367,9.35912274 L12.3999717,11.1361335 L3.9820619,11.1342894 L3.99103095,5.87178527 C3.99103095,5.39031169 3.54732779,5 3,5 C2.45267217,5 2.00896905,5.39031169 2.00896905,5.87178527 L2.0179381,17.5 C2.0179381,17.9814735 2.46164122,18.3717852 3.00896905,18.3717852 C3.55629684,18.3717852 4,17.9814735 4,17.5 L3.9820619,12.6962739 L4.02706087,12.7164979 L12.4746706,12.7183113 L10.6584516,14.6725438 C10.508713,14.8336599 10.4397434,15.0394963 10.449406,15.2438575 C10.4590686,15.4482187 10.5469916,15.6445271 10.7113788,15.7932569 C11.0422593,16.0884111 11.5536622,16.0646217 11.8530465,15.7401765 L14.7938379,12.5737617 L14.7938379,23.0777819 C14.7938379,23.5213892 15.2375411,23.8810268 15.7848688,23.8810268 C16.3321967,23.8810268 16.7758998,23.5213892 16.7758998,23.0777819 L16.7758998,21.9736069 L16.8678179,22.0149156 L25.3154278,22.0167597 L23.4992086,23.9709922 C23.3494701,24.1321083 23.2805005,24.3379448 23.290163,24.5423059 C23.2998256,24.7466671 23.3877487,24.9429755 23.5521359,25.0917052 C23.8830163,25.3868594 24.3944193,25.36307 24.6938035,25.0386248 L27.8233864,21.6689247 C27.9210512,21.5643265 27.9882903,21.4353899 28.0179382,21.2958556 L28.0179382,26.01646 C28.0179382,26.5596506 28.4616413,27 29.0089691,27 C29.5562969,27 30,26.5596506 30,26.01646 L30,6.98353997 C30,6.44034931 29.5562659,6 29.0089381,6 Z" id="路径" fill="#666666" fill-rule="nonzero"></path>
    </g>
</svg>