<!--?xml version="1.0"?-->
<svg xmlns="http://www.w3.org/2000/svg" class="icon" style="vertical-align:middle;fill:currentColor;overflow:hidden;" viewBox="0 0 1024 1024" version="1.1" width="200px" height="200px"><path d="M903.125 125C922.109788 125 937.5 140.390212 937.5 159.375L937.5 437.5C937.5 454.758898 923.5089 468.75 906.25 468.75L900.632775 468.246521C886.0547 465.600523 875 452.841243 875 437.5L875 375L125 375L125 812.5L468.75 812.5C486.008898 812.5 500 826.4911 500 843.75C500 861.0089 486.008898 875 468.75 875L96.875 875C77.890212 875 62.5 859.609788 62.5 840.625L62.5 159.375C62.5 140.390212 77.890212 125 96.875 125L903.125 125zM905.521988 708.333531L910.993044 708.688575C912.823381 708.971231 914.654131 709.421213 916.466588 710.047631C932.778706 715.6854 941.431981 733.479294 935.794213 749.791413C911.310331 820.632212 842.1232 870.106038 762.090525 874.657194L750.008513 875C705.440588 875 663.641344 861.054613 630.243856 837.082919L624.633511 832.770831L624.505032 834.486275C622.189784 847.242094 612.131554 857.300319 599.375738 859.615569L593.758511 860.11905C576.499613 860.11905 562.508511 846.127944 562.508511 828.86905L562.508511 739.583331C562.508511 718.846381 579.556978 707.444594 595.940802 708.352631L600.818296 708.997313C610.462555 711.037156 619.229871 717.615631 623.294212 729.375256C640.099169 777.998125 691.006694 812.5 750.008513 812.5C809.010331 812.5 859.917856 777.998125 876.722812 729.375256C881.107738 716.68805 892.846375 708.633981 905.521988 708.333531zM750.008513 500C794.576438 500 836.375681 513.945387 869.773169 537.917083L875.383513 542.1875L875.511994 540.513726C877.827238 527.757909 887.885469 517.699679 900.641281 515.384432L906.258513 514.880953C923.517413 514.880953 937.508513 528.872054 937.508513 546.130953L937.508513 635.416669C937.508513 654.079925 923.699256 665.181694 908.993594 666.553463L904.076219 666.647369C892.607544 666.011744 881.464544 659.344306 876.722812 645.624744C859.917856 597.001872 809.010331 562.5 750.008513 562.5C691.006694 562.5 640.099169 597.001872 623.294212 645.624744C619.535701 656.499494 610.374466 663.970306 599.851368 666.072094L594.495038 666.666469C590.873436 666.752313 587.175347 666.205206 583.550432 664.952369C567.238315 659.3146 558.585044 641.520706 564.222811 625.208588C589.930882 550.825749 664.924294 500 750.008513 500zM875 187.5L125 187.5L125 312.5L875 312.5L875 187.5zM218.75 218.75C236.008898 218.75 250 232.741102 250 250C250 265.341243 238.945302 278.100523 224.367227 280.746521L218.75 281.25C201.491102 281.25 187.5 267.258898 187.5 250C187.5 232.741102 201.491102 218.75 218.75 218.75zM312.5 218.75C329.758897 218.75 343.75 232.741102 343.75 250C343.75 265.341243 332.695301 278.100523 318.117227 280.746521L312.5 281.25C295.241102 281.25 281.25 267.258898 281.25 250C281.25 232.741102 295.241102 218.75 312.5 218.75zM406.25 218.75C423.508897 218.75 437.5 232.741102 437.5 250C437.5 265.341243 426.445301 278.100523 411.867227 280.746521L406.25 281.25C388.991103 281.25 375 267.258898 375 250C375 232.741102 388.991103 218.75 406.25 218.75z" fill="#666666"></path></svg>
