<!--?xml version="1.0" encoding="UTF-8"?-->
<svg width="32px" height="32px" viewBox="0 0 32 32" version="1.1" xmlns="http://www.w3.org/2000/svg" xmlns:xlink="http://www.w3.org/1999/xlink">
    <title>1497-从SVN更新元数据</title>
    <g id="1497-从SVN更新元数据" stroke="none" stroke-width="1" fill="none" fill-rule="evenodd">
        <g id="编组" transform="translate(4.000000, 4.000000)" fill="#000000" fill-rule="nonzero">
            <path d="M1.4680475,17.7491581 C-1.64039171,12.0296299 0.338523083,4.85700006 5.97715693,1.60025459 C10.8308162,-1.20108581 16.8379687,-0.206385262 20.5860722,3.66156176 L20.5800801,3.66755391 C20.7793198,4.06453532 20.7373746,4.38811261 20.4542445,4.63978382 C20.1696163,4.88995699 19.846039,4.88995699 19.4820146,4.63978382 L19.4775204,4.64427796 C16.1968063,1.29015969 10.961146,0.43477713 6.73067256,2.87658722 C5.69019242,3.47611769 4.76120531,4.25103383 3.98475975,5.16709496 C1.42631741,8.14672224 0.744898373,12.3051701 2.21856706,15.9455143 L4.89107575,14.40253 L5.56219903,15.5650114 L1.4680475,17.7491581 L1.4680475,17.7491581 Z M3.28667169,20.3033214 C3.15184782,19.9243166 3.19678912,19.6217119 3.42449166,19.3955074 C3.65668833,19.1648087 3.98925386,19.1408401 4.42218829,19.3221033 C7.91183591,22.8966421 13.4379509,23.5147115 17.6310819,20.7994545 C21.8242129,18.0841975 23.5211158,12.7888716 21.6871339,8.14220837 L18.975676,9.70766328 L18.2266545,8.41035807 L21.0339871,6.78947554 C21.0290046,6.7804812 21.0240111,6.77149294 21.0190067,6.76251076 L22.3163119,6.01348925 C25.3542542,11.2638791 23.9901204,17.956261 19.139519,21.5986988 C14.2889175,25.2411366 7.48161043,24.6848938 3.28667169,20.3033214 L3.28667169,20.3033214 Z" id="形状" fill="#346bf6"></path>
        </g>
    </g>
</svg>