<!--?xml version="1.0" encoding="UTF-8"?-->
<svg width="32px" height="32px" viewBox="0 0 32 32" version="1.1" xmlns="http://www.w3.org/2000/svg" xmlns:xlink="http://www.w3.org/1999/xlink">
    <title>122.传文件到电脑</title>
    <g id="122.传文件到电脑" stroke="none" stroke-width="1" fill="none" fill-rule="evenodd">
        <g id="传文件到电脑" transform="translate(4.000000, 6.000000)" fill="#000000" fill-rule="nonzero">
            <path d="M22.2857143,19.25 C22.7591012,19.25 23.1428571,19.6417509 23.1428571,20.125 C23.1428571,20.6082491 22.7591012,21 22.2857143,21 L1.71428571,21 C1.2408988,21 0.857142857,20.6082491 0.857142857,20.125 C0.857142857,19.6417509 1.2408988,19.25 1.71428571,19.25 L22.2857143,19.25 Z M23.1428571,0 C23.616244,0 24,0.391750856 24,0.875 L24,16.625 C24,17.1082491 23.616244,17.5 23.1428571,17.5 L0.857142857,17.5 C0.383755941,17.5 0,17.1082491 0,16.625 L0,0.875 C0,0.391750856 0.383755941,0 0.857142857,0 L23.1428571,0 Z M22.2857143,1.75 L1.71428571,1.75 L1.71428571,15.75 L22.2857143,15.75 L22.2857143,1.75 Z M11.3939085,3.75628156 C11.7028947,3.44085809 12.1890927,3.41659475 12.5253423,3.68349153 L12.6060915,3.75628156 L16.034663,7.25628156 C16.3693981,7.59799032 16.3693981,8.15200968 16.034663,8.49371846 C15.7256767,8.80914185 15.2394787,8.83340525 14.9032291,8.56650847 L14.8224799,8.49371846 L12.8571429,6.4874369 L12.8571429,13.125 C12.8571429,13.6082491 12.4733869,14 12,14 C11.5604265,14 11.1981367,13.6622148 11.1486238,13.2270435 L11.1428571,13.125 L11.1428571,6.4874369 L9.17752013,8.49371846 C8.842785,8.83542722 8.30007215,8.83542722 7.96533704,8.49371846 C7.65635084,8.17829496 7.63258261,7.68196783 7.89403252,7.33871303 L7.96533704,7.25628156 L11.3939085,3.75628156 Z" id="形状" fill="#666666"></path>
        </g>
    </g>
</svg>