<!--?xml version="1.0"?-->
<svg xmlns="http://www.w3.org/2000/svg" class="icon" style="vertical-align:middle;fill:currentColor;overflow:hidden;" viewBox="0 0 1024 1024" version="1.1" width="200px" height="200px"><path d="M364.687488 96.402862C444.169763 81.269509 611.647878 131.517893 625.901531 230.883576L625.901531 347.054835C625.901531 347.054835 662.837 354.755699 656.354594 415.427C651.576722 460.244188 626.950928 481.127603 602.395881 500.948791L593.764769 507.937638C588.055894 512.617125 582.480678 517.386769 577.298587 522.544519C547.504172 552.221441 552.997116 599.497269 504.394169 623.686703C504.394169 623.686703 497.789294 627.962891 487.013363 633.367519L488.062903 678.599509C488.062903 678.599509 501.947216 685.288878 522.440669 694.853244C520.544409 706.339122 519.550519 718.135163 519.550519 730.163394C519.550519 830.317906 588.45965 914.373875 681.441822 937.484175L0 937.460619C0 835.920575 48.80629 759.765544 108.018336 740.405222C167.230382 721.0449 292.837742 678.601322 292.837742 678.601322L291.470627 611.320488C262.572985 585.647672 263.510258 547.734488 237.077974 522.544519C230.312631 516.097147 223.058207 510.258753 215.78065 504.445947L207.066299 497.445519C183.957461 478.611331 162.520257 457.649541 158.022833 415.443416C151.542164 354.808398 171.291895 347.054835 186.529273 347.054835L186.529273 243.904664C193.631058 160.520363 285.79647 105.516221 364.687488 96.402862zM809.650338 490.790291L821.36225 548.398388C835.770328 552.243541 849.606847 557.977413 862.512066 565.450928L911.499944 532.899163L957.816781 579.221741L925.442428 628.306394C932.943166 641.262381 938.676831 655.164103 942.490775 669.641431L1000 681.350578L1000 746.877741L942.406069 758.609481C938.589556 773.085944 932.856028 786.987331 925.357725 799.944519L957.901484 848.944444L911.499944 895.35175L862.512066 862.805631C849.612375 870.288969 835.774263 876.021603 821.36225 879.852522L809.650338 937.460619L744.139288 937.460619L732.427372 879.852522C718.019112 876.005238 704.181241 870.273494 691.271909 862.805631L642.199328 895.35175L595.797788 848.938794L628.3359 799.938869C620.868825 786.966981 615.138844 773.069597 611.293203 758.603831L553.699272 746.889038L553.699272 681.361875L611.293203 669.647081C615.097794 655.154213 620.859988 641.247813 628.420606 628.312041L595.882491 579.312116L642.284034 532.899163L691.271909 565.3662C704.178431 557.891278 718.017006 552.157341 732.427372 548.313663L744.139288 490.790291L809.650338 490.790291zM777.048044 639.680356C735.945803 639.637088 702.591544 672.929097 702.542694 714.041447C702.499434 755.159219 735.783256 788.5271 776.8855 788.570563C817.993159 788.619231 851.352838 755.321803 851.396269 714.209453C851.439528 673.091681 818.155706 639.729219 777.048044 639.680356z" fill="#666666"></path></svg>
