<!--?xml version="1.0" encoding="UTF-8"?-->
<svg width="32px" height="32px" viewBox="0 0 32 32" version="1.1" xmlns="http://www.w3.org/2000/svg" xmlns:xlink="http://www.w3.org/1999/xlink">
    <title>176.优惠券</title>
    <g id="176.优惠券" stroke="none" stroke-width="1" fill="none" fill-rule="evenodd">
        <g id="优惠券" transform="translate(4.000000, 7.000000)" fill="#000000" fill-rule="nonzero">
            <path d="M23.1428571,0 C23.5824307,0 23.9447205,0.333398348 23.9942334,0.762918124 L24,0.863636364 L24,6.90909091 C24,7.38606406 23.616244,7.77272727 23.1428571,7.77272727 C22.1960833,7.77272727 21.4285714,8.54605361 21.4285714,9.5 C21.4285714,10.4105852 22.1278953,11.1565971 23.014918,11.2225351 L23.2428181,11.233083 C23.6363169,11.2791336 23.9485291,11.593711 23.9942334,11.9901909 L24,12.0909091 L24,18.1363636 C24,18.5792673 23.6691084,18.9443017 23.2428181,18.9941897 L23.1428571,19 L0.857142857,19 C0.41756928,19 0.0552795703,18.6666017 0.00576663771,18.2370818 L0,18.1363636 L0,12.0909091 C0,11.6480054 0.330891593,11.2829711 0.757181897,11.233083 L0.985082002,11.2225351 C1.87210475,11.1565971 2.57142857,10.4105852 2.57142857,9.5 C2.57142857,8.54605361 1.80391672,7.77272727 0.857142857,7.77272727 C0.41756928,7.77272727 0.0552795703,7.43932893 0.00576663771,7.00980912 L0,6.90909091 L0,0.863636364 C0,0.420732684 0.330891593,0.0556983549 0.757181897,0.00581032436 L0.857142857,0 L23.1428571,0 Z M6,1.72727273 L1.71428571,1.72727273 L1.71428571,6.15427273 L1.8473596,6.19171663 C3.14928019,6.5867832 4.124856,7.74072472 4.26765649,9.14327413 L4.28151832,9.32758339 L4.28571429,9.5 C4.28571429,11.0009646 3.33566079,12.2783513 2.00840429,12.7549698 L1.8473596,12.8082834 L1.71428571,12.8448636 L1.71428571,17.2727273 L6,17.2727273 L6,1.72727273 Z M22.2857143,1.72727273 L7.71428571,1.72727273 L7.71428571,17.2727273 L22.2857143,17.2727273 L22.2857143,12.8448636 L22.1526404,12.8082834 C20.8507198,12.4132168 19.875144,11.2592753 19.7323435,9.85672587 L19.7184817,9.67241661 L19.7142857,9.5 C19.7142857,7.9990354 20.6643392,6.72164874 21.9915957,6.24503021 L22.1526404,6.19171663 L22.2857143,6.15427273 L22.2857143,1.72727273 Z M16.2857143,11.2272727 C16.7591012,11.2272727 17.1428571,11.6139359 17.1428571,12.0909091 C17.1428571,12.5678822 16.7591012,12.9545455 16.2857143,12.9545455 L11.1428571,12.9545455 C10.6694703,12.9545455 10.2857143,12.5678822 10.2857143,12.0909091 C10.2857143,11.6139359 10.6694703,11.2272727 11.1428571,11.2272727 L16.2857143,11.2272727 Z M16.2857143,6.04545455 C16.7591012,6.04545455 17.1428571,6.43211776 17.1428571,6.90909091 C17.1428571,7.38606406 16.7591012,7.77272727 16.2857143,7.77272727 L11.1428571,7.77272727 C10.6694703,7.77272727 10.2857143,7.38606406 10.2857143,6.90909091 C10.2857143,6.43211776 10.6694703,6.04545455 11.1428571,6.04545455 L16.2857143,6.04545455 Z" id="形状" fill="#666666"></path>
        </g>
    </g>
</svg>