<!--?xml version="1.0" encoding="UTF-8"?-->
<svg width="32px" height="32px" viewBox="0 0 32 32" version="1.1" xmlns="http://www.w3.org/2000/svg" xmlns:xlink="http://www.w3.org/1999/xlink">
    <title>788.资产维护</title>
    <g id="788.资产维护" stroke="none" stroke-width="1" fill="none" fill-rule="evenodd">
        <g id="编组" transform="translate(4.000000, 2.000000)" fill="#000000" fill-rule="nonzero">
            <path d="M11.0936614,0.19144999 C11.4343883,-0.0629227917 11.8932778,-0.0638970983 12.2350038,0.189026746 L12.2350038,0.189026746 L12.8791972,0.661564856 C14.1173494,1.51042427 15.4388186,2.22038437 16.8213797,2.77950486 C19.064386,3.70034839 21.2607115,3.76577673 21.3237304,3.76577673 L21.3237304,3.76577673 L22.3833817,3.78273963 C22.9046388,3.78665957 23.3269901,4.22300404 23.3333333,4.7665882 L23.3333333,4.7665882 L23.3333333,16.8230703 C23.3263311,17.9505942 21.790537,21.4968604 19.0923944,24.1091481 C16.634657,26.493648 12.872195,28.2453974 11.6701677,27.9718442 C10.4681404,27.6982909 6.70567836,26.493648 4.24794103,24.1091481 C1.54746424,21.4968604 0,17.850499 0,16.8230703 L0,16.8230703 L0,4.76174165 C0.00637737332,4.22004226 0.430497262,3.78402371 0.952285692,3.78273963 L0.952285692,3.78273963 L2.01893903,3.76577673 C2.07962393,3.76335343 4.27594947,3.70034839 6.51428763,2.77950486 C8.89033378,1.80050284 10.4471342,0.666411376 10.4634724,0.656718305 L10.4634724,0.656718305 L11.0936614,0.19144999 Z M12.4444444,10.8888889 L10.8888889,10.8888889 L10.8888889,12.4444444 L6.22307024,12.4444444 C6.33497709,12.4444444 6.22307024,12.6552492 6.22307024,12.6552492 L6.22307024,12.6552492 L6.22307024,14 L10.8888889,14 L10.8888889,17.1111111 L6.22222221,17.1111111 L6.22222221,18.6666666 L10.8888889,18.6666666 L10.8888889,21.7777777 L12.4444444,21.7777777 L12.4444444,18.6666666 L17.1111111,18.6666666 L17.1111111,17.1111111 L12.4444444,17.1111111 L12.4444444,14 L17.1119592,14 L17.1119592,12.4444444 L12.4444444,12.4444444 L12.4444444,10.8888889 Z M10.8888889,9.33333331 L9.33333332,9.33333331 L9.33333332,10.8888889 L10.8888889,10.8888889 L10.8888889,9.33333331 Z M14,9.33333331 L12.4444444,9.33333331 L12.4444444,10.8888889 L14,10.8888889 L14,9.33333331 Z M9.33333332,7.77777776 L7.77777777,7.77777776 L7.77777777,9.33333331 L9.33333332,9.33333331 L9.33333332,7.77777776 Z M15.5555555,7.77777776 L14,7.77777776 L14,9.33333331 L15.5555555,9.33333331 L15.5555555,7.77777776 Z M17.1111111,6.2222222 L15.5555555,6.2222222 L15.5555555,7.77777776 L17.1111111,7.77777776 L17.1111111,6.2222222 Z M7.77777777,6.2222222 L6.22222221,6.2222222 L6.22222221,7.77777776 L7.77777777,7.77777776 L7.77777777,6.2222222 Z" id="形状" fill="#346bf6"></path>
        </g>
    </g>
</svg>