<!--?xml version="1.0" encoding="UTF-8"?-->
<svg width="32px" height="32px" viewBox="0 0 32 32" version="1.1" xmlns="http://www.w3.org/2000/svg" xmlns:xlink="http://www.w3.org/1999/xlink">
    <title>韦恩图</title>
    <g id="韦恩图" stroke="none" stroke-width="1" fill="none" fill-rule="evenodd">
        <g id="视觉修正模版" transform="translate(-2.000000, -0.500000)"></g>
        <path d="M12.5,5 C15.5222636,5 18.2722284,6.16584989 20.3246968,8.07235204 C20.7095292,8.02448643 21.101905,8 21.5,8 C26.7467051,8 31,12.2532949 31,17.5 C31,22.7467051 26.7467051,27 21.5,27 C20.3709337,27 19.2878712,26.8030341 18.2832989,26.4415886 C16.5847897,27.4324601 14.6086729,28 12.5,28 C6.14872538,28 1,22.8512746 1,16.5 C1,10.1487254 6.14872538,5 12.5,5 Z M12.5,7 C7.25329488,7 3,11.2532949 3,16.5 C3,21.7467051 7.25329488,26 12.5,26 C13.7664461,26 14.9750121,25.7521861 16.079852,25.3024045 L15.9301645,25.1967497 C13.5488366,23.4704802 12,20.6661152 12,17.5 C12,13.5197409 14.447794,10.1111948 17.920148,8.69759546 L17.8636997,8.65794123 C16.3373308,7.61194849 14.4901295,7 12.5,7 Z M21.998583,10.0163091 L22.0928433,10.155219 C23.2980673,11.9737731 24,14.154914 24,16.5 C24,19.8202212 22.5929421,22.8118064 20.342587,24.9109948 C20.7197838,24.9696726 21.1063502,25 21.5,25 C25.6421356,25 29,21.6421356 29,17.5 C29,13.5253985 25.9082689,10.2729094 21.998583,10.0163091 Z M19.6389006,10.2319513 L19.6185863,10.2379366 C16.3870401,11.0727454 14,14.0076111 14,17.5 C14,20.4138087 15.6616386,22.9395208 18.0890355,24.1812561 C20.4599139,22.454611 22,19.6571587 22,16.5 C22,14.0982516 21.1087343,11.9046694 19.6389006,10.2319513 Z" id="形状结合" fill="#666666" fill-rule="nonzero"></path>
    </g>
</svg>