<!--?xml version="1.0" encoding="UTF-8"?-->
<svg width="32px" height="32px" viewBox="0 0 32 32" version="1.1" xmlns="http://www.w3.org/2000/svg" xmlns:xlink="http://www.w3.org/1999/xlink">
    <title>1742.工作组</title>
    <g id="1742.工作组" stroke="none" stroke-width="1" fill="none" fill-rule="evenodd">
        <path d="M21.5686054,8.43869732 L21.5686054,11.3517534 C21.5686054,11.3517534 22.5061488,11.5448567 22.3416041,13.0662218 C22.177522,14.5866771 21.0912493,15.0085841 20.3349032,15.7522505 C19.5786232,16.4964151 19.7180521,17.6818816 18.4843499,18.2884445 L18.493294,18.4124595 C18.6798486,18.4812068 18.7093521,18.56674 18.5053766,18.6689938 L18.5053766,20.1373937 L18.5666531,20.1578308 C18.5932798,20.1667029 18.6281748,20.1783216 18.6705283,20.1924054 L18.8627345,20.2562262 C19.3107446,20.4047819 20.1213639,20.6722303 20.9529881,20.9399191 L21.3689691,21.0732342 C22.1290113,21.3156679 22.8588631,21.5416868 23.2954024,21.6598987 C23.9656669,21.8808143 24.6038139,22.8075978 25.2098432,24.4402493 C25.2881918,24.6503418 25.3282376,24.8727335 25.3285961,25.0969588 C25.3301942,26.0963299 24.5599323,26.9167246 23.5801113,26.9940429 L23.4316368,26.999997 L8.59925707,26.999997 C8.36944399,26.9999143 8.14155229,26.9581398 7.92665216,26.8767028 C6.94540466,26.5048561 6.45138766,25.4079566 6.82267752,24.4264981 C7.43659958,22.8023931 8.09308027,21.8801933 8.79211959,21.6598987 C9.2965708,21.5009264 9.98957145,21.2787734 10.6893718,21.0532237 L11.108614,20.9179646 C12.3600644,20.513834 13.5157719,20.1374384 13.5157719,20.1374384 L13.5157719,18.6689938 C13.3168303,18.5692635 13.3399859,18.4854387 13.5143964,18.4175194 C13.5169357,18.369388 13.520303,18.3216181 13.5249367,18.274681 L13.515,18.269 L13.3459501,18.1755976 C13.1491984,18.0529126 12.9947918,17.9128778 12.8682574,17.7617323 C12.8617192,17.7530269 12.8544275,17.7441852 12.8472278,17.7353069 L12.8682574,17.7617323 C12.3432626,17.1346254 12.2980717,16.3162555 11.6989879,15.7522505 C11.5742601,15.6348261 11.4429833,15.5254574 11.3096892,15.4185392 L11.0417537,15.2063095 C10.4165609,14.7109803 9.81322788,14.1876393 9.69230906,13.0666334 C9.52780842,11.5461781 10.0291214,11.3517534 10.415896,11.3517534 L10.415896,8.76520802 C10.5961626,6.67430234 12.9356232,5.29504426 14.938136,5.06652193 C15.1505066,5.026577 15.3876265,5.00479807 15.6423542,5.00070946 L15.8365898,5.0009525 C18.0070428,5.03994876 21.2544068,6.27489834 21.5686054,8.43869732 Z M9.66016823,8.32209233 L9.66016823,10.7029745 C9.66016823,10.7029745 8.75020831,11.5548793 8.85193137,12.8611743 C9.03764294,15.2460229 10.9591571,15.887468 10.7992201,16.4577478 C10.5372978,17.391671 10.3057392,18.0014527 9.31877738,18.4867031 C9.31877738,18.4867031 9.28011445,18.5114311 9.21043777,18.5511141 C9.45591469,18.6116189 9.53447169,18.6914466 9.33559873,18.7911425 L9.33559873,19.9658625 L9.43461077,19.998858 C9.59902455,20.0535704 9.95368477,20.1712796 10.3882641,20.3136646 C7.44846737,20.7820497 5.20175604,22.8888857 5.05867264,25.4554843 L1.8148838,25.4559582 C1.58107103,25.4559582 1.34946214,25.4121088 1.13279971,25.3268478 C0.204233592,24.961438 -0.243138533,23.9350334 0.13356975,23.0343103 C0.582958859,21.9597926 1.06009989,21.342978 1.56499283,21.1838665 C2.77567576,20.802333 5.3439148,19.9658982 5.3439148,19.9658982 L5.3439148,18.7911425 C5.14340053,18.6906238 5.22491442,18.6103026 5.4751195,18.5501788 C5.44872414,18.5341215 5.42680059,18.5210848 5.41003714,18.5109346 L5.37093023,18.4867031 C4.38396845,18.0014527 4.5224415,17.0526982 3.89048755,16.4577478 C3.77896627,16.3527565 3.66090046,16.2558154 3.54135146,16.1606642 L3.30177551,15.9708933 C2.82466705,15.5887049 2.37781499,15.1683779 2.28514443,14.309254 C2.15354391,13.0928897 2.5545943,12.93735 2.86401402,12.93735 L2.86401402,10.8681136 C3.00822731,9.19538898 4.8797958,8.09198247 6.48180615,7.9091646 C7.33475055,7.74873371 8.53208604,7.79810074 9.66016823,8.32209233 Z M22.3398318,8.32209233 C23.467914,7.79810074 24.6652495,7.74873371 25.5181939,7.9091646 C27.1202042,8.09198247 28.9917727,9.19538898 29.135986,10.8681136 L29.135986,12.93735 C29.4454057,12.93735 29.8464561,13.0928897 29.7148556,14.309254 C29.622185,15.1683779 29.175333,15.5887049 28.6982245,15.9708933 L28.4586485,16.1606642 C28.3390995,16.2558154 28.2210337,16.3527565 28.1095124,16.4577478 C27.4775585,17.0526982 27.6160316,18.0014527 26.6290698,18.4867031 L26.5899629,18.5109346 C26.5731994,18.5210848 26.5512759,18.5341215 26.5248805,18.5501788 C26.7750856,18.6103026 26.8565995,18.6906238 26.6560852,18.7911425 L26.6560852,19.9658982 C26.6560852,19.9658982 29.2243242,20.802333 30.4350072,21.1838665 C30.9399001,21.342978 31.4170411,21.9597926 31.8664302,23.0343103 C32.2431385,23.9350334 31.7957664,24.961438 30.8672003,25.3268478 C30.6505379,25.4121088 30.418929,25.4559582 30.1851162,25.4559582 L26.9413274,25.4554843 C26.798244,22.8888857 24.5515326,20.7820497 21.6117359,20.3136646 C22.0463152,20.1712796 22.4009754,20.0535704 22.5653892,19.998858 L22.6644013,19.9658625 L22.6644013,18.7911425 C22.4655283,18.6914466 22.5440853,18.6116189 22.7895622,18.5511141 C22.7198855,18.5114311 22.6812226,18.4867031 22.6812226,18.4867031 C21.6942608,18.0014527 21.4627022,17.391671 21.2007799,16.4577478 C21.0408429,15.887468 22.9623571,15.2460229 23.1480686,12.8611743 C23.2497917,11.5548793 22.3398318,10.7029745 22.3398318,10.7029745 Z" id="形状结合" fill="#666666"></path>
    </g>
</svg>