<!--?xml version="1.0" encoding="UTF-8"?-->
<svg width="32px" height="32px" viewBox="0 0 32 32" version="1.1" xmlns="http://www.w3.org/2000/svg" xmlns:xlink="http://www.w3.org/1999/xlink">
    <title>938.缺陷管理</title>
    <g id="938.缺陷管理" stroke="none" stroke-width="1" fill="none" fill-rule="evenodd">
        <g id="编组" transform="translate(3.000000, 2.000000)" fill="#000000" fill-rule="nonzero">
            <path d="M12.59937,2.10829459 C10.1984901,2.10829459 8.39958003,3.9142043 8.09859508,6.32348382 C8.99875007,6.32348382 9.59932003,6.02249887 10.499475,6.02249887 L14.699265,6.02249887 C15.59942,6.02249887 16.4981751,6.32348382 17.098745,6.62446878 C16.79916,4.21658918 14.99885,2.10829459 12.59937,2.10829459 Z M22.7978601,19.8706065 C24.8977551,20.7749613 24.8977551,23.1828409 25.19874,27.0970451 C25.19874,27.3980301 24.8977551,28 24.2985851,28 C23.999,28 23.3984301,27.699015 23.3984301,27.0970451 C23.3984301,22.5808709 23.098845,21.978901 22.1986901,21.6779161 C20.0987951,25.2897355 16.79916,28 12.59937,28 C11.39963,28 10.1984901,27.699015 8.99875007,27.0970451 C6.29968502,25.8931053 4.19979003,24.0871956 3.00005001,21.3769311 C2.39948005,21.6779161 2.09989502,22.279886 1.79891006,26.7946602 C1.79891006,27.3966302 1.19974002,27.699015 0.900154992,27.699015 C0.299585031,27.699015 5.83245932e-16,27.0970451 5.83245932e-16,26.4950752 C0.298185079,22.880456 0.298185079,20.4725764 2.39808009,19.5696215 C2.09849506,18.3656817 1.79751013,17.1617419 1.79751013,15.6568172 C1.79751013,15.0548472 1.79751013,14.4528774 2.09849506,13.8509074 C0.298185079,12.6469676 0.298185079,10.5372731 5.83245932e-16,6.92405378 C5.83245932e-16,6.62306883 0.299585031,6.02109894 0.900154992,6.02109894 C1.19974002,6.02109894 1.79891006,6.3220839 1.79891006,6.92405378 C2.09989502,9.93390329 2.09989502,11.440228 2.40087994,11.739813 C3.29963501,9.93390329 4.79896004,8.12799361 6.29968502,7.22503874 L6.29968502,6.92405378 C6.29968502,3.31223439 9.29973503,0 12.59937,0 C15.899005,0 18.8990551,3.00984951 18.899055,6.92405378 L18.899055,7.5260237 C20.6979651,8.42897854 22.19869,9.93390329 22.7978601,12.0421979 C23.0988451,11.440228 23.0988451,10.2362882 23.39983,7.22643867 C23.39983,6.62306883 23.999,6.32208387 24.2985851,6.3220839 C24.8977551,6.3220839 25.19874,6.92405381 25.19874,7.22503874 C24.8977551,10.5372731 24.5981701,12.9451527 23.0988451,13.8481076 C23.3984301,14.4500775 23.3984301,15.0520474 23.3984301,15.6540173 L23.3984301,15.9564022 C23.3984301,17.160342 23.098845,18.3642818 22.7978601,19.8692065 L22.7978601,19.8706065 Z M12.59937,19.1580421 C13.0935453,19.1580421 13.3413329,18.5686716 13.3413329,18.5686716 L13.3413329,11.20084 C13.3413329,10.6114694 13.0935453,10.3160842 12.59937,10.3160842 C12.1051948,10.3160842 11.8574071,10.6100695 11.8574071,11.20084 L11.8574071,18.5686716 C11.8574071,18.8626569 12.1051948,19.1580421 12.59937,19.1580421 L12.59937,19.1580421 Z M11.8574071,21.3685316 C11.8574071,21.7745113 12.1891906,22.1048947 12.59937,22.1048947 C13.0081496,22.1048947 13.3413329,21.7759112 13.3413329,21.3685316 C13.3405918,21.1724929 13.2620042,20.9847781 13.1228588,20.8466829 C12.9837135,20.7085877 12.7954087,20.6314244 12.59937,20.6321631 C12.4033314,20.6314244 12.2150266,20.7085877 12.0758812,20.8466829 C11.9367359,20.9847781 11.8581483,21.1724929 11.8574071,21.3685316 L11.8574071,21.3685316 Z" id="形状" fill="#346bf6"></path>
        </g>
    </g>
</svg>